<svg xmlns="http://www.w3.org/2000/svg" xmlns:svg="http://www.w3.org/2000/svg" id="svg4" width="16" height="16" version="1.1" viewBox="0 0 16 16"><path id="path947" style="fill:#241f31;stroke-width:2;stroke-linecap:round;stroke-linejoin:round;stop-color:#000" d="m 15,2.9999998 a 2,2 0 0 1 -2,2 2,2 0 0 1 -2,-2 2,2 0 0 1 2,-2.00000004 2,2 0 0 1 2,2.00000004 z"/><path id="path949" style="fill:#241f31;stroke-width:2;stroke-linecap:round;stroke-linejoin:round;stop-color:#000" d="m 15,13 a 2,2 0 0 1 -2,2 2,2 0 0 1 -2,-2 2,2 0 0 1 2,-2 2,2 0 0 1 2,2 z"/><path id="path951" style="fill:#241f31;stroke-width:2;stroke-linecap:round;stroke-linejoin:round;stop-color:#000" d="M 5,13 A 2,2 0 0 1 3,15 2,2 0 0 1 1,13 2,2 0 0 1 3,11 2,2 0 0 1 5,13 Z"/><path id="path951-3" style="fill:#241f31;stroke-width:2;stroke-linecap:round;stroke-linejoin:round;stop-color:#000" d="M 5,3 A 2,2 0 0 1 3,5 2,2 0 0 1 1,3 2,2 0 0 1 3,1 2,2 0 0 1 5,3 Z"/><path style="color:#000;fill:#241f31;fill-opacity:.5;stroke-linecap:round;stroke-linejoin:round;-inkscape-stroke:none" id="path928" d="M 8,2 C 4.6922171,2 2,4.6922171 2,8 c 0,3.307783 2.6922171,6 6,6 3.307783,0 6,-2.692217 6,-6 C 14,4.6922171 11.307783,2 8,2 Z m 0,1 c 2.767343,0 5,2.2326567 5,5 0,2.767343 -2.232657,5 -5,5 C 5.2326567,13 3,10.767343 3,8 3,5.2326567 5.2326567,3 8,3 Z"/></svg>