<?xml version="1.0" encoding="UTF-8" standalone="no"?>
<svg
   height="16px"
   viewBox="0 0 16 16"
   width="16px"
   version="1.1"
   id="svg4"
   xmlns="http://www.w3.org/2000/svg"
   xmlns:svg="http://www.w3.org/2000/svg">
  <defs
     id="defs8" />
  <path
     id="path849"
     style="fill:#241f31;stroke-width:2;stroke-linecap:round;stroke-linejoin:round;stop-color:#000000"
     d="M 9,7 A 1,1 0 0 1 8,8 1,1 0 0 1 7,7 1,1 0 0 1 8,6 1,1 0 0 1 9,7 Z" />
  <path
     id="path851"
     style="fill:#241f31;stroke-width:2;stroke-linecap:round;stroke-linejoin:round;stop-color:#000000"
     d="M 9,4 A 1,1 0 0 1 8,5 1,1 0 0 1 7,4 1,1 0 0 1 8,3 1,1 0 0 1 9,4 Z" />
  <path
     id="path853"
     style="fill:#241f31;stroke-width:2;stroke-linecap:round;stroke-linejoin:round;stop-color:#000000"
     d="M 9,1 A 1,1 0 0 1 8,2 1,1 0 0 1 7,1 1,1 0 0 1 8,0 1,1 0 0 1 9,1 Z" />
  <path
     style="color:#000000;fill:#241f31;stroke-linecap:round;stroke-linejoin:round;-inkscape-stroke:none"
     d="m 4,7 a 1,1 0 0 0 -0.7070312,0.2929687 1,1 0 0 0 0,1.4140626 l 3.9999999,3.9999997 a 1.0001,1.0001 0 0 0 1.4140626,0 L 12.707031,8.7070313 a 1,1 0 0 0 0,-1.4140626 1,1 0 0 0 -1.414062,0 L 8,10.585938 4.7070312,7.2929687 A 1,1 0 0 0 4,7 Z"
     id="path888" />
  <path
     id="rect1091"
     style="fill:#241f31;stroke-width:2;stroke-linecap:round;stroke-linejoin:round;stop-color:#000000"
     d="m 3,14 h 10 c 0.554,0 1,0.446 1,1 0,0.554 -0.446,1 -1,1 H 3 C 2.446,16 2,15.554 2,15 2,14.446 2.446,14 3,14 Z" />
</svg>
