<svg xmlns="http://www.w3.org/2000/svg" xmlns:svg="http://www.w3.org/2000/svg" id="svg4" width="16" height="16" version="1.1" viewBox="0 0 16 16"><path id="path849" d="M 9,9 A 1,1 0 0 1 8,10 1,1 0 0 1 7,9 1,1 0 0 1 8,8 1,1 0 0 1 9,9 Z" style="fill:#241f31;stroke-width:2;stroke-linecap:round;stroke-linejoin:round;stop-color:#000"/><path id="path851" d="M 9,6 A 1,1 0 0 1 8,7 1,1 0 0 1 7,6 1,1 0 0 1 8,5 1,1 0 0 1 9,6 Z" style="fill:#241f31;stroke-width:2;stroke-linecap:round;stroke-linejoin:round;stop-color:#000"/><path id="path853" d="M 9,3 A 1,1 0 0 1 8,4 1,1 0 0 1 7,3 1,1 0 0 1 8,2 1,1 0 0 1 9,3 Z" style="fill:#241f31;stroke-width:2;stroke-linecap:round;stroke-linejoin:round;stop-color:#000"/><path style="color:#000;fill:#241f31;stroke-width:.999997;stroke-linecap:round;stroke-linejoin:round;-inkscape-stroke:none" id="path1497" d="m 2.6665772,10 c -0.1768037,2e-5 -0.3463561,0.05271 -0.4713619,0.146484 -0.2602874,0.195254 -0.2602874,0.511778 0,0.707032 l 5.3334221,4 c 0.2603576,0.195184 0.6823667,0.195184 0.9427243,0 l 5.3334223,-4 c 0.260288,-0.195254 0.260288,-0.511778 0,-0.707032 -0.260343,-0.1952124 -0.682383,-0.1952124 -0.942725,0 L 8,14 3.1379392,10.146484 C 3.0129333,10.052711 2.8433808,10.00002 2.6665772,10 Z"/></svg>