<?xml version="1.0" encoding="UTF-8" standalone="no"?>
<svg
   height="16px"
   viewBox="0 0 16 16"
   width="16px"
   version="1.1"
   id="svg8"
   xmlns="http://www.w3.org/2000/svg"
   xmlns:svg="http://www.w3.org/2000/svg">
  <defs
     id="defs12" />
  <g
     fill="#2e3436"
     id="g6"
     style="fill:#241f31">
    <path
       d="m 0,3.992188 v 0 9 0 L 6,9 V 8 Z"
       id="path2"
       style="fill:#241f31" />
    <path
       d="M 7,3 C 5.355469,3 4,4.355469 4,6 v 5 c 0,1.644531 1.355469,3 3,3 h 6 c 1.644531,0 3,-1.355469 3,-3 V 6 C 16,4.355469 14.644531,3 13,3 Z m 0,2 h 6 c 0.570312,0 1,0.429688 1,1 v 5 c 0,0.570312 -0.429688,1 -1,1 H 7 C 6.429688,12 6,11.570312 6,11 V 6 C 6,5.429688 6.429688,5 7,5 Z m 0,0"
       id="path4"
       style="fill:#241f31" />
  </g>
</svg>
