<svg xmlns="http://www.w3.org/2000/svg" xmlns:svg="http://www.w3.org/2000/svg" id="svg8" width="16" height="16" version="1.1" viewBox="0 0 16 16"><path style="color:#000;fill:#241f31;stroke-linecap:round;stroke-linejoin:round;-inkscape-stroke:none" id="path926" d="M 7,0 C 3.1399329,0 0,3.1399329 0,7 c 0,3.860067 3.1399329,7 7,7 3.860067,0 7,-3.139933 7,-7 C 14,3.1399329 10.860067,0 7,0 Z m 0,1 c 3.319627,0 6,2.6803725 6,6 0,3.319627 -2.680373,6 -6,6 C 3.6803725,13 1,10.319627 1,7 1,3.6803725 3.6803725,1 7,1 Z"/><path style="color:#000;fill:#241f31;-inkscape-stroke:none" id="path1225" d="M 11.705078,11 11,11.708984 l 4.292969,4.269532 0.705078,-0.708985 z"/></svg>