<svg xmlns="http://www.w3.org/2000/svg" xmlns:svg="http://www.w3.org/2000/svg" id="svg8" width="16" height="16" version="1.1" viewBox="0 0 16 16"><path style="color:#000;fill:#241f31;stroke-linecap:round;stroke-linejoin:round;-inkscape-stroke:none" id="path2" d="M 8.5,6 A 0.50005,0.50005 0 0 0 8.109375,6.1875 l -4,5 A 0.50005,0.50005 0 0 0 4.5,12 h 8 a 0.50005,0.50005 0 0 0 0.390625,-0.8125 l -4,-5 A 0.50005,0.50005 0 0 0 8.5,6 Z M 8.5,7.3007812 11.458984,11 H 5.5410156 Z"/><path id="path875" d="M 5,4 C 4.8087776,4 4.6307052,4.054692 4.4785156,4.1484375 c -0.025892,0.015949 -0.051903,0.032612 -0.076172,0.050781 -0.077041,0.057678 -0.1454475,0.126084 -0.203125,0.203125 -0.018169,0.024269 -0.034832,0.05028 -0.050781,0.076172 C 4.0546916,4.6307052 4,4.8087776 4,5 c 0,0.1912224 0.054692,0.3692948 0.1484375,0.5214844 0.015949,0.025892 0.032612,0.051903 0.050781,0.076172 0.057678,0.077041 0.126084,0.1454475 0.203125,0.203125 0.024269,0.018169 0.05028,0.034832 0.076172,0.050781 C 4.6307052,5.9453084 4.8087776,6 5,6 5.1912224,6 5.3692948,5.9453084 5.5214844,5.8515625 c 0.025892,-0.015949 0.051903,-0.032612 0.076172,-0.050781 0.077041,-0.057678 0.1454475,-0.126084 0.203125,-0.203125 0.018169,-0.024269 0.034832,-0.05028 0.050781,-0.076172 C 5.9453084,5.3692948 6,5.1912224 6,5 6,4.8087776 5.9453084,4.6307052 5.8515625,4.4785156 5.8356136,4.4526238 5.8189507,4.426613 5.8007812,4.4023438 5.7431037,4.3253028 5.6746972,4.2568963 5.5976562,4.1992188 5.573387,4.1810493 5.5473762,4.1643864 5.5214844,4.1484375 5.3692948,4.0546916 5.1912224,4 5,4 Z" style="fill:#241f31"/><path style="color:#000;fill:#241f31;stroke-linecap:round;stroke-linejoin:round;-inkscape-stroke:none" id="path4" d="M 4.2851562,1 C 2.4833508,1 1,2.4833508 1,4.2851562 V 11.714844 C 1,13.516649 2.4833507,15 4.2851562,15 H 11.714844 C 13.516649,15 15,13.516649 15,11.714844 V 4.2851562 C 15,2.4833507 13.516649,1 11.714844,1 Z m 0,1 H 11.714844 C 12.967164,2 14,3.0328358 14,4.2851562 V 11.714844 C 14,12.967164 12.967164,14 11.714844,14 H 4.2851562 C 3.0328358,14 2,12.967164 2,11.714844 V 4.2851562 C 2,3.0328358 3.0328358,2 4.2851562,2 Z"/></svg>