<?xml version="1.0" encoding="UTF-8" standalone="no"?>
<svg
   height="16px"
   viewBox="0 0 16 16"
   width="16px"
   version="1.1"
   id="svg4"
   xmlns="http://www.w3.org/2000/svg"
   xmlns:svg="http://www.w3.org/2000/svg">
  <defs
     id="defs8" />
  <path
     d="M 5,1 C 3.355469,1 2,2.355469 2,4 v 9 c 0,1.644531 1.355469,3 3,3 h 6 c 1.644531,0 3,-1.355469 3,-3 V 5.5 C 14,5.234375 13.894531,4.980469 13.707031,4.792969 l -3.5,-3.5 C 10.019531,1.105469 9.765625,1 9.5,1 Z M 5,3 H 9 V 4.5 C 9,5.5 9.5,6 10.5,6 H 12 v 7 c 0,0.570312 -0.429688,1 -1,1 H 5 C 4.429688,14 4,13.570312 4,13 V 4 C 4,3.429688 4.429688,3 5,3 Z m 0,0"
     fill="#2e3436"
     id="path2"
     style="fill:#241f31" />
</svg>
