<?xml version="1.0" encoding="UTF-8" standalone="no"?>
<svg
   height="16px"
   viewBox="0 0 16 16"
   width="16px"
   version="1.1"
   id="svg8"
   xmlns="http://www.w3.org/2000/svg"
   xmlns:svg="http://www.w3.org/2000/svg">
  <defs
     id="defs12" />
  <path
     id="path2"
     style="fill:#241f31"
     d="M 10,8 8,12 6,9 4,12 c 3,0 6,0 8,0 z" />
  <path
     id="path875"
     style="fill:#241f31"
     d="M 7,6 C 6.8087776,6 6.6307052,6.054692 6.4785156,6.1484375 c -0.025892,0.015949 -0.051903,0.032612 -0.076172,0.050781 -0.077041,0.057678 -0.1454475,0.126084 -0.203125,0.203125 -0.018169,0.024269 -0.034832,0.05028 -0.050781,0.076172 C 6.0546916,6.6307052 6,6.8087776 6,7 c 0,0.1912224 0.054692,0.3692948 0.1484375,0.5214844 0.015949,0.025892 0.032612,0.051903 0.050781,0.076172 0.057678,0.077041 0.126084,0.1454475 0.203125,0.203125 0.024269,0.018169 0.05028,0.034832 0.076172,0.050781 C 6.6307052,7.9453084 6.8087776,8 7,8 7.1912224,8 7.3692948,7.9453084 7.5214844,7.8515625 c 0.025892,-0.015949 0.051903,-0.032612 0.076172,-0.050781 0.077041,-0.057678 0.1454475,-0.126084 0.203125,-0.203125 0.018169,-0.024269 0.034832,-0.05028 0.050781,-0.076172 C 7.9453084,7.3692948 8,7.1912224 8,7 8,6.8087776 7.9453084,6.6307052 7.8515625,6.4785156 7.8356136,6.4526238 7.8189507,6.426613 7.8007812,6.4023438 7.7431037,6.3253028 7.6746972,6.2568963 7.5976562,6.1992188 7.573387,6.1810493 7.5473762,6.1643864 7.5214844,6.1484375 7.3692948,6.0546916 7.1912224,6 7,6 Z" />
  <path
     d="M 4,1 C 2.355469,1 1,2.355469 1,4 v 8 c 0,1.644531 1.355469,3 3,3 h 8 c 1.644531,0 3,-1.355469 3,-3 V 4 C 15,2.355469 13.644531,1 12,1 Z m 0,2 h 8 c 0.570312,0 1,0.429688 1,1 v 8 c 0,0.570312 -0.429688,1 -1,1 H 4 C 3.429688,13 3,12.570312 3,12 V 4 C 3,3.429688 3.429688,3 4,3 Z m 0,0"
     id="path4"
     style="fill:#241f31" />
</svg>
