<?xml version="1.0" encoding="UTF-8" standalone="no"?>
<svg
   height="16px"
   viewBox="0 0 16 16"
   width="16px"
   version="1.1"
   id="svg8"
   xmlns="http://www.w3.org/2000/svg"
   xmlns:svg="http://www.w3.org/2000/svg">
  <defs
     id="defs12" />
  <g
     id="g825"
     transform="translate(0,-1)">
    <path
       id="rect853"
       style="fill:#241f31;stroke-width:2;stroke-linecap:round;stroke-linejoin:round;stop-color:#000000"
       d="M 3,1 H 7 C 7.554,1 8,1.446 8,2 8,2.554 7.554,3 7,3 H 3 C 2.446,3 2,2.554 2,2 2,1.446 2.446,1 3,1 Z" />
    <path
       id="rect855"
       style="color:#000000;fill:#241f31;stroke-linecap:round;stroke-linejoin:round;-inkscape-stroke:none"
       d="M 1,4 A 1.0001,1.0001 0 0 0 0,5 v 7 c 0,1.644701 1.355299,3 3,3 h 10 c 1.644701,0 3,-1.355299 3,-3 V 5 A 1.0001,1.0001 0 0 0 15,4 Z m 1,2 h 12 v 6 c 0,0.571297 -0.428703,1 -1,1 H 3 C 2.428703,13 2,12.571297 2,12 Z" />
  </g>
  <path
     id="rect851"
     style="fill:#241f31;stroke-width:2;stroke-linecap:round;stroke-linejoin:round;stop-color:#000000"
     d="M 10,7 C 9.446,7 9,7.446 9,8 v 2 c 0,0.554 0.446,1 1,1 v 4 c 0,0.554 0.446,1 1,1 0.554,0 1,-0.446 1,-1 v -4 c 0.554,0 1,-0.446 1,-1 V 8 C 13,7.446 12.554,7 12,7 Z" />
</svg>
