<?xml version="1.0" encoding="UTF-8" standalone="no"?>
<svg
   height="16px"
   viewBox="0 0 16 16"
   width="16px"
   version="1.1"
   id="svg4"
   xmlns="http://www.w3.org/2000/svg"
   xmlns:svg="http://www.w3.org/2000/svg">
  <defs
     id="defs8" />
  <path
     id="path929"
     style="fill:#241f31;stroke-width:2;stroke-linecap:round;stroke-linejoin:round;stroke-opacity:0.5;stop-color:#000000"
     d="M 8 0 A 8 8 0 0 0 0 8 A 8 8 0 0 0 8 16 A 8 8 0 0 0 16 8 A 8 8 0 0 0 8 0 z M 8 2 A 6 6 0 0 1 14 8 A 6 6 0 0 1 8 14 A 6 6 0 0 1 2 8 A 6 6 0 0 1 8 2 z " />
  <path
     id="rect1157"
     style="fill:#241f31;stroke-width:2;stroke-linecap:round;stroke-linejoin:round;stroke-opacity:0.5;stop-color:#000000"
     d="M 6 3 L 6 4 L 5 4 L 5 6 L 4 6 L 4 8 L 5 8 L 5 7 L 7 7 L 7 9 L 7 11 L 7 13 L 8 13 L 8 15 L 11 15 L 11 13 L 11 11 L 10 11 L 10 10 L 8 10 L 8 9 L 11 9 L 11 7 L 12 7 L 12 6 L 10 6 L 10 5 L 11 5 L 11 4 L 9 4 L 8 4 L 8 3 L 6 3 z " />
</svg>
