<?xml version="1.0" encoding="UTF-8" standalone="no"?>
<svg
   height="16px"
   viewBox="0 0 16 16"
   width="16px"
   version="1.1"
   id="svg4"
   xmlns="http://www.w3.org/2000/svg"
   xmlns:svg="http://www.w3.org/2000/svg">
  <defs
     id="defs8" />
  <path
     id="path2"
     style="fill:#241f31"
     d="M 6 0 C 4.355469 0 3 1.355469 3 3 L 3 9 C 3 10.644531 4.355469 12 6 12 L 7.03125 12 L 7.03125 13.996094 L 1.53125 13.996094 C 1.5172507 13.996094 1.5039334 13.998887 1.4902344 14 L 3 14 C 2.446 14 2 14.446 2 15 C 2 15.554 2.446 16 3 16 L 13 16 C 13.554 16 14 15.554 14 15 C 14 14.446 13.554 14 13 14 L 14.572266 14 C 14.558567 13.998887 14.545249 13.996094 14.53125 13.996094 L 9.03125 13.996094 L 9.03125 12 L 10 12 C 11.644531 12 13 10.644531 13 9 L 13 3 C 13 1.355469 11.644531 0 10 0 L 6 0 z M 6 2 L 10 2 C 10.570312 2 11 2.429688 11 3 L 11 9 C 11 9.570312 10.570312 10 10 10 L 6 10 C 5.429688 10 5 9.570312 5 9 L 5 3 C 5 2.429688 5.429688 2 6 2 z M 6 3 L 6 4 L 10 4 L 10 3 L 6 3 z M 9 5 L 9 6 L 10 6 L 10 5 L 9 5 z M 15 14.326172 L 15 15.664062 C 15.019116 15.611146 15.03125 15.555209 15.03125 15.496094 L 15.03125 14.496094 C 15.03125 14.436134 15.019116 14.379322 15 14.326172 z " />
</svg>
