<?xml version="1.0" encoding="UTF-8" standalone="no"?>
<svg
   height="16px"
   viewBox="0 0 16 16"
   width="16px"
   version="1.1"
   id="svg4"
   xmlns="http://www.w3.org/2000/svg"
   xmlns:svg="http://www.w3.org/2000/svg">
  <defs
     id="defs8" />
  <path
     style="color:#000000;fill:#241f31;stroke-linecap:round;stroke-linejoin:round;-inkscape-stroke:none"
     d="M 6.6074219,2 C 3.4958217,2 1,4.7115186 1,8 c 0,1.5259615 0.6834414,2.929392 1.6425781,3.996094 0.9591367,1.066702 2.1966569,1.817148 3.4277344,1.998047 A 0.50005,0.50005 0 0 0 6.1425781,14 H 6.6074219 11.25 11.714844 a 0.50005,0.50005 0 0 0 0.214844,-0.04883 C 13.538442,13.184183 14.947153,11.977024 15,10.306641 a 0.50005,0.50005 0 0 0 0,-0.01563 C 14.997989,8.5597174 13.72054,7.1902254 12.056641,6.7988281 11.524238,4.0486309 9.2846897,2.0039962 6.6074219,2 Z m -0.00195,1 h 0.00195 c 2.238406,0.00436 4.1687041,1.7527016 4.5390621,4.1855469 a 0.50005,0.50005 0 0 0 0.433594,0.421875 c 1.383129,0.1650083 2.40882,1.3110599 2.416016,2.6757811 C 13.957016,11.361443 12.965079,12.315888 11.570313,13 H 11.25 6.6074219 6.1992187 C 5.2815544,12.86017 4.2065768,12.239929 3.3867188,11.328125 2.5624205,10.411383 2,9.2240358 2,8 2,5.2140823 4.0767762,3.0011544 6.6054687,3 Z"
     id="path926" />
</svg>
