<?xml version="1.0" encoding="UTF-8" standalone="no"?>
<svg
   height="16px"
   viewBox="0 0 16 16"
   width="16px"
   version="1.1"
   id="svg4"
   xmlns="http://www.w3.org/2000/svg"
   xmlns:svg="http://www.w3.org/2000/svg">
  <defs
     id="defs8" />
  <path
     style="color:#000000;fill:#241f31;stroke-linecap:round;stroke-linejoin:round;-inkscape-stroke:none"
     d="m 7.7089844,1.59375 -7.00000003,5 A 0.5,0.5 0 0 0 0.59375,7.2910156 0.5,0.5 0 0 0 1.2910156,7.40625 L 8,2.6152344 14.708984,7.40625 A 0.5,0.5 0 0 0 15.40625,7.2910156 0.5,0.5 0 0 0 15.291016,6.59375 l -7.0000004,-5 a 0.50005,0.50005 0 0 0 -0.5820312,0 z"
     id="path857" />
  <path
     style="color:#000000;fill:#241f31;stroke-width:0.999997;stroke-linecap:round;stroke-linejoin:round;-inkscape-stroke:none"
     d="m 2.4615495,8 a 0.461538,0.5 0 0 0 -0.461538,0.5 v 4 c 0,0 -0.00636,0.6034 0.2794469,1.222656 C 2.5652687,14.341913 3.2307806,15 4.3077015,15 H 11.69231 c 0,0 0.556984,0.0069 1.128604,-0.302734 C 13.392536,14.387637 14,13.666665 14,12.5 v -4 A 0.461538,0.5 0 0 0 13.538462,8 0.461538,0.5 0 0 0 13.076924,8.5 v 4 c 0,0.833333 -0.315613,1.112363 -0.667066,1.302734 C 12.058403,13.993106 11.69231,14 11.69231,14 H 4.3077015 C 3.5384723,14 3.2809059,13.658086 3.1051787,13.277344 2.9294515,12.896601 2.9230875,12.5 2.9230875,12.5 v -4 A 0.461538,0.5 0 0 0 2.4615495,8 Z"
     id="path827" />
  <path
     style="color:#000000;fill:#241f31;stroke-linecap:round;stroke-linejoin:round;-inkscape-stroke:none"
     d="M 7.5,9 A 0.5,0.5 0 0 0 7,9.5 v 5 A 0.5,0.5 0 0 0 7.5,15 0.5,0.5 0 0 0 8,14.5 v -5 A 0.5,0.5 0 0 0 7.5,9 Z"
     id="path861" />
</svg>
