<?xml version="1.0" encoding="UTF-8" standalone="no"?>
<svg
   height="16px"
   viewBox="0 0 16 16"
   width="16px"
   version="1.1"
   id="svg4"
   xmlns="http://www.w3.org/2000/svg"
   xmlns:svg="http://www.w3.org/2000/svg">
  <defs
     id="defs8" />
  <path
     style="color:#000000;-inkscape-font-specification:sans-serif;fill:#241f31;stroke-linecap:round;stroke-linejoin:round;-inkscape-stroke:none"
     d="M 8.0039063,0 C 7.3835868,1.2529361e-4 6.8461773,0.41215539 6.6503906,0.96875 a 1.0001,1.0001 0 0 0 0,0.001953 L 5.2519531,4.9667969 H 1.4375 C 0.78971824,4.9671055 0.25050482,5.4434103 0.078125,5.9570312 -0.09425482,6.4706522 0.03178864,7.1354858 0.51367187,7.546875 l 3.05859373,2.621094 -1.0195312,4.037109 a 1.0001,1.0001 0 0 0 0,0.0039 c -0.1460934,0.584178 0.094239,1.19743 0.5292969,1.529297 0.4350578,0.331868 1.1525379,0.394515 1.6660156,0.04297 l 3.2558594,-2.222656 3.2558597,2.222656 c 0.513477,0.351548 1.230956,0.288899 1.666015,-0.04297 0.435059,-0.331868 0.675392,-0.945117 0.529297,-1.529297 a 1.0001,1.0001 0 0 0 0,-0.0039 L 12.435547,10.167969 15.494141,7.546875 C 15.976024,7.1354856 16.102068,6.4706523 15.929688,5.9570312 15.757307,5.4434102 15.218095,4.9671047 14.570313,4.9667969 H 10.755859 L 9.3574219,0.97070313 a 1.0001,1.0001 0 0 0 0,-0.001953 C 9.1616352,0.41215539 8.6242257,1.2529361e-4 8.0039063,0 Z m 0,3.1542969 1.0996093,3.1425781 a 1.0001,1.0001 0 0 0 0.9433594,0.6699219 h 3.052734 l -2.435546,2.0859375 a 1.0001,1.0001 0 0 0 -0.31836,1.0039066 l 0.816406,3.236328 -2.5937496,-1.769531 a 1.0001,1.0001 0 0 0 -1.1289063,0 l -2.59375,1.769531 0.8164063,-3.236328 A 1.0001,1.0001 0 0 0 5.34375,9.0527344 L 2.9082031,6.9667969 H 5.9609375 A 1.0001,1.0001 0 0 0 6.9042969,6.296875 Z"
     id="path1024" />
</svg>
