<?xml version="1.0" encoding="UTF-8" standalone="no"?>
<svg
   id="svg4"
   width="16"
   height="16"
   version="1.1"
   viewBox="0 0 16 16"
   sodipodi:docname="user-home-filled-symbolic.svg"
   inkscape:version="1.4.2 (ebf0e940d0, 2025-05-08)"
   xmlns:inkscape="http://www.inkscape.org/namespaces/inkscape"
   xmlns:sodipodi="http://sodipodi.sourceforge.net/DTD/sodipodi-0.dtd"
   xmlns="http://www.w3.org/2000/svg"
   xmlns:svg="http://www.w3.org/2000/svg">
  <defs
     id="defs1" />
  <sodipodi:namedview
     id="namedview1"
     pagecolor="#ffffff"
     bordercolor="#111111"
     borderopacity="1"
     inkscape:showpageshadow="0"
     inkscape:pageopacity="0"
     inkscape:pagecheckerboard="1"
     inkscape:deskcolor="#d1d1d1"
     inkscape:zoom="64"
     inkscape:cx="7.078125"
     inkscape:cy="7.4609375"
     inkscape:window-width="2560"
     inkscape:window-height="1368"
     inkscape:window-x="0"
     inkscape:window-y="0"
     inkscape:window-maximized="1"
     inkscape:current-layer="svg4"
     showgrid="true">
    <inkscape:grid
       id="grid1"
       units="px"
       originx="0"
       originy="0"
       spacingx="1"
       spacingy="1"
       empcolor="#0099e5"
       empopacity="0.30196078"
       color="#0099e5"
       opacity="0.14901961"
       empspacing="5"
       enabled="true"
       visible="true" />
  </sodipodi:namedview>
  <path
     id="path857"
     style="color:#000;fill:#241f31;stroke-linecap:round;stroke-linejoin:round;-inkscape-stroke:none"
     d="M 7.9648438 1.5019531 A 0.50005 0.50005 0 0 0 7.7089844 1.59375 L 0.70898438 6.59375 A 0.5 0.5 0 0 0 0.59375 7.2910156 A 0.5 0.5 0 0 0 0.94140625 7.4960938 A 0.5 0.5 0 0 0 1.0585938 7.4960938 L 15 7.5 A 0.5 0.5 0 0 0 15.40625 7.2910156 A 0.5 0.5 0 0 0 15.291016 6.59375 L 8.2910156 1.59375 A 0.50005 0.50005 0 0 0 7.9648438 1.5019531 z " />
  <path
     id="path827"
     style="color:#000000;fill:#241f31;stroke-width:0.999997;stroke-linecap:round;stroke-linejoin:round;-inkscape-stroke:none"
     d="M 2.4609375,8 C 2.2062716,8.000359 1.9999998,8.2241115 2,8.5 v 4 c 0,0 -0.00651,0.6034 0.2792969,1.222656 C 2.5651072,14.341913 3.2316728,15 4.3085938,15 H 7 V 10.5 C 7,10.5 6.9762969,10 7.5,10 7.9765625,10 8,10.5 8,10.5 V 15 h 3.691406 c 0,0 0.557287,0.0069 1.128906,-0.302734 0.331161,-0.179378 0.674163,-0.496813 0.904297,-0.958985 l 0.002,-0.002 C 13.892956,13.401207 14,12.989636 14,12.5 v -4 C 14.021877,8.091738 13.71479,7.9964983 13.539062,8 H 12.679688 3.3203125 Z"
     sodipodi:nodetypes="cccssccsccccccsccccc" />
</svg>
