<?xml version="1.0" encoding="UTF-8" standalone="no"?>
<svg
   height="16px"
   viewBox="0 0 16 16"
   width="16px"
   version="1.1"
   id="svg4"
   xmlns="http://www.w3.org/2000/svg"
   xmlns:svg="http://www.w3.org/2000/svg">
  <defs
     id="defs8" />
  <path
     id="path2"
     d="M 8 1 C 7.792969 1 7.5898437 1.0664058 7.4179688 1.1835938 L 0.41796875 6.1835938 C -0.03125025 6.5078118 -0.13671925 7.128906 0.18359375 7.578125 C 0.37499975 7.84375 0.675781 7.9999998 1 7.9960938 L 1 12 C 1 13.644531 2.355469 15 4 15 L 12 15 C 13.644531 15 15 13.679688 15 12 L 15 7.9960938 C 15.324219 7.9999997 15.625 7.84375 15.816406 7.578125 C 16.136719 7.128906 16.03125 6.5078116 15.582031 6.1835938 L 8.5820312 1.1835938 C 8.4101562 1.0664057 8.207031 1 8 1 z M 8 3.2265625 L 13 6.796875 L 13 12 C 13 12.5625 12.5625 13 12 13 L 9 13 L 9 9 C 9 8.446 8.554 8 8 8 C 7.446 8 7 8.446 7 9 L 7 13 L 6 13 L 4 13 C 3.4375 13 3 12.5625 3 12 L 3 6.796875 L 8 3.2265625 z "
     style="fill:#241f31" />
</svg>
