<?xml version="1.0" encoding="UTF-8" standalone="no"?>
<svg
   height="16"
   width="16"
   version="1.1"
   id="svg4"
   xmlns="http://www.w3.org/2000/svg"
   xmlns:svg="http://www.w3.org/2000/svg">
  <defs
     id="defs8" />
  <path
     style="color:#000000;fill:#241f31;stroke-linecap:round;stroke-linejoin:round;-inkscape-stroke:none"
     d="M 6.390625,4 C 5.0753479,4 4,5.0753479 4,6.390625 v 4.21875 C 4,11.924652 5.0753479,13 6.390625,13 h 4.21875 C 11.924652,13 13,11.924652 13,10.609375 V 6.390625 C 13,5.0753479 11.924652,4 10.609375,4 Z m 0,1 h 4.21875 C 11.38795,5 12,5.6120501 12,6.390625 v 4.21875 C 12,11.38795 11.38795,12 10.609375,12 H 6.390625 C 5.6120501,12 5,11.38795 5,10.609375 V 6.390625 C 5,5.6120501 5.6120501,5 6.390625,5 Z"
     id="rect924" />
  <path
     id="rect1046"
     style="fill:#241f31;stroke-linecap:round;stroke-linejoin:round;stop-color:#000000"
     d="M 7,2 H 8 V 4 H 7 Z" />
  <path
     id="rect1046-3"
     style="fill:#241f31;stroke-linecap:round;stroke-linejoin:round;stop-color:#000000"
     d="m 9,2 h 1 V 4 H 9 Z" />
  <path
     id="rect1046-6"
     style="fill:#241f31;stroke-linecap:round;stroke-linejoin:round;stop-color:#000000"
     transform="rotate(90)"
     d="m 7,-15 h 1 v 2 H 7 Z" />
  <path
     id="rect1046-3-7"
     style="fill:#241f31;stroke-linecap:round;stroke-linejoin:round;stop-color:#000000"
     transform="rotate(90)"
     d="m 9,-15 h 1 v 2 H 9 Z" />
  <path
     id="rect1046-6-5"
     style="fill:#241f31;stroke-linecap:round;stroke-linejoin:round;stop-color:#000000"
     transform="rotate(90)"
     d="m 7,-4 h 1 v 2 H 7 Z" />
  <path
     id="rect1046-3-7-3"
     style="fill:#241f31;stroke-linecap:round;stroke-linejoin:round;stop-color:#000000"
     transform="rotate(90)"
     d="m 9,-4 h 1 v 2 H 9 Z" />
  <path
     id="rect1046-6-56"
     style="fill:#241f31;stroke-linecap:round;stroke-linejoin:round;stop-color:#000000"
     transform="scale(-1)"
     d="m -10,-15 h 1 v 2 h -1 z" />
  <path
     id="rect1046-3-7-2"
     style="fill:#241f31;stroke-linecap:round;stroke-linejoin:round;stop-color:#000000"
     transform="scale(-1)"
     d="m -8,-15 h 1 v 2 h -1 z" />
</svg>
