<?xml version="1.0" encoding="UTF-8" standalone="no"?>
<svg
   height="16"
   width="16"
   version="1.1"
   id="svg4"
   xmlns="http://www.w3.org/2000/svg"
   xmlns:svg="http://www.w3.org/2000/svg">
  <defs
     id="defs8" />
  <path
     id="path936"
     style="color:#000000;fill:#241f31;stroke-width:1;stroke-linecap:round;stroke-linejoin:round;-inkscape-stroke:none"
     d="M 8.0000002,1 A 0.5385154,0.50005 0 0 0 7.8296276,1.025391 l -6.4615386,2 A 0.5385154,0.50005 0 0 0 1.3176083,3.054688 0.53846155,0.5 0 0 0 1.2229564,3.109375 0.5385154,0.50005 0 0 0 1.1177884,3.207031 0.53846155,0.5 0 0 0 1.0567904,3.300781 0.5385154,0.50005 0 0 0 1.0189303,3.4335938 0.53846155,0.5 0 0 0 1,3.5 v 8 a 0.5385154,0.50005 0 0 0 0.298678,0.447266 l 6.4615386,3 a 0.5385154,0.50005 0 0 0 0.4795672,0 l 6.4615382,-3 A 0.5385154,0.50005 0 0 0 15,11.5 v -8 a 0.53846155,0.5 0 0 0 -0.01055,-0.091797 0.5385154,0.50005 0 0 0 -0.0064,-0.023437 0.53846155,0.5 0 0 0 -0.03787,-0.1015625 0.53846155,0.5 0 0 0 -0.0022,-0.00586 0.5385154,0.50005 0 0 0 -0.0022,-0.00391 0.53846155,0.5 0 0 0 -0.06731,-0.095703 0.53846155,0.5 0 0 0 -0.0084,-0.00977 0.5385154,0.50005 0 0 0 -0.01472,-0.011719 0.53846155,0.5 0 0 0 -0.07783,-0.0625 0.5385154,0.50005 0 0 0 -0.02524,-0.017578 0.53846155,0.5 0 0 0 -0.113582,-0.048828 0.53846155,0.5 0 0 0 -0.0022,-0.00195 l -6.4615385,-2 A 0.5385154,0.50005 0 0 0 8.0000002,1 Z m 0,1.0273438 L 13.058594,3.59375 8.0000002,5.9414062 2.9414064,3.59375 Z m -5.9230771,2.28125 5.6832935,2.6386718 a 0.5385154,0.50005 0 0 0 0.4795672,0 L 13.923077,4.3085938 v 6.8828122 l -5.9230768,2.75 -5.9230771,-2.75 z" />
</svg>
