<?xml version="1.0" encoding="UTF-8" standalone="no"?>
<svg
   height="16px"
   viewBox="0 0 16 16"
   width="16px"
   version="1.1"
   id="svg4"
   sodipodi:docname="audio-x-generic-symbolic-filled.svg"
   inkscape:version="1.3 (0e150ed6c4, 2023-07-21)"
   xmlns:inkscape="http://www.inkscape.org/namespaces/inkscape"
   xmlns:sodipodi="http://sodipodi.sourceforge.net/DTD/sodipodi-0.dtd"
   xmlns="http://www.w3.org/2000/svg"
   xmlns:svg="http://www.w3.org/2000/svg">
  <sodipodi:namedview
     id="namedview1"
     pagecolor="#ffffff"
     bordercolor="#000000"
     borderopacity="0.25"
     inkscape:showpageshadow="2"
     inkscape:pageopacity="0.0"
     inkscape:pagecheckerboard="0"
     inkscape:deskcolor="#d1d1d1"
     showgrid="true"
     inkscape:zoom="44.8125"
     inkscape:cx="7.9888424"
     inkscape:cy="8"
     inkscape:window-width="2560"
     inkscape:window-height="921"
     inkscape:window-x="0"
     inkscape:window-y="0"
     inkscape:window-maximized="1"
     inkscape:current-layer="svg4">
    <inkscape:grid
       id="grid1"
       units="px"
       originx="0"
       originy="0"
       spacingx="1"
       spacingy="1"
       empcolor="#0099e5"
       empopacity="0.30196078"
       color="#0099e5"
       opacity="0.14901961"
       empspacing="5"
       dotted="false"
       gridanglex="30"
       gridanglez="30"
       visible="true" />
  </sodipodi:namedview>
  <defs
     id="defs8" />
  <path
     id="path925"
     style="color:#000000;fill:#241f31;stroke-linecap:round;stroke-linejoin:round;-inkscape-stroke:none"
     d="m 6,1 v 9.056641 C 5.3637443,9.405732 4.4779728,9 3.5,9 1.5729276,9 0,10.572928 0,12.5 0,14.427072 1.5729276,16 3.5,16 5,16 7,15 7,12.5 V 2 h 8 v 8.056641 C 14.363744,9.405732 13.477973,9 12.5,9 10.572928,9 9,10.572928 9,12.5 9,14.427072 10.572928,16 12.5,16 14.427072,16 16,14.427072 16,12.5 V 1 Z M 3.5,10 C 4.8866328,10 6,11.113367 6,12.5 6,13.886633 4.8866328,15 3.5,15 2.1133672,15 1,13.886633 1,12.5 1,11.113367 2.1133672,10 3.5,10 Z m 9,0 C 13.886633,10 15,11.113367 15,12.5 15,13.886633 13.886633,15 12.5,15 11.113367,15 10,13.886633 10,12.5 10,11.113367 11.113367,10 12.5,10 Z" />
  <circle
     style="fill:#241f31;fill-opacity:1;stroke-width:1;stroke-linecap:round;stroke-linejoin:round"
     id="path1"
     cx="3.5"
     cy="12.5"
     r="3" />
  <circle
     style="fill:#241f31;fill-opacity:1;stroke-width:1;stroke-linecap:round;stroke-linejoin:round"
     id="path1-6"
     cx="12.200401"
     cy="12.5"
     r="3" />
  <rect
     style="fill:#241f31;fill-opacity:1;stroke-width:0.999998;stroke-linecap:round;stroke-linejoin:round"
     id="rect1"
     width="9.0468092"
     height="2.5258019"
     x="6.5"
     y="1.4741981"
     rx="0"
     ry="0" />
</svg>
