<svg xmlns="http://www.w3.org/2000/svg" xmlns:svg="http://www.w3.org/2000/svg" id="svg6" width="16" height="16" version="1.1" viewBox="0 0 16 16"><path id="path2" fill="#363636" d="m2 1c-1.108 0-2 0.892-2 2v8c0 1.108 0.892 2 2 2h1.522l2.478 3 2-3h6c1.108 0 2-0.892 2-2v-8c0-1.108-0.892-2-2-2zm0 1h12c0.554 0 1 0.446 1 1v8c0 0.554-0.446 1-1 1h-6.434l-1.566 2.4-1.966-2.4h-2.034c-0.554 0-1-0.446-1-1v-8c0-0.554 0.446-1 1-1z" opacity=".35"/><rect id="rect4" width="22" height="1" x=".314" y="-.5" fill="#363636" rx=".5" ry=".5" transform="rotate(45)"/></svg>