<?xml version="1.0" encoding="UTF-8" standalone="no"?>
<svg
   height="16px"
   viewBox="0 0 16 16"
   width="16px"
   version="1.1"
   id="svg8"
   xmlns="http://www.w3.org/2000/svg"
   xmlns:svg="http://www.w3.org/2000/svg">
  <defs
     id="defs12" />
  <path
     id="rect853"
     style="fill:#241f31;stroke-width:2;stroke-linecap:round;stroke-linejoin:round;stop-color:#000000"
     d="M 3,1 H 7 C 7.554,1 8,1.446 8,2 8,2.554 7.554,3 7,3 H 3 C 2.446,3 2,2.554 2,2 2,1.446 2.446,1 3,1 Z" />
  <path
     id="rect855"
     style="color:#000000;fill:#241f31;stroke-linecap:round;stroke-linejoin:round;-inkscape-stroke:none"
     d="M 1 4 A 1.0001 1.0001 0 0 0 0 5 L 0 12 C 0 13.644701 1.355299 15 3 15 L 13 15 C 14.644701 15 16 13.644701 16 12 L 16 5 A 1.0001 1.0001 0 0 0 15 4 L 1 4 z M 2 6 L 14 6 L 14 12 C 14 12.571297 13.571297 13 13 13 L 3 13 C 2.428703 13 2 12.571297 2 12 L 2 6 z " />
</svg>
