<svg xmlns="http://www.w3.org/2000/svg" xmlns:svg="http://www.w3.org/2000/svg" id="svg4" width="16" height="16" version="1.1" viewBox="0 0 16 16"><path style="color:#000;fill:#241f31;-inkscape-stroke:none" id="path2" d="M 5.25,0 C 3.442797,0 2,1.6036243 2,3.5 v 9 C 2,14.396376 3.442797,16 5.25,16 h 5.5 C 12.557203,16 14,14.396376 14,12.5 V 5 C 14,4.6118284 13.859671,4.2387795 13.599609,3.9550781 L 10.392578,0.45507813 C 10.13167,0.17045292 9.7628737,0 9.375,0 Z m 0,1 h 4.125 c 0.099105,0 0.196453,0.040485 0.2792969,0.1308594 l 3.2070311,3.5 C 12.945019,4.7221574 13,4.8569221 13,5 v 7.5 C 13,13.892683 11.957768,15 10.75,15 H 5.25 C 4.0422328,15 3,13.892683 3,12.5 v -9 C 3,2.107317 4.0422328,1 5.25,1 Z"/><rect style="fill:#241f31;stroke-linecap:round;stroke-linejoin:round;stop-color:#000" id="rect846" width="6" height="1" x="5" y="6" rx=".5" ry=".5"/><rect style="fill:#241f31;stroke-linecap:round;stroke-linejoin:round;stop-color:#000" id="rect848" width="6" height="1" x="5" y="8" rx=".5" ry=".5"/><rect style="fill:#241f31;stroke-linecap:round;stroke-linejoin:round;stop-color:#000" id="rect850" width="3" height="1" x="5" y="10" rx=".5" ry=".5"/></svg>