<?xml version="1.0" encoding="UTF-8" standalone="no"?>
<svg
   height="16px"
   viewBox="0 0 16 16"
   width="16px"
   version="1.1"
   id="svg8"
   xmlns="http://www.w3.org/2000/svg"
   xmlns:svg="http://www.w3.org/2000/svg">
  <defs
     id="defs12" />
  <path
     style="color:#000000;fill:#241f31;stroke-width:0.999997;-inkscape-stroke:none"
     d="M 0,4 V 5.03863 12 L 5,8.4970131 V 7.5173237 Z m 1,2 3,2 v 0 l -3,2 z"
     id="path2" />
  <path
     style="color:#000000;fill:#241f31;-inkscape-stroke:none"
     d="M 7.25,2 C 5.4427957,2 4,3.6036233 4,5.5 v 5 C 4,12.396377 5.4427957,14 7.25,14 h 5.5 C 14.557205,14 16,12.396377 16,10.5 v -5 C 16,3.6036234 14.557205,2 12.75,2 Z m 0,1 h 5.5 C 13.957766,3 15,4.1073179 15,5.5 v 5 C 15,11.892682 13.957766,13 12.75,13 H 7.25 C 6.0422339,13 5,11.892682 5,10.5 v -5 C 5,4.1073179 6.0422339,3 7.25,3 Z"
     id="path4" />
</svg>
