<?xml version="1.0" encoding="UTF-8" standalone="no"?>
<svg
   height="16px"
   viewBox="0 0 16 16"
   width="16px"
   version="1.1"
   id="svg4"
   xmlns="http://www.w3.org/2000/svg"
   xmlns:svg="http://www.w3.org/2000/svg">
  <defs
     id="defs8" />
  <path
     style="color:#000000;fill:#241f31;-inkscape-stroke:none"
     d="M 5.25,0 C 3.442797,0 2,1.6036243 2,3.5 v 9 C 2,14.396376 3.442797,16 5.25,16 h 5.5 C 12.557203,16 14,14.396376 14,12.5 V 5 C 14,4.6118284 13.859671,4.2387795 13.599609,3.9550781 L 10.392578,0.45507813 C 10.13167,0.17045292 9.7628737,0 9.375,0 Z m 0,1 h 4.125 c 0.099105,0 0.196453,0.040485 0.2792969,0.1308594 l 3.2070311,3.5 C 12.945019,4.7221574 13,4.8569221 13,5 v 7.5 C 13,13.892683 11.957768,15 10.75,15 H 5.25 C 4.0422328,15 3,13.892683 3,12.5 v -9 C 3,2.107317 4.0422328,1 5.25,1 Z"
     id="path2" />
  <circle
     style="fill:none;fill-opacity:0.5;stroke:#241f31;stroke-width:0.999998;stroke-linecap:round;stroke-linejoin:round;stop-color:#000000"
     id="path847"
     cx="5.999999"
     cy="3.999999"
     r="0.5" />
  <path
     style="color:#000000;fill:#241f31;stroke-linecap:round;stroke-linejoin:round;-inkscape-stroke:none"
     d="M 6.3339844,6 C 5.6035278,6 5,6.6035278 5,7.3339844 5,8.064441 5.6035278,8.6660156 6.3339844,8.6660156 7.064441,8.6660156 7.6660156,8.064441 7.6660156,7.3339844 7.6660156,6.6035278 7.064441,6 6.3339844,6 Z m 0,1 c 0.190017,0 0.3320312,0.1439673 0.3320312,0.3339844 0,0.190017 -0.1420142,0.3320312 -0.3320312,0.3320312 C 6.1439673,7.6660156 6,7.5240014 6,7.3339844 6,7.1439673 6.1439673,7 6.3339844,7 Z"
     id="path926" />
  <path
     style="color:#000000;fill:#241f31;stroke-linecap:round;stroke-linejoin:round;-inkscape-stroke:none"
     d="M 9.6660156,6 C 8.935559,6 8.3339844,6.6035278 8.3339844,7.3339844 c 0,0.7304566 0.6015746,1.3320312 1.3320312,1.3320312 C 10.396472,8.6660156 11,8.064441 11,7.3339844 11,6.6035278 10.396472,6 9.6660156,6 Z m 0,1 C 9.8560327,7 10,7.1439673 10,7.3339844 10,7.5240014 9.8560327,7.6660156 9.6660156,7.6660156 9.4759986,7.6660156 9.3339844,7.5240014 9.3339844,7.3339844 9.3339844,7.1439673 9.4759986,7 9.6660156,7 Z"
     id="path928" />
  <path
     style="color:#000000;fill:#241f31;stroke-linecap:round;stroke-linejoin:round;-inkscape-stroke:none"
     d="M 6.3339844,9.3339844 C 5.6035278,9.3339844 5,9.935559 5,10.666016 5,11.396472 5.6035278,12 6.3339844,12 c 0.7304566,0 1.3320312,-0.603528 1.3320312,-1.333984 0,-0.730457 -0.6015746,-1.3320316 -1.3320312,-1.3320316 z m 0,0.9999996 c 0.190017,0 0.3320312,0.142015 0.3320312,0.332032 C 6.6660156,10.856033 6.5240014,11 6.3339844,11 6.1439673,11 6,10.856033 6,10.666016 6,10.475999 6.1439673,10.333984 6.3339844,10.333984 Z"
     id="path930" />
  <path
     style="color:#000000;fill:#241f31;stroke-linecap:round;stroke-linejoin:round;-inkscape-stroke:none"
     d="m 9.6660156,9.3339844 c -0.7304566,0 -1.3320312,0.6015746 -1.3320312,1.3320316 C 8.3339844,11.396472 8.935559,12 9.6660156,12 10.396472,12 11,11.396472 11,10.666016 11,9.935559 10.396472,9.3339844 9.6660156,9.3339844 Z m 0,0.9999996 C 9.8560327,10.333984 10,10.475999 10,10.666016 10,10.856033 9.8560327,11 9.6660156,11 9.4759986,11 9.3339844,10.856033 9.3339844,10.666016 c 0,-0.190017 0.1420142,-0.332032 0.3320312,-0.332032 z"
     id="path932" />
</svg>
