<svg xmlns="http://www.w3.org/2000/svg" xmlns:svg="http://www.w3.org/2000/svg" id="svg15" width="128" height="128" fill="none" version="1.1" viewBox="0 0 128 128"><g id="g1" filter="url(#filter0_ii_1176_24)" transform="matrix(0.95412844,0,0,0.94545567,2.4587156,2.5454433)"><rect id="rect1" width="109" height="109" x="10" y="10" fill="#fff" rx="24"/></g><rect id="rect2" width="65" height="8" x="36" y="38" fill="#000" fill-opacity=".15" rx="4"/><rect id="rect3" width="50" height="8" x="36" y="54" fill="#000" fill-opacity=".15" rx="4"/><rect id="rect4" width="60" height="8" x="36" y="70" fill="#000" fill-opacity=".15" rx="4"/><rect id="rect5" width="16" height="8" x="36" y="86" fill="#000" fill-opacity=".15" rx="4"/><mask id="mask0_1176_24" width="109" height="109" x="10" y="10" maskUnits="userSpaceOnUse" style="mask-type:alpha"><rect id="rect6" width="109" height="109" x="10" y="10" fill="url(#paint0_linear_1176_24)" rx="24"/></mask><g id="g8" mask="url(#mask0_1176_24)" transform="matrix(0.95412844,0,0,0.95412844,2.4587156,2.4587156)"><path id="path6" fill="#000" d="M 73.9933,59.5343 115.116,3.23446 c 1.304,-1.78564 3.81,-2.17427 5.594,-0.86761 l 6.121,4.48401 c 1.76,1.28868 2.162,3.74914 0.906,5.53164 L 88.2645,68.3772 c -0.3122,0.4428 -0.7111,0.8177 -1.1725,1.1017 l -9.526,5.8638 C 74.6299,77.15 70.9355,74.6444 71.5288,71.248 l 1.7543,-10.0426 c 0.1055,-0.6041 0.3485,-1.1759 0.7102,-1.6711 z"/><g id="g7" filter="url(#filter1_d_1176_24)"><path id="path7" fill="#fff" fill-opacity=".01" d="M 73.9933,59.5343 115.116,3.23446 c 1.304,-1.78564 3.81,-2.17427 5.594,-0.86761 l 6.121,4.48401 c 1.76,1.28868 2.162,3.74914 0.906,5.53164 L 88.2645,68.3772 c -0.3122,0.4428 -0.7111,0.8177 -1.1725,1.1017 l -9.526,5.8638 C 74.6299,77.15 70.9355,74.6444 71.5288,71.248 l 1.7543,-10.0426 c 0.1055,-0.6041 0.3485,-1.1759 0.7102,-1.6711 z" shape-rendering="crispEdges" style="fill:#fff;fill-opacity:0"/></g><rect id="rect7" width="14.673" height="105.856" x="10" y="10" fill="#268ef9" style="stroke-width:.943723"/></g><defs id="defs15"><filter id="filter0_ii_1176_24" width="109" height="110" x="10" y="10" color-interpolation-filters="sRGB" filterUnits="userSpaceOnUse"><feFlood id="feFlood8" flood-opacity="0" result="BackgroundImageFix"/><feBlend id="feBlend8" in="SourceGraphic" in2="BackgroundImageFix" mode="normal" result="shape"/><feColorMatrix id="feColorMatrix8" in="SourceAlpha" result="hardAlpha" type="matrix" values="0 0 0 0 0 0 0 0 0 0 0 0 0 0 0 0 0 0 127 0"/><feOffset id="feOffset8" dy="-4"/><feComposite id="feComposite8" in2="hardAlpha" k2="-1" k3="1" operator="arithmetic"/><feColorMatrix id="feColorMatrix9" type="matrix" values="0 0 0 0 0 0 0 0 0 0 0 0 0 0 0 0 0 0 0.25 0"/><feBlend id="feBlend9" in2="shape" mode="normal" result="effect1_innerShadow_1176_24"/><feColorMatrix id="feColorMatrix10" in="SourceAlpha" result="hardAlpha" type="matrix" values="0 0 0 0 0 0 0 0 0 0 0 0 0 0 0 0 0 0 127 0"/><feMorphology id="feMorphology10" in="SourceAlpha" operator="erode" radius="1" result="effect2_innerShadow_1176_24"/><feOffset id="feOffset10" dy="2"/><feComposite id="feComposite10" in2="hardAlpha" k2="-1" k3="1" operator="arithmetic"/><feColorMatrix id="feColorMatrix11" type="matrix" values="0 0 0 0 1 0 0 0 0 1 0 0 0 0 1 0 0 0 0.25 0"/><feBlend id="feBlend11" in2="effect1_innerShadow_1176_24" mode="normal" result="effect2_innerShadow_1176_24"/></filter><filter id="filter1_d_1176_24" width="63.002" height="80.353" x="70.466" y=".594" color-interpolation-filters="sRGB" filterUnits="userSpaceOnUse"><feFlood id="feFlood11" flood-opacity="0" result="BackgroundImageFix"/><feColorMatrix id="feColorMatrix12" in="SourceAlpha" result="hardAlpha" type="matrix" values="0 0 0 0 0 0 0 0 0 0 0 0 0 0 0 0 0 0 127 0"/><feOffset id="feOffset12" dx="2" dy="2"/><feGaussianBlur id="feGaussianBlur12" stdDeviation="1.5"/><feComposite id="feComposite12" in2="hardAlpha" operator="out"/><feColorMatrix id="feColorMatrix13" type="matrix" values="0 0 0 0 0 0 0 0 0 0 0 0 0 0 0 0 0 0 0.14 0"/><feBlend id="feBlend13" in2="BackgroundImageFix" mode="normal" result="effect1_dropShadow_1176_24"/><feBlend id="feBlend14" in="SourceGraphic" in2="effect1_dropShadow_1176_24" mode="normal" result="shape"/></filter><linearGradient id="paint0_linear_1176_24" x1="32.141" x2="94.305" y1="10" y2="119" gradientUnits="userSpaceOnUse"><stop id="stop14" stop-color="#FED97C"/><stop id="stop15" offset="1" stop-color="#E0A101"/></linearGradient></defs></svg>