<?xml version="1.0" encoding="UTF-8" standalone="no"?>
<svg
   height="128px"
   viewBox="0 0 128 128"
   width="128px"
   version="1.1"
   id="svg37"
   xmlns="http://www.w3.org/2000/svg"
   xmlns:svg="http://www.w3.org/2000/svg">
  <defs
     id="defs41" />
  <linearGradient
     id="a"
     gradientTransform="matrix(0.232143 0 0 0.328947 -8.56688 263.826965)"
     gradientUnits="userSpaceOnUse"
     x1="88.595886"
     x2="536.595886"
     y1="-449.394012"
     y2="-449.394012">
    <stop
       offset="0"
       stop-color="#deddda"
       id="stop2"
       style="stop-color:#d0d0d0;stop-opacity:1" />
    <stop
       offset="0.0454546"
       stop-color="#eeeeec"
       id="stop4"
       style="stop-color:#f0f0f2;stop-opacity:1" />
    <stop
       offset="0.0909091"
       stop-color="#deddda"
       id="stop6"
       style="stop-color:#d0d0d0;stop-opacity:1" />
    <stop
       offset="0.909091"
       stop-color="#deddda"
       id="stop8"
       style="stop-color:#d0d0d0;stop-opacity:1" />
    <stop
       offset="0.954545"
       stop-color="#eeeeec"
       id="stop10"
       style="stop-color:#f0f0f2;stop-opacity:1" />
    <stop
       offset="1"
       stop-color="#c0bfbc"
       id="stop12"
       style="stop-color:#d0d0d0;stop-opacity:1" />
  </linearGradient>
  <path
     d="m 20 16 h 88 c 4.417969 0 8 3.582031 8 8 v 84 c 0 4.417969 -3.582031 8 -8 8 h -88 c -4.417969 0 -8 -3.582031 -8 -8 v -84 c 0 -4.417969 3.582031 -8 8 -8 z m 0 0"
     fill="url(#a)"
     id="path15"
     style="fill:#cdcdd4" />
  <path
     d="m 20 12 h 88 c 4.417969 0 8 3.582031 8 8 v 84 c 0 4.417969 -3.582031 8 -8 8 h -88 c -4.417969 0 -8 -3.582031 -8 -8 v -84 c 0 -4.417969 3.582031 -8 8 -8 z m 0 0"
     fill="#ffffff"
     id="path17"
     style="fill:#f0f0f2" />
  <path
     d="m 58 44 c 0 8.835938 -7.164062 16 -16 16 s -16 -7.164062 -16 -16 s 7.164062 -16 16 -16 s 16 7.164062 16 16 z m 0 0"
     fill="#9a9996"
     id="path19"
     style="fill:#cdcdd4" />
  <path
     d="m 58 40 c 0 8.835938 -7.164062 16 -16 16 s -16 -7.164062 -16 -16 s 7.164062 -16 16 -16 s 16 7.164062 16 16 z m 0 0"
     fill="#deddda"
     id="path21"
     style="fill:#e3e3e7" />
  <path
     d="m 58.070312 82 c 0 8.835938 -7.164062 16 -16 16 c -8.835937 0 -16 -7.164062 -16 -16 s 7.164063 -16 16 -16 c 8.835938 0 16 7.164062 16 16 z m 0 0"
     fill="#9a9996"
     id="path23"
     style="fill:#cdcdd4" />
  <path
     d="m 58.070312 78 c 0 8.835938 -7.164062 16 -16 16 c -8.835937 0 -16 -7.164062 -16 -16 s 7.164063 -16 16 -16 c 8.835938 0 16 7.164062 16 16 z m 0 0"
     fill="#deddda"
     id="path25"
     style="fill:#e3e3e7" />
  <path
     d="m 72 28 h 24 c 3.3125 0 6 2.6875 6 6 v 58 c 0 3.3125 -2.6875 6 -6 6 h -24 c -3.3125 0 -6 -2.6875 -6 -6 v -58 c 0 -3.3125 2.6875 -6 6 -6 z m 0 0"
     fill="#1a5fb4"
     id="path27"
     style="fill:#0674e6" />
  <path
     d="m 72 24 h 24 c 3.3125 0 6 2.6875 6 6 v 58 c 0 3.3125 -2.6875 6 -6 6 h -24 c -3.3125 0 -6 -2.6875 -6 -6 v -58 c 0 -3.3125 2.6875 -6 6 -6 z m 0 0"
     fill="#3584e4"
     id="path29"
     style="fill:#268ef9" />
  <path
     d="m 50 33.671875 l -6.332031 6.34375 l 6.332031 6.3125 l -1.648438 1.671875 l -6.359374 -6.34375 l -6.359376 6.34375 l -1.632812 -1.671875 l 6.316406 -6.3125 l -6.316406 -6.34375 l 1.632812 -1.671875 l 6.359376 6.34375 l 6.359374 -6.34375 z m 0 0"
     id="path31"
     style="fill:#2d2d2d" />
  <path
     d="m 43.121094 70 v 6.941406 h 6.949218 v 2.117188 h -6.949218 v 6.941406 h -2.097656 v -6.941406 h -6.953126 v -2.117188 h 6.953126 v -6.941406 z m 0 0"
     id="path33"
     style="fill:#2d2d2d" />
  <path
     d="m 76 53 h 16 v 3.488281 h -16 z m 0 8.46875 h 16 v 3.53125 h -16 z m 0 0"
     fill="#ffffff"
     id="path35"
     style="fill:#f0f0f2" />
</svg>
