<svg xmlns="http://www.w3.org/2000/svg" xmlns:svg="http://www.w3.org/2000/svg" id="svg12" width="128" height="128" fill="none" version="1.1" viewBox="0 0 128 128"><rect id="rect1" width="104" height="104" x="12" y="12" fill="url(#paint0_linear_1176_5)" rx="22.899" style="fill:url(#paint0_linear_1176_5);stroke-width:.954128"/><g id="g1" filter="url(#filter0_i_1176_5)" transform="matrix(0.96363636,0,0,0.94444444,2.3636364,3.6111111)"><path id="path1" fill="#fff" fill-opacity=".25" d="m 10,65 h 55 v 54 H 47.92 c -12.9886,0 -19.4829,0 -24.4785,-2.447 -4.7832,-2.344 -8.6509,-6.211 -10.9942,-10.994 C 10,100.563 10,94.0686 10,81.08 Z"/></g><path id="path2" fill="#fff" fill-opacity=".25" d="M65 10H81.08C94.0686 10 100.563 10 105.559 12.4473C110.342 14.7906 114.209 18.6583 116.553 23.4415C119 28.4371 119 34.9314 119 47.92V65H65V10Z"/><g id="g2" filter="url(#filter1_ii_1176_5)" transform="matrix(0.95412844,0,0,0.95410563,2.4587156,2.4614305)"><rect id="rect2" width="109" height="109" x="10" y="10" fill="#fff" fill-opacity=".01" rx="24"/></g><path id="path3" fill="#FAFAFA" d="M95.9873 46L91 41.0064L86.0127 46L83 42.9631L87.9669 37.9694L83.0204 33.0166L86.0534 30L91 34.9529L95.9466 30L98.9796 33.0166L94.0127 37.9694L99 42.9631L95.9873 46Z"/><path id="path4" fill="#FAFAFA" d="M89.1511 99V92.8489H83V89.1156H89.1511V83H92.8844V89.1156H99V92.8489H92.8844V99H89.1511Z"/><path id="path5" fill="#FAFAFA" d="M29 88.8V84.6H45V88.8H29ZM29 96.6V92.4H45V96.6H29Z"/><path id="path6" fill="#fff" d="M29 42V38H45V42H29Z"/><defs id="defs12"><filter id="filter0_i_1176_5" width="55" height="54" x="10" y="65" color-interpolation-filters="sRGB" filterUnits="userSpaceOnUse"><feFlood id="feFlood6" flood-opacity="0" result="BackgroundImageFix"/><feBlend id="feBlend6" in="SourceGraphic" in2="BackgroundImageFix" mode="normal" result="shape"/><feColorMatrix id="feColorMatrix6" in="SourceAlpha" result="hardAlpha" type="matrix" values="0 0 0 0 0 0 0 0 0 0 0 0 0 0 0 0 0 0 127 0"/><feOffset id="feOffset6" dy="-4"/><feComposite id="feComposite6" in2="hardAlpha" k2="-1" k3="1" operator="arithmetic"/><feColorMatrix id="feColorMatrix7" type="matrix" values="0 0 0 0 0.176471 0 0 0 0 0.176471 0 0 0 0 0.176471 0 0 0 0.1 0"/><feBlend id="feBlend7" in2="shape" mode="normal" result="effect1_innerShadow_1176_5"/></filter><filter id="filter1_ii_1176_5" width="109" height="110" x="10" y="10" color-interpolation-filters="sRGB" filterUnits="userSpaceOnUse"><feFlood id="feFlood7" flood-opacity="0" result="BackgroundImageFix"/><feBlend id="feBlend8" in="SourceGraphic" in2="BackgroundImageFix" mode="normal" result="shape"/><feColorMatrix id="feColorMatrix8" in="SourceAlpha" result="hardAlpha" type="matrix" values="0 0 0 0 0 0 0 0 0 0 0 0 0 0 0 0 0 0 127 0"/><feOffset id="feOffset8" dy="-4"/><feComposite id="feComposite8" in2="hardAlpha" k2="-1" k3="1" operator="arithmetic"/><feColorMatrix id="feColorMatrix9" type="matrix" values="0 0 0 0 0 0 0 0 0 0 0 0 0 0 0 0 0 0 0.25 0"/><feBlend id="feBlend9" in2="shape" mode="normal" result="effect1_innerShadow_1176_5"/><feColorMatrix id="feColorMatrix10" in="SourceAlpha" result="hardAlpha" type="matrix" values="0 0 0 0 0 0 0 0 0 0 0 0 0 0 0 0 0 0 127 0"/><feMorphology id="feMorphology10" in="SourceAlpha" operator="erode" radius="1" result="effect2_innerShadow_1176_5"/><feOffset id="feOffset10" dy="2"/><feComposite id="feComposite10" in2="hardAlpha" k2="-1" k3="1" operator="arithmetic"/><feColorMatrix id="feColorMatrix11" type="matrix" values="0 0 0 0 1 0 0 0 0 1 0 0 0 0 1 0 0 0 0.25 0"/><feBlend id="feBlend11" in2="effect1_innerShadow_1176_5" mode="normal" result="effect2_innerShadow_1176_5"/></filter><linearGradient id="paint0_linear_1176_5" x1="31.289" x2="101.969" y1="10" y2="119" gradientTransform="matrix(0.95412844,0,0,0.95412844,2.4587156,2.4587156)" gradientUnits="userSpaceOnUse"><stop id="stop11" stop-color="#56B4FF"/><stop id="stop12" offset="1" stop-color="#268EF9"/></linearGradient></defs></svg>