<svg width="128" height="128" viewBox="0 0 128 128" fill="none" xmlns="http://www.w3.org/2000/svg">
<g filter="url(#filter0_ii_1139_2)">
<g clip-path="url(#clip0_1139_2)">
<rect width="128" height="128" rx="24" fill="url(#paint0_linear_1139_2)"/>
<g filter="url(#filter1_i_1139_2)">
<path d="M0 64H64V128H37.92C24.9314 128 18.4371 128 13.4415 125.553C8.65833 123.209 4.79057 119.342 2.44734 114.559C0 109.563 0 103.069 0 90.08V64Z" fill="white" fill-opacity="0.25"/>
</g>
<path d="M64 0H90.08C103.069 0 109.563 0 114.559 2.44734C119.342 4.79057 123.209 8.65833 125.553 13.4415C128 18.4371 128 24.9314 128 37.92V64H64V0Z" fill="white" fill-opacity="0.25"/>
<path d="M98.9873 43L94 38.0064L89.0127 43L86 39.9631L90.9669 34.9694L86.0204 30.0166L89.0534 27L94 31.9529L98.9466 27L101.98 30.0166L97.0127 34.9694L102 39.9631L98.9873 43Z" fill="#FAFAFA"/>
<path d="M92.1511 104V97.8489H86V94.1156H92.1511V88H95.8844V94.1156H102V97.8489H95.8844V104H92.1511Z" fill="#FAFAFA"/>
<path d="M26 93.8V89.6H42V93.8H26ZM26 101.6V97.4H42V101.6H26Z" fill="#FAFAFA"/>
<path d="M26 37V33H42V37H26Z" fill="white"/>
</g>
</g>
<defs>
<filter id="filter0_ii_1139_2" x="0" y="0" width="128" height="129" filterUnits="userSpaceOnUse" color-interpolation-filters="sRGB">
<feFlood flood-opacity="0" result="BackgroundImageFix"/>
<feBlend mode="normal" in="SourceGraphic" in2="BackgroundImageFix" result="shape"/>
<feColorMatrix in="SourceAlpha" type="matrix" values="0 0 0 0 0 0 0 0 0 0 0 0 0 0 0 0 0 0 127 0" result="hardAlpha"/>
<feOffset dy="-4"/>
<feComposite in2="hardAlpha" operator="arithmetic" k2="-1" k3="1"/>
<feColorMatrix type="matrix" values="0 0 0 0 0 0 0 0 0 0 0 0 0 0 0 0 0 0 0.25 0"/>
<feBlend mode="normal" in2="shape" result="effect1_innerShadow_1139_2"/>
<feColorMatrix in="SourceAlpha" type="matrix" values="0 0 0 0 0 0 0 0 0 0 0 0 0 0 0 0 0 0 127 0" result="hardAlpha"/>
<feMorphology radius="1" operator="erode" in="SourceAlpha" result="effect2_innerShadow_1139_2"/>
<feOffset dy="2"/>
<feComposite in2="hardAlpha" operator="arithmetic" k2="-1" k3="1"/>
<feColorMatrix type="matrix" values="0 0 0 0 1 0 0 0 0 1 0 0 0 0 1 0 0 0 0.25 0"/>
<feBlend mode="normal" in2="effect1_innerShadow_1139_2" result="effect2_innerShadow_1139_2"/>
</filter>
<filter id="filter1_i_1139_2" x="0" y="64" width="64" height="64" filterUnits="userSpaceOnUse" color-interpolation-filters="sRGB">
<feFlood flood-opacity="0" result="BackgroundImageFix"/>
<feBlend mode="normal" in="SourceGraphic" in2="BackgroundImageFix" result="shape"/>
<feColorMatrix in="SourceAlpha" type="matrix" values="0 0 0 0 0 0 0 0 0 0 0 0 0 0 0 0 0 0 127 0" result="hardAlpha"/>
<feOffset dy="-4"/>
<feComposite in2="hardAlpha" operator="arithmetic" k2="-1" k3="1"/>
<feColorMatrix type="matrix" values="0 0 0 0 0.176471 0 0 0 0 0.176471 0 0 0 0 0.176471 0 0 0 0.1 0"/>
<feBlend mode="normal" in2="shape" result="effect1_innerShadow_1139_2"/>
</filter>
<linearGradient id="paint0_linear_1139_2" x1="25" y1="5.93252e-07" x2="108" y2="128" gradientUnits="userSpaceOnUse">
<stop stop-color="#268EF9"/>
<stop offset="1" stop-color="#166EC9"/>
</linearGradient>
<clipPath id="clip0_1139_2">
<rect width="128" height="128" rx="24" fill="white"/>
</clipPath>
</defs>
</svg>
