<svg width="128" height="128" viewBox="0 0 128 128" fill="none" xmlns="http://www.w3.org/2000/svg">
<g clip-path="url(#clip0_1139_22)">
<path d="M98.4615 0H29.5385C13.2248 0 0 13.2248 0 29.5385V98.4615C0 114.775 13.2248 128 29.5385 128H98.4615C114.775 128 128 114.775 128 98.4615V29.5385C128 13.2248 114.775 0 98.4615 0Z" fill="url(#paint0_linear_1139_22)"/>
<g filter="url(#filter0_d_1139_22)">
<path d="M42.6667 52H51.3333C56.1195 52 60 55.8805 60 60.6667V69.3333C60 74.1195 56.1195 78 51.3333 78H42.6667C37.8805 78 34 74.1195 34 69.3333V60.6667C34 55.8805 37.8805 52 42.6667 52Z" fill="#8C56BF"/>
</g>
<g filter="url(#filter1_d_1139_22)">
<path d="M81.2414 59.4828C73.9267 59.4828 68 53.556 68 46.2414C68 38.9267 73.9267 33 81.2414 33C88.556 33 94.4828 38.9267 94.4828 46.2414C94.4828 53.556 88.556 59.4828 81.2414 59.4828Z" fill="#8C56BF"/>
</g>
<g filter="url(#filter2_d_1139_22)">
<path d="M88.4744 70.4421L69.835 80.1298C68.7 80.7174 68 81.8135 68 83C68 84.1865 68.7 85.2826 69.835 85.8702L88.4744 95.5579C89.6177 96.153 91.0218 96.1455 92.1609 95.5466C93.3 94.9439 94 93.8403 94 92.6425V73.3575C94 72.1597 93.3 71.0561 92.1609 70.4534C91.0218 69.8545 89.6177 69.847 88.4744 70.4421Z" fill="#8C56BF"/>
</g>
</g>
<defs>
<filter id="filter0_d_1139_22" x="33" y="51" width="32" height="32" filterUnits="userSpaceOnUse" color-interpolation-filters="sRGB">
<feFlood flood-opacity="0" result="BackgroundImageFix"/>
<feColorMatrix in="SourceAlpha" type="matrix" values="0 0 0 0 0 0 0 0 0 0 0 0 0 0 0 0 0 0 127 0" result="hardAlpha"/>
<feOffset dx="2" dy="2"/>
<feGaussianBlur stdDeviation="1.5"/>
<feComposite in2="hardAlpha" operator="out"/>
<feColorMatrix type="matrix" values="0 0 0 0 0 0 0 0 0 0 0 0 0 0 0 0 0 0 0.14 0"/>
<feBlend mode="normal" in2="BackgroundImageFix" result="effect1_dropShadow_1139_22"/>
<feBlend mode="normal" in="SourceGraphic" in2="effect1_dropShadow_1139_22" result="shape"/>
</filter>
<filter id="filter1_d_1139_22" x="67" y="32" width="32.4828" height="32.4828" filterUnits="userSpaceOnUse" color-interpolation-filters="sRGB">
<feFlood flood-opacity="0" result="BackgroundImageFix"/>
<feColorMatrix in="SourceAlpha" type="matrix" values="0 0 0 0 0 0 0 0 0 0 0 0 0 0 0 0 0 0 127 0" result="hardAlpha"/>
<feOffset dx="2" dy="2"/>
<feGaussianBlur stdDeviation="1.5"/>
<feComposite in2="hardAlpha" operator="out"/>
<feColorMatrix type="matrix" values="0 0 0 0 0 0 0 0 0 0 0 0 0 0 0 0 0 0 0.14 0"/>
<feBlend mode="normal" in2="BackgroundImageFix" result="effect1_dropShadow_1139_22"/>
<feBlend mode="normal" in="SourceGraphic" in2="effect1_dropShadow_1139_22" result="shape"/>
</filter>
<filter id="filter2_d_1139_22" x="67" y="69" width="32" height="32" filterUnits="userSpaceOnUse" color-interpolation-filters="sRGB">
<feFlood flood-opacity="0" result="BackgroundImageFix"/>
<feColorMatrix in="SourceAlpha" type="matrix" values="0 0 0 0 0 0 0 0 0 0 0 0 0 0 0 0 0 0 127 0" result="hardAlpha"/>
<feOffset dx="2" dy="2"/>
<feGaussianBlur stdDeviation="1.5"/>
<feComposite in2="hardAlpha" operator="out"/>
<feColorMatrix type="matrix" values="0 0 0 0 0 0 0 0 0 0 0 0 0 0 0 0 0 0 0.14 0"/>
<feBlend mode="normal" in2="BackgroundImageFix" result="effect1_dropShadow_1139_22"/>
<feBlend mode="normal" in="SourceGraphic" in2="effect1_dropShadow_1139_22" result="shape"/>
</filter>
<linearGradient id="paint0_linear_1139_22" x1="28.5" y1="-4.50411e-07" x2="107" y2="128" gradientUnits="userSpaceOnUse">
<stop stop-color="white"/>
<stop offset="1" stop-color="#D9D9D9"/>
</linearGradient>
<clipPath id="clip0_1139_22">
<rect width="128" height="128" fill="white"/>
</clipPath>
</defs>
</svg>
