<?xml version="1.0" encoding="UTF-8" standalone="no"?>
<svg
   height="128px"
   viewBox="0 0 128 128"
   width="128px"
   version="1.1"
   id="svg16"
   xmlns="http://www.w3.org/2000/svg"
   xmlns:svg="http://www.w3.org/2000/svg">
  <defs
     id="defs20" />
  <path
     d="m 124 66 c 0 33.136719 -26.863281 60 -60 60 s -60 -26.863281 -60 -60 s 26.863281 -60 60 -60 s 60 26.863281 60 60 z m 0 0"
     fill="#c0bfbc"
     id="path2"
     style="fill:#d0d0d0" />
  <path
     d="m 64 8 c 30.929688 0 56 25.070312 56 56 v 2 c 0 30.929688 -25.070312 56 -56 56 c -30.925781 0 -56 -25.070312 -56 -56 v -2 c 0 -30.929688 25.074219 -56 56 -56 z m 0 0"
     fill="#d5d3cf"
     id="path4" />
  <path
     d="m 124 63 c 0 32.585938 -26.863281 59 -60 59 s -60 -26.414062 -60 -59 s 26.863281 -59 60 -59 s 60 26.414062 60 59 z m 0 0"
     fill="#f6f5f4"
     id="path6"
     style="fill:#f0f0f2" />
  <g
     fill="#8c56bf"
     id="g14"
     style="fill:#8c56bf">
    <path
       d="m 43 51.257812 h 8 c 4.417969 0 8 3.582032 8 8 v 8 c 0 4.417969 -3.582031 8 -8 8 h -8 c -4.417969 0 -8 -3.582031 -8 -8 v -8 c 0 -4.417968 3.582031 -8 8 -8 z m 0 0"
       id="path8"
       style="fill:#8c56bf" />
    <path
       d="m 75 59.257812 c -6.628906 0 -12 -5.371093 -12 -12 c 0 -6.628906 5.371094 -12 12 -12 s 12 5.371094 12 12 c 0 6.628907 -5.371094 12 -12 12 z m 0 0"
       id="path10"
       style="fill:#8c56bf" />
    <path
       d="m 81.789062 66.234375 l -17.578124 10.046875 c -1.070313 0.609375 -1.730469 1.746094 -1.730469 2.976562 c 0 1.230469 0.660156 2.367188 1.730469 2.976563 l 17.578124 10.046875 c 1.078126 0.617188 2.402344 0.609375 3.476563 -0.011719 c 1.074219 -0.625 1.734375 -1.769531 1.734375 -3.011719 v -20 c 0 -1.242187 -0.660156 -2.386718 -1.734375 -3.011718 c -1.074219 -0.621094 -2.398437 -0.628906 -3.476563 -0.011719 z m 0 0"
       id="path12"
       style="fill:#8c56bf" />
  </g>
</svg>
