<svg xmlns="http://www.w3.org/2000/svg" xmlns:svg="http://www.w3.org/2000/svg" id="svg11" width="128" height="128" fill="none" version="1.1" viewBox="0 0 128 128"><path id="path1" fill="url(#paint0_linear_1139_22)" d="M 91.999949,12 H 35.999956 C 22.745204,12 12,22.745204 12,35.999956 V 91.999949 C 12,105.25461 22.745204,116 35.999956,116 H 91.999949 C 105.25461,116 116,105.25461 116,91.999949 V 35.999956 C 116,22.745204 105.25461,12 91.999949,12 Z" style="fill:url(#paint0_linear_1139_22);stroke-width:.954128"/><g id="g2" filter="url(#filter0_d_1139_22)"><path id="path2" fill="#8C56BF" d="M43.3915 52.3969H51.7831C56.4173 52.3969 60.1746 56.1542 60.1746 60.7884V69.1799C60.1746 73.8141 56.4173 77.5715 51.7831 77.5715H43.3915C38.7573 77.5715 35 73.8141 35 69.1799V60.7884C35 56.1542 38.7573 52.3969 43.3915 52.3969Z"/></g><g id="g3" filter="url(#filter1_d_1139_22)"><path id="path3" fill="#8C56BF" d="M80.7417 59.642C73.6592 59.642 67.9207 53.9035 67.9207 46.821C67.9207 39.7386 73.6592 34 80.7417 34C87.8241 34 93.5627 39.7386 93.5627 46.821C93.5627 53.9035 87.8241 59.642 80.7417 59.642Z"/></g><g id="g4" filter="url(#filter2_d_1139_22)"><path id="path4" fill="#8C56BF" d="M87.7451 70.2535L69.6974 79.6337C68.5984 80.2026 67.9207 81.2639 67.9207 82.4127C67.9207 83.5616 68.5984 84.6228 69.6974 85.1918L87.7451 94.5719C88.852 95.1482 90.2116 95.1409 91.3145 94.561C92.4175 93.9775 93.0953 92.9089 93.0953 91.7491V73.0763C93.0953 71.9166 92.4175 70.848 91.3145 70.2645C90.2116 69.6846 88.852 69.6773 87.7451 70.2535Z"/></g><defs id="defs11"><filter id="filter0_d_1139_22" width="31.175" height="31.175" x="34" y="51.397" color-interpolation-filters="sRGB" filterUnits="userSpaceOnUse"><feFlood id="feFlood4" flood-opacity="0" result="BackgroundImageFix"/><feColorMatrix id="feColorMatrix4" in="SourceAlpha" result="hardAlpha" type="matrix" values="0 0 0 0 0 0 0 0 0 0 0 0 0 0 0 0 0 0 127 0"/><feOffset id="feOffset4" dx="2" dy="2"/><feGaussianBlur id="feGaussianBlur4" stdDeviation="1.5"/><feComposite id="feComposite4" in2="hardAlpha" operator="out"/><feColorMatrix id="feColorMatrix5" type="matrix" values="0 0 0 0 0 0 0 0 0 0 0 0 0 0 0 0 0 0 0.14 0"/><feBlend id="feBlend5" in2="BackgroundImageFix" mode="normal" result="effect1_dropShadow_1139_22"/><feBlend id="feBlend6" in="SourceGraphic" in2="effect1_dropShadow_1139_22" mode="normal" result="shape"/></filter><filter id="filter1_d_1139_22" width="31.642" height="31.642" x="66.921" y="33" color-interpolation-filters="sRGB" filterUnits="userSpaceOnUse"><feFlood id="feFlood6" flood-opacity="0" result="BackgroundImageFix"/><feColorMatrix id="feColorMatrix6" in="SourceAlpha" result="hardAlpha" type="matrix" values="0 0 0 0 0 0 0 0 0 0 0 0 0 0 0 0 0 0 127 0"/><feOffset id="feOffset6" dx="2" dy="2"/><feGaussianBlur id="feGaussianBlur6" stdDeviation="1.5"/><feComposite id="feComposite6" in2="hardAlpha" operator="out"/><feColorMatrix id="feColorMatrix7" type="matrix" values="0 0 0 0 0 0 0 0 0 0 0 0 0 0 0 0 0 0 0.14 0"/><feBlend id="feBlend7" in2="BackgroundImageFix" mode="normal" result="effect1_dropShadow_1139_22"/><feBlend id="feBlend8" in="SourceGraphic" in2="effect1_dropShadow_1139_22" mode="normal" result="shape"/></filter><filter id="filter2_d_1139_22" width="31.175" height="31.175" x="66.921" y="68.825" color-interpolation-filters="sRGB" filterUnits="userSpaceOnUse"><feFlood id="feFlood8" flood-opacity="0" result="BackgroundImageFix"/><feColorMatrix id="feColorMatrix8" in="SourceAlpha" result="hardAlpha" type="matrix" values="0 0 0 0 0 0 0 0 0 0 0 0 0 0 0 0 0 0 127 0"/><feOffset id="feOffset8" dx="2" dy="2"/><feGaussianBlur id="feGaussianBlur8" stdDeviation="1.5"/><feComposite id="feComposite8" in2="hardAlpha" operator="out"/><feColorMatrix id="feColorMatrix9" type="matrix" values="0 0 0 0 0 0 0 0 0 0 0 0 0 0 0 0 0 0 0.14 0"/><feBlend id="feBlend9" in2="BackgroundImageFix" mode="normal" result="effect1_dropShadow_1139_22"/><feBlend id="feBlend10" in="SourceGraphic" in2="effect1_dropShadow_1139_22" mode="normal" result="shape"/></filter><linearGradient id="paint0_linear_1139_22" x1="34.27" x2="101.117" y1="10" y2="119" gradientTransform="matrix(0.95412844,0,0,0.95412844,2.4587156,2.4587156)" gradientUnits="userSpaceOnUse"><stop id="stop10" stop-color="#fff"/><stop id="stop11" offset="1" stop-color="#D9D9D9"/></linearGradient></defs></svg>