<svg xmlns="http://www.w3.org/2000/svg" xmlns:svg="http://www.w3.org/2000/svg" id="svg65" width="128" height="128" fill="none" version="1.1" viewBox="0 0 128 128"><g id="g6" filter="url(#filter0_ii_612_58)" transform="matrix(1.2307692,0,0,1.1850785,-14.769231,-14.220943)" style="stroke-width:.828014"><rect id="rect2" width="84.5" height="87.758" x="21.75" y="22.126" fill="#268ef9" rx="15.844" ry="16.455" style="stroke-width:.604875"/></g><rect id="rect8" width="64" height="64" x="32" y="32" fill="#f0f0f2" fill-opacity=".1" rx="8.727" style="stroke-width:.727272"/><rect id="rect10" width="62.301" height="62.301" x="32.85" y="32.85" stroke="#fff" stroke-linecap="round" stroke-linejoin="round" stroke-miterlimit="3.864" stroke-opacity=".5" stroke-width="1.699" rx="7.969"/><g id="g14" filter="url(#filter1_i_612_58)" transform="matrix(0.97278803,0,0,0.75716929,2.8028301,14.850882)"><path id="path12" fill="#fff" d="m 58.9091,73.9091 v -0.2727 c 0.0303,-2.894 0.3333,-5.197 0.9091,-6.9091 0.5757,-1.7121 1.3939,-3.0985 2.4545,-4.1591 1.0606,-1.0606 2.3334,-2.0379 3.8182,-2.9318 0.8939,-0.5455 1.697,-1.1894 2.4091,-1.9319 0.7121,-0.7575 1.2727,-1.6287 1.6818,-2.6136 0.4243,-0.9848 0.6364,-2.0757 0.6364,-3.2727 0,-1.4849 -0.3485,-2.7727 -1.0455,-3.8637 -0.6969,-1.0909 -1.6288,-1.9318 -2.7954,-2.5227 -1.1667,-0.5909 -2.4621,-0.8863 -3.8864,-0.8863 -1.2424,0 -2.4394,0.2575 -3.5909,0.7727 -1.1515,0.5151 -2.1136,1.3257 -2.8864,2.4318 -0.7727,1.1061 -1.2197,2.553 -1.3409,4.3409 h -5.7272 c 0.1212,-2.5757 0.7878,-4.7803 2,-6.6136 1.2272,-1.8334 2.8409,-3.2349 4.8409,-4.2046 2.0151,-0.9697 4.25,-1.4545 6.7045,-1.4545 2.6667,0 4.9849,0.5303 6.9546,1.5909 1.9848,1.0606 3.5151,2.5151 4.5909,4.3636 1.0909,1.8485 1.6363,3.9546 1.6363,6.3182 0,1.6667 -0.2575,3.1743 -0.7727,4.5227 -0.5,1.3485 -1.2273,2.5531 -2.1818,3.6137 -0.9394,1.0606 -2.0758,2 -3.4091,2.8182 -1.3333,0.8333 -2.4015,1.7121 -3.2046,2.6363 -0.803,0.9091 -1.3863,1.9924 -1.75,3.25 -0.3636,1.2576 -0.5606,2.8258 -0.5909,4.7046 v 0.2727 z m 2.9091,13.4545 c -1.1212,0 -2.0834,-0.4015 -2.8864,-1.2045 -0.803,-0.803 -1.2045,-1.7652 -1.2045,-2.8864 0,-1.1212 0.4015,-2.0833 1.2045,-2.8863 0.803,-0.8031 1.7652,-1.2046 2.8864,-1.2046 1.1212,0 2.0833,0.4015 2.8863,1.2046 0.8031,0.803 1.2046,1.7651 1.2046,2.8863 0,0.7425 -0.1894,1.4243 -0.5682,2.0455 -0.3636,0.6212 -0.8561,1.1212 -1.4773,1.5 -0.606,0.3636 -1.2878,0.5454 -2.0454,0.5454 z"/></g><defs id="defs63"><filter id="filter0_ii_612_58" width="104" height="108" x="12" y="12" color-interpolation-filters="sRGB" filterUnits="userSpaceOnUse"><feFlood id="feFlood16" flood-opacity="0" result="BackgroundImageFix"/><feBlend id="feBlend18" in="SourceGraphic" in2="BackgroundImageFix" mode="normal" result="shape"/><feColorMatrix id="feColorMatrix20" in="SourceAlpha" result="hardAlpha" type="matrix" values="0 0 0 0 0 0 0 0 0 0 0 0 0 0 0 0 0 0 127 0"/><feOffset id="feOffset22" dy="-4"/><feComposite id="feComposite24" in2="hardAlpha" k2="-1" k3="1" operator="arithmetic"/><feColorMatrix id="feColorMatrix26" type="matrix" values="0 0 0 0 0 0 0 0 0 0 0 0 0 0 0 0 0 0 0.1 0"/><feBlend id="feBlend28" in2="shape" mode="normal" result="effect1_innerShadow_612_58"/><feColorMatrix id="feColorMatrix30" in="SourceAlpha" result="hardAlpha" type="matrix" values="0 0 0 0 0 0 0 0 0 0 0 0 0 0 0 0 0 0 127 0"/><feOffset id="feOffset32" dy="4"/><feGaussianBlur id="feGaussianBlur34" stdDeviation="4"/><feComposite id="feComposite36" in2="hardAlpha" k2="-1" k3="1" operator="arithmetic"/><feColorMatrix id="feColorMatrix38" type="matrix" values="0 0 0 0 0.941176 0 0 0 0 0.941176 0 0 0 0 0.94902 0 0 0 0.2 0"/><feBlend id="feBlend40" in2="effect1_innerShadow_612_58" mode="normal" result="effect2_innerShadow_612_58"/></filter><filter id="filter1_i_612_58" width="26.727" height="47.545" x="49.545" y="39.818" color-interpolation-filters="sRGB" filterUnits="userSpaceOnUse"><feFlood id="feFlood43" flood-opacity="0" result="BackgroundImageFix"/><feBlend id="feBlend45" in="SourceGraphic" in2="BackgroundImageFix" mode="normal" result="shape"/><feColorMatrix id="feColorMatrix47" in="SourceAlpha" result="hardAlpha" type="matrix" values="0 0 0 0 0 0 0 0 0 0 0 0 0 0 0 0 0 0 127 0"/><feOffset id="feOffset49" dy="-4"/><feComposite id="feComposite51" in2="hardAlpha" k2="-1" k3="1" operator="arithmetic"/><feColorMatrix id="feColorMatrix53" type="matrix" values="0 0 0 0 0 0 0 0 0 0 0 0 0 0 0 0 0 0 0.1 0"/><feBlend id="feBlend55" in2="shape" mode="normal" result="effect1_innerShadow_612_58"/></filter><linearGradient id="paint0_linear_612_58" x1="64" x2="64" y1="12" y2="116" gradientTransform="matrix(0.81250003,0,0,0.84382585,12,12.000001)" gradientUnits="userSpaceOnUse"><stop id="stop58" stop-color="#2D2D2D" stop-opacity="0"/><stop id="stop60" offset="1" stop-color="#2D2D2D" stop-opacity=".2"/></linearGradient></defs></svg>