<?xml version="1.0" encoding="UTF-8" standalone="no"?>
<svg
   width="128"
   height="128"
   viewBox="0 0 128 128"
   fill="none"
   version="1.1"
   id="svg65"
   sodipodi:docname="help-browser.svg"
   inkscape:version="1.3.2 (091e20ef0f, 2023-11-25)"
   xmlns:inkscape="http://www.inkscape.org/namespaces/inkscape"
   xmlns:sodipodi="http://sodipodi.sourceforge.net/DTD/sodipodi-0.dtd"
   xmlns="http://www.w3.org/2000/svg"
   xmlns:svg="http://www.w3.org/2000/svg">
  <sodipodi:namedview
     id="namedview1"
     pagecolor="#ffffff"
     bordercolor="#000000"
     borderopacity="0.25"
     inkscape:showpageshadow="2"
     inkscape:pageopacity="0.0"
     inkscape:pagecheckerboard="0"
     inkscape:deskcolor="#d1d1d1"
     inkscape:zoom="6.09375"
     inkscape:cx="64"
     inkscape:cy="64"
     inkscape:window-width="2560"
     inkscape:window-height="979"
     inkscape:window-x="0"
     inkscape:window-y="0"
     inkscape:window-maximized="1"
     inkscape:current-layer="svg65" />
  <g
     filter="url(#filter0_ii_612_58)"
     id="g6"
     transform="matrix(1.2307692,0,0,1.1850785,-14.769231,-14.220943)"
     style="stroke-width:0.828014">
    <rect
       x="21.750002"
       y="22.125914"
       width="84.5"
       height="87.757896"
       rx="15.843752"
       fill="#268ef9"
       id="rect2"
       style="stroke-width:0.604875"
       ry="16.454605" />
  </g>
  <rect
     x="32"
     y="32"
     width="64"
     height="64"
     rx="8.727273"
     fill="#f0f0f2"
     fill-opacity="0.1"
     id="rect8"
     style="stroke-width:0.727272" />
  <rect
     x="32.849716"
     y="32.849716"
     width="62.300571"
     height="62.300571"
     rx="7.968678"
     stroke="#ffffff"
     stroke-opacity="0.5"
     stroke-width="1.69943"
     stroke-miterlimit="3.8637"
     stroke-linecap="round"
     stroke-linejoin="round"
     id="rect10" />
  <g
     filter="url(#filter1_i_612_58)"
     id="g14"
     transform="matrix(0.97278803,0,0,0.75716929,2.8028301,14.850882)">
    <path
       d="m 58.9091,73.9091 v -0.2727 c 0.0303,-2.894 0.3333,-5.197 0.9091,-6.9091 0.5757,-1.7121 1.3939,-3.0985 2.4545,-4.1591 1.0606,-1.0606 2.3334,-2.0379 3.8182,-2.9318 0.8939,-0.5455 1.697,-1.1894 2.4091,-1.9319 0.7121,-0.7575 1.2727,-1.6287 1.6818,-2.6136 0.4243,-0.9848 0.6364,-2.0757 0.6364,-3.2727 0,-1.4849 -0.3485,-2.7727 -1.0455,-3.8637 -0.6969,-1.0909 -1.6288,-1.9318 -2.7954,-2.5227 -1.1667,-0.5909 -2.4621,-0.8863 -3.8864,-0.8863 -1.2424,0 -2.4394,0.2575 -3.5909,0.7727 -1.1515,0.5151 -2.1136,1.3257 -2.8864,2.4318 -0.7727,1.1061 -1.2197,2.553 -1.3409,4.3409 h -5.7272 c 0.1212,-2.5757 0.7878,-4.7803 2,-6.6136 1.2272,-1.8334 2.8409,-3.2349 4.8409,-4.2046 2.0151,-0.9697 4.25,-1.4545 6.7045,-1.4545 2.6667,0 4.9849,0.5303 6.9546,1.5909 1.9848,1.0606 3.5151,2.5151 4.5909,4.3636 1.0909,1.8485 1.6363,3.9546 1.6363,6.3182 0,1.6667 -0.2575,3.1743 -0.7727,4.5227 -0.5,1.3485 -1.2273,2.5531 -2.1818,3.6137 -0.9394,1.0606 -2.0758,2 -3.4091,2.8182 -1.3333,0.8333 -2.4015,1.7121 -3.2046,2.6363 -0.803,0.9091 -1.3863,1.9924 -1.75,3.25 -0.3636,1.2576 -0.5606,2.8258 -0.5909,4.7046 v 0.2727 z m 2.9091,13.4545 c -1.1212,0 -2.0834,-0.4015 -2.8864,-1.2045 -0.803,-0.803 -1.2045,-1.7652 -1.2045,-2.8864 0,-1.1212 0.4015,-2.0833 1.2045,-2.8863 0.803,-0.8031 1.7652,-1.2046 2.8864,-1.2046 1.1212,0 2.0833,0.4015 2.8863,1.2046 0.8031,0.803 1.2046,1.7651 1.2046,2.8863 0,0.7425 -0.1894,1.4243 -0.5682,2.0455 -0.3636,0.6212 -0.8561,1.1212 -1.4773,1.5 -0.606,0.3636 -1.2878,0.5454 -2.0454,0.5454 z"
       fill="#ffffff"
       id="path12" />
  </g>
  <defs
     id="defs63">
    <filter
       id="filter0_ii_612_58"
       x="12"
       y="12"
       width="104"
       height="108"
       filterUnits="userSpaceOnUse"
       color-interpolation-filters="sRGB">
      <feFlood
         flood-opacity="0"
         result="BackgroundImageFix"
         id="feFlood16" />
      <feBlend
         mode="normal"
         in="SourceGraphic"
         in2="BackgroundImageFix"
         result="shape"
         id="feBlend18" />
      <feColorMatrix
         in="SourceAlpha"
         type="matrix"
         values="0 0 0 0 0 0 0 0 0 0 0 0 0 0 0 0 0 0 127 0"
         result="hardAlpha"
         id="feColorMatrix20" />
      <feOffset
         dy="-4"
         id="feOffset22" />
      <feComposite
         in2="hardAlpha"
         operator="arithmetic"
         k2="-1"
         k3="1"
         id="feComposite24" />
      <feColorMatrix
         type="matrix"
         values="0 0 0 0 0 0 0 0 0 0 0 0 0 0 0 0 0 0 0.1 0"
         id="feColorMatrix26" />
      <feBlend
         mode="normal"
         in2="shape"
         result="effect1_innerShadow_612_58"
         id="feBlend28" />
      <feColorMatrix
         in="SourceAlpha"
         type="matrix"
         values="0 0 0 0 0 0 0 0 0 0 0 0 0 0 0 0 0 0 127 0"
         result="hardAlpha"
         id="feColorMatrix30" />
      <feOffset
         dy="4"
         id="feOffset32" />
      <feGaussianBlur
         stdDeviation="4"
         id="feGaussianBlur34" />
      <feComposite
         in2="hardAlpha"
         operator="arithmetic"
         k2="-1"
         k3="1"
         id="feComposite36" />
      <feColorMatrix
         type="matrix"
         values="0 0 0 0 0.941176 0 0 0 0 0.941176 0 0 0 0 0.94902 0 0 0 0.2 0"
         id="feColorMatrix38" />
      <feBlend
         mode="normal"
         in2="effect1_innerShadow_612_58"
         result="effect2_innerShadow_612_58"
         id="feBlend40" />
    </filter>
    <filter
       id="filter1_i_612_58"
       x="49.5454"
       y="39.8182"
       width="26.7273"
       height="47.5455"
       filterUnits="userSpaceOnUse"
       color-interpolation-filters="sRGB">
      <feFlood
         flood-opacity="0"
         result="BackgroundImageFix"
         id="feFlood43" />
      <feBlend
         mode="normal"
         in="SourceGraphic"
         in2="BackgroundImageFix"
         result="shape"
         id="feBlend45" />
      <feColorMatrix
         in="SourceAlpha"
         type="matrix"
         values="0 0 0 0 0 0 0 0 0 0 0 0 0 0 0 0 0 0 127 0"
         result="hardAlpha"
         id="feColorMatrix47" />
      <feOffset
         dy="-4"
         id="feOffset49" />
      <feComposite
         in2="hardAlpha"
         operator="arithmetic"
         k2="-1"
         k3="1"
         id="feComposite51" />
      <feColorMatrix
         type="matrix"
         values="0 0 0 0 0 0 0 0 0 0 0 0 0 0 0 0 0 0 0.1 0"
         id="feColorMatrix53" />
      <feBlend
         mode="normal"
         in2="shape"
         result="effect1_innerShadow_612_58"
         id="feBlend55" />
    </filter>
    <linearGradient
       id="paint0_linear_612_58"
       x1="64"
       y1="12"
       x2="64"
       y2="116"
       gradientUnits="userSpaceOnUse"
       gradientTransform="matrix(0.81250003,0,0,0.84382585,12,12.000001)">
      <stop
         stop-color="#2D2D2D"
         stop-opacity="0"
         id="stop58" />
      <stop
         offset="1"
         stop-color="#2D2D2D"
         stop-opacity="0.2"
         id="stop60" />
    </linearGradient>
  </defs>
</svg>
