<?xml version="1.0" encoding="UTF-8" standalone="no"?>
<svg
   height="128px"
   viewBox="0 0 128 128"
   width="128px"
   version="1.1"
   id="svg29"
   sodipodi:docname="internet-web-browser.svg"
   xml:space="preserve"
   inkscape:version="1.3.2 (091e20ef0f, 2023-11-25)"
   xmlns:inkscape="http://www.inkscape.org/namespaces/inkscape"
   xmlns:sodipodi="http://sodipodi.sourceforge.net/DTD/sodipodi-0.dtd"
   xmlns:xlink="http://www.w3.org/1999/xlink"
   xmlns="http://www.w3.org/2000/svg"
   xmlns:svg="http://www.w3.org/2000/svg"><sodipodi:namedview
     id="namedview23"
     pagecolor="#ffffff"
     bordercolor="#000000"
     borderopacity="0.25"
     inkscape:showpageshadow="2"
     inkscape:pageopacity="0.0"
     inkscape:pagecheckerboard="0"
     inkscape:deskcolor="#d1d1d1"
     showgrid="false"
     inkscape:zoom="6.109375"
     inkscape:cx="85.278772"
     inkscape:cy="54.179028"
     inkscape:window-width="2560"
     inkscape:window-height="979"
     inkscape:window-x="0"
     inkscape:window-y="0"
     inkscape:window-maximized="1"
     inkscape:current-layer="svg29" /><defs
     id="defs33"><linearGradient
       id="linearGradient3033"><stop
         style="stop-color:#1b07a2;stop-opacity:1"
         offset="0"
         id="stop3029" /><stop
         style="stop-color:#270ae9;stop-opacity:1"
         offset="1"
         id="stop3031" /></linearGradient><linearGradient
       id="linearGradient1703"><stop
         style="stop-color:#0453a4;stop-opacity:1"
         offset="0"
         id="stop1699" /><stop
         style="stop-color:#268ef9;stop-opacity:1"
         offset="0.49723729"
         id="stop4723" /><stop
         style="stop-color:#bbdcfd;stop-opacity:1"
         offset="1"
         id="stop1701" /></linearGradient><linearGradient
       xlink:href="#linearGradient1703"
       id="linearGradient1705"
       x1="85.519058"
       y1="82.688545"
       x2="26.766436"
       y2="27.407297"
       gradientUnits="userSpaceOnUse"
       gradientTransform="translate(0.19512195,-0.19512195)" /><linearGradient
       xlink:href="#linearGradient3033"
       id="linearGradient3035"
       x1="102.42525"
       y1="98.825172"
       x2="85.295731"
       y2="82.693314"
       gradientUnits="userSpaceOnUse"
       gradientTransform="translate(0.19512195,-0.19512195)" /><filter
       id="filter0_i_321_34"
       x="12"
       y="12"
       width="104"
       height="104"
       filterUnits="userSpaceOnUse"
       color-interpolation-filters="sRGB"><feFlood
         flood-opacity="0"
         result="BackgroundImageFix"
         id="feFlood32" /><feBlend
         mode="normal"
         in="SourceGraphic"
         in2="BackgroundImageFix"
         result="shape"
         id="feBlend34" /><feColorMatrix
         in="SourceAlpha"
         type="matrix"
         values="0 0 0 0 0 0 0 0 0 0 0 0 0 0 0 0 0 0 127 0"
         result="hardAlpha"
         id="feColorMatrix36" /><feOffset
         dy="-4"
         id="feOffset38" /><feComposite
         in2="hardAlpha"
         operator="arithmetic"
         k2="-1"
         k3="1"
         id="feComposite40" /><feColorMatrix
         type="matrix"
         values="0 0 0 0 0.176471 0 0 0 0 0.176471 0 0 0 0 0.176471 0 0 0 0.1 0"
         id="feColorMatrix42" /><feBlend
         mode="normal"
         in2="shape"
         result="effect1_innerShadow_321_34"
         id="feBlend44" /></filter><filter
       id="filter1_i_321_34"
       x="68"
       y="25"
       width="35"
       height="35"
       filterUnits="userSpaceOnUse"
       color-interpolation-filters="sRGB"><feFlood
         flood-opacity="0"
         result="BackgroundImageFix"
         id="feFlood47" /><feBlend
         mode="normal"
         in="SourceGraphic"
         in2="BackgroundImageFix"
         result="shape"
         id="feBlend49" /><feColorMatrix
         in="SourceAlpha"
         type="matrix"
         values="0 0 0 0 0 0 0 0 0 0 0 0 0 0 0 0 0 0 127 0"
         result="hardAlpha"
         id="feColorMatrix51" /><feOffset
         dy="-4"
         id="feOffset53" /><feComposite
         in2="hardAlpha"
         operator="arithmetic"
         k2="-1"
         k3="1"
         id="feComposite55" /><feColorMatrix
         type="matrix"
         values="0 0 0 0 0.176471 0 0 0 0 0.176471 0 0 0 0 0.176471 0 0 0 0.1 0"
         id="feColorMatrix57" /><feBlend
         mode="normal"
         in2="shape"
         result="effect1_innerShadow_321_34"
         id="feBlend59" /></filter><filter
       id="filter2_ii_321_34"
       x="27"
       y="25"
       width="35"
       height="77"
       filterUnits="userSpaceOnUse"
       color-interpolation-filters="sRGB"><feFlood
         flood-opacity="0"
         result="BackgroundImageFix"
         id="feFlood62" /><feBlend
         mode="normal"
         in="SourceGraphic"
         in2="BackgroundImageFix"
         result="shape"
         id="feBlend64" /><feColorMatrix
         in="SourceAlpha"
         type="matrix"
         values="0 0 0 0 0 0 0 0 0 0 0 0 0 0 0 0 0 0 127 0"
         result="hardAlpha"
         id="feColorMatrix66" /><feMorphology
         radius="1"
         operator="erode"
         in="SourceAlpha"
         result="effect1_innerShadow_321_34"
         id="feMorphology68" /><feOffset
         dy="1"
         id="feOffset70" /><feComposite
         in2="hardAlpha"
         operator="arithmetic"
         k2="-1"
         k3="1"
         id="feComposite72" /><feColorMatrix
         type="matrix"
         values="0 0 0 0 0.941176 0 0 0 0 0.941176 0 0 0 0 0.94902 0 0 0 0.4 0"
         id="feColorMatrix74" /><feBlend
         mode="normal"
         in2="shape"
         result="effect1_innerShadow_321_34"
         id="feBlend76" /><feColorMatrix
         in="SourceAlpha"
         type="matrix"
         values="0 0 0 0 0 0 0 0 0 0 0 0 0 0 0 0 0 0 127 0"
         result="hardAlpha"
         id="feColorMatrix78" /><feOffset
         dy="-4"
         id="feOffset80" /><feComposite
         in2="hardAlpha"
         operator="arithmetic"
         k2="-1"
         k3="1"
         id="feComposite82" /><feColorMatrix
         type="matrix"
         values="0 0 0 0 0.176471 0 0 0 0 0.176471 0 0 0 0 0.176471 0 0 0 0.1 0"
         id="feColorMatrix84" /><feBlend
         mode="normal"
         in2="effect1_innerShadow_321_34"
         result="effect2_innerShadow_321_34"
         id="feBlend86" /></filter><filter
       id="filter3_i_321_34"
       x="68"
       y="66"
       width="35"
       height="35"
       filterUnits="userSpaceOnUse"
       color-interpolation-filters="sRGB"><feFlood
         flood-opacity="0"
         result="BackgroundImageFix"
         id="feFlood89" /><feBlend
         mode="normal"
         in="SourceGraphic"
         in2="BackgroundImageFix"
         result="shape"
         id="feBlend91" /><feColorMatrix
         in="SourceAlpha"
         type="matrix"
         values="0 0 0 0 0 0 0 0 0 0 0 0 0 0 0 0 0 0 127 0"
         result="hardAlpha"
         id="feColorMatrix93" /><feOffset
         dy="-4"
         id="feOffset95" /><feComposite
         in2="hardAlpha"
         operator="arithmetic"
         k2="-1"
         k3="1"
         id="feComposite97" /><feColorMatrix
         type="matrix"
         values="0 0 0 0 0.176471 0 0 0 0 0.176471 0 0 0 0 0.176471 0 0 0 0.1 0"
         id="feColorMatrix99" /><feBlend
         mode="normal"
         in2="shape"
         result="effect1_innerShadow_321_34"
         id="feBlend101" /></filter><linearGradient
       id="paint0_linear_321_34"
       x1="64"
       y1="12"
       x2="64"
       y2="116"
       gradientUnits="userSpaceOnUse"><stop
         stop-color="#2D2D2D"
         stop-opacity="0"
         id="stop104" /><stop
         offset="1"
         stop-color="#2D2D2D"
         stop-opacity="0.2"
         id="stop106" /></linearGradient><linearGradient
       id="paint1_linear_321_34"
       x1="85.5"
       y1="25"
       x2="85.5"
       y2="60"
       gradientUnits="userSpaceOnUse"><stop
         stop-color="#2D2D2D"
         stop-opacity="0"
         id="stop109" /><stop
         offset="1"
         stop-color="#2D2D2D"
         stop-opacity="0.2"
         id="stop111" /></linearGradient><linearGradient
       id="paint2_linear_321_34"
       x1="44.5"
       y1="25"
       x2="44.5"
       y2="101"
       gradientUnits="userSpaceOnUse"><stop
         stop-color="#2D2D2D"
         stop-opacity="0"
         id="stop114" /><stop
         offset="1"
         stop-color="#2D2D2D"
         stop-opacity="0.2"
         id="stop116" /></linearGradient><linearGradient
       id="paint3_linear_321_34"
       x1="85.5"
       y1="66"
       x2="85.5"
       y2="101"
       gradientUnits="userSpaceOnUse"><stop
         stop-color="#2D2D2D"
         stop-opacity="0"
         id="stop119" /><stop
         offset="1"
         stop-color="#2D2D2D"
         stop-opacity="0.2"
         id="stop121" /></linearGradient></defs><linearGradient
     id="a"
     gradientUnits="userSpaceOnUse"
     x1="8.0000315"
     x2="120.0000315"
     y1="119.999977"
     y2="119.999977"><stop
       offset="0"
       stop-color="#1a5fb4"
       id="stop2" /><stop
       offset="0.0357143"
       stop-color="#1c71d8"
       id="stop4" /><stop
       offset="0.0713653"
       stop-color="#1a5fb4"
       id="stop6" /><stop
       offset="0.928571"
       stop-color="#1a5fb4"
       id="stop8" /><stop
       offset="0.964286"
       stop-color="#1c71d8"
       id="stop10" /><stop
       offset="1"
       stop-color="#1a5fb4"
       id="stop12" /></linearGradient><g
     filter="url(#filter0_i_321_34)"
     id="g6"
     style="fill:#ebf4fe;fill-opacity:1;stroke-width:0.8125"><rect
       x="12"
       y="12"
       width="104"
       height="104"
       rx="19.5"
       fill="#FAF5FF"
       id="rect2"
       style="fill:#ebf4fe;fill-opacity:1;stroke-width:0.8125"
       ry="19.500002" /><rect
       x="12"
       y="12"
       width="104"
       height="104"
       rx="19.5"
       fill="url(#paint0_linear_321_34)"
       id="rect4"
       style="fill:#ebf4fe;fill-opacity:1;stroke-width:0.8125"
       ry="19.500002" /></g><g
     id="g609"
     transform="matrix(0.61211653,0,0,0.60357216,24.875047,25.600945)"><ellipse
       style="fill:#0674e6;stroke:none;stroke-width:10.0032;stop-color:#000000"
       id="path1573"
       cx="-2.375396"
       cy="-89.964691"
       rx="69.126526"
       ry="26.936026"
       transform="matrix(-0.70127721,0.71288868,-0.68771013,-0.72598539,0,0)" /><path
       id="path934"
       style="fill:url(#linearGradient3035);fill-opacity:1;stroke:none;stroke-width:1.001;stroke-linecap:round;stroke-linejoin:round;stop-color:#000000"
       d="m 43.615044,111.39082 a 51.999996,51.999996 0 0 0 20.580078,4.41406 51.999996,51.999996 0 0 0 51.999998,-52.000002 51.999996,51.999996 0 0 0 -5.0918,-22.398438 42.256115,73.582748 45 0 1 -0.18554,0.642579 42.256115,73.582748 45 0 1 -0.79493,2.429687 42.256115,73.582748 45 0 1 -0.89062,2.447266 42.256115,73.582748 45 0 1 -0.98633,2.46289 42.256115,73.582748 45 0 1 -1.07812,2.472657 42.256115,73.582748 45 0 1 -1.16993,2.478515 42.256115,73.582748 45 0 1 -1.25976,2.478516 42.256115,73.582748 45 0 1 -1.34766,2.478516 42.256115,73.582748 45 0 1 -1.43164,2.470703 42.256115,73.582748 45 0 1 -1.51367,2.458984 42.256115,73.582748 45 0 1 -1.595701,2.445313 42.256115,73.582748 45 0 1 -1.669922,2.423828 42.256115,73.582748 45 0 1 -1.746094,2.402343 42.256115,73.582748 45 0 1 -1.816406,2.373047 42.256115,73.582748 45 0 1 -1.886719,2.341797 42.256115,73.582748 45 0 1 -1.949218,2.306641 42.256115,73.582748 45 0 1 -2.011719,2.265625 42.256115,73.582748 45 0 1 -2.070313,2.222656 42.256115,73.582748 45 0 1 -2.125,2.175781 42.256115,73.582748 45 0 1 -6.488281,6.054688 42.256115,73.582748 45 0 1 -6.832031,5.529297 42.256115,73.582748 45 0 1 -7.070313,4.925781 42.256115,73.582748 45 0 1 -7.210937,4.24805 42.256115,73.582748 45 0 1 -7.244141,3.50976 42.256115,73.582748 45 0 1 -5.113281,1.93946 z" /><path
       id="path1432"
       style="fill:url(#linearGradient1705);fill-opacity:1;stroke:none;stroke-width:1.001;stroke-linecap:round;stroke-linejoin:round;stop-color:#000000"
       d="m 43.615044,111.39082 a 42.256115,73.582748 45 0 0 5.113281,-1.93946 42.256115,73.582748 45 0 0 7.244141,-3.50976 42.256115,73.582748 45 0 0 7.210937,-4.24805 42.256115,73.582748 45 0 0 7.070313,-4.925781 42.256115,73.582748 45 0 0 6.832031,-5.529297 42.256115,73.582748 45 0 0 6.488281,-6.054688 42.256115,73.582748 45 0 0 2.125,-2.175781 42.256115,73.582748 45 0 0 2.070313,-2.222656 42.256115,73.582748 45 0 0 2.011719,-2.265625 42.256115,73.582748 45 0 0 1.949218,-2.306641 42.256115,73.582748 45 0 0 1.886719,-2.341797 42.256115,73.582748 45 0 0 1.816406,-2.373047 42.256115,73.582748 45 0 0 1.746094,-2.402343 42.256115,73.582748 45 0 0 1.669922,-2.423828 42.256115,73.582748 45 0 0 1.595701,-2.445313 42.256115,73.582748 45 0 0 1.51367,-2.458984 42.256115,73.582748 45 0 0 1.43164,-2.470703 42.256115,73.582748 45 0 0 1.34766,-2.478516 42.256115,73.582748 45 0 0 1.25976,-2.478516 42.256115,73.582748 45 0 0 1.16993,-2.478515 42.256115,73.582748 45 0 0 1.07812,-2.472657 42.256115,73.582748 45 0 0 0.98633,-2.46289 42.256115,73.582748 45 0 0 0.89062,-2.447266 42.256115,73.582748 45 0 0 0.79493,-2.429687 42.256115,73.582748 45 0 0 0.18554,-0.642579 51.999996,51.999996 0 0 0 -46.908198,-29.601562 51.999996,51.999996 0 0 0 -52,52 51.999996,51.999996 0 0 0 31.419922,47.585942 z" /></g><rect
     x="-247.49615"
     y="-60.115089"
     width="35"
     height="76"
     rx="17.5"
     fill="#8C56BF"
     id="rect14"
     style="fill:#3584e4;filter:url(#filter2_ii_321_34)" /><rect
     x="-300.85678"
     y="-50.936699"
     width="35"
     height="76"
     rx="17.5"
     fill="url(#paint2_linear_321_34)"
     id="rect16"
     style="fill:#3584e4;filter:url(#filter2_ii_321_34)" /></svg>
