<?xml version="1.0" encoding="UTF-8" standalone="no"?>
<svg
   height="128px"
   viewBox="0 0 128 128"
   width="128px"
   version="1.1"
   id="svg54"
   xmlns:xlink="http://www.w3.org/1999/xlink"
   xmlns="http://www.w3.org/2000/svg"
   xmlns:svg="http://www.w3.org/2000/svg">
  <defs
     id="defs58">
    <linearGradient
       id="linearGradient1597">
      <stop
         style="stop-color:#fee8af;stop-opacity:1"
         offset="0"
         id="stop1593" />
      <stop
         style="stop-color:#fff6ef;stop-opacity:1"
         offset="0.03319973"
         id="stop1989" />
      <stop
         style="stop-color:#fee8af;stop-opacity:1"
         offset="0.07175739"
         id="stop2055" />
      <stop
         style="stop-color:#fee8af;stop-opacity:1"
         offset="0.93015414"
         id="stop1859" />
      <stop
         style="stop-color:#fff6ef;stop-opacity:1"
         offset="0.96604574"
         id="stop1793" />
      <stop
         style="stop-color:#fee8af;stop-opacity:1"
         offset="1"
         id="stop1595" />
    </linearGradient>
    <linearGradient
       xlink:href="#linearGradient1597"
       id="linearGradient1599"
       x1="12"
       y1="66.006171"
       x2="115.96703"
       y2="66.006171"
       gradientUnits="userSpaceOnUse" />
    <linearGradient
       id="c-3"
       gradientTransform="matrix(1,0,0,0.850001,0,-135.9253)"
       gradientUnits="userSpaceOnUse"
       x1="48.00016"
       x2="80.00016"
       y1="275.49991"
       y2="275.49991">
      <stop
         offset="0"
         stop-color="#e8e7e4"
         id="stop20"
         style="stop-color:#e5e5e5;stop-opacity:1" />
      <stop
         offset="0.511049"
         stop-color="#ffffff"
         id="stop22"
         style="stop-color:#f0f0f2;stop-opacity:1" />
      <stop
         offset="1"
         stop-color="#c2bfba"
         id="stop24"
         style="stop-color:#c2c2c2;stop-opacity:1" />
    </linearGradient>
    <linearGradient
       id="b-6"
       gradientUnits="userSpaceOnUse"
       x1="58.999043"
       x2="69.00042"
       y1="63.999893"
       y2="63.999893"
       gradientTransform="translate(0,-0.999974)">
      <stop
         offset="0"
         stop-color="#9a9996"
         id="stop15"
         style="stop-color:#c2c2c2;stop-opacity:1" />
      <stop
         offset="1"
         stop-color="#77767b"
         id="stop17"
         style="stop-color:#808080;stop-opacity:1" />
    </linearGradient>
  </defs>
  <linearGradient
     id="a"
     gradientUnits="userSpaceOnUse"
     x1="115.7569"
     x2="12.325009"
     y1="111.23547"
     y2="12.117009"
     gradientTransform="matrix(0.99968301,0,0,0.99987658,0.00380392,0.01431651)">
    <stop
       offset="0"
       stop-color="#fffae1"
       id="stop2"
       style="stop-color:#fff7e0;stop-opacity:1" />
    <stop
       offset="1"
       stop-color="#ffffff"
       id="stop4" />
  </linearGradient>
  <linearGradient
     id="b"
     gradientTransform="matrix(0.823186,0,0,0.849597,11.317824,-138.55776)"
     gradientUnits="userSpaceOnUse"
     x1="58"
     x2="70"
     y1="221"
     y2="221">
    <stop
       offset="0"
       stop-color="#e8e7e4"
       id="stop7"
       style="stop-color:#8d8c8b;stop-opacity:1" />
    <stop
       offset="0.27836779"
       stop-color="#e8e7e4"
       id="stop1976"
       style="stop-color:#c4c3c1;stop-opacity:1" />
    <stop
       offset="0.66920322"
       stop-color="#ffffff"
       id="stop9" />
    <stop
       offset="1"
       stop-color="#c2bfba"
       id="stop11"
       style="stop-color:#9d9b96;stop-opacity:1" />
  </linearGradient>
  <linearGradient
     id="c"
     gradientTransform="matrix(1,0,0,0.943438,0,-161.10384)"
     gradientUnits="userSpaceOnUse"
     x1="48"
     x2="80"
     y1="259"
     y2="259">
    <stop
       offset="0"
       stop-color="#77767b"
       id="stop14"
       style="stop-color:#5e5c64;stop-opacity:1" />
    <stop
       offset="0.29836997"
       stop-color="#77767b"
       id="stop1416"
       style="stop-color:#9a9996;stop-opacity:1" />
    <stop
       offset="0.68123609"
       stop-color="#ffffff"
       id="stop16" />
    <stop
       offset="1"
       stop-color="#77767b"
       id="stop18"
       style="stop-color:#9a9996;stop-opacity:1" />
  </linearGradient>
  <linearGradient
     id="d"
     gradientTransform="matrix(0,5.9992595,-11.996196,0,-63.975909,38.006499)"
     gradientUnits="userSpaceOnUse"
     x1="24"
     x2="24"
     y1="184"
     y2="200">
    <stop
       offset="0"
       stop-color="#f6d32d"
       id="stop21" />
    <stop
       offset="1"
       stop-color="#f5c211"
       id="stop23" />
  </linearGradient>
  <path
     d="m 19.997464,16.012342 h 87.972106 c 4.41657,0 7.99746,3.581589 7.99746,7.999012 v 83.989636 c 0,4.41742 -3.58089,7.99901 -7.99746,7.99901 H 19.997464 C 15.580896,116 12,112.41841 12,108.00099 V 24.011354 c 0,-4.417423 3.580896,-7.999012 7.997464,-7.999012 z m 0,0"
     fill="#fff2b5"
     id="path26"
     style="fill:url(#linearGradient1599);fill-opacity:1;stroke-width:1" />
  <path
     d="m 19.997464,12.012835 h 87.972106 c 4.41657,0 7.99746,3.581589 7.99746,7.999013 v 83.989632 c 0,4.41743 -3.58089,7.99901 -7.99746,7.99901 H 19.997464 C 15.580896,112.00049 12,108.41891 12,104.00148 V 20.011848 c 0,-4.417424 3.580896,-7.999013 7.997464,-7.999013 z m 0,0"
     fill="url(#a)"
     id="path28"
     style="fill:#fff6ef;stroke-width:1;fill-opacity:1" />
  <g
     fill="#241f31"
     fill-opacity="0.501961"
     id="g42"
     style="stroke-width:1.00038;fill:#5e5e5e"
     transform="matrix(0.99968301,0,0,0.99987658,0.00380392,0.01431651)">
    <path
       d="m 40,48 c 0,2.210938 -1.789062,4 -4,4 -2.210938,0 -4,-1.789062 -4,-4 0,-2.210938 1.789062,-4 4,-4 2.210938,0 4,1.789062 4,4 z m 0,0"
       id="path30"
       style="stroke-width:1.00022;fill:#5e5e5e" />
    <path
       d="m 40,64 c 0,2.210938 -1.789062,4 -4,4 -2.210938,0 -4,-1.789062 -4,-4 0,-2.210938 1.789062,-4 4,-4 2.210938,0 4,1.789062 4,4 z m 0,0"
       id="path32"
       style="stroke-width:1.00022;fill:#5e5e5e" />
    <path
       d="m 40,80 c 0,2.210938 -1.789062,4 -4,4 -2.210938,0 -4,-1.789062 -4,-4 0,-2.210938 1.789062,-4 4,-4 2.210938,0 4,1.789062 4,4 z m 0,0"
       id="path34"
       style="stroke-width:1.00022;fill:#5e5e5e" />
    <path
       d="m 48,78 h 40 v 4 H 48 Z m 0,0"
       id="path36"
       style="stroke-width:1.00022;fill:#5e5e5e" />
    <path
       d="m 48,62 h 48 v 4 H 48 Z m 0,0"
       id="path38"
       style="stroke-width:1.00022;fill:#5e5e5e" />
    <path
       d="m 48,46 h 40 v 4 H 48 Z m 0,0"
       id="path40"
       style="stroke-width:1.00022;fill:#5e5e5e" />
  </g>
  <path
     d="M 90.974958,112.00049 115.96703,88.003456 c 0,0 -13.74564,0 -19.993657,0 -2.171187,0.925666 -4.096357,2.85121 -4.998415,5.050157 z m 0,0"
     fill="#fffefb"
     id="path50"
     style="stroke-width:1.00016;fill:#fee8af;fill-opacity:1" />
  <path
     d="m 115.96703,28.530328 c 0,0 0.0742,-3.108992 0,-9.518356 0,-3.999507 -3.99873,-6.999137 -7.99746,-6.999137 H 19.997464 c 0,0 -7.997464,-0.687415 -7.997464,7.999013 v 8.998889 c 35.988588,0 69.977811,-0.480409 103.96703,-0.480409 z m 0,0"
     fill="url(#d)"
     id="path52"
     style="fill:#fecb49;stroke-width:1;fill-opacity:0.98431373" />
  <path
     d="m 59.0625,69.500026 c 0,0 -0.191406,-2.425781 0.08984,-3.585938 0.773437,-3.191406 4.27734,-8.824218 4.27734,-8.824218 0.37891,-0.789063 0.625,-0.769532 0.98438,-0.04297 0,0 3.625,5.691406 4.42969,8.933594 0.28125,1.13672 0.0977,3.519532 0.0977,3.519532 z m 0,0"
     fill="url(#b)"
     id="path39"
     style="fill:url(#b-6)" />
  <path
     d="M 56,68.500026 C 50,78.12112 48,82.132838 48,93.359401 V 128.00003 H 80 V 93.359401 C 80,82.132838 78,78.12112 72,68.500026 Z m 0,0"
     fill="url(#c)"
     id="path45"
     style="fill:url(#c-3)" />
</svg>
