<svg width="128" height="128" viewBox="0 0 128 128" fill="none" xmlns="http://www.w3.org/2000/svg">
<rect x="12" y="12" width="104" height="104" rx="24" fill="#B99D56"/>
<rect x="12" y="12" width="104" height="104" rx="24" fill="url(#paint0_linear_619_2)"/>
<rect x="12" y="12" width="104" height="100" rx="24" fill="#D3B872"/>
<rect x="12" y="12" width="104" height="100" rx="24" fill="url(#paint1_linear_619_2)"/>
<g filter="url(#filter0_i_619_2)">
<rect x="12" y="12" width="104" height="96" rx="24" fill="#FFE195"/>
<rect x="12" y="12" width="104" height="96" rx="24" fill="url(#paint2_linear_619_2)"/>
</g>
<rect x="28" y="32" width="73" height="5" rx="2.5" fill="#2D2D2D" fill-opacity="0.25"/>
<rect x="28" y="49" width="57" height="5" rx="2.5" fill="#2D2D2D" fill-opacity="0.25"/>
<rect x="28" y="66" width="73" height="5" rx="2.5" fill="#2D2D2D" fill-opacity="0.25"/>
<rect x="28" y="83" width="39" height="5" rx="2.5" fill="#2D2D2D" fill-opacity="0.25"/>
<g filter="url(#filter1_f_619_2)">
<path d="M67.1334 76.747L101.133 12.4617C102.146 10.3798 112.146 15.8798 111.133 18.2108L77.1334 82.4961C75.1457 86.3798 69.1455 92.3798 65.6455 90.8798C62.3317 89.4595 64.6457 80.8798 67.1334 76.747Z" fill="#2D2D2D" fill-opacity="0.25"/>
</g>
<g filter="url(#filter2_ii_619_2)">
<path d="M67.1334 73.747L101.133 9.46167C102.146 7.37977 112.146 12.8798 111.133 15.2108L77.1334 79.4961C75.1457 83.3798 69.1455 89.3798 65.6455 87.8798C62.3317 86.4595 64.6457 77.8798 67.1334 73.747Z" fill="url(#paint3_linear_619_2)"/>
</g>
<defs>
<filter id="filter0_i_619_2" x="12" y="12" width="104" height="96" filterUnits="userSpaceOnUse" color-interpolation-filters="sRGB">
<feFlood flood-opacity="0" result="BackgroundImageFix"/>
<feBlend mode="normal" in="SourceGraphic" in2="BackgroundImageFix" result="shape"/>
<feColorMatrix in="SourceAlpha" type="matrix" values="0 0 0 0 0 0 0 0 0 0 0 0 0 0 0 0 0 0 127 0" result="hardAlpha"/>
<feOffset dy="-4"/>
<feComposite in2="hardAlpha" operator="arithmetic" k2="-1" k3="1"/>
<feColorMatrix type="matrix" values="0 0 0 0 0.176471 0 0 0 0 0.176471 0 0 0 0 0.176471 0 0 0 0.1 0"/>
<feBlend mode="normal" in2="shape" result="effect1_innerShadow_619_2"/>
</filter>
<filter id="filter1_f_619_2" x="60" y="8" width="55.2053" height="87.1155" filterUnits="userSpaceOnUse" color-interpolation-filters="sRGB">
<feFlood flood-opacity="0" result="BackgroundImageFix"/>
<feBlend mode="normal" in="SourceGraphic" in2="BackgroundImageFix" result="shape"/>
<feGaussianBlur stdDeviation="2" result="effect1_foregroundBlur_619_2"/>
</filter>
<filter id="filter2_ii_619_2" x="64" y="8" width="47.2053" height="81.1155" filterUnits="userSpaceOnUse" color-interpolation-filters="sRGB">
<feFlood flood-opacity="0" result="BackgroundImageFix"/>
<feBlend mode="normal" in="SourceGraphic" in2="BackgroundImageFix" result="shape"/>
<feColorMatrix in="SourceAlpha" type="matrix" values="0 0 0 0 0 0 0 0 0 0 0 0 0 0 0 0 0 0 127 0" result="hardAlpha"/>
<feOffset dy="-1"/>
<feGaussianBlur stdDeviation="2"/>
<feComposite in2="hardAlpha" operator="arithmetic" k2="-1" k3="1"/>
<feColorMatrix type="matrix" values="0 0 0 0 0.176471 0 0 0 0 0.176471 0 0 0 0 0.176471 0 0 0 0.25 0"/>
<feBlend mode="normal" in2="shape" result="effect1_innerShadow_619_2"/>
<feColorMatrix in="SourceAlpha" type="matrix" values="0 0 0 0 0 0 0 0 0 0 0 0 0 0 0 0 0 0 127 0" result="hardAlpha"/>
<feOffset dy="1"/>
<feGaussianBlur stdDeviation="2"/>
<feComposite in2="hardAlpha" operator="arithmetic" k2="-1" k3="1"/>
<feColorMatrix type="matrix" values="0 0 0 0 1 0 0 0 0 1 0 0 0 0 1 0 0 0 0.25 0"/>
<feBlend mode="normal" in2="effect1_innerShadow_619_2" result="effect2_innerShadow_619_2"/>
</filter>
<linearGradient id="paint0_linear_619_2" x1="64" y1="12" x2="64" y2="116" gradientUnits="userSpaceOnUse">
<stop stop-color="#2D2D2D" stop-opacity="0"/>
<stop offset="1" stop-color="#2D2D2D" stop-opacity="0.2"/>
</linearGradient>
<linearGradient id="paint1_linear_619_2" x1="64" y1="12" x2="64" y2="112" gradientUnits="userSpaceOnUse">
<stop stop-color="#2D2D2D" stop-opacity="0"/>
<stop offset="1" stop-color="#2D2D2D" stop-opacity="0.2"/>
</linearGradient>
<linearGradient id="paint2_linear_619_2" x1="64" y1="12" x2="64" y2="108" gradientUnits="userSpaceOnUse">
<stop stop-color="#2D2D2D" stop-opacity="0"/>
<stop offset="1" stop-color="#2D2D2D" stop-opacity="0.2"/>
</linearGradient>
<linearGradient id="paint3_linear_619_2" x1="81.6455" y1="46.3798" x2="91.6455" y2="51.3798" gradientUnits="userSpaceOnUse">
<stop stop-color="#F0F0F2"/>
<stop offset="1" stop-color="#F0F0F2"/>
</linearGradient>
</defs>
</svg>
