<svg xmlns="http://www.w3.org/2000/svg" xmlns:svg="http://www.w3.org/2000/svg" id="svg109" width="128" height="128" fill="none" version="1.1" viewBox="0 0 128 128"><rect id="rect28" width="72" height="72" x="28.5" y="28.5" stroke="#2D2D2D" stroke-opacity=".1" rx="36"/><rect id="rect30" width="36" height="36" x="46.5" y="46.5" stroke="#2D2D2D" stroke-opacity=".1" rx="18"/><g id="g36" filter="url(#filter1_i_318_24)" style="fill:#3584e4;stroke-width:.8125"><rect id="rect32" width="104" height="104" x="12" y="12" fill="#56BFA6" rx="19.5" ry="19.5" style="fill:#3584e4;stroke-width:.8125"/><rect id="rect34" width="104" height="104" x="12" y="12" fill="url(#paint1_linear_318_24)" rx="19.5" ry="19.5" style="fill:#3584e4;stroke-width:.8125"/></g><g id="g52" clip-path="url(#clip1_318_24)" transform="matrix(1.1426593,0,0,1.1428571,-9.1301899,-5.7142831)"><path id="path48" fill="#f0f0f2" d="m 64,73 c -18.2564,0 -27.625,12.8281 -27.625,12.8281 -0.1544,0.2133 -0.2651,0.4549 -0.3259,0.711 -0.0607,0.2561 -0.0703,0.5217 -0.0282,0.7815 0.0421,0.2599 0.135,0.5089 0.2736,0.7327 0.1385,0.2238 0.3198,0.4181 0.5336,0.5717 0.2132,0.1543 0.4548,0.2651 0.711,0.3258 0.2561,0.0608 0.5217,0.0704 0.7815,0.0283 0.2599,-0.0421 0.5088,-0.1351 0.7327,-0.2736 0.2238,-0.1385 0.4181,-0.3199 0.5717,-0.5336 0,0 7.9647,-11.1719 24.375,-11.1719 16.4102,0 24.375,11.1719 24.375,11.1719 0.1536,0.2137 0.3479,0.3951 0.5717,0.5336 0.2238,0.1385 0.4728,0.2315 0.7326,0.2736 0.2599,0.0421 0.5255,0.0325 0.7816,-0.0283 0.2561,-0.0607 0.4977,-0.1715 0.711,-0.3258 0.2137,-0.1536 0.3951,-0.3479 0.5336,-0.5717 0.1385,-0.2238 0.2315,-0.4728 0.2736,-0.7327 0.0421,-0.2598 0.0325,-0.5254 -0.0283,-0.7815 C 91.89,86.283 91.7793,86.0414 91.625,85.8281 91.625,85.8281 82.2564,73 64,73 Z"/><path id="path50" fill="#f0f0f2" d="m 64,33 c -8.8129,0 -16,7.1871 -16,16 0,8.8129 7.1871,16 16,16 8.8129,0 16,-7.1871 16,-16 0,-8.8129 -7.1871,-16 -16,-16 z m 0,4 c 6.6511,0 12,5.3489 12,12 0,6.6511 -5.3489,12 -12,12 -6.6511,0 -12,-5.3489 -12,-12 0,-6.6511 5.3489,-12 12,-12 z"/></g><defs id="defs107"><filter id="filter0_i_318_24" width="104" height="104" x="12" y="12" color-interpolation-filters="sRGB" filterUnits="userSpaceOnUse"><feFlood id="feFlood54" flood-opacity="0" result="BackgroundImageFix"/><feBlend id="feBlend56" in="SourceGraphic" in2="BackgroundImageFix" mode="normal" result="shape"/><feColorMatrix id="feColorMatrix58" in="SourceAlpha" result="hardAlpha" type="matrix" values="0 0 0 0 0 0 0 0 0 0 0 0 0 0 0 0 0 0 127 0"/><feOffset id="feOffset60" dy="-4"/><feComposite id="feComposite62" in2="hardAlpha" k2="-1" k3="1" operator="arithmetic"/><feColorMatrix id="feColorMatrix64" type="matrix" values="0 0 0 0 0 0 0 0 0 0 0 0 0 0 0 0 0 0 0.2 0"/><feBlend id="feBlend66" in2="shape" mode="normal" result="effect1_innerShadow_318_24"/></filter><filter id="filter1_i_318_24" width="104" height="104" x="12" y="12" color-interpolation-filters="sRGB" filterUnits="userSpaceOnUse"><feFlood id="feFlood69" flood-opacity="0" result="BackgroundImageFix"/><feBlend id="feBlend71" in="SourceGraphic" in2="BackgroundImageFix" mode="normal" result="shape"/><feColorMatrix id="feColorMatrix73" in="SourceAlpha" result="hardAlpha" type="matrix" values="0 0 0 0 0 0 0 0 0 0 0 0 0 0 0 0 0 0 127 0"/><feOffset id="feOffset75" dy="-4"/><feComposite id="feComposite77" in2="hardAlpha" k2="-1" k3="1" operator="arithmetic"/><feColorMatrix id="feColorMatrix79" type="matrix" values="0 0 0 0 0.176471 0 0 0 0 0.176471 0 0 0 0 0.176471 0 0 0 0.1 0"/><feBlend id="feBlend81" in2="shape" mode="normal" result="effect1_innerShadow_318_24"/></filter><filter id="filter2_f_318_24" width="80" height="80" x="24" y="21" color-interpolation-filters="sRGB" filterUnits="userSpaceOnUse"><feFlood id="feFlood84" flood-opacity="0" result="BackgroundImageFix"/><feBlend id="feBlend86" in="SourceGraphic" in2="BackgroundImageFix" mode="normal" result="shape"/><feGaussianBlur id="feGaussianBlur88" result="effect1_foregroundBlur_318_24" stdDeviation="4"/></filter><linearGradient id="paint0_linear_318_24" x1="64" x2="64" y1="12" y2="116" gradientUnits="userSpaceOnUse"><stop id="stop91" stop-color="#2D2D2D" stop-opacity="0"/><stop id="stop93" offset="1" stop-color="#2D2D2D" stop-opacity=".2"/></linearGradient><linearGradient id="paint1_linear_318_24" x1="64" x2="64" y1="12" y2="116" gradientUnits="userSpaceOnUse"><stop id="stop96" stop-color="#2D2D2D" stop-opacity="0"/><stop id="stop98" offset="1" stop-color="#2D2D2D" stop-opacity=".2"/></linearGradient><clipPath id="clip0_318_24"><rect id="rect101" width="64" height="64" fill="#fff" transform="translate(32 29)"/></clipPath><clipPath id="clip1_318_24"><rect id="rect104" width="64" height="64" fill="#fff" transform="translate(32 25)"/></clipPath></defs></svg>