<?xml version="1.0" encoding="UTF-8" standalone="no"?>
<svg
   height="128px"
   viewBox="0 0 128 128"
   width="128px"
   version="1.1"
   id="svg44"
   xmlns="http://www.w3.org/2000/svg"
   xmlns:svg="http://www.w3.org/2000/svg">
  <defs
     id="defs48" />
  <linearGradient
     id="a"
     gradientTransform="matrix(0.232143 0 0 0.328947 -8.56718 263.826874)"
     gradientUnits="userSpaceOnUse"
     x1="88.595886"
     x2="536.595886"
     y1="-449.394012"
     y2="-449.394012">
    <stop
       offset="0"
       stop-color="#deddda"
       id="stop2" />
    <stop
       offset="0.0454546"
       stop-color="#eeeeec"
       id="stop4" />
    <stop
       offset="0.0909091"
       stop-color="#deddda"
       id="stop6" />
    <stop
       offset="0.909091"
       stop-color="#deddda"
       id="stop8" />
    <stop
       offset="0.954545"
       stop-color="#eeeeec"
       id="stop10" />
    <stop
       offset="1"
       stop-color="#c0bfbc"
       id="stop12" />
  </linearGradient>
  <linearGradient
     id="b"
     gradientTransform="matrix(0 6 -12 0 -72 193.996872)"
     gradientUnits="userSpaceOnUse"
     x1="72.000351"
     x2="71.999878"
     y1="28.000193"
     y2="43.999687">
    <stop
       offset="0"
       stop-color="#e01b24"
       id="stop15" />
    <stop
       offset="1"
       stop-color="#c01c27"
       id="stop17" />
  </linearGradient>
  <path
     d="m 20 16 h 88 c 4.417969 0 8 3.582031 8 8 v 84 c 0 4.417969 -3.582031 8 -8 8 h -88 c -4.417969 0 -8 -3.582031 -8 -8 v -84 c 0 -4.417969 3.582031 -8 8 -8 z m 0 0"
     fill="url(#a)"
     id="path20" />
  <path
     d="m 20 12 h 88 c 4.417969 0 8 3.582031 8 8 v 84 c 0 4.417969 -3.582031 8 -8 8 h -88 c -4.417969 0 -8 -3.582031 -8 -8 v -84 c 0 -4.417969 3.582031 -8 8 -8 z m 0 0"
     fill="#f6f5f4"
     id="path22" />
  <path
     d="m 20 12 c -4.433594 0 -8 3.566406 -8 8 v 8.71875 h 104 v -8.71875 c 0 -4.433594 -3.566406 -8 -8 -8 z m 0 0"
     fill="url(#b)"
     id="path24" />
  <path
     d="m 54.785156 77.136719 c 7.292969 0 12.335938 -3.839844 12.335938 -9.601563 c 0 -4.894531 -3.746094 -8.304687 -9.410156 -8.449218 l -0.71875 0.578124 c 4.992187 -0.144531 8.398437 -3.503906 8.398437 -8.113281 c 0 -5.277343 -4.269531 -8.6875 -10.460937 -8.6875 c -3.457032 0 -7.296876 1.105469 -10.128907 2.738281 l 0.910157 2.972657 c 2.976562 -1.488281 6.097656 -2.253907 8.542968 -2.253907 c 4.273438 0 7.394532 2.207032 7.394532 5.617188 c 0 3.644531 -3.550782 6.09375 -8.449219 6.09375 h -2.589844 v 3.410156 h 3.453125 c 5.570312 0 9.074219 2.398438 9.074219 6.335938 c 0 3.742187 -3.265625 5.804687 -8.207031 5.804687 c -2.929688 0 -6.816407 -0.71875 -9.9375 -2.253906 l -0.863282 3.214844 c 3.214844 1.632812 7.152344 2.59375 10.65625 2.59375 z m 0 0"
     id="path26" />
  <path
     d="m 80.078125 76.847656 h 3.792969 v -33.550781 h -2.304688 l -11.855468 6.144531 l 1.441406 2.734375 l 10.175781 -4.847656 l -1.25 -1.199219 z m 0 0"
     id="path28" />
  <g
     fill="#77767b"
     id="g40">
    <path
       d="m 40.992188 98.957031 h 1.105468 v -8.089843 h -0.238281 l 3.386719 6.578124 h 0.910156 l 3.347656 -6.578124 h -0.167968 v 8.089843 h 1.105468 v -9.714843 h -1.148437 l -3.90625 7.644531 h 0.699219 l -3.90625 -7.644531 h -1.1875 z m 0 0"
       id="path30" />
    <path
       d="m 51.828125 98.957031 h 1.214844 l 3.179687 -8.902343 h -0.125 l 2.996094 8.902343 h 1.300781 l -3.414062 -9.714843 h -1.515625 z m 1.832031 -2.882812 h 4.859375 v -1.007813 h -4.859375 z m 0 0"
       id="path32" />
    <path
       d="m 61.78125 98.957031 h 1.160156 v -8.707031 h 1.917969 c 1.386719 0 2.199219 0.714844 2.199219 1.917969 c 0 1.191406 -0.726563 1.875 -2.058594 1.875 h -2.476562 v 0.980469 h 2.335937 c 2.015625 0 3.390625 -1.273438 3.390625 -3.066407 c 0 -1.707031 -1.261719 -2.714843 -3.25 -2.714843 h -3.21875 z m 5.640625 0 h 1.386719 l -2.6875 -4.589843 h -1.332032 z m 0 0"
       id="path34" />
    <path
       d="m 74.714844 99.097656 c 0.941406 0 1.917968 -0.210937 2.84375 -0.613281 l -0.265625 -0.855469 c -0.699219 0.28125 -1.566407 0.449219 -2.308594 0.449219 c -2.324219 0 -3.867187 -1.652344 -3.867187 -4.132813 c 0 -2.363281 1.414062 -3.808593 3.753906 -3.808593 c 0.785156 0 1.664062 0.167969 2.40625 0.449219 l 0.335937 -0.867188 c -0.710937 -0.378906 -1.71875 -0.601562 -2.671875 -0.601562 c -3.011718 0 -5.011718 2.042968 -5.011718 5.09375 c 0 2.925781 1.917968 4.886718 4.785156 4.886718 z m 0 0"
       id="path36" />
    <path
       d="m 79.492188 98.957031 h 1.160156 v -4.519531 h 5.195312 v 4.519531 h 1.160156 v -9.714843 h -1.160156 v 4.1875 h -5.195312 v -4.1875 h -1.160156 z m 0 0"
       id="path38" />
  </g>
  <path
     d="m 96.605469 112 l 19.394531 -19.6875 l -9.855469 -0.3125 s -10.707031 1.125 -10.121093 8.960938 c 0.585937 7.839843 0.582031 11.039062 0.582031 11.039062 z m 0 0"
     fill="#ffffff"
     id="path42" />
</svg>
