<svg xmlns="http://www.w3.org/2000/svg" xmlns:svg="http://www.w3.org/2000/svg" xmlns:xlink="http://www.w3.org/1999/xlink" id="svg45" width="128" height="128" fill="none" version="1.1" viewBox="0 0 128 128"><g id="g6" filter="url(#filter0_i_316_3)" style="stroke-width:.8125"><rect id="rect2" width="104" height="104" x="12" y="12" fill="#fffcfd" rx="19.5" ry="19.5" style="stroke-width:.732378"/><rect id="rect4" width="104" height="104" x="12" y="12" fill="url(#paint0_linear_316_3)" rx="19.5" ry="19.5" style="fill:url(#paint0_linear_316_3);stroke-width:.8125"/></g><path id="path10" fill="url(#paint1_linear_316_3)" d="M 12,33.17647 C 12,21.481058 22.745199,12 35.999999,12 H 91.999998 C 105.255,12 116,21.481058 116,33.17647 v 8.823529 H 12 Z" style="fill:url(#linearGradient913);fill-opacity:1;stroke-width:.761812"/><path id="path12" fill="#2D2D2D" fill-opacity=".8" d="M54.04 88.54C52.6 88.54 51.24 88.26 49.96 87.7C48.68 87.14 47.5667 86.3467 46.62 85.32C45.6867 84.2933 45.0133 83.08 44.6 81.68L49.26 80.42C49.5933 81.5667 50.2 82.4533 51.08 83.08C51.9733 83.6933 52.9533 83.9933 54.02 83.98C54.9667 83.98 55.8133 83.76 56.56 83.32C57.3067 82.88 57.8933 82.2867 58.32 81.54C58.7467 80.78 58.96 79.9333 58.96 79C58.96 77.5733 58.5 76.38 57.58 75.42C56.66 74.46 55.4733 73.98 54.02 73.98C53.58 73.98 53.1467 74.04 52.72 74.16C52.3067 74.28 51.9067 74.4467 51.52 74.66L49.32 70.86L59 62.58L59.42 63.74H45.72V59.2H63.38V63.76L55.6 71.24L55.56 69.82C57.3067 69.94 58.7933 70.4267 60.02 71.28C61.26 72.1333 62.2067 73.2333 62.86 74.58C63.5267 75.9267 63.86 77.4 63.86 79C63.86 80.8133 63.4133 82.44 62.52 83.88C61.64 85.32 60.4533 86.46 58.96 87.3C57.48 88.1267 55.84 88.54 54.04 88.54ZM74.0422 88V64.46L68.6422 67.76V62.44L74.0422 59.2H78.9622V88H74.0422Z"/><rect id="rect14" width="12" height="12" x="23" y="23" fill="#2D2D2D" fill-opacity=".4" rx="6"/><rect id="rect16" width="12" height="12" x="94" y="23" fill="#2D2D2D" fill-opacity=".4" rx="6"/><defs id="defs43"><linearGradient id="linearGradient911"><stop style="stop-color:#3584e4;stop-opacity:1" id="stop907" offset="0"/><stop style="stop-color:#1a5fb4;stop-opacity:1" id="stop909" offset="1"/></linearGradient><filter id="filter0_i_316_3" width="104" height="104" x="12" y="12" color-interpolation-filters="sRGB" filterUnits="userSpaceOnUse"><feFlood id="feFlood18" flood-opacity="0" result="BackgroundImageFix"/><feBlend id="feBlend20" in="SourceGraphic" in2="BackgroundImageFix" mode="normal" result="shape"/><feColorMatrix id="feColorMatrix22" in="SourceAlpha" result="hardAlpha" type="matrix" values="0 0 0 0 0 0 0 0 0 0 0 0 0 0 0 0 0 0 127 0"/><feOffset id="feOffset24" dy="-4"/><feComposite id="feComposite26" in2="hardAlpha" k2="-1" k3="1" operator="arithmetic"/><feColorMatrix id="feColorMatrix28" type="matrix" values="0 0 0 0 0.176471 0 0 0 0 0.176471 0 0 0 0 0.176471 0 0 0 0.1 0"/><feBlend id="feBlend30" in2="shape" mode="normal" result="effect1_innerShadow_316_3"/></filter><linearGradient id="paint0_linear_316_3" x1="64" x2="64" y1="12" y2="116" gradientTransform="matrix(0.8125,0,0,0.8125,12,12)" gradientUnits="userSpaceOnUse"><stop id="stop33" stop-color="#2D2D2D" stop-opacity="0"/><stop id="stop35" offset="1" stop-color="#2D2D2D" stop-opacity=".2"/></linearGradient><linearGradient id="paint1_linear_316_3" x1="64" x2="64" y1="12" y2="46" gradientUnits="userSpaceOnUse"><stop id="stop38" stop-color="#2D2D2D" stop-opacity="0"/><stop id="stop40" offset="1" stop-color="#2D2D2D" stop-opacity=".2"/></linearGradient><linearGradient id="linearGradient913" x1="64" x2="64" y1="12" y2="46" gradientTransform="matrix(0.8125,0,0,0.71428571,12,12)" gradientUnits="userSpaceOnUse" xlink:href="#linearGradient911"/></defs></svg>