<?xml version="1.0" encoding="UTF-8" standalone="no"?>
<svg
   width="128"
   height="128"
   viewBox="0 0 128 128"
   fill="none"
   version="1.1"
   id="svg109"
   sodipodi:docname="office-address-book.svg"
   inkscape:version="1.3.2 (091e20ef0f, 2023-11-25)"
   xmlns:inkscape="http://www.inkscape.org/namespaces/inkscape"
   xmlns:sodipodi="http://sodipodi.sourceforge.net/DTD/sodipodi-0.dtd"
   xmlns="http://www.w3.org/2000/svg"
   xmlns:svg="http://www.w3.org/2000/svg">
  <sodipodi:namedview
     id="namedview111"
     pagecolor="#ffffff"
     bordercolor="#000000"
     borderopacity="0.25"
     inkscape:showpageshadow="2"
     inkscape:pageopacity="0.0"
     inkscape:pagecheckerboard="0"
     inkscape:deskcolor="#d1d1d1"
     showgrid="false"
     inkscape:zoom="6.109375"
     inkscape:cx="64.081841"
     inkscape:cy="64"
     inkscape:window-width="2560"
     inkscape:window-height="984"
     inkscape:window-x="0"
     inkscape:window-y="0"
     inkscape:window-maximized="1"
     inkscape:current-layer="svg109" />
  <rect
     x="28.5"
     y="28.5"
     width="72"
     height="72"
     rx="36"
     stroke="#2D2D2D"
     stroke-opacity="0.1"
     id="rect28" />
  <rect
     x="46.5"
     y="46.5"
     width="36"
     height="36"
     rx="18"
     stroke="#2D2D2D"
     stroke-opacity="0.1"
     id="rect30" />
  <g
     filter="url(#filter1_i_318_24)"
     id="g36"
     style="fill:#3584e4;stroke-width:0.8125"
     transform="matrix(1.2307692,0,0,1.2307692,-14.769231,-14.769231)">
    <rect
       x="12"
       y="12"
       width="104"
       height="104"
       rx="19.5"
       fill="#56BFA6"
       id="rect32"
       style="fill:#3584e4;stroke-width:0.8125"
       ry="19.5" />
    <rect
       x="12"
       y="12"
       width="104"
       height="104"
       rx="19.5"
       fill="url(#paint1_linear_318_24)"
       id="rect34"
       style="fill:#3584e4;stroke-width:0.8125"
       ry="19.5" />
  </g>
  <g
     clip-path="url(#clip1_318_24)"
     id="g52">
    <path
       d="M64 73C45.7436 73 36.375 85.8281 36.375 85.8281C36.2206 86.0414 36.1099 86.283 36.0491 86.5391C35.9884 86.7952 35.9788 87.0608 36.0209 87.3206C36.063 87.5805 36.1559 87.8295 36.2945 88.0533C36.433 88.2771 36.6143 88.4714 36.8281 88.625C37.0413 88.7793 37.2829 88.8901 37.5391 88.9508C37.7952 89.0116 38.0608 89.0212 38.3206 88.9791C38.5805 88.937 38.8294 88.844 39.0533 88.7055C39.2771 88.567 39.4714 88.3856 39.625 88.1719C39.625 88.1719 47.5897 77 64 77C80.4102 77 88.375 88.1719 88.375 88.1719C88.5286 88.3856 88.7229 88.567 88.9467 88.7055C89.1705 88.844 89.4195 88.937 89.6793 88.9791C89.9392 89.0212 90.2048 89.0116 90.4609 88.9508C90.717 88.8901 90.9586 88.7793 91.1719 88.625C91.3856 88.4714 91.567 88.2771 91.7055 88.0533C91.844 87.8295 91.937 87.5805 91.9791 87.3206C92.0212 87.0608 92.0116 86.7952 91.9508 86.5391C91.89 86.283 91.7793 86.0414 91.625 85.8281C91.625 85.8281 82.2564 73 64 73Z"
       fill="#F0F0F2"
       id="path48" />
    <path
       d="M64 33C55.1871 33 48 40.1871 48 49C48 57.8129 55.1871 65 64 65C72.8129 65 80 57.8129 80 49C80 40.1871 72.8129 33 64 33ZM64 37C70.6511 37 76 42.3489 76 49C76 55.6511 70.6511 61 64 61C57.3489 61 52 55.6511 52 49C52 42.3489 57.3489 37 64 37Z"
       fill="#F0F0F2"
       id="path50" />
  </g>
  <defs
     id="defs107">
    <filter
       id="filter0_i_318_24"
       x="12"
       y="12"
       width="104"
       height="104"
       filterUnits="userSpaceOnUse"
       color-interpolation-filters="sRGB">
      <feFlood
         flood-opacity="0"
         result="BackgroundImageFix"
         id="feFlood54" />
      <feBlend
         mode="normal"
         in="SourceGraphic"
         in2="BackgroundImageFix"
         result="shape"
         id="feBlend56" />
      <feColorMatrix
         in="SourceAlpha"
         type="matrix"
         values="0 0 0 0 0 0 0 0 0 0 0 0 0 0 0 0 0 0 127 0"
         result="hardAlpha"
         id="feColorMatrix58" />
      <feOffset
         dy="-4"
         id="feOffset60" />
      <feComposite
         in2="hardAlpha"
         operator="arithmetic"
         k2="-1"
         k3="1"
         id="feComposite62" />
      <feColorMatrix
         type="matrix"
         values="0 0 0 0 0 0 0 0 0 0 0 0 0 0 0 0 0 0 0.2 0"
         id="feColorMatrix64" />
      <feBlend
         mode="normal"
         in2="shape"
         result="effect1_innerShadow_318_24"
         id="feBlend66" />
    </filter>
    <filter
       id="filter1_i_318_24"
       x="12"
       y="12"
       width="104"
       height="104"
       filterUnits="userSpaceOnUse"
       color-interpolation-filters="sRGB">
      <feFlood
         flood-opacity="0"
         result="BackgroundImageFix"
         id="feFlood69" />
      <feBlend
         mode="normal"
         in="SourceGraphic"
         in2="BackgroundImageFix"
         result="shape"
         id="feBlend71" />
      <feColorMatrix
         in="SourceAlpha"
         type="matrix"
         values="0 0 0 0 0 0 0 0 0 0 0 0 0 0 0 0 0 0 127 0"
         result="hardAlpha"
         id="feColorMatrix73" />
      <feOffset
         dy="-4"
         id="feOffset75" />
      <feComposite
         in2="hardAlpha"
         operator="arithmetic"
         k2="-1"
         k3="1"
         id="feComposite77" />
      <feColorMatrix
         type="matrix"
         values="0 0 0 0 0.176471 0 0 0 0 0.176471 0 0 0 0 0.176471 0 0 0 0.1 0"
         id="feColorMatrix79" />
      <feBlend
         mode="normal"
         in2="shape"
         result="effect1_innerShadow_318_24"
         id="feBlend81" />
    </filter>
    <filter
       id="filter2_f_318_24"
       x="24"
       y="21"
       width="80"
       height="80"
       filterUnits="userSpaceOnUse"
       color-interpolation-filters="sRGB">
      <feFlood
         flood-opacity="0"
         result="BackgroundImageFix"
         id="feFlood84" />
      <feBlend
         mode="normal"
         in="SourceGraphic"
         in2="BackgroundImageFix"
         result="shape"
         id="feBlend86" />
      <feGaussianBlur
         stdDeviation="4"
         result="effect1_foregroundBlur_318_24"
         id="feGaussianBlur88" />
    </filter>
    <linearGradient
       id="paint0_linear_318_24"
       x1="64"
       y1="12"
       x2="64"
       y2="116"
       gradientUnits="userSpaceOnUse">
      <stop
         stop-color="#2D2D2D"
         stop-opacity="0"
         id="stop91" />
      <stop
         offset="1"
         stop-color="#2D2D2D"
         stop-opacity="0.2"
         id="stop93" />
    </linearGradient>
    <linearGradient
       id="paint1_linear_318_24"
       x1="64"
       y1="12"
       x2="64"
       y2="116"
       gradientUnits="userSpaceOnUse">
      <stop
         stop-color="#2D2D2D"
         stop-opacity="0"
         id="stop96" />
      <stop
         offset="1"
         stop-color="#2D2D2D"
         stop-opacity="0.2"
         id="stop98" />
    </linearGradient>
    <clipPath
       id="clip0_318_24">
      <rect
         width="64"
         height="64"
         fill="white"
         transform="translate(32 29)"
         id="rect101" />
    </clipPath>
    <clipPath
       id="clip1_318_24">
      <rect
         width="64"
         height="64"
         fill="white"
         transform="translate(32 25)"
         id="rect104" />
    </clipPath>
  </defs>
</svg>
