<?xml version="1.0" encoding="UTF-8" standalone="no"?>
<svg
   width="128"
   height="128"
   viewBox="0 0 128 128"
   fill="none"
   version="1.1"
   id="svg45"
   sodipodi:docname="office-calendar.svg"
   inkscape:version="1.2.1 (9c6d41e410, 2022-07-14)"
   xmlns:inkscape="http://www.inkscape.org/namespaces/inkscape"
   xmlns:sodipodi="http://sodipodi.sourceforge.net/DTD/sodipodi-0.dtd"
   xmlns:xlink="http://www.w3.org/1999/xlink"
   xmlns="http://www.w3.org/2000/svg"
   xmlns:svg="http://www.w3.org/2000/svg">
  <sodipodi:namedview
     id="namedview47"
     pagecolor="#ffffff"
     bordercolor="#000000"
     borderopacity="0.25"
     inkscape:showpageshadow="2"
     inkscape:pageopacity="0.0"
     inkscape:pagecheckerboard="0"
     inkscape:deskcolor="#d1d1d1"
     showgrid="false"
     inkscape:zoom="6.109375"
     inkscape:cx="64.081841"
     inkscape:cy="64"
     inkscape:window-width="2560"
     inkscape:window-height="911"
     inkscape:window-x="0"
     inkscape:window-y="0"
     inkscape:window-maximized="1"
     inkscape:current-layer="svg45" />
  <g
     filter="url(#filter0_i_316_3)"
     id="g6">
    <rect
       x="12"
       y="12"
       width="104"
       height="104"
       rx="24"
       fill="#FFFCFD"
       id="rect2" />
    <rect
       x="12"
       y="12"
       width="104"
       height="104"
       rx="24"
       fill="url(#paint0_linear_316_3)"
       id="rect4" />
  </g>
  <path
     d="M12 36C12 22.7452 22.7452 12 36 12H92C105.255 12 116 22.7452 116 36V46H12V36Z"
     fill="#DB2860"
     id="path8" />
  <path
     d="M12 36C12 22.7452 22.7452 12 36 12H92C105.255 12 116 22.7452 116 36V46H12V36Z"
     fill="url(#paint1_linear_316_3)"
     id="path10"
     style="fill:url(#linearGradient913);fill-opacity:1" />
  <path
     d="M54.04 88.54C52.6 88.54 51.24 88.26 49.96 87.7C48.68 87.14 47.5667 86.3467 46.62 85.32C45.6867 84.2933 45.0133 83.08 44.6 81.68L49.26 80.42C49.5933 81.5667 50.2 82.4533 51.08 83.08C51.9733 83.6933 52.9533 83.9933 54.02 83.98C54.9667 83.98 55.8133 83.76 56.56 83.32C57.3067 82.88 57.8933 82.2867 58.32 81.54C58.7467 80.78 58.96 79.9333 58.96 79C58.96 77.5733 58.5 76.38 57.58 75.42C56.66 74.46 55.4733 73.98 54.02 73.98C53.58 73.98 53.1467 74.04 52.72 74.16C52.3067 74.28 51.9067 74.4467 51.52 74.66L49.32 70.86L59 62.58L59.42 63.74H45.72V59.2H63.38V63.76L55.6 71.24L55.56 69.82C57.3067 69.94 58.7933 70.4267 60.02 71.28C61.26 72.1333 62.2067 73.2333 62.86 74.58C63.5267 75.9267 63.86 77.4 63.86 79C63.86 80.8133 63.4133 82.44 62.52 83.88C61.64 85.32 60.4533 86.46 58.96 87.3C57.48 88.1267 55.84 88.54 54.04 88.54ZM74.0422 88V64.46L68.6422 67.76V62.44L74.0422 59.2H78.9622V88H74.0422Z"
     fill="#2D2D2D"
     fill-opacity="0.8"
     id="path12" />
  <rect
     x="23"
     y="23"
     width="12"
     height="12"
     rx="6"
     fill="#2D2D2D"
     fill-opacity="0.4"
     id="rect14" />
  <rect
     x="94"
     y="23"
     width="12"
     height="12"
     rx="6"
     fill="#2D2D2D"
     fill-opacity="0.4"
     id="rect16" />
  <defs
     id="defs43">
    <linearGradient
       inkscape:collect="always"
       id="linearGradient911">
      <stop
         style="stop-color:#3584e4;stop-opacity:1;"
         offset="0"
         id="stop907" />
      <stop
         style="stop-color:#1a5fb4;stop-opacity:1"
         offset="1"
         id="stop909" />
    </linearGradient>
    <filter
       id="filter0_i_316_3"
       x="12"
       y="12"
       width="104"
       height="104"
       filterUnits="userSpaceOnUse"
       color-interpolation-filters="sRGB">
      <feFlood
         flood-opacity="0"
         result="BackgroundImageFix"
         id="feFlood18" />
      <feBlend
         mode="normal"
         in="SourceGraphic"
         in2="BackgroundImageFix"
         result="shape"
         id="feBlend20" />
      <feColorMatrix
         in="SourceAlpha"
         type="matrix"
         values="0 0 0 0 0 0 0 0 0 0 0 0 0 0 0 0 0 0 127 0"
         result="hardAlpha"
         id="feColorMatrix22" />
      <feOffset
         dy="-4"
         id="feOffset24" />
      <feComposite
         in2="hardAlpha"
         operator="arithmetic"
         k2="-1"
         k3="1"
         id="feComposite26" />
      <feColorMatrix
         type="matrix"
         values="0 0 0 0 0.176471 0 0 0 0 0.176471 0 0 0 0 0.176471 0 0 0 0.1 0"
         id="feColorMatrix28" />
      <feBlend
         mode="normal"
         in2="shape"
         result="effect1_innerShadow_316_3"
         id="feBlend30" />
    </filter>
    <linearGradient
       id="paint0_linear_316_3"
       x1="64"
       y1="12"
       x2="64"
       y2="116"
       gradientUnits="userSpaceOnUse">
      <stop
         stop-color="#2D2D2D"
         stop-opacity="0"
         id="stop33" />
      <stop
         offset="1"
         stop-color="#2D2D2D"
         stop-opacity="0.2"
         id="stop35" />
    </linearGradient>
    <linearGradient
       id="paint1_linear_316_3"
       x1="64"
       y1="12"
       x2="64"
       y2="46"
       gradientUnits="userSpaceOnUse">
      <stop
         stop-color="#2D2D2D"
         stop-opacity="0"
         id="stop38" />
      <stop
         offset="1"
         stop-color="#2D2D2D"
         stop-opacity="0.2"
         id="stop40" />
    </linearGradient>
    <linearGradient
       inkscape:collect="always"
       xlink:href="#linearGradient911"
       id="linearGradient913"
       x1="64"
       y1="12"
       x2="64"
       y2="46"
       gradientUnits="userSpaceOnUse" />
  </defs>
</svg>
