<?xml version="1.0" encoding="UTF-8" standalone="no"?>
<svg
   height="128"
   version="1.1"
   width="128"
   id="svg8"
   xmlns:xlink="http://www.w3.org/1999/xlink"
   xmlns="http://www.w3.org/2000/svg"
   xmlns:svg="http://www.w3.org/2000/svg">
  <defs
     id="defs12">
    <linearGradient
       id="linearGradient6322">
      <stop
         style="stop-color:#2ec27e;stop-opacity:1"
         offset="0"
         id="stop6298" />
      <stop
         style="stop-color:#57e389;stop-opacity:1"
         offset="0.05187093"
         id="stop6300" />
      <stop
         style="stop-color:#2ec27e;stop-opacity:1"
         offset="0.1115374"
         id="stop6302" />
      <stop
         style="stop-color:#2ec27e;stop-opacity:1"
         offset="0.89886886"
         id="stop6316" />
      <stop
         style="stop-color:#57e389;stop-opacity:1"
         offset="0.95107478"
         id="stop6318" />
      <stop
         style="stop-color:#2ec27e;stop-opacity:1"
         offset="1"
         id="stop6320" />
    </linearGradient>
    <linearGradient
       id="linearGradient907">
      <stop
         style="stop-color:#c01c28;stop-opacity:1"
         offset="0"
         id="stop903" />
      <stop
         style="stop-color:#f66151;stop-opacity:1"
         offset="0.05187093"
         id="stop1231" />
      <stop
         style="stop-color:#c01c28;stop-opacity:1"
         offset="0.1115374"
         id="stop1233" />
      <stop
         style="stop-color:#c01c28;stop-opacity:1;"
         offset="0.2565735"
         id="stop2202" />
      <stop
         style="stop-color:#f66151;stop-opacity:1"
         offset="0.3151561"
         id="stop2268" />
      <stop
         style="stop-color:#c01c28;stop-opacity:1;"
         offset="0.37896189"
         id="stop2334" />
      <stop
         style="stop-color:#c01c28;stop-opacity:1;"
         offset="0.56564575"
         id="stop2400" />
      <stop
         style="stop-color:#f66151;stop-opacity:1"
         offset="0.63314641"
         id="stop2468" />
      <stop
         style="stop-color:#c01c28;stop-opacity:1;"
         offset="0.70318437"
         id="stop2402" />
      <stop
         style="stop-color:#c01c28;stop-opacity:1"
         offset="0.89886886"
         id="stop1429" />
      <stop
         style="stop-color:#f66151;stop-opacity:1"
         offset="0.95107478"
         id="stop1363" />
      <stop
         style="stop-color:#c01c28;stop-opacity:1"
         offset="1"
         id="stop905" />
    </linearGradient>
    <linearGradient
       xlink:href="#linearGradient907"
       id="linearGradient909"
       x1="5.0311999"
       y1="12"
       x2="19.031"
       y2="12"
       gradientUnits="userSpaceOnUse"
       gradientTransform="matrix(3.4286204,0,0,3.0769233,48.749925,9.8461527)" />
    <linearGradient
       xlink:href="#linearGradient6322"
       id="linearGradient6232"
       x1="12"
       y1="63"
       x2="116"
       y2="63"
       gradientUnits="userSpaceOnUse" />
  </defs>
  <path
     id="rect893"
     style="fill:url(#linearGradient6232);stroke-width:2;stroke-linecap:round;stroke-linejoin:round;stop-color:#000000"
     d="m 18,11 h 92 c 3.324,0 6,3.568 6,8 v 88 c 0,4.432 -2.676,8 -6,8 H 18 c -3.324,0 -6,-3.568 -6,-8 V 19 c 0,-4.432 2.676,-8 6,-8 z" />
  <path
     id="rect893-3"
     style="fill:#33d17a;stroke-width:2;stroke-linecap:round;stroke-linejoin:round;stop-color:#000000"
     d="m 18,11 h 92 c 3.324,0 6,3.122 6,7 v 86 c 0,3.878 -2.676,7 -6,7 H 18 c -3.324,0 -6,-3.122 -6,-7 V 18 c 0,-3.878 2.676,-7 6,-7 z" />
  <circle
     style="fill:#2ec27e;fill-opacity:1;stroke:none;stroke-width:8;stroke-linecap:round;stroke-linejoin:round;stroke-miterlimit:4;stroke-dasharray:none;stroke-opacity:0.2;stop-color:#000000"
     id="path9126"
     cx="50"
     cy="72"
     r="32" />
  <path
     style="color:#000000;fill:#deddda;stroke:#26a269;stroke-opacity:0.2;-inkscape-stroke:none"
     d="m 12.5,75 v 10 h 103 V 75 Z"
     id="path3915" />
  <path
     d="M 89.999657,16 C 76.745638,16 66,25.538462 66,37.538463 c 0,4 1.377277,8 3.750225,11.384616 0.114515,0.307693 0.202288,0.307693 0.321605,0.615385 l 14.891184,24.615383 c 0.699437,1.846154 2.681181,3.384616 4.930356,3.384616 2.249175,0 4.121201,-1.538462 4.820639,-3.384616 L 111.32225,47.384617 C 113.03313,44.307694 114,40.923078 114,37.538463 114,25.538462 103.2547,16 89.999657,16 Z M 89.89337,28 c 6.627522,0 12.00017,4.923077 12.00017,10.769232 0,6.153847 -5.372648,10.769232 -12.00017,10.769232 -6.627523,0 -12.000172,-4.615385 -12.000172,-10.769232 C 77.893198,32.923077 83.265847,28 89.89337,28 Z"
     fill="#c0392b"
     id="path2"
     style="fill:url(#linearGradient909);fill-opacity:1;stroke-width:1" />
  <path
     d="M 89.999657,12 C 76.745638,12 66,21.643175 66,33.538681 c 0,4.255428 1.377277,8.199468 3.750225,11.537963 0.114515,0.163079 0.202288,0.323081 0.321605,0.483082 l 14.891184,24.806403 c 0.699437,1.803102 2.681181,3.172345 4.930356,3.172345 2.249175,0 4.121201,-1.369243 4.820639,-3.172351 L 111.32225,43.442782 C 113.03313,40.479675 114,37.104256 114,33.538681 114,21.643175 103.2547,12 89.999657,12 Z M 89.89337,24.211818 c 6.627522,0 12.00017,4.821586 12.00017,10.769339 0,5.947753 -5.372648,10.769341 -12.00017,10.769341 -6.627523,0 -12.000172,-4.821588 -12.000172,-10.769341 0,-5.947753 5.372649,-10.769339 12.000172,-10.769339 z"
     fill="#e74c3c"
     id="path4"
     style="fill:#ed333b;stroke-width:0.999998" />
  <path
     style="color:#000000;fill:#deddda;stroke:#26a269;stroke-opacity:0.2;-inkscape-stroke:none"
     d="m 12.5,90 v 10 h 103 V 90 Z"
     id="path3917" />
  <path
     id="path3911"
     style="color:#000000;fill:#deddda;stroke:#26a269;stroke-opacity:0.2;-inkscape-stroke:none"
     d="m 35,11.5 v 99 H 45 V 68.523437 c 0.874905,-0.244264 0.825919,-0.71374 1.789062,-1.195312 C 50.243116,65.601099 55.253131,61.328266 55,55 V 30 h -5 v 25 c 0,3.011397 -3.843887,4.168225 -5,4.86914 V 11.5 Z" />
</svg>
