<svg xmlns="http://www.w3.org/2000/svg" xmlns:svg="http://www.w3.org/2000/svg" id="svg13" width="128" height="128" fill="none" version="1.1" viewBox="0 0 128 128"><g id="g4" clip-path="url(#clip0_723_23)"><g id="g1" filter="url(#filter0_ii_723_23)"><rect id="rect1" width="128" height="128" fill="url(#paint0_linear_723_23)" rx="24"/></g><g style="mix-blend-mode:soft-light" id="g2" filter="url(#filter1_d_723_23)"><path id="path1" fill="#FAFAFA" fill-rule="evenodd" d="M44 32C37.3726 32 32 37.3726 32 44V84C32 90.6274 37.3726 96 44 96H84C90.6274 96 96 90.6274 96 84V44C96 37.3726 90.6274 32 84 32H44ZM64 72C68.4183 72 72 68.4183 72 64C72 59.5817 68.4183 56 64 56C59.5817 56 56 59.5817 56 64C56 68.4183 59.5817 72 64 72Z" clip-rule="evenodd"/></g><g id="g3" filter="url(#filter2_d_723_23)"><path id="path2" fill="#FAFAFA" fill-rule="evenodd" d="M27.519 55.7647C22.8327 60.451 22.8327 68.049 27.519 72.7353L55.7645 100.981C60.4508 105.667 68.0487 105.667 72.735 100.981L100.981 72.7353C105.667 68.049 105.667 60.451 100.981 55.7647L72.735 27.519C68.0487 22.8327 60.4508 22.8327 55.7645 27.519L27.519 55.7647ZM63.9952 72.2432C68.4097 72.2432 71.9884 68.6645 71.9884 64.25C71.9884 59.8355 68.4097 56.2569 63.9952 56.2569C59.5807 56.2569 56.0021 59.8355 56.0021 64.25C56.0021 68.6645 59.5807 72.2432 63.9952 72.2432Z" clip-rule="evenodd"/></g></g><defs id="defs13"><filter id="filter0_ii_723_23" width="128" height="129" x="0" y="0" color-interpolation-filters="sRGB" filterUnits="userSpaceOnUse"><feFlood id="feFlood4" flood-opacity="0" result="BackgroundImageFix"/><feBlend id="feBlend4" in="SourceGraphic" in2="BackgroundImageFix" mode="normal" result="shape"/><feColorMatrix id="feColorMatrix4" in="SourceAlpha" result="hardAlpha" type="matrix" values="0 0 0 0 0 0 0 0 0 0 0 0 0 0 0 0 0 0 127 0"/><feOffset id="feOffset4" dy="-4"/><feComposite id="feComposite4" in2="hardAlpha" k2="-1" k3="1" operator="arithmetic"/><feColorMatrix id="feColorMatrix5" type="matrix" values="0 0 0 0 0 0 0 0 0 0 0 0 0 0 0 0 0 0 0.25 0"/><feBlend id="feBlend5" in2="shape" mode="normal" result="effect1_innerShadow_723_23"/><feColorMatrix id="feColorMatrix6" in="SourceAlpha" result="hardAlpha" type="matrix" values="0 0 0 0 0 0 0 0 0 0 0 0 0 0 0 0 0 0 127 0"/><feMorphology id="feMorphology6" in="SourceAlpha" operator="erode" radius="1" result="effect2_innerShadow_723_23"/><feOffset id="feOffset6" dy="2"/><feComposite id="feComposite6" in2="hardAlpha" k2="-1" k3="1" operator="arithmetic"/><feColorMatrix id="feColorMatrix7" type="matrix" values="0 0 0 0 1 0 0 0 0 1 0 0 0 0 1 0 0 0 0.25 0"/><feBlend id="feBlend7" in2="effect1_innerShadow_723_23" mode="normal" result="effect2_innerShadow_723_23"/></filter><filter id="filter1_d_723_23" width="70" height="70" x="31" y="31" color-interpolation-filters="sRGB" filterUnits="userSpaceOnUse"><feFlood id="feFlood7" flood-opacity="0" result="BackgroundImageFix"/><feColorMatrix id="feColorMatrix8" in="SourceAlpha" result="hardAlpha" type="matrix" values="0 0 0 0 0 0 0 0 0 0 0 0 0 0 0 0 0 0 127 0"/><feOffset id="feOffset8" dx="2" dy="2"/><feGaussianBlur id="feGaussianBlur8" stdDeviation="1.5"/><feComposite id="feComposite8" in2="hardAlpha" operator="out"/><feColorMatrix id="feColorMatrix9" type="matrix" values="0 0 0 0 0 0 0 0 0 0 0 0 0 0 0 0 0 0 0.14 0"/><feBlend id="feBlend9" in2="BackgroundImageFix" mode="normal" result="effect1_dropShadow_723_23"/><feBlend id="feBlend10" in="SourceGraphic" in2="effect1_dropShadow_723_23" mode="normal" result="shape"/></filter><filter id="filter2_d_723_23" width="86.491" height="86.492" x="23.004" y="23.004" color-interpolation-filters="sRGB" filterUnits="userSpaceOnUse"><feFlood id="feFlood10" flood-opacity="0" result="BackgroundImageFix"/><feColorMatrix id="feColorMatrix10" in="SourceAlpha" result="hardAlpha" type="matrix" values="0 0 0 0 0 0 0 0 0 0 0 0 0 0 0 0 0 0 127 0"/><feOffset id="feOffset10" dx="2" dy="2"/><feGaussianBlur id="feGaussianBlur10" stdDeviation="1.5"/><feComposite id="feComposite10" in2="hardAlpha" operator="out"/><feColorMatrix id="feColorMatrix11" type="matrix" values="0 0 0 0 0 0 0 0 0 0 0 0 0 0 0 0 0 0 0.14 0"/><feBlend id="feBlend11" in2="BackgroundImageFix" mode="normal" result="effect1_dropShadow_723_23"/><feBlend id="feBlend12" in="SourceGraphic" in2="effect1_dropShadow_723_23" mode="normal" result="shape"/></filter><linearGradient id="paint0_linear_723_23" x1="31" x2="106" y1="0" y2="128" gradientUnits="userSpaceOnUse"><stop id="stop12" offset="0" stop-color="#828292" style="stop-color:#597abb;stop-opacity:1"/><stop id="stop13" offset="1" stop-color="#535353" style="stop-color:#314875;stop-opacity:1"/></linearGradient><clipPath id="clip0_723_23"><rect id="rect13" width="128" height="128" fill="#fff" rx="24"/></clipPath></defs></svg>