<svg width="128" height="128" viewBox="0 0 128 128" fill="none" xmlns="http://www.w3.org/2000/svg">
<g filter="url(#filter0_i_612_76)">
<rect x="12" y="12" width="104" height="104" rx="24" fill="#EEF6FF"/>
<rect x="12" y="12" width="104" height="104" rx="24" fill="url(#paint0_linear_612_76)"/>
</g>
<rect x="40" y="29" width="10" height="66" rx="5" fill="#268EF9"/>
<rect x="78" y="29" width="10" height="66" rx="5" fill="#268EF9"/>
<rect x="40" y="29" width="48" height="8" rx="4" fill="#268EF9"/>
<g filter="url(#filter1_bi_612_76)">
<path d="M24.5253 51.4845C24.2423 47.9912 27.001 45 30.5057 45H97.4943C100.999 45 103.758 47.9912 103.475 51.4845L100.396 89.4845C100.144 92.6001 97.5416 95 94.4158 95H33.5842C30.4584 95 27.8562 92.6001 27.6038 89.4845L24.5253 51.4845Z" fill="#268EF9" fill-opacity="0.8"/>
<path d="M24.5253 51.4845C24.2423 47.9912 27.001 45 30.5057 45H97.4943C100.999 45 103.758 47.9912 103.475 51.4845L100.396 89.4845C100.144 92.6001 97.5416 95 94.4158 95H33.5842C30.4584 95 27.8562 92.6001 27.6038 89.4845L24.5253 51.4845Z" fill="url(#paint1_linear_612_76)" fill-opacity="0.8"/>
</g>
<defs>
<filter id="filter0_i_612_76" x="12" y="12" width="104" height="104" filterUnits="userSpaceOnUse" color-interpolation-filters="sRGB">
<feFlood flood-opacity="0" result="BackgroundImageFix"/>
<feBlend mode="normal" in="SourceGraphic" in2="BackgroundImageFix" result="shape"/>
<feColorMatrix in="SourceAlpha" type="matrix" values="0 0 0 0 0 0 0 0 0 0 0 0 0 0 0 0 0 0 127 0" result="hardAlpha"/>
<feOffset dy="-4"/>
<feComposite in2="hardAlpha" operator="arithmetic" k2="-1" k3="1"/>
<feColorMatrix type="matrix" values="0 0 0 0 0 0 0 0 0 0 0 0 0 0 0 0 0 0 0.1 0"/>
<feBlend mode="normal" in2="shape" result="effect1_innerShadow_612_76"/>
</filter>
<filter id="filter1_bi_612_76" x="18.5054" y="39" width="90.9893" height="62" filterUnits="userSpaceOnUse" color-interpolation-filters="sRGB">
<feFlood flood-opacity="0" result="BackgroundImageFix"/>
<feGaussianBlur in="BackgroundImageFix" stdDeviation="3"/>
<feComposite in2="SourceAlpha" operator="in" result="effect1_backgroundBlur_612_76"/>
<feBlend mode="normal" in="SourceGraphic" in2="effect1_backgroundBlur_612_76" result="shape"/>
<feColorMatrix in="SourceAlpha" type="matrix" values="0 0 0 0 0 0 0 0 0 0 0 0 0 0 0 0 0 0 127 0" result="hardAlpha"/>
<feOffset dy="-4"/>
<feComposite in2="hardAlpha" operator="arithmetic" k2="-1" k3="1"/>
<feColorMatrix type="matrix" values="0 0 0 0 0.176471 0 0 0 0 0.176471 0 0 0 0 0.176471 0 0 0 0.05 0"/>
<feBlend mode="normal" in2="shape" result="effect2_innerShadow_612_76"/>
</filter>
<linearGradient id="paint0_linear_612_76" x1="64" y1="12" x2="64" y2="116" gradientUnits="userSpaceOnUse">
<stop stop-color="#2D2D2D" stop-opacity="0"/>
<stop offset="1" stop-color="#2D2D2D" stop-opacity="0.2"/>
</linearGradient>
<linearGradient id="paint1_linear_612_76" x1="75.3174" y1="45" x2="75.3174" y2="95" gradientUnits="userSpaceOnUse">
<stop stop-color="#2D2D2D" stop-opacity="0"/>
<stop offset="1" stop-color="#2D2D2D" stop-opacity="0.2"/>
</linearGradient>
</defs>
</svg>
