<?xml version="1.0" encoding="UTF-8" standalone="no"?>
<svg
   height="128px"
   viewBox="0 0 128 128"
   width="128px"
   version="1.1"
   id="svg29"
   sodipodi:docname="org.gnome.Nautilus.svg"
   inkscape:export-filename="/var/home/lains/Downloads/org.gnome.Nautilus.png"
   inkscape:export-xdpi="96"
   inkscape:export-ydpi="96"
   inkscape:version="1.1.2 (0a00cf5339, 2022-02-04)"
   xmlns:inkscape="http://www.inkscape.org/namespaces/inkscape"
   xmlns:sodipodi="http://sodipodi.sourceforge.net/DTD/sodipodi-0.dtd"
   xmlns="http://www.w3.org/2000/svg"
   xmlns:svg="http://www.w3.org/2000/svg">
  <defs
     id="defs33" />
  <sodipodi:namedview
     id="namedview31"
     pagecolor="#ffffff"
     bordercolor="#666666"
     borderopacity="1.0"
     inkscape:pageshadow="2"
     inkscape:pageopacity="0.0"
     inkscape:pagecheckerboard="0"
     showgrid="true"
     inkscape:zoom="1"
     inkscape:cx="50.5"
     inkscape:cy="86"
     inkscape:window-width="2560"
     inkscape:window-height="919"
     inkscape:window-x="0"
     inkscape:window-y="0"
     inkscape:window-maximized="1"
     inkscape:current-layer="g2999"
     inkscape:snap-global="false">
    <inkscape:grid
       type="xygrid"
       id="grid1081" />
  </sodipodi:namedview>
  <linearGradient
     id="a"
     gradientUnits="userSpaceOnUse"
     x1="8.0000315"
     x2="120.0000315"
     y1="119.999977"
     y2="119.999977">
    <stop
       offset="0"
       stop-color="#1a5fb4"
       id="stop2" />
    <stop
       offset="0.0357143"
       stop-color="#1c71d8"
       id="stop4" />
    <stop
       offset="0.0713653"
       stop-color="#1a5fb4"
       id="stop6" />
    <stop
       offset="0.928571"
       stop-color="#1a5fb4"
       id="stop8" />
    <stop
       offset="0.964286"
       stop-color="#1c71d8"
       id="stop10" />
    <stop
       offset="1"
       stop-color="#1a5fb4"
       id="stop12" />
  </linearGradient>
  <g
     id="g2999"
     transform="matrix(0.99980047,0,0,0.99999467,1.0245418,6.3936607e-4)"
     style="stroke-width:1.0001">
    <path
       id="path17-6"
       style="fill:#1c71d8;stroke-width:1.0001"
       d="m 16.309021,18.999461 c -2.27804,0 -4.55584,2.414092 -4.55584,9.490528 l 0.04698,12.796731 c -0.02853,0.396471 -0.04698,0.795417 -0.04698,1.193147 l 0.09398,11.175507 0.09202,24.876963 c 1.150019,10.315324 1.911835,19.861598 3.220505,29.968443 1.410331,7.78777 2.14667,11.53668 6.20246,11.53668 h 83.056464 c 4.05577,0 7.48573,-2.79261 8.19191,-18.736 l 1.38769,-58.821593 c 0.0133,-6.951424 -5.57653,-14.153821 -10.22372,-14.153821 H 61.869378 c -0.03775,-6.823199 -2.748682,-9.326585 -5.008096,-9.326585 z"
       sodipodi:nodetypes="sccccccssccscss" />
    <path
       d="m 27.277174,32.569003 69.717637,-0.04999 c 4.250859,0 8.501699,4.319098 8.501699,8.638196 l -1.69848,46.676355 c -0.44418,12.206866 -2.33245,22.125666 -5.20736,22.125666 H 26.555403 c -2.874903,0 -4.980127,-9.91263 -5.207371,-22.125666 l -0.86849,-46.676353 c 0,-4.319098 2.546783,-8.588208 6.797632,-8.588208 z"
       fill="#ffffff"
       id="path21-3-7"
       style="fill:#deddda;stroke-width:1.0001"
       sodipodi:nodetypes="cccsssscc" />
    <path
       d="m 27.277174,35.569018 69.717637,-0.04999 c 4.250859,0 8.501699,4.319098 8.501699,8.638196 l -1.69848,46.676355 c -0.44418,12.206881 -2.33245,22.125681 -5.20736,22.125681 H 26.555403 c -2.874903,0 -4.980127,-9.91263 -5.207371,-22.125681 l -0.86849,-46.676353 c 0,-4.319098 2.546783,-8.588208 6.797632,-8.588208 z"
       fill="#ffffff"
       id="path21-3"
       style="fill:#f6f5f4;stroke-width:1.0001"
       sodipodi:nodetypes="cccsssscc" />
    <path
       d="M 15.303177,42.999792 H 110.0795 c 4.1025,0 7.42877,3.112963 7.42877,6.952397 l -5.54218,59.095411 c -0.35897,3.82766 -3.32626,6.95238 -7.42878,6.95238 H 22.702368 c -4.102517,0 -6.950864,-3.13538 -7.428781,-6.95238 L 7.8743963,49.952189 C 7.53019,46.126292 11.200782,42.970485 15.303177,42.999792 Z"
       fill="#3584e4"
       id="path25"
       sodipodi:nodetypes="cccsssscc"
       style="fill:#62a0ea;fill-opacity:1;stroke-width:1.0002" />
  </g>
</svg>
