<?xml version="1.0" encoding="UTF-8" standalone="no"?>
<svg
   height="128px"
   viewBox="0 0 128 128"
   width="128px"
   version="1.1"
   id="svg62"
   xmlns:xlink="http://www.w3.org/1999/xlink"
   xmlns="http://www.w3.org/2000/svg"
   xmlns:svg="http://www.w3.org/2000/svg">
  <defs
     id="defs66">
    <linearGradient
       id="linearGradient948">
      <stop
         style="stop-color:#58a8fa;stop-opacity:1;"
         offset="0"
         id="stop944" />
      <stop
         style="stop-color:#58a8fa;stop-opacity:0;"
         offset="1"
         id="stop946" />
    </linearGradient>
    <linearGradient
       xlink:href="#linearGradient948"
       id="linearGradient950"
       x1="52.691406"
       y1="32"
       x2="53.028202"
       y2="88.404724"
       gradientUnits="userSpaceOnUse" />
    <linearGradient
       xlink:href="#linearGradient948"
       id="linearGradient952"
       x1="87.115852"
       y1="42.732468"
       x2="87.570885"
       y2="88.104424"
       gradientUnits="userSpaceOnUse" />
  </defs>
  <linearGradient
     id="a"
     gradientUnits="userSpaceOnUse"
     x1="107.99974"
     x2="115.99974"
     y1="78.999893"
     y2="78.999893">
    <stop
       offset="0"
       stop-color="#e8e7e4"
       id="stop2" />
    <stop
       offset="0.511049"
       stop-color="#ffffff"
       id="stop4" />
    <stop
       offset="1"
       stop-color="#c2bfba"
       id="stop6" />
  </linearGradient>
  <linearGradient
     id="b"
     gradientUnits="userSpaceOnUse"
     x1="64"
     x2="64"
     y1="106"
     y2="16">
    <stop
       offset="0"
       stop-color="#c0bfbc"
       id="stop9"
       style="stop-color:#c2c2c2;stop-opacity:1" />
    <stop
       offset="1"
       stop-color="#99c1f1"
       id="stop11"
       style="stop-color:#8ac2fb;stop-opacity:1" />
  </linearGradient>
  <filter
     id="c"
     height="1"
     width="1"
     x="0"
     y="0">
    <feColorMatrix
       in="SourceGraphic"
       type="matrix"
       values="0 0 0 0 1 0 0 0 0 1 0 0 0 0 1 0 0 0 1 0"
       id="feColorMatrix14" />
  </filter>
  <mask
     id="d">
    <g
       filter="url(#c)"
       id="g19">
      <rect
         fill-opacity="0.15"
         height="128"
         width="128"
         id="rect17" />
    </g>
  </mask>
  <clipPath
     id="e">
    <rect
       height="152"
       width="192"
       id="rect22" />
  </clipPath>
  <linearGradient
     id="f"
     gradientUnits="userSpaceOnUse"
     x1="78"
     x2="104"
     y1="242"
     y2="276"
     gradientTransform="translate(0,-172)">
    <stop
       offset="0"
       stop-color="#ffffff"
       stop-opacity="0.4"
       id="stop25" />
    <stop
       offset="0.466503"
       stop-color="#fffffe"
       stop-opacity="0"
       id="stop27" />
    <stop
       offset="1"
       stop-color="#f9f9f7"
       stop-opacity="0.2"
       id="stop29" />
  </linearGradient>
  <path
     d="m 12 32 v 84 h 96 c 4.433594 0 8 -3.566406 8 -8 v -68 c 0 -4.433594 -3.566406 -8 -8 -8 z m 0 0"
     fill="#9a9996"
     id="path32"
     style="fill:#b0b0b0" />
  <path
     d="m 14 44 v 70 h 94 c 4.433594 0 8 -3.566406 8 -8 v -54 c 0 -4.433594 -3.566406 -8 -8 -8 z m 0 0"
     fill="url(#a)"
     id="path34"
     style="fill:#f0f0f2" />
  <path
     d="m 12 14 v 94 h 96 c 4.433594 0 8 -3.566406 8 -8 v -78 c 0 -4.433594 -3.566406 -8 -8 -8 z m 0 0"
     fill="#9a9996"
     id="path36" />
  <path
     d="m 12 12 v 94 h 96 c 4.433594 0 8 -3.566406 8 -8 v -78 c 0 -4.433594 -3.566406 -8 -8 -8 z m 0 0"
     fill="url(#b)"
     id="path38" />
  <path
     d="m 12 12 h 8 v 94 h -8 z m 0 0"
     fill="#3d3846"
     id="path40"
     style="fill:#474747" />
  <path
     d="m 12 106 v 10 h 8 v -2 h -6 v -6 h 6 v -2 z m 0 0"
     fill="#241f31"
     id="path42"
     style="fill:#333333" />
  <g
     clip-path="url(#e)"
     mask="url(#d)"
     transform="matrix(1 0 0 1 -8 -16)"
     id="g46"
     style="fill:#a5a5a5">
    <path
       d="m 15 278 v -94"
       fill="none"
       stroke="#ffffff"
       stroke-width="2"
       transform="matrix(1 0 0 1 8 -156)"
       id="path44"
       style="fill:#a5a5a5" />
  </g>
  <path
     d="m 50 36.664062 l -6.410156 17.417969 h 12.84375 z m -2.667969 -4.664062 h 5.359375 l 13.308594 35 h -4.914062 l -3.179688 -8.980469 h -15.742188 l -3.179687 8.980469 h -4.984375 z m 0 0"
     fill="#62a0ea"
     id="path48"
     style="fill:url(#linearGradient950);fill-opacity:1" />
  <path
     d="m 50 39.664062 l -6.410156 17.417969 h 12.84375 z m -2.667969 -4.664062 h 5.359375 l 13.308594 35 h -4.914062 l -3.179688 -8.980469 h -15.742188 l -3.179687 8.980469 h -4.984375 z m 0 0"
     fill="#ffffff"
     id="path50"
     style="fill:#f0f0f2" />
  <path
     d="m 76 60.757812 c 0 -2.433593 1.097656 -4.542968 3.292969 -6.332031 c 2.195312 -1.824219 5.0625 -2.734375 8.601562 -2.734375 c 1.472657 0 3.179688 0.179688 5.109375 0.535156 v -1.234374 c 0 -1.75 -1.523437 -2.628907 -4.570312 -2.628907 c -1.34375 0 -2.867188 0.214844 -4.570313 0.644531 c -1.703125 0.394532 -2.734375 0.589844 -3.097656 0.589844 c -0.6875 0 -1.257813 -0.25 -1.71875 -0.75 c -0.457031 -0.535156 -0.6875 -1.199218 -0.6875 -1.984375 c 0 -1.144531 0.492187 -1.894531 1.472656 -2.253906 c 2.785157 -1.074219 5.605469 -1.609375 8.457031 -1.609375 c 3.011719 0 5.371094 0.699219 7.074219 2.09375 c 1.738281 1.394531 2.605469 3.34375 2.605469 5.847656 v 10.835938 h 0.789062 c 2.160157 0 3.242188 0.894531 3.242188 2.683594 c 0 1.785156 -1.082031 2.679687 -3.242188 2.679687 h -5.753906 v -1.234375 c -2.457031 1.394531 -5.175781 2.09375 -8.15625 2.09375 c -2.425781 0 -4.507812 -0.699219 -6.242187 -2.09375 c -1.738281 -1.429688 -2.605469 -3.144531 -2.605469 -5.148438 z m 17.054688 -0.859374 v -2.683594 c -2.0625 -0.390625 -3.882813 -0.589844 -5.457032 -0.589844 c -1.667968 0 -3.160156 0.394531 -4.472656 1.183594 c -1.277344 0.785156 -1.914062 1.695312 -1.914062 2.734375 c 0 0.609375 0.359374 1.109375 1.082031 1.503906 c 0.71875 0.390625 1.605469 0.589844 2.652343 0.589844 c 2.6875 0 5.390626 -0.914063 8.109376 -2.738281 z m 0 0"
     fill="#62a0ea"
     id="path52"
     style="fill:url(#linearGradient952);fill-opacity:1" />
  <path
     d="m 76 62.757812 c 0 -2.433593 1.097656 -4.542968 3.292969 -6.332031 c 2.195312 -1.824219 5.0625 -2.734375 8.601562 -2.734375 c 1.472657 0 3.179688 0.179688 5.109375 0.535156 v -1.234374 c 0 -1.75 -1.523437 -2.628907 -4.570312 -2.628907 c -1.34375 0 -2.867188 0.214844 -4.570313 0.644531 c -1.703125 0.394532 -2.734375 0.589844 -3.097656 0.589844 c -0.6875 0 -1.257813 -0.25 -1.71875 -0.75 c -0.457031 -0.535156 -0.6875 -1.199218 -0.6875 -1.984375 c 0 -1.144531 0.492187 -1.894531 1.472656 -2.253906 c 2.785157 -1.074219 5.605469 -1.609375 8.457031 -1.609375 c 3.011719 0 5.371094 0.699219 7.074219 2.09375 c 1.738281 1.394531 2.605469 3.34375 2.605469 5.847656 v 10.835938 h 0.789062 c 2.160157 0 3.242188 0.894531 3.242188 2.683594 c 0 1.785156 -1.082031 2.679687 -3.242188 2.679687 h -5.753906 v -1.234375 c -2.457031 1.394531 -5.175781 2.09375 -8.15625 2.09375 c -2.425781 0 -4.507812 -0.699219 -6.242187 -2.09375 c -1.738281 -1.429688 -2.605469 -3.144531 -2.605469 -5.148438 z m 17.054688 -0.859374 v -2.683594 c -2.0625 -0.390625 -3.882813 -0.589844 -5.457032 -0.589844 c -1.667968 0 -3.160156 0.394531 -4.472656 1.183594 c -1.277344 0.785156 -1.914062 1.695312 -1.914062 2.734375 c 0 0.609375 0.359374 1.109375 1.082031 1.503906 c 0.71875 0.390625 1.605469 0.589844 2.652343 0.589844 c 2.6875 0 5.390626 -0.914063 8.109376 -2.738281 z m 0 0"
     fill="#ffffff"
     id="path54"
     style="fill:#f0f0f2" />
  <path
     d="m 115,91 c 0,13.25391 -10.74609,24 -24,24 -13.253906,0 -24,-10.74609 -24,-24 0,-13.253906 10.746094,-24 24,-24 13.25391,0 24,10.746094 24,24 z m 0,0"
     fill="none"
     stroke="#9a9996"
     id="path56"
     style="stroke-width:10;stroke-linecap:round;fill:#d0d0d0;stroke:#a5a5a5" />
  <path
     d="m 115,84 c 0,13.25391 -10.74609,24 -24,24 C 77.746094,108 67,97.25391 67,84 67,70.74609 77.746094,60 91,60 c 13.25391,0 24,10.74609 24,24 z m 0,0"
     fill="url(#f)"
     stroke="#deddda"
     id="path58"
     style="fill:url(#f);stroke-width:10;stroke-linecap:round;stroke:#e5e5e5" />
</svg>
