<?xml version="1.0" encoding="UTF-8" standalone="no"?>
<svg
   height="128px"
   viewBox="0 0 128 128"
   width="128px"
   version="1.1"
   id="svg29"
   sodipodi:docname="org.gnome.Nautilus.svg"
   inkscape:export-filename="/var/home/lains/Downloads/org.gnome.Nautilus.png"
   inkscape:export-xdpi="96"
   inkscape:export-ydpi="96"
   inkscape:version="1.1.2 (0a00cf5339, 2022-02-04)"
   xmlns:inkscape="http://www.inkscape.org/namespaces/inkscape"
   xmlns:sodipodi="http://sodipodi.sourceforge.net/DTD/sodipodi-0.dtd"
   xmlns="http://www.w3.org/2000/svg"
   xmlns:svg="http://www.w3.org/2000/svg">
  <defs
     id="defs33" />
  <sodipodi:namedview
     id="namedview31"
     pagecolor="#ffffff"
     bordercolor="#666666"
     borderopacity="1.0"
     inkscape:pageshadow="2"
     inkscape:pageopacity="0.0"
     inkscape:pagecheckerboard="0"
     showgrid="true"
     inkscape:zoom="11.390625"
     inkscape:cx="68.521262"
     inkscape:cy="36.784636"
     inkscape:window-width="2560"
     inkscape:window-height="919"
     inkscape:window-x="0"
     inkscape:window-y="0"
     inkscape:window-maximized="1"
     inkscape:current-layer="g2999"
     inkscape:snap-global="true"
     showguides="true"
     inkscape:guide-bbox="true">
    <inkscape:grid
       type="xygrid"
       id="grid1081" />
    <sodipodi:guide
       position="31,19"
       orientation="0,-1"
       id="guide1958" />
    <sodipodi:guide
       position="19,11"
       orientation="0,-1"
       id="guide2188" />
  </sodipodi:namedview>
  <linearGradient
     id="a"
     gradientUnits="userSpaceOnUse"
     x1="8.0000315"
     x2="120.0000315"
     y1="119.999977"
     y2="119.999977">
    <stop
       offset="0"
       stop-color="#1a5fb4"
       id="stop2" />
    <stop
       offset="0.0357143"
       stop-color="#1c71d8"
       id="stop4" />
    <stop
       offset="0.0713653"
       stop-color="#1a5fb4"
       id="stop6" />
    <stop
       offset="0.928571"
       stop-color="#1a5fb4"
       id="stop8" />
    <stop
       offset="0.964286"
       stop-color="#1c71d8"
       id="stop10" />
    <stop
       offset="1"
       stop-color="#1a5fb4"
       id="stop12" />
  </linearGradient>
  <g
     id="g2999"
     transform="matrix(0.99980047,0,0,0.99999467,1.0245418,6.3936607e-4)"
     style="stroke-width:1.0001">
    <path
       id="path17-6"
       style="fill:#1c71d8;stroke-width:1.0001"
       d="m 18.979245,18.999462 c -2.27804,0 -7.001397,2.000011 -7.001397,9.000048 v 13.000069 2.000011 11.000058 23.000123 c 2.000399,10.000053 1.0002,13.000069 3.000599,32.000169 C 15.978646,116.99998 16.923854,120 20.979644,120 h 83.016566 c 4.05577,0 7.0014,-3.00002 8.0016,-11.00006 l 2.0004,-66.520073 c -1e-5,-11.480341 -1e-5,-14.480357 -10.002,-14.480357 H 61.987827 c -0.03775,-6.823199 -4.741983,-9.000048 -7.001397,-9.000048 z"
       sodipodi:nodetypes="cccccccsscccccc" />
    <path
       d="m 27.777276,32.049237 69.717637,-0.04971 c 4.250857,0 8.501697,4.294568 8.501697,8.589137 l -1.69848,46.411264 c -0.44418,12.13754 -2.33245,22.000012 -5.207358,22.000012 H 27.055505 c -2.874903,0 -4.980127,-9.856337 -5.207371,-22.000012 L 20.979644,40.58867 c 0,-4.294569 2.546783,-8.539433 6.797632,-8.539433 z"
       fill="#ffffff"
       id="path21-3-7"
       style="fill:#deddda;stroke-width:1.0001"
       sodipodi:nodetypes="cccsssscc" />
    <path
       d="m 27.777276,36.049259 69.717637,-0.04971 c 4.250857,0 8.501697,4.294567 8.501697,8.589135 l -1.69848,46.411254 c -0.44418,12.137562 -2.33245,22.000022 -5.207358,22.000022 H 27.055505 c -2.874903,0 -4.980127,-9.85633 -5.207371,-22.000022 L 20.979644,44.58869 c 0,-4.294568 2.546783,-8.539431 6.797632,-8.539431 z"
       fill="#ffffff"
       id="path21-3"
       style="fill:#f6f5f4;stroke-width:1.0001"
       sodipodi:nodetypes="cccsssscc" />
    <path
       d="m 15.001925,42.999792 h 95.997285 c 4.10156,0 6.99979,3.160401 6.99979,6.999835 l -6.03153,59.047973 c -0.39066,3.82455 -3.86648,6.95238 -7.96807,6.95238 H 23.001698 c -4.101583,0 -7.551972,-3.18223 -8.023251,-7.00004 L 8.0021234,49.952189 C 7.6579955,46.126292 10.900465,42.970485 15.001925,42.999792 Z"
       fill="#3584e4"
       id="path25"
       sodipodi:nodetypes="ccccccccc"
       style="fill:#62a0ea;fill-opacity:1;stroke-width:1.0002" />
  </g>
</svg>
