<?xml version="1.0" encoding="UTF-8" standalone="no"?>
<svg
   height="128px"
   viewBox="0 0 128 128"
   width="128px"
   version="1.1"
   id="svg60"
   xmlns="http://www.w3.org/2000/svg"
   xmlns:svg="http://www.w3.org/2000/svg">
  <defs
     id="defs64" />
  <linearGradient
     id="a"
     gradientUnits="userSpaceOnUse"
     x1="7.9998815"
     x2="119.9998815"
     y1="116.000069"
     y2="116.000069">
    <stop
       offset="0"
       stop-color="#deddda"
       id="stop2" />
    <stop
       offset="0.0454546"
       stop-color="#eeeeec"
       id="stop4" />
    <stop
       offset="0.0909091"
       stop-color="#deddda"
       id="stop6" />
    <stop
       offset="0.909091"
       stop-color="#deddda"
       id="stop8" />
    <stop
       offset="0.954545"
       stop-color="#eeeeec"
       id="stop10" />
    <stop
       offset="1"
       stop-color="#c0bfbc"
       id="stop12" />
  </linearGradient>
  <linearGradient
     id="b"
     gradientUnits="userSpaceOnUse"
     x1="64"
     x2="64.41436"
     y1="36"
     y2="104.000031">
    <stop
       offset="0"
       stop-color="#241f31"
       id="stop15" />
    <stop
       offset="0.493608"
       stop-color="#1a5fb4"
       id="stop17" />
    <stop
       offset="1"
       stop-color="#dc8add"
       id="stop19" />
  </linearGradient>
  <linearGradient
     id="c"
     gradientUnits="userSpaceOnUse"
     x1="65"
     x2="123"
     y1="265"
     y2="265">
    <stop
       offset="0"
       stop-color="#d5d3cf"
       id="stop22" />
    <stop
       offset="0.0384615"
       stop-color="#e3e2df"
       id="stop24" />
    <stop
       offset="0.0769231"
       stop-color="#c0bfbc"
       id="stop26" />
    <stop
       offset="0.923077"
       stop-color="#c0bfbc"
       id="stop28" />
    <stop
       offset="0.961538"
       stop-color="#e3e2df"
       id="stop30" />
    <stop
       offset="1"
       stop-color="#d5d3cf"
       id="stop32" />
  </linearGradient>
  <radialGradient
     id="d"
     cx="94"
     cy="258"
     gradientUnits="userSpaceOnUse"
     r="29">
    <stop
       offset="0"
       stop-color="#f4f4f2"
       stop-opacity="0.2"
       id="stop35" />
    <stop
       offset="0.465689"
       stop-color="#f7f7f5"
       stop-opacity="0.501961"
       id="stop37" />
    <stop
       offset="1"
       stop-color="#ffffff"
       stop-opacity="0.2"
       id="stop39" />
  </radialGradient>
  <path
     d="m 16 40 h 96 c 4.417969 0 8 3.582031 8 8 v 60 c 0 4.417969 -3.582031 8 -8 8 h -96 c -4.417969 0 -8 -3.582031 -8 -8 v -60 c 0 -4.417969 3.582031 -8 8 -8 z m 0 0"
     fill="url(#a)"
     id="path42" />
  <path
     d="m 16 28 h 96 c 4.417969 0 8 3.582031 8 8 v 68 c 0 4.417969 -3.582031 8 -8 8 h -96 c -4.417969 0 -8 -3.582031 -8 -8 v -68 c 0 -4.417969 3.582031 -8 8 -8 z m 0 0"
     fill="#f6f5f4"
     id="path44" />
  <path
     d="m 16 36 h 96 v 68 h -96 z m 0 0"
     fill="url(#b)"
     id="path46" />
  <g
     stroke-linecap="round"
     id="g58">
    <path
       d="m 18 103 l 22 -22 l 22 22 z m 0 0"
       fill="#3584e4"
       stroke="#3584e4"
       stroke-width="2"
       id="path48" />
    <path
       d="m 29 103 l 40 -32 l 40 32 z m 0 0"
       fill="#62a0ea"
       stroke="#62a0ea"
       stroke-width="2"
       id="path50" />
    <path
       d="m 56 56 c 0 4.417969 -3.582031 8 -8 8 s -8 -3.582031 -8 -8 s 3.582031 -8 8 -8 s 8 3.582031 8 8 z m 0 0"
       fill="#f9f06b"
       stroke="#ffbe6f"
       stroke-width="2"
       id="path52" />
    <path
       d="m 118 265 c 0 13.253906 -10.746094 24 -24 24 s -24 -10.746094 -24 -24 s 10.746094 -24 24 -24 s 24 10.746094 24 24 z m 0 0"
       fill="none"
       stroke="url(#c)"
       stroke-width="10"
       transform="matrix(1 0 0 1 0 -172)"
       id="path54" />
    <path
       d="m 118 258 c 0 13.253906 -10.746094 24 -24 24 s -24 -10.746094 -24 -24 s 10.746094 -24 24 -24 s 24 10.746094 24 24 z m 0 0"
       fill="url(#d)"
       stroke="#deddda"
       stroke-width="10"
       transform="matrix(1 0 0 1 0 -172)"
       id="path56" />
  </g>
</svg>
