<?xml version="1.0" encoding="UTF-8" standalone="no"?>
<svg
   height="128"
   version="1.1"
   width="128"
   id="svg8"
   xmlns:xlink="http://www.w3.org/1999/xlink"
   xmlns="http://www.w3.org/2000/svg"
   xmlns:svg="http://www.w3.org/2000/svg">
  <defs
     id="defs12">
    <linearGradient
       id="linearGradient907">
      <stop
         style="stop-color:#a87801;stop-opacity:1"
         offset="0"
         id="stop903" />
      <stop
         style="stop-color:#e0a101;stop-opacity:1"
         offset="0.06134108"
         id="stop1231" />
      <stop
         style="stop-color:#a87801;stop-opacity:1"
         offset="0.12698457"
         id="stop1233" />
      <stop
         style="stop-color:#a87801;stop-opacity:1"
         offset="0.25827155"
         id="stop2202" />
      <stop
         style="stop-color:#e0a101;stop-opacity:1"
         offset="0.32391503"
         id="stop2268" />
      <stop
         style="stop-color:#a87801;stop-opacity:1"
         offset="0.38955855"
         id="stop2334" />
      <stop
         style="stop-color:#a87801;stop-opacity:1"
         offset="0.58648902"
         id="stop2400" />
      <stop
         style="stop-color:#e0a101;stop-opacity:1"
         offset="0.65213251"
         id="stop2468" />
      <stop
         style="stop-color:#a87801;stop-opacity:1"
         offset="0.717776"
         id="stop2402" />
      <stop
         style="stop-color:#a87801;stop-opacity:1"
         offset="0.84906298"
         id="stop1429" />
      <stop
         style="stop-color:#e0a101;stop-opacity:1"
         offset="0.91470647"
         id="stop1363" />
      <stop
         style="stop-color:#a87801;stop-opacity:1"
         offset="1"
         id="stop905" />
    </linearGradient>
    <linearGradient
       xlink:href="#linearGradient907"
       id="linearGradient909"
       x1="4.9709668"
       y1="11.691747"
       x2="18.755903"
       y2="11.691747"
       gradientUnits="userSpaceOnUse"
       gradientTransform="matrix(5.3572195,0,0,4.8826601,-1.9532429,8.5814834)" />
  </defs>
  <path
     d="M 62.499466,18.346804 C 41.79006,18.346804 25,33.48305 25,52.525424 c 0,6.347458 2.151995,12.694915 5.859727,18.065842 0.17893,0.488267 0.316075,0.488267 0.502508,0.976532 l 23.267476,39.061282 c 1.09287,2.92959 4.189341,5.37092 7.703683,5.37092 3.514333,0 6.439371,-2.44133 7.532247,-5.37092 L 95.816018,68.149936 C 98.48927,63.267276 100,57.896349 100,52.525424 100,33.48305 83.210468,18.346804 62.499466,18.346804 Z m -0.166072,19.042373 c 10.355501,0 18.750264,7.812255 18.750264,17.089311 0,9.76532 -8.394763,17.08931 -18.750264,17.08931 -10.355507,0 -18.750271,-7.32399 -18.750271,-17.08931 0,-9.277056 8.394764,-17.089311 18.750271,-17.089311 z"
     fill="#c0392b"
     id="path2"
     style="fill:url(#linearGradient909);fill-opacity:1;stroke-width:1" />
  <path
     id="path4"
     style="fill:#fdd8be;fill-opacity:1;stroke-width:0.99999"
     d="M 79.76593,88.318841 26.54085,55.886995 c 1.001403,3.068144 2.46706,5.952982 4.319394,8.599664 0.17893,0.258783 0.315508,0.513682 0.501941,0.767584 l 23.268184,39.363527 c 1.092869,2.86128 4.18787,5.03518 7.702213,5.03519 3.514332,0 6.440099,-2.1739 7.532975,-5.03519 z" />
  <path
     id="path4062"
     style="fill:#fecb49;fill-opacity:1;stroke-width:0.99999"
     d="m 25.021562,47.269753 c 0.103254,2.988912 0.624803,5.87668 1.519288,8.617242 l 32.562764,19.841922 -10.794637,17.939567 3.93861,7.000046 13.204342,-21.072401 14.314001,8.722712 3.619367,-5.959023 -56.934835,-34.693577 a 3.4466281,3.5003721 0 0 0 -1.4289,-0.396488 z" />
  <path
     id="path4062-3"
     style="fill:#f0f0f2;fill-opacity:1;stroke-width:0.99999"
     d="M 76.863897,93.06848 31.569886,65.668307 c 0,0 6.754682,11.789329 8.861871,15.000095 l 32.493531,19.000119 z" />
  <path
     id="path4060"
     style="fill:#72da82;fill-opacity:1;stroke-width:0.99999"
     d="m 96.422325,60.748354 -15.65828,-9.207089 c -1.59105,7.968546 -9.229501,14.015713 -18.431463,14.015713 -10.355508,0 -18.748783,-7.651674 -18.748783,-17.089951 0,-5.820344 3.197835,-10.955043 8.073381,-14.041105 L 33.96036,24.021561 c -5.582207,5.967184 -8.959952,13.699851 -8.959952,22.156389 0,0.365773 0.0087,0.729005 0.02115,1.091803 a 3.4466281,3.5003721 0 0 1 1.4289,0.396488 L 83.385293,82.359818 95.81653,61.894845 c 0.213634,-0.375766 0.407197,-0.762541 0.605791,-1.146491 z" />
  <path
     id="path5089"
     style="fill:#268ef9;fill-opacity:1;stroke-width:0.99999"
     d="M 62.499895,12 C 51.06813,12 40.838669,16.668887 33.96036,24.021561 l 17.69682,10.404361 c 3.030645,-1.918299 6.70587,-3.048847 10.675402,-3.048847 10.355499,0 18.750705,7.651674 18.750705,17.089952 0,1.051365 -0.119792,2.075318 -0.319242,3.074238 l 15.65828,9.207089 C 98.708786,56.327868 99.999379,51.383866 99.999379,46.17795 99.999379,27.301395 83.210897,12 62.499895,12 Z" />
</svg>
