<svg width="128" height="128" viewBox="0 0 128 128" fill="none" xmlns="http://www.w3.org/2000/svg">
<g filter="url(#filter0_i_315_126)">
<rect x="12" y="12" width="104" height="104" rx="24" fill="#EDF6FE"/>
<rect x="12" y="12" width="104" height="104" rx="24" fill="url(#paint0_linear_315_126)"/>
</g>
<g filter="url(#filter1_d_315_126)">
<path fill-rule="evenodd" clip-rule="evenodd" d="M36 30C32.6863 30 30 32.6863 30 36V41.8333V53.1667V94C30 97.3137 32.6863 100 36 100H94C97.3137 100 100 97.3137 100 94V41.8333C100 38.5196 97.3137 35.8333 94 35.8333H65.4907C65.4024 32.5967 62.7509 30 59.493 30H36Z" fill="#0674E6"/>
</g>
<g filter="url(#filter2_i_315_126)">
<rect x="35" y="45" width="60" height="45" rx="6" fill="#F0F0F2"/>
<rect x="35" y="45" width="60" height="45" rx="6" fill="url(#paint1_linear_315_126)" fill-opacity="0.8"/>
</g>
<g filter="url(#filter3_bi_315_126)">
<path d="M25.5253 56.4845C25.2423 52.9912 28.001 50 31.5057 50H98.4943C101.999 50 104.758 52.9912 104.475 56.4845L101.396 94.4845C101.144 97.6001 98.5416 100 95.4158 100H34.5842C31.4584 100 28.8562 97.6001 28.6038 94.4845L25.5253 56.4845Z" fill="#268EF9" fill-opacity="0.8"/>
<path d="M25.5253 56.4845C25.2423 52.9912 28.001 50 31.5057 50H98.4943C101.999 50 104.758 52.9912 104.475 56.4845L101.396 94.4845C101.144 97.6001 98.5416 100 95.4158 100H34.5842C31.4584 100 28.8562 97.6001 28.6038 94.4845L25.5253 56.4845Z" fill="url(#paint2_linear_315_126)" fill-opacity="0.8"/>
</g>
<defs>
<filter id="filter0_i_315_126" x="12" y="12" width="104" height="104" filterUnits="userSpaceOnUse" color-interpolation-filters="sRGB">
<feFlood flood-opacity="0" result="BackgroundImageFix"/>
<feBlend mode="normal" in="SourceGraphic" in2="BackgroundImageFix" result="shape"/>
<feColorMatrix in="SourceAlpha" type="matrix" values="0 0 0 0 0 0 0 0 0 0 0 0 0 0 0 0 0 0 127 0" result="hardAlpha"/>
<feOffset dy="-4"/>
<feComposite in2="hardAlpha" operator="arithmetic" k2="-1" k3="1"/>
<feColorMatrix type="matrix" values="0 0 0 0 0.176471 0 0 0 0 0.176471 0 0 0 0 0.176471 0 0 0 0.1 0"/>
<feBlend mode="normal" in2="shape" result="effect1_innerShadow_315_126"/>
</filter>
<filter id="filter1_d_315_126" x="22" y="26" width="86" height="86" filterUnits="userSpaceOnUse" color-interpolation-filters="sRGB">
<feFlood flood-opacity="0" result="BackgroundImageFix"/>
<feColorMatrix in="SourceAlpha" type="matrix" values="0 0 0 0 0 0 0 0 0 0 0 0 0 0 0 0 0 0 127 0" result="hardAlpha"/>
<feOffset dy="4"/>
<feGaussianBlur stdDeviation="4"/>
<feComposite in2="hardAlpha" operator="out"/>
<feColorMatrix type="matrix" values="0 0 0 0 0.176471 0 0 0 0 0.176471 0 0 0 0 0.176471 0 0 0 0.25 0"/>
<feBlend mode="normal" in2="BackgroundImageFix" result="effect1_dropShadow_315_126"/>
<feBlend mode="normal" in="SourceGraphic" in2="effect1_dropShadow_315_126" result="shape"/>
</filter>
<filter id="filter2_i_315_126" x="35" y="45" width="60" height="45" filterUnits="userSpaceOnUse" color-interpolation-filters="sRGB">
<feFlood flood-opacity="0" result="BackgroundImageFix"/>
<feBlend mode="normal" in="SourceGraphic" in2="BackgroundImageFix" result="shape"/>
<feColorMatrix in="SourceAlpha" type="matrix" values="0 0 0 0 0 0 0 0 0 0 0 0 0 0 0 0 0 0 127 0" result="hardAlpha"/>
<feOffset dy="-4"/>
<feComposite in2="hardAlpha" operator="arithmetic" k2="-1" k3="1"/>
<feColorMatrix type="matrix" values="0 0 0 0 0.176471 0 0 0 0 0.176471 0 0 0 0 0.176471 0 0 0 0.1 0"/>
<feBlend mode="normal" in2="shape" result="effect1_innerShadow_315_126"/>
</filter>
<filter id="filter3_bi_315_126" x="19.5053" y="44" width="90.9893" height="62" filterUnits="userSpaceOnUse" color-interpolation-filters="sRGB">
<feFlood flood-opacity="0" result="BackgroundImageFix"/>
<feGaussianBlur in="BackgroundImageFix" stdDeviation="3"/>
<feComposite in2="SourceAlpha" operator="in" result="effect1_backgroundBlur_315_126"/>
<feBlend mode="normal" in="SourceGraphic" in2="effect1_backgroundBlur_315_126" result="shape"/>
<feColorMatrix in="SourceAlpha" type="matrix" values="0 0 0 0 0 0 0 0 0 0 0 0 0 0 0 0 0 0 127 0" result="hardAlpha"/>
<feOffset dy="-4"/>
<feComposite in2="hardAlpha" operator="arithmetic" k2="-1" k3="1"/>
<feColorMatrix type="matrix" values="0 0 0 0 0.176471 0 0 0 0 0.176471 0 0 0 0 0.176471 0 0 0 0.05 0"/>
<feBlend mode="normal" in2="shape" result="effect2_innerShadow_315_126"/>
</filter>
<linearGradient id="paint0_linear_315_126" x1="64" y1="12" x2="64" y2="116" gradientUnits="userSpaceOnUse">
<stop stop-color="#2D2D2D" stop-opacity="0"/>
<stop offset="1" stop-color="#2D2D2D" stop-opacity="0.2"/>
</linearGradient>
<linearGradient id="paint1_linear_315_126" x1="74.4444" y1="45" x2="74.4444" y2="90" gradientUnits="userSpaceOnUse">
<stop stop-color="#2D2D2D" stop-opacity="0"/>
<stop offset="1" stop-color="#2D2D2D" stop-opacity="0.2"/>
</linearGradient>
<linearGradient id="paint2_linear_315_126" x1="76.3174" y1="50" x2="76.3174" y2="100" gradientUnits="userSpaceOnUse">
<stop stop-color="#2D2D2D" stop-opacity="0"/>
<stop offset="1" stop-color="#2D2D2D" stop-opacity="0.2"/>
</linearGradient>
</defs>
</svg>
