<?xml version="1.0" encoding="UTF-8"?>
<svg height="128px" viewBox="0 0 128 128" width="128px" xmlns="http://www.w3.org/2000/svg" xmlns:xlink="http://www.w3.org/1999/xlink">
    <linearGradient id="a" gradientUnits="userSpaceOnUse" x1="8.0000315" x2="120.0000315" y1="119.999977" y2="119.999977">
        <stop offset="0" stop-color="#1a5fb4"/>
        <stop offset="0.0357143" stop-color="#1c71d8"/>
        <stop offset="0.0713653" stop-color="#1a5fb4"/>
        <stop offset="0.928571" stop-color="#1a5fb4"/>
        <stop offset="0.964286" stop-color="#1c71d8"/>
        <stop offset="1" stop-color="#1a5fb4"/>
    </linearGradient>
    <path d="m 29.5 11.5 h 69 c 4.417969 0 8 3.582031 8 8 v 3 c 0 4.417969 -3.582031 8 -8 8 h -69 c -4.417969 0 -8 -3.582031 -8 -8 v -3 c 0 -4.417969 3.582031 -8 8 -8 z m 0 0" fill="#deddda"/>
    <path d="m 27.5 8.5 h 73 c 3.3125 0 6 2.6875 6 6 v 9 c 0 3.3125 -2.6875 6 -6 6 h -73 c -3.3125 0 -6 -2.6875 -6 -6 v -9 c 0 -3.3125 2.6875 -6 6 -6 z m 0 0" fill="#deddda"/>
    <path d="m 24.5 23 h 79 c 4.417969 0 8 3.582031 8 8 v 3 c 0 4.417969 -3.582031 8 -8 8 h -79 c -4.417969 0 -8 -3.582031 -8 -8 v -3 c 0 -4.417969 3.582031 -8 8 -8 z m 0 0" fill="#ffffff"/>
    <path d="m 22.5 20 h 83 c 3.3125 0 6 2.6875 6 6 v 9 c 0 3.3125 -2.6875 6 -6 6 h -83 c -3.3125 0 -6 -2.6875 -6 -6 v -9 c 0 -3.3125 2.6875 -6 6 -6 z m 0 0" fill="#ffffff"/>
    <path d="m 16 44 h 96 c 4.417969 0 8 3.582031 8 8 v 60 c 0 4.417969 -3.582031 8 -8 8 h -96 c -4.417969 0 -8 -3.582031 -8 -8 v -60 c 0 -4.417969 3.582031 -8 8 -8 z m 0 0" fill="url(#a)"/>
    <path d="m 16 30 h 96 c 4.417969 0 8 3.582031 8 8 v 68 c 0 4.417969 -3.582031 8 -8 8 h -96 c -4.417969 0 -8 -3.582031 -8 -8 v -68 c 0 -4.417969 3.582031 -8 8 -8 z m 0 0" fill="#3584e4"/>
    <path d="m 51.5 40 c -6.851562 0 -12.5 5.785156 -12.5 12.800781 v 38.398438 c 0 7.015625 5.648438 12.800781 12.5 12.800781 h 25 c 6.851562 0 12.5 -5.785156 12.5 -12.800781 v -32 c 0 -1.132813 -0.4375 -2.214844 -1.21875 -3.015625 l -14.585938 -14.933594 c -0.78125 -0.800781 -1.839843 -1.25 -2.945312 -1.25 z m 0 8.535156 h 16.667969 v 6.398438 c 0 4.265625 2.082031 6.398437 6.25 6.398437 h 6.25 v 29.867188 c 0 2.433593 -1.792969 4.265625 -4.167969 4.265625 h -25 c -2.375 0 -4.167969 -1.832032 -4.167969 -4.265625 v -38.398438 c 0 -2.433593 1.792969 -4.265625 4.167969 -4.265625 z m 0 0" fill="#ffffff" fill-opacity="0.501961"/>
</svg>
