<svg width="128" height="128" viewBox="0 0 128 128" fill="none" xmlns="http://www.w3.org/2000/svg">
<g filter="url(#filter0_i_314_102)">
<rect x="12" y="12" width="104" height="104" rx="24" fill="#828292"/>
<rect x="12" y="12" width="104" height="104" rx="24" fill="url(#paint0_linear_314_102)"/>
</g>
<g filter="url(#filter1_d_314_102)">
<g filter="url(#filter2_i_314_102)">
<path fill-rule="evenodd" clip-rule="evenodd" d="M47.7147 34.4569C41.0873 34.4569 35.7147 39.8295 35.7147 46.4569V81.5501C35.7147 88.1775 41.0873 93.5501 47.7147 93.5501H81.6921C88.3196 93.5501 93.6921 88.1775 93.6921 81.5501V46.4569C93.6921 39.8295 88.3196 34.4569 81.6921 34.4569H47.7147ZM64.7034 73.4807C69.6296 73.4807 73.623 69.4872 73.623 64.5609C73.623 59.6347 69.6296 55.6412 64.7034 55.6412C59.7773 55.6412 55.7838 59.6347 55.7838 64.5609C55.7838 69.4872 59.7773 73.4807 64.7034 73.4807Z" fill="#CDCDD4"/>
<path fill-rule="evenodd" clip-rule="evenodd" d="M47.7147 34.4569C41.0873 34.4569 35.7147 39.8295 35.7147 46.4569V81.5501C35.7147 88.1775 41.0873 93.5501 47.7147 93.5501H81.6921C88.3196 93.5501 93.6921 88.1775 93.6921 81.5501V46.4569C93.6921 39.8295 88.3196 34.4569 81.6921 34.4569H47.7147ZM64.7034 73.4807C69.6296 73.4807 73.623 69.4872 73.623 64.5609C73.623 59.6347 69.6296 55.6412 64.7034 55.6412C59.7773 55.6412 55.7838 59.6347 55.7838 64.5609C55.7838 69.4872 59.7773 73.4807 64.7034 73.4807Z" fill="url(#paint1_linear_314_102)" fill-opacity="0.8"/>
</g>
<g filter="url(#filter3_i_314_102)">
<path fill-rule="evenodd" clip-rule="evenodd" d="M31.9355 54.9607C27.2493 59.647 27.2493 67.245 31.9355 71.9313L56.7497 96.7459C61.436 101.432 69.0339 101.432 73.7201 96.7458L97.7459 72.7197C102.432 68.0334 102.432 60.4354 97.7459 55.7491L72.9318 30.9346C68.2455 26.2482 60.6476 26.2482 55.9613 30.9346L31.9355 54.9607ZM64.7034 73.4807C69.6296 73.4807 73.623 69.4872 73.623 64.5609C73.623 59.6347 69.6296 55.6412 64.7034 55.6412C59.7773 55.6412 55.7838 59.6347 55.7838 64.5609C55.7838 69.4872 59.7773 73.4807 64.7034 73.4807Z" fill="#F0F0F2"/>
<path fill-rule="evenodd" clip-rule="evenodd" d="M31.9355 54.9607C27.2493 59.647 27.2493 67.245 31.9355 71.9313L56.7497 96.7459C61.436 101.432 69.0339 101.432 73.7201 96.7458L97.7459 72.7197C102.432 68.0334 102.432 60.4354 97.7459 55.7491L72.9318 30.9346C68.2455 26.2482 60.6476 26.2482 55.9613 30.9346L31.9355 54.9607ZM64.7034 73.4807C69.6296 73.4807 73.623 69.4872 73.623 64.5609C73.623 59.6347 69.6296 55.6412 64.7034 55.6412C59.7773 55.6412 55.7838 59.6347 55.7838 64.5609C55.7838 69.4872 59.7773 73.4807 64.7034 73.4807Z" fill="url(#paint2_linear_314_102)" fill-opacity="0.8"/>
</g>
</g>
<defs>
<filter id="filter0_i_314_102" x="12" y="12" width="104" height="104" filterUnits="userSpaceOnUse" color-interpolation-filters="sRGB">
<feFlood flood-opacity="0" result="BackgroundImageFix"/>
<feBlend mode="normal" in="SourceGraphic" in2="BackgroundImageFix" result="shape"/>
<feColorMatrix in="SourceAlpha" type="matrix" values="0 0 0 0 0 0 0 0 0 0 0 0 0 0 0 0 0 0 127 0" result="hardAlpha"/>
<feOffset dy="-4"/>
<feComposite in2="hardAlpha" operator="arithmetic" k2="-1" k3="1"/>
<feColorMatrix type="matrix" values="0 0 0 0 0.176471 0 0 0 0 0.176471 0 0 0 0 0.176471 0 0 0 0.1 0"/>
<feBlend mode="normal" in2="shape" result="effect1_innerShadow_314_102"/>
</filter>
<filter id="filter1_d_314_102" x="20.4208" y="23.4198" width="88.8398" height="88.8408" filterUnits="userSpaceOnUse" color-interpolation-filters="sRGB">
<feFlood flood-opacity="0" result="BackgroundImageFix"/>
<feColorMatrix in="SourceAlpha" type="matrix" values="0 0 0 0 0 0 0 0 0 0 0 0 0 0 0 0 0 0 127 0" result="hardAlpha"/>
<feOffset dy="4"/>
<feGaussianBlur stdDeviation="4"/>
<feComposite in2="hardAlpha" operator="out"/>
<feColorMatrix type="matrix" values="0 0 0 0 0.176471 0 0 0 0 0.176471 0 0 0 0 0.176471 0 0 0 0.25 0"/>
<feBlend mode="normal" in2="BackgroundImageFix" result="effect1_dropShadow_314_102"/>
<feBlend mode="normal" in="SourceGraphic" in2="effect1_dropShadow_314_102" result="shape"/>
</filter>
<filter id="filter2_i_314_102" x="35.7147" y="34.4569" width="57.9774" height="59.0932" filterUnits="userSpaceOnUse" color-interpolation-filters="sRGB">
<feFlood flood-opacity="0" result="BackgroundImageFix"/>
<feBlend mode="normal" in="SourceGraphic" in2="BackgroundImageFix" result="shape"/>
<feColorMatrix in="SourceAlpha" type="matrix" values="0 0 0 0 0 0 0 0 0 0 0 0 0 0 0 0 0 0 127 0" result="hardAlpha"/>
<feOffset dy="-4"/>
<feComposite in2="hardAlpha" operator="arithmetic" k2="-1" k3="1"/>
<feColorMatrix type="matrix" values="0 0 0 0 0 0 0 0 0 0 0 0 0 0 0 0 0 0 0.1 0"/>
<feBlend mode="normal" in2="shape" result="effect1_innerShadow_314_102"/>
</filter>
<filter id="filter3_i_314_102" x="28.4208" y="27.4198" width="72.8398" height="72.8408" filterUnits="userSpaceOnUse" color-interpolation-filters="sRGB">
<feFlood flood-opacity="0" result="BackgroundImageFix"/>
<feBlend mode="normal" in="SourceGraphic" in2="BackgroundImageFix" result="shape"/>
<feColorMatrix in="SourceAlpha" type="matrix" values="0 0 0 0 0 0 0 0 0 0 0 0 0 0 0 0 0 0 127 0" result="hardAlpha"/>
<feOffset dy="-4"/>
<feComposite in2="hardAlpha" operator="arithmetic" k2="-1" k3="1"/>
<feColorMatrix type="matrix" values="0 0 0 0 0 0 0 0 0 0 0 0 0 0 0 0 0 0 0.1 0"/>
<feBlend mode="normal" in2="shape" result="effect1_innerShadow_314_102"/>
</filter>
<linearGradient id="paint0_linear_314_102" x1="64" y1="12" x2="64" y2="116" gradientUnits="userSpaceOnUse">
<stop stop-color="#2D2D2D" stop-opacity="0"/>
<stop offset="1" stop-color="#2D2D2D" stop-opacity="0.2"/>
</linearGradient>
<linearGradient id="paint1_linear_314_102" x1="73.8295" y1="34.4569" x2="73.8295" y2="93.5501" gradientUnits="userSpaceOnUse">
<stop stop-color="#2D2D2D" stop-opacity="0"/>
<stop offset="1" stop-color="#2D2D2D" stop-opacity="0.2"/>
</linearGradient>
<linearGradient id="paint2_linear_314_102" x1="76.3063" y1="27.4198" x2="76.3063" y2="100.261" gradientUnits="userSpaceOnUse">
<stop stop-color="#2D2D2D" stop-opacity="0"/>
<stop offset="1" stop-color="#2D2D2D" stop-opacity="0.2"/>
</linearGradient>
</defs>
</svg>
