<?xml version="1.0" encoding="UTF-8" standalone="no"?>
<svg
   width="128"
   height="128"
   viewBox="0 0 128 128"
   fill="none"
   version="1.1"
   id="svg9"
   sodipodi:docname="org.buddiesofbudgie.BudgieScreenshot.svg"
   inkscape:version="1.3.2 (091e20ef0f, 2023-11-25)"
   xmlns:inkscape="http://www.inkscape.org/namespaces/inkscape"
   xmlns:sodipodi="http://sodipodi.sourceforge.net/DTD/sodipodi-0.dtd"
   xmlns="http://www.w3.org/2000/svg"
   xmlns:svg="http://www.w3.org/2000/svg">
  <sodipodi:namedview
     id="namedview9"
     pagecolor="#ffffff"
     bordercolor="#111111"
     borderopacity="1"
     inkscape:showpageshadow="0"
     inkscape:pageopacity="0"
     inkscape:pagecheckerboard="1"
     inkscape:deskcolor="#d1d1d1"
     inkscape:zoom="6.375"
     inkscape:cx="64"
     inkscape:cy="64"
     inkscape:window-width="2560"
     inkscape:window-height="979"
     inkscape:window-x="0"
     inkscape:window-y="0"
     inkscape:window-maximized="1"
     inkscape:current-layer="svg9" />
  <g
     filter="url(#filter0_ii_1135_41)"
     id="g1"
     transform="matrix(0.95412844,0,0,0.94545363,2.4587156,2.545514)">
    <rect
       x="10"
       y="10"
       width="109"
       height="109"
       rx="24"
       fill="#b65955"
       id="rect1" />
  </g>
  <rect
     x="27"
     y="27"
     width="74"
     height="74"
     rx="12"
     stroke="#FAFAFA"
     stroke-opacity="0.5"
     stroke-width="3"
     stroke-dasharray="12 12"
     id="rect2" />
  <g
     clip-path="url(#clip0_1135_41)"
     id="g3">
    <g
       filter="url(#filter1_d_1135_41)"
       id="g2">
      <path
         d="M51.7582 40.6832C51.307 39.9885 50.378 39.791 49.6832 40.2422C48.9885 40.6934 48.791 41.6224 49.2422 42.3171L62.2115 62.2881L56.4428 71.1711C55.132 70.4256 53.6158 69.9999 52.0001 69.9999C47.0297 69.9999 43.0001 74.0292 43.0001 78.9999C43.0001 83.9706 47.0297 87.9999 52.0001 87.9999C56.9705 87.9999 61.0001 83.9706 61.0001 78.9999C61.0001 76.7337 60.1624 74.6628 58.7798 73.0806L64.0001 65.0421L69.2204 73.0806C67.8377 74.6628 67.0001 76.7337 67.0001 78.9999C67.0001 83.9706 71.0294 87.9999 76.0001 87.9999C80.9708 87.9999 85.0001 83.9706 85.0001 78.9999C85.0001 74.0292 80.9708 69.9999 76.0001 69.9999C74.3843 69.9999 72.8681 70.4256 71.5574 71.1711L51.7582 40.6832ZM76 84.9992C72.6862 84.9992 70 82.313 70 78.9992C70 75.6854 72.6862 72.9992 76 72.9992C79.3138 72.9992 82 75.6854 82 78.9992C82 82.313 79.3138 84.9992 76 84.9992ZM46 78.9992C46 75.6854 48.6863 72.9992 52 72.9992C55.3137 72.9992 58 75.6854 58 78.9992C58 82.313 55.3137 84.9992 52 84.9992C48.6863 84.9992 46 82.313 46 78.9992ZM67.5772 59.5331L65.7886 56.779L76.2418 40.6822C76.693 39.9874 77.6221 39.79 78.3169 40.2411C79.0117 40.6923 79.2091 41.6214 78.7579 42.3161L67.5772 59.5331Z"
         fill="#FAFAFA"
         id="path2" />
    </g>
  </g>
  <defs
     id="defs9">
    <filter
       id="filter0_ii_1135_41"
       x="10"
       y="10"
       width="109"
       height="110"
       filterUnits="userSpaceOnUse"
       color-interpolation-filters="sRGB">
      <feFlood
         flood-opacity="0"
         result="BackgroundImageFix"
         id="feFlood3" />
      <feBlend
         mode="normal"
         in="SourceGraphic"
         in2="BackgroundImageFix"
         result="shape"
         id="feBlend3" />
      <feColorMatrix
         in="SourceAlpha"
         type="matrix"
         values="0 0 0 0 0 0 0 0 0 0 0 0 0 0 0 0 0 0 127 0"
         result="hardAlpha"
         id="feColorMatrix3" />
      <feOffset
         dy="-4"
         id="feOffset3" />
      <feComposite
         in2="hardAlpha"
         operator="arithmetic"
         k2="-1"
         k3="1"
         id="feComposite3" />
      <feColorMatrix
         type="matrix"
         values="0 0 0 0 0 0 0 0 0 0 0 0 0 0 0 0 0 0 0.25 0"
         id="feColorMatrix4" />
      <feBlend
         mode="normal"
         in2="shape"
         result="effect1_innerShadow_1135_41"
         id="feBlend4" />
      <feColorMatrix
         in="SourceAlpha"
         type="matrix"
         values="0 0 0 0 0 0 0 0 0 0 0 0 0 0 0 0 0 0 127 0"
         result="hardAlpha"
         id="feColorMatrix5" />
      <feMorphology
         radius="1"
         operator="erode"
         in="SourceAlpha"
         result="effect2_innerShadow_1135_41"
         id="feMorphology5" />
      <feOffset
         dy="2"
         id="feOffset5" />
      <feComposite
         in2="hardAlpha"
         operator="arithmetic"
         k2="-1"
         k3="1"
         id="feComposite5" />
      <feColorMatrix
         type="matrix"
         values="0 0 0 0 1 0 0 0 0 1 0 0 0 0 1 0 0 0 0.25 0"
         id="feColorMatrix6" />
      <feBlend
         mode="normal"
         in2="effect1_innerShadow_1135_41"
         result="effect2_innerShadow_1135_41"
         id="feBlend6" />
    </filter>
    <filter
       id="filter1_d_1135_41"
       x="42.0001"
       y="38.999"
       width="48.0001"
       height="54.0009"
       filterUnits="userSpaceOnUse"
       color-interpolation-filters="sRGB">
      <feFlood
         flood-opacity="0"
         result="BackgroundImageFix"
         id="feFlood6" />
      <feColorMatrix
         in="SourceAlpha"
         type="matrix"
         values="0 0 0 0 0 0 0 0 0 0 0 0 0 0 0 0 0 0 127 0"
         result="hardAlpha"
         id="feColorMatrix7" />
      <feOffset
         dx="2"
         dy="2"
         id="feOffset7" />
      <feGaussianBlur
         stdDeviation="1.5"
         id="feGaussianBlur7" />
      <feComposite
         in2="hardAlpha"
         operator="out"
         id="feComposite7" />
      <feColorMatrix
         type="matrix"
         values="0 0 0 0 0 0 0 0 0 0 0 0 0 0 0 0 0 0 0.14 0"
         id="feColorMatrix8" />
      <feBlend
         mode="normal"
         in2="BackgroundImageFix"
         result="effect1_dropShadow_1135_41"
         id="feBlend8" />
      <feBlend
         mode="normal"
         in="SourceGraphic"
         in2="effect1_dropShadow_1135_41"
         result="shape"
         id="feBlend9" />
    </filter>
    <clipPath
       id="clip0_1135_41">
      <rect
         width="48"
         height="48"
         fill="white"
         transform="translate(40 40)"
         id="rect9" />
    </clipPath>
  </defs>
</svg>
