<?xml version="1.0" encoding="UTF-8" standalone="no"?>
<svg
   height="128px"
   viewBox="0 0 128 128"
   width="128px"
   version="1.1"
   id="svg29"
   xmlns:xlink="http://www.w3.org/1999/xlink"
   xmlns="http://www.w3.org/2000/svg"
   xmlns:svg="http://www.w3.org/2000/svg">
  <defs
     id="defs33">
    <linearGradient
       id="linearGradient3033">
      <stop
         style="stop-color:#1b07a2;stop-opacity:1"
         offset="0"
         id="stop3029" />
      <stop
         style="stop-color:#270ae9;stop-opacity:1"
         offset="1"
         id="stop3031" />
    </linearGradient>
    <linearGradient
       id="linearGradient1703">
      <stop
         style="stop-color:#0453a4;stop-opacity:1"
         offset="0"
         id="stop1699" />
      <stop
         style="stop-color:#268ef9;stop-opacity:1"
         offset="0.49723729"
         id="stop4723" />
      <stop
         style="stop-color:#bbdcfd;stop-opacity:1"
         offset="1"
         id="stop1701" />
    </linearGradient>
    <linearGradient
       xlink:href="#linearGradient1703"
       id="linearGradient1705"
       x1="85.519058"
       y1="82.688545"
       x2="26.766436"
       y2="27.407297"
       gradientUnits="userSpaceOnUse"
       gradientTransform="translate(0.19512195,-0.19512195)" />
    <linearGradient
       xlink:href="#linearGradient3033"
       id="linearGradient3035"
       x1="102.42525"
       y1="98.825172"
       x2="85.295731"
       y2="82.693314"
       gradientUnits="userSpaceOnUse"
       gradientTransform="translate(0.19512195,-0.19512195)" />
  </defs>
  <linearGradient
     id="a"
     gradientUnits="userSpaceOnUse"
     x1="8.0000315"
     x2="120.0000315"
     y1="119.999977"
     y2="119.999977">
    <stop
       offset="0"
       stop-color="#1a5fb4"
       id="stop2" />
    <stop
       offset="0.0357143"
       stop-color="#1c71d8"
       id="stop4" />
    <stop
       offset="0.0713653"
       stop-color="#1a5fb4"
       id="stop6" />
    <stop
       offset="0.928571"
       stop-color="#1a5fb4"
       id="stop8" />
    <stop
       offset="0.964286"
       stop-color="#1c71d8"
       id="stop10" />
    <stop
       offset="1"
       stop-color="#1a5fb4"
       id="stop12" />
  </linearGradient>
  <ellipse
     style="fill:#0674e6;stroke:none;stroke-width:10.0032;stop-color:#000000"
     id="path1573"
     cx="-2.375396"
     cy="-89.964691"
     rx="69.126526"
     ry="26.936026"
     transform="matrix(-0.70127721,0.71288868,-0.68771013,-0.72598539,0,0)" />
  <path
     id="path934"
     style="fill:url(#linearGradient3035);fill-opacity:1;stroke:none;stroke-width:1.001;stroke-linecap:round;stroke-linejoin:round;stop-color:#000000"
     d="m 43.615044,111.39082 a 51.999996,51.999996 0 0 0 20.580078,4.41406 51.999996,51.999996 0 0 0 51.999998,-52.000002 51.999996,51.999996 0 0 0 -5.0918,-22.398438 42.256115,73.582748 45 0 1 -0.18554,0.642579 42.256115,73.582748 45 0 1 -0.79493,2.429687 42.256115,73.582748 45 0 1 -0.89062,2.447266 42.256115,73.582748 45 0 1 -0.98633,2.46289 42.256115,73.582748 45 0 1 -1.07812,2.472657 42.256115,73.582748 45 0 1 -1.16993,2.478515 42.256115,73.582748 45 0 1 -1.25976,2.478516 42.256115,73.582748 45 0 1 -1.34766,2.478516 42.256115,73.582748 45 0 1 -1.43164,2.470703 42.256115,73.582748 45 0 1 -1.51367,2.458984 42.256115,73.582748 45 0 1 -1.595701,2.445313 42.256115,73.582748 45 0 1 -1.669922,2.423828 42.256115,73.582748 45 0 1 -1.746094,2.402343 42.256115,73.582748 45 0 1 -1.816406,2.373047 42.256115,73.582748 45 0 1 -1.886719,2.341797 42.256115,73.582748 45 0 1 -1.949218,2.306641 42.256115,73.582748 45 0 1 -2.011719,2.265625 42.256115,73.582748 45 0 1 -2.070313,2.222656 42.256115,73.582748 45 0 1 -2.125,2.175781 42.256115,73.582748 45 0 1 -6.488281,6.054688 42.256115,73.582748 45 0 1 -6.832031,5.529297 42.256115,73.582748 45 0 1 -7.070313,4.925781 42.256115,73.582748 45 0 1 -7.210937,4.24805 42.256115,73.582748 45 0 1 -7.244141,3.50976 42.256115,73.582748 45 0 1 -5.113281,1.93946 z" />
  <path
     id="path1432"
     style="fill:url(#linearGradient1705);fill-opacity:1;stroke:none;stroke-width:1.001;stroke-linecap:round;stroke-linejoin:round;stop-color:#000000"
     d="m 43.615044,111.39082 a 42.256115,73.582748 45 0 0 5.113281,-1.93946 42.256115,73.582748 45 0 0 7.244141,-3.50976 42.256115,73.582748 45 0 0 7.210937,-4.24805 42.256115,73.582748 45 0 0 7.070313,-4.925781 42.256115,73.582748 45 0 0 6.832031,-5.529297 42.256115,73.582748 45 0 0 6.488281,-6.054688 42.256115,73.582748 45 0 0 2.125,-2.175781 42.256115,73.582748 45 0 0 2.070313,-2.222656 42.256115,73.582748 45 0 0 2.011719,-2.265625 42.256115,73.582748 45 0 0 1.949218,-2.306641 42.256115,73.582748 45 0 0 1.886719,-2.341797 42.256115,73.582748 45 0 0 1.816406,-2.373047 42.256115,73.582748 45 0 0 1.746094,-2.402343 42.256115,73.582748 45 0 0 1.669922,-2.423828 42.256115,73.582748 45 0 0 1.595701,-2.445313 42.256115,73.582748 45 0 0 1.51367,-2.458984 42.256115,73.582748 45 0 0 1.43164,-2.470703 42.256115,73.582748 45 0 0 1.34766,-2.478516 42.256115,73.582748 45 0 0 1.25976,-2.478516 42.256115,73.582748 45 0 0 1.16993,-2.478515 42.256115,73.582748 45 0 0 1.07812,-2.472657 42.256115,73.582748 45 0 0 0.98633,-2.46289 42.256115,73.582748 45 0 0 0.89062,-2.447266 42.256115,73.582748 45 0 0 0.79493,-2.429687 42.256115,73.582748 45 0 0 0.18554,-0.642579 51.999996,51.999996 0 0 0 -46.908198,-29.601562 51.999996,51.999996 0 0 0 -52,52 51.999996,51.999996 0 0 0 31.419922,47.585942 z" />
</svg>
