<?xml version="1.0" encoding="UTF-8" standalone="no"?>
<svg
   height="128px"
   viewBox="0 0 128 128"
   width="128px"
   version="1.1"
   id="svg45"
   xmlns="http://www.w3.org/2000/svg"
   xmlns:svg="http://www.w3.org/2000/svg">
  <defs
     id="defs49" />
  <linearGradient
     id="a"
     gradientTransform="matrix(0.25 0 0 0.270833 -14.14896 237.710846)"
     gradientUnits="userSpaceOnUse"
     x1="88.595886"
     x2="536.595886"
     y1="-449.394012"
     y2="-449.394012">
    <stop
       offset="0"
       stop-color="#241f31"
       id="stop2"
       style="stop-color:#333333;stop-opacity:1" />
    <stop
       offset="0.0357143"
       stop-color="#77767b"
       id="stop4"
       style="stop-color:#5e5e5e;stop-opacity:1" />
    <stop
       offset="0.0713653"
       stop-color="#241f31"
       id="stop6"
       style="stop-color:#333333;stop-opacity:1" />
    <stop
       offset="0.928571"
       stop-color="#241f31"
       id="stop8"
       style="stop-color:#333333;stop-opacity:1" />
    <stop
       offset="0.964286"
       stop-color="#77767b"
       id="stop10"
       style="stop-color:#5e5e5e;stop-opacity:1" />
    <stop
       offset="1"
       stop-color="#241f31"
       id="stop12"
       style="stop-color:#333333;stop-opacity:1" />
  </linearGradient>
  <linearGradient
     id="b"
     gradientUnits="userSpaceOnUse"
     x1="28"
     x2="99.165474"
     y1="28"
     y2="112">
    <stop
       offset="0"
       stop-color="#f66151"
       id="stop15"
       style="stop-color:#f1acc1;stop-opacity:1" />
    <stop
       offset="0.24737"
       stop-color="#f9f06b"
       id="stop17"
       style="stop-color:#fee8af;stop-opacity:1" />
    <stop
       offset="0.515232"
       stop-color="#8ff0a4"
       id="stop19"
       style="stop-color:#85d1bf;stop-opacity:1" />
    <stop
       offset="0.783062"
       stop-color="#99c1f1"
       id="stop21"
       style="stop-color:#8ac2fb;stop-opacity:1" />
    <stop
       offset="1"
       stop-color="#dc8add"
       id="stop23"
       style="stop-color:#bea0db;stop-opacity:1" />
  </linearGradient>
  <linearGradient
     id="c"
     gradientUnits="userSpaceOnUse"
     x1="28"
     x2="100"
     y1="114"
     y2="114">
    <stop
       offset="0"
       stop-color="#518066"
       id="stop26"
       style="stop-color:#2e7a68;stop-opacity:1" />
    <stop
       offset="0.515232"
       stop-color="#536580"
       id="stop28"
       style="stop-color:#0453a4;stop-opacity:1" />
    <stop
       offset="1"
       stop-color="#654066"
       id="stop30"
       style="stop-color:#552e7a;stop-opacity:1" />
  </linearGradient>
  <path
     d="m 16 32 c -4.433594 0 -8 3.484375 -8 7.808594 v 66.382812 c 0 4.324219 3.566406 7.808594 8 7.808594 h 96 c 4.433594 0 8 -3.484375 8 -7.808594 v -66.382812 c 0 -4.324219 -3.566406 -7.808594 -8 -7.808594 z m 0 11.714844 h 8 v 7.808594 h -8 z m 88 0 h 8 v 7.808594 h -8 z m -88 15.617187 h 8 v 7.8125 h -8 z m 88 0 h 8 v 7.8125 h -8 z m -88 15.621094 h 8 v 7.808594 h -8 z m 88 0 h 8 v 7.808594 h -8 z m -88 17.570313 h 8 v 7.808593 h -8 z m 88 0 h 8 v 7.808593 h -8 z m 0 0"
     fill="#77767b"
     id="path33"
     style="fill:#111111" />
  <path
     d="m 8 103 v 4.332031 c 0 4.800781 3.566406 8.667969 8 8.667969 h 96 c 4.433594 0 8 -3.867188 8 -8.667969 v -4.332031 c 0 4.800781 -3.566406 8.667969 -8 8.667969 h -96 c -4.433594 0 -8 -3.867188 -8 -8.667969 z m 0 0"
     fill="url(#a)"
     id="path35"
     style="fill:#111111" />
  <path
     d="m 16 28 c -4.433594 0 -8 3.566406 -8 8 v 68 c 0 4.433594 3.566406 8 8 8 h 96 c 4.433594 0 8 -3.566406 8 -8 v -68 c 0 -4.433594 -3.566406 -8 -8 -8 z m 0 12 h 8 v 8 h -8 z m 88 0 h 8 v 8 h -8 z m -88 16 h 8 v 8 h -8 z m 88 0 h 8 v 8 h -8 z m -88 16 h 8 v 8 h -8 z m 88 0 h 8 v 8 h -8 z m -88 18 h 8 v 8 h -8 z m 88 0 h 8 v 8 h -8 z m 0 0"
     fill="#3d3846"
     id="path37"
     style="fill:#333333" />
  <path
     d="m 28 28 h 72 v 84 h -72 z m 0 0"
     fill="url(#b)"
     id="path39" />
  <path
     d="M 48,44 V 92 L 80,72 Z"
     fill="#ffffff"
     id="path41-3"
     style="fill:#bebec7" />
  <path
     d="m 48 48 v 48 l 32 -24 z m 0 0"
     fill="#ffffff"
     id="path41"
     style="fill:#f0f0f2" />
  <path
     d="m 28 112 h 72 v 4 h -72 z m 0 0"
     fill="url(#c)"
     id="path43" />
</svg>
