<?xml version="1.0" encoding="UTF-8" standalone="no"?>
<svg
   height="128px"
   viewBox="0 0 128 128"
   width="128px"
   version="1.1"
   id="svg29"
   sodipodi:docname="org.gnome.Nautilus.svg"
   inkscape:export-filename="/var/home/lains/Downloads/org.gnome.Nautilus.png"
   inkscape:export-xdpi="96"
   inkscape:export-ydpi="96"
   inkscape:version="1.1.2 (0a00cf5339, 2022-02-04)"
   xmlns:inkscape="http://www.inkscape.org/namespaces/inkscape"
   xmlns:sodipodi="http://sodipodi.sourceforge.net/DTD/sodipodi-0.dtd"
   xmlns="http://www.w3.org/2000/svg"
   xmlns:svg="http://www.w3.org/2000/svg">
  <defs
     id="defs33" />
  <sodipodi:namedview
     id="namedview31"
     pagecolor="#ffffff"
     bordercolor="#666666"
     borderopacity="1.0"
     inkscape:pageshadow="2"
     inkscape:pageopacity="0.0"
     inkscape:pagecheckerboard="0"
     showgrid="true"
     inkscape:zoom="3.375"
     inkscape:cx="67.407407"
     inkscape:cy="63.703704"
     inkscape:window-width="2560"
     inkscape:window-height="919"
     inkscape:window-x="0"
     inkscape:window-y="0"
     inkscape:window-maximized="1"
     inkscape:current-layer="g2999"
     inkscape:snap-global="false">
    <inkscape:grid
       type="xygrid"
       id="grid1081" />
  </sodipodi:namedview>
  <linearGradient
     id="a"
     gradientUnits="userSpaceOnUse"
     x1="8.0000315"
     x2="120.0000315"
     y1="119.999977"
     y2="119.999977">
    <stop
       offset="0"
       stop-color="#1a5fb4"
       id="stop2" />
    <stop
       offset="0.0357143"
       stop-color="#1c71d8"
       id="stop4" />
    <stop
       offset="0.0713653"
       stop-color="#1a5fb4"
       id="stop6" />
    <stop
       offset="0.928571"
       stop-color="#1a5fb4"
       id="stop8" />
    <stop
       offset="0.964286"
       stop-color="#1c71d8"
       id="stop10" />
    <stop
       offset="1"
       stop-color="#1a5fb4"
       id="stop12" />
  </linearGradient>
  <g
     id="g2999"
     transform="matrix(0.99980047,0,0,0.99999467,1.0245418,6.3936607e-4)"
     style="stroke-width:1.0001">
    <path
       id="path17-6"
       style="fill:#1c71d8;stroke-width:1.0001"
       d="m 16.523914,18.999465 c -2.273034,0 -4.546067,1.55244 -4.546067,6.104894 l 0.18564,32.193559 c 0.05212,9.335552 2.530115,20.701865 4.513879,20.701865 H 57.30227 c 1.983755,0 4.517509,-6.19121 4.513863,-15.526399 l 0.17168,-37.369026 c 0.0066,-4.47203 -2.727666,-6.104893 -5.000691,-6.104893 z"
       sodipodi:nodetypes="ccccccccc" />
    <path
       id="path17"
       style="fill:#1c71d8;stroke-width:1.0001"
       d="m 21.251826,24.999495 c -4.636988,0 -9.273978,4.552456 -9.273978,9.10491 l 0.37869,29.193543 c 0.106336,9.335552 5.161436,20.701865 9.208313,20.701865 h 82.874829 c 4.04686,0 9.21572,-6.19121 9.20828,-15.526399 l 0.35022,-34.36901 c 0.0133,-4.47203 -5.56444,-9.104909 -10.20141,-9.104909 z"
       sodipodi:nodetypes="ccccccccc" />
    <path
       d="m 27.277174,32.569003 69.717637,-0.04999 c 4.250859,0 8.501699,4.319098 8.501699,8.638196 l -1.69848,46.676355 c -0.44418,12.206866 -2.33245,22.125666 -5.20736,22.125666 H 26.555403 c -2.874903,0 -4.980127,-9.91263 -5.207371,-22.125666 l -0.86849,-46.676353 c 0,-4.319098 2.546783,-8.588208 6.797632,-8.588208 z"
       fill="#ffffff"
       id="path21-3-7"
       style="fill:#deddda;stroke-width:1.0001"
       sodipodi:nodetypes="cccsssscc" />
    <path
       d="m 27.277174,35.569018 69.717637,-0.04999 c 4.250859,0 8.501699,4.319098 8.501699,8.638196 l -1.69848,46.676355 c -0.44418,12.206881 -2.33245,22.125681 -5.20736,22.125681 H 26.555403 c -2.874903,0 -4.980127,-9.91263 -5.207371,-22.125681 l -0.86849,-46.676353 c 0,-4.319098 2.546783,-8.588208 6.797632,-8.588208 z"
       fill="#ffffff"
       id="path21-3"
       style="fill:#f6f5f4;stroke-width:1.0001"
       sodipodi:nodetypes="cccsssscc" />
    <path
       d="M 11.131748,42.999792 H 114.86885 c 4.49039,0 8.13114,3.112963 8.13114,6.952397 l -6.06617,59.095411 c -0.39291,3.82766 -3.64075,6.95238 -8.13115,6.95238 H 19.230507 c -4.490395,0 -7.608045,-3.13538 -8.131147,-6.95238 L 3.0006005,49.952189 C 2.6238508,46.126292 6.641484,42.970485 11.131748,42.999792 Z"
       fill="#3584e4"
       id="path25"
       sodipodi:nodetypes="cccsssscc"
       style="fill:#62a0ea;fill-opacity:1;stroke-width:1.0002" />
  </g>
</svg>
