<?xml version="1.0" encoding="UTF-8" standalone="no"?>
<svg
   height="128px"
   viewBox="0 0 128 128"
   width="128px"
   version="1.1"
   id="svg115"
   xmlns:xlink="http://www.w3.org/1999/xlink"
   xmlns="http://www.w3.org/2000/svg"
   xmlns:svg="http://www.w3.org/2000/svg">
  <defs
     id="defs119">
    <linearGradient
       id="linearGradient9644">
      <stop
         style="stop-color:#865e3c;stop-opacity:1"
         offset="0"
         id="stop9640" />
      <stop
         style="stop-color:#63452c;stop-opacity:1"
         offset="1"
         id="stop9642" />
    </linearGradient>
    <linearGradient
       id="linearGradient8758">
      <stop
         style="stop-color:#ffa348;stop-opacity:1"
         offset="0"
         id="stop8754" />
      <stop
         style="stop-color:#ff7800;stop-opacity:1"
         offset="1"
         id="stop8756" />
    </linearGradient>
    <linearGradient
       xlink:href="#h"
       id="linearGradient7310"
       x1="72.933357"
       y1="62.432594"
       x2="85.307449"
       y2="76.23455"
       gradientUnits="userSpaceOnUse"
       gradientTransform="translate(0,-3)" />
    <linearGradient
       xlink:href="#h"
       id="linearGradient7812"
       x1="47.938271"
       y1="82.988564"
       x2="63.490055"
       y2="99.181976"
       gradientUnits="userSpaceOnUse"
       gradientTransform="translate(0,-3)" />
    <linearGradient
       xlink:href="#linearGradient8758"
       id="linearGradient8760"
       x1="98.981033"
       y1="88.024529"
       x2="111.96198"
       y2="122.63781"
       gradientUnits="userSpaceOnUse"
       gradientTransform="translate(0,-3)" />
    <linearGradient
       xlink:href="#linearGradient9644"
       id="linearGradient9646"
       x1="81.339579"
       y1="85.887234"
       x2="98.98103"
       y2="85.887234"
       gradientUnits="userSpaceOnUse"
       gradientTransform="matrix(1.0329791,0,0,0.97887135,-3.5297291,-3.2232414)" />
  </defs>
  <linearGradient
     id="a"
     gradientTransform="matrix(0.196428 0 0 0.342105 2.270968 274.245056)"
     gradientUnits="userSpaceOnUse"
     x1="88.595886"
     x2="536.595886"
     y1="-449.394012"
     y2="-449.394012">
    <stop
       offset="0"
       stop-color="#e5a50a"
       id="stop2" />
    <stop
       offset="0.0470219"
       stop-color="#f6d32d"
       id="stop4" />
    <stop
       offset="0.0971787"
       stop-color="#e5a50a"
       id="stop6" />
    <stop
       offset="0.899687"
       stop-color="#e5a50a"
       id="stop8" />
    <stop
       offset="0.949843"
       stop-color="#f6d32d"
       id="stop10" />
    <stop
       offset="1"
       stop-color="#e5a50a"
       id="stop12" />
  </linearGradient>
  <linearGradient
     id="b"
     gradientUnits="userSpaceOnUse"
     x1="20.419075"
     x2="106.111397"
     y1="12.495239"
     y2="113.266479">
    <stop
       offset="0"
       stop-color="#f9f06b"
       id="stop15" />
    <stop
       offset="0.0507615"
       stop-color="#f8f2ac"
       id="stop17" />
    <stop
       offset="0.090262"
       stop-color="#f6d32d"
       id="stop19" />
    <stop
       offset="0.125042"
       stop-color="#f9f06b"
       id="stop21" />
    <stop
       offset="0.525835"
       stop-color="#f6d32d"
       id="stop23" />
    <stop
       offset="0.862899"
       stop-color="#f8e45c"
       id="stop25" />
    <stop
       offset="0.894349"
       stop-color="#e5a50a"
       id="stop27" />
    <stop
       offset="0.926015"
       stop-color="#f8e45c"
       id="stop29" />
    <stop
       offset="1"
       stop-color="#e5a50a"
       id="stop31" />
  </linearGradient>
  <filter
     id="c"
     height="1"
     width="1"
     x="0"
     y="0">
    <feColorMatrix
       in="SourceGraphic"
       type="matrix"
       values="0 0 0 0 1 0 0 0 0 1 0 0 0 0 1 0 0 0 1 0"
       id="feColorMatrix34" />
  </filter>
  <mask
     id="d">
    <g
       filter="url(#c)"
       id="g39">
      <rect
         fill-opacity="0.03838"
         height="128"
         width="128"
         id="rect37" />
    </g>
  </mask>
  <linearGradient
     id="e"
     gradientUnits="userSpaceOnUse">
    <stop
       offset="0"
       stop-color="#e8e7e4"
       id="stop42" />
    <stop
       offset="0.511049"
       stop-color="#ffffff"
       id="stop44" />
    <stop
       offset="1"
       stop-color="#c2bfba"
       id="stop46" />
  </linearGradient>
  <radialGradient
     id="f"
     cx="63.999996"
     cy="194.190475"
     gradientTransform="matrix(1.25e-6,-4.234848,-1.390909,-2.7e-7,312.30823,346.952)"
     r="44"
     xlink:href="#e" />
  <clipPath
     id="g">
    <rect
       height="152"
       width="192"
       id="rect50" />
  </clipPath>
  <linearGradient
     id="h"
     gradientUnits="userSpaceOnUse"
     x1="49.531742"
     x2="119.799202"
     y1="83.548828"
     y2="83.548828"
     gradientTransform="translate(255.63281,147.05078)">
    <stop
       offset="0"
       stop-color="#424048"
       id="stop53" />
    <stop
       offset="0.0470219"
       stop-color="#f6f5f4"
       id="stop55" />
    <stop
       offset="0.0971787"
       stop-color="#949390"
       id="stop57" />
    <stop
       offset="0.899687"
       stop-color="#d5d3cf"
       id="stop59" />
    <stop
       offset="0.949843"
       stop-color="#f6f5f4"
       id="stop61" />
    <stop
       offset="1"
       stop-color="#424048"
       id="stop63" />
  </linearGradient>
  <radialGradient
     id="i"
     cx="84.665474"
     cy="252.548828"
     gradientTransform="matrix(1,0,0,0.998082,346.42187,-35.917944)"
     r="35.133728"
     xlink:href="#e" />
  <path
     d="m 27.671875 16.503906 h 72 c 4.421875 0 8 3.582032 8 8 v 88 c 0 4.417969 -3.578125 8 -8 8 h -72 c -4.417969 0 -8 -3.582031 -8 -8 v -88 c 0 -4.417968 3.582031 -8 8 -8 z m 0 0"
     fill="url(#a)"
     id="path67" />
  <path
     d="m 27.671875 8.503906 h 72 c 4.421875 0 8 3.582032 8 8 v 92 c 0 4.417969 -3.578125 8 -8 8 h -72 c -4.417969 0 -8 -3.582031 -8 -8 v -92 c 0 -4.417968 3.582031 -8 8 -8 z m 0 0"
     fill="url(#b)"
     id="path69" />
  <path
     d="m 32 16 h 63 c 3.3125 0 6 2.6875 6 6 v 83 c 0 3.3125 -2.6875 6 -6 6 h -63 c -3.3125 0 -6 -2.6875 -6 -6 v -83 c 0 -3.3125 2.6875 -6 6 -6 z m 0 0"
     fill="#3d3846"
     id="path71" />
  <g
     fill="#6eff26"
     fill-opacity="0.6"
     stroke="#55ff00"
     stroke-linecap="round"
     stroke-linejoin="round"
     stroke-opacity="0.090196"
     stroke-width="2"
     id="g89">
    <path
       d="m 62 32 h 21 c 1.105469 0 2 0.894531 2 2 v 2 c 0 1.105469 -0.894531 2 -2 2 h -21 c -1.105469 0 -2 -0.894531 -2 -2 v -2 c 0 -1.105469 0.894531 -2 2 -2 z m 0 0"
       id="path73" />
    <path
       d="m 84 44 h 8 c 1.105469 0 2 0.894531 2 2 v 2 c 0 1.105469 -0.894531 2 -2 2 h -8 c -1.105469 0 -2 -0.894531 -2 -2 v -2 c 0 -1.105469 0.894531 -2 2 -2 z m 0 0"
       id="path75" />
    <path
       d="m 46 44 h 8 c 1.105469 0 2 0.894531 2 2 v 2 c 0 1.105469 -0.894531 2 -2 2 h -8 c -1.105469 0 -2 -0.894531 -2 -2 v -2 c 0 -1.105469 0.894531 -2 2 -2 z m 0 0"
       id="path77" />
    <path
       d="m 46 56 h 42 c 1.105469 0 2 0.894531 2 2 v 2 c 0 1.105469 -0.894531 2 -2 2 h -42 c -1.105469 0 -2 -0.894531 -2 -2 v -2 c 0 -1.105469 0.894531 -2 2 -2 z m 0 0"
       id="path79" />
    <path
       d="m 36 32 h 18 c 1.105469 0 2 0.894531 2 2 v 2 c 0 1.105469 -0.894531 2 -2 2 h -18 c -1.105469 0 -2 -0.894531 -2 -2 v -2 c 0 -1.105469 0.894531 -2 2 -2 z m 0 0"
       id="path81" />
    <path
       d="m 90 32 c 1.105469 0 2 0.894531 2 2 v 2 c 0 1.105469 -0.894531 2 -2 2 s -2 -0.894531 -2 -2 v -2 c 0 -1.105469 0.894531 -2 2 -2 z m 0 0"
       id="path83" />
    <path
       d="m 36 64 c 1.105469 0 2 0.894531 2 2 v 2 c 0 1.105469 -0.894531 2 -2 2 s -2 -0.894531 -2 -2 v -2 c 0 -1.105469 0.894531 -2 2 -2 z m 0 0"
       id="path85" />
    <path
       d="m 62 44 h 14 c 1.105469 0 2 0.894531 2 2 v 2 c 0 1.105469 -0.894531 2 -2 2 h -14 c -1.105469 0 -2 -0.894531 -2 -2 v -2 c 0 -1.105469 0.894531 -2 2 -2 z m 0 0"
       id="path87" />
  </g>
  <path
     d="m 62 75 h 21 c 1.105469 0 2 0.894531 2 2 v 2 c 0 1.105469 -0.894531 2 -2 2 h -21 c -1.105469 0 -2 -0.894531 -2 -2 v -2 c 0 -1.105469 0.894531 -2 2 -2 z m 0 0"
     fill="#93fc82"
     fill-opacity="0.501961"
     id="path91"
     style="fill:#5aaf32;fill-opacity:1;stroke:#55ff00;stroke-opacity:0.09019608;stroke-width:2;stroke-miterlimit:4;stroke-dasharray:none" />
  <path
     d="m 84 87 h 8 c 1.105469 0 2 0.894531 2 2 v 2 c 0 1.105469 -0.894531 2 -2 2 h -8 c -1.105469 0 -2 -0.894531 -2 -2 v -2 c 0 -1.105469 0.894531 -2 2 -2 z m 0 0"
     fill="#93fc82"
     fill-opacity="0.501961"
     id="path93"
     style="stroke-width:2;stroke-miterlimit:4;stroke-dasharray:none;stroke:#55ff00;stroke-opacity:0.09019608;fill:#5fb138;fill-opacity:1" />
  <path
     d="m 46 87 h 8 c 1.105469 0 2 0.894531 2 2 v 2 c 0 1.105469 -0.894531 2 -2 2 h -8 c -1.105469 0 -2 -0.894531 -2 -2 v -2 c 0 -1.105469 0.894531 -2 2 -2 z m 0 0"
     fill="#6eff26"
     fill-opacity="0.6"
     stroke="#55ff00"
     stroke-linecap="round"
     stroke-linejoin="round"
     stroke-opacity="0.090196"
     stroke-width="2"
     id="path95" />
  <path
     d="m 46 99 h 42 c 1.105469 0 2 0.894531 2 2 v 2 c 0 1.105469 -0.894531 2 -2 2 h -42 c -1.105469 0 -2 -0.894531 -2 -2 v -2 c 0 -1.105469 0.894531 -2 2 -2 z m 0 0"
     fill="#6eff26"
     fill-opacity="0.6"
     stroke="#55ff00"
     stroke-linecap="round"
     stroke-linejoin="round"
     stroke-opacity="0.090196"
     stroke-width="2"
     id="path97" />
  <path
     d="m 36 75 h 18 c 1.105469 0 2 0.894531 2 2 v 2 c 0 1.105469 -0.894531 2 -2 2 h -18 c -1.105469 0 -2 -0.894531 -2 -2 v -2 c 0 -1.105469 0.894531 -2 2 -2 z m 0 0"
     fill="#6eff26"
     fill-opacity="0.6"
     stroke="#55ff00"
     stroke-linecap="round"
     stroke-linejoin="round"
     stroke-opacity="0.090196"
     stroke-width="2"
     id="path99" />
  <path
     d="m 90 75 c 1.105469 0 2 0.894531 2 2 v 2 c 0 1.105469 -0.894531 2 -2 2 s -2 -0.894531 -2 -2 v -2 c 0 -1.105469 0.894531 -2 2 -2 z m 0 0"
     fill="#93fc82"
     fill-opacity="0.501961"
     id="path101" />
  <path
     d="m 62 87 h 14 c 1.105469 0 2 0.894531 2 2 v 2 c 0 1.105469 -0.894531 2 -2 2 h -14 c -1.105469 0 -2 -0.894531 -2 -2 v -2 c 0 -1.105469 0.894531 -2 2 -2 z m 0 0"
     fill="#6eff26"
     fill-opacity="0.6"
     stroke="#55ff00"
     stroke-linecap="round"
     stroke-linejoin="round"
     stroke-opacity="0.090196"
     stroke-width="2"
     id="path103" />
  <g
     clip-path="url(#g)"
     mask="url(#d)"
     transform="translate(-7.924097,-15.163238)"
     id="g107">
    <path
       d="M 37.671875,36.503906 V 122.50391 H 105.67188 V 36.503906 Z m 0,0"
       fill="url(#f)"
       id="path105"
       style="fill:url(#f)" />
  </g>
  <path
     d="m 79.492351,81.672654 v -2.936613 l 9.128914,-2.85404 10.094332,10.974932 -2.283102,5.332078 -5.845811,1.458574 z"
     fill="#865e3c"
     id="path3481-6"
     style="fill:#63452c;fill-opacity:1;stroke-width:1.33619" />
  <path
     d="m 92.092204,89.960619 3.625367,-0.656085 c 2.849553,-0.515686 5.479549,-1.696156 7.383659,0.4885 l 23.95142,26.252666 c 1.90411,2.18466 0.72821,5.63886 -1.44407,7.55382 l -3.93469,3.46861 c -2.17228,1.91497 -5.47954,1.69616 -7.38366,-0.4885 L 91.297144,100.19888 c -1.904115,-2.184663 -2.054493,-9.722575 0.79506,-10.238261 z"
     fill="url(#o)"
     id="path3455-5"
     style="fill:#c64600;fill-opacity:1;stroke-width:1" />
  <path
     d="m 80.492351,78.75717 8.128914,-6.790653 11.094332,12.97493 -2.283102,5.33208 -4.845811,1.458573 z"
     fill="#865e3c"
     id="path3481"
     style="fill:url(#linearGradient9646);fill-opacity:1;stroke-width:1.33619" />
  <path
     d="m 46.571014,87.220949 8.366305,-5.760327 c 1.252368,-0.862275 2.420387,-1.133364 3.245632,-0.317641 l 9.315034,9.207552 c 0.825244,0.815723 0.1681,7.78622 -1.064124,8.762029 l -7.86939,6.231838 c -1.232219,0.97581 -2.457042,1.21524 -3.244029,0.31983 L 46.378866,95.490738 c -0.786986,-0.895413 -1.06022,-7.407514 0.192148,-8.269789 z"
     fill="url(#m)"
     id="path3443-0-6"
     style="fill:#77767b;fill-opacity:1;stroke-width:1" />
  <rect
     style="fill:#77767b;fill-opacity:1;stroke:none;stroke-width:2;stroke-linecap:round;stroke-linejoin:round;stroke-miterlimit:4;stroke-dasharray:none;stroke-opacity:0.0901961;stop-color:#000000"
     id="rect17247"
     width="9.8034983"
     height="9.2865229"
     x="-7.8425727"
     y="101.87192"
     transform="rotate(-39.227198)" />
  <path
     d="m 47.067928,85.304354 7.869391,-6.937227 c 1.086139,-0.957482 2.539929,-1.077364 3.245632,-0.267686 l 8.941577,10.258978 c 0.705703,0.809678 0.395473,2.241605 -0.690667,3.199087 l -7.86939,6.937224 c -1.08614,0.95748 -2.538326,1.07921 -3.244029,0.26953 L 46.378866,88.505282 c -0.705703,-0.809678 -0.397077,-2.243446 0.689062,-3.200928 z m 0,0"
     fill="url(#m)"
     id="path3443-0"
     style="fill:url(#linearGradient7812);fill-opacity:1;stroke-width:1" />
  <path
     id="path3449-3"
     style="fill:#77767b;fill-opacity:1;stroke-width:1.3362"
     d="m 97.425781,55.003906 c 0,0 -11.27112,3.741754 -15.875,7.496094 -0.09821,0.06579 -0.193897,-1.865606 -0.285156,-1.785156 L 80.625,63.279297 c -0.0052,0.0046 -0.01045,0.0091 -0.01563,0.01367 l -2.294922,0.02344 -13.142162,8.248061 c -1.08614,0.957482 -0.862736,5.620837 0.06013,6.679674 l 5.851562,8.71289 c 0.925113,1.061413 2.554486,1.143029 3.640625,0.185547 l 15.738282,-13.875 c 1.08614,-0.957482 1.681167,-6.661575 0.756055,-7.722988 2.839738,-5.656075 10.28144,-5.211184 13.63066,-4.376624 l 1.10548,-8.722655 c -2.53953,-1.770289 -8.529319,-1.494919 -8.529304,1.558592 z" />
  <path
     id="path3449"
     style="fill:url(#linearGradient7310);fill-opacity:1;stroke-width:1.3362"
     d="m 97.425781,50.003906 c -5.45086,0.107793 -11.27112,2.741754 -15.875,6.496094 -0.09821,0.06579 -0.193897,0.134394 -0.285156,0.214844 L 80.625,57.279297 c -0.0052,0.0046 -0.01045,0.0091 -0.01563,0.01367 l -2.294922,2.023437 -12.787109,11.273438 c -1.08614,0.957482 -1.217789,2.59546 -0.294922,3.654297 l 5.851562,6.71289 c 0.925113,1.061413 2.554486,1.143029 3.640625,0.185547 l 15.738282,-13.875 c 1.08614,-0.957482 1.220033,-2.590931 0.294921,-3.652344 l -1.763671,-2.023437 c 5.526347,-4.730502 10.156867,-7.860036 15.855464,-6.423828 l 1.10547,-2.722657 c -2.53953,-1.770289 -5.47638,-2.501778 -8.529294,-2.441406 z" />
  <path
     d="m 83.742899,78.524324 c 1.811088,-1.596557 4.565537,-1.414323 6.153048,0.407083 l 20.693773,23.742683 c 1.58751,1.8214 1.40631,4.59155 -0.40477,6.1881 -1.81109,1.59656 -4.56554,1.41433 -6.15305,-0.40708 L 83.338122,84.712429 c -1.587511,-1.821406 -1.406311,-4.591549 0.404777,-6.188105 z m 0,0"
     fill="url(#n)"
     id="path3453"
     style="stroke-width:1.3362" />
  <path
     d="m 92.122439,89.129971 3.934695,-3.468614 c 2.17228,-1.914963 5.479546,-1.696156 7.383656,0.4885 l 22.99309,26.380753 c 1.90411,2.18466 1.68654,5.51077 -0.48574,7.42573 l -3.93469,3.46861 c -2.17228,1.91497 -5.47954,1.69616 -7.38366,-0.4885 L 91.636707,96.555698 c -1.904115,-2.184656 -1.686547,-5.510763 0.485732,-7.425727 z m 0,0"
     fill="url(#o)"
     id="path3455"
     style="fill:url(#linearGradient8760);fill-opacity:1;stroke-width:1" />
  <path
     d="m 115.48593,117.93358 4.91837,-4.33576 c 1.90074,-1.6756 4.7946,-1.48414 6.4607,0.42743 1.6661,1.91158 1.47573,4.82192 -0.42502,6.49751 l -4.91837,4.33577 c -1.90074,1.6756 -4.7946,1.48414 -6.4607,-0.42744 -1.6661,-1.91157 -1.47573,-4.82191 0.42502,-6.49751 z m 0,0"
     fill="#c64600"
     id="path3457"
     style="stroke-width:1.3362" />
  <g
     clip-path="url(#r)"
     mask="url(#q)"
     transform="matrix(0.65578252,-0.57810226,0.57482711,0.65951892,-9.9209278,99.7805)"
     id="g3461"
     style="stroke-width:1.14347">
    <path
       d="m 96,96 h 6 c 0.55078,0 1,0.449219 1,1 0,0.550781 -0.44922,1 -1,1 h -6 c -0.550781,0 -1,-0.449219 -1,-1 0,-0.550781 0.449219,-1 1,-1 z m 0,0"
       fill="#8f3200"
       id="path3459"
       style="stroke-width:1.5279" />
  </g>
  <g
     clip-path="url(#t)"
     mask="url(#s)"
     transform="matrix(0.65578252,-0.57810226,0.57482711,0.65951892,-9.9209278,99.7805)"
     id="g3465"
     style="stroke-width:1.14347">
    <path
       d="m 96,100 h 6 c 0.55078,0 1,0.44922 1,1 0,0.55078 -0.44922,1 -1,1 h -6 c -0.550781,0 -1,-0.44922 -1,-1 0,-0.55078 0.449219,-1 1,-1 z m 0,0"
       fill="#8f3200"
       id="path3463"
       style="stroke-width:1.5279" />
  </g>
  <g
     clip-path="url(#v)"
     mask="url(#u)"
     transform="matrix(0.65578252,-0.57810226,0.57482711,0.65951892,-9.9209278,99.7805)"
     id="g3469"
     style="stroke-width:1.14347">
    <path
       d="m 96,104 h 6 c 0.55078,0 1,0.44922 1,1 0,0.55078 -0.44922,1 -1,1 h -6 c -0.550781,0 -1,-0.44922 -1,-1 0,-0.55078 0.449219,-1 1,-1 z m 0,0"
       fill="#8f3200"
       id="path3467"
       style="stroke-width:1.5279" />
  </g>
</svg>
