<svg width="128" height="128" viewBox="0 0 128 128" fill="none" xmlns="http://www.w3.org/2000/svg">
<g filter="url(#filter0_ii_1139_34)">
<rect width="128" height="128" rx="24" fill="#268EF9"/>
</g>
<path fill-rule="evenodd" clip-rule="evenodd" d="M20.8158 27.4805C20 29.1457 20 31.3105 20 35.64V47.4557V81.6661V86.6122C20 90.9417 20 93.1065 20.8158 94.7717C21.5969 96.3661 22.8861 97.6553 24.4805 98.4364C24.8805 98.6324 25.3094 98.7813 25.7902 98.8944C26.0918 99.0768 26.4022 99.2464 26.7207 99.4024C29.2185 100.626 32.4657 100.626 38.96 100.626H88.9704C95.4647 100.626 98.7119 100.626 101.21 99.4024C103.601 98.2308 105.535 96.2969 106.707 93.9054C107.93 91.4075 107.93 88.1604 107.93 81.6661V47.4557C107.93 40.9614 107.93 37.7142 106.707 35.2164C105.535 32.8248 103.601 30.8909 101.21 29.7193C98.7119 28.4957 95.4647 28.4957 88.9704 28.4957H63.5318C63.4301 28.1316 63.3045 27.797 63.1494 27.4805C62.3684 25.8861 61.0791 24.5969 59.4847 23.8158C57.8195 23 55.6548 23 51.3252 23H32.64C28.3105 23 26.1457 23 24.4805 23.8158C22.8861 24.5969 21.5969 25.8861 20.8158 27.4805Z" fill="white" fill-opacity="0.5"/>
<rect x="20" y="40" width="88" height="66" rx="12" fill="white" fill-opacity="0.5"/>
<rect x="20" y="34" width="88" height="67" rx="12" fill="url(#paint0_linear_1139_34)"/>
<defs>
<filter id="filter0_ii_1139_34" x="0" y="0" width="128" height="129" filterUnits="userSpaceOnUse" color-interpolation-filters="sRGB">
<feFlood flood-opacity="0" result="BackgroundImageFix"/>
<feBlend mode="normal" in="SourceGraphic" in2="BackgroundImageFix" result="shape"/>
<feColorMatrix in="SourceAlpha" type="matrix" values="0 0 0 0 0 0 0 0 0 0 0 0 0 0 0 0 0 0 127 0" result="hardAlpha"/>
<feOffset dy="-4"/>
<feComposite in2="hardAlpha" operator="arithmetic" k2="-1" k3="1"/>
<feColorMatrix type="matrix" values="0 0 0 0 0 0 0 0 0 0 0 0 0 0 0 0 0 0 0.25 0"/>
<feBlend mode="normal" in2="shape" result="effect1_innerShadow_1139_34"/>
<feColorMatrix in="SourceAlpha" type="matrix" values="0 0 0 0 0 0 0 0 0 0 0 0 0 0 0 0 0 0 127 0" result="hardAlpha"/>
<feMorphology radius="1" operator="erode" in="SourceAlpha" result="effect2_innerShadow_1139_34"/>
<feOffset dy="2"/>
<feComposite in2="hardAlpha" operator="arithmetic" k2="-1" k3="1"/>
<feColorMatrix type="matrix" values="0 0 0 0 1 0 0 0 0 1 0 0 0 0 1 0 0 0 0.25 0"/>
<feBlend mode="normal" in2="effect1_innerShadow_1139_34" result="effect2_innerShadow_1139_34"/>
</filter>
<linearGradient id="paint0_linear_1139_34" x1="33.5" y1="34" x2="94.5" y2="101" gradientUnits="userSpaceOnUse">
<stop stop-color="white"/>
<stop offset="1" stop-color="#F0F0F2"/>
</linearGradient>
</defs>
</svg>
