<?xml version="1.0" encoding="UTF-8" standalone="no"?>
<svg
   height="128px"
   viewBox="0 0 128 128"
   width="128px"
   version="1.1"
   id="svg82"
   xmlns="http://www.w3.org/2000/svg"
   xmlns:svg="http://www.w3.org/2000/svg">
  <defs
     id="defs86" />
  <linearGradient
     id="a"
     gradientUnits="userSpaceOnUse"
     x1="27.352268"
     x2="101.485138"
     y1="12.492706"
     y2="106.849396">
    <stop
       offset="0"
       stop-color="#deddda"
       id="stop2"
       style="stop-color:#d0d0d0;stop-opacity:1" />
    <stop
       offset="1"
       stop-color="#77767b"
       id="stop4"
       style="stop-color:#808080;stop-opacity:1" />
  </linearGradient>
  <linearGradient
     id="b"
     gradientUnits="userSpaceOnUse"
     x1="195.106672"
     x2="272.192222"
     y1="-33.29364"
     y2="-90.240936">
    <stop
       offset="0"
       stop-color="#77767b"
       id="stop7"
       style="stop-color:#a5a5a5;stop-opacity:1" />
    <stop
       offset="0.0384615"
       stop-color="#c0bfbc"
       id="stop9"
       style="stop-color:#c2c2c2;stop-opacity:1" />
    <stop
       offset="0.0768555"
       stop-color="#9a9996"
       id="stop11"
       style="stop-color:#a5a5a5;stop-opacity:1" />
    <stop
       offset="0.923077"
       stop-color="#9a9996"
       id="stop13"
       style="stop-color:#a5a5a5;stop-opacity:1" />
    <stop
       offset="0.961538"
       stop-color="#c0bfbc"
       id="stop15"
       style="stop-color:#c2c2c2;stop-opacity:1" />
    <stop
       offset="1"
       stop-color="#77767b"
       id="stop17"
       style="stop-color:#a5a5a5;stop-opacity:1" />
  </linearGradient>
  <filter
     id="c"
     height="1"
     width="1"
     x="0"
     y="0">
    <feColorMatrix
       in="SourceGraphic"
       type="matrix"
       values="0 0 0 0 1 0 0 0 0 1 0 0 0 0 1 0 0 0 1 0"
       id="feColorMatrix20" />
  </filter>
  <mask
     id="d">
    <g
       filter="url(#c)"
       id="g25">
      <rect
         fill-opacity="0.7"
         height="128"
         width="128"
         id="rect23" />
    </g>
  </mask>
  <clipPath
     id="e">
    <rect
       height="152"
       width="192"
       id="rect28" />
  </clipPath>
  <mask
     id="f">
    <g
       filter="url(#c)"
       id="g33">
      <rect
         fill-opacity="0.7"
         height="128"
         width="128"
         id="rect31" />
    </g>
  </mask>
  <clipPath
     id="g">
    <rect
       height="152"
       width="192"
       id="rect36" />
  </clipPath>
  <mask
     id="h">
    <g
       filter="url(#c)"
       id="g41">
      <rect
         fill-opacity="0.7"
         height="128"
         width="128"
         id="rect39" />
    </g>
  </mask>
  <clipPath
     id="i">
    <rect
       height="152"
       width="192"
       id="rect44" />
  </clipPath>
  <mask
     id="j">
    <g
       filter="url(#c)"
       id="g49">
      <rect
         fill-opacity="0.3"
         height="128"
         width="128"
         id="rect47" />
    </g>
  </mask>
  <radialGradient
     id="k"
     cx="208.001953"
     cy="-42.613281"
     gradientTransform="matrix(-0.00405481,1.393184,-1.303357,-0.00379337,-4.083605,-237.94468)"
     gradientUnits="userSpaceOnUse"
     r="48">
    <stop
       offset="0"
       stop-color="#ffffff"
       id="stop52" />
    <stop
       offset="1"
       stop-color="#f6f5f4"
       stop-opacity="0"
       id="stop54" />
  </radialGradient>
  <clipPath
     id="l">
    <rect
       height="152"
       width="192"
       id="rect57" />
  </clipPath>
  <path
     d="m 124 64 c 0 33.136719 -26.863281 60 -60 60 s -60 -26.863281 -60 -60 s 26.863281 -60 60 -60 s 60 26.863281 60 60 z m 0 0"
     fill="#5e5c64"
     id="path60"
     style="fill:#808080" />
  <path
     d="m 124 60 c 0 33.136719 -26.863281 60 -60 60 s -60 -26.863281 -60 -60 s 26.863281 -60 60 -60 s 60 26.863281 60 60 z m 0 0"
     fill="url(#a)"
     id="path62" />
  <path
     d="m 280 -64 c 0 26.507813 -21.492188 48 -48 48 s -48 -21.492187 -48 -48 c 0 -26.507812 21.492188 -48 48 -48 s 48 21.492188 48 48 z m 0 0"
     stroke="url(#b)"
     stroke-linecap="round"
     stroke-linejoin="round"
     transform="matrix(0 1 -1 0 0 -172)"
     id="path64"
     style="fill:#2d2d2d" />
  <g
     clip-path="url(#e)"
     mask="url(#d)"
     transform="matrix(1 0 0 1 -8 -16)"
     id="g68"
     style="fill:#268ef9;fill-opacity:1">
    <path
       d="m 95.949219 77.835938 c 0.492187 -6.507813 -1.660157 -13.136719 -6.320313 -18.171876 c -7.453125 -8.058593 -19.460937 -10.03125 -29.101562 -4.789062 c -9.640625 5.246094 -14.507813 16.40625 -11.804688 27.046875 s 12.304688 18.117187 23.277344 18.117187 c 1.582031 0 2.867188 -1.285156 2.867188 -2.863281 c 0 -1.585937 -1.28125 -2.867187 -2.867188 -2.867187 c -8.378906 0 -15.660156 -5.667969 -17.722656 -13.796875 c -2.066406 -8.132813 1.625 -16.597657 8.988281 -20.605469 c 7.363281 -4.003906 16.464844 -2.507812 22.15625 3.648438 c 5.695313 6.15625 6.492187 15.359374 1.933594 22.402343 c -0.859375 1.324219 -0.480469 3.097657 0.847656 3.957031 c 1.328125 0.859376 3.101563 0.480469 3.960937 -0.847656 c 2.238282 -3.457031 3.488282 -7.320312 3.785157 -11.230468 z m 0 0"
       fill="#99c1f1"
       id="path66"
       style="fill:#268ef9;fill-opacity:1" />
  </g>
  <g
     clip-path="url(#g)"
     mask="url(#f)"
     transform="matrix(1 0 0 1 -8 -16)"
     id="g72"
     style="fill:#db2860;fill-opacity:1">
    <path
       d="m 74.96875 43.414062 c -8.726562 -0.675781 -17.613281 2.257813 -24.355469 8.585938 c -10.789062 10.132812 -13.421875 26.390625 -6.40625 39.476562 c 7.019531 13.082032 21.96875 19.714844 36.238281 16.035157 c 14.269532 -3.675781 24.253907 -16.714844 24.253907 -31.597657 c 0 -1.488281 -1.207031 -2.695312 -2.695313 -2.695312 c -1.488281 0 -2.695312 1.207031 -2.691406 2.695312 c 0 12.480469 -8.328125 23.320313 -20.214844 26.386719 c -11.882812 3.0625 -24.265625 -2.417969 -30.140625 -13.371093 c -5.875 -10.953126 -3.667969 -24.539063 5.34375 -33.003907 c 9.011719 -8.460937 22.460938 -9.632812 32.761719 -2.867187 c 1.242188 0.816406 2.914062 0.472656 3.730469 -0.773438 c 0.816406 -1.242187 0.46875 -2.914062 -0.773438 -3.730468 c -4.628906 -3.039063 -9.8125 -4.738282 -15.050781 -5.140626 z m 0 0"
       fill="#f66151"
       id="path70"
       style="fill:#db2860;fill-opacity:1" />
  </g>
  <g
     clip-path="url(#i)"
     mask="url(#h)"
     transform="matrix(1 0 0 1 -8 -16)"
     id="g76"
     style="fill:#56bfa6;fill-opacity:1">
    <path
       d="m 69.023438 115.335938 c 10.53125 0.8125 21.25 -2.730469 29.390624 -10.394532 c 13.027344 -12.257812 16.207032 -31.929687 7.730469 -47.769531 c -8.472656 -15.839844 -26.503906 -23.855469 -43.726562 -19.402344 c -17.226563 4.453125 -29.277344 20.214844 -29.277344 38.234375 c 0 0.574219 0.226563 1.125 0.632813 1.53125 s 0.957031 0.632813 1.53125 0.632813 c 1.195312 0 2.164062 -0.96875 2.164062 -2.164063 c 0 -16.09375 10.722656 -30.09375 26.03125 -34.046875 c 15.304688 -3.953125 31.273438 3.125 38.832031 17.253907 c 7.558594 14.132812 4.722657 31.664062 -6.878906 42.582031 c -11.605469 10.917969 -28.949219 12.433593 -42.214844 3.703125 c -0.996093 -0.65625 -2.339843 -0.378906 -2.996093 0.617187 c -0.65625 0.996094 -0.378907 2.339844 0.617187 2.996094 c 5.589844 3.679687 11.84375 5.738281 18.164063 6.226563 z m 0 0"
       fill="#8ff0a4"
       id="path74"
       style="fill:#56bfa6;fill-opacity:1" />
  </g>
  <g
     clip-path="url(#l)"
     mask="url(#j)"
     transform="translate(-8,-16)"
     id="g80">
    <path
       d="M 72,124 C 45.492188,124 24,102.50781 24,76 24,49.492188 45.492188,28 72,28 c 26.507812,0 48,21.492188 48,48 0,26.50781 -21.492188,48 -48,48 z m 0,0"
       fill="url(#k)"
       id="path78"
       style="fill:url(#k)" />
  </g>
</svg>
