<?xml version="1.0" encoding="UTF-8" standalone="no"?>
<svg
   height="128px"
   viewBox="0 0 128 128"
   width="128px"
   version="1.1"
   id="svg29"
   xmlns="http://www.w3.org/2000/svg"
   xmlns:svg="http://www.w3.org/2000/svg">
  <defs
     id="defs33" />
  <linearGradient
     id="a"
     gradientUnits="userSpaceOnUse"
     x1="8.0000315"
     x2="120.0000315"
     y1="119.999977"
     y2="119.999977">
    <stop
       offset="0"
       stop-color="#1a5fb4"
       id="stop2" />
    <stop
       offset="0.0357143"
       stop-color="#1c71d8"
       id="stop4" />
    <stop
       offset="0.0713653"
       stop-color="#1a5fb4"
       id="stop6" />
    <stop
       offset="0.928571"
       stop-color="#1a5fb4"
       id="stop8" />
    <stop
       offset="0.964286"
       stop-color="#1c71d8"
       id="stop10" />
    <stop
       offset="1"
       stop-color="#1a5fb4"
       id="stop12" />
  </linearGradient>
  <path
     id="path17-6"
     style="fill:#0674e6;stroke-width:0.999998"
     d="m 19,10 c -4,0 -7.000001,3.059407 -7.000001,10.267328 V 33.653467 C 11.999999,38.115513 13.2,103 13.2,103 c 1,8 3.898039,12 10.015685,12 h 82.588235 c 5.09804,0 7.99608,-4 8.99608,-12 L 115,35 c -2e-5,-11.821279 -4,-15 -9,-15 L 62.98039,20.267328 C 62.941908,13.241497 60,10 56,10 Z" />
  <rect
     style="fill:#f0f0f2;stroke:none;stroke-width:1.0001;stroke-linecap:round;stroke-linejoin:round;stroke-opacity:1;stop-color:#000000"
     id="rect6832-3"
     width="84"
     height="71.867851"
     x="21.999998"
     y="-99.867821"
     rx="6.0000005"
     ry="5.9999995"
     transform="scale(1,-1)" />
  <path
     d="M 14.151172,36.963536 H 111.87436 C 115.94545,36.963326 119,40.809491 119,44.655656 l -4.07273,57.727734 c 0,4.79008 -5.0909,9.58014 -10.18182,9.58014 H 23.29091 c -5.090911,0 -10.181822,-4.79006 -10.181822,-9.58014 L 6.9999962,44.655656 c 0,-3.846165 3.0545458,-7.69233 7.1511758,-7.69212 z"
     fill="#3584e4"
     id="path25"
     style="mix-blend-mode:normal;fill:#58a8fa;fill-opacity:1;stroke:none;stroke-width:1.0001;stroke-opacity:1" />
</svg>
