<?xml version="1.0" encoding="UTF-8" standalone="no"?>
<svg
   width="128"
   height="128"
   version="1.0"
   id="svg71"
   xmlns:xlink="http://www.w3.org/1999/xlink"
   xmlns="http://www.w3.org/2000/svg"
   xmlns:svg="http://www.w3.org/2000/svg">
  <defs
     id="defs31">
    <linearGradient
       xlink:href="#d"
       id="e"
       x1="28"
       y1="-274"
       x2="116"
       y2="-274"
       gradientUnits="userSpaceOnUse"
       gradientTransform="matrix(1.1818182,0,0,0.92857143,-149.09091,155.14286)" />
    <linearGradient
       id="d">
      <stop
         offset="0"
         stop-color="#c0bfbc"
         id="stop18"
         style="stop-color:#ed333b;stop-opacity:1" />
      <stop
         offset=".045"
         stop-color="#f6f5f4"
         id="stop20"
         style="stop-color:#f66151;stop-opacity:1" />
      <stop
         offset=".091"
         stop-color="#deddda"
         id="stop22"
         style="stop-color:#ed333b;stop-opacity:1" />
      <stop
         offset=".909"
         stop-color="#deddda"
         id="stop24"
         style="stop-color:#ed333b;stop-opacity:1" />
      <stop
         offset=".955"
         stop-color="#f6f5f4"
         id="stop26"
         style="stop-color:#f66151;stop-opacity:1" />
      <stop
         offset="1"
         stop-color="#c0bfbc"
         id="stop28"
         style="stop-color:#ed333b;stop-opacity:1" />
    </linearGradient>
  </defs>
  <rect
     ry="8"
     rx="8"
     y="-116"
     x="-116"
     height="37.142857"
     width="104"
     style="fill:url(#e);stroke-width:1;marker:none"
     transform="scale(-1)"
     fill="url(#e)"
     id="rect35" />
  <rect
     width="104"
     height="96.571426"
     x="12"
     y="12"
     rx="8"
     ry="8"
     fill="#f6f5f4"
     id="rect37"
     style="fill:#f66151;stroke-width:1;fill-opacity:1" />
  <path
     d="M 32.002081,84.285713 C 42.9692,80.650092 53.239088,72.543543 62.253012,64.3007 c 3.04219,-2.785002 5.991489,-5.892505 7.84721,-9.880007 0.928909,-1.995002 1.56437,-4.195003 1.7396,-6.462504 0.173109,-2.267501 -0.1309,-4.602503 -0.98803,-6.640005 -0.752463,-1.753527 -1.85824,-3.260454 -3.219531,-4.387503 -1.360692,-1.122808 -2.901099,-1.903845 -4.526339,-2.295002 -3.236416,-0.800001 -6.637505,-0.159999 -9.730363,1.225002 -3.719877,1.6725 -7.123076,4.462503 -9.515027,8.227504 -2.394063,3.767504 -3.72832,8.530007 -3.42009,13.23001 0.202672,3.045002 1.083029,6.012502 2.440507,8.610006 1.35748,2.600002 3.185751,4.837504 5.269472,6.640005 4.169553,3.605002 9.278576,5.427507 14.398149,6.205001 C 74.20221,80.538213 86.373083,76.98571 96,69.010704 l -0.05069,-12.97001 c -7.545304,9.857507 -18.276365,16.207512 -29.463435,17.437512 -4.828238,0.530001 -9.859148,0.0975 -14.220817,-2.415001 -2.180834,-1.255001 -4.16533,-3.025003 -5.68326,-5.265003 -1.52004,-2.237502 -2.562955,-4.950005 -2.86063,-7.800006 -0.434899,-4.157505 0.755797,-8.450006 2.951411,-11.735009 2.195613,-3.285001 5.334917,-5.597503 8.712783,-6.850003 1.864158,-0.687501 3.838101,-1.072502 5.77615,-0.777501 1.935942,0.295 3.835993,1.317501 5.098462,3.082501 1.021811,1.430001 1.583381,3.282503 1.680491,5.152505 0.0992,1.87 -0.247,3.752502 -0.87613,5.472502 -1.25615,3.437502 -3.574212,6.160005 -5.936601,8.650007 -8.5891,9.049106 -18.445381,18.25461 -29.125653,23.292515 z"
     style="fill:#deddda;fill-opacity:1;stroke-width:1;marker:none"
     color="#000000"
     overflow="visible"
     fill="#ffffff"
     id="path61-3" />
  <path
     d="M 32,84.285713 A 88.557084,104.86757 0 0 0 62.253012,66.3007 c 3.04219,-2.785002 5.991489,-5.892505 7.84721,-9.880007 0.928909,-1.995002 1.56437,-4.195003 1.7396,-6.462504 0.173109,-2.267501 -0.1309,-4.602503 -0.98803,-6.640005 a 10.108264,11.970008 0 0 0 -3.219531,-4.387503 12.149762,14.38751 0 0 0 -4.526339,-2.295002 c -3.236416,-0.800001 -6.637505,-0.159999 -9.730363,1.225002 -3.719877,1.6725 -7.123076,4.462503 -9.515027,8.227504 -2.394063,3.767504 -3.72832,8.530007 -3.42009,13.23001 0.202672,3.045002 1.083029,6.012502 2.440507,8.610006 1.35748,2.600002 3.185751,4.837504 5.269472,6.640005 4.169553,3.605002 9.278576,5.427507 14.398149,6.205001 C 74.20221,82.538213 86.373083,78.98571 96,71.010704 l -0.05069,-12.97001 c -7.545304,9.857507 -18.276365,16.207512 -29.463435,17.437512 -4.828238,0.530001 -9.859148,0.0975 -14.220817,-2.415001 -2.180834,-1.255001 -4.16533,-3.025003 -5.68326,-5.265003 -1.52004,-2.237502 -2.562955,-4.950005 -2.86063,-7.800006 -0.434899,-4.157505 0.755797,-8.450006 2.951411,-11.735009 2.195613,-3.285001 5.334917,-5.597503 8.712783,-6.850003 1.864158,-0.687501 3.838101,-1.072502 5.77615,-0.777501 1.935942,0.295 3.835993,1.317501 5.098462,3.082501 1.021811,1.430001 1.583381,3.282503 1.680491,5.152505 0.0992,1.87 -0.247,3.752502 -0.87613,5.472502 -1.25615,3.437502 -3.574212,6.160005 -5.936601,8.650007 A 98.851135,117.05758 0 0 1 32.002081,84.285713 Z"
     style="stroke-width:1;marker:none;fill:#ffffff;fill-opacity:1"
     color="#000000"
     overflow="visible"
     fill="#ffffff"
     id="path61" />
</svg>
