<?xml version="1.0" encoding="UTF-8"?>
<svg height="128px" viewBox="0 0 128 128" width="128px" xmlns="http://www.w3.org/2000/svg">
    <path d="m 119.460938 54.363281 c 0 23 -19.25 41.644531 -43 41.644531 s -43 -18.644531 -43 -41.644531 s 19.25 -41.644531 43 -41.644531 s 43 18.644531 43 41.644531 z m 0 0" fill="#e5a50a"/>
    <path d="m 119.460938 51.652344 c 0 23 -19.25 41.644531 -43 41.644531 s -43 -18.644531 -43 -41.644531 s 19.25 -41.644532 43 -41.644532 s 43 18.644532 43 41.644532 z m 0 0" fill="#f6d32d"/>
    <g fill-opacity="0.8">
        <path d="m 48.488281 46.980469 c -19.878906 0 -35.996093 15.851562 -35.992187 35.40625 c 0 19.550781 16.113281 35.402343 35.992187 35.402343 c 5.464844 -0.019531 10.851563 -1.257812 15.753907 -3.628906 c 3.25 2.71875 7.378906 4.214844 11.644531 4.21875 c 9.9375 0 17.996093 -7.925781 17.996093 -17.703125 c -0.019531 -6.546875 -3.710937 -12.546875 -9.597656 -15.601562 c 0.101563 -0.894531 0.167969 -1.789063 0.199219 -2.6875 c 0 -19.554688 -16.117187 -35.40625 -35.996094 -35.40625 z m 0 0" fill="#c1c0bd"/>
        <path d="m 48.488281 44.980469 c -19.878906 0 -35.996093 15.851562 -35.992187 35.40625 c 0 19.550781 16.113281 35.402343 35.992187 35.402343 c 5.464844 -0.019531 10.851563 -1.257812 15.753907 -3.628906 c 3.25 2.71875 7.378906 4.214844 11.644531 4.21875 c 9.9375 0 17.996093 -7.925781 17.996093 -17.703125 c -0.019531 -6.546875 -3.710937 -12.546875 -9.597656 -15.601562 c 0.101563 -0.894531 0.167969 -1.789063 0.199219 -2.6875 c 0 -19.554688 -16.117187 -35.40625 -35.996094 -35.40625 z m 0 0" fill="#ffffff"/>
    </g>
</svg>
