<svg width="128" height="128" viewBox="0 0 128 128" fill="none" xmlns="http://www.w3.org/2000/svg">
<g filter="url(#filter0_ii_314_33)">
<rect x="12" y="12" width="104" height="104" rx="24" fill="url(#paint0_linear_314_33)"/>
<rect x="12" y="12" width="104" height="104" rx="24" fill="url(#paint1_linear_314_33)"/>
</g>
<g filter="url(#filter1_d_314_33)">
<rect x="28" y="28" width="72" height="72" rx="12" fill="#2D2D2D"/>
</g>
<rect x="37.5" y="41.5" width="20" height="4" rx="2" fill="#8AC2FB" stroke="#8AC2FB"/>
<rect x="46.5" y="51.5" width="44" height="4" rx="2" fill="#8AC2FB" stroke="#8AC2FB"/>
<rect x="46.5" y="60.5" width="44" height="4" rx="2" fill="#8AC2FB" stroke="#8AC2FB"/>
<rect x="46.5" y="69.5" width="44" height="4" rx="2" fill="#8AC2FB" stroke="#8AC2FB"/>
<rect x="37.5" y="81.5" width="8" height="4" rx="2" fill="#8AC2FB" stroke="#8AC2FB"/>
<rect x="63.5" y="41.5" width="20" height="4" rx="2" fill="#8AC2FB" stroke="#8AC2FB"/>
<g filter="url(#filter2_d_314_33)">
<g filter="url(#filter3_i_314_33)">
<rect x="62.3567" y="67.6992" width="8" height="48.6487" rx="4" transform="rotate(-45 62.3567 67.6992)" fill="#AAAAAA"/>
</g>
<g filter="url(#filter4_i_314_33)">
<rect x="74.1757" y="84.5466" width="16" height="48.6487" rx="4" transform="rotate(-45 74.1757 84.5466)" fill="#268EF9"/>
<rect x="74.1757" y="84.5466" width="16" height="48.6487" rx="4" transform="rotate(-45 74.1757 84.5466)" fill="url(#paint2_linear_314_33)"/>
</g>
<rect x="42.0675" y="76.7522" width="20" height="13.5" rx="6" transform="rotate(-45 42.0675 76.7522)" fill="#ABABB6"/>
<g filter="url(#filter5_i_314_33)">
<path fill-rule="evenodd" clip-rule="evenodd" d="M40.2998 78.7557C38.4774 76.9332 38.4774 73.9785 40.2998 72.156C42.1223 70.3336 45.077 70.3336 46.8995 72.156L57.2704 82.5269C59.0928 84.3493 59.0928 87.3041 57.2704 89.1266C55.4479 90.949 52.4932 90.949 50.6707 89.1266L40.2998 78.7557ZM51.6135 69.3276C49.2704 66.9844 49.2704 63.1854 51.6136 60.8423L61.0416 51.4142C63.3848 49.0711 67.1838 49.0711 69.5269 51.4142L72.7089 54.5961L74.1231 53.182C76.4662 50.8388 80.2652 50.8388 82.6083 53.182L83.669 54.2426C86.0122 56.5858 86.0122 60.3847 83.669 62.7279L78.0296 68.3673C78.0238 68.3731 78.018 68.3789 78.0122 68.3848L68.5841 77.8129C66.241 80.156 62.442 80.156 60.0988 77.8129L51.6135 69.3276Z" fill="#CDCDD4"/>
<path fill-rule="evenodd" clip-rule="evenodd" d="M40.2998 78.7557C38.4774 76.9332 38.4774 73.9785 40.2998 72.156C42.1223 70.3336 45.077 70.3336 46.8995 72.156L57.2704 82.5269C59.0928 84.3493 59.0928 87.3041 57.2704 89.1266C55.4479 90.949 52.4932 90.949 50.6707 89.1266L40.2998 78.7557ZM51.6135 69.3276C49.2704 66.9844 49.2704 63.1854 51.6136 60.8423L61.0416 51.4142C63.3848 49.0711 67.1838 49.0711 69.5269 51.4142L72.7089 54.5961L74.1231 53.182C76.4662 50.8388 80.2652 50.8388 82.6083 53.182L83.669 54.2426C86.0122 56.5858 86.0122 60.3847 83.669 62.7279L78.0296 68.3673C78.0238 68.3731 78.018 68.3789 78.0122 68.3848L68.5841 77.8129C66.241 80.156 62.442 80.156 60.0988 77.8129L51.6135 69.3276Z" fill="url(#paint3_linear_314_33)"/>
</g>
</g>
<defs>
<filter id="filter0_ii_314_33" x="12" y="12" width="104" height="108" filterUnits="userSpaceOnUse" color-interpolation-filters="sRGB">
<feFlood flood-opacity="0" result="BackgroundImageFix"/>
<feBlend mode="normal" in="SourceGraphic" in2="BackgroundImageFix" result="shape"/>
<feColorMatrix in="SourceAlpha" type="matrix" values="0 0 0 0 0 0 0 0 0 0 0 0 0 0 0 0 0 0 127 0" result="hardAlpha"/>
<feOffset dy="-4"/>
<feComposite in2="hardAlpha" operator="arithmetic" k2="-1" k3="1"/>
<feColorMatrix type="matrix" values="0 0 0 0 0.176471 0 0 0 0 0.176471 0 0 0 0 0.176471 0 0 0 0.1 0"/>
<feBlend mode="normal" in2="shape" result="effect1_innerShadow_314_33"/>
<feColorMatrix in="SourceAlpha" type="matrix" values="0 0 0 0 0 0 0 0 0 0 0 0 0 0 0 0 0 0 127 0" result="hardAlpha"/>
<feOffset dy="4"/>
<feGaussianBlur stdDeviation="4"/>
<feComposite in2="hardAlpha" operator="arithmetic" k2="-1" k3="1"/>
<feColorMatrix type="matrix" values="0 0 0 0 0.941176 0 0 0 0 0.941176 0 0 0 0 0.94902 0 0 0 0.2 0"/>
<feBlend mode="normal" in2="effect1_innerShadow_314_33" result="effect2_innerShadow_314_33"/>
</filter>
<filter id="filter1_d_314_33" x="20" y="24" width="88" height="88" filterUnits="userSpaceOnUse" color-interpolation-filters="sRGB">
<feFlood flood-opacity="0" result="BackgroundImageFix"/>
<feColorMatrix in="SourceAlpha" type="matrix" values="0 0 0 0 0 0 0 0 0 0 0 0 0 0 0 0 0 0 127 0" result="hardAlpha"/>
<feOffset dy="4"/>
<feGaussianBlur stdDeviation="4"/>
<feComposite in2="hardAlpha" operator="out"/>
<feColorMatrix type="matrix" values="0 0 0 0 0.176471 0 0 0 0 0.176471 0 0 0 0 0.176471 0 0 0 0.25 0"/>
<feBlend mode="normal" in2="BackgroundImageFix" result="effect1_dropShadow_314_33"/>
<feBlend mode="normal" in="SourceGraphic" in2="effect1_dropShadow_314_33" result="shape"/>
</filter>
<filter id="filter2_d_314_33" x="30.933" y="43.6568" width="95.2993" height="83.6327" filterUnits="userSpaceOnUse" color-interpolation-filters="sRGB">
<feFlood flood-opacity="0" result="BackgroundImageFix"/>
<feColorMatrix in="SourceAlpha" type="matrix" values="0 0 0 0 0 0 0 0 0 0 0 0 0 0 0 0 0 0 127 0" result="hardAlpha"/>
<feOffset dy="2"/>
<feGaussianBlur stdDeviation="4"/>
<feComposite in2="hardAlpha" operator="out"/>
<feColorMatrix type="matrix" values="0 0 0 0 0.176471 0 0 0 0 0.176471 0 0 0 0 0.176471 0 0 0 0.25 0"/>
<feBlend mode="normal" in2="BackgroundImageFix" result="effect1_dropShadow_314_33"/>
<feBlend mode="normal" in="SourceGraphic" in2="effect1_dropShadow_314_33" result="shape"/>
</filter>
<filter id="filter3_i_314_33" x="64.0135" y="59.6992" width="36.7429" height="40.7429" filterUnits="userSpaceOnUse" color-interpolation-filters="sRGB">
<feFlood flood-opacity="0" result="BackgroundImageFix"/>
<feBlend mode="normal" in="SourceGraphic" in2="BackgroundImageFix" result="shape"/>
<feColorMatrix in="SourceAlpha" type="matrix" values="0 0 0 0 0 0 0 0 0 0 0 0 0 0 0 0 0 0 127 0" result="hardAlpha"/>
<feOffset dy="-4"/>
<feGaussianBlur stdDeviation="2"/>
<feComposite in2="hardAlpha" operator="arithmetic" k2="-1" k3="1"/>
<feColorMatrix type="matrix" values="0 0 0 0 0 0 0 0 0 0 0 0 0 0 0 0 0 0 0.25 0"/>
<feBlend mode="normal" in2="shape" result="effect1_innerShadow_314_33"/>
</filter>
<filter id="filter4_i_314_33" x="75.8325" y="74.8897" width="42.3998" height="42.3998" filterUnits="userSpaceOnUse" color-interpolation-filters="sRGB">
<feFlood flood-opacity="0" result="BackgroundImageFix"/>
<feBlend mode="normal" in="SourceGraphic" in2="BackgroundImageFix" result="shape"/>
<feColorMatrix in="SourceAlpha" type="matrix" values="0 0 0 0 0 0 0 0 0 0 0 0 0 0 0 0 0 0 127 0" result="hardAlpha"/>
<feOffset dy="-4"/>
<feComposite in2="hardAlpha" operator="arithmetic" k2="-1" k3="1"/>
<feColorMatrix type="matrix" values="0 0 0 0 0 0 0 0 0 0 0 0 0 0 0 0 0 0 0.1 0"/>
<feBlend mode="normal" in2="shape" result="effect1_innerShadow_314_33"/>
</filter>
<filter id="filter5_i_314_33" x="38.933" y="49.6568" width="46.4934" height="40.8366" filterUnits="userSpaceOnUse" color-interpolation-filters="sRGB">
<feFlood flood-opacity="0" result="BackgroundImageFix"/>
<feBlend mode="normal" in="SourceGraphic" in2="BackgroundImageFix" result="shape"/>
<feColorMatrix in="SourceAlpha" type="matrix" values="0 0 0 0 0 0 0 0 0 0 0 0 0 0 0 0 0 0 127 0" result="hardAlpha"/>
<feOffset dy="-4"/>
<feComposite in2="hardAlpha" operator="arithmetic" k2="-1" k3="1"/>
<feColorMatrix type="matrix" values="0 0 0 0 0 0 0 0 0 0 0 0 0 0 0 0 0 0 0.25 0"/>
<feBlend mode="normal" in2="shape" result="effect1_innerShadow_314_33"/>
</filter>
<linearGradient id="paint0_linear_314_33" x1="64" y1="12" x2="64" y2="116" gradientUnits="userSpaceOnUse">
<stop stop-color="#828292"/>
<stop offset="1" stop-color="#6A6A6A"/>
</linearGradient>
<linearGradient id="paint1_linear_314_33" x1="64" y1="12" x2="64" y2="116" gradientUnits="userSpaceOnUse">
<stop stop-color="#2D2D2D" stop-opacity="0"/>
<stop offset="1" stop-color="#2D2D2D" stop-opacity="0.2"/>
</linearGradient>
<linearGradient id="paint2_linear_314_33" x1="82.1757" y1="84.5466" x2="82.1757" y2="133.195" gradientUnits="userSpaceOnUse">
<stop stop-color="#2D2D2D" stop-opacity="0"/>
<stop offset="1" stop-color="#2D2D2D" stop-opacity="0.2"/>
</linearGradient>
<linearGradient id="paint3_linear_314_33" x1="53.9706" y1="58.4853" x2="70.9411" y2="75.4558" gradientUnits="userSpaceOnUse">
<stop stop-color="#2D2D2D" stop-opacity="0"/>
<stop offset="1" stop-color="#2D2D2D" stop-opacity="0.2"/>
</linearGradient>
</defs>
</svg>
