<?xml version="1.0" encoding="UTF-8" standalone="no"?>
<svg
   height="128px"
   viewBox="0 0 128 128"
   width="128px"
   version="1.1"
   id="svg63"
   xmlns="http://www.w3.org/2000/svg"
   xmlns:svg="http://www.w3.org/2000/svg">
  <defs
     id="defs67" />
  <linearGradient
     id="a"
     gradientTransform="matrix(0.196428 0 0 0.342105 2.59731 273.740936)"
     gradientUnits="userSpaceOnUse"
     x1="88.595886"
     x2="536.595886"
     y1="-449.394012"
     y2="-449.394012">
    <stop
       offset="0"
       stop-color="#77767b"
       id="stop2"
       style="stop-color:#808080;stop-opacity:1" />
    <stop
       offset="0.0500001"
       stop-color="#c0bfbc"
       id="stop4"
       style="stop-color:#c2c2c2;stop-opacity:1" />
    <stop
       offset="0.099807"
       stop-color="#9a9996"
       id="stop6"
       style="stop-color:#808080;stop-opacity:1" />
    <stop
       offset="0.900001"
       stop-color="#9a9996"
       id="stop8"
       style="stop-color:#808080;stop-opacity:1" />
    <stop
       offset="0.950001"
       stop-color="#c0bfbc"
       id="stop10"
       style="stop-color:#c2c2c2;stop-opacity:1" />
    <stop
       offset="1"
       stop-color="#77767b"
       id="stop12"
       style="stop-color:#808080;stop-opacity:1" />
  </linearGradient>
  <linearGradient
     id="b"
     gradientUnits="userSpaceOnUse"
     x1="64"
     x2="63.999874"
     y1="8.494965"
     y2="116.000488">
    <stop
       offset="0"
       stop-color="#deddda"
       id="stop15" />
    <stop
       offset="1"
       stop-color="#c0bfbc"
       id="stop17" />
  </linearGradient>
  <linearGradient
     id="c"
     gradientTransform="matrix(1 0 0 -1 0 270)"
     gradientUnits="userSpaceOnUse"
     x1="66.148964"
     x2="65.936012"
     y1="188.000885"
     y2="252">
    <stop
       offset="0"
       stop-color="#3584e4"
       id="stop20"
       style="stop-color:#8ac2fb;stop-opacity:1" />
    <stop
       offset="1"
       stop-color="#1a5fb4"
       id="stop22"
       style="stop-color:#0674e6;stop-opacity:1" />
  </linearGradient>
  <path
     d="m 28 16 h 72 c 4.417969 0 8 3.582031 8 8 v 88 c 0 4.417969 -3.582031 8 -8 8 h -72 c -4.417969 0 -8 -3.582031 -8 -8 v -88 c 0 -4.417969 3.582031 -8 8 -8 z m 0 0"
     fill="url(#a)"
     id="path25" />
  <path
     d="m 28 8 h 72 c 4.417969 0 8 3.582031 8 8 v 92 c 0 4.417969 -3.582031 8 -8 8 h -72 c -4.417969 0 -8 -3.582031 -8 -8 v -92 c 0 -4.417969 3.582031 -8 8 -8 z m 0 0"
     fill="url(#b)"
     id="path27"
     style="fill:#b0b0b0" />
  <path
     d="m 88 96.175781 h -4 c -2.210938 0 -4 1.792969 -4 4 c 0 2.210938 1.789062 4 4 4 s 4 -1.789062 4 -4 z m 0 0"
     fill="#9a9996"
     id="path29"
     style="fill:#d0d0d0" />
  <path
     d="m 88 94.175781 h -4 c -2.210938 0 -4 1.792969 -4 4 c 0 2.210938 1.789062 4 4 4 s 4 -1.789062 4 -4 z m 0 0"
     fill="#d5d3cf"
     id="path31"
     style="fill:#f0f0f2" />
  <path
     d="m 66 96.175781 h 4 c 2.210938 0 4 1.792969 4 4 c 0 2.210938 -1.789062 4 -4 4 s -4 -1.789062 -4 -4 z m 0 0"
     fill="#9a9996"
     id="path33"
     style="fill:#d0d0d0" />
  <path
     d="m 86 97.175781 c 0.550781 0 1 -0.445312 1 -1 c 0 -0.550781 -0.449219 -1 -1 -1 s -1 0.449219 -1 1 c 0 0.554688 0.449219 1 1 1 z m 0 0"
     fill="#68676b"
     id="path35"
     style="fill:#808080" />
  <path
     d="m 52 104.175781 h 4 c 2.210938 0 4 -1.789062 4 -4 c 0 -2.207031 -1.789062 -4 -4 -4 s -4 1.792969 -4 4 z m 0 0"
     fill="#9a9996"
     id="path37"
     style="fill:#d0d0d0" />
  <path
     d="m 66 94.175781 h 4 c 2.210938 0 4 1.792969 4 4 c 0 2.210938 -1.789062 4 -4 4 s -4 -1.789062 -4 -4 z m 0 0"
     fill="#d5d3cf"
     id="path39"
     style="fill:#f0f0f2" />
  <path
     d="m 46 104.175781 h -4 c -2.210938 0 -4 -1.789062 -4 -4 c 0 -2.207031 1.789062 -4 4 -4 s 4 1.792969 4 4 z m 0 0"
     fill="#9a9996"
     id="path41"
     style="fill:#d0d0d0" />
  <path
     d="m 68 97.175781 c -0.550781 0 -1 -0.445312 -1 -1 c 0 -0.550781 0.449219 -1 1 -1 s 1 0.449219 1 1 c 0 0.554688 -0.449219 1 -1 1 z m 0 0"
     fill="#68676b"
     id="path43"
     style="fill:#808080" />
  <path
     d="m 52 102.175781 h 4 c 2.210938 0 4 -1.789062 4 -4 c 0 -2.207031 -1.789062 -4 -4 -4 s -4 1.792969 -4 4 z m 0 0"
     fill="#d5d3cf"
     id="path45"
     style="fill:#f0f0f2" />
  <path
     d="m 54 99.175781 c -0.550781 0 -1 0.449219 -1 1 c 0 0.554688 0.449219 1 1 1 s 1 -0.445312 1 -1 c 0 -0.550781 -0.449219 -1 -1 -1 z m 0 0"
     fill="#68676b"
     id="path47"
     style="fill:#808080" />
  <path
     d="m 46 102.175781 h -4 c -2.210938 0 -4 -1.789062 -4 -4 c 0 -2.207031 1.789062 -4 4 -4 s 4 1.792969 4 4 z m 0 0"
     fill="#d5d3cf"
     id="path49"
     style="fill:#f0f0f2" />
  <path
     d="m 44 99.175781 c 0.550781 0 1 0.449219 1 1 c 0 0.554688 -0.449219 1 -1 1 s -1 -0.445312 -1 -1 c 0 -0.550781 0.449219 -1 1 -1 z m 0 0"
     fill="#68676b"
     id="path51"
     style="fill:#808080" />
  <path
     d="m 36 80 h 56 c 4.417969 0 8 -3.582031 8 -8 v -48 c 0 -4.417969 -3.582031 -8 -8 -8 h -56 c -4.417969 0 -8 3.582031 -8 8 v 48 c 0 4.417969 3.582031 8 8 8 z m 0 0"
     fill="#c0bfbc"
     id="path53"
     style="fill:#8a8a8a" />
  <path
     d="m 36 82 h 56 c 4.417969 0 8 -3.582031 8 -8 v -48 c 0 -4.417969 -3.582031 -8 -8 -8 h -56 c -4.417969 0 -8 3.582031 -8 8 v 48 c 0 4.417969 3.582031 8 8 8 z m 0 0"
     fill="url(#c)"
     id="path55" />
  <path
     d="m 48 42 l 16 -8 l 16 8 l -16 8 z m 0 0"
     fill="#ec8a38"
     id="path57"
     style="fill:#f7812b" />
  <path
     d="m 48 42 v 16 l 16 8 v -16 z m 0 0"
     fill="#ffbe6f"
     id="path59"
     style="fill:#fbbb8d" />
  <path
     d="m 80 42 l -16 8 v 16 l 16 -8 z m 0 0"
     fill="#e66100"
     id="path61"
     style="fill:#e66609" />
</svg>
