<?xml version="1.0" encoding="UTF-8" standalone="no"?>
<svg
   height="128px"
   viewBox="0 0 128 128"
   width="128px"
   version="1.1"
   id="svg30"
   xmlns="http://www.w3.org/2000/svg"
   xmlns:svg="http://www.w3.org/2000/svg">
  <defs
     id="defs34" />
  <linearGradient
     id="a"
     gradientUnits="userSpaceOnUse"
     x1="3.9999"
     x2="123.999893"
     y1="64"
     y2="64">
    <stop
       offset="0"
       stop-color="#e66100"
       id="stop2" />
    <stop
       offset="0.0454546"
       stop-color="#ffa348"
       id="stop4" />
    <stop
       offset="0.0909091"
       stop-color="#e66100"
       id="stop6" />
    <stop
       offset="0.909091"
       stop-color="#e66100"
       id="stop8" />
    <stop
       offset="0.954545"
       stop-color="#ffa348"
       id="stop10" />
    <stop
       offset="1"
       stop-color="#e66100"
       id="stop12" />
  </linearGradient>
  <linearGradient
     id="b"
     gradientTransform="matrix(1 0 0 0.983051 0 -168.033898)"
     gradientUnits="userSpaceOnUse"
     x1="63.999901"
     x2="64"
     y1="177.000015"
     y2="291.505005">
    <stop
       offset="0"
       stop-color="#f8e45c"
       id="stop15"
       style="stop-color:#fed97c;stop-opacity:1" />
    <stop
       offset="1"
       stop-color="#f66151"
       id="stop17"
       style="stop-color:#db2860;stop-opacity:1" />
  </linearGradient>
  <path
     d="m 124 64 c 0 33.136719 -26.863281 60 -60 60 s -60 -26.863281 -60 -60 s 26.863281 -60 60 -60 s 60 26.863281 60 60 z m 0 0"
     fill="url(#a)"
     id="path20"
     style="fill:#b21e4c" />
  <path
     d="m 124 62 c 0 32.03125 -26.863281 58 -60 58 s -60 -25.96875 -60 -58 s 26.863281 -58 60 -58 s 60 25.96875 60 58 z m 0 0"
     fill="url(#b)"
     id="path22" />
  <path
     d="m 64 4.5 c -32.785156 0 -59.5 25.722656 -59.5 57.5 s 26.714844 57.5 59.5 57.5 s 59.5 -25.722656 59.5 -57.5 s -26.714844 -57.5 -59.5 -57.5 z m 0 5 c 30.175781 0 54.5 23.523438 54.5 52.5 s -24.324219 52.5 -54.5 52.5 s -54.5 -23.523438 -54.5 -52.5 s 24.324219 -52.5 54.5 -52.5 z m 0 0"
     fill="#ffffff"
     id="path24"
     style="fill:#f0f0f2" />
  <path
     d="m 52 35 v 25.367188 c -1.824219 -0.875 -3.859375 -1.367188 -6 -1.367188 c -7.683594 0 -14 6.316406 -14 14 s 6.316406 14 14 14 c 7.664062 0 13.964844 -6.28125 14 -13.9375 v -30.0625 h 24 v 17.367188 c -1.824219 -0.875 -3.859375 -1.367188 -6 -1.367188 c -7.683594 0 -14 6.316406 -14 14 s 6.316406 14 14 14 c 7.601562 0 13.859375 -6.179688 13.996094 -13.75 h 0.003906 v -38.25 z m -6 32 c 3.359375 0 6 2.640625 6 6 s -2.640625 6 -6 6 s -6 -2.640625 -6 -6 s 2.640625 -6 6 -6 z m 32 0 c 3.359375 0 6 2.640625 6 6 s -2.640625 6 -6 6 s -6 -2.640625 -6 -6 s 2.640625 -6 6 -6 z m 0 0"
     fill="#c0bfbc"
     id="path26"
     style="fill:#cdcdd4" />
  <path
     d="m 52 37 v 25.367188 c -1.824219 -0.875 -3.859375 -1.367188 -6 -1.367188 c -7.683594 0 -14 6.316406 -14 14 s 6.316406 14 14 14 c 7.664062 0 13.964844 -6.28125 14 -13.9375 v -30.0625 h 24 v 17.367188 c -1.824219 -0.875 -3.859375 -1.367188 -6 -1.367188 c -7.683594 0 -14 6.316406 -14 14 s 6.316406 14 14 14 c 7.601562 0 13.859375 -6.179688 13.996094 -13.75 h 0.003906 v -38.25 z m -6 32 c 3.359375 0 6 2.640625 6 6 s -2.640625 6 -6 6 s -6 -2.640625 -6 -6 s 2.640625 -6 6 -6 z m 32 0 c 3.359375 0 6 2.640625 6 6 s -2.640625 6 -6 6 s -6 -2.640625 -6 -6 s 2.640625 -6 6 -6 z m 0 0"
     fill="#ffffff"
     id="path28"
     style="fill:#f0f0f2" />
</svg>
