<?xml version="1.0" encoding="UTF-8" standalone="no"?>
<svg
   version="1.0"
   width="128"
   height="128"
   id="svg3486"
   xmlns:xlink="http://www.w3.org/1999/xlink"
   xmlns="http://www.w3.org/2000/svg"
   xmlns:svg="http://www.w3.org/2000/svg"
   xmlns:rdf="http://www.w3.org/1999/02/22-rdf-syntax-ns#"
   xmlns:cc="http://creativecommons.org/ns#"
   xmlns:dc="http://purl.org/dc/elements/1.1/">
  <metadata
     id="metadata83">
    <rdf:RDF>
      <cc:Work
         rdf:about="">
        <dc:format>image/svg+xml</dc:format>
        <dc:type
           rdf:resource="http://purl.org/dc/dcmitype/StillImage" />
      </cc:Work>
    </rdf:RDF>
  </metadata>
  <defs
     id="defs3488">
    <linearGradient
       id="linearGradient7641">
      <stop
         style="stop-color:#c0bfbc;stop-opacity:1"
         offset="0"
         id="stop7637" />
      <stop
         style="stop-color:#deddda;stop-opacity:1"
         offset="0.03604353"
         id="stop7905" />
      <stop
         style="stop-color:#c0bfbc;stop-opacity:1"
         offset="0.08323751"
         id="stop7907" />
      <stop
         style="stop-color:#c0bfbc;stop-opacity:1"
         offset="0.90082103"
         id="stop7839" />
      <stop
         style="stop-color:#deddda;stop-opacity:1"
         offset="0.95035505"
         id="stop7773" />
      <stop
         style="stop-color:#c0bfbc;stop-opacity:1"
         offset="1"
         id="stop7639" />
    </linearGradient>
    <linearGradient
       xlink:href="#linearGradient7641"
       id="linearGradient7643"
       x1="13"
       y1="102.5"
       x2="115"
       y2="102.5"
       gradientUnits="userSpaceOnUse" />
  </defs>
  <rect
     style="opacity:1;fill:url(#linearGradient7643);fill-opacity:1;stroke:none;stroke-width:1;stroke-linecap:round;stroke-linejoin:round;stroke-opacity:1;stop-color:#000000"
     id="rect5984"
     width="102"
     height="25.00001"
     x="13"
     y="90"
     rx="6"
     ry="6.0000005" />
  <rect
     style="opacity:1;fill:#f6f5f4;fill-opacity:1;stroke:none;stroke-width:0.999999;stroke-linecap:round;stroke-linejoin:round;stroke-opacity:1;stop-color:#000000"
     id="rect6798"
     width="101.96914"
     height="90"
     x="13.030864"
     y="10"
     rx="6"
     ry="5.9999995" />
  <path
     style="vector-effect:none;fill:#241f31;fill-opacity:1;fill-rule:nonzero;stroke:none;stroke-width:0.999997;stroke-linecap:butt;stroke-linejoin:miter;stroke-miterlimit:4;stroke-dasharray:none;stroke-opacity:0.598837;paint-order:normal"
     d="m 21,112 h 63.999999 v -8 H 21 Z"
     id="rect917" />
  <path
     style="fill:#e5a50a;fill-opacity:1;stroke:none;stroke-width:1px;stroke-linecap:butt;stroke-linejoin:miter;stroke-opacity:1"
     d="m 22,104 v 5 h 2 v -5 z"
     id="path928" />
  <path
     style="fill:#e5a50a;fill-opacity:1;stroke:none;stroke-width:1px;stroke-linecap:butt;stroke-linejoin:miter;stroke-opacity:1"
     d="m 26,104 v 5 h 2 v -5 z"
     id="path928-3" />
  <path
     style="fill:#e5a50a;fill-opacity:1;stroke:none;stroke-width:1px;stroke-linecap:butt;stroke-linejoin:miter;stroke-opacity:1"
     d="m 30,104 v 5 h 2 v -5 z"
     id="path928-6" />
  <path
     style="fill:#e5a50a;fill-opacity:1;stroke:none;stroke-width:1px;stroke-linecap:butt;stroke-linejoin:miter;stroke-opacity:1"
     d="m 34,104 v 5 h 2 v -5 z"
     id="path928-7" />
  <path
     style="fill:#e5a50a;fill-opacity:1;stroke:none;stroke-width:1px;stroke-linecap:butt;stroke-linejoin:miter;stroke-opacity:1"
     d="m 38,104 v 5 h 2 v -5 z"
     id="path928-5" />
  <path
     style="fill:#e5a50a;fill-opacity:1;stroke:none;stroke-width:1px;stroke-linecap:butt;stroke-linejoin:miter;stroke-opacity:1"
     d="m 42,104 v 5 h 2 v -5 z"
     id="path928-35" />
  <path
     style="fill:#e5a50a;fill-opacity:1;stroke:none;stroke-width:1px;stroke-linecap:butt;stroke-linejoin:miter;stroke-opacity:1"
     d="m 46,104 v 5 h 2 v -5 z"
     id="path928-62" />
  <path
     style="fill:#e5a50a;fill-opacity:1;stroke:none;stroke-width:1px;stroke-linecap:butt;stroke-linejoin:miter;stroke-opacity:1"
     d="m 50,104 v 5 h 2 v -5 z"
     id="path928-9" />
  <path
     style="fill:#e5a50a;fill-opacity:1;stroke:none;stroke-width:1px;stroke-linecap:butt;stroke-linejoin:miter;stroke-opacity:1"
     d="m 54,104 v 5 h 2 v -5 z"
     id="path928-1" />
  <path
     style="fill:#e5a50a;fill-opacity:1;stroke:none;stroke-width:1px;stroke-linecap:butt;stroke-linejoin:miter;stroke-opacity:1"
     d="m 58,104 v 5 h 2 v -5 z"
     id="path928-2" />
  <path
     style="fill:#e5a50a;fill-opacity:1;stroke:none;stroke-width:1px;stroke-linecap:butt;stroke-linejoin:miter;stroke-opacity:1"
     d="m 62,104 v 5 h 2 v -5 z"
     id="path928-70" />
  <path
     style="fill:#e5a50a;fill-opacity:1;stroke:none;stroke-width:1px;stroke-linecap:butt;stroke-linejoin:miter;stroke-opacity:1"
     d="m 66,104 v 5 h 2 v -5 z"
     id="path928-93" />
  <path
     style="fill:#e5a50a;fill-opacity:1;stroke:none;stroke-width:1px;stroke-linecap:butt;stroke-linejoin:miter;stroke-opacity:1"
     d="m 70,104 v 5 h 2 v -5 z"
     id="path928-60" />
  <path
     style="fill:#e5a50a;fill-opacity:1;stroke:none;stroke-width:1px;stroke-linecap:butt;stroke-linejoin:miter;stroke-opacity:1"
     d="m 74,104 v 5 h 2 v -5 z"
     id="path928-626" />
  <path
     style="fill:#e5a50a;fill-opacity:1;stroke:none;stroke-width:1px;stroke-linecap:butt;stroke-linejoin:miter;stroke-opacity:1"
     d="m 78,104 v 5 h 2 v -5 z"
     id="path928-18" />
  <path
     style="fill:#e5a50a;fill-opacity:1;stroke:none;stroke-width:1px;stroke-linecap:butt;stroke-linejoin:miter;stroke-opacity:1"
     d="m 82,104 v 5 h 2 v -5 z"
     id="path928-79" />
  <path
     style="fill:#8ff0a4;fill-opacity:1;stroke:none;stroke-width:1px;stroke-linecap:butt;stroke-linejoin:miter;stroke-opacity:0.544444"
     d="m 105,105 v 5 h -5 v -5 z"
     id="path915-6" />
  <path
     style="fill:#f66151;fill-opacity:1;stroke:none;stroke-width:1px;stroke-linecap:butt;stroke-linejoin:miter;stroke-opacity:0.544444"
     d="m 95,105 v 5 h -5 v -5 z"
     id="path915-6-2" />
  <path
     id="path54"
     style="color:#000000;fill:#5e5c64;stroke-linecap:round;-inkscape-stroke:none;opacity:1"
     d="M 59.015625 26 C 45.820337 26 35.015625 36.804715 35.015625 50 C 35.015625 63.195288 45.820338 74 59.015625 74 C 62.767972 74 66.325826 73.124298 69.498047 71.570312 L 82.414062 84.486328 A 5.0005 5.0005 0 0 0 87.216797 85.724609 A 5.0005 5.0005 0 0 0 90.724609 82.216797 A 5.0005 5.0005 0 0 0 89.486328 77.414062 L 77.421875 65.349609 C 80.907991 61.180502 83.015625 55.823915 83.015625 50 C 83.015625 36.804715 72.210912 26 59.015625 26 z M 59.015625 36 C 66.805695 36 73.015625 42.209932 73.015625 50 C 73.015625 57.790071 66.805695 64 59.015625 64 C 51.225553 64 45.015625 57.790073 45.015625 50 C 45.015625 42.20993 51.225554 36 59.015625 36 z " />
  <path
     id="path54-0"
     style="color:#000000;opacity:1;fill:#9a9996;stroke-linecap:round;-inkscape-stroke:none"
     d="m 59.015625,27 c -13.195288,0 -24,10.804715 -24,24 0,13.195288 10.804713,24 24,24 3.752347,0 7.310201,-0.875702 10.482422,-2.429688 l 12.916015,12.916016 a 5.0005,5.0005 0 0 0 4.802735,1.238281 5.0005,5.0005 0 0 0 3.507812,-3.507812 5.0005,5.0005 0 0 0 -1.238281,-4.802735 L 77.421875,66.349609 C 80.907991,62.180502 83.015625,56.823915 83.015625,51 c 0,-13.195285 -10.804713,-24 -24,-24 z m 0,10 c 7.79007,0 14,6.209932 14,14 0,7.790071 -6.20993,14 -14,14 -7.790072,0 -14,-6.209927 -14,-14 0,-7.79007 6.209929,-14 14,-14 z" />
  <circle
     style="opacity:1;fill:#3d3846;fill-opacity:1;stroke:none;stroke-linecap:round;stroke-linejoin:round;stroke-opacity:1;stop-color:#000000"
     id="path7160"
     cx="22.5"
     cy="87.5"
     r="2.5" />
  <circle
     style="opacity:1;fill:#3d3846;fill-opacity:1;stroke:none;stroke-linecap:round;stroke-linejoin:round;stroke-opacity:1;stop-color:#000000"
     id="path7184"
     cx="107.5"
     cy="87.5"
     r="2.5" />
  <circle
     style="opacity:1;fill:#3d3846;fill-opacity:1;stroke:none;stroke-linecap:round;stroke-linejoin:round;stroke-opacity:1;stop-color:#000000"
     id="path7186"
     cx="107.5"
     cy="17.5"
     r="2.5" />
  <circle
     style="opacity:1;fill:#3d3846;fill-opacity:1;stroke:none;stroke-linecap:round;stroke-linejoin:round;stroke-opacity:1;stop-color:#000000"
     id="path7188"
     cx="22.5"
     cy="17.5"
     r="2.5" />
</svg>
