<?xml version="1.0" encoding="UTF-8" standalone="no"?>
<svg
   height="128"
   version="1.1"
   width="128"
   id="svg8"
   xmlns:xlink="http://www.w3.org/1999/xlink"
   xmlns="http://www.w3.org/2000/svg"
   xmlns:svg="http://www.w3.org/2000/svg">
  <defs
     id="defs12">
    <linearGradient
       id="linearGradient907">
      <stop
         style="stop-color:#986a44;stop-opacity:1"
         offset="0"
         id="stop903" />
      <stop
         style="stop-color:#cdab8f;stop-opacity:1"
         offset="0.06134108"
         id="stop1231" />
      <stop
         style="stop-color:#986a44;stop-opacity:1"
         offset="0.12698457"
         id="stop1233" />
      <stop
         style="stop-color:#986a44;stop-opacity:1"
         offset="0.25827155"
         id="stop2202" />
      <stop
         style="stop-color:#cdab8f;stop-opacity:1"
         offset="0.32391503"
         id="stop2268" />
      <stop
         style="stop-color:#986a44;stop-opacity:1"
         offset="0.38955855"
         id="stop2334" />
      <stop
         style="stop-color:#986a44;stop-opacity:1"
         offset="0.58648902"
         id="stop2400" />
      <stop
         style="stop-color:#cdab8f;stop-opacity:1"
         offset="0.65213251"
         id="stop2468" />
      <stop
         style="stop-color:#986a44;stop-opacity:1"
         offset="0.717776"
         id="stop2402" />
      <stop
         style="stop-color:#986a44;stop-opacity:1"
         offset="0.84906298"
         id="stop1429" />
      <stop
         style="stop-color:#cdab8f;stop-opacity:1"
         offset="0.91470647"
         id="stop1363" />
      <stop
         style="stop-color:#986a44;stop-opacity:1"
         offset="1"
         id="stop905" />
    </linearGradient>
    <linearGradient
       xlink:href="#linearGradient907"
       id="linearGradient909"
       x1="4.9709668"
       y1="11.691747"
       x2="18.755903"
       y2="11.691747"
       gradientUnits="userSpaceOnUse"
       gradientTransform="matrix(5.4407214,0,0,4.8826293,-2.0456464,7.9135359)" />
  </defs>
  <g
     id="g5753"
     transform="matrix(0.98465243,0,0,1.0000063,0.06100782,0.66789761)"
     style="stroke-width:1.00776">
    <path
       d="m 63.411673,17.678795 c -21.032199,0 -38.083962,15.136151 -38.083962,34.178405 0,6.347418 2.185538,12.694835 5.951061,18.065728 0.181719,0.488264 0.321002,0.488264 0.510341,0.976526 l 23.630141,39.061036 c 1.109904,2.92957 4.254639,5.37089 7.823759,5.37089 3.56911,0 6.53974,-2.44132 7.64965,-5.37089 l 26.35486,-42.478877 c 2.71492,-4.882629 4.249197,-10.253522 4.249197,-15.624413 0,-19.042254 -17.051227,-34.178405 -38.085047,-34.178405 z m -0.16866,19.042253 c 10.51691,0 19.04252,7.812206 19.04252,17.089203 0,9.765259 -8.52561,17.089203 -19.04252,17.089203 -10.516916,0 -19.042528,-7.323944 -19.042528,-17.089203 0,-9.276997 8.525612,-17.089203 19.042528,-17.089203 z"
       fill="#c0392b"
       id="path2"
       style="fill:url(#linearGradient909);fill-opacity:1;stroke-width:1.00776" />
    <path
       id="path4"
       style="fill:#f9e1ce;fill-opacity:1;stroke-width:1.00775"
       d="M 80.947266,87.650391 26.892578,55.21875 c 1.017012,3.068124 2.505513,5.952944 4.386719,8.599609 0.181719,0.258782 0.320426,0.513679 0.509765,0.767579 l 23.63086,39.363282 c 1.109904,2.86126 4.253146,5.03515 7.822266,5.03516 3.569109,0 6.54048,-2.17389 7.65039,-5.03516 z" />
    <path
       id="path4062"
       style="fill:#f9f06b;fill-opacity:1;stroke-width:1.00775"
       d="m 25.349609,46.601562 c 0.104863,2.988893 0.634542,5.876643 1.542969,8.617188 L 59.962891,75.060547 49,93 l 4,7 13.410156,-21.072266 14.53711,8.722657 3.675781,-5.958985 -57.822266,-34.693359 a 3.50035,3.50035 0 0 0 -1.451172,-0.396485 z" />
    <path
       id="path4062-3"
       style="fill:#f6f5f4;fill-opacity:1;stroke-width:1.00775"
       d="M 78,92.4 32,65 c 0,0 6.859966,11.789255 9,15 l 33,19 z" />
    <path
       id="path4060"
       style="fill:#8ff0a4;fill-opacity:1;stroke-width:1.00775"
       d="M 97.863281,60.080078 81.960938,50.873047 c -1.615849,7.968496 -9.373359,14.015625 -18.71875,14.015625 -10.516917,0 -19.041016,-7.651626 -19.041016,-17.089844 0,-5.820307 3.247679,-10.954974 8.199219,-14.041016 L 34.427734,23.353516 c -5.669215,5.967147 -9.099609,13.699765 -9.099609,22.15625 0,0.36577 0.0088,0.729 0.02148,1.091796 a 3.50035,3.50035 0 0 1 1.451172,0.396485 l 57.822266,34.693359 12.625,-20.464844 c 0.216964,-0.375764 0.413544,-0.762537 0.615234,-1.146484 z" />
    <path
       id="path5089"
       style="fill:#62a0ea;fill-opacity:1;stroke-width:1.00775"
       d="m 63.412109,11.332031 c -11.60995,0 -21.998855,4.668858 -28.984375,12.021485 l 17.972657,10.404296 c 3.077883,-1.918287 6.810393,-3.048828 10.841797,-3.048828 10.516908,0 19.042968,7.651626 19.042968,17.089844 0,1.051359 -0.121659,2.075305 -0.324218,3.074219 l 15.902343,9.207031 c 2.322099,-4.420458 3.632809,-9.364429 3.632809,-14.570312 0,-18.876436 -17.050161,-34.177735 -38.083981,-34.177735 z" />
  </g>
</svg>
