<?xml version="1.0" encoding="UTF-8" standalone="no"?>
<svg
   height="128px"
   viewBox="0 0 128 128"
   width="128px"
   version="1.1"
   id="svg12"
   xmlns="http://www.w3.org/2000/svg"
   xmlns:svg="http://www.w3.org/2000/svg">
  <defs
     id="defs16" />
  <path
     d="m 119,56.999998 c 0,23.748616 -19.249998,42.999998 -43,42.999998 -23.75,0 -43,-19.251382 -43,-42.999998 C 33,33.251383 52.25,14 76,14 c 23.750002,0 43,19.251383 43,42.999998 z m 0,0"
     fill="#e5a50a"
     id="path2"
     style="stroke-width:1;fill:#e0a101" />
  <path
     d="m 119,53.000001 c 0,23.748618 -19.249998,43.000001 -43,43.000001 -23.75,0 -43,-19.251383 -43,-43.000001 C 33,29.251385 52.25,10 76,10 c 23.750002,0 43,19.251385 43,43.000001 z m 0,0"
     fill="#f6d32d"
     id="path4"
     style="stroke-width:1;fill:#fecb49" />
  <path
     id="path6"
     style="fill-opacity:0.8;stroke-width:1;fill:#d0d0d0"
     d="M 82.654297 81.154297 C 82.623259 81.551862 82.61162 81.950448 82.566406 82.347656 C 82.621872 82.376363 82.673448 82.410217 82.728516 82.439453 C 82.712659 82.008666 82.686016 81.580941 82.654297 81.154297 z M 12.0625 81.699219 C 12.023746 82.365827 11.999865 83.036728 12 83.712891 C 12 102.88074 27.83871 118.42188 47.378906 118.42188 C 52.750637 118.40278 58.046419 117.18793 62.865234 114.86328 C 66.059858 117.52878 70.117602 118.99617 74.310547 119 C 84.078725 119 92 111.23038 92 101.64453 C 91.998007 100.97811 91.947325 100.31825 91.869141 99.666016 C 90.846191 108.29715 83.380278 115 74.310547 115 C 70.117602 114.99616 66.059858 113.52878 62.865234 110.86328 C 58.046419 113.18793 52.750637 114.40278 47.378906 114.42188 C 28.518993 114.42188 13.112743 99.942075 12.0625 81.699219 z " />
  <path
     d="m 47.37893,45 c -19.540196,0 -35.382768,15.541086 -35.378929,34.712767 0,19.167851 15.838733,34.708933 35.378929,34.708933 5.371731,-0.0191 10.666667,-1.23317 15.485482,-3.55782 3.194624,2.6655 7.253179,4.13228 11.446124,4.13612 C 84.078715,115 92,107.22946 92,97.643612 91.9808,91.224967 88.352292,85.342485 82.565875,82.347629 82.665705,81.470619 82.730983,80.593607 82.7617,79.712767 82.7617,60.541086 66.919128,45 47.37893,45 Z m 0,0"
     fill="#ffffff"
     id="path8"
     style="fill-opacity:0.8;stroke-width:0.999999;fill:#f0f0f2" />
</svg>
