<?xml version="1.0" encoding="UTF-8" standalone="no"?>
<svg
   width="128"
   height="128"
   version="1.0"
   id="svg71"
   sodipodi:docname="org.gnome.Evince.svg"
   xml:space="preserve"
   inkscape:version="1.2.1 (9c6d41e410, 2022-07-14)"
   xmlns:inkscape="http://www.inkscape.org/namespaces/inkscape"
   xmlns:sodipodi="http://sodipodi.sourceforge.net/DTD/sodipodi-0.dtd"
   xmlns="http://www.w3.org/2000/svg"
   xmlns:svg="http://www.w3.org/2000/svg"><sodipodi:namedview
     id="namedview8"
     pagecolor="#ffffff"
     bordercolor="#000000"
     borderopacity="0.25"
     inkscape:showpageshadow="2"
     inkscape:pageopacity="0.0"
     inkscape:pagecheckerboard="0"
     inkscape:deskcolor="#d1d1d1"
     showgrid="false"
     inkscape:zoom="6.109375"
     inkscape:cx="55.324808"
     inkscape:cy="60.890026"
     inkscape:window-width="2560"
     inkscape:window-height="911"
     inkscape:window-x="0"
     inkscape:window-y="0"
     inkscape:window-maximized="1"
     inkscape:current-layer="svg71" /><defs
     id="defs31"><filter
       id="filter0_i_321_34"
       x="12"
       y="12"
       width="104"
       height="104"
       filterUnits="userSpaceOnUse"
       color-interpolation-filters="sRGB"><feFlood
         flood-opacity="0"
         result="BackgroundImageFix"
         id="feFlood32" /><feBlend
         mode="normal"
         in="SourceGraphic"
         in2="BackgroundImageFix"
         result="shape"
         id="feBlend34" /><feColorMatrix
         in="SourceAlpha"
         type="matrix"
         values="0 0 0 0 0 0 0 0 0 0 0 0 0 0 0 0 0 0 127 0"
         result="hardAlpha"
         id="feColorMatrix36" /><feOffset
         dy="-4"
         id="feOffset38" /><feComposite
         in2="hardAlpha"
         operator="arithmetic"
         k2="-1"
         k3="1"
         id="feComposite40" /><feColorMatrix
         type="matrix"
         values="0 0 0 0 0.176471 0 0 0 0 0.176471 0 0 0 0 0.176471 0 0 0 0.1 0"
         id="feColorMatrix42" /><feBlend
         mode="normal"
         in2="shape"
         result="effect1_innerShadow_321_34"
         id="feBlend44" /></filter><filter
       id="filter1_i_321_34"
       x="68"
       y="25"
       width="35"
       height="35"
       filterUnits="userSpaceOnUse"
       color-interpolation-filters="sRGB"><feFlood
         flood-opacity="0"
         result="BackgroundImageFix"
         id="feFlood47" /><feBlend
         mode="normal"
         in="SourceGraphic"
         in2="BackgroundImageFix"
         result="shape"
         id="feBlend49" /><feColorMatrix
         in="SourceAlpha"
         type="matrix"
         values="0 0 0 0 0 0 0 0 0 0 0 0 0 0 0 0 0 0 127 0"
         result="hardAlpha"
         id="feColorMatrix51" /><feOffset
         dy="-4"
         id="feOffset53" /><feComposite
         in2="hardAlpha"
         operator="arithmetic"
         k2="-1"
         k3="1"
         id="feComposite55" /><feColorMatrix
         type="matrix"
         values="0 0 0 0 0.176471 0 0 0 0 0.176471 0 0 0 0 0.176471 0 0 0 0.1 0"
         id="feColorMatrix57" /><feBlend
         mode="normal"
         in2="shape"
         result="effect1_innerShadow_321_34"
         id="feBlend59" /></filter><filter
       id="filter2_ii_321_34"
       x="27"
       y="25"
       width="35"
       height="77"
       filterUnits="userSpaceOnUse"
       color-interpolation-filters="sRGB"><feFlood
         flood-opacity="0"
         result="BackgroundImageFix"
         id="feFlood62" /><feBlend
         mode="normal"
         in="SourceGraphic"
         in2="BackgroundImageFix"
         result="shape"
         id="feBlend64" /><feColorMatrix
         in="SourceAlpha"
         type="matrix"
         values="0 0 0 0 0 0 0 0 0 0 0 0 0 0 0 0 0 0 127 0"
         result="hardAlpha"
         id="feColorMatrix66" /><feMorphology
         radius="1"
         operator="erode"
         in="SourceAlpha"
         result="effect1_innerShadow_321_34"
         id="feMorphology68" /><feOffset
         dy="1"
         id="feOffset70" /><feComposite
         in2="hardAlpha"
         operator="arithmetic"
         k2="-1"
         k3="1"
         id="feComposite72" /><feColorMatrix
         type="matrix"
         values="0 0 0 0 0.941176 0 0 0 0 0.941176 0 0 0 0 0.94902 0 0 0 0.4 0"
         id="feColorMatrix74" /><feBlend
         mode="normal"
         in2="shape"
         result="effect1_innerShadow_321_34"
         id="feBlend76" /><feColorMatrix
         in="SourceAlpha"
         type="matrix"
         values="0 0 0 0 0 0 0 0 0 0 0 0 0 0 0 0 0 0 127 0"
         result="hardAlpha"
         id="feColorMatrix78" /><feOffset
         dy="-4"
         id="feOffset80" /><feComposite
         in2="hardAlpha"
         operator="arithmetic"
         k2="-1"
         k3="1"
         id="feComposite82" /><feColorMatrix
         type="matrix"
         values="0 0 0 0 0.176471 0 0 0 0 0.176471 0 0 0 0 0.176471 0 0 0 0.1 0"
         id="feColorMatrix84" /><feBlend
         mode="normal"
         in2="effect1_innerShadow_321_34"
         result="effect2_innerShadow_321_34"
         id="feBlend86" /></filter><filter
       id="filter3_i_321_34"
       x="68"
       y="66"
       width="35"
       height="35"
       filterUnits="userSpaceOnUse"
       color-interpolation-filters="sRGB"><feFlood
         flood-opacity="0"
         result="BackgroundImageFix"
         id="feFlood89" /><feBlend
         mode="normal"
         in="SourceGraphic"
         in2="BackgroundImageFix"
         result="shape"
         id="feBlend91" /><feColorMatrix
         in="SourceAlpha"
         type="matrix"
         values="0 0 0 0 0 0 0 0 0 0 0 0 0 0 0 0 0 0 127 0"
         result="hardAlpha"
         id="feColorMatrix93" /><feOffset
         dy="-4"
         id="feOffset95" /><feComposite
         in2="hardAlpha"
         operator="arithmetic"
         k2="-1"
         k3="1"
         id="feComposite97" /><feColorMatrix
         type="matrix"
         values="0 0 0 0 0.176471 0 0 0 0 0.176471 0 0 0 0 0.176471 0 0 0 0.1 0"
         id="feColorMatrix99" /><feBlend
         mode="normal"
         in2="shape"
         result="effect1_innerShadow_321_34"
         id="feBlend101" /></filter><linearGradient
       id="paint0_linear_321_34"
       x1="64"
       y1="12"
       x2="64"
       y2="116"
       gradientUnits="userSpaceOnUse"><stop
         stop-color="#2D2D2D"
         stop-opacity="0"
         id="stop104" /><stop
         offset="1"
         stop-color="#2D2D2D"
         stop-opacity="0.2"
         id="stop106" /></linearGradient><linearGradient
       id="paint1_linear_321_34"
       x1="85.5"
       y1="25"
       x2="85.5"
       y2="60"
       gradientUnits="userSpaceOnUse"><stop
         stop-color="#2D2D2D"
         stop-opacity="0"
         id="stop109" /><stop
         offset="1"
         stop-color="#2D2D2D"
         stop-opacity="0.2"
         id="stop111" /></linearGradient><linearGradient
       id="paint2_linear_321_34"
       x1="44.5"
       y1="25"
       x2="44.5"
       y2="101"
       gradientUnits="userSpaceOnUse"><stop
         stop-color="#2D2D2D"
         stop-opacity="0"
         id="stop114" /><stop
         offset="1"
         stop-color="#2D2D2D"
         stop-opacity="0.2"
         id="stop116" /></linearGradient><linearGradient
       id="paint3_linear_321_34"
       x1="85.5"
       y1="66"
       x2="85.5"
       y2="101"
       gradientUnits="userSpaceOnUse"><stop
         stop-color="#2D2D2D"
         stop-opacity="0"
         id="stop119" /><stop
         offset="1"
         stop-color="#2D2D2D"
         stop-opacity="0.2"
         id="stop121" /></linearGradient></defs><rect
     x="12"
     y="12"
     width="104"
     height="104"
     rx="24"
     fill="#FAF5FF"
     id="rect2"
     style="fill:#f6f5f4;filter:url(#filter0_i_321_34)" /><rect
     x="12"
     y="12"
     width="104"
     height="104"
     rx="24"
     fill="url(#paint0_linear_321_34)"
     id="rect4"
     style="fill:#ed333b;filter:url(#filter0_i_321_34)" /><path
     d="M 11.999999,94 C 29.822146,89.564543 46.511255,79.674553 61.159357,69.618285 66.103076,66.220582 70.895842,62.429428 73.911486,57.564676 75.421013,55.130774 76.45367,52.446773 76.738428,49.680421 77.01974,46.91407 76.525709,44.065368 75.132828,41.579615 73.910036,39.440312 72.11309,37.601861 69.90092,36.226861 67.689724,34.857036 65.186482,33.90417 62.545381,33.426959 57.286034,32.450957 51.759085,33.23176 46.733028,34.921461 c -6.044996,2.040451 -11.575374,5.444254 -15.46242,10.037555 -3.890479,4.596355 -6.058717,10.406609 -5.557827,16.140613 0.329352,3.714902 1.75998,7.335252 3.965953,10.504207 2.205976,3.172002 5.177014,5.901755 8.56317,8.100806 6.775743,4.398102 15.078174,6.621558 23.39775,7.570101 18.937779,2.153307 38.716096,-2.180746 54.360336,-11.910253 l -0.0823,-15.823413 C 103.65618,71.567236 86.217631,79.314241 68.038054,80.814842 60.191913,81.461443 52.016418,80.933791 44.928477,77.86854 c -3.54397,-1.531101 -6.76888,-3.690503 -9.235598,-6.423303 -2.470145,-2.729752 -4.164936,-6.039006 -4.648673,-9.516008 -0.706734,-5.072155 1.22821,-10.309006 4.796198,-14.31671 3.567986,-4.007702 8.669521,-6.828954 14.158731,-8.357003 3.029355,-0.838752 6.237117,-1.308453 9.386548,-0.948552 3.146008,0.3599 6.233691,1.607352 8.28527,3.760651 1.660497,1.744601 2.573078,4.004654 2.730886,6.286056 0.161206,2.2814 -0.401387,4.578053 -1.423758,6.676452 -2.041309,4.193753 -5.808282,7.515207 -9.647288,10.553009 C 45.373032,76.623041 29.356056,87.853756 12.000052,94 Z"
     style="fill:#bebec7;fill-opacity:1;stroke-width:0.999994;marker:none"
     color="#000000"
     overflow="visible"
     fill="#ffffff"
     id="path61-3" /><path
     d="M 12,93 C 29.821567,88.606958 46.513516,81.228212 61.161142,71.26811 66.104701,67.902899 70.897311,64.148 73.912858,59.329768 c 1.509478,-2.410627 2.542101,-5.068962 2.82685,-7.808859 0.281303,-2.739897 -0.212712,-5.561358 -1.605548,-8.023339 -1.222752,-2.118845 -3.01964,-3.939715 -5.231738,-5.301566 -2.211125,-1.356727 -4.714286,-2.30048 -7.355301,-2.773128 -5.259176,-0.966667 -10.785946,-0.193332 -15.81184,1.480211 -6.044799,2.020938 -11.574998,5.392191 -15.461918,9.941567 -3.890352,4.552401 -6.058521,10.307092 -5.557646,15.986262 0.329341,3.679378 1.759922,7.265106 3.965824,10.403757 2.205904,3.141669 5.176846,5.845318 8.562892,8.023339 6.775523,4.356045 15.077684,6.558239 23.39699,7.49771 C 80.578588,90.888437 100.35625,86.59583 116,76.959365 L 115.91767,61.28727 C 103.65656,73.198423 86.218583,80.871346 68.039596,82.357596 60.19371,82.998014 52.01848,82.475409 44.930768,79.43947 c -3.543854,-1.51646 -6.76866,-3.655212 -9.235297,-6.361878 -2.470065,-2.703649 -4.164802,-5.981257 -4.648523,-9.425007 -0.706711,-5.023653 1.22817,-10.210425 4.796042,-14.179803 3.567871,-3.969377 8.669241,-6.76365 14.158272,-8.277087 3.029257,-0.830731 6.236915,-1.295941 9.386244,-0.939481 3.145905,0.356458 6.233488,1.591981 8.285001,3.724689 1.660443,1.727918 2.572994,3.966358 2.730797,6.225944 0.161201,2.259582 -0.401374,4.534273 -1.423711,6.612606 -2.041243,4.153648 -5.808094,7.44334 -9.646976,10.452092 C 45.37533,78.205881 29.355442,87.912532 11.999999,94 Z"
     style="fill:#f0f0f2;fill-opacity:1;stroke-width:0.999996;marker:none"
     color="#000000"
     overflow="visible"
     fill="#ffffff"
     id="path61" /><rect
     x="-248.31458"
     y="-58.641945"
     width="35"
     height="76"
     rx="17.5"
     fill="#8C56BF"
     id="rect14"
     style="fill:#3584e4;filter:url(#filter2_ii_321_34)" /><rect
     x="-301.6752"
     y="-49.463554"
     width="35"
     height="76"
     rx="17.5"
     fill="url(#paint2_linear_321_34)"
     id="rect16"
     style="fill:#3584e4;filter:url(#filter2_ii_321_34)" /></svg>
