<svg xmlns="http://www.w3.org/2000/svg" width="128" height="128" fill="none" viewBox="0 0 128 128"><g filter="url(#filter0_ii_1125_2)"><rect width="104" height="104" x="12" y="12" fill="#8C56BF" rx="24"/><rect width="104" height="104" x="12" y="12" fill="url(#paint0_linear_1125_2)" fill-opacity=".8" rx="24"/></g><g filter="url(#filter1_d_1125_2)"><g filter="url(#filter2_i_1125_2)"><path fill="#CDCDD4" fill-rule="evenodd" d="M47.2939 35.037C40.6665 35.037 35.2939 40.4096 35.2939 47.0371V82.1302C35.2939 88.7577 40.6665 94.1302 47.2939 94.1302H81.2714C87.8988 94.1302 93.2714 88.7576 93.2714 82.1302V47.037C93.2714 40.4096 87.8988 35.037 81.2714 35.037H47.2939ZM64.2826 74.0608C69.2088 74.0608 73.2022 70.0673 73.2022 65.1411C73.2022 60.2149 69.2088 56.2214 64.2826 56.2214C59.3565 56.2214 55.363 60.2149 55.363 65.1411C55.363 70.0673 59.3565 74.0608 64.2826 74.0608Z" clip-rule="evenodd"/><path fill="url(#paint1_linear_1125_2)" fill-opacity=".8" fill-rule="evenodd" d="M47.2939 35.037C40.6665 35.037 35.2939 40.4096 35.2939 47.0371V82.1302C35.2939 88.7577 40.6665 94.1302 47.2939 94.1302H81.2714C87.8988 94.1302 93.2714 88.7576 93.2714 82.1302V47.037C93.2714 40.4096 87.8988 35.037 81.2714 35.037H47.2939ZM64.2826 74.0608C69.2088 74.0608 73.2022 70.0673 73.2022 65.1411C73.2022 60.2149 69.2088 56.2214 64.2826 56.2214C59.3565 56.2214 55.363 60.2149 55.363 65.1411C55.363 70.0673 59.3565 74.0608 64.2826 74.0608Z" clip-rule="evenodd"/></g><g filter="url(#filter3_i_1125_2)"><path fill="#F0F0F2" fill-rule="evenodd" d="M31.5147 55.5409C26.8284 60.2272 26.8284 67.8252 31.5147 72.5115L56.3289 97.326C61.0151 102.012 68.6131 102.012 73.2993 97.326L97.3251 73.2999C102.011 68.6136 102.011 61.0156 97.3251 56.3292L72.5109 31.5147C67.8247 26.8284 60.2267 26.8284 55.5405 31.5147L31.5147 55.5409ZM64.2826 74.0608C69.2087 74.0608 73.2022 70.0674 73.2022 65.1411C73.2022 60.2149 69.2087 56.2214 64.2826 56.2214C59.3564 56.2214 55.363 60.2149 55.363 65.1411C55.363 70.0674 59.3564 74.0608 64.2826 74.0608Z" clip-rule="evenodd"/><path fill="url(#paint2_linear_1125_2)" fill-opacity=".8" fill-rule="evenodd" d="M31.5147 55.5409C26.8284 60.2272 26.8284 67.8252 31.5147 72.5115L56.3289 97.326C61.0151 102.012 68.6131 102.012 73.2993 97.326L97.3251 73.2999C102.011 68.6136 102.011 61.0156 97.3251 56.3292L72.5109 31.5147C67.8247 26.8284 60.2267 26.8284 55.5405 31.5147L31.5147 55.5409ZM64.2826 74.0608C69.2087 74.0608 73.2022 70.0674 73.2022 65.1411C73.2022 60.2149 69.2087 56.2214 64.2826 56.2214C59.3564 56.2214 55.363 60.2149 55.363 65.1411C55.363 70.0674 59.3564 74.0608 64.2826 74.0608Z" clip-rule="evenodd"/></g></g><defs><filter id="filter0_ii_1125_2" width="104" height="106" x="12" y="12" color-interpolation-filters="sRGB" filterUnits="userSpaceOnUse"><feFlood flood-opacity="0" result="BackgroundImageFix"/><feBlend in="SourceGraphic" in2="BackgroundImageFix" mode="normal" result="shape"/><feColorMatrix in="SourceAlpha" result="hardAlpha" type="matrix" values="0 0 0 0 0 0 0 0 0 0 0 0 0 0 0 0 0 0 127 0"/><feOffset dy="-4"/><feComposite in2="hardAlpha" k2="-1" k3="1" operator="arithmetic"/><feColorMatrix type="matrix" values="0 0 0 0 0.0666667 0 0 0 0 0.0666667 0 0 0 0 0.0666667 0 0 0 0.2 0"/><feBlend in2="shape" mode="normal" result="effect1_innerShadow_1125_2"/><feColorMatrix in="SourceAlpha" result="hardAlpha" type="matrix" values="0 0 0 0 0 0 0 0 0 0 0 0 0 0 0 0 0 0 127 0"/><feOffset dy="4"/><feGaussianBlur stdDeviation="1"/><feComposite in2="hardAlpha" k2="-1" k3="1" operator="arithmetic"/><feColorMatrix type="matrix" values="0 0 0 0 1 0 0 0 0 1 0 0 0 0 1 0 0 0 0.3 0"/><feBlend in2="effect1_innerShadow_1125_2" mode="normal" result="effect2_innerShadow_1125_2"/></filter><filter id="filter1_d_1125_2" width="88.84" height="88.841" x="20" y="24" color-interpolation-filters="sRGB" filterUnits="userSpaceOnUse"><feFlood flood-opacity="0" result="BackgroundImageFix"/><feColorMatrix in="SourceAlpha" result="hardAlpha" type="matrix" values="0 0 0 0 0 0 0 0 0 0 0 0 0 0 0 0 0 0 127 0"/><feOffset dy="4"/><feGaussianBlur stdDeviation="4"/><feComposite in2="hardAlpha" operator="out"/><feColorMatrix type="matrix" values="0 0 0 0 0.176471 0 0 0 0 0.176471 0 0 0 0 0.176471 0 0 0 0.3 0"/><feBlend in2="BackgroundImageFix" mode="normal" result="effect1_dropShadow_1125_2"/><feBlend in="SourceGraphic" in2="effect1_dropShadow_1125_2" mode="normal" result="shape"/></filter><filter id="filter2_i_1125_2" width="57.977" height="59.093" x="35.294" y="35.037" color-interpolation-filters="sRGB" filterUnits="userSpaceOnUse"><feFlood flood-opacity="0" result="BackgroundImageFix"/><feBlend in="SourceGraphic" in2="BackgroundImageFix" mode="normal" result="shape"/><feColorMatrix in="SourceAlpha" result="hardAlpha" type="matrix" values="0 0 0 0 0 0 0 0 0 0 0 0 0 0 0 0 0 0 127 0"/><feOffset dy="-4"/><feComposite in2="hardAlpha" k2="-1" k3="1" operator="arithmetic"/><feColorMatrix type="matrix" values="0 0 0 0 0 0 0 0 0 0 0 0 0 0 0 0 0 0 0.1 0"/><feBlend in2="shape" mode="normal" result="effect1_innerShadow_1125_2"/></filter><filter id="filter3_i_1125_2" width="72.84" height="72.841" x="28" y="28" color-interpolation-filters="sRGB" filterUnits="userSpaceOnUse"><feFlood flood-opacity="0" result="BackgroundImageFix"/><feBlend in="SourceGraphic" in2="BackgroundImageFix" mode="normal" result="shape"/><feColorMatrix in="SourceAlpha" result="hardAlpha" type="matrix" values="0 0 0 0 0 0 0 0 0 0 0 0 0 0 0 0 0 0 127 0"/><feOffset dy="-4"/><feComposite in2="hardAlpha" k2="-1" k3="1" operator="arithmetic"/><feColorMatrix type="matrix" values="0 0 0 0 0 0 0 0 0 0 0 0 0 0 0 0 0 0 0.1 0"/><feBlend in2="shape" mode="normal" result="effect1_innerShadow_1125_2"/></filter><linearGradient id="paint0_linear_1125_2" x1="64" x2="64" y1="12" y2="116" gradientUnits="userSpaceOnUse"><stop stop-color="#F0F0F2" stop-opacity="0"/><stop offset="1" stop-color="#2D2D2D" stop-opacity=".2"/><stop offset="1" stop-color="#F0F0F2" stop-opacity=".2"/></linearGradient><linearGradient id="paint1_linear_1125_2" x1="73.409" x2="73.409" y1="35.037" y2="94.13" gradientUnits="userSpaceOnUse"><stop stop-color="#2D2D2D" stop-opacity="0"/><stop offset="1" stop-color="#2D2D2D" stop-opacity=".2"/></linearGradient><linearGradient id="paint2_linear_1125_2" x1="75.885" x2="75.885" y1="28" y2="100.841" gradientUnits="userSpaceOnUse"><stop stop-color="#2D2D2D" stop-opacity="0"/><stop offset="1" stop-color="#2D2D2D" stop-opacity=".2"/></linearGradient></defs></svg>