<svg xmlns="http://www.w3.org/2000/svg" xmlns:svg="http://www.w3.org/2000/svg" id="svg12" width="128" height="128" fill="none" version="1.1" viewBox="0 0 128 128"><g id="g1" filter="url(#filter0_ii_1135_32)" transform="matrix(0.95412844,0,0,0.94520806,2.4587156,2.5614761)"><rect id="rect1" width="109" height="109" x="10" y="10" fill="url(#paint0_linear_1135_32)" rx="24" style="fill:url(#paint0_linear_1135_32)"/></g><g style="mix-blend-mode:soft-light" id="g2" filter="url(#filter1_d_1135_32)"><path id="path1" fill="#FAFAFA" fill-rule="evenodd" d="M50.3391 38.3391C43.7117 38.3391 38.3391 43.7117 38.3391 50.3391V77.2265C38.3391 83.8539 43.7117 89.2265 50.3391 89.2265H77.2265C83.8539 89.2265 89.2265 83.8539 89.2265 77.2265V50.3391C89.2265 43.7117 83.8539 38.3391 77.2265 38.3391H50.3391ZM63.7828 70.1437C67.2958 70.1437 70.1437 67.2958 70.1437 63.7828C70.1437 60.2697 67.2958 57.4219 63.7828 57.4219C60.2697 57.4219 57.4219 60.2697 57.4219 63.7828C57.4219 67.2958 60.2697 70.1437 63.7828 70.1437Z" clip-rule="evenodd"/></g><g id="g3" filter="url(#filter2_d_1135_32)"><path id="path2" fill="#FAFAFA" fill-rule="evenodd" d="M36.5147 55.4963C31.8284 60.1826 31.8284 67.7806 36.5147 72.4669L55.4961 91.4485C60.1824 96.1348 67.7804 96.1348 72.4666 91.4485L91.4481 72.4669C96.1343 67.7806 96.1343 60.1826 91.4481 55.4963L72.4666 36.5147C67.7804 31.8284 60.1824 31.8284 55.4961 36.5147L36.5147 55.4963ZM63.779 70.3371C67.289 70.3371 70.1345 67.4916 70.1345 63.9816C70.1345 60.4716 67.289 57.6261 63.779 57.6261C60.269 57.6261 57.4235 60.4716 57.4235 63.9816C57.4235 67.4916 60.269 70.3371 63.779 70.3371Z" clip-rule="evenodd"/></g><defs id="defs12"><filter id="filter0_ii_1135_32" width="109" height="110" x="10" y="10" color-interpolation-filters="sRGB" filterUnits="userSpaceOnUse"><feFlood id="feFlood3" flood-opacity="0" result="BackgroundImageFix"/><feBlend id="feBlend3" in="SourceGraphic" in2="BackgroundImageFix" mode="normal" result="shape"/><feColorMatrix id="feColorMatrix3" in="SourceAlpha" result="hardAlpha" type="matrix" values="0 0 0 0 0 0 0 0 0 0 0 0 0 0 0 0 0 0 127 0"/><feOffset id="feOffset3" dy="-4"/><feComposite id="feComposite3" in2="hardAlpha" k2="-1" k3="1" operator="arithmetic"/><feColorMatrix id="feColorMatrix4" type="matrix" values="0 0 0 0 0 0 0 0 0 0 0 0 0 0 0 0 0 0 0.25 0"/><feBlend id="feBlend4" in2="shape" mode="normal" result="effect1_innerShadow_1135_32"/><feColorMatrix id="feColorMatrix5" in="SourceAlpha" result="hardAlpha" type="matrix" values="0 0 0 0 0 0 0 0 0 0 0 0 0 0 0 0 0 0 127 0"/><feMorphology id="feMorphology5" in="SourceAlpha" operator="erode" radius="1" result="effect2_innerShadow_1135_32"/><feOffset id="feOffset5" dy="2"/><feComposite id="feComposite5" in2="hardAlpha" k2="-1" k3="1" operator="arithmetic"/><feColorMatrix id="feColorMatrix6" type="matrix" values="0 0 0 0 1 0 0 0 0 1 0 0 0 0 1 0 0 0 0.25 0"/><feBlend id="feBlend6" in2="effect1_innerShadow_1135_32" mode="normal" result="effect2_innerShadow_1135_32"/></filter><filter id="filter1_d_1135_32" width="56.887" height="56.887" x="37.339" y="37.339" color-interpolation-filters="sRGB" filterUnits="userSpaceOnUse"><feFlood id="feFlood6" flood-opacity="0" result="BackgroundImageFix"/><feColorMatrix id="feColorMatrix7" in="SourceAlpha" result="hardAlpha" type="matrix" values="0 0 0 0 0 0 0 0 0 0 0 0 0 0 0 0 0 0 127 0"/><feOffset id="feOffset7" dx="2" dy="2"/><feGaussianBlur id="feGaussianBlur7" stdDeviation="1.5"/><feComposite id="feComposite7" in2="hardAlpha" operator="out"/><feColorMatrix id="feColorMatrix8" type="matrix" values="0 0 0 0 0 0 0 0 0 0 0 0 0 0 0 0 0 0 0.14 0"/><feBlend id="feBlend8" in2="BackgroundImageFix" mode="normal" result="effect1_dropShadow_1135_32"/><feBlend id="feBlend9" in="SourceGraphic" in2="effect1_dropShadow_1135_32" mode="normal" result="shape"/></filter><filter id="filter2_d_1135_32" width="67.963" height="67.963" x="32" y="32" color-interpolation-filters="sRGB" filterUnits="userSpaceOnUse"><feFlood id="feFlood9" flood-opacity="0" result="BackgroundImageFix"/><feColorMatrix id="feColorMatrix9" in="SourceAlpha" result="hardAlpha" type="matrix" values="0 0 0 0 0 0 0 0 0 0 0 0 0 0 0 0 0 0 127 0"/><feOffset id="feOffset9" dx="2" dy="2"/><feGaussianBlur id="feGaussianBlur9" stdDeviation="1.5"/><feComposite id="feComposite9" in2="hardAlpha" operator="out"/><feColorMatrix id="feColorMatrix10" type="matrix" values="0 0 0 0 0 0 0 0 0 0 0 0 0 0 0 0 0 0 0.14 0"/><feBlend id="feBlend10" in2="BackgroundImageFix" mode="normal" result="effect1_dropShadow_1135_32"/><feBlend id="feBlend11" in="SourceGraphic" in2="effect1_dropShadow_1135_32" mode="normal" result="shape"/></filter><linearGradient id="paint0_linear_1135_32" x1="36.398" x2="100.266" y1="10" y2="119" gradientUnits="userSpaceOnUse"><stop id="stop11" stop-color="#8C56BF"/><stop id="stop12" offset="1" stop-color="#4D409F"/></linearGradient></defs></svg>