<svg xmlns="http://www.w3.org/2000/svg" xmlns:svg="http://www.w3.org/2000/svg" id="svg7" width="128" height="128" fill="none" version="1.1" viewBox="0 0 128 128"><g id="g1" filter="url(#filter0_ii_1139_34)"><rect id="rect1" width="104" height="104" x="12" y="12" fill="#268ef9" rx="22.899" style="stroke-width:.954128"/></g><path id="path1" fill="#fff" fill-opacity=".5" fill-rule="evenodd" d="M32.8158 36.4805C32 38.1457 32 40.3105 32 44.64V54.96V69.54V74.86C32 79.1895 32 81.3543 32.8158 83.0195C33.5969 84.6139 34.8861 85.9031 36.4805 86.6842C37.1447 87.0096 37.8884 87.2052 38.8173 87.3228C41.3024 88.5 44.549 88.5 50.96 88.5H77.04C83.5343 88.5 86.7815 88.5 89.2793 87.2763C91.6708 86.1047 93.6047 84.1708 94.7763 81.7792C96 79.2814 96 76.0343 96 69.54V54.96C96 48.4657 96 45.2185 94.7763 42.7207C93.6047 40.3291 91.6708 38.3953 89.2793 37.2236C86.7815 36 83.5343 36 77.04 36H62.9282C62.1356 34.6271 60.9504 33.5168 59.5195 32.8158C57.8543 32 55.6895 32 51.36 32H44.64C40.3105 32 38.1457 32 36.4805 32.8158C34.8861 33.5969 33.5969 34.8861 32.8158 36.4805Z" clip-rule="evenodd"/><rect id="rect2" width="64" height="48" x="32" y="49" fill="#fff" fill-opacity=".5" rx="12"/><rect id="rect3" width="64" height="48.727" x="32" y="43" fill="url(#paint0_linear_1139_34)" rx="12"/><defs id="defs7"><filter id="filter0_ii_1139_34" width="109" height="110" x="10" y="10" color-interpolation-filters="sRGB" filterUnits="userSpaceOnUse"><feFlood id="feFlood3" flood-opacity="0" result="BackgroundImageFix"/><feBlend id="feBlend3" in="SourceGraphic" in2="BackgroundImageFix" mode="normal" result="shape"/><feColorMatrix id="feColorMatrix3" in="SourceAlpha" result="hardAlpha" type="matrix" values="0 0 0 0 0 0 0 0 0 0 0 0 0 0 0 0 0 0 127 0"/><feOffset id="feOffset3" dy="-4"/><feComposite id="feComposite3" in2="hardAlpha" k2="-1" k3="1" operator="arithmetic"/><feColorMatrix id="feColorMatrix4" type="matrix" values="0 0 0 0 0 0 0 0 0 0 0 0 0 0 0 0 0 0 0.25 0"/><feBlend id="feBlend4" in2="shape" mode="normal" result="effect1_innerShadow_1139_34"/><feColorMatrix id="feColorMatrix5" in="SourceAlpha" result="hardAlpha" type="matrix" values="0 0 0 0 0 0 0 0 0 0 0 0 0 0 0 0 0 0 127 0"/><feMorphology id="feMorphology5" in="SourceAlpha" operator="erode" radius="1" result="effect2_innerShadow_1139_34"/><feOffset id="feOffset5" dy="2"/><feComposite id="feComposite5" in2="hardAlpha" k2="-1" k3="1" operator="arithmetic"/><feColorMatrix id="feColorMatrix6" type="matrix" values="0 0 0 0 1 0 0 0 0 1 0 0 0 0 1 0 0 0 0.25 0"/><feBlend id="feBlend6" in2="effect1_innerShadow_1139_34" mode="normal" result="effect2_innerShadow_1139_34"/></filter><linearGradient id="paint0_linear_1139_34" x1="41.818" x2="86.182" y1="43" y2="91.727" gradientUnits="userSpaceOnUse"><stop id="stop6" stop-color="#fff"/><stop id="stop7" offset="1" stop-color="#F0F0F2"/></linearGradient></defs></svg>