<?xml version="1.0" encoding="UTF-8" standalone="no"?>
<svg
   height="128px"
   viewBox="0 0 128 128"
   width="128px"
   version="1.1"
   id="svg25"
   xmlns:xlink="http://www.w3.org/1999/xlink"
   xmlns="http://www.w3.org/2000/svg"
   xmlns:svg="http://www.w3.org/2000/svg">
  <defs
     id="defs29" />
  <linearGradient
     id="a"
     gradientUnits="userSpaceOnUse">
    <stop
       offset="0"
       stop-color="#c0bfbc"
       id="stop2" />
    <stop
       offset="0.0480176"
       stop-color="#deddda"
       id="stop4" />
    <stop
       offset="0.103314"
       stop-color="#c0bfbc"
       id="stop6" />
    <stop
       offset="0.897905"
       stop-color="#c0bfbc"
       id="stop8" />
    <stop
       offset="0.9548"
       stop-color="#deddda"
       id="stop10" />
    <stop
       offset="1"
       stop-color="#c0bfbc"
       id="stop12" />
  </linearGradient>
  <linearGradient
     id="b"
     gradientTransform="matrix(4.297966 0 0 4.184491 -6.823785 -6.012741)"
     x1="4.379703"
     x2="28.577196"
     xlink:href="#a"
     y1="17.536753"
     y2="17.536753" />
  <linearGradient
     id="c"
     gradientTransform="matrix(4.297966 0 0 4.184491 -6.823785 -6.012741)"
     x1="6.939235"
     x2="26.017662"
     xlink:href="#a"
     y1="17.536678"
     y2="17.536678" />
  <path
     d="m 64.410156 16.738281 c -3.699218 -0.027343 -7.410156 1.324219 -10.265625 4.0625 l -37.8125 36.238281 c -5.710937 5.476563 -5.785156 14.363282 -0.160156 19.925782 l 37.21875 36.816406 c 5.625 5.5625 14.753906 5.632812 20.464844 0.15625 l 37.8125 -36.238281 c 5.710937 -5.476563 5.785156 -14.363281 0.160156 -19.925781 l -37.21875 -36.816407 c -2.8125 -2.78125 -6.5 -4.1875 -10.199219 -4.21875 z m -0.410156 40.300781 c 5.859375 0 10.613281 4.625 10.613281 10.332032 c 0 5.703125 -4.753906 10.332031 -10.613281 10.332031 s -10.613281 -4.628906 -10.613281 -10.332031 c 0 -5.707032 4.753906 -10.332032 10.613281 -10.332032 z m 0 0"
     fill="url(#b)"
     id="path17"
     style="fill:#b0b0b0" />
  <path
     d="m 64.410156 12 c -3.699218 -0.027344 -7.410156 1.324219 -10.265625 4.058594 l -37.8125 36.242187 c -5.710937 5.476563 -5.785156 14.363281 -0.160156 19.925781 l 37.21875 36.816407 c 5.625 5.5625 14.753906 5.632812 20.464844 0.15625 l 37.8125 -36.242188 c 5.710937 -5.472656 5.785156 -14.359375 0.160156 -19.921875 l -37.21875 -36.816406 c -2.8125 -2.78125 -6.5 -4.191406 -10.199219 -4.21875 z m -0.410156 40.296875 c 5.859375 0 10.613281 4.625 10.613281 10.332031 c 0 5.707032 -4.753906 10.332032 -10.613281 10.332032 s -10.613281 -4.625 -10.613281 -10.332032 c 0 -5.707031 4.753906 -10.332031 10.613281 -10.332031 z m 0 0"
     fill="#deddda"
     id="path19"
     style="fill:#d0d0d0" />
  <path
     d="m 37.472656 27.449219 c -8.019531 0 -14.472656 6.285156 -14.472656 14.089843 v 51.660157 c 0 7.804687 6.453125 14.089843 14.472656 14.089843 h 53.054688 c 8.019531 0 14.472656 -6.285156 14.472656 -14.089843 v -51.660157 c 0 -7.804687 -6.453125 -14.089843 -14.472656 -14.089843 z m 26.527344 29.589843 c 5.859375 0 10.613281 4.625 10.613281 10.332032 c 0 5.703125 -4.753906 10.332031 -10.613281 10.332031 s -10.613281 -4.628906 -10.613281 -10.332031 c 0 -5.707032 4.753906 -10.332032 10.613281 -10.332032 z m 0 0"
     fill="url(#c)"
     id="path21"
     style="fill:#d0d0d0" />
  <path
     d="m 37.472656 22.710938 c -8.019531 0 -14.472656 6.285156 -14.472656 14.089843 v 51.660157 c 0 7.804687 6.453125 14.089843 14.472656 14.089843 h 53.054688 c 8.019531 0 14.472656 -6.285156 14.472656 -14.089843 v -51.660157 c 0 -7.804687 -6.453125 -14.089843 -14.472656 -14.089843 z m 26.527344 29.585937 c 5.859375 0 10.613281 4.628906 10.613281 10.332031 c 0 5.707032 -4.753906 10.332032 -10.613281 10.332032 s -10.613281 -4.625 -10.613281 -10.332032 c 0 -5.703125 4.753906 -10.332031 10.613281 -10.332031 z m 0 0"
     fill="#f6f5f4"
     id="path23"
     style="fill:#f0f0f2" />
</svg>
