<?xml version="1.0" encoding="UTF-8" standalone="no"?>
<svg
   width="128"
   height="128"
   viewBox="0 0 128 128"
   fill="none"
   version="1.1"
   id="svg40"
   sodipodi:docname="utilities-terminal.svg"
   inkscape:version="1.2.1 (9c6d41e410, 2022-07-14)"
   xmlns:inkscape="http://www.inkscape.org/namespaces/inkscape"
   xmlns:sodipodi="http://sodipodi.sourceforge.net/DTD/sodipodi-0.dtd"
   xmlns="http://www.w3.org/2000/svg"
   xmlns:svg="http://www.w3.org/2000/svg">
  <sodipodi:namedview
     id="namedview42"
     pagecolor="#ffffff"
     bordercolor="#000000"
     borderopacity="0.25"
     inkscape:showpageshadow="2"
     inkscape:pageopacity="0.0"
     inkscape:pagecheckerboard="0"
     inkscape:deskcolor="#d1d1d1"
     showgrid="false"
     inkscape:zoom="6.109375"
     inkscape:cx="64.081841"
     inkscape:cy="64"
     inkscape:window-width="2560"
     inkscape:window-height="911"
     inkscape:window-x="0"
     inkscape:window-y="0"
     inkscape:window-maximized="1"
     inkscape:current-layer="svg40" />
  <g
     filter="url(#filter0_bi_314_86)"
     id="g6">
    <rect
       x="12"
       y="11"
       width="104"
       height="104"
       rx="24"
       fill="#2D2D2D"
       fill-opacity="0.8"
       id="rect2" />
    <rect
       x="12"
       y="11"
       width="104"
       height="104"
       rx="24"
       fill="url(#paint0_linear_314_86)"
       id="rect4" />
  </g>
  <path
     d="M34.204 57.388V54.544H37.096V57.388H34.204ZM34.204 38.188V35.344H37.096V38.188H34.204ZM35.716 55.36C34.5 55.36 33.412 55.136 32.452 54.688C31.492 54.24 30.704 53.608 30.088 52.792C29.48 51.976 29.092 51.008 28.924 49.888L31.78 49.432C32.004 50.416 32.484 51.2 33.22 51.784C33.964 52.36 34.852 52.648 35.884 52.648C36.876 52.648 37.692 52.416 38.332 51.952C38.972 51.48 39.292 50.884 39.292 50.164C39.292 49.66 39.14 49.252 38.836 48.94C38.532 48.62 38.044 48.356 37.372 48.148L33.208 46.852C30.784 46.1 29.572 44.628 29.572 42.436C29.572 41.412 29.816 40.52 30.304 39.76C30.8 38.992 31.496 38.404 32.392 37.996C33.288 37.58 34.344 37.376 35.56 37.384C36.688 37.392 37.692 37.596 38.572 37.996C39.46 38.396 40.196 38.972 40.78 39.724C41.372 40.476 41.792 41.38 42.04 42.436L39.076 42.976C38.964 42.408 38.744 41.908 38.416 41.476C38.088 41.044 37.676 40.708 37.18 40.468C36.684 40.228 36.132 40.1 35.524 40.084C34.94 40.076 34.416 40.168 33.952 40.36C33.488 40.544 33.12 40.808 32.848 41.152C32.576 41.488 32.44 41.868 32.44 42.292C32.44 42.764 32.628 43.168 33.004 43.504C33.388 43.84 33.992 44.128 34.816 44.368L37.924 45.268C39.42 45.7 40.496 46.288 41.152 47.032C41.816 47.768 42.148 48.748 42.148 49.972C42.148 51.044 41.88 51.984 41.344 52.792C40.808 53.6 40.056 54.232 39.088 54.688C38.12 55.136 36.996 55.36 35.716 55.36Z"
     fill="#EEB4E0"
     id="path8"
     style="fill:#ffffff" />
  <path
     d="M47.8703 57.928V55.66H63.7103V57.928H47.8703Z"
     fill="#F0F0F2"
     id="path10" />
  <defs
     id="defs38">
    <filter
       id="filter0_bi_314_86"
       x="6"
       y="5"
       width="116"
       height="116"
       filterUnits="userSpaceOnUse"
       color-interpolation-filters="sRGB">
      <feFlood
         flood-opacity="0"
         result="BackgroundImageFix"
         id="feFlood12" />
      <feGaussianBlur
         in="BackgroundImageFix"
         stdDeviation="3"
         id="feGaussianBlur14" />
      <feComposite
         in2="SourceAlpha"
         operator="in"
         result="effect1_backgroundBlur_314_86"
         id="feComposite16" />
      <feBlend
         mode="normal"
         in="SourceGraphic"
         in2="effect1_backgroundBlur_314_86"
         result="shape"
         id="feBlend18" />
      <feColorMatrix
         in="SourceAlpha"
         type="matrix"
         values="0 0 0 0 0 0 0 0 0 0 0 0 0 0 0 0 0 0 127 0"
         result="hardAlpha"
         id="feColorMatrix20" />
      <feOffset
         dy="-4"
         id="feOffset22" />
      <feComposite
         in2="hardAlpha"
         operator="arithmetic"
         k2="-1"
         k3="1"
         id="feComposite24" />
      <feColorMatrix
         type="matrix"
         values="0 0 0 0 0.176471 0 0 0 0 0.176471 0 0 0 0 0.176471 0 0 0 0.1 0"
         id="feColorMatrix26" />
      <feBlend
         mode="normal"
         in2="shape"
         result="effect2_innerShadow_314_86"
         id="feBlend28" />
    </filter>
    <linearGradient
       id="paint0_linear_314_86"
       x1="64"
       y1="11"
       x2="64"
       y2="115"
       gradientUnits="userSpaceOnUse">
      <stop
         stop-color="#F0F0F2"
         stop-opacity="0"
         id="stop31" />
      <stop
         offset="1"
         stop-color="#2D2D2D"
         stop-opacity="0.2"
         id="stop33" />
      <stop
         offset="1"
         stop-color="#F0F0F2"
         stop-opacity="0.2"
         id="stop35" />
    </linearGradient>
  </defs>
</svg>
