<?xml version="1.0" encoding="UTF-8"?>
<svg height="128px" viewBox="0 0 128 128" width="128px" xmlns="http://www.w3.org/2000/svg">
    <path d="m 12 104 v 4 c 0 4.433594 3.566406 8 8 8 h 88 c 4.433594 0 8 -3.566406 8 -8 v -4 c 0 4.433594 -3.566406 8 -8 8 h -88 c -4.433594 0 -8 -3.566406 -8 -8 z m 0 0" fill="#2c2738" fill-opacity="0.8"/>
    <path d="m 20 12 h 88 c 4.417969 0 8 3.582031 8 8 v 84 c 0 4.417969 -3.582031 8 -8 8 h -88 c -4.417969 0 -8 -3.582031 -8 -8 v -84 c 0 -4.417969 3.582031 -8 8 -8 z m 0 0" fill="#3d3846" fill-opacity="0.8"/>
    <g fill="#f6f5f4">
        <path d="m 34.195312 60.269531 h -1.953124 l -0.019532 -5.878906 c -1.367187 -0.027344 -2.734375 -0.183594 -4.101562 -0.46875 c -1.367188 -0.300781 -2.742188 -0.742187 -4.121094 -1.328125 v -3.515625 c 1.328125 0.832031 2.667969 1.464844 4.023438 1.894531 c 1.367187 0.417969 2.773437 0.632813 4.21875 0.644532 v -8.90625 c -2.878907 -0.46875 -4.972657 -1.261719 -6.289063 -2.382813 c -1.300781 -1.121094 -1.953125 -2.65625 -1.953125 -4.609375 c 0 -2.121094 0.710938 -3.796875 2.128906 -5.019531 c 1.417969 -1.222657 3.457032 -1.925781 6.113282 -2.109375 v -4.589844 h 1.953124 v 4.53125 c 1.210938 0.050781 2.382813 0.183594 3.515626 0.390625 c 1.132812 0.195313 2.238281 0.46875 3.320312 0.820313 v 3.417968 c -1.082031 -0.546875 -2.195312 -0.96875 -3.339844 -1.269531 c -1.132812 -0.300781 -2.296875 -0.476563 -3.496094 -0.527344 v 8.339844 c 2.957032 0.457031 5.128907 1.269531 6.523438 2.441406 s 2.089844 2.773438 2.089844 4.804688 c 0 2.199219 -0.742188 3.9375 -2.226563 5.214843 c -1.472656 1.261719 -3.601562 1.992188 -6.386719 2.1875 z m -1.953124 -20.917969 v -8.007812 c -1.511719 0.167969 -2.664063 0.597656 -3.457032 1.289062 c -0.792968 0.691407 -1.191406 1.609376 -1.191406 2.753907 c 0 1.121093 0.363281 1.992187 1.09375 2.617187 c 0.742188 0.625 1.925781 1.074219 3.554688 1.347656 z m 1.953124 3.75 v 8.457032 c 1.652344 -0.222656 2.898438 -0.691406 3.730469 -1.40625 c 0.847657 -0.714844 1.269531 -1.660156 1.269531 -2.832032 c 0 -1.144531 -0.402343 -2.058593 -1.210937 -2.734374 c -0.792969 -0.675782 -2.058594 -1.171876 -3.789063 -1.484376 z m 0 0"/>
        <path d="m 66.519531 61.03125 v 2.792969 h -20.78125 v -2.792969 z m 0 0"/>
    </g>
</svg>
