<svg xmlns="http://www.w3.org/2000/svg" xmlns:svg="http://www.w3.org/2000/svg" xmlns:xlink="http://www.w3.org/1999/xlink" id="svg29" width="128" height="128" version="1.1" viewBox="0 0 128 128" xml:space="preserve"><defs id="defs33"><linearGradient id="linearGradient3033"><stop style="stop-color:#1b07a2;stop-opacity:1" id="stop3029" offset="0"/><stop style="stop-color:#270ae9;stop-opacity:1" id="stop3031" offset="1"/></linearGradient><linearGradient id="linearGradient1703"><stop style="stop-color:#0453a4;stop-opacity:1" id="stop1699" offset="0"/><stop style="stop-color:#268ef9;stop-opacity:1" id="stop4723" offset=".497"/><stop style="stop-color:#bbdcfd;stop-opacity:1" id="stop1701" offset="1"/></linearGradient><linearGradient id="linearGradient1705" x1="85.519" x2="26.766" y1="82.689" y2="27.407" gradientTransform="translate(0.19512195,-0.19512195)" gradientUnits="userSpaceOnUse" xlink:href="#linearGradient1703"/><linearGradient id="linearGradient3035" x1="102.425" x2="85.296" y1="98.825" y2="82.693" gradientTransform="translate(0.19512195,-0.19512195)" gradientUnits="userSpaceOnUse" xlink:href="#linearGradient3033"/><filter id="filter0_i_321_34" width="104" height="104" x="12" y="12" color-interpolation-filters="sRGB" filterUnits="userSpaceOnUse"><feFlood id="feFlood32" flood-opacity="0" result="BackgroundImageFix"/><feBlend id="feBlend34" in="SourceGraphic" in2="BackgroundImageFix" mode="normal" result="shape"/><feColorMatrix id="feColorMatrix36" in="SourceAlpha" result="hardAlpha" type="matrix" values="0 0 0 0 0 0 0 0 0 0 0 0 0 0 0 0 0 0 127 0"/><feOffset id="feOffset38" dy="-4"/><feComposite id="feComposite40" in2="hardAlpha" k2="-1" k3="1" operator="arithmetic"/><feColorMatrix id="feColorMatrix42" type="matrix" values="0 0 0 0 0.176471 0 0 0 0 0.176471 0 0 0 0 0.176471 0 0 0 0.1 0"/><feBlend id="feBlend44" in2="shape" mode="normal" result="effect1_innerShadow_321_34"/></filter><filter id="filter1_i_321_34" width="35" height="35" x="68" y="25" color-interpolation-filters="sRGB" filterUnits="userSpaceOnUse"><feFlood id="feFlood47" flood-opacity="0" result="BackgroundImageFix"/><feBlend id="feBlend49" in="SourceGraphic" in2="BackgroundImageFix" mode="normal" result="shape"/><feColorMatrix id="feColorMatrix51" in="SourceAlpha" result="hardAlpha" type="matrix" values="0 0 0 0 0 0 0 0 0 0 0 0 0 0 0 0 0 0 127 0"/><feOffset id="feOffset53" dy="-4"/><feComposite id="feComposite55" in2="hardAlpha" k2="-1" k3="1" operator="arithmetic"/><feColorMatrix id="feColorMatrix57" type="matrix" values="0 0 0 0 0.176471 0 0 0 0 0.176471 0 0 0 0 0.176471 0 0 0 0.1 0"/><feBlend id="feBlend59" in2="shape" mode="normal" result="effect1_innerShadow_321_34"/></filter><filter id="filter2_ii_321_34" width="35" height="77" x="27" y="25" color-interpolation-filters="sRGB" filterUnits="userSpaceOnUse"><feFlood id="feFlood62" flood-opacity="0" result="BackgroundImageFix"/><feBlend id="feBlend64" in="SourceGraphic" in2="BackgroundImageFix" mode="normal" result="shape"/><feColorMatrix id="feColorMatrix66" in="SourceAlpha" result="hardAlpha" type="matrix" values="0 0 0 0 0 0 0 0 0 0 0 0 0 0 0 0 0 0 127 0"/><feMorphology id="feMorphology68" in="SourceAlpha" operator="erode" radius="1" result="effect1_innerShadow_321_34"/><feOffset id="feOffset70" dy="1"/><feComposite id="feComposite72" in2="hardAlpha" k2="-1" k3="1" operator="arithmetic"/><feColorMatrix id="feColorMatrix74" type="matrix" values="0 0 0 0 0.941176 0 0 0 0 0.941176 0 0 0 0 0.94902 0 0 0 0.4 0"/><feBlend id="feBlend76" in2="shape" mode="normal" result="effect1_innerShadow_321_34"/><feColorMatrix id="feColorMatrix78" in="SourceAlpha" result="hardAlpha" type="matrix" values="0 0 0 0 0 0 0 0 0 0 0 0 0 0 0 0 0 0 127 0"/><feOffset id="feOffset80" dy="-4"/><feComposite id="feComposite82" in2="hardAlpha" k2="-1" k3="1" operator="arithmetic"/><feColorMatrix id="feColorMatrix84" type="matrix" values="0 0 0 0 0.176471 0 0 0 0 0.176471 0 0 0 0 0.176471 0 0 0 0.1 0"/><feBlend id="feBlend86" in2="effect1_innerShadow_321_34" mode="normal" result="effect2_innerShadow_321_34"/></filter><filter id="filter3_i_321_34" width="35" height="35" x="68" y="66" color-interpolation-filters="sRGB" filterUnits="userSpaceOnUse"><feFlood id="feFlood89" flood-opacity="0" result="BackgroundImageFix"/><feBlend id="feBlend91" in="SourceGraphic" in2="BackgroundImageFix" mode="normal" result="shape"/><feColorMatrix id="feColorMatrix93" in="SourceAlpha" result="hardAlpha" type="matrix" values="0 0 0 0 0 0 0 0 0 0 0 0 0 0 0 0 0 0 127 0"/><feOffset id="feOffset95" dy="-4"/><feComposite id="feComposite97" in2="hardAlpha" k2="-1" k3="1" operator="arithmetic"/><feColorMatrix id="feColorMatrix99" type="matrix" values="0 0 0 0 0.176471 0 0 0 0 0.176471 0 0 0 0 0.176471 0 0 0 0.1 0"/><feBlend id="feBlend101" in2="shape" mode="normal" result="effect1_innerShadow_321_34"/></filter><linearGradient id="paint0_linear_321_34" x1="64" x2="64" y1="12" y2="116" gradientUnits="userSpaceOnUse"><stop id="stop104" stop-color="#2D2D2D" stop-opacity="0"/><stop id="stop106" offset="1" stop-color="#2D2D2D" stop-opacity=".2"/></linearGradient><linearGradient id="paint1_linear_321_34" x1="85.5" x2="85.5" y1="25" y2="60" gradientUnits="userSpaceOnUse"><stop id="stop109" stop-color="#2D2D2D" stop-opacity="0"/><stop id="stop111" offset="1" stop-color="#2D2D2D" stop-opacity=".2"/></linearGradient><linearGradient id="paint2_linear_321_34" x1="44.5" x2="44.5" y1="25" y2="101" gradientUnits="userSpaceOnUse"><stop id="stop114" stop-color="#2D2D2D" stop-opacity="0"/><stop id="stop116" offset="1" stop-color="#2D2D2D" stop-opacity=".2"/></linearGradient><linearGradient id="paint3_linear_321_34" x1="85.5" x2="85.5" y1="66" y2="101" gradientUnits="userSpaceOnUse"><stop id="stop119" stop-color="#2D2D2D" stop-opacity="0"/><stop id="stop121" offset="1" stop-color="#2D2D2D" stop-opacity=".2"/></linearGradient></defs><linearGradient id="a" x1="8" x2="120" y1="120" y2="120" gradientUnits="userSpaceOnUse"><stop id="stop2" offset="0" stop-color="#1a5fb4"/><stop id="stop4" offset=".036" stop-color="#1c71d8"/><stop id="stop6" offset=".071" stop-color="#1a5fb4"/><stop id="stop8" offset=".929" stop-color="#1a5fb4"/><stop id="stop10" offset=".964" stop-color="#1c71d8"/><stop id="stop12" offset="1" stop-color="#1a5fb4"/></linearGradient><g id="g6" filter="url(#filter0_i_321_34)" transform="matrix(1.2307692,0,0,1.2307692,-14.769231,-14.76923)" style="fill:#ebf4fe;fill-opacity:1;stroke-width:.8125"><rect id="rect2" width="84.5" height="84.5" x="21.75" y="21.75" fill="#FAF5FF" rx="15.844" ry="15.844" style="fill:#ebf4fe;fill-opacity:1;stroke-width:.660157"/></g><g id="g609" transform="matrix(0.62856976,0,0,0.62856976,23.823397,24.010607)"><ellipse style="fill:#0674e6;stroke:none;stroke-width:10.0032;stop-color:#000" id="path1573" cx="-2.375" cy="-89.965" rx="69.127" ry="26.936" transform="matrix(-0.70127721,0.71288868,-0.68771013,-0.72598539,0,0)"/><path id="path934" d="m 43.615044,111.39082 a 51.999996,51.999996 0 0 0 20.580078,4.41406 51.999996,51.999996 0 0 0 51.999998,-52.000002 51.999996,51.999996 0 0 0 -5.0918,-22.398438 42.256115,73.582748 45 0 1 -0.18554,0.642579 42.256115,73.582748 45 0 1 -0.79493,2.429687 42.256115,73.582748 45 0 1 -0.89062,2.447266 42.256115,73.582748 45 0 1 -0.98633,2.46289 42.256115,73.582748 45 0 1 -1.07812,2.472657 42.256115,73.582748 45 0 1 -1.16993,2.478515 42.256115,73.582748 45 0 1 -1.25976,2.478516 42.256115,73.582748 45 0 1 -1.34766,2.478516 42.256115,73.582748 45 0 1 -1.43164,2.470703 42.256115,73.582748 45 0 1 -1.51367,2.458984 42.256115,73.582748 45 0 1 -1.595701,2.445313 42.256115,73.582748 45 0 1 -1.669922,2.423828 42.256115,73.582748 45 0 1 -1.746094,2.402343 42.256115,73.582748 45 0 1 -1.816406,2.373047 42.256115,73.582748 45 0 1 -1.886719,2.341797 42.256115,73.582748 45 0 1 -1.949218,2.306641 42.256115,73.582748 45 0 1 -2.011719,2.265625 42.256115,73.582748 45 0 1 -2.070313,2.222656 42.256115,73.582748 45 0 1 -2.125,2.175781 42.256115,73.582748 45 0 1 -6.488281,6.054688 42.256115,73.582748 45 0 1 -6.832031,5.529297 42.256115,73.582748 45 0 1 -7.070313,4.925781 42.256115,73.582748 45 0 1 -7.210937,4.24805 42.256115,73.582748 45 0 1 -7.244141,3.50976 42.256115,73.582748 45 0 1 -5.113281,1.93946 z" style="fill:url(#linearGradient3035);fill-opacity:1;stroke:none;stroke-width:1.001;stroke-linecap:round;stroke-linejoin:round;stop-color:#000"/><path id="path1432" d="m 43.615044,111.39082 a 42.256115,73.582748 45 0 0 5.113281,-1.93946 42.256115,73.582748 45 0 0 7.244141,-3.50976 42.256115,73.582748 45 0 0 7.210937,-4.24805 42.256115,73.582748 45 0 0 7.070313,-4.925781 42.256115,73.582748 45 0 0 6.832031,-5.529297 42.256115,73.582748 45 0 0 6.488281,-6.054688 42.256115,73.582748 45 0 0 2.125,-2.175781 42.256115,73.582748 45 0 0 2.070313,-2.222656 42.256115,73.582748 45 0 0 2.011719,-2.265625 42.256115,73.582748 45 0 0 1.949218,-2.306641 42.256115,73.582748 45 0 0 1.886719,-2.341797 42.256115,73.582748 45 0 0 1.816406,-2.373047 42.256115,73.582748 45 0 0 1.746094,-2.402343 42.256115,73.582748 45 0 0 1.669922,-2.423828 42.256115,73.582748 45 0 0 1.595701,-2.445313 42.256115,73.582748 45 0 0 1.51367,-2.458984 42.256115,73.582748 45 0 0 1.43164,-2.470703 42.256115,73.582748 45 0 0 1.34766,-2.478516 42.256115,73.582748 45 0 0 1.25976,-2.478516 42.256115,73.582748 45 0 0 1.16993,-2.478515 42.256115,73.582748 45 0 0 1.07812,-2.472657 42.256115,73.582748 45 0 0 0.98633,-2.46289 42.256115,73.582748 45 0 0 0.89062,-2.447266 42.256115,73.582748 45 0 0 0.79493,-2.429687 42.256115,73.582748 45 0 0 0.18554,-0.642579 51.999996,51.999996 0 0 0 -46.908198,-29.601562 51.999996,51.999996 0 0 0 -52,52 51.999996,51.999996 0 0 0 31.419922,47.585942 z" style="fill:url(#linearGradient1705);fill-opacity:1;stroke:none;stroke-width:1.001;stroke-linecap:round;stroke-linejoin:round;stop-color:#000"/></g><rect id="rect14" width="35" height="76" x="-247.496" y="-60.115" fill="#8C56BF" rx="17.5" style="fill:#3584e4;filter:url(#filter2_ii_321_34)"/><rect id="rect16" width="35" height="76" x="-300.857" y="-50.937" fill="url(#paint2_linear_321_34)" rx="17.5" style="fill:#3584e4;filter:url(#filter2_ii_321_34)"/></svg>