<?xml version="1.0" encoding="UTF-8" standalone="no"?>
<svg
   height="16px"
   viewBox="0 0 16 16"
   width="16px"
   version="1.1"
   id="svg12"
   xmlns="http://www.w3.org/2000/svg"
   xmlns:svg="http://www.w3.org/2000/svg">
  <defs
     id="defs16" />
  <path
     d="m 3 0 c -1.644531 0 -3 1.355469 -3 3 v 10 c 0 1.644531 1.355469 3 3 3 h 10 c 1.644531 0 3 -1.355469 3 -3 v -10 c 0 -1.644531 -1.355469 -3 -3 -3 z m 0 2 h 10 c 0.570312 0 1 0.429688 1 1 v 10 c 0 0.570312 -0.429688 1 -1 1 h -10 c -0.570312 0 -1 -0.429688 -1 -1 v -10 c 0 -0.570312 0.429688 -1 1 -1 z m 0 0"
     id="path2" />
  <path
     d="m 3.847656 3.140625 c -0.195312 -0.191406 -0.507812 -0.1875 -0.703125 0.007813 c -0.191406 0.191406 -0.195312 0.503906 -0.003906 0.699218 l 4.011719 4.011719 c 0.125 0.121094 0.308594 0.167969 0.476562 0.125 c 0.171875 -0.046875 0.308594 -0.183594 0.351563 -0.351563 c 0.046875 -0.171874 0 -0.355468 -0.121094 -0.480468 z m 0 0"
     id="path4" />
  <path
     d="m 7.632812 3.019531 c -0.171874 -0.046875 -0.355468 0 -0.480468 0.121094 l -4.011719 4.011719 c -0.1875 0.195312 -0.183594 0.507812 0.007813 0.699218 c 0.191406 0.191407 0.503906 0.195313 0.699218 0.007813 l 4.011719 -4.011719 c 0.121094 -0.125 0.167969 -0.308594 0.121094 -0.480468 c -0.042969 -0.167969 -0.179688 -0.304688 -0.347657 -0.347657 z m 0 0"
     id="path6" />
  <path
     d="m 8.492188 10 c -0.273438 0.003906 -0.492188 0.226562 -0.492188 0.5 s 0.21875 0.496094 0.492188 0.5 h 4.015624 c 0.273438 -0.003906 0.492188 -0.226562 0.492188 -0.5 s -0.21875 -0.496094 -0.492188 -0.5 z m 0 0"
     id="path8" />
  <path
     d="m 10.5 8 c -0.273438 0 -0.496094 0.21875 -0.5 0.492188 v 4.015624 c 0.003906 0.273438 0.226562 0.492188 0.5 0.492188 s 0.496094 -0.21875 0.5 -0.492188 v -4.015624 c -0.003906 -0.273438 -0.226562 -0.492188 -0.5 -0.492188 z m 0 0"
     id="path10" />
</svg>
