<?xml version="1.0" encoding="UTF-8" standalone="no"?>
<svg
   height="16px"
   viewBox="0 0 16 16"
   width="16px"
   version="1.1"
   id="svg12"
   xmlns="http://www.w3.org/2000/svg"
   xmlns:svg="http://www.w3.org/2000/svg">
  <defs
     id="defs16" />
  <path
     d="M 2.1879886,1.1975947 C 1.914579,0.92964026 1.4771223,0.93510836 1.2037112,1.2085324 0.93576941,1.4764868 0.93030151,1.913964 1.1982434,2.1873865 L 6.8140932,7.8035003 C 6.9890758,7.973023 7.2460819,8.0386445 7.4812138,7.9784911 7.721815,7.9128701 7.9132026,7.7214729 7.9733532,7.4863286 c 0.065618,-0.240611 0,-0.4976292 -0.1695148,-0.6726201 z m 0,0"
     id="path1026"
     style="fill:#241f31;stroke-width:1" />
  <path
     d="m 7.4866817,1.028072 c -0.2405998,-0.065622 -0.4976059,0 -0.6725885,0.1695227 L 1.1982434,6.8137085 C 0.93576941,7.087131 0.94123731,7.5246082 1.2091764,7.7925626 1.4771182,8.0605185 1.9145749,8.0659865 2.1879845,7.8034961 L 7.8038384,2.1873865 C 7.9733532,2.0123956 8.0389715,1.7553774 7.9733532,1.5147664 7.9132026,1.2796221 7.721815,1.0882254 7.4866817,1.028072 Z m 0,0"
     id="path1023"
     style="fill:#241f31;stroke-width:1" />
  <path
     id="path1020"
     style="fill:#241f31;stroke-width:1"
     d="m 11.500347,8.000365 c -0.382775,0 -0.694462,0.3062335 -0.69993,0.6890265 V 10.800218 H 8.6896885 c -0.382776,0.0055 -0.6889946,0.317171 -0.6889946,0.699964 0,0.382793 0.3062186,0.694495 0.6889946,0.699963 h 2.1107285 v 2.110827 c 0.0055,0.382795 0.317155,0.689027 0.69993,0.689027 0.382776,0 0.694463,-0.306232 0.699931,-0.689027 v -2.110827 h 2.110728 C 14.693782,12.194645 15,11.882975 15,11.500182 15,11.117389 14.693782,10.805687 14.311006,10.800218 H 12.200278 V 8.6893915 C 12.194778,8.3065985 11.883123,8.000365 11.500347,8.000365 Z" />
</svg>
