<?xml version="1.0" encoding="UTF-8" standalone="no"?>
<svg
   height="16px"
   viewBox="0 0 16 16"
   width="16px"
   version="1.1"
   id="svg12"
   xmlns="http://www.w3.org/2000/svg"
   xmlns:svg="http://www.w3.org/2000/svg">
  <defs
     id="defs16" />
  <path
     style="color:#000000;fill:#241f31;stroke-width:1;stroke-linecap:round;stroke-linejoin:round;-inkscape-stroke:none"
     d="M 2.55,6 A 0.55,0.5 0 0 0 2,6.5 0.55,0.5 0 0 0 2.55,7 h 9.9 A 0.55,0.5 0 0 0 13,6.5 0.55,0.5 0 0 0 12.45,6 Z"
     id="path1284" />
  <path
     style="color:#000000;fill:#241f31;stroke-linecap:round;stroke-linejoin:round;-inkscape-stroke:none"
     d="M 7.5,1 A 0.5,0.5 0 0 0 7,1.5 v 10 A 0.5,0.5 0 0 0 7.5,12 0.5,0.5 0 0 0 8,11.5 V 1.5 A 0.5,0.5 0 0 0 7.5,1 Z"
     id="path1286" />
  <path
     style="color:#000000;fill:#241f31;stroke-width:1;stroke-linecap:round;stroke-linejoin:round;-inkscape-stroke:none"
     d="M 2.55,14 A 0.55,0.5 0 0 0 2,14.5 0.55,0.5 0 0 0 2.55,15 h 9.9 A 0.55,0.5 0 0 0 13,14.5 0.55,0.5 0 0 0 12.45,14 Z"
     id="path1288" />
</svg>
