<?xml version="1.0" encoding="UTF-8"?>
<svg height="16px" viewBox="0 0 16 16" width="16px" xmlns="http://www.w3.org/2000/svg">
    <g fill="#241f31">
        <path d="m 5.078125 6.226562 h 1.074219 c 0.597656 0 1.078125 0.5 1.078125 1.113282 v 1.113281 c 0 0.617187 -0.480469 1.113281 -1.078125 1.113281 h -1.074219 c -0.597656 0 -1.078125 -0.496094 -1.078125 -1.113281 v -1.113281 c 0 -0.613282 0.480469 -1.113282 1.078125 -1.113282 z m 0 0"/>
        <path d="m 9.382812 7.339844 c -0.890624 0 -1.613281 -0.746094 -1.613281 -1.667969 c 0 -0.925781 0.722657 -1.671875 1.613281 -1.671875 c 0.894532 0 1.617188 0.746094 1.617188 1.671875 c 0 0.921875 -0.722656 1.667969 -1.617188 1.667969 z m 0 0"/>
        <path d="m 10.296875 8.3125 l -2.363281 1.398438 c -0.144532 0.082031 -0.234375 0.242187 -0.234375 0.414062 c 0 0.167969 0.089843 0.328125 0.234375 0.414062 l 2.363281 1.398438 c 0.148437 0.085938 0.324219 0.082031 0.46875 -0.003906 c 0.144531 -0.085938 0.234375 -0.246094 0.234375 -0.417969 v -2.785156 c 0 -0.171875 -0.089844 -0.332031 -0.234375 -0.417969 s -0.320313 -0.085938 -0.46875 0 z m 0 0"/>
        <path d="m 8 0 c -4.40625 0 -8 3.59375 -8 8 s 3.59375 8 8 8 s 8 -3.59375 8 -8 s -3.59375 -8 -8 -8 z m 0 2 c 3.324219 0 6 2.675781 6 6 s -2.675781 6 -6 6 s -6 -2.675781 -6 -6 s 2.675781 -6 6 -6 z m 0 0"/>
    </g>
</svg>
