<?xml version="1.0" encoding="UTF-8" standalone="no"?>
<svg
   height="16px"
   viewBox="0 0 16 16"
   width="16px"
   version="1.1"
   id="svg12"
   xmlns="http://www.w3.org/2000/svg"
   xmlns:svg="http://www.w3.org/2000/svg">
  <defs
     id="defs16" />
  <path
     style="color:#000000;fill:#241f31;stroke-linecap:round;stroke-linejoin:round;-inkscape-stroke:none"
     d="M 1.5,2 A 0.49999851,0.49999851 0 0 0 1,2.5 0.49999851,0.49999851 0 0 0 1.5,3 c 0,0 2.8966032,0.0069 5.7773437,1.4472656 C 10.158084,5.8876362 13,8.6666707 13,14.5 A 0.49999851,0.49999851 0 0 0 13.5,15 0.49999851,0.49999851 0 0 0 14,14.5 C 14,8.3333387 10.84191,5.1123615 7.7226562,3.5527344 4.6034028,1.9931073 1.5,2 1.5,2 Z"
     id="path1099" />
  <path
     style="color:#000000;fill:#241f31;stroke-linecap:round;stroke-linejoin:round;-inkscape-stroke:none"
     d="M 1.5,8 A 0.5,0.5 0 0 0 1,8.5 0.5,0.5 0 0 0 1.5,9 c 0,0 1.3966021,0.00689 2.7773437,0.6972656 C 5.6580854,10.387636 7,11.666669 7,14.5 A 0.5,0.5 0 0 0 7.5,15 0.5,0.5 0 0 0 8,14.5 C 8,11.333336 6.3419116,9.6123621 4.7226562,8.8027344 3.1034009,7.9931067 1.5,8 1.5,8 Z"
     id="path1099-3" />
  <path
     style="color:#000000;fill:#241f31;stroke-linecap:round;stroke-linejoin:round;-inkscape-stroke:none"
     d="M 1.5,5 A 0.49999899,0.49999899 0 0 0 1,5.5 0.49999899,0.49999899 0 0 0 1.5,6 c 0,0 2.1466021,0.0069 4.2773437,1.0722656 C 7.9080854,8.1376363 10,10.16667 10,14.5 A 0.49999899,0.49999899 0 0 0 10.5,15 0.49999899,0.49999899 0 0 0 11,14.5 C 11,9.833338 8.5919111,7.3623616 6.2226562,6.1777344 3.8534014,4.9931071 1.5,5 1.5,5 Z"
     id="path1099-3-6" />
  <circle
     style="fill:#241f31;stroke:none;stroke-linecap:round;stroke-linejoin:round;stop-color:#000000"
     id="path1503"
     cx="2"
     cy="14"
     r="1" />
</svg>
