<svg xmlns="http://www.w3.org/2000/svg" xmlns:svg="http://www.w3.org/2000/svg" id="svg10" width="16" height="16" version="1.1" viewBox="0 0 16 16"><path id="rect1009" d="M 2 2 C 1.795493 2 1.6031644 2.063197 1.4433594 2.171875 C 1.3900894 2.208101 1.3403799 2.249464 1.2949219 2.2949219 C 1.2494619 2.3403799 1.208102 2.3900909 1.171875 2.4433594 C 1.063197 2.6031636 1 2.7954934 1 3 L 1 13 C 1 13.204507 1.0632 13.396836 1.171875 13.556641 C 1.208105 13.609911 1.2494649 13.65962 1.2949219 13.705078 C 1.3403819 13.750538 1.3900924 13.791898 1.4433594 13.828125 C 1.6031644 13.936803 1.795493 14 2 14 L 3.7851562 14 L 7 14 L 7 13 L 6 13 L 5 13 L 4 13 L 3 13 L 2 13 L 2 6 L 2 5 L 2 3 L 3 3 L 4 3 L 5 3 L 6 3 L 14 3 L 14 5 L 14 6 L 14 13 L 13 13 L 13 14 L 14 14 C 14.545351 14 15 13.545351 15 13 L 15 3 C 15 2.4546492 14.545351 2 14 2 L 3.7851562 2 L 2 2 z" style="color:#000;fill:#241f31;stroke-linecap:round;stroke-linejoin:round;-inkscape-stroke:none"/><path id="path1332" d="M 8.5 10 C 8.223 10 8 10.223 8 10.5 L 8 14.5 C 8 14.777 8.223 15 8.5 15 L 11.5 15 C 11.517312 15 11.533932 14.999748 11.550781 14.998047 C 11.803522 14.972533 12 14.759688 12 14.5 L 12 10.5 C 12 10.223 11.777 10 11.5 10 L 8.5 10 z M 9 11 L 11 11 L 11 14 L 9 14 L 9 11 z" style="fill:#241f31;stroke-linecap:round;stroke-linejoin:round;stop-color:#000"/></svg>