<svg xmlns="http://www.w3.org/2000/svg" xmlns:svg="http://www.w3.org/2000/svg" id="svg12" width="16" height="16" version="1.1" viewBox="0 0 16 16"><path style="color:#000;fill:#241f31;stroke-linecap:round;stroke-linejoin:round;-inkscape-stroke:none" id="rect3070" d="M 1.5,1 A 0.50005,0.50005 0 0 0 1,1.5 v 13 A 0.50005,0.50005 0 0 0 1.5,15 h 13 A 0.50005,0.50005 0 0 0 15,14.5 V 1.5 A 0.50005,0.50005 0 0 0 14.5,1 Z M 2,2 H 14 V 14 H 2 Z"/><path id="path3240" d="M 8 3 C 5.2445018 3 3 5.2445014 3 8 C 3 10.755499 5.2445018 13 8 13 C 10.044711 13 11.806417 11.763496 12.580078 10 L 11.464844 10 C 10.774786 11.196553 9.4852232 12 8 12 C 5.7849404 12 4 10.21506 4 8 C 4 5.7849398 5.7849404 4 8 4 C 9.4852232 4 10.774786 4.8034468 11.464844 6 L 12.580078 6 C 11.806417 4.2365038 10.044711 3 8 3 z" style="color:#000;fill:#241f31;stroke-linecap:round;stroke-linejoin:round;-inkscape-stroke:none"/><path id="rect952" d="M 11.5 7 A 0.49999949 0.49999949 0 0 0 11.146484 7.1464844 A 0.49999949 0.49999949 0 0 0 11.146484 7.8535156 L 11.292969 8 L 7.5 8 C 7.223 8 7 8.223 7 8.5 C 7 8.777 7.223 9 7.5 9 L 12.5 9 C 12.533324 9 12.56619 8.996395 12.597656 8.9902344 A 0.49999949 0.49999949 0 0 0 12.601562 8.9902344 C 12.662929 8.9777406 12.71868 8.9525593 12.769531 8.9199219 C 12.773491 8.9173803 12.777368 8.9147588 12.78125 8.9121094 C 12.806981 8.8945474 12.831566 8.8754649 12.853516 8.8535156 A 0.49999949 0.49999949 0 0 0 12.886719 8.8183594 C 12.890884 8.8133084 12.89447 8.80795 12.898438 8.8027344 A 0.49999949 0.49999949 0 0 0 12.914062 8.7792969 C 12.915371 8.777357 12.916687 8.7753968 12.917969 8.7734375 A 0.49999949 0.49999949 0 0 0 12.939453 8.7382812 C 12.943642 8.7305513 12.947385 8.7228153 12.951172 8.7148438 A 0.49999949 0.49999949 0 0 0 12.960938 8.6953125 C 12.962493 8.6916225 12.963375 8.6873288 12.964844 8.6835938 A 0.49999949 0.49999949 0 0 0 12.976562 8.6503906 C 12.979082 8.6423975 12.98225 8.6351167 12.984375 8.6269531 C 12.985068 8.6242906 12.985678 8.6218205 12.986328 8.6191406 A 0.49999949 0.49999949 0 0 0 12.990234 8.6015625 C 12.991376 8.5959552 12.991234 8.5896595 12.992188 8.5839844 A 0.49999949 0.49999949 0 0 0 13 8.5 C 13 8.4940161 13.000206 8.4883537 13 8.4824219 A 0.49999949 0.49999949 0 0 0 12.990234 8.3984375 C 12.988998 8.3923636 12.987782 8.3868497 12.986328 8.3808594 A 0.49999949 0.49999949 0 0 0 12.984375 8.3730469 C 12.98225 8.3648833 12.979082 8.3576025 12.976562 8.3496094 A 0.49999949 0.49999949 0 0 0 12.960938 8.3046875 C 12.95807 8.2978853 12.954327 8.2917992 12.951172 8.2851562 A 0.49999949 0.49999949 0 0 0 12.939453 8.2617188 C 12.938333 8.2596511 12.936695 8.2579091 12.935547 8.2558594 A 0.49999949 0.49999949 0 0 0 12.925781 8.2421875 C 12.922779 8.2372285 12.921137 8.2314057 12.917969 8.2265625 A 0.49999949 0.49999949 0 0 0 12.914062 8.2207031 C 12.908766 8.2128505 12.90416 8.2047899 12.898438 8.1972656 A 0.49999949 0.49999949 0 0 0 12.886719 8.1816406 C 12.883814 8.1781185 12.879951 8.1753147 12.876953 8.171875 A 0.49999949 0.49999949 0 0 0 12.853516 8.1464844 L 12.818359 8.1132812 L 11.853516 7.1464844 A 0.49999949 0.49999949 0 0 0 11.5 7 z" style="fill:#241f31;stroke-linecap:round;stroke-linejoin:round;stop-color:#000"/></svg>