<?xml version="1.0" encoding="UTF-8" standalone="no"?>
<svg
   width="16"
   height="16"
   version="1.1"
   id="svg12"
   xmlns="http://www.w3.org/2000/svg"
   xmlns:svg="http://www.w3.org/2000/svg">
  <defs
     id="defs16" />
  <g
     aria-label="?"
     id="text3019"
     style="font-size:10px;line-height:1.25;fill:#241f31;stroke-width:0.950049"
     transform="matrix(1.0278544,0,0,1.0778947,0.86072778,0.766316)">
    <path
       d="M 5.9729007,9.4941409 H 6.9458011 V 10.421875 H 5.9729007 Z M 6.9458011,8.5664065 H 5.9729007 c 0,-0.9277344 0,-0.9277344 0,-1.8554688 0,-0.9277344 0,-0.9277344 0.9729004,-0.9277344 0.9729004,0 0.9729004,0 0.9729004,-0.9277344 0,-0.9277344 0,-0.9277344 -0.9729004,-0.9277344 -0.7256484,0 -1.3989866,0 -1.9458009,0 V 3.0000001 c 0.9729005,0 1.9458009,0 2.9187013,0 0.9729005,0 0.9729005,0 0.9729005,0.9277344 0,0.6695725 0,1.1437254 0,1.8554688 0,0.9277344 0,0.9277344 -0.9729005,0.9277344 -0.9729004,0 -0.7418462,0 -0.9729004,0 0,0.3871314 0,0.9277344 0,1.8554688 z"
       id="path8642"
       style="fill:#241f31;stroke-width:0.950049" />
  </g>
  <path
     style="color:#000000;fill:#241f31;stroke-linecap:round;stroke-linejoin:round;-inkscape-stroke:none"
     d="M 2.5,1 A 0.50005,0.50005 0 0 0 2,1.5 v 13 A 0.50005,0.50005 0 0 0 2.5,15 h 11 A 0.50005,0.50005 0 0 0 14,14.5 V 5.2148437 A 0.50005,0.50005 0 0 0 13.855469,4.8632812 L 10.189453,1.1484375 A 0.50005,0.50005 0 0 0 9.8339844,1 Z M 3,2 H 9.625 L 13,5.4199219 V 14 H 3 Z"
     id="path859" />
</svg>
