<?xml version="1.0" encoding="UTF-8" standalone="no"?>
<svg
   height="16px"
   viewBox="0 0 16 16"
   width="16px"
   version="1.1"
   id="svg10"
   xmlns="http://www.w3.org/2000/svg"
   xmlns:svg="http://www.w3.org/2000/svg">
  <defs
     id="defs14" />
  <g
     fill="#241f31"
     id="g8">
    <path
       d="m 2 0 v 16 h 9.074219 c 1.925781 0 2.925781 -1.769531 2.925781 -3 v -10 c 0 -2 -2 -3 -3 -3 z m 2 2 h 8 v 12 h -8 z m 0 0"
       id="path2" />
    <path
       d="m 10 7 c 0 1.105469 -0.894531 2 -2 2 s -2 -0.894531 -2 -2 s 0.894531 -2 2 -2 s 2 0.894531 2 2 z m 0 0"
       id="path4" />
    <path
       d="m 8 10 c -1.65625 0 -3 1.34375 -3 3 h 6 c 0 -1.65625 -1.34375 -3 -3 -3 z m 0 0"
       id="path6" />
  </g>
</svg>
