<?xml version="1.0" encoding="UTF-8" standalone="no"?>
<svg
   height="16px"
   viewBox="0 0 16 16"
   width="16px"
   version="1.1"
   id="svg10"
   xmlns="http://www.w3.org/2000/svg"
   xmlns:svg="http://www.w3.org/2000/svg">
  <defs
     id="defs14" />
  <g
     fill="#241f31"
     id="g8">
    <path
       d="m 3 0 c -1.660156 0 -3 1.339844 -3 3 v 10 c 0 1.660156 1.339844 3 3 3 h 10 c 1.660156 0 3 -1.339844 3 -3 v -10 c 0 -1.660156 -1.339844 -3 -3 -3 z m -1 5 h 12 v 9 h -12 z m 0 0"
       id="path2" />
    <path
       d="m 4 7 v 1 h 3 v 1 h -2 v 1 h 2 v 1 h -3 v 1 h 4 v -5 z m 0 0"
       id="path4" />
    <path
       d="m 10 7 v 1 h 1 v 4 h 1 v -5 z m 0 0"
       id="path6" />
  </g>
</svg>
