<?xml version="1.0" encoding="UTF-8" standalone="no"?>
<svg
   height="16px"
   viewBox="0 0 16 16"
   width="16px"
   version="1.1"
   id="svg10"
   xmlns="http://www.w3.org/2000/svg"
   xmlns:svg="http://www.w3.org/2000/svg">
  <defs
     id="defs14" />
  <path
     style="color:#000000;fill:#241f31;stroke-width:1;-inkscape-stroke:none"
     d="M 8.0019529,10 C 6.1906588,10 4.9262051,10.602015 4.1374285,11.218482 3.3486518,11.834949 3.001953,12.501433 3.001953,12.501433 L 3,13 c 0,0 0,0 1,0 0.2160824,-0.115124 0.6618676,-0.787913 0.8278322,-0.917622 0.619051,-0.483817 1.6066298,-0.982092 3.1741207,-0.982092 1.567491,0 2.5550701,0.498274 3.1741211,0.982092 C 11.342438,12.212399 11.783774,12.884652 12,13 c 1,0 1,0 1,0 l 0.002,-0.498567 c 0,0 -0.346699,-0.666485 -1.135475,-1.282952 C 11.077701,10.602015 9.8132471,10 8.0019529,10 Z"
     id="path940" />
  <path
     style="color:#000000;fill:#241f31;stroke-linecap:round;stroke-linejoin:round;-inkscape-stroke:none"
     d="M 8,5 C 6.9013539,5 6,5.9013539 6,7 6,8.0986461 6.9013539,9 8,9 9.0986461,9 10,8.0986461 10,7 10,5.9013539 9.0986461,5 8,5 Z M 8,6 C 8.5582065,6 9,6.4417935 9,7 9,7.5582065 8.5582065,8 8,8 7.4417935,8 7,7.5582065 7,7 7,6.4417935 7.4417935,6 8,6 Z"
     id="path1097" />
  <path
     id="path1216"
     style="color:#000000;fill:#241f31;stroke-linecap:round;stroke-linejoin:round;-inkscape-stroke:none"
     d="M 2.5 2 A 0.50005 0.50005 0 0 0 2 2.5 L 2 12.474609 C 1.9995696 12.483155 2 12.491344 2 12.5 C 2 12.56715 2.013307 12.631058 2.0371094 12.689453 A 0.5 0.5 0 0 0 2.0371094 12.693359 C 2.0371094 12.693359 2.0390625 12.695312 2.0390625 12.695312 C 2.0642969 12.755173 2.1012969 12.808328 2.1464844 12.853516 C 2.1916719 12.898703 2.2448281 12.935702 2.3046875 12.960938 C 2.3065028 12.961702 2.3087206 12.962146 2.3105469 12.962891 C 2.3689424 12.986693 2.43285 13 2.5 13 L 3.5 13 C 3.777 13 4 12.777 4 12.5 C 4 12.223 3.777 12 3.5 12 L 3 12 L 3 3 L 13 3 L 13 12 L 12.5 12 C 12.223 12 12 12.223 12 12.5 C 12 12.777 12.223 13 12.5 13 L 13.5 13 C 13.56715 13 13.631058 12.986693 13.689453 12.962891 C 13.689988 12.962673 13.690873 12.96311 13.691406 12.962891 A 0.5 0.5 0 0 0 13.695312 12.960938 C 13.755172 12.935703 13.808328 12.898703 13.853516 12.853516 C 13.898703 12.808328 13.935703 12.755172 13.960938 12.695312 C 13.961703 12.693497 13.962146 12.691279 13.962891 12.689453 C 13.986693 12.631058 14 12.56715 14 12.5 C 14 12.491344 14.00043 12.483155 14 12.474609 L 14 2.5 A 0.50005 0.50005 0 0 0 13.5 2 L 2.5 2 z " />
</svg>
