<svg xmlns="http://www.w3.org/2000/svg" xmlns:svg="http://www.w3.org/2000/svg" id="svg10" width="16" height="16" version="1.1" viewBox="0 0 16 16"><path id="path4" d="M 4,7 V 8 H 7 V 9 H 5 v 1 h 2 v 1 H 4 v 1 H 8 V 7 Z m 0,0" style="fill:#241f31"/><path id="path6" d="m 10,7 v 1 h 1 v 4 h 1 V 7 Z m 0,0" style="fill:#241f31"/><path id="path1202" d="M 1.5 1 C 1.223 1 1 1.223 1 1.5 L 1 14.5 C 1 14.777 1.223 15 1.5 15 L 14.5 15 C 14.777 15 15 14.777 15 14.5 L 15 1.5 C 15 1.223 14.777 1 14.5 1 L 1.5 1 z M 2.5 4 L 13.5 4 C 13.777 4 14 4.223 14 4.5 L 14 13.5 C 14 13.777 13.777 14 13.5 14 L 2.5 14 C 2.223 14 2 13.777 2 13.5 L 2 4.5 C 2 4.223 2.223 4 2.5 4 z" style="fill:#241f31;stroke-width:1;stroke-linecap:round;stroke-linejoin:round;stop-color:#000"/></svg>