<?xml version="1.0" encoding="UTF-8"?>
<svg height="16px" viewBox="0 0 16 16" width="16px" xmlns="http://www.w3.org/2000/svg">
    <g fill="#241f31">
        <path d="m 1 5 v 10 h 14 v -10 z m 5.5 1 h 2.25 c 0.132812 0 0.261719 0.054688 0.355469 0.15625 l 1.75 1.867188 c 0.09375 0.101562 0.144531 0.234374 0.144531 0.378906 v 4 c 0 0.875 -0.675781 1.597656 -1.5 1.597656 h -3 c -0.824219 0 -1.5 -0.722656 -1.5 -1.597656 v -4.804688 c 0 -0.875 0.675781 -1.597656 1.5 -1.597656 z m 0 1.066406 c -0.285156 0 -0.5 0.230469 -0.5 0.53125 v 4.804688 c 0 0.300781 0.214844 0.53125 0.5 0.53125 h 3 c 0.285156 0 0.5 -0.230469 0.5 -0.53125 v -3.734375 h -0.75 c -0.5 0 -0.75 -0.265625 -0.75 -0.800781 v -0.800782 z m 0 0"/>
        <path d="m 2.5 1.5 h 11 v 1 h -11 z m 0 0" stroke="#241f31" stroke-linecap="round" stroke-linejoin="round" stroke-width="0.999995"/>
        <path d="m 1 4 c -0.550781 0 -1 0.449219 -1 1 v 10 c 0 0.550781 0.449219 1 1 1 h 14 c 0.550781 0 1 -0.449219 1 -1 v -10 c 0 -0.550781 -0.449219 -1 -1 -1 z m 1 2 h 12 v 8 h -12 z m 0 0"/>
    </g>
</svg>
