<?xml version="1.0" encoding="UTF-8" standalone="no"?>
<svg
   height="16px"
   viewBox="0 0 16 16"
   width="16px"
   version="1.1"
   id="svg4"
   xmlns="http://www.w3.org/2000/svg"
   xmlns:svg="http://www.w3.org/2000/svg">
  <defs
     id="defs8" />
  <path
     style="color:#000000;fill:#241f31;stroke-linecap:round;stroke-linejoin:round;-inkscape-stroke:none"
     d="M 5.0664062,1 C 4.1825629,1 3.3665848,1.2457613 2.796875,1.8398437 2.2272433,2.4338447 2,3.267233 2,4.1777344 v 7.6445316 c 0,0.910499 0.2272429,1.743889 0.796875,2.33789 C 3.366585,14.754239 4.1825633,15 5.0664062,15 h 5.8671878 c 0.883842,0 1.69982,-0.245761 2.269531,-0.839844 C 13.772757,13.566155 14,12.732765 14,11.822266 V 4.1777344 C 14,3.2672332 13.772756,2.4338448 13.203125,1.8398437 12.633415,1.2457616 11.817437,1 10.933594,1 Z m 0,1 h 5.8671878 c 0.705041,0 1.212357,0.1803853 1.548828,0.53125 C 12.81897,2.8821962 13,3.4313756 13,4.1777344 v 7.6445316 c 0,0.746356 -0.181031,1.295538 -0.517578,1.646484 C 12.145951,13.819615 11.638636,14 10.933594,14 H 5.0664062 C 4.3613634,14 3.8540482,13.819614 3.5175781,13.46875 3.1810302,13.117804 3,12.568622 3,11.822266 V 4.1777344 C 3,3.4313758 3.1810297,2.8821961 3.5175781,2.53125 3.8540484,2.1803852 4.3613638,2 5.0664062,2 Z"
     id="path2" />
  <path
     style="color:#000000;fill:#241f31;stroke-linecap:round;stroke-linejoin:round;-inkscape-stroke:none"
     d="M 5,3 C 4.4546492,3 4,3.4546492 4,4 v 4 c 0,0.5453508 0.4546492,1 1,1 h 6 c 0.545351,0 1,-0.4546492 1,-1 V 4 C 12,3.4546492 11.545351,3 11,3 Z m 0,1 h 6 V 8 H 5 Z"
     id="rect1774" />
  <path
     id="circle1952"
     style="fill:#241f31;fill-opacity:0.75;stroke-linecap:round;stroke-linejoin:round;stop-color:#000000"
     d="M 6,11 A 1,1 0 0 1 5,12 1,1 0 0 1 4,11 1,1 0 0 1 5,10 1,1 0 0 1 6,11 Z" />
  <path
     id="circle1955"
     style="fill:#241f31;fill-opacity:0.75;stroke-linecap:round;stroke-linejoin:round;stop-color:#000000"
     d="m 12,11 a 1,1 0 0 1 -1,1 1,1 0 0 1 -1,-1 1,1 0 0 1 1,-1 1,1 0 0 1 1,1 z" />
  <path
     id="circle1958"
     style="fill:#241f31;fill-opacity:0.75;stroke-linecap:round;stroke-linejoin:round;stop-color:#000000"
     d="M 9,11 A 1,1 0 0 1 8,12 1,1 0 0 1 7,11 1,1 0 0 1 8,10 1,1 0 0 1 9,11 Z" />
</svg>
