<?xml version="1.0" encoding="UTF-8" standalone="no"?>
<svg
   height="16"
   viewBox="0 0 16 16"
   width="16"
   version="1.1"
   id="svg30"
   xmlns="http://www.w3.org/2000/svg"
   xmlns:svg="http://www.w3.org/2000/svg">
  <defs
     id="defs34" />
  <linearGradient
     id="a"
     gradientUnits="userSpaceOnUse"
     x1="3.9999001"
     x2="123.99989"
     y1="64"
     y2="64">
    <stop
       offset="0"
       stop-color="#e66100"
       id="stop2"
       style="stop-color:#613583;stop-opacity:1" />
    <stop
       offset="0.0454546"
       stop-color="#ffa348"
       id="stop4"
       style="stop-color:#9141ac;stop-opacity:1" />
    <stop
       offset="0.0909091"
       stop-color="#e66100"
       id="stop6"
       style="stop-color:#613583;stop-opacity:1" />
    <stop
       offset="0.909091"
       stop-color="#e66100"
       id="stop8"
       style="stop-color:#613583;stop-opacity:1" />
    <stop
       offset="0.954545"
       stop-color="#ffa348"
       id="stop10"
       style="stop-color:#9141ac;stop-opacity:1" />
    <stop
       offset="1"
       stop-color="#e66100"
       id="stop12"
       style="stop-color:#613583;stop-opacity:1" />
  </linearGradient>
  <linearGradient
     id="b"
     gradientTransform="matrix(1,0,0,0.983051,0,-168.0339)"
     gradientUnits="userSpaceOnUse"
     x1="63.999901"
     x2="64"
     y1="177.00002"
     y2="291.505">
    <stop
       offset="0"
       stop-color="#f8e45c"
       id="stop15"
       style="stop-color:#99c1f1;stop-opacity:1" />
    <stop
       offset="1"
       stop-color="#f66151"
       id="stop17"
       style="stop-color:#9141ac;stop-opacity:1" />
  </linearGradient>
  <path
     style="color:#000000;fill:#241f31;-inkscape-stroke:none"
     d="M 8,0 C 3.5967977,0 0,3.5843235 0,8 c 0,4.415677 3.5967977,8 8,8 4.403203,0 8,-3.584323 8,-8 C 16,3.5843236 12.403203,0 8,0 Z m 0,1.6523437 c 3.534779,0 6.369141,2.8385176 6.369141,6.3476563 0,3.509139 -2.834362,6.347656 -6.369141,6.347656 C 4.4652208,14.347656 1.6308594,11.509139 1.6308594,8 1.6308594,4.4908613 4.4652208,1.6523438 8,1.6523437 Z"
     id="path24" />
  <g
     aria-label="?"
     id="text3660"
     style="font-size:4px;line-height:1.25;fill:#241f31;stroke:none;stroke-width:0.380019;stroke-linecap:round;stroke-linejoin:round;stroke-miterlimit:4;stroke-dasharray:none;stroke-opacity:1"
     transform="matrix(2.5696355,0,0,2.6947359,-144.125,-163.31698)">
    <path
       d="m 58.899242,64.562965 h 0.396485 v 0.496094 h -0.396485 z m 0.384766,-0.287109 h -0.373047 v -0.300781 q 0,-0.197266 0.05469,-0.324219 0.05469,-0.126953 0.230468,-0.294922 l 0.175782,-0.173828 q 0.111328,-0.103516 0.160156,-0.195312 0.05078,-0.0918 0.05078,-0.1875 0,-0.173829 -0.128906,-0.28125 -0.126953,-0.107422 -0.337891,-0.107422 -0.154297,0 -0.330078,0.06836 -0.173828,0.06836 -0.363281,0.199219 v -0.367188 q 0.183594,-0.111328 0.371094,-0.166015 0.189453,-0.05469 0.390625,-0.05469 0.359375,0 0.576172,0.189453 0.21875,0.189453 0.21875,0.5 0,0.148438 -0.07031,0.283203 -0.07031,0.132813 -0.246094,0.300782 l -0.171875,0.167968 q -0.0918,0.0918 -0.130859,0.144532 -0.03711,0.05078 -0.05273,0.09961 -0.01172,0.04102 -0.01758,0.09961 -0.0059,0.05859 -0.0059,0.160157 z"
       id="path4536"
       style="fill:#241f31;stroke:none;stroke-width:0.380019;stroke-linecap:round;stroke-linejoin:round;stroke-miterlimit:4;stroke-dasharray:none;stroke-opacity:1" />
  </g>
</svg>
