<?xml version="1.0" encoding="UTF-8" standalone="no"?>
<svg
   height="16px"
   viewBox="0 0 16 16"
   width="16px"
   version="1.1"
   id="svg8"
   xmlns="http://www.w3.org/2000/svg"
   xmlns:svg="http://www.w3.org/2000/svg">
  <defs
     id="defs12" />
  <path
     style="color:#000000;fill:#241f31;-inkscape-stroke:none"
     d="M 7.2519531,2 C 3.824794,2 1,4.583511 1,7.8066406 v 0.019531 l 0.00195,0.019531 c 0.00315,0.03896 0.00483,0.073716 0.00781,0.109375 -0.00311,0.03686 -0.0048,0.074163 -0.00781,0.1113282 L 1,8.0859375 v 0.021484 c 0,3.2231291 2.8244579,5.8050571 6.2519531,5.8007811 0.8704718,0 1.7170357,-0.211912 2.5097657,-0.542969 C 10.321899,13.72249 10.944868,14 11.623047,14 13.461609,14 14.994997,12.602738 15,10.847656 v -0.04297 l -0.0078,-0.04297 c -0.0018,-0.01036 -0.0074,-0.04105 -0.0098,-0.05859 0.0053,-0.03704 0.01207,-0.06925 0.01563,-0.113281 L 15,10.568359 v -0.02148 c -0.0045,-1.044093 -0.617814,-1.9446822 -1.503906,-2.5214844 -0.0013,-0.041701 -0.0017,-0.086627 -0.0039,-0.140625 l 0.0059,-0.037109 V 7.8046875 C 13.493499,4.582416 10.675268,2 7.2519531,2 Z m 0,1 c 2.9198519,0 5.2332459,2.161913 5.2441409,4.7949219 l -0.0078,0.039063 0.002,0.064453 c 0.0028,0.054071 0.0045,0.1236112 0.0078,0.2011719 -0.0037,0.035553 -0.0078,0.0694 -0.0078,0.1230469 V 8.53125 l 0.277344,0.1386719 c 0.766915,0.3810101 1.223919,1.0994416 1.230469,1.8750001 -0.003,0.02536 -0.0062,0.05002 -0.01172,0.08398 l -0.01367,0.08203 0.01367,0.08398 c 0.0019,0.01075 0.0072,0.04192 0.0098,0.06055 C 13.98628,12.021953 12.958282,13 11.623047,13 11.05406,13 10.501121,12.810174 10.070313,12.472656 l -0.2402349,-0.1875 -0.2753906,0.125 C 8.8412243,12.736635 8.0523449,12.908203 7.2519531,12.908203 H 7.25 C 4.3229082,12.911855 2.002321,10.747253 2,8.1113281 2.0031441,8.0726534 2.0067547,8.0343599 2.0097656,8 l 0.00391,-0.041016 -0.00195,-0.042969 C 2.0083975,7.8749813 2.0050789,7.8383328 2.0019531,7.8007812 2.005684,5.1659437 4.3254158,3 7.2519531,3 Z"
     id="path4" />
</svg>
