<?xml version="1.0" encoding="UTF-8" standalone="no"?>
<svg
   height="16px"
   viewBox="0 0 16 16"
   width="16px"
   version="1.1"
   id="svg10"
   sodipodi:docname="org.gnome.Nautilus-symbolic.svg"
   inkscape:version="1.1.2 (0a00cf5339, 2022-02-04)"
   xmlns:inkscape="http://www.inkscape.org/namespaces/inkscape"
   xmlns:sodipodi="http://sodipodi.sourceforge.net/DTD/sodipodi-0.dtd"
   xmlns="http://www.w3.org/2000/svg"
   xmlns:svg="http://www.w3.org/2000/svg">
  <defs
     id="defs14" />
  <sodipodi:namedview
     id="namedview12"
     pagecolor="#ffffff"
     bordercolor="#666666"
     borderopacity="1.0"
     inkscape:pageshadow="2"
     inkscape:pageopacity="0.0"
     inkscape:pagecheckerboard="0"
     showgrid="false"
     inkscape:zoom="46.5625"
     inkscape:cx="8"
     inkscape:cy="7.9892617"
     inkscape:window-width="2560"
     inkscape:window-height="919"
     inkscape:window-x="0"
     inkscape:window-y="0"
     inkscape:window-maximized="1"
     inkscape:current-layer="svg10" />
  <path
     d="M 1,5 V 15 H 15 V 5 Z m 5.5,1 h 2.25 c 0.132812,0 0.261719,0.054688 0.355469,0.15625 l 1.75,1.867188 C 10.949219,8.125 11,8.257812 11,8.402344 v 4 C 11,13.277344 10.324219,14 9.5,14 h -3 C 5.675781,14 5,13.277344 5,12.402344 V 7.597656 C 5,6.722656 5.675781,6 6.5,6 Z m 0,1.066406 c -0.285156,0 -0.5,0.230469 -0.5,0.53125 v 4.804688 c 0,0.300781 0.214844,0.53125 0.5,0.53125 h 3 c 0.285156,0 0.5,-0.230469 0.5,-0.53125 V 8.667969 H 9.25 c -0.5,0 -0.75,-0.265625 -0.75,-0.800781 V 7.066406 Z m 0,0"
     id="path2"
     style="fill:#241f31" />
  <g
     id="path4">
    <path
       style="color:#000000;fill:#241f31;stroke-width:0.999995;stroke-linecap:round;stroke-linejoin:round;-inkscape-stroke:none"
       d="m 2.5,1.5 h 11 v 1 h -11 z m 0,0"
       id="path878" />
    <path
       style="color:#000000;fill:#241f31;stroke-linecap:round;stroke-linejoin:round;-inkscape-stroke:none"
       d="M 2.5,1 A 0.5000475,0.5000475 0 0 0 2,1.5 v 1 A 0.5000475,0.5000475 0 0 0 2.5,3 h 11 A 0.5000475,0.5000475 0 0 0 14,2.5 v -1 A 0.5000475,0.5000475 0 0 0 13.5,1 Z"
       id="path880" />
  </g>
  <path
     d="M 1,4 C 0.449219,4 0,4.449219 0,5 v 10 c 0,0.550781 0.449219,1 1,1 h 14 c 0.550781,0 1,-0.449219 1,-1 V 5 C 16,4.449219 15.550781,4 15,4 Z m 1,2 h 12 v 8 H 2 Z m 0,0"
     id="path6"
     style="fill:#241f31" />
</svg>
