<?xml version="1.0" encoding="UTF-8" standalone="no"?>
<svg
   height="16px"
   viewBox="0 0 16 16"
   width="16px"
   version="1.1"
   id="svg36"
   xmlns="http://www.w3.org/2000/svg"
   xmlns:svg="http://www.w3.org/2000/svg">
  <defs
     id="defs40" />
  <filter
     id="a"
     height="1"
     width="1"
     x="0"
     y="0">
    <feColorMatrix
       in="SourceGraphic"
       type="matrix"
       values="0 0 0 0 1 0 0 0 0 1 0 0 0 0 1 0 0 0 1 0"
       id="feColorMatrix2" />
  </filter>
  <mask
     id="b">
    <g
       filter="url(#a)"
       id="g7">
      <rect
         fill-opacity="0.03838"
         height="16"
         width="16"
         id="rect5" />
    </g>
  </mask>
  <radialGradient
     id="c"
     cx="63.999996"
     cy="194.190475"
     gradientTransform="matrix(0.00000125 -4.234848 -1.390909 -0.00000027 312.308228 346.951996)"
     gradientUnits="userSpaceOnUse"
     r="44">
    <stop
       offset="0"
       stop-color="#e8e7e4"
       id="stop10" />
    <stop
       offset="0.511049"
       stop-color="#ffffff"
       id="stop12" />
    <stop
       offset="1"
       stop-color="#c2bfba"
       id="stop14" />
  </radialGradient>
  <clipPath
     id="d">
    <rect
       height="152"
       width="192"
       id="rect17" />
  </clipPath>
  <g
     clip-path="url(#d)"
     mask="url(#b)"
     transform="matrix(1 0 0 1 -168 -16)"
     id="g22">
    <path
       d="m 37.671875 36.503906 v 86 h 68 v -86 z m 0 0"
       fill="url(#c)"
       id="path20" />
  </g>
  <path
     d="m 5,3 h 5 V 4 H 5 Z m 0,0"
     id="path30"
     style="fill:#241f31;stroke-width:1" />
  <path
     d="m 7,5 h 4 V 6 H 7 Z m 0,0"
     id="path32"
     style="fill:#241f31" />
  <path
     d="M 5,7 H 8 V 8 H 5 Z"
     id="path32-3"
     style="fill:#241f31" />
  <g
     clip-path="url(#c-7)"
     mask="url(#b-6)"
     transform="translate(-145.3257,-53.945748)"
     id="g2169">
    <path
       d="m 96,96 h 6 c 0.55078,0 1,0.449219 1,1 0,0.550781 -0.44922,1 -1,1 h -6 c -0.550781,0 -1,-0.449219 -1,-1 0,-0.550781 0.449219,-1 1,-1 z m 0,0"
       fill="#8f3200"
       id="path2167" />
  </g>
  <g
     clip-path="url(#e)"
     mask="url(#d-5)"
     transform="translate(-145.3257,-53.945748)"
     id="g2173">
    <path
       d="m 96,100 h 6 c 0.55078,0 1,0.44922 1,1 0,0.55078 -0.44922,1 -1,1 h -6 c -0.550781,0 -1,-0.44922 -1,-1 0,-0.55078 0.449219,-1 1,-1 z m 0,0"
       fill="#8f3200"
       id="path2171" />
  </g>
  <g
     clip-path="url(#g)"
     mask="url(#f)"
     transform="translate(-145.3257,-53.945748)"
     id="g2177">
    <path
       d="m 96,104 h 6 c 0.55078,0 1,0.44922 1,1 0,0.55078 -0.44922,1 -1,1 h -6 c -0.550781,0 -1,-0.44922 -1,-1 0,-0.55078 0.449219,-1 1,-1 z m 0,0"
       fill="#8f3200"
       id="path2175" />
  </g>
  <path
     id="path2179"
     style="fill:#241f31;stroke-width:1"
     d="M 11.974609,8 C 11,8 10.449219,7.9804688 11,8 10.449219,7.980469 12,8 12,8 H 11 L 10.570312,8.00977 C 10.149451,7.9949676 9.7262162,8.0060431 9.3046875,8.0019531 9.0022647,8.0108231 8.9877664,8.3320066 9.0039062,8.5488281 9.0077725,9.0323933 8.9972188,9.5168003 9.0097656,10 H 9.5 10.5 10.802734 11 v 0 h 0.410156 2.416016 c 0.0015,-0.094646 -0.0136,-0.1950172 -0.0039,-0.2792969 V 9.28125 C 14.418681,9.238792 15.049221,9.6729056 15.5586,10 16,10 16,10 16,10 16.052728,8 15.02732,8.1530226 14.230469,8.0429688 13.62384,7.9678437 13.008939,8.0151321 12.398438,8.0019531 12.257466,8.0067981 12.116469,8 11.974609,8 Z M 12,11 12.01563,16 H 13 v -5 z" />
  <path
     d="m 24.674304,-34.945748 h 1 v 7 h -1 z m 0,0"
     id="path2191"
     style="fill:#241f31" />
  <path
     d="m 24.424304,-36.945748 h 1.5 l 0.75,3 h -3 z m 0,0"
     id="path2193"
     style="fill:#241f31" />
  <path
     d="m 24.674304,-29.945748 h 1 c 0.550781,0 1,0.449219 1,1 v 5 c 0,0.550781 -0.449219,1 -1,1 h -1 c -0.550781,0 -1,-0.449219 -1,-1 v -5 c 0,-0.550781 0.449219,-1 1,-1 z m 0,0"
     id="path2195"
     style="fill:#241f31" />
  <path
     id="path1044"
     style="fill:#241f31;fill-opacity:1;stroke-linecap:round;stroke-linejoin:round;stop-color:#000000"
     d="M 2.5 1 C 2.223 1 2 1.223 2 1.5 L 2 14.5 C 2 14.534625 2.003127 14.568955 2.0097656 14.601562 C 2.0164043 14.63417 2.0264453 14.665383 2.0390625 14.695312 C 2.0516797 14.725242 2.068002 14.752705 2.0859375 14.779297 C 2.103873 14.805889 2.1238906 14.830922 2.1464844 14.853516 C 2.1690781 14.876109 2.1941113 14.896127 2.2207031 14.914062 C 2.2472949 14.931998 2.2747578 14.94832 2.3046875 14.960938 C 2.3346172 14.973555 2.3658301 14.983596 2.3984375 14.990234 C 2.4310449 14.996873 2.465375 15 2.5 15 L 9.5 15 C 9.777 15 10 14.777 10 14.5 C 10 14.223 9.777 14 9.5 14 L 3 14 L 3 2 L 13 2 L 13 5.5 C 13 5.777 13.223 6 13.5 6 C 13.777 6 14 5.777 14 5.5 L 14 1.5 C 14 1.223 13.777 1 13.5 1 L 2.5 1 z " />
</svg>
