<?xml version="1.0" encoding="UTF-8" standalone="no"?>
<svg
   height="16px"
   viewBox="0 0 16 16"
   width="16px"
   version="1.1"
   id="svg8"
   xmlns="http://www.w3.org/2000/svg"
   xmlns:svg="http://www.w3.org/2000/svg">
  <defs
     id="defs12" />
  <path
     d="M 7.2513142,2.5000002 C 4.0732852,2.5000002 1.5,4.8752707 1.5,7.8056957 1.50417,7.8572434 1.50834,7.9048344 1.512512,7.9563804 1.508342,8.0039681 1.504172,8.0555192 1.5,8.107066 c 0,2.930425 2.5732852,5.305695 5.7513142,5.30173 0.8716637,0 1.7308152,-0.186374 2.5107254,-0.543259 C 10.283369,13.273973 10.942331,13.5 11.622146,13.5 c 1.589014,0 2.873571,-1.189618 2.877742,-2.652848 -0.0083,-0.04758 -0.01251,-0.0912 -0.02085,-0.138788 0.0083,-0.05155 0.01669,-0.107067 0.02085,-0.158616 -0.0042,-0.9754877 -0.58389,-1.8677002 -1.509772,-2.3276863 0,-0.039651 0.0042,-0.07931 0.0083,-0.1149957 -0.0042,-0.07931 -0.0042,-0.1546506 -0.0083,-0.2339581 0.0042,-0.019825 0.0042,-0.043619 0.0083,-0.067413 C 12.99428,4.8752707 10.425172,2.5000002 7.2513142,2.5000002 Z m 0,0"
     id="path4"
     style="fill:none;stroke:#000000;stroke-width:0.999996;stroke-opacity:1" />
</svg>
