<?xml version="1.0" encoding="UTF-8" standalone="no"?>
<svg
   height="16px"
   viewBox="0 0 16 16"
   width="16px"
   version="1.1"
   id="svg12"
   xmlns="http://www.w3.org/2000/svg"
   xmlns:svg="http://www.w3.org/2000/svg">
  <defs
     id="defs16" />
  <g
     fill="#241f31"
     id="g10">
    <path
       d="m 2 3.007812 c -1.117188 0.078126 -2 0.855469 -2 1.992188 v 7.976562 c 0 1.203126 0.980469 2 2.1875 2 h 11.625 c 1.207031 0 2.1875 -1.015624 2.1875 -2.21875 v -7.539062 c 0 -1.136719 -0.882812 -2.109375 -2 -2.207031 v 9.988281 h -12 z m 0 0"
       id="path2" />
    <path
       d="m 14.691406 3.605469 l -6.691406 4.394531 l -6.699219 -4.398438 l -0.601562 0.796876 l 7.300781 4.59375 l 7.308594 -4.597657 z m 0 0"
       id="path4" />
    <path
       d="m 8 0 l 6 3.011719 v 0.988281 h -12 v -0.992188 z m 0 0"
       id="path6" />
    <path
       d="m 8 8 l -6.222656 4.550781 l 0.445312 0.898438 l 5.777344 -4.449219 l 5.777344 4.449219 l 0.445312 -0.898438 z m 0 0"
       id="path8" />
  </g>
</svg>
