<?xml version="1.0" encoding="UTF-8" standalone="no"?>
<svg
   height="16px"
   viewBox="0 0 16 16"
   width="16px"
   version="1.1"
   id="svg10"
   xmlns="http://www.w3.org/2000/svg"
   xmlns:svg="http://www.w3.org/2000/svg">
  <defs
     id="defs14" />
  <path
     id="path2"
     style="fill:#241f31"
     d="M 3 0 C 1.339844 0 0 1.339844 0 3 L 0 13 C 0 14.660156 1.339844 16 3 16 L 13 16 C 14.660156 16 16 14.660156 16 13 L 16 3 C 16 1.339844 14.660156 0 13 0 L 3 0 z M 2 2 L 14 2 L 14 11 L 2 11 L 2 2 z M 9 12 C 9.554 12 10 12.446 10 13 C 10 13.554 9.554 14 9 14 C 8.446 14 8 13.554 8 13 C 8 12.446 8.446 12 9 12 z M 13 12 C 13.554 12 14 12.446 14 13 C 14 13.554 13.554 14 13 14 C 12.446 14 12 13.554 12 13 C 12 12.446 12.446 12 13 12 z " />
  <g
     id="layer1"
     transform="matrix(1.4173229,0,0,1.4173229,4.9999999,3.9999999)"
     style="stroke-width:2.66665">
    <path
       style="color:#000000;fill:#241f31;stroke-width:2.66665;stroke-linejoin:round;-inkscape-stroke:none"
       d="m 3.5008446,3.2295365 a 0.19244765,0.19244724 0 0 0 -0.269892,0.00142 0.19244765,0.19244724 0 0 0 -0.00142,0.2698914 L 3.9071054,4.1784158 A 0.19244765,0.19244724 0 0 0 4.091766,4.2267126 0.19244765,0.19244724 0 0 0 4.2267121,4.0917669 0.19244765,0.19244724 0 0 0 4.1784153,3.9071043 Z"
       id="path1050" />
    <path
       style="color:#000000;fill:#241f31;stroke-width:2.66665;stroke-linecap:round;stroke-linejoin:round;-inkscape-stroke:none"
       d="M 1.984375,0 C 0.89156992,0 0,0.89156992 0,1.984375 0,3.0771801 0.89156992,3.96875 1.984375,3.96875 3.0771801,3.96875 3.96875,3.0771801 3.96875,1.984375 3.96875,0.89156992 3.0771801,0 1.984375,0 Z m 0,0.52929687 c 0.8068223,0 1.4550781,0.64825583 1.4550781,1.45507813 0,0.8068223 -0.6482558,1.4550781 -1.4550781,1.4550781 -0.8068223,0 -1.45507813,-0.6482558 -1.45507813,-1.4550781 0,-0.8068223 0.64825583,-1.45507813 1.45507813,-1.45507813 z"
       id="path926" />
  </g>
</svg>
