<?xml version="1.0" encoding="UTF-8" standalone="no"?>
<svg
   height="16"
   version="1.1"
   width="16"
   id="svg8"
   xmlns="http://www.w3.org/2000/svg"
   xmlns:svg="http://www.w3.org/2000/svg">
  <defs
     id="defs12" />
  <path
     d="M 7.999914,0 C 4.686409,0 2,2.5072249 2,5.6000558 c 0,1.106411 0.344319,2.131861 0.937557,2.9998703 0.02863,0.0424 0.05057,0.084 0.0804,0.1256009 l 3.722797,6.449664 C 6.915612,15.643996 7.411049,16 7.973342,16 8.535636,16 9.003643,15.643996 9.178502,15.175189 L 13.330561,8.1751218 C 13.758282,7.4047138 14,6.5271048 14,5.6000558 14,2.5072249 11.313676,0 7.999914,0 Z m -0.02657,3.1750719 c 1.656881,0 3.000043,1.2536119 3.000043,2.800028 0,1.5464149 -1.343162,2.8000281 -3.000043,2.8000281 -1.65688,0 -3.000043,-1.2536132 -3.000043,-2.8000281 0,-1.5464161 1.343163,-2.800028 3.000043,-2.800028 z"
     fill="#e74c3c"
     id="path4"
     style="fill:#241f31;stroke-width:0.999994" />
</svg>
