<?xml version="1.0" encoding="UTF-8" standalone="no"?>
<svg
   height="16px"
   viewBox="0 0 16 16"
   width="16px"
   version="1.1"
   id="svg23"
   xmlns="http://www.w3.org/2000/svg"
   xmlns:svg="http://www.w3.org/2000/svg">
  <defs
     id="defs27" />
  <filter
     id="a"
     height="1"
     width="1"
     x="0"
     y="0">
    <feColorMatrix
       in="SourceGraphic"
       type="matrix"
       values="0 0 0 0 1 0 0 0 0 1 0 0 0 0 1 0 0 0 1 0"
       id="feColorMatrix2" />
  </filter>
  <mask
     id="b">
    <g
       filter="url(#a)"
       id="g7">
      <rect
         fill-opacity="0.2"
         height="16"
         width="16"
         id="rect5" />
    </g>
  </mask>
  <clipPath
     id="c">
    <rect
       height="152"
       width="192"
       id="rect10" />
  </clipPath>
  <g
     clip-path="url(#c)"
     mask="url(#b)"
     transform="matrix(1 0 0 1 -168 -16)"
     id="g15">
    <path
       d="m 98.035156 50.992188 c -0.296875 -0.011719 -0.578125 0.109374 -0.777344 0.328124 l -21.972656 23.667969 c -1.660156 -1.085937 -3.75 -1.28125 -5.582031 -0.523437 l -14.222656 -15.800782 c -0.402344 -0.460937 -0.992188 -0.710937 -1.601563 -0.683593 c -0.78125 0.039062 -1.464844 0.523437 -1.761718 1.246093 c -0.292969 0.71875 -0.144532 1.546876 0.386718 2.117188 l 14.21875 15.800781 c -0.890625 1.636719 -0.96875 3.597657 -0.210937 5.304688 c 0.503906 1.125 1.34375 2.066406 2.40625 2.699219 l -11.859375 30.492187 c -0.132813 0.335937 -0.078125 0.714844 0.144531 0.996094 c 0.226563 0.285156 0.585937 0.421875 0.941406 0.367187 c 0.355469 -0.058594 0.652344 -0.300781 0.78125 -0.636718 l 11.855469 -30.492188 c 1.230469 0.253906 2.507812 0.117188 3.65625 -0.390625 c 3.023438 -1.351563 4.382812 -4.898437 3.035156 -7.925781 c -0.195312 -0.425782 -0.4375 -0.832032 -0.726562 -1.203125 l 21.980468 -23.671875 c 0.273438 -0.285156 0.351563 -0.703125 0.203126 -1.070313 c -0.148438 -0.363281 -0.5 -0.609375 -0.894532 -0.621093 z m 0 0"
       fill-rule="evenodd"
       id="path13" />
  </g>
  <g
     fill="#241f31"
     id="g21">
    <path
       d="m 8 0 c -4.40625 0 -8 3.59375 -8 8 s 3.59375 8 8 8 s 8 -3.59375 8 -8 s -3.59375 -8 -8 -8 z m 0 2 c 3.324219 0 6 2.675781 6 6 s -2.675781 6 -6 6 s -6 -2.675781 -6 -6 s 2.675781 -6 6 -6 z m 0 0"
       id="path17" />
    <path
       d="m 11 4.5 c 0.132812 0 0.257812 0.050781 0.355469 0.144531 c 0.191406 0.195313 0.191406 0.515625 0 0.710938 l -3 3 c -0.195313 0.191406 -0.515625 0.191406 -0.710938 0 l -2 -2 c -0.191406 -0.195313 -0.191406 -0.515625 0 -0.710938 c 0.195313 -0.191406 0.515625 -0.191406 0.710938 0 l 1.644531 1.648438 l 2.644531 -2.648438 c 0.097657 -0.09375 0.222657 -0.144531 0.355469 -0.144531 z m 0 0"
       id="path19" />
  </g>
</svg>
