<?xml version="1.0" encoding="UTF-8"?>
<svg height="16px" viewBox="0 0 16 16" width="16px" xmlns="http://www.w3.org/2000/svg">
    <g fill="#241f31">
        <path d="m 9.570312 0 c -3.554687 0 -6.433593 2.753906 -6.433593 6.148438 c 0.003906 0.066406 0.007812 0.132812 0.015625 0.199218 c -0.007813 0.066406 -0.011719 0.132813 -0.015625 0.199219 c 0 3.398437 2.878906 6.148437 6.433593 6.152344 c 3.550782 -0.003907 6.429688 -2.753907 6.429688 -6.152344 c 0 -0.097656 -0.003906 -0.199219 -0.007812 -0.296875 v -0.003906 c 0.003906 -0.03125 0.003906 -0.066406 0.007812 -0.097656 c 0 -3.394532 -2.878906 -6.148438 -6.429688 -6.148438 z m 0 0" fill-opacity="0.509804"/>
        <path d="m 5.386719 5.164062 c -2.976563 0 -5.386719 2.339844 -5.386719 5.226563 c 0.00390625 0.050781 0.0078125 0.097656 0.0117188 0.148437 c -0.0039063 0.046876 -0.00781255 0.097657 -0.0117188 0.148438 c 0 2.886719 2.410156 5.226562 5.386719 5.222656 c 0.816406 0 1.621093 -0.183594 2.351562 -0.535156 c 0.488281 0.402344 1.105469 0.625 1.742188 0.625 c 1.488281 0 2.691406 -1.171875 2.695312 -2.613281 c -0.007812 -0.046875 -0.011719 -0.089844 -0.019531 -0.136719 c 0.007812 -0.050781 0.015625 -0.105469 0.019531 -0.15625 c -0.003906 -0.960938 -0.546875 -1.839844 -1.414062 -2.292969 c 0 -0.039062 0.003906 -0.078125 0.007812 -0.113281 c -0.003906 -0.078125 -0.003906 -0.152344 -0.007812 -0.230469 c 0.003906 -0.019531 0.003906 -0.042969 0.007812 -0.066406 c -0.003906 -2.886719 -2.410156 -5.226563 -5.382812 -5.226563 z m 0 0"/>
    </g>
</svg>
