<?xml version="1.0" encoding="UTF-8" standalone="no"?>
<svg
   height="16px"
   viewBox="0 0 16 16"
   width="16px"
   version="1.1"
   id="svg4"
   xmlns="http://www.w3.org/2000/svg"
   xmlns:svg="http://www.w3.org/2000/svg">
  <defs
     id="defs8" />
  <path
     d="m 5.332031 1 v 6.828125 c -0.484375 -0.234375 -1.027343 -0.367187 -1.597656 -0.367187 c -2.050781 0 -3.734375 1.699218 -3.734375 3.769531 c 0 2.070312 1.683594 3.769531 3.734375 3.769531 c 2.042969 0 3.722656 -1.691406 3.730469 -3.753906 v -8.09375 h 6.402344 v 4.675781 c -0.488282 -0.234375 -1.027344 -0.367187 -1.601563 -0.367187 c -2.046875 0 -3.730469 1.699218 -3.730469 3.769531 c 0 2.070312 1.683594 3.769531 3.730469 3.769531 c 2.027344 0 3.695313 -1.664062 3.734375 -3.703125 v -10.296875 z m -1.597656 8.617188 c 0.894531 0 1.597656 0.707031 1.597656 1.613281 s -0.703125 1.617187 -1.597656 1.617187 c -0.898437 0 -1.601563 -0.710937 -1.601563 -1.617187 s 0.703126 -1.613281 1.601563 -1.613281 z m 8.53125 0 c 0.898437 0 1.601563 0.707031 1.601563 1.613281 s -0.703126 1.617187 -1.601563 1.617187 c -0.894531 0 -1.597656 -0.710937 -1.597656 -1.617187 s 0.703125 -1.613281 1.597656 -1.613281 z m 0 0"
     fill="#241f31"
     id="path2" />
</svg>
