<?xml version="1.0" encoding="UTF-8" standalone="no"?>
<svg
   height="16px"
   viewBox="0 0 16 16"
   width="16px"
   version="1.1"
   id="svg10"
   xmlns="http://www.w3.org/2000/svg"
   xmlns:svg="http://www.w3.org/2000/svg">
  <defs
     id="defs14" />
  <g
     fill="#241f31"
     id="g8">
    <path
       d="m 3 2 h 10 v 12 h -10 z m 0 0"
       fill-opacity="0.501961"
       id="path2" />
    <path
       d="m 1.144531 2 c -0.636719 0 -1.144531 0.507812 -1.144531 1.140625 v 9.71875 c 0 0.632813 0.507812 1.140625 1.144531 1.140625 h 1.855469 v -12 z m 11.855469 0 v 12 h 1.855469 c 0.636719 0 1.144531 -0.507812 1.144531 -1.140625 v -9.71875 c 0 -0.632813 -0.507812 -1.140625 -1.144531 -1.140625 z m -12 2 h 1 v 1 h -1 z m 13 0 h 1 v 1 h -1 z m -13 2 h 1 v 1 h -1 z m 13 0 h 1 v 1 h -1 z m -13 2 h 1 v 1 h -1 z m 13 0 h 1 v 1 h -1 z m -13 2 h 1 v 1 h -1 z m 13 0 h 1 v 1 h -1 z m 0 0"
       id="path4" />
    <path
       d="m 6 6 v 4 l 4 -2 z m 0 0"
       id="path6" />
  </g>
</svg>
