<?xml version="1.0" encoding="UTF-8" standalone="no"?>
<svg
   height="16px"
   viewBox="0 0 16 16"
   width="16px"
   version="1.1"
   id="svg27"
   xmlns="http://www.w3.org/2000/svg"
   xmlns:svg="http://www.w3.org/2000/svg">
  <defs
     id="defs31" />
  <filter
     id="a"
     height="1"
     width="1"
     x="0"
     y="0">
    <feColorMatrix
       in="SourceGraphic"
       type="matrix"
       values="0 0 0 0 1 0 0 0 0 1 0 0 0 0 1 0 0 0 1 0"
       id="feColorMatrix2" />
  </filter>
  <mask
     id="b">
    <g
       filter="url(#a)"
       id="g7">
      <rect
         fill-opacity="0.15"
         height="16"
         width="16"
         id="rect5" />
    </g>
  </mask>
  <clipPath
     id="c">
    <rect
       height="152"
       width="192"
       id="rect10" />
  </clipPath>
  <g
     clip-path="url(#c)"
     mask="url(#b)"
     transform="matrix(1 0 0 1 -168 -16)"
     id="g15">
    <path
       d="m 15 278 v -94"
       fill="none"
       stroke="#ffffff"
       stroke-width="2"
       transform="matrix(1 0 0 1 8 -156)"
       id="path13" />
  </g>
  <g
     fill="none"
     stroke-linecap="round"
     stroke-width="10"
     id="g25">
    <path
       d="m -45 91 c 0 13.253906 -10.746094 24 -24 24 s -24 -10.746094 -24 -24 s 10.746094 -24 24 -24 s 24 10.746094 24 24 z m 0 0"
       stroke="#9a9996"
       id="path21" />
    <path
       d="m -45 84 c 0 13.253906 -10.746094 24 -24 24 s -24 -10.746094 -24 -24 s 10.746094 -24 24 -24 s 24 10.746094 24 24 z m 0 0"
       stroke="#deddda"
       id="path23" />
  </g>
  <path
     id="path5511"
     style="color:#000000;fill:#241f31;-inkscape-stroke:none"
     d="M 3,2.0433468 V 15 14 H 4 V 7 h 8 v 7 h 1 V 2.0098974 C 13,1 12.008798,1 12.008798,1 H 4.0063233 C 4.0063233,1 3,1.0195341 3,2.0433468 Z M 4,2 h 8 V 6 H 4 Z" />
  <path
     id="path6766"
     style="fill:#241f31;fill-opacity:1;stroke:none;stroke-width:1px;stroke-linecap:butt;stroke-linejoin:miter;stroke-opacity:1"
     d="m 8,8 c -2,0 -3,1 -3,3 0,2 1,3 3,3 1,0 2,-1 2,-1 v 1 h 1 V 8 h -1 c 0,0 0,0 0,1 C 9,8 9,8 8,8 Z m 0,1 c 1,0 2,2 2,2 0,0 0,2 -2,2 C 6,13 6,11 6,11 6,11 6,9 8,9 Z" />
</svg>
