<?xml version="1.0" encoding="UTF-8" standalone="no"?>
<svg
   height="16px"
   viewBox="0 0 16 16"
   width="16px"
   version="1.1"
   id="svg27"
   xmlns="http://www.w3.org/2000/svg"
   xmlns:svg="http://www.w3.org/2000/svg">
  <defs
     id="defs31" />
  <linearGradient
     id="a"
     gradientUnits="userSpaceOnUse"
     x1="65"
     x2="123"
     y1="265"
     y2="265">
    <stop
       offset="0"
       stop-color="#d5d3cf"
       id="stop2" />
    <stop
       offset="0.0384615"
       stop-color="#e3e2df"
       id="stop4" />
    <stop
       offset="0.0769231"
       stop-color="#c0bfbc"
       id="stop6" />
    <stop
       offset="0.923077"
       stop-color="#c0bfbc"
       id="stop8" />
    <stop
       offset="0.961538"
       stop-color="#e3e2df"
       id="stop10" />
    <stop
       offset="1"
       stop-color="#d5d3cf"
       id="stop12" />
  </linearGradient>
  <path
     d="m 118 265 c 0 13.253906 -10.746094 24 -24 24 s -24 -10.746094 -24 -24 s 10.746094 -24 24 -24 s 24 10.746094 24 24 z m 0 0"
     fill="none"
     stroke="url(#a)"
     stroke-linecap="round"
     stroke-width="10"
     transform="matrix(1 0 0 1 -160 -172)"
     id="path15" />
  <path
     d="m -42 86 c 0 13.253906 -10.746094 24 -24 24 s -24 -10.746094 -24 -24 s 10.746094 -24 24 -24 s 24 10.746094 24 24 z m 0 0"
     fill="none"
     stroke="#deddda"
     stroke-linecap="round"
     stroke-width="10"
     id="path17" />
  <g
     fill="#241f31"
     id="g25">
    <path
       d="M 2,2 C 0.890625,2 0,3.171875 0,4.28125 v 8 C 0,13.386719 0.89083244,13.978547 2,14 h 12 c 1.10907,0.02599 2,-0.613281 2,-1.71875 v -8 C 16,3.171875 15.109375,2 14,2 Z m 0,2 h 12 v 8 H 2 Z"
       id="path19" />
    <path
       d="m 7 7 c 0 1.105469 -0.894531 2 -2 2 s -2 -0.894531 -2 -2 s 0.894531 -2 2 -2 s 2 0.894531 2 2 z m 0 0"
       id="path21" />
    <path
       d="m 10 7 l -5 5 h 1 c 0.863281 0 6.734375 1.34375 8 0 c 0.199219 -0.210938 0.050781 -0.648438 0 -1 z m 0 2 l 3 3 h -6 z m 0 0"
       id="path23" />
  </g>
</svg>
