<?xml version="1.0" encoding="UTF-8" standalone="no"?>
<svg
   height="16px"
   viewBox="0 0 16 16"
   width="16px"
   version="1.1"
   id="svg40"
   xmlns="http://www.w3.org/2000/svg"
   xmlns:svg="http://www.w3.org/2000/svg">
  <defs
     id="defs44" />
  <filter
     id="a"
     height="1"
     width="1"
     x="0"
     y="0">
    <feColorMatrix
       in="SourceGraphic"
       type="matrix"
       values="0 0 0 0 1 0 0 0 0 1 0 0 0 0 1 0 0 0 1 0"
       id="feColorMatrix2" />
  </filter>
  <mask
     id="b">
    <g
       filter="url(#a)"
       id="g7">
      <rect
         fill-opacity="0.05"
         height="16"
         width="16"
         id="rect5" />
    </g>
  </mask>
  <radialGradient
     id="c"
     cx="63.999996"
     cy="194.190475"
     gradientTransform="matrix(-4.136364 -0.00000125 -0.00000027 1.390909 327.227325 -154.63457)"
     gradientUnits="userSpaceOnUse"
     r="44">
    <stop
       offset="0"
       stop-color="#ffffff"
       id="stop10" />
    <stop
       offset="1"
       stop-color="#ffffff"
       stop-opacity="0.094118"
       id="stop12" />
  </radialGradient>
  <clipPath
     id="d">
    <rect
       height="152"
       width="192"
       id="rect15" />
  </clipPath>
  <mask
     id="e">
    <g
       filter="url(#a)"
       id="g20">
      <rect
         fill-opacity="0.236"
         height="16"
         width="16"
         id="rect18" />
    </g>
  </mask>
  <clipPath
     id="f">
    <rect
       height="152"
       width="192"
       id="rect23" />
  </clipPath>
  <g
     clip-path="url(#d)"
     mask="url(#b)"
     transform="matrix(1 0 0 1 -168 -16)"
     id="g28">
    <path
       d="m 24 120 h 84 v -68 h -84 z m 0 0"
       fill="url(#c)"
       id="path26" />
  </g>
  <g
     clip-path="url(#f)"
     mask="url(#e)"
     transform="matrix(1 0 0 1 -168 -16)"
     id="g32">
    <path
       d="m 16 246 h 26 l 10 -23 l 6 39 l 8 -16 h 34"
       fill="none"
       stroke="#26a269"
       stroke-miterlimit="10"
       stroke-width="4"
       transform="matrix(1 0 0 1 8 -156)"
       id="path30" />
  </g>
  <path
     d="M 5.7304695,2.5049536 C 5.4889322,2.473699 5.251953,2.6195571 5.142578,2.8695996 L 2.9733071,7.8339852 H 1.0000001 V 9.167545 h 2.3333334 c 0.223307,0 0.4238278,-0.145858 0.5240888,-0.3698546 L 5.4843752,5.0730997 7.4348961,13.996492 c 0.059245,0.270879 0.2597653,0.468829 0.5013015,0.500085 0.2415373,0.03126 0.4785165,-0.114606 0.5878915,-0.364646 L 10.69336,9.167545 H 15 V 7.8339852 h -4.666666 c -0.223307,0 -0.423828,0.1458581 -0.524089,0.3698548 L 8.1822919,11.928431 6.2317711,3.0050387 C 6.1725266,2.7341593 5.9720057,2.5362096 5.7304695,2.5049536 Z m 0,0"
     id="path36"
     style="fill:#241f31;stroke-width:1" />
</svg>
