<?xml version="1.0" encoding="UTF-8" standalone="no"?>
<svg
   height="16px"
   viewBox="0 0 16 16"
   width="16px"
   version="1.1"
   id="svg12"
   xmlns="http://www.w3.org/2000/svg"
   xmlns:svg="http://www.w3.org/2000/svg">
  <defs
     id="defs16" />
  <path
     style="color:#000000;fill:#241f31;stroke-linecap:round;stroke-linejoin:round;-inkscape-stroke:none"
     d="M 2.5,2 C 1.1236503,2 0,3.1236503 0,4.5 v 7 C 0,12.87635 1.1236503,14 2.5,14 h 11 c 1.37635,0 2.5,-1.12365 2.5,-2.5 v -7 C 16,3.1236503 14.87635,2 13.5,2 Z m 0,1 h 11 C 14.339648,3 15,3.660352 15,4.5 v 7 C 15,12.339648 14.339648,13 13.5,13 H 2.5 C 1.6603519,13 1,12.339648 1,11.5 v -7 C 1,3.660352 1.6603519,3 2.5,3 Z"
     id="rect964" />
  <path
     id="path1081"
     style="color:#000000;fill:#241f31;stroke-width:0.999998;-inkscape-stroke:none"
     d="M 1.5587998,3 1,3.7514451 7.174926,8 1,12.248555 1.5587998,13 7.9999996,8.5671965 14.441199,13 15,12.248555 8.8250732,8 15,3.7514451 14.441199,3 7.9999996,7.4328035 Z" />
</svg>
