<svg xmlns="http://www.w3.org/2000/svg" xmlns:svg="http://www.w3.org/2000/svg" id="svg30" width="16" height="16" version="1.1" viewBox="0 0 16 16"><linearGradient id="a" x1="4" x2="124" y1="64" y2="64" gradientUnits="userSpaceOnUse"><stop id="stop2" offset="0" stop-color="#e66100" style="stop-color:#613583;stop-opacity:1"/><stop id="stop4" offset=".045" stop-color="#ffa348" style="stop-color:#9141ac;stop-opacity:1"/><stop id="stop6" offset=".091" stop-color="#e66100" style="stop-color:#613583;stop-opacity:1"/><stop id="stop8" offset=".909" stop-color="#e66100" style="stop-color:#613583;stop-opacity:1"/><stop id="stop10" offset=".955" stop-color="#ffa348" style="stop-color:#9141ac;stop-opacity:1"/><stop id="stop12" offset="1" stop-color="#e66100" style="stop-color:#613583;stop-opacity:1"/></linearGradient><linearGradient id="b" x1="64" x2="64" y1="177" y2="291.505" gradientTransform="matrix(1,0,0,0.983051,0,-168.0339)" gradientUnits="userSpaceOnUse"><stop id="stop15" offset="0" stop-color="#f8e45c" style="stop-color:#99c1f1;stop-opacity:1"/><stop id="stop17" offset="1" stop-color="#f66151" style="stop-color:#9141ac;stop-opacity:1"/></linearGradient><g id="text3019" aria-label="?" style="font-size:10px;line-height:1.25;fill:#241f31;stroke-width:.950049" transform="matrix(1.0278544,0,0,1.0778947,0.86072778,0.76631598)"><path id="path8642" d="M 5.9729007,9.4941409 H 6.9458011 V 10.421875 H 5.9729007 Z M 6.9458011,8.5664065 H 5.9729007 c 0,-0.9277344 0,-0.9277344 0,-1.8554688 0,-0.9277344 0,-0.9277344 0.9729004,-0.9277344 0.9729004,0 0.9729004,0 0.9729004,-0.9277344 0,-0.9277344 0,-0.9277344 -0.9729004,-0.9277344 -0.7256484,0 -1.3989866,0 -1.9458009,0 V 3.0000001 c 0.9729005,0 1.9458009,0 2.9187013,0 0.9729005,0 0.9729005,0 0.9729005,0.9277344 0,0.6695725 0,1.1437254 0,1.8554688 0,0.9277344 0,0.9277344 -0.9729005,0.9277344 -0.9729004,0 -0.7418462,0 -0.9729004,0 0,0.3871314 0,0.9277344 0,1.8554688 z" style="fill:#241f31;stroke-width:.950049"/></g><path style="color:#000;fill:#241f31;stroke-linecap:round;stroke-linejoin:round;-inkscape-stroke:none" id="path936" d="M 8,1 C 4.1399335,1 1,4.1399335 1,8 c 0,3.860067 3.1399335,7 7,7 3.860067,0 7,-3.139933 7,-7 C 15,4.1399335 11.860067,1 8,1 Z m 0,1 c 3.319628,0 6,2.680372 6,6 0,3.319628 -2.680372,6 -6,6 C 4.680372,14 2,11.319628 2,8 2,4.680372 4.680372,2 8,2 Z"/></svg>