<?xml version="1.0" encoding="UTF-8" standalone="no"?>
<svg
   height="16px"
   viewBox="0 0 16 16"
   width="16px"
   version="1.1"
   id="svg4"
   xmlns="http://www.w3.org/2000/svg"
   xmlns:svg="http://www.w3.org/2000/svg">
  <defs
     id="defs8" />
  <path
     id="path2"
     d="M 4,0 C 2,0 1,1 1,3 v 10 c 0,2 1,3 3,3 h 8 c 2,0 3,-1 3,-3 V 3 C 15,1 14,0 12,0 Z M 3,2 H 13 V 8 H 3 Z m 0,9 c 0.5522847,0 1,0.447715 1,1 0,0.552285 -0.4477153,1 -1,1 -0.5522847,0 -1,-0.447715 -1,-1 0,-0.552285 0.4477153,-1 1,-1 z m 3,0 c 0.554688,0 1,0.445312 1,1 0,0.554688 -0.445312,1 -1,1 -0.554688,0 -1,-0.445312 -1,-1 0,-0.554688 0.445312,-1 1,-1 z m 3,0 c 0.554688,0 1,0.445312 1,1 0,0.554688 -0.445312,1 -1,1 -0.554688,0 -1,-0.445312 -1,-1 0,-0.554688 0.445312,-1 1,-1 z m 3,0 c 0.552285,0 1,0.447715 1,1 0,0.552285 -0.447715,1 -1,1 -0.552285,0 -1,-0.447715 -1,-1 0,-0.552285 0.447715,-1 1,-1 z"
     style="fill:#241f31" />
  <path
     id="rect980"
     style="fill:#241f31;stroke-width:0.999997;stroke-linecap:round;stroke-linejoin:round;stop-color:#000000"
     transform="scale(-1,1)"
     d="m -10,3 h 3 v 4 h -3 z" />
  <path
     id="rect980-3"
     style="fill:#241f31;fill-opacity:0.5;stroke-width:0.999997;stroke-linecap:round;stroke-linejoin:round;stop-color:#000000"
     transform="scale(-1,1)"
     d="m -7,3 h 2 v 4 h -2 z" />
</svg>
