<?xml version="1.0" encoding="UTF-8" standalone="no"?>
<svg
   height="16px"
   viewBox="0 0 16 16"
   width="16px"
   version="1.1"
   id="svg27"
   xmlns="http://www.w3.org/2000/svg"
   xmlns:svg="http://www.w3.org/2000/svg">
  <defs
     id="defs31" />
  <filter
     id="a"
     height="1"
     width="1"
     x="0"
     y="0">
    <feColorMatrix
       in="SourceGraphic"
       type="matrix"
       values="0 0 0 0 1 0 0 0 0 1 0 0 0 0 1 0 0 0 1 0"
       id="feColorMatrix2" />
  </filter>
  <mask
     id="b">
    <g
       filter="url(#a)"
       id="g7">
      <rect
         fill-opacity="0.15"
         height="16"
         width="16"
         id="rect5" />
    </g>
  </mask>
  <clipPath
     id="c">
    <rect
       height="152"
       width="192"
       id="rect10" />
  </clipPath>
  <g
     clip-path="url(#c)"
     mask="url(#b)"
     transform="matrix(1 0 0 1 -168 -16)"
     id="g15">
    <path
       d="m 15 278 v -94"
       fill="none"
       stroke="#ffffff"
       stroke-width="2"
       transform="matrix(1 0 0 1 8 -156)"
       id="path13" />
  </g>
  <path
     d="m 4.023438 4.660156 l -1.601563 4.355469 h 3.210937 z m -0.667969 -1.164062 h 1.339843 l 3.328126 8.75 h -1.226563 l -0.796875 -2.246094 h -3.9375 l -0.792969 2.246094 h -1.2460935 z m 0 0"
     id="path17"
     style="fill:#241f31" />
  <path
     d="m 9.523438 10.683594 c 0 -0.609375 0.273437 -1.136719 0.824218 -1.582032 c 0.546875 -0.457031 1.265625 -0.683593 2.148438 -0.683593 c 0.371094 0 0.796875 0.042969 1.277344 0.132812 v -0.308593 c 0 -0.4375 -0.378907 -0.65625 -1.140626 -0.65625 c -0.335937 0 -0.71875 0.054687 -1.144531 0.160156 c -0.425781 0.097656 -0.683593 0.148437 -0.773437 0.148437 c -0.171875 0 -0.316406 -0.0625 -0.429688 -0.1875 c -0.113281 -0.132812 -0.171875 -0.300781 -0.171875 -0.496093 c 0 -0.285157 0.121094 -0.472657 0.367188 -0.5625 c 0.699219 -0.269532 1.402343 -0.402344 2.113281 -0.402344 c 0.753906 0 1.34375 0.171875 1.769531 0.523437 c 0.433594 0.347657 0.652344 0.835938 0.652344 1.460938 v 2.707031 h 0.195313 c 0.542968 0 0.8125 0.226562 0.8125 0.671875 s -0.269532 0.671875 -0.8125 0.671875 h -1.4375 v -0.308594 c -0.613282 0.347656 -1.292969 0.523438 -2.039063 0.523438 c -0.605469 0 -1.125 -0.175782 -1.558594 -0.523438 c -0.433593 -0.359375 -0.652343 -0.789062 -0.652343 -1.289062 z m 4.261718 -0.214844 v -0.671875 c -0.515625 -0.097656 -0.96875 -0.144531 -1.363281 -0.144531 c -0.417969 0 -0.789063 0.097656 -1.117187 0.292968 c -0.320313 0.199219 -0.480469 0.425782 -0.480469 0.683594 c 0 0.152344 0.089843 0.277344 0.273437 0.378906 c 0.179688 0.097657 0.398438 0.144532 0.660156 0.144532 c 0.671876 0 1.347657 -0.226563 2.027344 -0.683594 z m 0 0"
     id="path19"
     style="fill:#241f31" />
  <g
     fill="none"
     stroke-linecap="round"
     stroke-width="10"
     id="g25">
    <path
       d="m -45 91 c 0 13.253906 -10.746094 24 -24 24 s -24 -10.746094 -24 -24 s 10.746094 -24 24 -24 s 24 10.746094 24 24 z m 0 0"
       stroke="#9a9996"
       id="path21" />
    <path
       d="m -45 84 c 0 13.253906 -10.746094 24 -24 24 s -24 -10.746094 -24 -24 s 10.746094 -24 24 -24 s 24 10.746094 24 24 z m 0 0"
       stroke="#deddda"
       id="path23" />
  </g>
</svg>
