<?xml version="1.0" encoding="UTF-8" standalone="no"?>
<svg
   version="1.1"
   width="16"
   height="16"
   id="svg7357"
   xmlns="http://www.w3.org/2000/svg"
   xmlns:svg="http://www.w3.org/2000/svg"
   xmlns:rdf="http://www.w3.org/1999/02/22-rdf-syntax-ns#"
   xmlns:cc="http://creativecommons.org/ns#"
   xmlns:dc="http://purl.org/dc/elements/1.1/">
  <defs
     id="defs7359" />
  <metadata
     id="metadata7362">
    <rdf:RDF>
      <cc:Work
         rdf:about="">
        <dc:format>image/svg+xml</dc:format>
        <dc:type
           rdf:resource="http://purl.org/dc/dcmitype/StillImage" />
      </cc:Work>
    </rdf:RDF>
  </metadata>
  <path
     id="path61"
     style="stroke-width:0.416667;marker:none;fill:#241f31"
     d="M 7.65625 4.0019531 C 7.1693746 3.9865234 6.6765627 4.0885937 6.21875 4.2617188 C 5.4845827 4.540469 4.8138806 5.0053118 4.3417969 5.6328125 C 3.8692963 6.2607296 3.6051824 7.0545568 3.6660156 7.8378906 C 3.7060156 8.3453908 3.8805207 8.8405207 4.1484375 9.2734375 C 4.4136987 9.7024757 4.7696014 10.072232 5.1757812 10.371094 A 19.509597 19.509597 0 0 1 2 12 A 17.477929 17.477929 0 0 0 5.5 10.589844 C 6.2589383 11.053731 7.1437347 11.300492 8.0292969 11.414062 C 10.277075 11.701549 12.621161 11.1412 14.5 9.875 L 14.5 7.7519531 C 13.018196 9.321593 10.956532 10.331637 8.8066406 10.53125 C 7.9167695 10.613739 6.9913732 10.556001 6.171875 10.207031 A 17.477929 17.477929 0 0 0 7.9707031 9.0019531 C 8.5711201 8.5377861 9.1532806 8.0200527 9.5195312 7.3554688 C 9.7028642 7.0229687 9.8286983 6.6572139 9.8632812 6.2792969 C 9.8974512 5.9013799 9.8371388 5.5114587 9.6679688 5.171875 A 1.9950014 1.9950014 0 0 0 9.0332031 4.4414062 A 2.3979184 2.3979184 0 0 0 8.1386719 4.0585938 C 7.9789843 4.0252604 7.8185418 4.0070964 7.65625 4.0019531 z M 7.4667969 4.7089844 C 7.5628581 4.7080925 7.6602343 4.7123177 7.7558594 4.7246094 C 8.1379429 4.7737762 8.512552 4.9441146 8.7617188 5.2382812 C 8.9633855 5.4766148 9.0745835 5.7859895 9.09375 6.0976562 C 9.1133353 6.409323 9.0440886 6.7230988 8.9199219 7.0097656 C 8.6720052 7.5826826 8.2142971 8.0361716 7.7480469 8.4511719 A 19.509597 19.509597 0 0 1 5.7558594 9.9980469 C 5.4221927 9.8027387 5.1187135 9.5532288 4.8769531 9.2519531 C 4.5769528 8.8790361 4.3712501 8.4261723 4.3125 7.9511719 C 4.2266666 7.2582548 4.4631506 6.5435941 4.8964844 5.9960938 C 5.3298179 5.4485935 5.9485672 5.0642191 6.6152344 4.8554688 C 6.8911721 4.7695314 7.1786131 4.7116601 7.4667969 4.7089844 z " />
  <rect
     style="color:#000000;font-variation-settings:normal;display:inline;overflow:visible;visibility:visible;fill:none;fill-opacity:1;fill-rule:nonzero;stroke:#241f31;stroke-width:2;stroke-linecap:butt;stroke-linejoin:miter;stroke-miterlimit:4;stroke-dasharray:none;stroke-dashoffset:0;stroke-opacity:0.97856009;marker:none;enable-background:accumulate;stop-color:#000000"
     id="rect5505-21-2-7"
     y="2"
     x="2"
     ry="2"
     rx="2"
     height="12"
     width="12" />
</svg>
