<?xml version="1.0" encoding="UTF-8" standalone="no"?>
<svg
   height="16px"
   viewBox="0 0 16 16"
   width="16px"
   version="1.1"
   id="svg27"
   xmlns="http://www.w3.org/2000/svg"
   xmlns:svg="http://www.w3.org/2000/svg">
  <defs
     id="defs31" />
  <linearGradient
     id="a"
     gradientUnits="userSpaceOnUse"
     x1="65"
     x2="123"
     y1="265"
     y2="265">
    <stop
       offset="0"
       stop-color="#d5d3cf"
       id="stop2" />
    <stop
       offset="0.0384615"
       stop-color="#e3e2df"
       id="stop4" />
    <stop
       offset="0.0769231"
       stop-color="#c0bfbc"
       id="stop6" />
    <stop
       offset="0.923077"
       stop-color="#c0bfbc"
       id="stop8" />
    <stop
       offset="0.961538"
       stop-color="#e3e2df"
       id="stop10" />
    <stop
       offset="1"
       stop-color="#d5d3cf"
       id="stop12" />
  </linearGradient>
  <path
     d="m 118 265 c 0 13.253906 -10.746094 24 -24 24 s -24 -10.746094 -24 -24 s 10.746094 -24 24 -24 s 24 10.746094 24 24 z m 0 0"
     fill="none"
     stroke="url(#a)"
     stroke-linecap="round"
     stroke-width="10"
     transform="matrix(1 0 0 1 -160 -172)"
     id="path15" />
  <path
     d="m -42 86 c 0 13.253906 -10.746094 24 -24 24 s -24 -10.746094 -24 -24 s 10.746094 -24 24 -24 s 24 10.746094 24 24 z m 0 0"
     fill="none"
     stroke="#deddda"
     stroke-linecap="round"
     stroke-width="10"
     id="path17" />
  <path
     id="rect1137"
     style="fill:#241f31;stroke-linecap:round;stroke-linejoin:round;stop-color:#000000"
     d="M 0.5,3 C 0.465375,3 0.43104492,3.003127 0.3984375,3.0097656 0.20279297,3.0495977 0.04959766,3.202793 0.00976563,3.3984375 0.00312695,3.4310449 0,3.465375 0,3.5 v 9 c 0,0.03463 0.00312695,0.06896 0.00976563,0.101562 0.03983203,0.195646 0.19302734,0.34884 0.38867187,0.388672 C 0.43104492,12.996873 0.465375,13 0.5,13 h 15 c 0.03463,0 0.06896,-0.0031 0.101562,-0.0098 0.195646,-0.03983 0.34884,-0.193027 0.388672,-0.388672 C 15.996873,12.568956 16,12.534625 16,12.5 v -9 c 0,-0.034625 -0.0031,-0.068955 -0.0098,-0.1015625 C 15.950402,3.202793 15.797207,3.0495977 15.601562,3.0097656 15.568956,3.003127 15.534625,3 15.5,3 Z M 1,4 h 14 v 8 0 L 10,8 5.125,12 H 1 Z" />
  <circle
     style="fill:#241f31;stroke-linecap:round;stroke-linejoin:round;stop-color:#000000"
     id="path1171"
     cx="4"
     cy="6"
     r="1" />
</svg>
