<?xml version="1.0" encoding="UTF-8" standalone="no"?>
<svg
   height="16px"
   viewBox="0 0 16 16"
   width="16px"
   version="1.1"
   id="svg40"
   xmlns="http://www.w3.org/2000/svg"
   xmlns:svg="http://www.w3.org/2000/svg">
  <defs
     id="defs44" />
  <filter
     id="a"
     height="1"
     width="1"
     x="0"
     y="0">
    <feColorMatrix
       in="SourceGraphic"
       type="matrix"
       values="0 0 0 0 1 0 0 0 0 1 0 0 0 0 1 0 0 0 1 0"
       id="feColorMatrix2" />
  </filter>
  <mask
     id="b">
    <g
       filter="url(#a)"
       id="g7">
      <rect
         fill-opacity="0.05"
         height="16"
         width="16"
         id="rect5" />
    </g>
  </mask>
  <radialGradient
     id="c"
     cx="63.999996"
     cy="194.190475"
     gradientTransform="matrix(-4.136364 -0.00000125 -0.00000027 1.390909 327.227325 -154.63457)"
     gradientUnits="userSpaceOnUse"
     r="44">
    <stop
       offset="0"
       stop-color="#ffffff"
       id="stop10" />
    <stop
       offset="1"
       stop-color="#ffffff"
       stop-opacity="0.094118"
       id="stop12" />
  </radialGradient>
  <clipPath
     id="d">
    <rect
       height="152"
       width="192"
       id="rect15" />
  </clipPath>
  <mask
     id="e">
    <g
       filter="url(#a)"
       id="g20">
      <rect
         fill-opacity="0.236"
         height="16"
         width="16"
         id="rect18" />
    </g>
  </mask>
  <clipPath
     id="f">
    <rect
       height="152"
       width="192"
       id="rect23" />
  </clipPath>
  <g
     clip-path="url(#d)"
     mask="url(#b)"
     transform="matrix(1 0 0 1 -168 -16)"
     id="g28">
    <path
       d="m 24 120 h 84 v -68 h -84 z m 0 0"
       fill="url(#c)"
       id="path26" />
  </g>
  <g
     clip-path="url(#f)"
     mask="url(#e)"
     transform="matrix(1 0 0 1 -168 -16)"
     id="g32">
    <path
       d="m 16 246 h 26 l 10 -23 l 6 39 l 8 -16 h 34"
       fill="none"
       stroke="#26a269"
       stroke-miterlimit="10"
       stroke-width="4"
       transform="matrix(1 0 0 1 8 -156)"
       id="path30" />
  </g>
  <g
     fill="#241f31"
     id="g38">
    <path
       d="m 3 0 c -1.644531 0 -3 1.355469 -3 3 v 10 c 0 1.644531 1.355469 3 3 3 h 10 c 1.644531 0 3 -1.355469 3 -3 v -10 c 0 -1.644531 -1.355469 -3 -3 -3 z m 0 2 h 10 c 0.570312 0 1 0.429688 1 1 v 10 c 0 0.570312 -0.429688 1 -1 1 h -10 c -0.570312 0 -1 -0.429688 -1 -1 v -10 c 0 -0.570312 0.429688 -1 1 -1 z m 0 0"
       id="path34" />
    <path
       d="m 6.054688 3.503906 c -0.207032 -0.023437 -0.410157 0.085938 -0.503907 0.273438 l -1.859375 3.722656 h -1.691406 v 1 h 2 c 0.191406 0 0.363281 -0.109375 0.449219 -0.277344 l 1.394531 -2.792968 l 1.671875 6.691406 c 0.050781 0.203125 0.222656 0.351562 0.429687 0.375 c 0.207032 0.023437 0.410157 -0.085938 0.503907 -0.273438 l 1.859375 -3.722656 h 3.691406 v -1 h -4 c -0.191406 0 -0.363281 0.109375 -0.449219 0.277344 l -1.394531 2.792968 l -1.671875 -6.691406 c -0.050781 -0.203125 -0.222656 -0.351562 -0.429687 -0.375 z m 0 0"
       id="path36" />
  </g>
</svg>
