<?xml version="1.0" encoding="UTF-8" standalone="no"?>
<svg
   height="16px"
   viewBox="0 0 16 16"
   width="16px"
   version="1.1"
   id="svg36"
   xmlns="http://www.w3.org/2000/svg"
   xmlns:svg="http://www.w3.org/2000/svg">
  <defs
     id="defs40" />
  <filter
     id="a"
     height="1"
     width="1"
     x="0"
     y="0">
    <feColorMatrix
       in="SourceGraphic"
       type="matrix"
       values="0 0 0 0 1 0 0 0 0 1 0 0 0 0 1 0 0 0 1 0"
       id="feColorMatrix2" />
  </filter>
  <mask
     id="b">
    <g
       filter="url(#a)"
       id="g7">
      <rect
         fill-opacity="0.03838"
         height="16"
         width="16"
         id="rect5" />
    </g>
  </mask>
  <radialGradient
     id="c"
     cx="63.999996"
     cy="194.190475"
     gradientTransform="matrix(0.00000125 -4.234848 -1.390909 -0.00000027 312.308228 346.951996)"
     gradientUnits="userSpaceOnUse"
     r="44">
    <stop
       offset="0"
       stop-color="#e8e7e4"
       id="stop10" />
    <stop
       offset="0.511049"
       stop-color="#ffffff"
       id="stop12" />
    <stop
       offset="1"
       stop-color="#c2bfba"
       id="stop14" />
  </radialGradient>
  <clipPath
     id="d">
    <rect
       height="152"
       width="192"
       id="rect17" />
  </clipPath>
  <g
     clip-path="url(#d)"
     mask="url(#b)"
     transform="matrix(1 0 0 1 -168 -16)"
     id="g22">
    <path
       d="m 37.671875 36.503906 v 86 h 68 v -86 z m 0 0"
       fill="url(#c)"
       id="path20" />
  </g>
  <path
     d="M 4,0 C 2.890625,0 2,0.890625 2,2 v 12 c 0,1.109375 0.890625,2 2,2 H 8 V 14.199219 H 4 V 2 h 8 v 5 h 2 V 2 C 14,0.890625 13.109375,0 12,0 Z"
     id="path28"
     style="fill:#241f31" />
  <path
     d="m 5,3 h 5 V 4 H 5 Z m 0,0"
     id="path30"
     style="fill:#241f31;stroke-width:1" />
  <path
     d="m 7,5 h 4 V 6 H 7 Z m 0,0"
     id="path32"
     style="fill:#241f31" />
  <path
     d="M 5,7 H 8 V 8 H 5 Z"
     id="path32-3"
     style="fill:#241f31" />
  <g
     clip-path="url(#c-7)"
     mask="url(#b-6)"
     transform="translate(-145.3257,-53.945748)"
     id="g2169">
    <path
       d="m 96,96 h 6 c 0.55078,0 1,0.449219 1,1 0,0.550781 -0.44922,1 -1,1 h -6 c -0.550781,0 -1,-0.449219 -1,-1 0,-0.550781 0.449219,-1 1,-1 z m 0,0"
       fill="#8f3200"
       id="path2167" />
  </g>
  <g
     clip-path="url(#e)"
     mask="url(#d-5)"
     transform="translate(-145.3257,-53.945748)"
     id="g2173">
    <path
       d="m 96,100 h 6 c 0.55078,0 1,0.44922 1,1 0,0.55078 -0.44922,1 -1,1 h -6 c -0.550781,0 -1,-0.44922 -1,-1 0,-0.55078 0.449219,-1 1,-1 z m 0,0"
       fill="#8f3200"
       id="path2171" />
  </g>
  <g
     clip-path="url(#g)"
     mask="url(#f)"
     transform="translate(-145.3257,-53.945748)"
     id="g2177">
    <path
       d="m 96,104 h 6 c 0.55078,0 1,0.44922 1,1 0,0.55078 -0.44922,1 -1,1 h -6 c -0.550781,0 -1,-0.44922 -1,-1 0,-0.55078 0.449219,-1 1,-1 z m 0,0"
       fill="#8f3200"
       id="path2175" />
  </g>
  <path
     id="path2179"
     style="fill:#241f31;stroke-width:1"
     d="m 9.3054953,8.0026936 c -0.3024228,0.00887 -0.3173212,0.3287244 -0.3011812,0.5455459 0.00396,0.4952929 -0.00798,0.9912691 0.00609,1.4861265 0.037601,0.268415 0.3406044,0.264639 0.5581647,0.253272 0.3340789,-0.004 0.6691092,0.0082 1.0025602,-0.0065 0.273152,-0.06373 0.243426,-0.3571054 0.240275,-0.5647594 h 0.602364 c 0.02312,0.1971746 -0.08743,0.4874374 0.180375,0.5668814 0.682364,0.0072 1.366339,0.0073 2.048701,0 0.266358,-0.0777 0.15785,-0.3673796 0.180376,-0.5632866 V 9.2812571 c 0.596409,-0.042458 1.225338,0.00741 1.734717,0.3345016 0.128896,0.2218669 0.596489,0.093235 0.390273,-0.1637098 -0.223396,-0.7369576 -0.920403,-1.2981099 -1.717254,-1.4081638 -0.606629,-0.075125 -1.221187,-0.028036 -1.83169,-0.041215 -0.281943,0.00969 -0.569221,-0.020341 -0.847518,0.016839 -0.21682,0.1119887 -0.113887,0.3658607 -0.13798,0.5543969 h -0.602363 c 0.0036,-0.2073239 0.03296,-0.500961 -0.240275,-0.5647605 -0.420862,-0.014798 -0.8441052,-0.00239 -1.2656339,-0.00648 z M 12,11 12.01613,16 H 13 v -5 z" />
  <path
     d="m 24.674304,-34.945748 h 1 v 7 h -1 z m 0,0"
     id="path2191"
     style="fill:#241f31" />
  <path
     d="m 24.424304,-36.945748 h 1.5 l 0.75,3 h -3 z m 0,0"
     id="path2193"
     style="fill:#241f31" />
  <path
     d="m 24.674304,-29.945748 h 1 c 0.550781,0 1,0.449219 1,1 v 5 c 0,0.550781 -0.449219,1 -1,1 h -1 c -0.550781,0 -1,-0.449219 -1,-1 v -5 c 0,-0.550781 0.449219,-1 1,-1 z m 0,0"
     id="path2195"
     style="fill:#241f31" />
</svg>
