<?xml version="1.0" encoding="UTF-8" standalone="no"?>
<svg
   height="16px"
   viewBox="0 0 16 16"
   width="16px"
   version="1.1"
   id="svg62"
   xmlns="http://www.w3.org/2000/svg"
   xmlns:svg="http://www.w3.org/2000/svg">
  <defs
     id="defs66" />
  <filter
     id="a"
     height="1"
     width="1"
     x="0"
     y="0">
    <feColorMatrix
       in="SourceGraphic"
       type="matrix"
       values="0 0 0 0 1 0 0 0 0 1 0 0 0 0 1 0 0 0 1 0"
       id="feColorMatrix2" />
  </filter>
  <mask
     id="b">
    <g
       filter="url(#a)"
       id="g7">
      <rect
         fill-opacity="0.7"
         height="16"
         width="16"
         id="rect5" />
    </g>
  </mask>
  <clipPath
     id="c">
    <rect
       height="152"
       width="192"
       id="rect10" />
  </clipPath>
  <mask
     id="d">
    <g
       filter="url(#a)"
       id="g15">
      <rect
         fill-opacity="0.7"
         height="16"
         width="16"
         id="rect13" />
    </g>
  </mask>
  <clipPath
     id="e">
    <rect
       height="152"
       width="192"
       id="rect18" />
  </clipPath>
  <mask
     id="f">
    <g
       filter="url(#a)"
       id="g23">
      <rect
         fill-opacity="0.7"
         height="16"
         width="16"
         id="rect21" />
    </g>
  </mask>
  <clipPath
     id="g">
    <rect
       height="152"
       width="192"
       id="rect26" />
  </clipPath>
  <mask
     id="h">
    <g
       filter="url(#a)"
       id="g31">
      <rect
         fill-opacity="0.3"
         height="16"
         width="16"
         id="rect29" />
    </g>
  </mask>
  <radialGradient
     id="i"
     cx="208.001953"
     cy="-42.613281"
     gradientTransform="matrix(-0.00405481 1.393184 -1.303357 -0.00379337 -4.083605 -237.944679)"
     gradientUnits="userSpaceOnUse"
     r="48">
    <stop
       offset="0"
       stop-color="#ffffff"
       id="stop34" />
    <stop
       offset="1"
       stop-color="#f6f5f4"
       stop-opacity="0"
       id="stop36" />
  </radialGradient>
  <clipPath
     id="j">
    <rect
       height="152"
       width="192"
       id="rect39" />
  </clipPath>
  <g
     clip-path="url(#c)"
     mask="url(#b)"
     transform="matrix(1 0 0 1 -168 -16)"
     id="g44">
    <path
       d="m 95.949219 77.835938 c 0.492187 -6.507813 -1.660157 -13.136719 -6.320313 -18.171876 c -7.453125 -8.058593 -19.460937 -10.03125 -29.101562 -4.789062 c -9.640625 5.246094 -14.507813 16.40625 -11.804688 27.046875 s 12.304688 18.117187 23.277344 18.117187 c 1.582031 0 2.867188 -1.285156 2.867188 -2.863281 c 0 -1.585937 -1.28125 -2.867187 -2.867188 -2.867187 c -8.378906 0 -15.660156 -5.667969 -17.722656 -13.796875 c -2.066406 -8.132813 1.625 -16.597657 8.988281 -20.605469 c 7.363281 -4.003906 16.464844 -2.507812 22.15625 3.648438 c 5.695313 6.15625 6.492187 15.359374 1.933594 22.402343 c -0.859375 1.324219 -0.480469 3.097657 0.847656 3.957031 c 1.328125 0.859376 3.101563 0.480469 3.960937 -0.847656 c 2.238282 -3.457031 3.488282 -7.320312 3.785157 -11.230468 z m 0 0"
       fill="#99c1f1"
       id="path42" />
  </g>
  <g
     clip-path="url(#e)"
     mask="url(#d)"
     transform="matrix(1 0 0 1 -168 -16)"
     id="g48">
    <path
       d="m 74.96875 43.414062 c -8.726562 -0.675781 -17.613281 2.257813 -24.355469 8.585938 c -10.789062 10.132812 -13.421875 26.390625 -6.40625 39.476562 c 7.019531 13.082032 21.96875 19.714844 36.238281 16.035157 c 14.269532 -3.675781 24.253907 -16.714844 24.253907 -31.597657 c 0 -1.488281 -1.207031 -2.695312 -2.695313 -2.695312 c -1.488281 0 -2.695312 1.207031 -2.691406 2.695312 c 0 12.480469 -8.328125 23.320313 -20.214844 26.386719 c -11.882812 3.0625 -24.265625 -2.417969 -30.140625 -13.371093 c -5.875 -10.953126 -3.667969 -24.539063 5.34375 -33.003907 c 9.011719 -8.460937 22.460938 -9.632812 32.761719 -2.867187 c 1.242188 0.816406 2.914062 0.472656 3.730469 -0.773438 c 0.816406 -1.242187 0.46875 -2.914062 -0.773438 -3.730468 c -4.628906 -3.039063 -9.8125 -4.738282 -15.050781 -5.140626 z m 0 0"
       fill="#f66151"
       id="path46" />
  </g>
  <g
     clip-path="url(#g)"
     mask="url(#f)"
     transform="matrix(1 0 0 1 -168 -16)"
     id="g52">
    <path
       d="m 69.023438 115.335938 c 10.53125 0.8125 21.25 -2.730469 29.390624 -10.394532 c 13.027344 -12.257812 16.207032 -31.929687 7.730469 -47.769531 c -8.472656 -15.839844 -26.503906 -23.855469 -43.726562 -19.402344 c -17.226563 4.453125 -29.277344 20.214844 -29.277344 38.234375 c 0 0.574219 0.226563 1.125 0.632813 1.53125 s 0.957031 0.632813 1.53125 0.632813 c 1.195312 0 2.164062 -0.96875 2.164062 -2.164063 c 0 -16.09375 10.722656 -30.09375 26.03125 -34.046875 c 15.304688 -3.953125 31.273438 3.125 38.832031 17.253907 c 7.558594 14.132812 4.722657 31.664062 -6.878906 42.582031 c -11.605469 10.917969 -28.949219 12.433593 -42.214844 3.703125 c -0.996093 -0.65625 -2.339843 -0.378906 -2.996093 0.617187 c -0.65625 0.996094 -0.378907 2.339844 0.617187 2.996094 c 5.589844 3.679687 11.84375 5.738281 18.164063 6.226563 z m 0 0"
       fill="#8ff0a4"
       id="path50" />
  </g>
  <path
     style="color:#000000;fill:#241f31;-inkscape-stroke:none"
     d="M 8,1 C 4.1401418,1 1,4.1401418 1,8 c 0,3.859858 3.1401418,7 7,7 3.859858,0 7,-3.140142 7,-7 C 15,4.1401418 11.859858,1 8,1 Z m 0,1 c 3.319334,0 6,2.6806658 6,6 0,3.319334 -2.680666,6 -6,6 C 4.6806658,14 2,11.319334 2,8 2,4.6806658 4.6806658,2 8,2 Z"
     id="path54" />
  <path
     d="m 8.324219 3.511719 c 0.976562 0.074219 1.929687 0.457031 2.695312 1.152343 c 1.527344 1.382813 1.921875 3.636719 0.949219 5.453126 c -0.96875 1.820312 -3.058594 2.75 -5.0625 2.246093 c -2 -0.5 -3.40625 -2.300781 -3.40625 -4.363281 c 0 -0.277344 0.222656 -0.5 0.5 -0.5 s 0.5 0.222656 0.5 0.5 c 0 1.609375 1.09375 3.003906 2.652344 3.394531 s 3.179687 -0.328125 3.933594 -1.746093 c 0.757812 -1.417969 0.457031 -3.164063 -0.734376 -4.242188 c -1.195312 -1.082031 -2.960937 -1.210938 -4.300781 -0.3125 c -0.226562 0.152344 -0.539062 0.089844 -0.691406 -0.136719 c -0.152344 -0.230469 -0.09375 -0.542969 0.136719 -0.695312 c 0.855468 -0.574219 1.855468 -0.820313 2.828125 -0.75 z m 0 0"
     fill="#241f31"
     id="path56" />
  <path
     d="M 10.493498,8.1804968 C 10.452261,8.7231039 10.239569,9.2526887 9.8532512,9.6780929 9.0849545,10.526731 7.8326749,10.745944 6.8234716,10.205507 5.8120981,9.6672412 5.2955601,8.5060609 5.5755331,7.3926307 5.8533351,6.2813708 6.8538565,5.5000162 7.9997901,5.5000162 c 0.1540935,0 0.2778021,0.1237143 0.2778021,0.2778149 0,0.1541007 -0.1237086,0.277815 -0.2778021,0.277815 -0.8941754,0 -1.6689827,0.6077204 -1.8860156,1.4737218 C 5.8967421,8.3953694 6.2960821,9.296097 7.0839111,9.7149904 7.8717406,10.136053 8.8418777,9.9689304 9.4408884,9.3069495 10.042069,8.6427982 10.113691,7.661764 9.6145148,6.9173065 9.5298718,6.7914219 9.564597,6.6177875 9.6904764,6.5331406 c 0.1280495,-0.084647 0.3016759,-0.05209 0.3863186,0.075965 0.319038,0.4753236 0.455769,1.0309536 0.416703,1.571391 z m 0,0"
     fill="#241f31"
     id="path56-3"
     style="stroke-width:0.999995" />
  <g
     clip-path="url(#j)"
     mask="url(#h)"
     transform="matrix(1 0 0 1 -168 -16)"
     id="g60">
    <path
       d="m 72 124 c -26.507812 0 -48 -21.492188 -48 -48 s 21.492188 -48 48 -48 s 48 21.492188 48 48 s -21.492188 48 -48 48 z m 0 0"
       fill="url(#i)"
       id="path58" />
  </g>
</svg>
