<?xml version="1.0" encoding="UTF-8" standalone="no"?>
<svg
   version="1.1"
   width="16"
   height="16"
   id="svg7357"
   xmlns="http://www.w3.org/2000/svg"
   xmlns:svg="http://www.w3.org/2000/svg"
   xmlns:rdf="http://www.w3.org/1999/02/22-rdf-syntax-ns#"
   xmlns:cc="http://creativecommons.org/ns#"
   xmlns:dc="http://purl.org/dc/elements/1.1/">
  <defs
     id="defs7359" />
  <metadata
     id="metadata7362">
    <rdf:RDF>
      <cc:Work
         rdf:about="">
        <dc:format>image/svg+xml</dc:format>
        <dc:type
           rdf:resource="http://purl.org/dc/dcmitype/StillImage" />
      </cc:Work>
    </rdf:RDF>
  </metadata>
  <path
     id="path61"
     style="fill:#241f31;stroke-width:0.416667;marker:none"
     d="M 7.335,2.0027199 C 6.7896996,1.9795741 6.2377502,2.1326876 5.725,2.3923889 4.9027326,2.8105363 4.1515463,3.5078371 3.6228125,4.4491376 3.0936119,5.3910628 2.7978043,6.5818662 2.8659375,7.7569286 2.9107375,8.5182193 3.1061832,9.260953 3.40625,9.910362 c 0.2970925,0.643591 0.6957036,1.198255 1.1506249,1.646571 A 21.850749,29.265934 0 0 1 1,14.00042 19.57528,26.218272 0 0 0 4.92,11.885076 c 0.8500109,0.695867 1.8409829,1.066027 2.8328125,1.236391 C 10.270324,13.552721 12.8957,12.712153 15,10.812753 V 7.6280156 C 13.34038,9.982599 11.031316,11.497746 8.6234375,11.797181 7.6267818,11.92092 6.590338,11.834309 5.6725,11.310827 A 19.57528,26.218272 0 0 0 7.6871875,9.503114 C 8.3596545,8.8068273 9.011674,8.0301863 9.421875,7.0332579 9.627208,6.5344816 9.768142,5.9858205 9.806875,5.4189153 9.845145,4.8520099 9.777595,4.2670974 9.588125,3.757695 A 2.2344016,2.9926594 0 0 0 8.8771875,2.6619343 2.6856686,3.5970667 0 0 0 7.8753125,2.0876854 C 7.6964624,2.0376827 7.5167668,2.0104353 7.335,2.0027199 Z M 7.1228125,3.0633226 c 0.1075883,-0.00134 0.2166499,0.005 0.32375,0.023439 0.4279335,0.073754 0.8474957,0.3292749 1.1265626,0.770548 C 8.7989918,4.2148288 8.9235335,4.6789152 8.945,5.1464398 8.966935,5.6139647 8.889379,6.0846531 8.7503125,6.5146759 8.4726458,7.3740966 7.9600128,8.0543663 7.4378125,8.6768993 a 21.850749,29.265934 0 0 1 -2.23125,2.3204347 C 4.8328558,10.704355 4.4929591,10.330071 4.2221875,9.878135 3.8861871,9.318729 3.6558001,8.6393973 3.59,7.9268596 3.4938666,6.8874294 3.7587287,5.8153819 4.2440625,4.9940883 4.729396,4.1727946 5.4223953,3.5962027 6.1690625,3.2830608 6.4781128,3.1541479 6.8000467,3.0673364 7.1228125,3.0633226 Z" />
</svg>
