<svg xmlns="http://www.w3.org/2000/svg" xmlns:svg="http://www.w3.org/2000/svg" id="svg8" width="16" height="16" version="1.1" viewBox="0 0 16 16"><path style="color:#000;fill:#241f31;stroke-linecap:round;stroke-linejoin:round;-inkscape-stroke:none" id="rect855" d="M 1.4375,4 C 0.63155828,4.000086 7.5509852e-5,4.6944408 0,5.5 v 7 C 0,14.402212 1.4776027,16 3.3125,16 h 9.375 C 14.522397,16 16,14.402212 16,12.5 v -7 C 15.999924,4.6944408 15.368442,4.000086 14.5625,4 Z m 0,1 h 13.125 c 0.229548,2.45e-5 0.437472,0.2010366 0.4375,0.5 v 7 C 15,13.887187 13.936414,15 12.6875,15 H 3.3125 C 2.063586,15 1,13.887187 1,12.5 v -7 C 1.000028,5.2010366 1.2079517,5.0000245 1.4375,5 Z"/><path style="color:#000;fill:#241f31;stroke-linecap:round;stroke-linejoin:round;-inkscape-stroke:none" id="path999" d="m 2.5996094,2 a 0.5,0.5 0 0 0 -0.5,0.5 0.5,0.5 0 0 0 0.5,0.5 h 4.8007812 a 0.5,0.5 0 0 0 0.5,-0.5 0.5,0.5 0 0 0 -0.5,-0.5 z"/></svg>