<?xml version="1.0" encoding="UTF-8" standalone="no"?>
<svg
   height="16px"
   viewBox="0 0 16 16"
   width="16px"
   version="1.1"
   id="svg4"
   xmlns="http://www.w3.org/2000/svg"
   xmlns:svg="http://www.w3.org/2000/svg">
  <defs
     id="defs8" />
  <path
     id="rect7940"
     style="fill:#241f31;fill-opacity:1;stroke:none;stroke-linecap:round;stroke-linejoin:round;stop-color:#000000"
     d="M 4.5 2 C 4.223 2 4 2.223 4 2.5 L 4 4 L 2.5 4 C 2.223 4 2 4.223 2 4.5 L 2 7.5 C 2 7.777 2.223 8 2.5 8 L 6 8 L 6 10 L 2.5 10 C 2.223 10 2 10.223 2 10.5 C 2 10.777 2.223 11 2.5 11 L 4 11 L 4 12.5 C 4 12.777 4.223 13 4.5 13 C 4.777 13 5 12.777 5 12.5 L 5 11 L 6.5 11 C 6.5173125 11 6.5339319 10.999748 6.5507812 10.998047 C 6.8035217 10.972533 7 10.759688 7 10.5 L 7 7.5 C 7 7.223 6.777 7 6.5 7 L 3 7 L 3 5 L 4.5 5 L 6.5 5 C 6.777 5 7 4.777 7 4.5 C 7 4.223 6.777 4 6.5 4 L 5 4 L 5 2.5 C 5 2.223 4.777 2 4.5 2 z " />
  <path
     id="rect8275"
     style="fill:#241f31;stroke-linecap:round;stroke-linejoin:round;stop-color:#000000"
     d="m 8.5,12 h 5 c 0.277,0 0.5,0.223 0.5,0.5 0,0.277 -0.223,0.5 -0.5,0.5 h -5 C 8.223,13 8,12.777 8,12.5 8,12.223 8.223,12 8.5,12 Z" />
</svg>
