<?xml version="1.0" encoding="UTF-8"?>
<svg height="16px" viewBox="0 0 16 16" width="16px" xmlns="http://www.w3.org/2000/svg">
    <path d="m 2.988281 1 c -1.109375 0 -2 0.890625 -2 2 v 10 c 0 1.109375 0.890625 2 2 2 h 10 c 1.105469 0 2 -0.890625 2 -2 v -10 c 0 -1.109375 -0.894531 -2 -2 -2 z m 1.011719 2 h 1 v 0.941406 c 0.105469 0.011719 0.21875 0.007813 0.324219 0.035156 c 0.226562 0.046876 0.460937 0.117188 0.699219 0.207032 c 0.058593 0.023437 0.085937 0.078125 0.0625 0.128906 l -0.3125 0.640625 c -0.027344 0.050781 -0.09375 0.074219 -0.152344 0.054687 c -0.195313 -0.070312 -0.394532 -0.128906 -0.59375 -0.171874 c -0.148438 -0.035157 -0.296875 -0.050782 -0.445313 -0.050782 c -0.167969 0 -0.277343 0.03125 -0.347656 0.085938 c -0.074219 0.046875 -0.113281 0.125 -0.109375 0.210937 c 0 0.046875 0.011719 0.09375 0.042969 0.136719 c 0.042969 0.050781 0.09375 0.09375 0.15625 0.128906 c 0.074219 0.042969 0.28125 0.132813 0.605469 0.265625 c 0.4375 0.175781 0.746093 0.355469 0.925781 0.550781 c 0.175781 0.191407 0.261719 0.429688 0.261719 0.699219 c 0 0.378907 -0.167969 0.691407 -0.492188 0.910157 c -0.191406 0.121093 -0.402344 0.207031 -0.625 0.25 v 0.976562 h -1 v -0.925781 c -0.382812 -0.027344 -0.738281 -0.089844 -1.050781 -0.21875 c -0.039063 -0.015625 -0.066407 -0.050781 -0.066407 -0.089844 v -0.765625 c 0 -0.035156 0.019532 -0.066406 0.054688 -0.085938 c 0.035156 -0.015624 0.074219 -0.019531 0.113281 -0.007812 c 0.304688 0.117188 0.5625 0.199219 0.765625 0.242188 c 0.207032 0.050781 0.398438 0.070312 0.5625 0.070312 c 0.199219 0 0.335938 -0.035156 0.421875 -0.085938 c 0.085938 -0.050781 0.128907 -0.113281 0.128907 -0.226562 c 0 -0.058594 -0.023438 -0.101562 -0.058594 -0.144531 c -0.054688 -0.0625 -0.117188 -0.109375 -0.191406 -0.148438 c -0.191407 -0.09375 -0.382813 -0.179687 -0.582032 -0.257812 c -0.230468 -0.082031 -0.453125 -0.195313 -0.65625 -0.335938 c -0.148437 -0.105469 -0.273437 -0.234375 -0.367187 -0.386719 c -0.09375 -0.160156 -0.140625 -0.339843 -0.136719 -0.527343 c 0 -0.363281 0.148438 -0.667969 0.453125 -0.886719 c 0.167969 -0.117188 0.375 -0.195312 0.609375 -0.25 z m 2.988281 6 h 4 v 1 h -4 z m 0 0" fill="#241f31"/>
</svg>
