<?xml version="1.0" encoding="UTF-8" standalone="no"?>
<svg
   height="128px"
   viewBox="0 0 128 128"
   width="128px"
   version="1.1"
   id="svg29"
   xmlns="http://www.w3.org/2000/svg"
   xmlns:svg="http://www.w3.org/2000/svg">
  <defs
     id="defs33" />
  <linearGradient
     id="a"
     gradientUnits="userSpaceOnUse"
     x1="8.0000315"
     x2="120.0000315"
     y1="119.999977"
     y2="119.999977">
    <stop
       offset="0"
       stop-color="#1a5fb4"
       id="stop2" />
    <stop
       offset="0.0357143"
       stop-color="#1c71d8"
       id="stop4" />
    <stop
       offset="0.0713653"
       stop-color="#1a5fb4"
       id="stop6" />
    <stop
       offset="0.928571"
       stop-color="#1a5fb4"
       id="stop8" />
    <stop
       offset="0.964286"
       stop-color="#1c71d8"
       id="stop10" />
    <stop
       offset="1"
       stop-color="#1a5fb4"
       id="stop12" />
  </linearGradient>
  <path
     id="path17-6"
     style="fill:#e66609;stroke-width:0.999998"
     d="m 20,12 c -2.277586,0 -7,2.059406 -7,9.267328 v 13.386139 2.059406 11.326732 23.683169 c 2,10.29703 1,13.386139 3,32.950496 C 17,112.91089 17.945019,116 22,116 h 83 c 4.05496,0 7,-3.08911 8,-11.32673 l 2.00001,-68.495554 C 115,24.356437 115,21.267328 105,21.267328 H 63 C 62.962258,14.241496 58.258964,12 56,12 Z" />
  <path
     d="M 16.023473,36.713081 H 112.0016 c 4.10075,0 6.9984,3.254256 6.9984,7.207712 l -6.03033,60.801547 c -0.39058,3.93813 -3.86571,7.15885 -7.96648,7.15885 H 24.02165 c -4.100764,0 -7.550465,-3.27673 -8.02165,-7.20792 L 9.0250685,43.871947 C 8.6810093,39.93243 11.922832,36.682903 16.023473,36.713081 Z"
     fill="#3584e4"
     id="path25"
     style="fill:#f99e5c;fill-opacity:1;stroke-width:1.0001" />
  <path
     d="m 55.97504,75.092001 c -1.45002,-0.703126 -3.062498,-1.092344 -4.775027,-1.092344 -6.150002,0 -11.200015,5.072533 -11.200015,11.25001 0,6.177427 5.050013,11.24999 11.200015,11.24999 6.150013,0 11.200019,-5.072563 11.200019,-11.24999 V 57.928233 l 19.150019,0.0129 0.03743,17.151238 c -1.462493,-0.703156 -3.075005,-1.092374 -4.787497,-1.092374 -6.15001,0 -11.200015,5.072533 -11.200015,11.25001 0,6.177437 5.050005,11.24999 11.200015,11.24999 6.15001,0 11.200015,-5.072553 11.200015,-11.24999 V 51.499997 H 55.999955 Z m -4.775027,5.336232 c 2.687504,0 4.800012,2.121918 4.800012,4.821434 0,2.699466 -2.112508,4.821394 -4.800012,4.821394 -2.687493,0 -4.800002,-2.121928 -4.800002,-4.821394 0,-2.699516 2.112509,-4.821434 4.800002,-4.821434 z m 25.600038,0 c 2.687498,0 4.800006,2.121918 4.800006,4.821434 0,2.699466 -2.112508,4.821394 -4.800006,4.821394 -2.687498,0 -4.800007,-2.121928 -4.800007,-4.821394 0,-2.699516 2.112509,-4.821434 4.800007,-4.821434 z m 0,0"
     fill="#2e3436"
     id="path2"
     style="fill:#f0f0f2;stroke-width:1.0001" />
</svg>
