<?xml version="1.0" encoding="UTF-8" standalone="no"?>
<svg
   height="128px"
   viewBox="0 0 128 128"
   width="128px"
   version="1.1"
   id="svg29"
   xmlns="http://www.w3.org/2000/svg"
   xmlns:svg="http://www.w3.org/2000/svg">
  <defs
     id="defs33" />
  <linearGradient
     id="a"
     gradientUnits="userSpaceOnUse"
     x1="8.0000315"
     x2="120.0000315"
     y1="119.999977"
     y2="119.999977">
    <stop
       offset="0"
       stop-color="#1a5fb4"
       id="stop2" />
    <stop
       offset="0.0357143"
       stop-color="#1c71d8"
       id="stop4" />
    <stop
       offset="0.0713653"
       stop-color="#1a5fb4"
       id="stop6" />
    <stop
       offset="0.928571"
       stop-color="#1a5fb4"
       id="stop8" />
    <stop
       offset="0.964286"
       stop-color="#1c71d8"
       id="stop10" />
    <stop
       offset="1"
       stop-color="#1a5fb4"
       id="stop12" />
  </linearGradient>
  <path
     id="path17-6"
     style="fill:#e5a50a;stroke-width:0.999998"
     d="m 20,12 c -2.277586,0 -7,2.059406 -7,9.267328 v 13.386139 2.059406 11.326732 23.683169 c 2,10.29703 1,13.386139 3,32.950496 C 17,112.91089 17.945019,116 22,116 h 83 c 4.05496,0 7,-3.08911 8,-11.32673 l 2.00001,-68.495554 C 115,24.356437 115,21.267328 105,21.267328 H 63 C 62.962258,14.241496 58.258964,12 56,12 Z" />
  <path
     d="M 16.023473,36.713081 H 112.0016 c 4.10075,0 6.9984,3.254256 6.9984,7.207712 l -6.03033,60.801547 c -0.39058,3.93813 -3.86571,7.15885 -7.96648,7.15885 H 24.02165 c -4.100764,0 -7.550465,-3.27673 -8.02165,-7.20792 L 9.0250685,43.871947 C 8.6810093,39.93243 11.922832,36.682903 16.023473,36.713081 Z"
     fill="#3584e4"
     id="path25"
     style="fill:#f6d32d;fill-opacity:1;stroke-width:1.0001" />
  <g
     id="g841"
     transform="matrix(3.4285715,0,0,3.4285712,36.571429,49.559716)"
     style="fill:#ffffff;stroke-width:0.291696">
    <path
       id="path2"
       style="fill:#ffffff;stroke-width:0.291696"
       d="M 10,8 8,12 6,9 4,12 c 3,0 6,0 8,0 z" />
    <path
       id="path875"
       style="fill:#ffffff;stroke-width:0.291696"
       d="M 7,6 C 6.8087776,6 6.6307052,6.054692 6.4785156,6.1484375 c -0.025892,0.015949 -0.051903,0.032612 -0.076172,0.050781 -0.077041,0.057678 -0.1454475,0.126084 -0.203125,0.203125 -0.018169,0.024269 -0.034832,0.05028 -0.050781,0.076172 C 6.0546916,6.6307052 6,6.8087776 6,7 c 0,0.1912224 0.054692,0.3692948 0.1484375,0.5214844 0.015949,0.025892 0.032612,0.051903 0.050781,0.076172 0.057678,0.077041 0.126084,0.1454475 0.203125,0.203125 0.024269,0.018169 0.05028,0.034832 0.076172,0.050781 C 6.6307052,7.9453084 6.8087776,8 7,8 7.1912224,8 7.3692948,7.9453084 7.5214844,7.8515625 c 0.025892,-0.015949 0.051903,-0.032612 0.076172,-0.050781 0.077041,-0.057678 0.1454475,-0.126084 0.203125,-0.203125 0.018169,-0.024269 0.034832,-0.05028 0.050781,-0.076172 C 7.9453084,7.3692948 8,7.1912224 8,7 8,6.8087776 7.9453084,6.6307052 7.8515625,6.4785156 7.8356136,6.4526238 7.8189507,6.426613 7.8007812,6.4023438 7.7431037,6.3253028 7.6746972,6.2568963 7.5976562,6.1992188 7.573387,6.1810493 7.5473762,6.1643864 7.5214844,6.1484375 7.3692948,6.0546916 7.1912224,6 7,6 Z" />
    <path
       d="M 4,1 C 2.355469,1 1,2.355469 1,4 v 8 c 0,1.644531 1.355469,3 3,3 h 8 c 1.644531,0 3,-1.355469 3,-3 V 4 C 15,2.355469 13.644531,1 12,1 Z m 0,2 h 8 c 0.570312,0 1,0.429688 1,1 v 8 c 0,0.570312 -0.429688,1 -1,1 H 4 C 3.429688,13 3,12.570312 3,12 V 4 C 3,3.429688 3.429688,3 4,3 Z m 0,0"
       id="path4"
       style="fill:#ffffff;stroke-width:0.291696" />
  </g>
</svg>
