<svg width="128" height="128" viewBox="0 0 128 128" fill="none" xmlns="http://www.w3.org/2000/svg">
<path fill-rule="evenodd" clip-rule="evenodd" d="M0.815779 10.4805C0 12.1457 0 14.3105 0 18.64V32.96V100.04V104.36C0 108.69 0 110.854 0.815779 112.52C1.50815 113.933 2.59983 115.106 3.94938 115.899C4.77546 116.646 5.70697 117.28 6.72073 117.776C9.21855 119 12.4657 119 18.96 119H109.04C115.534 119 118.781 119 121.279 117.776C123.671 116.605 125.605 114.671 126.776 112.279C128 109.781 128 106.534 128 100.04V32.96C128 26.4657 128 23.2185 126.776 20.7207C125.605 18.3292 123.671 16.3953 121.279 15.2237C118.781 14 115.534 14 109.04 14H63.9282C63.8385 12.483 63.637 11.4048 63.1842 10.4805C62.4031 8.88611 61.1139 7.59686 59.5195 6.81578C57.8543 6 55.6895 6 51.36 6H12.64C8.31047 6 6.1457 6 4.48049 6.81578C2.88611 7.59686 1.59686 8.88611 0.815779 10.4805Z" fill="#56B4FF"/>
<rect y="25" width="128" height="96" rx="12" fill="#56B4FF"/>
<rect y="25" width="128" height="92" rx="12" fill="url(#paint0_linear_1172_21)"/>
<path d="M53 39C45.7712 39 40 45.4145 40 53V89C40 96.5855 45.7712 103 53 103H75C82.2288 103 88 96.5855 88 89V59C88 57.4473 87.4387 55.9551 86.3984 54.8203L73.5703 40.8203C72.5267 39.6818 71.0515 39 69.5 39H53ZM53 43H69.5C69.8964 43 70.2858 43.1619 70.6172 43.5234L83.4453 57.5234C83.7801 57.8886 84 58.4277 84 59V89C84 94.5707 79.8311 99 75 99H53C48.1689 99 44 94.5707 44 89V53C44 47.4293 48.1689 43 53 43Z" fill="black" fill-opacity="0.32"/>
<defs>
<linearGradient id="paint0_linear_1172_21" x1="31" y1="25" x2="70.6549" y2="128.095" gradientUnits="userSpaceOnUse">
<stop stop-color="#88CDFF"/>
<stop offset="1" stop-color="#ABDFFF"/>
</linearGradient>
</defs>
</svg>
