<svg width="128" height="128" viewBox="0 0 128 128" fill="none" xmlns="http://www.w3.org/2000/svg">
<path fill-rule="evenodd" clip-rule="evenodd" d="M0.815779 10.4805C0 12.1457 0 14.3105 0 18.64V32.96V100.04V104.36C0 108.69 0 110.854 0.815779 112.52C1.50815 113.933 2.59983 115.106 3.94938 115.899C4.77546 116.646 5.70697 117.28 6.72073 117.776C9.21855 119 12.4657 119 18.96 119H109.04C115.534 119 118.781 119 121.279 117.776C123.671 116.605 125.605 114.671 126.776 112.279C128 109.781 128 106.534 128 100.04V32.96C128 26.4657 128 23.2185 126.776 20.7207C125.605 18.3292 123.671 16.3953 121.279 15.2237C118.781 14 115.534 14 109.04 14H63.9282C63.8385 12.483 63.637 11.4048 63.1842 10.4805C62.4031 8.88611 61.1139 7.59686 59.5195 6.81578C57.8543 6 55.6895 6 51.36 6H12.64C8.31047 6 6.1457 6 4.48049 6.81578C2.88611 7.59686 1.59686 8.88611 0.815779 10.4805Z" fill="#56B4FF"/>
<rect y="25" width="128" height="96" rx="12" fill="#56B4FF"/>
<rect y="25" width="128" height="92" rx="12" fill="url(#paint0_linear_1172_89)"/>
<path d="M37.2344 43.1484C36.8684 43.3001 36.5557 43.557 36.3359 43.8867C36.1162 44.2163 35.9993 44.6038 36 45V97C36.0001 97.5304 36.2108 98.0391 36.5858 98.4141C36.9609 98.7892 37.4696 98.9999 38 99H90C90.3955 98.9998 90.782 98.8824 91.1108 98.6626C91.4396 98.4429 91.6959 98.1305 91.8472 97.7652C91.9985 97.3998 92.0382 96.9977 91.9611 96.6099C91.884 96.222 91.6936 95.8656 91.4141 95.5859L39.4141 43.5859C39.1348 43.3055 38.7786 43.1143 38.3906 43.0364C38.0026 42.9586 37.6002 42.9975 37.2344 43.1484ZM40 49.8281L85.1719 95H40V49.8281Z" fill="black" fill-opacity="0.32"/>
<defs>
<linearGradient id="paint0_linear_1172_89" x1="31" y1="25" x2="70.6549" y2="128.095" gradientUnits="userSpaceOnUse">
<stop stop-color="#88CDFF"/>
<stop offset="1" stop-color="#ABDFFF"/>
</linearGradient>
</defs>
</svg>
