<svg xmlns="http://www.w3.org/2000/svg" width="128" height="128" fill="none" viewBox="0 0 128 128"><path fill="#56B4FF" fill-rule="evenodd" d="M0.815779 10.4805C0 12.1457 0 14.3105 0 18.64V32.96V100.04V104.36C0 108.69 0 110.854 0.815779 112.52C1.50815 113.933 2.59983 115.106 3.94938 115.899C4.77546 116.646 5.70697 117.28 6.72073 117.776C9.21855 119 12.4657 119 18.96 119H109.04C115.534 119 118.781 119 121.279 117.776C123.671 116.605 125.605 114.671 126.776 112.279C128 109.781 128 106.534 128 100.04V32.96C128 26.4657 128 23.2185 126.776 20.7207C125.605 18.3292 123.671 16.3953 121.279 15.2237C118.781 14 115.534 14 109.04 14H63.9282C63.8385 12.483 63.637 11.4048 63.1842 10.4805C62.4031 8.88611 61.1139 7.59686 59.5195 6.81578C57.8543 6 55.6895 6 51.36 6H12.64C8.31047 6 6.1457 6 4.48049 6.81578C2.88611 7.59686 1.59686 8.88611 0.815779 10.4805Z" clip-rule="evenodd"/><rect width="128" height="96" y="25" fill="#56B4FF" rx="12"/><rect width="128" height="92" y="25" fill="url(#paint0_linear_1172_76)" rx="12"/><path fill="#000" fill-opacity=".32" d="M56 43V79.2266C53.455 76.6229 49.9119 75 46 75C38.2917 75 32 81.2917 32 89C32 96.7083 38.2917 103 46 103C52 103 60 99 60 89V47H92V79.2266C89.455 76.6229 85.9119 75 82 75C74.2917 75 68 81.2917 68 89C68 96.7083 74.2917 103 82 103C89.7083 103 96 96.7083 96 89V43H56ZM46 79C51.5465 79 56 83.4535 56 89C56 94.5465 51.5465 99 46 99C40.4535 99 36 94.5465 36 89C36 83.4535 40.4535 79 46 79ZM82 79C87.5465 79 92 83.4535 92 89C92 94.5465 87.5465 99 82 99C76.4535 99 72 94.5465 72 89C72 83.4535 76.4535 79 82 79Z"/><defs><linearGradient id="paint0_linear_1172_76" x1="31" x2="70.655" y1="25" y2="128.095" gradientUnits="userSpaceOnUse"><stop stop-color="#88CDFF"/><stop offset="1" stop-color="#ABDFFF"/></linearGradient></defs></svg>