<svg width="128" height="128" viewBox="0 0 128 128" fill="none" xmlns="http://www.w3.org/2000/svg">
<path fill-rule="evenodd" clip-rule="evenodd" d="M0.815779 10.4805C0 12.1457 0 14.3105 0 18.64V32.96V100.04V104.36C0 108.69 0 110.854 0.815779 112.52C1.50815 113.933 2.59983 115.106 3.94938 115.899C4.77546 116.646 5.70697 117.28 6.72073 117.776C9.21855 119 12.4657 119 18.96 119H109.04C115.534 119 118.781 119 121.279 117.776C123.671 116.605 125.605 114.671 126.776 112.279C128 109.781 128 106.534 128 100.04V32.96C128 26.4657 128 23.2185 126.776 20.7207C125.605 18.3292 123.671 16.3953 121.279 15.2237C118.781 14 115.534 14 109.04 14H63.9282C63.8385 12.483 63.637 11.4048 63.1842 10.4805C62.4031 8.88611 61.1139 7.59686 59.5195 6.81578C57.8543 6 55.6895 6 51.36 6H12.64C8.31047 6 6.1457 6 4.48049 6.81578C2.88611 7.59686 1.59686 8.88611 0.815779 10.4805Z" fill="#56B4FF"/>
<rect y="25" width="128" height="96" rx="12" fill="#56B4FF"/>
<rect y="25" width="128" height="92" rx="12" fill="url(#paint0_linear_1172_33)"/>
<path d="M66.0001 63C65.7 62.9998 65.4038 63.0671 65.1334 63.197C64.8629 63.3268 64.6251 63.5158 64.4376 63.75L48.4376 83.75C48.2021 84.0442 48.0545 84.399 48.0119 84.7735C47.9692 85.1479 48.0332 85.5268 48.1965 85.8665C48.3598 86.2061 48.6158 86.4927 48.9349 86.6933C49.2539 86.8938 49.6232 87.0002 50.0001 87H82.0001C82.3769 87.0002 82.7462 86.8938 83.0653 86.6933C83.3843 86.4927 83.6403 86.2061 83.8036 85.8665C83.9669 85.5268 84.0309 85.1479 83.9882 84.7735C83.9456 84.399 83.798 84.0442 83.5626 83.75L67.5626 63.75C67.375 63.5158 67.1372 63.3268 66.8668 63.197C66.5963 63.0671 66.3001 62.9998 66.0001 63ZM66.0001 68.2031L77.836 83H54.1641L66.0001 68.2031Z" fill="black" fill-opacity="0.32"/>
<path d="M52 55C51.2351 55 50.5228 55.2188 49.9141 55.5938C49.8105 55.6575 49.7065 55.7242 49.6094 55.7969C49.3012 56.0276 49.0276 56.3012 48.7969 56.6094C48.7242 56.7064 48.6575 56.8105 48.5938 56.9141C48.2188 57.5228 48 58.2351 48 59C48 59.7649 48.2188 60.4772 48.5938 61.0859C48.6575 61.1895 48.7242 61.2935 48.7969 61.3906C49.0276 61.6988 49.3012 61.9724 49.6094 62.2031C49.7064 62.2758 49.8105 62.3425 49.9141 62.4062C50.5228 62.7812 51.2351 63 52 63C52.7649 63 53.4772 62.7812 54.0859 62.4062C54.1895 62.3425 54.2935 62.2758 54.3906 62.2031C54.6988 61.9724 54.9724 61.6988 55.2031 61.3906C55.2758 61.2936 55.3425 61.1895 55.4062 61.0859C55.7812 60.4772 56 59.7649 56 59C56 58.2351 55.7812 57.5228 55.4062 56.9141C55.3425 56.8105 55.2758 56.7065 55.2031 56.6094C54.9724 56.3012 54.6988 56.0276 54.3906 55.7969C54.2935 55.7242 54.1895 55.6575 54.0859 55.5938C53.4772 55.2188 52.7649 55 52 55Z" fill="black" fill-opacity="0.32"/>
<path d="M49.1406 43C41.9334 43 36 48.9334 36 56.1406V85.8594C36 93.0666 41.9334 99 49.1406 99H78.8594C86.0666 99 92 93.0666 92 85.8594V56.1406C92 48.9334 86.0666 43 78.8594 43H49.1406ZM49.1406 47H78.8594C83.8687 47 88 51.1313 88 56.1406V85.8594C88 90.8687 83.8687 95 78.8594 95H49.1406C44.1313 95 40 90.8687 40 85.8594V56.1406C40 51.1313 44.1313 47 49.1406 47Z" fill="black" fill-opacity="0.32"/>
<defs>
<linearGradient id="paint0_linear_1172_33" x1="31" y1="25" x2="70.6549" y2="128.095" gradientUnits="userSpaceOnUse">
<stop stop-color="#88CDFF"/>
<stop offset="1" stop-color="#ABDFFF"/>
</linearGradient>
</defs>
</svg>
