<?xml version="1.0" encoding="UTF-8" standalone="no"?>
<svg
   height="128px"
   viewBox="0 0 128 128"
   width="128px"
   version="1.1"
   id="svg29"
   xmlns="http://www.w3.org/2000/svg"
   xmlns:svg="http://www.w3.org/2000/svg">
  <defs
     id="defs33" />
  <linearGradient
     id="a"
     gradientUnits="userSpaceOnUse"
     x1="8.0000315"
     x2="120.0000315"
     y1="119.999977"
     y2="119.999977">
    <stop
       offset="0"
       stop-color="#1a5fb4"
       id="stop2" />
    <stop
       offset="0.0357143"
       stop-color="#1c71d8"
       id="stop4" />
    <stop
       offset="0.0713653"
       stop-color="#1a5fb4"
       id="stop6" />
    <stop
       offset="0.928571"
       stop-color="#1a5fb4"
       id="stop8" />
    <stop
       offset="0.964286"
       stop-color="#1c71d8"
       id="stop10" />
    <stop
       offset="1"
       stop-color="#1a5fb4"
       id="stop12" />
  </linearGradient>
  <path
     id="path17-6"
     style="fill:#813d9c;stroke-width:0.999998"
     d="m 20,12 c -2.277586,0 -7,2.059406 -7,9.267328 v 13.386139 2.059406 11.326732 23.683169 c 2,10.29703 1,13.386139 3,32.950496 C 17,112.91089 17.945019,116 22,116 h 83 c 4.05496,0 7,-3.08911 8,-11.32673 l 2.00001,-68.495554 C 115,24.356437 115,21.267328 105,21.267328 H 63 C 62.962258,14.241496 58.258964,12 56,12 Z" />
  <path
     d="M 16.023473,36.713081 H 112.0016 c 4.10075,0 6.9984,3.254256 6.9984,7.207712 l -6.03033,60.801547 c -0.39058,3.93813 -3.86571,7.15885 -7.96648,7.15885 H 24.02165 c -4.100764,0 -7.550465,-3.27673 -8.02165,-7.20792 L 9.0250685,43.871947 C 8.6810093,39.93243 11.922832,36.682903 16.023473,36.713081 Z"
     fill="#3584e4"
     id="path25"
     style="fill:#c061cb;fill-opacity:1;stroke-width:1.0001" />
  <g
     id="g845"
     transform="matrix(3.4285715,0,0,3.4285712,36.571429,47.57143)"
     style="fill:#ffffff;stroke-width:0.291696">
    <path
       style="color:#000000;fill:#ffffff;fill-opacity:0.5;stroke-width:0.291696;stroke-linecap:round;stroke-linejoin:round;-inkscape-stroke:none"
       d="M 8,2 C 4.6981394,2 2,4.6981394 2,8 c 0,3.301861 2.6981394,6 6,6 3.301861,0 6,-2.698139 6,-6 C 14,4.6981394 11.301861,2 8,2 Z m 0,2 c 2.220981,0 4,1.7790186 4,4 0,2.220981 -1.779019,4 -4,4 C 5.7790186,12 4,10.220981 4,8 4,5.7790186 5.7790186,4 8,4 Z"
       id="path1371" />
    <path
       id="path947"
       style="fill:#ffffff;stroke-width:0.583333;stroke-linecap:round;stroke-linejoin:round;stop-color:#000000"
       d="m 15,2.9999998 a 2,2 0 0 1 -2,2 2,2 0 0 1 -2,-2 2,2 0 0 1 2,-2.00000004 2,2 0 0 1 2,2.00000004 z" />
    <path
       id="path949"
       style="fill:#ffffff;stroke-width:0.583333;stroke-linecap:round;stroke-linejoin:round;stop-color:#000000"
       d="m 15,13 a 2,2 0 0 1 -2,2 2,2 0 0 1 -2,-2 2,2 0 0 1 2,-2 2,2 0 0 1 2,2 z" />
    <path
       id="path951"
       style="fill:#ffffff;stroke-width:0.583333;stroke-linecap:round;stroke-linejoin:round;stop-color:#000000"
       d="M 5,13 A 2,2 0 0 1 3,15 2,2 0 0 1 1,13 2,2 0 0 1 3,11 2,2 0 0 1 5,13 Z" />
    <path
       id="path951-3"
       style="fill:#ffffff;stroke-width:0.583333;stroke-linecap:round;stroke-linejoin:round;stop-color:#000000"
       d="M 5,3 A 2,2 0 0 1 3,5 2,2 0 0 1 1,3 2,2 0 0 1 3,1 2,2 0 0 1 5,3 Z" />
  </g>
</svg>
