<?xml version="1.0" encoding="UTF-8" standalone="no"?>
<svg
   height="128px"
   viewBox="0 0 128 128"
   width="128px"
   version="1.1"
   id="svg29"
   xmlns="http://www.w3.org/2000/svg"
   xmlns:svg="http://www.w3.org/2000/svg">
  <defs
     id="defs33" />
  <linearGradient
     id="a"
     gradientUnits="userSpaceOnUse"
     x1="8.0000315"
     x2="120.0000315"
     y1="119.999977"
     y2="119.999977">
    <stop
       offset="0"
       stop-color="#1a5fb4"
       id="stop2" />
    <stop
       offset="0.0357143"
       stop-color="#1c71d8"
       id="stop4" />
    <stop
       offset="0.0713653"
       stop-color="#1a5fb4"
       id="stop6" />
    <stop
       offset="0.928571"
       stop-color="#1a5fb4"
       id="stop8" />
    <stop
       offset="0.964286"
       stop-color="#1c71d8"
       id="stop10" />
    <stop
       offset="1"
       stop-color="#1a5fb4"
       id="stop12" />
  </linearGradient>
  <g
     id="g2999"
     transform="matrix(0.99980047,0,0,0.99999467,1.0245418,6.3936607e-4)"
     style="stroke-width:1.0001">
    <path
       id="path17-6"
       style="fill:#1c71d8;stroke-width:1.0001"
       d="m 18.979245,11.999425 c -2.27804,0 -7.001397,2.059417 -7.001397,9.267377 v 13.38621 2.059417 11.326793 23.683295 c 2.000399,10.297085 1.0002,13.38621 3.000599,32.950673 1.000199,8.23766 1.945407,11.32679 6.001197,11.32679 h 83.016566 c 4.05577,0 7.0014,-3.08913 8.0016,-11.32679 l 2.0004,-68.495921 c -1e-5,-11.821342 -1e-5,-14.910467 -10.002,-14.910467 H 61.987827 c -0.03775,-7.025869 -4.741983,-9.267377 -7.001397,-9.267377 z" />
    <path
       d="m 15.001925,36.712637 h 95.997285 c 4.10156,0 6.99979,3.254274 6.99979,7.207751 l -6.03153,60.801872 c -0.39066,3.93815 -3.86648,7.15889 -7.96807,7.15889 H 23.001698 c -4.101583,0 -7.551972,-3.27675 -8.023251,-7.20796 L 8.0021234,43.871541 C 7.6579955,39.932003 10.900465,36.682459 15.001925,36.712637 Z"
       fill="#3584e4"
       id="path25"
       style="fill:#62a0ea;fill-opacity:1;stroke-width:1.0002" />
    <path
       d="m 54.961465,75.091762 c -1.45031,-0.70313 -3.06311,-1.09235 -4.77598,-1.09235 -6.15123,0 -11.20225,5.07256 -11.20225,11.25007 0,6.17746 5.05102,11.25005 11.20225,11.25005 6.15124,0 11.202254,-5.07259 11.202254,-11.25005 v -27.32158 l 19.153841,0.0129 0.03744,17.15133 c -1.462785,-0.70316 -3.075619,-1.09238 -4.788452,-1.09238 -6.151238,0 -11.20225,5.07256 -11.20225,11.25007 0,6.17747 5.051012,11.25005 11.20225,11.25005 6.151237,0 11.20225,-5.07258 11.20225,-11.25005 V 51.499632 H 54.986385 Z m -4.77598,5.33626 c 2.68804,0 4.80097,2.12193 4.80097,4.82146 0,2.69948 -2.11293,4.82142 -4.80097,4.82142 -2.68803,0 -4.80096,-2.12194 -4.80096,-4.82142 0,-2.69953 2.11293,-4.82146 4.80096,-4.82146 z m 25.605147,0 c 2.688034,0 4.800964,2.12193 4.800964,4.82146 0,2.69948 -2.11293,4.82142 -4.800964,4.82142 -2.688035,0 -4.800965,-2.12194 -4.800965,-4.82142 0,-2.69953 2.11293,-4.82146 4.800965,-4.82146 z m 0,0"
       fill="#2e3436"
       id="path2"
       style="fill:#ffffff;stroke-width:1.0002" />
  </g>
</svg>
