<svg width="128" height="128" viewBox="0 0 128 128" fill="none" xmlns="http://www.w3.org/2000/svg">
<path fill-rule="evenodd" clip-rule="evenodd" d="M0.815779 10.4805C0 12.1457 0 14.3105 0 18.64V32.96V100.04V104.36C0 108.69 0 110.854 0.815779 112.52C1.50815 113.933 2.59983 115.106 3.94938 115.899C4.77546 116.646 5.70697 117.28 6.72073 117.776C9.21855 119 12.4657 119 18.96 119H109.04C115.534 119 118.781 119 121.279 117.776C123.671 116.605 125.605 114.671 126.776 112.279C128 109.781 128 106.534 128 100.04V32.96C128 26.4657 128 23.2185 126.776 20.7207C125.605 18.3292 123.671 16.3953 121.279 15.2237C118.781 14 115.534 14 109.04 14H63.9282C63.8385 12.483 63.637 11.4048 63.1842 10.4805C62.4031 8.88611 61.1139 7.59686 59.5195 6.81578C57.8543 6 55.6895 6 51.36 6H12.64C8.31047 6 6.1457 6 4.48049 6.81578C2.88611 7.59686 1.59686 8.88611 0.815779 10.4805Z" fill="#56B4FF"/>
<rect y="25" width="128" height="96" rx="12" fill="#56B4FF"/>
<rect y="25" width="128" height="92" rx="12" fill="url(#paint0_linear_1172_42)"/>
<path d="M68 75C68 76.0609 67.5786 77.0783 66.8284 77.8284C66.0783 78.5786 65.0609 79 64 79C62.9391 79 61.9217 78.5786 61.1716 77.8284C60.4214 77.0783 60 76.0609 60 75C60 73.9391 60.4214 72.9217 61.1716 72.1716C61.9217 71.4214 62.9391 71 64 71C65.0609 71 66.0783 71.4214 66.8284 72.1716C67.5786 72.9217 68 73.9391 68 75Z" fill="black" fill-opacity="0.32"/>
<path d="M68 63C68 64.0609 67.5786 65.0783 66.8284 65.8284C66.0783 66.5786 65.0609 67 64 67C62.9391 67 61.9217 66.5786 61.1716 65.8284C60.4214 65.0783 60 64.0609 60 63C60 61.9391 60.4214 60.9217 61.1716 60.1716C61.9217 59.4214 62.9391 59 64 59C65.0609 59 66.0783 59.4214 66.8284 60.1716C67.5786 60.9217 68 61.9391 68 63Z" fill="black" fill-opacity="0.32"/>
<path d="M68 51C68 52.0609 67.5786 53.0783 66.8284 53.8284C66.0783 54.5786 65.0609 55 64 55C62.9391 55 61.9217 54.5786 61.1716 53.8284C60.4214 53.0783 60 52.0609 60 51C60 49.9391 60.4214 48.9217 61.1716 48.1716C61.9217 47.4214 62.9391 47 64 47C65.0609 47 66.0783 47.4214 66.8284 48.1716C67.5786 48.9217 68 49.9391 68 51Z" fill="black" fill-opacity="0.32"/>
<path d="M42.6663 79C41.9591 79.0001 41.2809 79.2108 40.7809 79.5859C39.7397 80.367 39.7397 81.633 40.7809 82.4141L62.1146 98.4141C63.156 99.1948 64.844 99.1948 65.8855 98.4141L87.2191 82.4141C88.2603 81.633 88.2603 80.367 87.2191 79.5859C86.1778 78.8051 84.4896 78.8051 83.4482 79.5859L64 95L44.5518 79.5859C44.0517 79.2108 43.3735 79.0001 42.6663 79Z" fill="black" fill-opacity="0.32"/>
<defs>
<linearGradient id="paint0_linear_1172_42" x1="31" y1="25" x2="70.6549" y2="128.095" gradientUnits="userSpaceOnUse">
<stop stop-color="#88CDFF"/>
<stop offset="1" stop-color="#ABDFFF"/>
</linearGradient>
</defs>
</svg>
