<svg xmlns="http://www.w3.org/2000/svg" width="128" height="128" fill="none" viewBox="0 0 128 128"><path fill="#56B4FF" fill-rule="evenodd" d="M0.815779 10.4805C0 12.1457 0 14.3105 0 18.64V32.96V100.04V104.36C0 108.69 0 110.854 0.815779 112.52C1.50815 113.933 2.59983 115.106 3.94938 115.899C4.77546 116.646 5.70697 117.28 6.72073 117.776C9.21855 119 12.4657 119 18.96 119H109.04C115.534 119 118.781 119 121.279 117.776C123.671 116.605 125.605 114.671 126.776 112.279C128 109.781 128 106.534 128 100.04V32.96C128 26.4657 128 23.2185 126.776 20.7207C125.605 18.3292 123.671 16.3953 121.279 15.2237C118.781 14 115.534 14 109.04 14H63.9282C63.8385 12.483 63.637 11.4048 63.1842 10.4805C62.4031 8.88611 61.1139 7.59686 59.5195 6.81578C57.8543 6 55.6895 6 51.36 6H12.64C8.31047 6 6.1457 6 4.48049 6.81578C2.88611 7.59686 1.59686 8.88611 0.815779 10.4805Z" clip-rule="evenodd"/><rect width="128" height="96" y="25" fill="#56B4FF" rx="12"/><rect width="128" height="92" y="25" fill="url(#paint0_linear_1172_100)" rx="12"/><path fill="#000" fill-opacity=".32" fill-rule="evenodd" d="M92 51C92 53.1217 91.1571 55.1566 89.6569 56.6569C88.3361 57.9776 86.601 58.7889 84.7571 58.9641C86.8184 62.5046 88 66.6172 88 71C88 75.3828 86.8184 79.4954 84.7571 83.0359C86.601 83.2111 88.3361 84.0224 89.6569 85.3431C91.1571 86.8434 92 88.8783 92 91C92 93.1217 91.1571 95.1566 89.6569 96.6569C88.1566 98.1571 86.1217 99 84 99C81.8783 99 79.8434 98.1571 78.3431 96.6569C77.0224 95.3361 76.2111 93.601 76.0359 91.7571C72.4954 93.8184 68.3828 95 64 95C59.6172 95 55.5046 93.8184 51.9641 91.7571C51.7889 93.601 50.9776 95.3361 49.6569 96.6569C48.1566 98.1571 46.1217 99 44 99C41.8783 99 39.8434 98.1571 38.3431 96.6569C36.8429 95.1566 36 93.1217 36 91C36 88.8783 36.8429 86.8434 38.3431 85.3431C39.6639 84.0224 41.399 83.2111 43.2429 83.0359C41.1816 79.4954 40 75.3828 40 71C40 66.6172 41.1816 62.5046 43.2429 58.9641C41.399 58.7889 39.6639 57.9776 38.3431 56.6569C36.8429 55.1566 36 53.1217 36 51C36 48.8783 36.8429 46.8434 38.3431 45.3431C39.8434 43.8429 41.8783 43 44 43C46.1217 43 48.1566 43.8429 49.6569 45.3431C50.9776 46.6639 51.7889 48.399 51.9641 50.2429C55.5046 48.1816 59.6172 47 64 47C68.3828 47 72.4954 48.1816 76.0359 50.2429C76.1111 49.452 76.3038 48.6752 76.609 47.9385C77.011 46.9679 77.6003 46.086 78.3431 45.3431C79.086 44.6003 79.9679 44.011 80.9385 43.609C81.9091 43.2069 82.9494 43 84 43C85.0506 43 86.0909 43.2069 87.0615 43.609C88.0321 44.011 88.914 44.6003 89.6569 45.3431C90.3997 46.086 90.989 46.9679 91.391 47.9385C91.7931 48.9091 92 49.9494 92 51ZM84 71C84 59.9306 75.0694 51 64 51C52.9306 51 44 59.9306 44 71C44 82.0694 52.9306 91 64 91C75.0694 91 84 82.0694 84 71Z" clip-rule="evenodd"/><defs><linearGradient id="paint0_linear_1172_100" x1="31" x2="70.655" y1="25" y2="128.095" gradientUnits="userSpaceOnUse"><stop stop-color="#88CDFF"/><stop offset="1" stop-color="#ABDFFF"/></linearGradient></defs></svg>