<svg xmlns="http://www.w3.org/2000/svg" xmlns:svg="http://www.w3.org/2000/svg" id="svg12" width="128" height="128" version="1.1" viewBox="0 0 128 128"><path id="path6" d="m 103.85059,65.400293 c -0.0404,0.516835 -0.0555,1.034996 -0.11426,1.551367 0.0721,0.03732 0.13915,0.08133 0.21074,0.11934 -0.0206,-0.560023 -0.0553,-1.116066 -0.0965,-1.670703 z m -91.76934,0.708399 c -0.05038,0.86659 -0.08143,1.738761 -0.08125,2.617773 0,24.918202 20.590323,45.121685 45.992578,45.121685 6.98325,-0.0248 13.867767,-1.60413 20.132227,-4.62618 4.153011,3.46515 9.428078,5.37276 14.878906,5.37774 C 105.70234,114.59971 116,104.4992 116,92.037597 c -0.003,-0.86635 -0.0685,-1.72416 -0.17012,-2.57207 -1.32983,11.220473 -11.03552,19.934183 -22.826169,19.934183 -5.450828,-0.005 -10.725895,-1.91259 -14.878906,-5.37774 -6.26446,3.02205 -13.148977,4.60135 -20.132227,4.62618 -24.517887,0 -44.546012,-18.823743 -45.911328,-42.539458 z" style="fill:#cdcdd4;fill-opacity:1;stroke-width:1"/><path id="path8" fill="#fff" d="m 57.992608,18.5 c -25.402255,0 -45.997598,20.203412 -45.992607,45.126597 0,24.918203 20.590352,45.121613 45.992607,45.121613 6.983251,-0.0248 13.866667,-1.60312 20.131127,-4.62517 4.153011,3.46515 9.429133,5.37197 14.879961,5.37696 C 105.70233,109.5 116,99.3983 116,86.9367 c -0.025,-8.34424 -4.74202,-15.99147 -12.26436,-19.884782 0.12978,-1.140113 0.21464,-2.280229 0.25457,-3.425321 C 103.99021,38.703412 83.394866,18.5 57.992608,18.5 Z m 0,0" style="fill:#f0f0f2;fill-opacity:1;stroke-width:.999999"/></svg>