<svg xmlns="http://www.w3.org/2000/svg" width="128" height="128" fill="none" viewBox="0 0 128 128"><path fill="#56B4FF" fill-rule="evenodd" d="M0.815779 10.4805C0 12.1457 0 14.3105 0 18.64V32.96V100.04V104.36C0 108.69 0 110.854 0.815779 112.52C1.50815 113.933 2.59983 115.106 3.94938 115.899C4.77546 116.646 5.70697 117.28 6.72073 117.776C9.21855 119 12.4657 119 18.96 119H109.04C115.534 119 118.781 119 121.279 117.776C123.671 116.605 125.605 114.671 126.776 112.279C128 109.781 128 106.534 128 100.04V32.96C128 26.4657 128 23.2185 126.776 20.7207C125.605 18.3292 123.671 16.3953 121.279 15.2237C118.781 14 115.534 14 109.04 14H63.9282C63.8385 12.483 63.637 11.4048 63.1842 10.4805C62.4031 8.88611 61.1139 7.59686 59.5195 6.81578C57.8543 6 55.6895 6 51.36 6H12.64C8.31047 6 6.1457 6 4.48049 6.81578C2.88611 7.59686 1.59686 8.88611 0.815779 10.4805Z" clip-rule="evenodd"/><rect width="128" height="96" y="25" fill="#56B4FF" rx="12"/><rect width="128" height="92" y="25" fill="url(#paint0_linear_1172_111)" rx="12"/><path fill="#000" fill-opacity=".32" fill-rule="evenodd" d="M62.836 45.3751L34.836 65.3751C34.4053 65.684 34.1148 66.1513 34.0284 66.6742C33.9419 67.1972 34.0666 67.7331 34.3751 68.1641C34.684 68.5949 35.1513 68.8854 35.6742 68.9718C36.1972 69.0582 36.7331 68.9335 37.1641 68.6251L64.0001 49.461L90.836 68.6251C91.2671 68.9335 91.803 69.0582 92.3259 68.9718C92.8489 68.8854 93.3162 68.5949 93.6251 68.1641C93.9335 67.7331 94.0582 67.1972 93.9718 66.6742C93.8854 66.1513 93.5949 65.684 93.1641 65.3751L65.1641 45.3751C64.8246 45.1321 64.4176 45.0015 64.0001 45.0015C63.5826 45.0015 63.1755 45.1321 62.836 45.3751ZM41.8463 71.0001C41.3567 71.0001 40.8871 71.2108 40.5409 71.5859C40.1947 71.961 40.0002 72.4697 40.0002 73.0001V89.0001C40.0002 89.0001 39.9747 91.4137 41.118 93.8907C42.2612 96.3678 44.9232 99.0001 49.2309 99.0001H62H78.7694C78.7694 99.0001 80.9973 99.0277 83.2838 97.7892C85.5703 96.5507 88.0001 93.6668 88.0001 89.0001V73.0001C88.0001 72.4697 87.8056 71.961 87.4594 71.5859C87.1132 71.2108 86.6436 71.0001 86.154 71.0001C85.6643 71.0001 85.1948 71.2108 84.8485 71.5859C84.5023 71.961 84.3078 72.4697 84.3078 73.0001V89.0001C84.3078 92.3335 83.0454 93.4496 81.6396 94.2111C80.2337 94.9725 78.7694 95.0001 78.7694 95.0001H64V77.0001C64 76.4697 63.7893 75.961 63.4142 75.5859C63.0391 75.2108 62.5304 75.0001 62 75.0001C61.4696 75.0001 60.9609 75.2108 60.5858 75.5859C60.2107 75.961 60 76.4697 60 77.0001V95.0001H49.2309C46.154 95.0001 45.1237 93.6325 44.4208 92.1095C43.7179 90.5865 43.6925 89.0001 43.6925 89.0001V73.0001C43.6925 72.4697 43.498 71.961 43.1517 71.5859C42.8055 71.2108 42.336 71.0001 41.8463 71.0001Z" clip-rule="evenodd"/><defs><linearGradient id="paint0_linear_1172_111" x1="31" x2="70.655" y1="25" y2="128.095" gradientUnits="userSpaceOnUse"><stop stop-color="#88CDFF"/><stop offset="1" stop-color="#ABDFFF"/></linearGradient></defs></svg>