<?xml version="1.0" encoding="UTF-8" standalone="no"?>
<svg
   height="128px"
   viewBox="0 0 128 128"
   width="128px"
   version="1.1"
   id="svg29"
   xmlns="http://www.w3.org/2000/svg"
   xmlns:svg="http://www.w3.org/2000/svg">
  <defs
     id="defs33" />
  <linearGradient
     id="a"
     gradientUnits="userSpaceOnUse"
     x1="8.0000315"
     x2="120.0000315"
     y1="119.999977"
     y2="119.999977">
    <stop
       offset="0"
       stop-color="#1a5fb4"
       id="stop2" />
    <stop
       offset="0.0357143"
       stop-color="#1c71d8"
       id="stop4" />
    <stop
       offset="0.0713653"
       stop-color="#1a5fb4"
       id="stop6" />
    <stop
       offset="0.928571"
       stop-color="#1a5fb4"
       id="stop8" />
    <stop
       offset="0.964286"
       stop-color="#1c71d8"
       id="stop10" />
    <stop
       offset="1"
       stop-color="#1a5fb4"
       id="stop12" />
  </linearGradient>
  <path
     id="path17-6"
     style="fill:#553a20;stroke-width:0.999998"
     d="m 20,12 c -2.277586,0 -7,2.059406 -7,9.267328 v 13.386139 2.059406 11.326732 23.683169 c 2,10.29703 1,13.386139 3,32.950496 C 17,112.91089 17.945019,116 22,116 h 83 c 4.05496,0 7,-3.08911 8,-11.32673 l 2.00001,-68.495554 C 115,24.356437 115,21.267328 105,21.267328 H 63 C 62.962258,14.241496 58.258964,12 56,12 Z" />
  <path
     d="M 16.023473,36.713081 H 112.0016 c 4.10075,0 6.9984,3.254256 6.9984,7.207712 l -6.03033,60.801547 c -0.39058,3.93813 -3.86571,7.15885 -7.96648,7.15885 H 24.02165 c -4.100764,0 -7.550465,-3.27673 -8.02165,-7.20792 L 9.0250685,43.871947 C 8.6810093,39.93243 11.922832,36.682903 16.023473,36.713081 Z"
     fill="#3584e4"
     id="path25"
     style="fill:#bf8856;fill-opacity:1;stroke-width:1.0001" />
  <g
     id="g934"
     transform="matrix(3.2001612,0,0,3.2001612,38.39871,47.89513)"
     style="stroke-width:0.62496852;fill:#f0f0f2;stroke:#f0f0f2;stroke-opacity:1;stroke-miterlimit:4;stroke-dasharray:none">
    <path
       style="color:#000000;fill:#f0f0f2;stroke-width:0.62496852;stroke-linecap:round;stroke-linejoin:round;stroke:#f0f0f2;stroke-opacity:1;stroke-miterlimit:4;stroke-dasharray:none"
       d="m 7.7089844,1.59375 -7.00000003,5 A 0.5,0.5 0 0 0 0.59375,7.2910156 0.5,0.5 0 0 0 1.2910156,7.40625 L 8,2.6152344 14.708984,7.40625 A 0.5,0.5 0 0 0 15.40625,7.2910156 0.5,0.5 0 0 0 15.291016,6.59375 l -7.0000004,-5 a 0.50005,0.50005 0 0 0 -0.5820312,0 z"
       id="path857" />
    <path
       style="color:#000000;fill:#f0f0f2;stroke-width:0.62496852;stroke-linecap:round;stroke-linejoin:round;stroke:#f0f0f2;stroke-opacity:1;stroke-miterlimit:4;stroke-dasharray:none"
       d="m 2.4615495,8 a 0.461538,0.5 0 0 0 -0.461538,0.5 v 4 c 0,0 -0.00636,0.6034 0.2794469,1.222656 C 2.5652687,14.341913 3.2307806,15 4.3077015,15 H 11.69231 c 0,0 0.556984,0.0069 1.128604,-0.302734 C 13.392536,14.387637 14,13.666665 14,12.5 v -4 A 0.461538,0.5 0 0 0 13.538462,8 0.461538,0.5 0 0 0 13.076924,8.5 v 4 c 0,0.833333 -0.315613,1.112363 -0.667066,1.302734 C 12.058403,13.993106 11.69231,14 11.69231,14 H 4.3077015 C 3.5384723,14 3.2809059,13.658086 3.1051787,13.277344 2.9294515,12.896601 2.9230875,12.5 2.9230875,12.5 v -4 A 0.461538,0.5 0 0 0 2.4615495,8 Z"
       id="path827" />
    <path
       style="color:#000000;fill:#f0f0f2;stroke-width:0.62496852;stroke-linecap:round;stroke-linejoin:round;stroke:#f0f0f2;stroke-opacity:1;stroke-miterlimit:4;stroke-dasharray:none"
       d="M 7.5,9 A 0.5,0.5 0 0 0 7,9.5 v 5 A 0.5,0.5 0 0 0 7.5,15 0.5,0.5 0 0 0 8,14.5 v -5 A 0.5,0.5 0 0 0 7.5,9 Z"
       id="path861" />
  </g>
</svg>
