<?xml version="1.0" encoding="UTF-8" standalone="no"?>
<svg
   height="128px"
   viewBox="0 0 128 128"
   width="128px"
   version="1.1"
   id="svg51"
   xmlns:xlink="http://www.w3.org/1999/xlink"
   xmlns="http://www.w3.org/2000/svg"
   xmlns:svg="http://www.w3.org/2000/svg">
  <defs
     id="defs55">
    <linearGradient
       id="linearGradient1996">
      <stop
         style="stop-color:#828292;stop-opacity:1"
         offset="0"
         id="stop1992" />
      <stop
         style="stop-color:#77767b;stop-opacity:0;"
         offset="1"
         id="stop1994" />
    </linearGradient>
    <linearGradient
       id="linearGradient1862">
      <stop
         style="stop-color:#828292;stop-opacity:1"
         offset="0"
         id="stop1858" />
      <stop
         style="stop-color:#77767b;stop-opacity:0;"
         offset="1"
         id="stop1860" />
    </linearGradient>
    <linearGradient
       id="linearGradient1792">
      <stop
         style="stop-color:#828292;stop-opacity:1"
         offset="0"
         id="stop1788" />
      <stop
         style="stop-color:#77767b;stop-opacity:0;"
         offset="1"
         id="stop1790" />
    </linearGradient>
    <linearGradient
       id="linearGradient2898">
      <stop
         style="stop-color:#2d2d2d;stop-opacity:1"
         offset="0"
         id="stop2894" />
      <stop
         style="stop-color:#828292;stop-opacity:1"
         offset="1"
         id="stop2896" />
    </linearGradient>
    <linearGradient
       xlink:href="#linearGradient2898"
       id="linearGradient2900"
       x1="65"
       y1="75"
       x2="65"
       y2="20"
       gradientUnits="userSpaceOnUse"
       gradientTransform="matrix(0.67307691,0,0,0.97938144,20.923078,3.3917526)" />
    <linearGradient
       xlink:href="#linearGradient1996"
       id="linearGradient1048"
       x1="45.242378"
       y1="79.759911"
       x2="44.952744"
       y2="116.7096"
       gradientUnits="userSpaceOnUse" />
    <linearGradient
       xlink:href="#linearGradient1862"
       id="linearGradient1050"
       x1="65.130333"
       y1="80.294968"
       x2="64.910065"
       y2="116.44283"
       gradientUnits="userSpaceOnUse" />
    <linearGradient
       xlink:href="#linearGradient1792"
       id="linearGradient1052"
       x1="85.507622"
       y1="79.90625"
       x2="85.641006"
       y2="116.61967"
       gradientUnits="userSpaceOnUse" />
  </defs>
  <linearGradient
     id="a"
     gradientTransform="matrix(0.15625009,0,0,0.3295883,15.156921,264.83726)"
     gradientUnits="userSpaceOnUse"
     x1="88.595886"
     x2="536.595886"
     y1="-449.394012"
     y2="-449.394012">
    <stop
       offset="0"
       stop-color="#77767b"
       id="stop2"
       style="stop-color:#a5a5a5;stop-opacity:1" />
    <stop
       offset="0.0384615"
       stop-color="#c0bfbc"
       id="stop4"
       style="stop-color:#c2c2c2;stop-opacity:1" />
    <stop
       offset="0.0768555"
       stop-color="#9a9996"
       id="stop6"
       style="stop-color:#a5a5a5;stop-opacity:1" />
    <stop
       offset="0.923077"
       stop-color="#9a9996"
       id="stop8"
       style="stop-color:#a5a5a5;stop-opacity:1" />
    <stop
       offset="0.961538"
       stop-color="#c0bfbc"
       id="stop10"
       style="stop-color:#c2c2c2;stop-opacity:1" />
    <stop
       offset="1"
       stop-color="#77767b"
       id="stop12"
       style="stop-color:#a5a5a5;stop-opacity:1" />
  </linearGradient>
  <filter
     id="b"
     height="1"
     width="1"
     x="0"
     y="0">
    <feColorMatrix
       in="SourceGraphic"
       type="matrix"
       values="0 0 0 0 1 0 0 0 0 1 0 0 0 0 1 0 0 0 1 0"
       id="feColorMatrix15" />
  </filter>
  <mask
     id="c">
    <g
       filter="url(#b)"
       id="g20">
      <rect
         fill-opacity="0.8"
         height="128"
         width="128"
         id="rect18" />
    </g>
  </mask>
  <linearGradient
     id="d"
     gradientUnits="userSpaceOnUse"
     x1="20.495266"
     x2="121.292053"
     y1="28.495239"
     y2="77.00975">
    <stop
       offset="0"
       stop-color="#ffffff"
       id="stop23" />
    <stop
       offset="0.511049"
       stop-color="#f6f5f4"
       stop-opacity="0.4"
       id="stop25" />
    <stop
       offset="1"
       stop-color="#ffffff"
       id="stop27" />
  </linearGradient>
  <clipPath
     id="e">
    <rect
       height="152"
       width="192"
       id="rect30" />
  </clipPath>
  <path
     id="rect2768"
     style="fill:url(#linearGradient2900);stroke-width:4;stroke-linecap:round;stroke-linejoin:round;stop-color:#000000"
     d="m 34.833334,22 h 58.33333 C 96.398335,22 99,24.676 99,28 v 56.556701 c 0,3.324 -2.601665,6 -5.833336,6 h -58.33333 c -3.231668,0 -5.833334,-2.676 -5.833334,-6 V 28 c 0,-3.324 2.601666,-6 5.833334,-6 z" />
  <path
     d="m 29,56 v 52.70679 c 0,4.44165 2.400466,8.01486 5.384616,8.01486 H 93.615385 C 96.599532,116.72165 99,113.14844 99,108.70679 V 56 c 0,4.441648 -2.400468,8.01486 -5.384615,8.01486 H 34.384616 C 31.400466,64.01486 29,60.441648 29,56 Z"
     fill="url(#a)"
     id="path39"
     style="fill:#9e9eab;stroke-width:1.20185" />
  <path
     style="color:#000000;fill:#828292;stroke-linecap:round;stroke-linejoin:round;-inkscape-stroke:none"
     d="m 36,19 c -5.470806,0 -10,4.529194 -10,10 v 33 c 0,5.470806 4.529194,10 10,10 h 56 c 5.470806,0 10,-4.529194 10,-10 V 29 C 102,23.529194 97.470806,19 92,19 Z m 0,8 h 56 c 1.177188,0 2,0.822812 2,2 v 33 c 0,1.177188 -0.822812,2 -2,2 H 36 c -1.177188,0 -2,-0.822812 -2,-2 V 29 c 0,-1.177188 0.822812,-2 2,-2 z"
     id="rect868-3" />
  <path
     style="color:#000000;fill:#ababb6;stroke-linecap:round;stroke-linejoin:round;-inkscape-stroke:none"
     d="m 36,16 c -5.470806,0 -10,4.529194 -10,10 v 33 c 0,5.470806 4.529194,10 10,10 h 56 c 5.470806,0 10,-4.529194 10,-10 V 26 C 102,20.529194 97.470806,16 92,16 Z m 0,8 h 56 c 1.177188,0 2,0.822812 2,2 v 33 c 0,1.177188 -0.822812,2 -2,2 H 36 c -1.177188,0 -2,-0.822812 -2,-2 V 26 c 0,-1.177188 0.822812,-2 2,-2 z"
     id="rect868" />
  <rect
     style="fill:url(#linearGradient1048);fill-opacity:1;stroke-width:0.999996;stroke-linecap:round;stroke-linejoin:round;stop-color:#000000"
     id="rect874"
     width="10"
     height="37"
     x="40"
     y="80" />
  <rect
     style="fill:url(#linearGradient1050);fill-opacity:1;stroke-width:0.999996;stroke-linecap:round;stroke-linejoin:round;stop-color:#000000"
     id="rect876"
     width="10"
     height="37"
     x="60"
     y="80" />
  <rect
     style="fill:url(#linearGradient1052);fill-opacity:1;stroke-width:0.999996;stroke-linecap:round;stroke-linejoin:round;stop-color:#000000"
     id="rect878"
     width="10"
     height="37"
     x="80"
     y="80" />
</svg>
