<?xml version="1.0" encoding="UTF-8" standalone="no"?>
<svg
   height="128px"
   viewBox="0 0 128 128"
   width="128px"
   version="1.1"
   id="svg51"
   xmlns:xlink="http://www.w3.org/1999/xlink"
   xmlns="http://www.w3.org/2000/svg"
   xmlns:svg="http://www.w3.org/2000/svg">
  <defs
     id="defs55">
    <linearGradient
       id="linearGradient975">
      <stop
         style="stop-color:#77767b;stop-opacity:1"
         offset="0"
         id="stop971" />
      <stop
         style="stop-color:#241f31;stop-opacity:0;"
         offset="1"
         id="stop973" />
    </linearGradient>
    <linearGradient
       id="linearGradient2898">
      <stop
         style="stop-color:#000000;stop-opacity:1"
         offset="0"
         id="stop2894" />
      <stop
         style="stop-color:#c0bfbc;stop-opacity:1"
         offset="1"
         id="stop2896" />
    </linearGradient>
    <linearGradient
       xlink:href="#linearGradient2898"
       id="linearGradient2900"
       x1="65"
       y1="75"
       x2="65"
       y2="20"
       gradientUnits="userSpaceOnUse"
       gradientTransform="matrix(0.67307692,0,0,0.97938144,20.923077,3.3917526)" />
    <linearGradient
       xlink:href="#linearGradient975"
       id="linearGradient977"
       x1="45"
       y1="75"
       x2="45"
       y2="120"
       gradientUnits="userSpaceOnUse" />
    <linearGradient
       xlink:href="#linearGradient975"
       id="linearGradient1451"
       gradientUnits="userSpaceOnUse"
       x1="45"
       y1="75"
       x2="45"
       y2="120"
       gradientTransform="translate(20)" />
    <linearGradient
       xlink:href="#linearGradient975"
       id="linearGradient1474"
       gradientUnits="userSpaceOnUse"
       x1="45"
       y1="75"
       x2="45"
       y2="120"
       gradientTransform="translate(40)" />
  </defs>
  <linearGradient
     id="a"
     gradientTransform="matrix(0.1562501,0,0,0.32567129,15.156921,262.35532)"
     gradientUnits="userSpaceOnUse"
     x1="88.595886"
     x2="536.595886"
     y1="-449.394012"
     y2="-449.394012">
    <stop
       offset="0"
       stop-color="#77767b"
       id="stop2" />
    <stop
       offset="0.0384615"
       stop-color="#c0bfbc"
       id="stop4" />
    <stop
       offset="0.0768555"
       stop-color="#9a9996"
       id="stop6" />
    <stop
       offset="0.923077"
       stop-color="#9a9996"
       id="stop8" />
    <stop
       offset="0.961538"
       stop-color="#c0bfbc"
       id="stop10" />
    <stop
       offset="1"
       stop-color="#77767b"
       id="stop12" />
  </linearGradient>
  <filter
     id="b"
     height="1"
     width="1"
     x="0"
     y="0">
    <feColorMatrix
       in="SourceGraphic"
       type="matrix"
       values="0 0 0 0 1 0 0 0 0 1 0 0 0 0 1 0 0 0 1 0"
       id="feColorMatrix15" />
  </filter>
  <mask
     id="c">
    <g
       filter="url(#b)"
       id="g20">
      <rect
         fill-opacity="0.8"
         height="128"
         width="128"
         id="rect18" />
    </g>
  </mask>
  <linearGradient
     id="d"
     gradientUnits="userSpaceOnUse"
     x1="20.495266"
     x2="121.292053"
     y1="28.495239"
     y2="77.00975">
    <stop
       offset="0"
       stop-color="#ffffff"
       id="stop23" />
    <stop
       offset="0.511049"
       stop-color="#f6f5f4"
       stop-opacity="0.4"
       id="stop25" />
    <stop
       offset="1"
       stop-color="#ffffff"
       id="stop27" />
  </linearGradient>
  <clipPath
     id="e">
    <rect
       height="152"
       width="192"
       id="rect30" />
  </clipPath>
  <path
     id="rect2768"
     style="fill:url(#linearGradient2900);stroke-width:4;stroke-linecap:round;stroke-linejoin:round;stop-color:#000000"
     d="M 34.833333,22 H 93.166665 C 96.398335,22 99,24.676 99,28 v 56.556701 c 0,3.324 -2.601665,6 -5.833335,6 H 34.833333 c -3.231666,0 -5.833333,-2.676 -5.833333,-6 V 28 c 0,-3.324 2.601667,-6 5.833333,-6 z" />
  <path
     d="m 29,56 v 52.08039 C 29,112.46926 31.400467,116 34.384616,116 H 93.615385 C 96.599531,116 99,112.46926 99,108.08039 V 56 c 0,4.388861 -2.400469,7.919607 -5.384615,7.919607 H 34.384616 C 31.400467,63.919607 29,60.388861 29,56 Z"
     fill="url(#a)"
     id="path39"
     style="fill:url(#a);stroke-width:1.20185" />
  <path
     style="color:#000000;fill:#3d3846;stroke-linecap:round;stroke-linejoin:round;-inkscape-stroke:none"
     d="m 36,19 c -5.470806,0 -10,4.529194 -10,10 v 33 c 0,5.470806 4.529194,10 10,10 h 56 c 5.470806,0 10,-4.529194 10,-10 V 29 C 102,23.529194 97.470806,19 92,19 Z m 0,8 h 56 c 1.177188,0 2,0.822812 2,2 v 33 c 0,1.177188 -0.822812,2 -2,2 H 36 c -1.177188,0 -2,-0.822812 -2,-2 V 29 c 0,-1.177188 0.822812,-2 2,-2 z"
     id="rect868-3" />
  <path
     style="color:#000000;fill:#77767b;stroke-linecap:round;stroke-linejoin:round;-inkscape-stroke:none"
     d="m 36,16 c -5.470806,0 -10,4.529194 -10,10 v 33 c 0,5.470806 4.529194,10 10,10 h 56 c 5.470806,0 10,-4.529194 10,-10 V 26 C 102,20.529194 97.470806,16 92,16 Z m 0,8 h 56 c 1.177188,0 2,0.822812 2,2 v 33 c 0,1.177188 -0.822812,2 -2,2 H 36 c -1.177188,0 -2,-0.822812 -2,-2 V 26 c 0,-1.177188 0.822812,-2 2,-2 z"
     id="rect868" />
  <rect
     style="fill:url(#linearGradient977);stroke:none;stroke-width:1;stroke-linecap:round;stroke-linejoin:round;stop-color:#000000;fill-opacity:1"
     id="rect871"
     width="10"
     height="42"
     x="40"
     y="75" />
  <rect
     style="fill:url(#linearGradient1451);fill-opacity:1;stroke:none;stroke-width:1;stroke-linecap:round;stroke-linejoin:round;stop-color:#000000"
     id="rect871-7"
     width="10"
     height="42"
     x="60"
     y="75" />
  <rect
     style="fill:url(#linearGradient1474);fill-opacity:1;stroke:none;stroke-width:1;stroke-linecap:round;stroke-linejoin:round;stop-color:#000000"
     id="rect871-5"
     width="10"
     height="42"
     x="80"
     y="75" />
</svg>
