<svg xmlns="http://www.w3.org/2000/svg" xmlns:svg="http://www.w3.org/2000/svg" id="svg6" width="16" height="16" version="1.1" viewBox="0 0 16 16"><path id="path1011" style="color:#000;fill:#241f31;stroke-linecap:round;stroke-linejoin:round;-inkscape-stroke:none" d="M 8 1 C 4.1399329 1 1 4.1399329 1 8 C 1 11.694382 3.8768639 14.726756 7.5078125 14.980469 L 7.4960938 15 L 8 15 L 8.3984375 15 C 8.3984375 15 10.03753 15.0064 11.685547 14.128906 C 13.333564 13.251418 15.001953 11.406505 15.001953 8 C 15.001953 4.593495 13.333564 2.7485821 11.685547 1.8710938 C 10.03753 0.99360533 8.3984375 1 8.3984375 1 L 8.1210938 1 L 8.1191406 1.0039062 C 8.0792982 1.0032309 8.0399966 1 8 1 z M 8 2 A 6 6 0 0 1 8.7167969 2.0449219 C 8.7167969 2.0449219 8.7167969 2.0429688 8.7167969 2.0429688 C 8.7384557 2.0455329 8.7596637 2.0499413 8.78125 2.0527344 A 6 6 0 0 1 8.9804688 2.0820312 C 9.0276802 2.089752 9.0742649 2.0986109 9.1210938 2.1074219 A 6 6 0 0 1 9.1699219 2.1152344 C 9.186301 2.1184572 9.2024196 2.1216447 9.21875 2.125 C 9.2988992 2.1414676 9.3780986 2.1600704 9.4570312 2.1796875 C 9.5520461 2.2033015 9.6470913 2.2297443 9.7402344 2.2578125 A 6 6 0 0 1 9.7421875 2.2578125 C 9.744169 2.2584103 9.7460662 2.2591658 9.7480469 2.2597656 C 10.318241 2.4324344 10.850075 2.6880324 11.333984 3.0117188 C 11.491583 3.1171357 11.644496 3.2301055 11.791016 3.3496094 A 6 6 0 0 1 11.806641 3.3613281 C 11.81272 3.3663196 11.818159 3.3719382 11.824219 3.3769531 C 11.894003 3.4347104 11.962233 3.4938737 12.029297 3.5546875 C 12.142192 3.6570618 12.250638 3.764334 12.355469 3.875 L 3.0195312 11.34375 C 2.6815956 10.840966 2.4161237 10.285609 2.2421875 9.6894531 C 2.1632083 9.4187566 2.1010393 9.1406765 2.0605469 8.8554688 A 6 6 0 0 1 2.0605469 8.8515625 C 2.0212664 8.5736073 2 8.2889912 2 8 C 2 7.7157575 2.0205619 7.4356662 2.0585938 7.1621094 A 6 6 0 0 1 2.0625 7.1386719 C 2.2292813 5.9726485 2.7297206 4.9177256 3.4648438 4.0703125 C 3.6514317 3.8552231 3.8532084 3.6533334 4.0683594 3.4667969 A 6 6 0 0 1 4.0722656 3.4628906 C 4.2872429 3.2768492 4.5156791 3.107448 4.7558594 2.953125 C 4.9953204 2.7992641 5.2465192 2.6620909 5.5078125 2.5429688 C 5.7614511 2.4273362 6.0236967 2.3279704 6.2949219 2.2480469 A 6 6 0 0 1 6.328125 2.2382812 C 6.5793168 2.1658358 6.8378752 2.1097672 7.1015625 2.0703125 A 6 6 0 0 1 7.203125 2.0566406 C 7.3323479 2.0395491 7.4620388 2.0244 7.59375 2.015625 C 7.5920459 2.0197181 7.5896009 2.0251737 7.5878906 2.0292969 A 6 6 0 0 1 8 2 z M 12.984375 4.6542969 C 13.016 4.7036632 13.045823 4.7546196 13.076172 4.8046875 A 6 6 0 0 1 14 8 A 6 6 0 0 1 13.978516 8.3027344 C 13.973042 8.4401045 13.963996 8.5776939 13.949219 8.7148438 A 6 6 0 0 1 13.919922 8.9433594 C 13.902917 9.059456 13.883256 9.1756293 13.859375 9.2910156 C 13.858275 9.2961656 13.858548 9.3014966 13.857422 9.3066406 C 13.828727 9.4363772 13.79473 9.5630581 13.757812 9.6894531 C 13.595422 10.24545 13.352881 10.768254 13.046875 11.244141 C 12.897208 11.476896 12.732263 11.697142 12.552734 11.90625 A 6 6 0 0 1 12.523438 11.941406 C 12.341598 12.149966 12.146298 12.345767 11.9375 12.527344 A 6 6 0 0 1 11.929688 12.535156 C 11.928299 12.536359 11.92717 12.537861 11.925781 12.539062 C 11.711655 12.724241 11.483257 12.893155 11.244141 13.046875 C 11.004658 13.200831 10.753526 13.337836 10.492188 13.457031 C 10.248508 13.568172 9.9963079 13.662009 9.7363281 13.740234 A 6 6 0 0 1 9.6582031 13.763672 C 9.4921939 13.811148 9.3239599 13.855426 9.1523438 13.888672 C 9.1545251 13.884189 9.1579456 13.877586 9.1601562 13.873047 A 6 6 0 0 1 8.1074219 13.992188 C 8.106674 13.993634 8.1062106 13.996612 8.1054688 13.998047 C 8.070168 13.998656 8.0354488 14 8 14 C 7.7110087 14 7.4263928 13.978734 7.1484375 13.939453 C 7.1471611 13.939273 7.1458074 13.939634 7.1445312 13.939453 C 6.8593233 13.898961 6.5812434 13.836793 6.3105469 13.757812 C 5.4724373 13.513284 4.7121567 13.09146 4.0703125 12.535156 C 3.9211137 12.405842 3.78008 12.268116 3.6445312 12.125 L 12.984375 4.6542969 z"/></svg>