<svg xmlns="http://www.w3.org/2000/svg" xmlns:svg="http://www.w3.org/2000/svg" id="svg13986" width="16" height="16" version="1.1"><metadata id="metadata13991"/><path id="path1021" style="color:#000;fill:#241f31;stroke-linecap:round;stroke-linejoin:round;-inkscape-stroke:none" d="M 6.4511719 1.0019531 A 0.50005 0.50005 0 0 0 6.3085938 1.0371094 A 0.50005 0.50005 0 0 0 6 1.5 L 6 6 L 4.7070312 6 L 1.8535156 3.1464844 A 0.50005 0.50005 0 0 0 1.3085938 3.0371094 A 0.50005 0.50005 0 0 0 1 3.5 L 1 4.5 L 1 9.5 A 0.50005 0.50005 0 0 0 1.5 10 L 6 10 L 6 14.5 A 0.50005 0.50005 0 0 0 6.8535156 14.853516 L 8.8535156 12.853516 A 0.50005 0.50005 0 0 0 9 12.5 L 9 10 L 14.5 10 A 0.50005 0.50005 0 0 0 15 9.5 C 15 9.5 15.0069 8.6446467 14.572266 7.7753906 C 14.137638 6.9061345 13.166665 6 11.5 6 L 9 6 L 9 3.5 A 0.50005 0.50005 0 0 0 8.8535156 3.1464844 L 6.8535156 1.1464844 A 0.50005 0.50005 0 0 0 6.4511719 1.0019531 z M 7 2.7070312 L 8 3.7070312 L 8 6 L 7 6 L 7 2.7070312 z M 2 4.7070312 L 4.1464844 6.8535156 A 0.50005 0.50005 0 0 0 4.5 7 L 11.5 7 C 12.833332 7 13.362363 7.5919138 13.677734 8.2226562 C 13.86961 8.6064081 13.841641 8.7539785 13.873047 9 L 8.5 9 L 8 9 L 8 10 L 8 11 L 8 12.292969 L 7 13.292969 L 7 11 L 7 10 L 7 9 L 6.5 9 L 2 9 L 2 4.7070312 z"/></svg>