<svg xmlns="http://www.w3.org/2000/svg" xmlns:svg="http://www.w3.org/2000/svg" id="svg4" width="16" height="16" version="1.1" viewBox="0 0 16 16"><path id="path1" d="M 8 1 A 7 7 0 0 0 1 8 A 7 7 0 0 0 8 15 A 7 7 0 0 0 15 8 A 7 7 0 0 0 8 1 z M 7.5 4 A 0.5 0.5 0 0 1 8 4.5 L 8 8 L 11.5 8 A 0.5 0.5 0 0 1 12 8.5 A 0.5 0.5 0 0 1 11.5 9 L 7.5 9 A 0.50005 0.50005 0 0 1 7 8.5 L 7 4.5 A 0.5 0.5 0 0 1 7.5 4 z" style="fill:#241f31;fill-opacity:1;stroke:none;stroke-width:1.10939;stroke-linecap:round;stroke-linejoin:round"/><path style="color:#000;fill:#241f31;stroke-linecap:round;stroke-linejoin:round;-inkscape-stroke:none" id="path858" d="M 2.5,0 A 0.5,0.5 0 0 0 2.1464844,0.14648437 L 0.14648437,2.1464844 a 0.5,0.5 0 0 0 0,0.7070312 0.5,0.5 0 0 0 0.70703126,0 L 2.8535156,0.85351563 a 0.5,0.5 0 0 0 0,-0.70703126 A 0.5,0.5 0 0 0 2.5,0 Z"/><path style="color:#000;fill:#241f31;stroke-linecap:round;stroke-linejoin:round;-inkscape-stroke:none" id="path860" d="m 13.146484,0.14648437 a 0.5,0.5 0 0 0 0,0.70703126 l 2,1.99999997 a 0.5,0.5 0 0 0 0.707032,0 0.5,0.5 0 0 0 0,-0.7070312 l -2,-2.00000003 a 0.5,0.5 0 0 0 -0.707032,0 z"/></svg>