<?xml version="1.0" encoding="UTF-8" standalone="no"?>
<svg
   id="svg4"
   width="16"
   height="16"
   version="1.1"
   viewBox="0 0 16 16"
   sodipodi:docname="alarm-filled-symbolic.svg"
   inkscape:version="1.4.2 (ebf0e940d0, 2025-05-08)"
   xmlns:inkscape="http://www.inkscape.org/namespaces/inkscape"
   xmlns:sodipodi="http://sodipodi.sourceforge.net/DTD/sodipodi-0.dtd"
   xmlns="http://www.w3.org/2000/svg"
   xmlns:svg="http://www.w3.org/2000/svg">
  <defs
     id="defs1" />
  <sodipodi:namedview
     id="namedview1"
     pagecolor="#ffffff"
     bordercolor="#111111"
     borderopacity="1"
     inkscape:showpageshadow="0"
     inkscape:pageopacity="0"
     inkscape:pagecheckerboard="1"
     inkscape:deskcolor="#d1d1d1"
     inkscape:zoom="33.234019"
     inkscape:cx="7.402054"
     inkscape:cy="5.7471232"
     inkscape:window-width="2560"
     inkscape:window-height="955"
     inkscape:window-x="0"
     inkscape:window-y="0"
     inkscape:window-maximized="1"
     inkscape:current-layer="svg4" />
  <path
     id="path1"
     style="fill:#241f31;fill-opacity:1;stroke:none;stroke-width:1.10939;stroke-linecap:round;stroke-linejoin:round"
     d="M 8 1 A 7 7 0 0 0 1 8 A 7 7 0 0 0 8 15 A 7 7 0 0 0 15 8 A 7 7 0 0 0 8 1 z M 7.5 4 A 0.5 0.5 0 0 1 8 4.5 L 8 8 L 11.5 8 A 0.5 0.5 0 0 1 12 8.5 A 0.5 0.5 0 0 1 11.5 9 L 7.5 9 A 0.50005 0.50005 0 0 1 7 8.5 L 7 4.5 A 0.5 0.5 0 0 1 7.5 4 z " />
  <path
     style="color:#000;fill:#241f31;stroke-linecap:round;stroke-linejoin:round;-inkscape-stroke:none"
     id="path858"
     d="M 2.5,0 A 0.5,0.5 0 0 0 2.1464844,0.14648437 L 0.14648437,2.1464844 a 0.5,0.5 0 0 0 0,0.7070312 0.5,0.5 0 0 0 0.70703126,0 L 2.8535156,0.85351563 a 0.5,0.5 0 0 0 0,-0.70703126 A 0.5,0.5 0 0 0 2.5,0 Z" />
  <path
     style="color:#000;fill:#241f31;stroke-linecap:round;stroke-linejoin:round;-inkscape-stroke:none"
     id="path860"
     d="m 13.146484,0.14648437 a 0.5,0.5 0 0 0 0,0.70703126 l 2,1.99999997 a 0.5,0.5 0 0 0 0.707032,0 0.5,0.5 0 0 0 0,-0.7070312 l -2,-2.00000003 a 0.5,0.5 0 0 0 -0.707032,0 z" />
</svg>
