<svg xmlns="http://www.w3.org/2000/svg" xmlns:svg="http://www.w3.org/2000/svg" id="svg10" width="16" height="16" version="1.1"><metadata id="metadata2"/><g id="g6" fill="#363636" stroke-linecap="round" stroke-linejoin="round" stroke-width="2.001" style="fill:#241f31;paint-order:stroke fill markers" aria-label="" transform="matrix(-1,0,0,1,16.0006,0)"><path id="path4" fill="#363636" stroke-width="2.001" d="m 8.8328,5.1704 c 0.37518,0.37518 0.66438,0.80768 0.86761,1.2975 0.20323,0.48982 0.30484,1.0005 0.30484,1.532 0,0.53151 -0.10161,1.0422 -0.30484,1.532 -0.20323,0.48982 -0.49243,0.92232 -0.86761,1.2975 L 8.12933,10.12593 C 8.41072,9.84454 8.62697,9.52147 8.77808,9.15671 8.92919,8.78674 9.00475,8.40114 9.00475,7.99991 9.00475,7.59867 8.929193,7.21567 8.77808,6.85091 8.62697,6.48094 8.41072,6.15526 8.12933,5.87387 Z M 5.292,1.997 H 6.00328 V 14.003 H 5.292 L 2.2905,11.0015 H 3e-4 V 4.9986 H 2.2905 Z M 5.0028,3.7088 2.7126,5.999 H 1.0008 v 4.0019 h 1.7118 l 2.2902,2.2902 z" style="fill:#241f31"/></g><path id="path8" fill="#363636" stroke-width="2.001" d="M 2.9236,0.92624 C 2.45462,1.39522 2.04035,1.90329 1.6808,2.45044 1.31604,2.99758 1.0086,3.57334 0.75848,4.17784 0.50836,4.77709 0.32077,5.39984 0.19571,6.04594 0.06544,6.68688 3e-4,7.33824 3e-4,8.00004 c 0,0.66178 0.06514,1.3157 0.19541,1.9619 0.12506,0.64094 0.31265,1.2636 0.56277,1.8681 0.25012,0.59925 0.55756,1.1725 0.92232,1.7196 0.35955,0.54714 0.77381,1.0552 1.2428,1.5242 L 3.62707,14.37037 C 3.20499,13.94829 2.83242,13.49232 2.50937,13.00247 2.18108,12.50744 1.90491,11.98897 1.68084,11.44707 1.45677,10.90517 1.28742,10.34497 1.17278,9.76657 1.05293,9.18295 0.993,8.59407 0.993,8.00007 0.993,7.40603 1.05293,6.81977 1.17278,6.24137 1.28742,5.65775 1.45677,5.09497 1.68084,4.55307 1.90491,4.01114 2.18108,3.49527 2.50937,3.00547 2.83244,2.51044 3.20501,2.05187 3.62707,1.62977 Z m 2.1182,2.1182 C 4.71351,3.37273 4.42431,3.72966 4.17419,4.11524 3.91886,4.49563 3.70521,4.89687 3.53325,5.31894 3.35608,5.74102 3.2232,6.17872 3.13462,6.63204 3.04083,7.08539 2.99393,7.54135 2.99393,7.99994 c 0,0.46377 0.0469,0.92233 0.14069,1.3757 0.08859,0.44813 0.22146,0.88323 0.39863,1.3053 0.17196,0.42208 0.38561,0.82591 0.64094,1.2115 0.25012,0.38039 0.53932,0.73473 0.86761,1.063 L 5.75308,12.24416 C 5.19031,11.68139 4.75781,11.03266 4.45558,10.29786 4.14814,9.56313 3.99442,8.79716 3.99442,7.99986 c 0,-0.7973 0.15372,-1.5633 0.46116,-2.298 0.30223,-0.73473 0.73473,-1.3835 1.2975,-1.9463 z" opacity=".35" style="fill:#241f31;paint-order:stroke fill markers"/></svg>