<?xml version="1.0" encoding="UTF-8" standalone="no"?>
<svg
   height="16px"
   viewBox="0 0 16 16"
   width="16px"
   version="1.1"
   id="svg4"
   xmlns="http://www.w3.org/2000/svg"
   xmlns:svg="http://www.w3.org/2000/svg">
  <defs
     id="defs8" />
  <path
     id="path935"
     style="fill:#e01b24;fill-opacity:1;stroke-width:0.999999"
     d="m 5.8093039,6.5957031 c 0.060122,-9.514e-4 0.122587,0.00827 0.1875,0.025391 0.4275489,0.112734 0.5911589,0.6475083 0.300781,0.984375 C 6.0231165,7.9238805 6.032478,8.2187114 6.3268818,8.5742188 6.5913385,8.8935615 6.4371368,9.3927339 6.0358661,9.515625 5.8795479,9.5634979 5.6930979,9.551387 5.5593039,9.484375 5.4205169,9.4148616 5.1619069,9.1102318 5.0456319,8.8789062 4.7080139,8.207228 4.8147289,7.4121742 5.3151629,6.8554688 5.4690409,6.6842862 5.6289369,6.5985574 5.8093039,6.5957031 Z" />
  <path
     id="path1183"
     style="fill:#e01b24;fill-opacity:1;stroke-width:0.999999"
     d="m 4.1081319,4.8808594 c 0.176523,0.014588 0.344296,0.097779 0.439453,0.234375 0.194369,0.2790161 0.165645,0.5438518 -0.087891,0.8261718 -0.384614,0.4282793 -0.647669,0.9019818 -0.779296,1.4003907 -0.06125,0.2319769 -0.072213,0.347747 -0.070313,0.734375 0.00194,0.3908636 0.014361,0.5041068 0.082031,0.7519531 0.138503,0.5072753 0.377757,0.9390331 0.71875,1.300781 0.221336,0.234804 0.285156,0.357609 0.285156,0.550782 1e-6,0.241871 -0.118612,0.433422 -0.33789,0.546874 -0.13398,0.06932 -0.406831,0.06496 -0.564453,-0.0098 -0.230396,-0.109215 -0.701695,-0.690121 -0.960938,-1.183594 -0.762066,-1.4506026 -0.619354,-3.2004954 0.369141,-4.5156249 0.222838,-0.2964723 0.451095,-0.5227235 0.591797,-0.5859375 0.098279,-0.044154 0.208539,-0.059534 0.314453,-0.050781 z" />
  <path
     id="path1181"
     style="fill:#e01b24;fill-opacity:1;stroke-width:0.999999"
     d="m 2.3542259,3.2519531 c 0.362976,-0.00194 0.642578,0.2629325 0.642578,0.6113281 0,0.1978063 -0.053476,0.2971172 -0.3125,0.5820313 -0.817077,0.898742 -1.274783,1.8985796 -1.40625,3.0703125 -0.157627,1.4049023 0.300088,2.88104 1.234375,3.976563 0.107788,0.126389 0.241405,0.271715 0.296875,0.322265 0.114472,0.104325 0.249813,0.360155 0.25,0.474609 4.22e-4,0.24599 -0.189324,0.51605 -0.421875,0.59961 -0.161281,0.05795 -0.365607,0.03451 -0.53125,-0.06055 -0.197274,-0.113206 -0.689697,-0.671614 -1.003907,-1.138672 -1.69334795,-2.5170963 -1.41030995,-5.9044948 0.675782,-8.0839842 0.237449,-0.24808 0.408621,-0.3526179 0.576172,-0.3535157 z" />
  <path
     id="path1179"
     style="fill:#e01b24;stroke-width:0.999999"
     d="m 9.5475849,2 c 0.4621011,0.011583 0.9187051,0.1824736 1.2500001,0.4824219 0.103393,0.09361 0.568852,0.6130855 1.033203,1.1523437 0.464351,0.5392583 0.90901,1.0471479 0.988281,1.1289063 0.271433,0.2799507 0.489208,0.3666781 0.988282,0.3984375 0.589436,0.03751 1.045757,0.2352797 1.482421,0.6425781 0.320706,0.2991373 0.549563,0.6879327 0.664063,1.125 0.06235,0.238001 0.06235,2.0862177 0,2.3242187 -0.221809,0.8466828 -0.887236,1.5031638 -1.742188,1.7167968 -0.07057,0.01763 -0.293741,0.0444 -0.496093,0.06055 -0.304949,0.02434 -0.401279,0.04614 -0.560547,0.121094 -0.105683,0.04974 -0.229893,0.122646 -0.275391,0.162109 -0.0455,0.03946 -0.438824,0.457837 -0.873047,0.929688 -1.381708,1.501443 -1.473759,1.575377 -2.1113279,1.714843 C 9.4833198,14.04909 9.0328943,13.988634 8.6003193,13.785156 8.0861177,13.54328 7.6688799,13.017508 7.549538,12.458984 7.510619,12.276606 7.502663,11.608478 7.502663,8 7.502663,3.2635631 7.4911604,3.5344816 7.7253193,3.0664062 7.9797211,2.5578659 8.4945777,2.1714876 9.0886005,2.0429688 9.2396662,2.010285 9.3935513,1.9961389 9.5475849,2 Z m 0.00586,1.2265625 C 9.2628193,3.2087301 8.9692322,3.3587449 8.8327411,3.6269531 l -0.078125,0.15625 V 8 12.216797 l 0.078125,0.15625 c 0.088851,0.174594 0.2312381,0.294118 0.4257813,0.361328 0.071275,0.02463 0.1868315,0.04437 0.2578125,0.04297 0.3041686,-0.0057 0.354932,-0.04779 1.4550781,-1.234375 0.564369,-0.608714 1.101943,-1.164585 1.195313,-1.234375 0.390277,-0.291694 0.851702,-0.4527001 1.427734,-0.4980471 0.556175,-0.043778 0.849787,-0.2154209 1.048828,-0.6113281 l 0.103516,-0.203125 V 8.0917969 7.1875 L 14.662819,7.015625 C 14.548226,6.776312 14.38264,6.6077109 14.151101,6.4960938 13.985483,6.4162553 13.897365,6.3961213 13.604226,6.3730469 13.412186,6.3579301 13.167593,6.325237 13.061257,6.2988281 12.773626,6.2273941 12.382889,6.0265489 12.147194,5.8300781 12.030825,5.7330751 11.500075,5.1491749 10.947976,4.5097656 10.23003,3.6782823 9.9243337,3.3447023 9.8366474,3.3007812 9.7461362,3.2554443 9.6503193,3.2325066 9.5534443,3.2265625 Z" />
</svg>
