<?xml version="1.0" encoding="UTF-8" standalone="no"?>
<svg
   height="16px"
   viewBox="0 0 16 16"
   width="16px"
   version="1.1"
   id="svg4"
   xmlns="http://www.w3.org/2000/svg"
   xmlns:svg="http://www.w3.org/2000/svg">
  <defs
     id="defs8" />
  <path
     id="path935"
     style="fill:#241f31;stroke-width:0.999999"
     d="M 10.191406 6.5957031 C 10.131284 6.5947517 10.068819 6.6039778 10.003906 6.6210938 C 9.5763571 6.7338278 9.4127471 7.2686021 9.703125 7.6054688 C 9.9775934 7.9238805 9.9682319 8.2187114 9.6738281 8.5742188 C 9.4093714 8.8935615 9.5635731 9.3927339 9.9648438 9.515625 C 10.121162 9.5634979 10.307612 9.551387 10.441406 9.484375 C 10.580193 9.4148616 10.838803 9.1102318 10.955078 8.8789062 C 11.292696 8.207228 11.185981 7.4121742 10.685547 6.8554688 C 10.531669 6.6842862 10.371773 6.5985574 10.191406 6.5957031 z " />
  <path
     id="path1183"
     style="fill:#241f31;stroke-width:0.999999"
     d="M 11.892578 4.8808594 C 11.716055 4.8954473 11.548282 4.9786386 11.453125 5.1152344 C 11.258756 5.3942505 11.28748 5.6590862 11.541016 5.9414062 C 11.92563 6.3696855 12.188685 6.843388 12.320312 7.3417969 C 12.381562 7.5737738 12.392525 7.6895439 12.390625 8.0761719 C 12.388685 8.4670355 12.376264 8.5802787 12.308594 8.828125 C 12.170091 9.3354003 11.930837 9.7671581 11.589844 10.128906 C 11.368508 10.36371 11.304688 10.486515 11.304688 10.679688 C 11.304687 10.921559 11.4233 11.11311 11.642578 11.226562 C 11.776558 11.295883 12.049409 11.291517 12.207031 11.216797 C 12.437427 11.107582 12.908726 10.526676 13.167969 10.033203 C 13.930035 8.5826004 13.787323 6.8327076 12.798828 5.5175781 C 12.57599 5.2211058 12.347733 4.9948546 12.207031 4.9316406 C 12.108752 4.8874862 11.998492 4.8721066 11.892578 4.8808594 z " />
  <path
     id="path1181"
     style="fill:#241f31;stroke-width:0.999999"
     d="M 13.646484 3.2519531 C 13.283508 3.2500118 13.003906 3.5148856 13.003906 3.8632812 C 13.003906 4.0610875 13.057382 4.1603984 13.316406 4.4453125 C 14.133483 5.3440545 14.591189 6.3438921 14.722656 7.515625 C 14.880283 8.9205273 14.422568 10.396665 13.488281 11.492188 C 13.380493 11.618577 13.246876 11.763903 13.191406 11.814453 C 13.076934 11.918778 12.941593 12.174608 12.941406 12.289062 C 12.940984 12.535052 13.13073 12.805112 13.363281 12.888672 C 13.524562 12.946626 13.728888 12.923185 13.894531 12.828125 C 14.091805 12.714919 14.584228 12.156511 14.898438 11.689453 C 16.591786 9.1723567 16.308748 5.7849582 14.222656 3.6054688 C 13.985207 3.3573888 13.814035 3.2528509 13.646484 3.2519531 z " />
  <path
     id="path1179"
     style="fill:#241f31;stroke-width:1"
     d="M 6.0749466,2.0006203 C 5.6399271,2.0122037 5.2100823,2.1830939 4.8982028,2.4830422 4.8008687,2.576652 4.3626879,3.0961277 3.9255505,3.6353859 3.4884129,4.1746442 3.0698131,4.6825338 2.9951873,4.7642922 2.7396619,5.0442429 2.5346493,5.1309703 2.0648243,5.1627297 c -0.554893,0.03751 -0.9844708,0.2352797 -1.39554465,0.6425781 -0.30191043,0.2991373 -0.51735547,0.6879327 -0.62514516,1.125 -0.05869584,0.238001 -0.05869584,2.0862177 0,2.3242187 0.2088096,0.8466825 0.83523911,1.5031635 1.64008671,1.7167965 0.066438,0.01763 0.2765269,0.0444 0.4670202,0.06055 0.2870771,0.02434 0.3777619,0.04614 0.527696,0.121094 0.09949,0.04974 0.2164196,0.122646 0.2592515,0.162109 0.04283,0.03946 0.4131064,0.457837 0.8218819,0.929688 1.3007337,1.501443 1.38739,1.575377 1.987594,1.714843 0.3877806,0.09011 0.811809,0.02965 1.219033,-0.173828 0.4840668,-0.241879 0.8768524,-0.767651 0.9892003,-1.326175 0.036638,-0.182378 0.044128,-0.850506 0.044128,-4.4589837 0,-4.7364369 0.010829,-4.4655184 -0.2096076,-4.9335938 C 7.5509258,2.5584862 7.0662424,2.1721079 6.5070322,2.0435891 6.3648197,2.0109053 6.2199531,1.9967592 6.0749466,2.0006203 Z M 6.06943,3.2271828 c 0.273593,-0.017832 0.5499744,0.1321824 0.6784665,0.4003906 l 0.073546,0.15625 v 4.2167969 4.2167967 l -0.073546,0.15625 C 6.6642526,12.548261 6.53021,12.667785 6.347068,12.734995 6.2799701,12.759625 6.1711858,12.779365 6.1043646,12.777965 5.8180224,12.772262 5.770234,12.730178 4.7345619,11.543589 4.2032679,10.934875 3.6971986,10.379004 3.6093006,10.309214 3.2418949,10.01752 2.8075119,9.8565142 2.2652385,9.8111672 1.7416577,9.7673892 1.465253,9.5957463 1.2778769,9.1998391 L 1.1804277,8.9967141 V 8.0924172 7.1881203 l 0.079062,-0.171875 C 1.3673682,6.7769323 1.5232496,6.6083312 1.7412198,6.4967141 1.8971309,6.4168756 1.9800851,6.3967416 2.2560452,6.3736672 2.4368306,6.3585504 2.6670889,6.3258573 2.7671932,6.2994484 3.0379671,6.2280144 3.4058051,6.0271692 3.6276871,5.8306984 3.7372364,5.7336954 4.2368824,5.1497952 4.7566258,4.5103859 5.4324962,3.6789026 5.7202771,3.3453226 5.8028246,3.3014015 5.8880314,3.2560646 5.9782329,3.2331269 6.06943,3.2271828 Z" />
</svg>
