<svg xmlns="http://www.w3.org/2000/svg" xmlns:svg="http://www.w3.org/2000/svg" id="svg6" width="16" height="16" version="1.1"><g id="g4" fill="#363636" stroke-linecap="round" stroke-linejoin="round" stroke-width="2.001" style="fill:#241f31;paint-order:stroke fill markers" aria-label="" transform="matrix(-1,0,0,1,16.0006,0)"><path id="path2" fill="#363636" stroke-width="2.001" d="m 13.077,0.92624 q 0.70347,0.70347 1.2428,1.5242 0.54714,0.82071 0.92232,1.7274 0.37518,0.89888 0.56277,1.8681 0.19541,0.96141 0.19541,1.9541 0,0.99267 -0.19541,1.9619 -0.18759,0.96141 -0.56277,1.8681 -0.37518,0.89888 -0.92232,1.7196 -0.53932,0.82071 -1.2428,1.5242 l -0.70347,-0.70347 q 0.63312,-0.63312 1.1177,-1.3679 0.49243,-0.74255 0.82853,-1.5554 0.3361,-0.81285 0.50806,-1.6805 0.17978,-0.87543 0.17978,-1.7665 0,-0.89106 -0.17978,-1.7587 -0.17196,-0.87543 -0.50806,-1.6883 -0.3361,-0.8129 -0.82853,-1.5476 -0.48461,-0.74255 -1.1177,-1.3757 z m -2.1182,2.1182 q 0.49243,0.49243 0.86761,1.0708 0.383,0.57059 0.64094,1.2037 0.26576,0.63312 0.39863,1.3131 0.14069,0.68002 0.14069,1.3679 0,0.69565 -0.14069,1.3757 -0.13288,0.6722 -0.39863,1.3053 -0.25794,0.63312 -0.64094,1.2115 -0.37518,0.57059 -0.86761,1.063 l -0.71128,-0.71128 q 0.84416,-0.84416 1.2975,-1.9463 0.46116,-1.1021 0.46116,-2.298 0,-1.1959 -0.46116,-2.298 -0.45335,-1.1021 -1.2975,-1.9463 z m -2.126,2.126 q 0.56277,0.56277 0.86761,1.2975 0.30484,0.73473 0.30484,1.532 0,0.79726 -0.30484,1.532 -0.30484,0.73473 -0.86761,1.2975 L 8.12933,10.12597 Q 8.55141,9.70389 8.77808,9.15675 9.00475,8.60179 9.00475,7.99995 q 0,-0.60186 -0.22667,-1.149 Q 8.55141,6.29599 8.12933,5.87391 Z M 5.292,1.99704 h 0.71128 v 12.006 H 5.292 L 2.2905,11.00154 H 3e-4 V 4.99864 H 2.2905 Z M 5.0028,3.70884 2.7126,5.99904 H 1.0008 v 4.0019 h 1.7118 l 2.2902,2.2902 z" style="fill:#241f31"/></g></svg>