<?xml version="1.0" encoding="UTF-8" standalone="no"?>
<svg
   height="16px"
   viewBox="0 0 16 16"
   width="16px"
   version="1.1"
   id="svg4"
   xmlns="http://www.w3.org/2000/svg"
   xmlns:svg="http://www.w3.org/2000/svg">
  <defs
     id="defs8" />
  <path
     id="path935"
     style="fill:#241f31;stroke-width:0.999999"
     d="M 10.191406 6.5957031 C 10.131284 6.5947517 10.068819 6.6039778 10.003906 6.6210938 C 9.5763571 6.7338278 9.4127471 7.2686021 9.703125 7.6054688 C 9.9775934 7.9238805 9.9682319 8.2187114 9.6738281 8.5742188 C 9.4093714 8.8935615 9.5635731 9.3927339 9.9648438 9.515625 C 10.121162 9.5634979 10.307612 9.551387 10.441406 9.484375 C 10.580193 9.4148616 10.838803 9.1102318 10.955078 8.8789062 C 11.292696 8.207228 11.185981 7.4121742 10.685547 6.8554688 C 10.531669 6.6842862 10.371773 6.5985574 10.191406 6.5957031 z " />
  <path
     id="path1183"
     style="fill:#241f31;stroke-width:0.999999"
     d="M 11.892578 4.8808594 C 11.716055 4.8954473 11.548282 4.9786386 11.453125 5.1152344 C 11.258756 5.3942505 11.28748 5.6590862 11.541016 5.9414062 C 11.92563 6.3696855 12.188685 6.843388 12.320312 7.3417969 C 12.381562 7.5737738 12.392525 7.6895439 12.390625 8.0761719 C 12.388685 8.4670355 12.376264 8.5802787 12.308594 8.828125 C 12.170091 9.3354003 11.930837 9.7671581 11.589844 10.128906 C 11.368508 10.36371 11.304688 10.486515 11.304688 10.679688 C 11.304687 10.921559 11.4233 11.11311 11.642578 11.226562 C 11.776558 11.295883 12.049409 11.291517 12.207031 11.216797 C 12.437427 11.107582 12.908726 10.526676 13.167969 10.033203 C 13.930035 8.5826004 13.787323 6.8327076 12.798828 5.5175781 C 12.57599 5.2211058 12.347733 4.9948546 12.207031 4.9316406 C 12.108752 4.8874862 11.998492 4.8721066 11.892578 4.8808594 z " />
  <path
     id="path1181"
     style="fill:#241f31;stroke-width:0.999999"
     d="M 13.646484 3.2519531 C 13.283508 3.2500118 13.003906 3.5148856 13.003906 3.8632812 C 13.003906 4.0610875 13.057382 4.1603984 13.316406 4.4453125 C 14.133483 5.3440545 14.591189 6.3438921 14.722656 7.515625 C 14.880283 8.9205273 14.422568 10.396665 13.488281 11.492188 C 13.380493 11.618577 13.246876 11.763903 13.191406 11.814453 C 13.076934 11.918778 12.941593 12.174608 12.941406 12.289062 C 12.940984 12.535052 13.13073 12.805112 13.363281 12.888672 C 13.524562 12.946626 13.728888 12.923185 13.894531 12.828125 C 14.091805 12.714919 14.584228 12.156511 14.898438 11.689453 C 16.591786 9.1723567 16.308748 5.7849582 14.222656 3.6054688 C 13.985207 3.3573888 13.814035 3.2528509 13.646484 3.2519531 z " />
  <path
     id="path1179"
     style="fill:#241f31;stroke-width:0.999999"
     d="M 6.453125 2 C 5.9910241 2.0115834 5.5344201 2.1824736 5.203125 2.4824219 C 5.0997316 2.5760317 4.6342726 3.0955074 4.1699219 3.6347656 C 3.7055711 4.1740239 3.2609121 4.6819135 3.1816406 4.7636719 C 2.9102079 5.0436226 2.6924326 5.13035 2.1933594 5.1621094 C 1.6039225 5.1996191 1.1476021 5.3973891 0.7109375 5.8046875 C 0.39023215 6.1038248 0.16137495 6.4926202 0.046875 6.9296875 C -0.01547485 7.1676885 -0.01547485 9.0159052 0.046875 9.2539062 C 0.26868368 10.100589 0.93411049 10.75707 1.7890625 10.970703 C 1.8596369 10.988332 2.0828041 11.015102 2.2851562 11.03125 C 2.5901048 11.055586 2.6864351 11.077387 2.8457031 11.152344 C 2.9513864 11.202085 3.0755955 11.27499 3.1210938 11.314453 C 3.16659 11.353912 3.5599175 11.77229 3.9941406 12.244141 C 5.3758492 13.745584 5.4679002 13.819518 6.1054688 13.958984 C 6.5173901 14.04909 6.9678156 13.988634 7.4003906 13.785156 C 7.9145922 13.54328 8.33183 13.017508 8.4511719 12.458984 C 8.4900909 12.276606 8.4980469 11.608478 8.4980469 8 C 8.4980469 3.2635631 8.5095495 3.5344816 8.2753906 3.0664062 C 8.0209888 2.5578659 7.5061322 2.1714876 6.9121094 2.0429688 C 6.7610437 2.010285 6.6071586 1.9961389 6.453125 2 z M 6.4472656 3.2265625 C 6.7378906 3.2087301 7.0314777 3.3587449 7.1679688 3.6269531 L 7.2460938 3.7832031 L 7.2460938 8 L 7.2460938 12.216797 L 7.1679688 12.373047 C 7.0791179 12.547641 6.9367307 12.667165 6.7421875 12.734375 C 6.6709123 12.759005 6.555356 12.778744 6.484375 12.777344 C 6.1802064 12.771642 6.129443 12.729558 5.0292969 11.542969 C 4.4649281 10.934255 3.9273544 10.378384 3.8339844 10.308594 C 3.4437065 10.0169 2.9822817 9.8558939 2.40625 9.8105469 C 1.8500746 9.7667689 1.5564628 9.595126 1.3574219 9.1992188 L 1.2539062 8.9960938 L 1.2539062 8.0917969 L 1.2539062 7.1875 L 1.3378906 7.015625 C 1.4524844 6.776312 1.6180699 6.6077109 1.8496094 6.4960938 C 2.0152265 6.4162553 2.1033449 6.3961213 2.3964844 6.3730469 C 2.5885243 6.3579301 2.8331169 6.325237 2.9394531 6.2988281 C 3.2270835 6.2273941 3.6178207 6.0265489 3.8535156 5.8300781 C 3.9698846 5.7330751 4.5006353 5.1491749 5.0527344 4.5097656 C 5.7706799 3.6782823 6.0763762 3.3447023 6.1640625 3.3007812 C 6.2545737 3.2554443 6.3503906 3.2325066 6.4472656 3.2265625 z " />
</svg>
