<?xml version="1.0" encoding="UTF-8" standalone="no"?>
<svg
   height="16px"
   viewBox="0 0 16 16"
   width="16px"
   version="1.1"
   id="svg4"
   xmlns="http://www.w3.org/2000/svg"
   xmlns:svg="http://www.w3.org/2000/svg">
  <defs
     id="defs8" />
  <path
     id="path935"
     style="fill:#241f31;stroke-width:0.999999"
     d="m 5.8093039,6.5957031 c 0.060122,-9.514e-4 0.122587,0.00827 0.1875,0.025391 0.4275489,0.112734 0.5911589,0.6475083 0.300781,0.984375 C 6.0231165,7.9238805 6.032478,8.2187114 6.3268818,8.5742188 6.5913385,8.8935615 6.4371368,9.3927339 6.0358661,9.515625 5.8795479,9.5634979 5.6930979,9.551387 5.5593039,9.484375 5.4205169,9.4148616 5.1619069,9.1102318 5.0456319,8.8789062 4.7080139,8.207228 4.8147289,7.4121742 5.3151629,6.8554688 5.4690409,6.6842862 5.6289369,6.5985574 5.8093039,6.5957031 Z" />
  <path
     id="path1183"
     style="fill:#241f31;stroke-width:0.999999"
     d="m 4.1081319,4.8808594 c 0.176523,0.014588 0.344296,0.097779 0.439453,0.234375 0.194369,0.2790161 0.165645,0.5438518 -0.087891,0.8261718 -0.384614,0.4282793 -0.647669,0.9019818 -0.779296,1.4003907 -0.06125,0.2319769 -0.072213,0.347747 -0.070313,0.734375 0.00194,0.3908636 0.014361,0.5041068 0.082031,0.7519531 0.138503,0.5072753 0.377757,0.9390331 0.71875,1.300781 0.221336,0.234804 0.285156,0.357609 0.285156,0.550782 1e-6,0.241871 -0.118612,0.433422 -0.33789,0.546874 -0.13398,0.06932 -0.406831,0.06496 -0.564453,-0.0098 -0.230396,-0.109215 -0.701695,-0.690121 -0.960938,-1.183594 -0.762066,-1.4506026 -0.619354,-3.2004954 0.369141,-4.5156249 0.222838,-0.2964723 0.451095,-0.5227235 0.591797,-0.5859375 0.098279,-0.044154 0.208539,-0.059534 0.314453,-0.050781 z" />
  <path
     id="path1181"
     style="fill:#241f31;stroke-width:0.999999"
     d="m 2.3542259,3.2519531 c 0.362976,-0.00194 0.642578,0.2629325 0.642578,0.6113281 0,0.1978063 -0.053476,0.2971172 -0.3125,0.5820313 -0.817077,0.898742 -1.274783,1.8985796 -1.40625,3.0703125 -0.157627,1.4049023 0.300088,2.88104 1.234375,3.976563 0.107788,0.126389 0.241405,0.271715 0.296875,0.322265 0.114472,0.104325 0.249813,0.360155 0.25,0.474609 4.22e-4,0.24599 -0.189324,0.51605 -0.421875,0.59961 -0.161281,0.05795 -0.365607,0.03451 -0.53125,-0.06055 -0.197274,-0.113206 -0.689697,-0.671614 -1.003907,-1.138672 -1.69334795,-2.5170963 -1.41030995,-5.9044948 0.675782,-8.0839842 0.237449,-0.24808 0.408621,-0.3526179 0.576172,-0.3535157 z" />
  <path
     id="path1179"
     style="fill:#241f31;stroke-width:1"
     d="m 9.9257633,2.0006203 c 0.4350197,0.011583 0.8648647,0.1824736 1.1767437,0.4824219 0.09733,0.09361 0.535515,0.6130855 0.972652,1.1523437 0.437138,0.5392583 0.855738,1.0471479 0.930364,1.1289063 0.255525,0.2799507 0.460538,0.3666781 0.930363,0.3984375 0.554893,0.03751 0.98447,0.2352797 1.395544,0.6425781 0.301911,0.2991373 0.517356,0.6879327 0.625145,1.125 0.0587,0.238001 0.0587,2.0862177 0,2.3242187 -0.208809,0.8466825 -0.835239,1.5031635 -1.640086,1.7167965 -0.06644,0.01763 -0.276527,0.0444 -0.46702,0.06055 -0.287078,0.02434 -0.377762,0.04614 -0.527696,0.121094 -0.09949,0.04974 -0.21642,0.122646 -0.259252,0.162109 -0.04283,0.03946 -0.413106,0.457837 -0.821882,0.929688 -1.300734,1.501443 -1.38739,1.575377 -1.987594,1.714843 -0.3877805,0.09011 -0.8118089,0.02965 -1.2190329,-0.173828 C 8.5499453,13.5439 8.1571597,13.018128 8.0448118,12.459604 8.0081738,12.277226 8.0006838,11.609098 8.0006838,8.0006203 c 0,-4.7364369 -0.010829,-4.4655184 0.2096076,-4.9335938 0.2394927,-0.5085403 0.7241761,-0.8949186 1.2833863,-1.0234374 0.1422125,-0.032684 0.2870791,-0.04683 0.4320856,-0.042969 z m 0.00552,1.2265625 C 9.6576869,3.2093508 9.3813055,3.3593652 9.2528134,3.6275734 l -0.073546,0.15625 v 4.2167969 4.2167967 l 0.073546,0.15625 c 0.083644,0.174594 0.2176865,0.294118 0.4008285,0.361328 0.067098,0.02463 0.1758822,0.04437 0.2427034,0.04297 0.2863427,-0.0057 0.3341307,-0.04779 1.3698027,-1.234376 0.531294,-0.608714 1.037363,-1.164585 1.125261,-1.234375 0.367406,-0.291694 0.801789,-0.4526998 1.344062,-0.4980468 0.523581,-0.043778 0.799986,-0.2154209 0.987362,-0.6113281 l 0.09745,-0.203125 V 8.0924172 7.1881203 L 14.74122,7.0162453 C 14.633342,6.7769323 14.47746,6.6083312 14.25949,6.4967141 14.103579,6.4168756 14.020625,6.3967416 13.744665,6.3736672 13.563879,6.3585504 13.333621,6.3258573 13.233517,6.2994484 12.962743,6.2280144 12.594905,6.0271692 12.373023,5.8306984 12.263474,5.7336954 11.763828,5.1497952 11.244084,4.5103859 10.568214,3.6789026 10.280433,3.3453226 10.197885,3.3014015 10.112679,3.2560646 10.022477,3.2331269 9.9312799,3.2271828 Z" />
</svg>
