<?xml version="1.0" encoding="UTF-8" standalone="no"?>
<svg
   width="16"
   height="16"
   version="1.1"
   id="svg10"
   xmlns="http://www.w3.org/2000/svg"
   xmlns:svg="http://www.w3.org/2000/svg"
   xmlns:rdf="http://www.w3.org/1999/02/22-rdf-syntax-ns#"
   xmlns:cc="http://creativecommons.org/ns#"
   xmlns:dc="http://purl.org/dc/elements/1.1/">
  <defs
     id="defs14" />
  <metadata
     id="metadata2">
    <rdf:RDF>
      <cc:Work
         rdf:about="">
        <dc:format>image/svg+xml</dc:format>
        <dc:type
           rdf:resource="http://purl.org/dc/dcmitype/StillImage" />
      </cc:Work>
    </rdf:RDF>
  </metadata>
  <g
     fill="#363636"
     stroke-linecap="round"
     stroke-linejoin="round"
     stroke-width="2.001"
     style="fill:#241f31;paint-order:stroke fill markers"
     aria-label="î§"
     id="g6"
     transform="matrix(-1,0,0,1,16.0008,0)">
    <path
       d="m 10.959,3.0444 c 0.32829,0.32829 0.61749,0.68522 0.86761,1.0708 0.25533,0.38039 0.46898,0.78163 0.64094,1.2037 0.17717,0.42208 0.31005,0.85978 0.39863,1.3131 0.09379,0.45335 0.14069,0.90931 0.14069,1.3679 0,0.46377 -0.0469,0.92233 -0.14069,1.3757 -0.08859,0.44813 -0.22146,0.88323 -0.39863,1.3053 -0.17196,0.42208 -0.38561,0.82591 -0.64094,1.2115 -0.25012,0.38039 -0.53932,0.73473 -0.86761,1.063 l -0.71128,-0.71128 c 0.56277,-0.56277 0.99527,-1.2115 1.2975,-1.9463 0.30744,-0.73473 0.46116,-1.5007 0.46116,-2.298 0,-0.7973 -0.15372,-1.5633 -0.46116,-2.298 -0.30223,-0.73473 -0.73473,-1.3835 -1.2975,-1.9463 z m -2.126,2.126 c 0.37518,0.37518 0.66438,0.80768 0.86761,1.2975 0.20323,0.48982 0.30484,1.0005 0.30484,1.532 0,0.53151 -0.10161,1.0422 -0.30484,1.532 C 9.49738,10.02172 9.20818,10.45422 8.833,10.8294 L 8.12953,10.12593 C 8.41092,9.84454 8.62717,9.52147 8.77828,9.15671 8.92939,8.78674 9.00495,8.40114 9.00495,7.99991 9.00495,7.59867 8.929393,7.21567 8.77828,6.85091 8.62717,6.48094 8.41092,6.15526 8.12953,5.87387 Z M 5.2922,1.997 H 6.00348 V 14.003 H 5.2922 L 2.2907,11.0015 H 5e-4 V 4.9986 H 2.2907 Z M 5.003,3.7088 2.7128,5.999 H 1.001 v 4.0019 h 1.7118 l 2.2902,2.2902 z"
       fill="#363636"
       stroke-width="2.001"
       id="path4"
       style="fill:#241f31" />
  </g>
  <path
     d="M 2.9238,0.92624 C 2.45482,1.39522 2.04055,1.90329 1.681,2.45044 1.31624,2.99758 1.0088,3.57334 0.75868,4.17784 0.50856,4.77709 0.32097,5.39984 0.19591,6.04594 0.06564,6.68688 5e-4,7.33824 5e-4,8.00004 c 0,0.66178 0.06514,1.3157 0.19541,1.9619 0.12506,0.64094 0.31265,1.2636 0.56277,1.8681 0.25012,0.59925 0.55756,1.1725 0.92232,1.7196 0.35955,0.54714 0.77381,1.0552 1.2428,1.5242 L 3.62727,14.37037 C 3.20519,13.94829 2.83262,13.49232 2.50957,13.00247 2.18128,12.50744 1.90511,11.98897 1.68104,11.44707 1.45697,10.90517 1.28762,10.34497 1.17298,9.76657 1.05313,9.18295 0.9932,8.59407 0.9932,8.00007 c 0,-0.59404 0.05993,-1.1803 0.17978,-1.7587 0.11464,-0.58362 0.28399,-1.1464 0.50806,-1.6883 0.22407,-0.54193 0.50024,-1.0578 0.82853,-1.5476 0.32307,-0.49503 0.69564,-0.9536 1.1177,-1.3757 z"
     fill="#363636"
     opacity="0.35"
     stroke-width="2.001"
     style="fill:#241f31;paint-order:stroke fill markers"
     id="path8" />
</svg>
