<?xml version="1.0" encoding="UTF-8" standalone="no"?>
<svg
   height="16px"
   viewBox="0 0 16 16"
   width="16px"
   version="1.1"
   id="svg4"
   xmlns="http://www.w3.org/2000/svg"
   xmlns:svg="http://www.w3.org/2000/svg">
  <defs
     id="defs8" />
  <path
     id="path1179"
     style="fill:#241f31;stroke-width:0.999999"
     d="m 9.5469886,2 c 0.4621014,0.011583 0.9187054,0.1824736 1.2500004,0.4824219 0.103393,0.09361 0.568852,0.6130855 1.033203,1.1523437 0.464351,0.5392583 0.90901,1.0471479 0.988281,1.1289063 0.271433,0.2799507 0.489208,0.3666781 0.988281,0.3984375 0.589437,0.03751 1.045758,0.2352797 1.482422,0.6425781 0.320705,0.2991373 0.549563,0.6879327 0.664063,1.125 0.06235,0.238001 0.06235,2.0862177 0,2.3242187 -0.221809,0.8466828 -0.887236,1.5031638 -1.742188,1.7167968 -0.07057,0.01763 -0.293741,0.0444 -0.496094,0.06055 -0.304948,0.02434 -0.401278,0.04614 -0.560546,0.121094 -0.105684,0.04974 -0.229893,0.122646 -0.275391,0.162109 -0.0455,0.03946 -0.438824,0.457837 -0.873047,0.929688 -1.381709,1.501443 -1.47376,1.575377 -2.1113282,1.714843 -0.2856406,0.06248 -0.5906518,0.0505 -0.8945312,-0.0293 v -1.341797 c 0.072322,0.06271 0.1576519,0.111881 0.2578125,0.146484 0.071275,0.02463 0.1868315,0.04437 0.2578125,0.04297 0.3041686,-0.0057 0.354932,-0.04779 1.4550784,-1.234375 0.564369,-0.608714 1.101942,-1.164585 1.195312,-1.234375 0.390278,-0.291694 0.851703,-0.4527001 1.427735,-0.4980471 0.556175,-0.043778 0.849787,-0.2154209 1.048828,-0.6113281 l 0.103515,-0.203125 V 8.0917969 7.1875 L 14.662223,7.015625 C 14.547629,6.776312 14.382044,6.6077109 14.150504,6.4960938 13.984887,6.4162553 13.896769,6.3961213 13.603629,6.3730469 13.411589,6.3579301 13.166997,6.325237 13.060661,6.2988281 12.77303,6.2273941 12.382293,6.0265489 12.146598,5.8300781 12.030229,5.7330751 11.499478,5.1491749 10.947379,4.5097656 10.229434,3.6782823 9.9237374,3.3447023 9.8360511,3.3007812 9.7455399,3.2554444 9.649723,3.2325066 9.552848,3.2265625 9.262223,3.2087301 8.968636,3.3587449 8.8321448,3.6269531 l -0.078125,0.15625 V 7 H 7.5020667 C 7.5021321,3.4975629 7.5122204,3.4911915 7.724723,3.0664062 7.9791248,2.557866 8.4939814,2.1714876 9.0880042,2.0429688 9.2390699,2.0102849 9.392955,1.9961389 9.5469886,2 Z" />
  <path
     id="path9008"
     style="color:#000000;fill:#e01b24;stroke-width:0.999997;stroke-linecap:round;stroke-linejoin:round;-inkscape-stroke:none"
     d="m 7.4322266,8.0003412 a -0.57241988,0.57239521 0 0 1 0.400208,0.167678 -0.57241988,0.57239521 0 0 1 0.0068,0.8026146 l -3.029497,3.0293672 3.029497,3.029367 A -0.57241988,0.57239521 0 0 1 7.0298776,15.83869 L 4.0003826,12.809322 0.97088261,15.83869 a -0.57241988,0.57239521 0 0 1 -0.550004,0.140848 -0.57241988,0.57239521 0 0 1 -0.400206,-0.400188 -0.57241988,0.57239521 0 0 1 0.140859,-0.549982 L 3.1909316,12 0.16143361,8.970633 a -0.57241988,0.57239521 0 0 1 -0.140859,-0.5499812 -0.57241988,0.57239521 0 0 1 0.400206,-0.4001894 -0.57241988,0.57239521 0 0 1 0.550006,0.1408488 L 4.0002906,11.190678 7.0297856,8.1613112 a -0.57241988,0.57239521 0 0 1 0.402441,-0.16097 z" />
</svg>
