<?xml version="1.0" encoding="UTF-8" standalone="no"?>
<svg
   height="16px"
   viewBox="0 0 16 16"
   width="16px"
   version="1.1"
   id="svg4"
   xmlns="http://www.w3.org/2000/svg"
   xmlns:svg="http://www.w3.org/2000/svg">
  <defs
     id="defs8" />
  <path
     id="path1179"
     style="fill:#241f31;stroke-width:0.999999"
     d="M 6.453125 2 C 5.9910241 2.0115834 5.5344201 2.1824736 5.203125 2.4824219 C 5.0997316 2.5760317 4.6342726 3.0955074 4.1699219 3.6347656 C 3.7055711 4.1740239 3.2609121 4.6819135 3.1816406 4.7636719 C 2.9102079 5.0436226 2.6924326 5.13035 2.1933594 5.1621094 C 1.6039225 5.1996191 1.1476021 5.3973891 0.7109375 5.8046875 C 0.39023215 6.1038248 0.16137495 6.4926202 0.046875 6.9296875 C -0.01547485 7.1676885 -0.01547485 9.0159052 0.046875 9.2539062 C 0.26868368 10.100589 0.93411049 10.75707 1.7890625 10.970703 C 1.8596369 10.988332 2.0828041 11.015102 2.2851562 11.03125 C 2.5901049 11.055586 2.6864351 11.077387 2.8457031 11.152344 C 2.9513864 11.202085 3.0755955 11.27499 3.1210938 11.314453 C 3.1665899 11.353912 3.5599175 11.77229 3.9941406 12.244141 C 5.3758492 13.745584 5.4679002 13.819518 6.1054688 13.958984 C 6.3911094 14.021467 6.6961206 14.009487 7 13.929688 L 7 12.587891 C 6.9276778 12.650604 6.8423481 12.699772 6.7421875 12.734375 C 6.6709123 12.759005 6.555356 12.778744 6.484375 12.777344 C 6.1802064 12.771642 6.129443 12.729558 5.0292969 11.542969 C 4.4649281 10.934255 3.9273544 10.378384 3.8339844 10.308594 C 3.4437065 10.0169 2.9822817 9.8558939 2.40625 9.8105469 C 1.8500746 9.7667689 1.5564628 9.595126 1.3574219 9.1992188 L 1.2539062 8.9960938 L 1.2539062 8.0917969 L 1.2539062 7.1875 L 1.3378906 7.015625 C 1.4524844 6.776312 1.6180699 6.6077109 1.8496094 6.4960938 C 2.0152265 6.4162553 2.1033449 6.3961213 2.3964844 6.3730469 C 2.5885243 6.3579301 2.8331169 6.325237 2.9394531 6.2988281 C 3.2270835 6.2273941 3.6178207 6.0265489 3.8535156 5.8300781 C 3.9698846 5.7330751 4.5006353 5.1491749 5.0527344 4.5097656 C 5.7706799 3.6782823 6.0763762 3.3447023 6.1640625 3.3007812 C 6.2545737 3.2554444 6.3503906 3.2325066 6.4472656 3.2265625 C 6.7378906 3.2087301 7.0314776 3.3587449 7.1679688 3.6269531 L 7.2460938 3.7832031 L 7.2460938 7 L 8.4980469 7 C 8.4979815 3.4975629 8.4878932 3.4911915 8.2753906 3.0664062 C 8.0209888 2.557866 7.5061322 2.1714876 6.9121094 2.0429688 C 6.7610437 2.0102849 6.6071586 1.9961389 6.453125 2 z " />
  <path
     id="path9008"
     style="color:#000000;fill:#e01b24;stroke-width:0.999997;stroke-linecap:round;stroke-linejoin:round;-inkscape-stroke:none"
     d="m 8.567887,8.0003412 a 0.57241988,0.57239521 0 0 0 -0.400208,0.167678 0.57241988,0.57239521 0 0 0 -0.0068,0.8026146 l 3.029497,3.0293672 -3.029497,3.029367 a 0.57241988,0.57239521 0 0 0 0.809357,0.809322 l 3.029495,-3.029368 3.0295,3.029368 a 0.57241988,0.57239521 0 0 0 0.550004,0.140848 0.57241988,0.57239521 0 0 0 0.400206,-0.400188 0.57241988,0.57239521 0 0 0 -0.140859,-0.549982 L 12.809182,12 15.83868,8.970633 A 0.57241988,0.57239521 0 0 0 15.979539,8.4206518 0.57241988,0.57239521 0 0 0 15.579333,8.0204624 0.57241988,0.57239521 0 0 0 15.029327,8.1613112 L 11.999823,11.190678 8.970328,8.1613112 a 0.57241988,0.57239521 0 0 0 -0.402441,-0.16097 z" />
</svg>
