<?xml version="1.0" encoding="UTF-8" standalone="no"?>
<svg
   width="16"
   height="16"
   version="1.1"
   id="svg6"
   xmlns="http://www.w3.org/2000/svg"
   xmlns:svg="http://www.w3.org/2000/svg">
  <defs
     id="defs10" />
  <path
     d="M 2,3 C 0.892,3 0,3.892 0,5 v 6 c 0,1.108 0.892,2 2,2 h 11 c 1.108,0 2,-0.892 2,-2 v -1 h 1 V 6 H 15 V 5 C 15,3.892 14.108,3 13,3 Z m 0,1 h 11 c 0.554,0 1,0.446 1,1 v 6 c 0,0.554 -0.446,1 -1,1 H 2 C 1.446,12 1,11.554 1,11 V 5 C 1,4.446 1.446,4 2,4 Z"
     fill="#363636"
     stroke-linecap="round"
     stroke-linejoin="round"
     stroke-width="1.5"
     style="paint-order:stroke fill markers"
     id="path4" />
  <g
     aria-label="?"
     id="text3019"
     style="font-size:10px;line-height:1.25;fill:#e01b24;stroke-width:1.09702"
     transform="matrix(1.0278544,0,0,0.80842106,0.86072779,2.5747367)">
    <path
       d="M 5.9729007,9.4941409 H 6.9458011 V 10.421875 H 5.9729007 Z M 6.9458011,8.5664065 H 5.9729007 c 0,-0.9277344 0,-0.9277344 0,-1.8554688 0,-0.9277344 0,-0.9277344 0.9729004,-0.9277344 0.9729004,0 0.9729004,0 0.9729004,-0.9277344 0,-0.9277344 0,-0.9277344 -0.9729004,-0.9277344 -0.7256484,0 -1.3989866,0 -1.9458009,0 V 3.0000001 c 0.9729005,0 1.9458009,0 2.9187013,0 0.9729005,0 0.9729005,0 0.9729005,0.9277344 0,0.6695725 0,1.1437254 0,1.8554688 0,0.9277344 0,0.9277344 -0.9729005,0.9277344 -0.9729004,0 -0.7418462,0 -0.9729004,0 0,0.3871314 0,0.9277344 0,1.8554688 z"
       id="path8642"
       style="fill:#e01b24;stroke-width:1.09702" />
  </g>
</svg>
