<?xml version="1.0" encoding="UTF-8" standalone="no"?>
<svg
   width="16"
   height="16"
   version="1.1"
   id="svg6"
   xmlns="http://www.w3.org/2000/svg"
   xmlns:svg="http://www.w3.org/2000/svg">
  <defs
     id="defs10" />
  <path
     d="M 2,3 C 0.892,3 0,3.892 0,5 v 6 c 0,1.108 0.892,2 2,2 h 11 c 1.108,0 2,-0.892 2,-2 v -1 h 1 V 6 H 15 V 5 C 15,3.892 14.108,3 13,3 Z m 0,1 h 11 c 0.554,0 1,0.446 1,1 v 6 c 0,0.554 -0.446,1 -1,1 H 2 C 1.446,12 1,11.554 1,11 V 5 C 1,4.446 1.446,4 2,4 Z"
     fill="#363636"
     stroke-linecap="round"
     stroke-linejoin="round"
     stroke-width="1.5"
     style="fill:#241f31;paint-order:stroke fill markers"
     id="path2" />
  <rect
     x="2"
     y="5"
     width="1"
     height="6"
     rx="0"
     ry="0"
     fill="#363636"
     stroke-linecap="round"
     stroke-linejoin="round"
     stroke-width=".45227"
     class="error"
     style="paint-order:stroke fill markers;fill:#e01b24"
     id="rect4" />
</svg>
