<?xml version="1.0" encoding="UTF-8" standalone="no"?>
<svg
   width="16"
   height="16"
   version="1.1"
   id="svg10"
   xmlns="http://www.w3.org/2000/svg"
   xmlns:svg="http://www.w3.org/2000/svg">
  <defs
     id="defs14" />
  <path
     d="m 6,3 v 1 h 7 c 0.554,0 1,0.446 1,1 v 6 c 0,0.554 -0.446,1 -1,1 H 4 v 1 h 9 c 1.108,0 2,-0.892 2,-2 v -1 h 1 V 6 H 15 V 5 C 15,3.892 14.108,3 13,3 Z"
     fill="#363636"
     stroke-linecap="round"
     stroke-linejoin="round"
     stroke-width="1.5"
     style="fill:#241f31;paint-order:stroke fill markers"
     id="path2" />
  <path
     d="M 6,5 V 5.5 C 6,6.8994 5.18142,8.0934 4,8.6543 V 11 h 7 V 5 Z"
     fill="#363636"
     stroke-linecap="round"
     stroke-linejoin="round"
     stroke-width="1.5"
     style="fill:#241f31;paint-order:stroke fill markers"
     id="path4" />
  <path
     id="path6"
     style="stroke-linecap:round;stroke-linejoin:round;paint-order:stroke fill markers;fill:#241f31"
     d="M 1 1 L 1 3 L 0 3 L 0 5.5 C -3.7007434e-17 5.79167 0.046875 6.07292 0.140625 6.34375 C 0.23959647 6.6010739 0.37232292 6.8346191 0.53710938 7.0449219 L 0.53710938 7.0625 L 0.55078125 7.0625 C 0.55487121 7.0676297 0.55837039 7.0730236 0.5625 7.078125 C 0.73958 7.296875 0.94792 7.484375 1.1875 7.640625 C 1.4375 7.786455 1.70833 7.890625 2 7.953125 L 2 13 L 3 13 L 3 7.953125 C 3.29167 7.890625 3.557295 7.786455 3.796875 7.640625 C 4.046875 7.484375 4.26042 7.296885 4.4375 7.078125 C 4.61458 6.859365 4.75 6.61458 4.84375 6.34375 C 4.947917 6.07292 5 5.79167 5 5.5 L 5 3 L 4 3 L 4 1 L 3 1 L 3 3 L 2 3 L 2 1 L 1 1 z " />
</svg>
