<?xml version="1.0" encoding="UTF-8" standalone="no"?>
<svg
   width="16"
   height="16"
   version="1.1"
   id="svg8"
   xmlns="http://www.w3.org/2000/svg"
   xmlns:svg="http://www.w3.org/2000/svg">
  <defs
     id="defs12" />
  <path
     d="m 6,3 v 1 h 7 c 0.554,0 1,0.446 1,1 v 6 c 0,0.554 -0.446,1 -1,1 H 4 v 1 h 9 c 1.108,0 2,-0.892 2,-2 v -1 h 1 V 6 H 15 V 5 C 15,3.892 14.108,3 13,3 Z"
     fill="#d33636"
     stroke-linecap="round"
     stroke-linejoin="round"
     stroke-width="1.5"
     style="fill:#e01b24;paint-order:stroke fill markers"
     id="path2" />
  <g
     transform="translate(-.069557)"
     fill="#363636"
     stroke-linecap="round"
     stroke-linejoin="round"
     stroke-width="4"
     style="paint-order:stroke fill markers;fill:#241f31"
     aria-label=""
     id="g6">
    <path
       d="m 5.0696,5.5 c 0,0.29167 -0.052083,0.57292 -0.15625,0.84375 C 4.8196,6.61458 4.68418,6.85937 4.5071,7.07813 4.33002,7.29689 4.11648,7.48438 3.86648,7.64063 3.6269,7.78646 3.36127,7.89063 3.0696,7.95313 v 5.0469 h -1 V 7.95313 C 1.77793,7.89063 1.5071,7.78646 1.2571,7.64063 1.01752,7.48438 0.80918,7.29688 0.6321,7.07813 0.45502,6.85938 0.31439,6.61459 0.21022,6.34375 0.11647,6.07292 0.0696,5.79167 0.0696,5.5 V 3 h 1 V 1 h 1 v 2 h 1 V 1 h 1 v 2 h 1 z"
       fill="#d33636"
       stroke-width="4"
       id="path4"
       style="fill:#241f31" />
  </g>
</svg>
