<svg xmlns="http://www.w3.org/2000/svg" xmlns:svg="http://www.w3.org/2000/svg" id="svg10" width="16" height="16" version="1.1"><path id="path2" fill="#363636" stroke-linecap="round" stroke-linejoin="round" stroke-width="1.5" d="m 6,3 v 1 h 7 c 0.554,0 1,0.446 1,1 v 6 c 0,0.554 -0.446,1 -1,1 H 4 v 1 h 9 c 1.108,0 2,-0.892 2,-2 v -1 h 1 V 6 H 15 V 5 C 15,3.892 14.108,3 13,3 Z" style="fill:#241f31;paint-order:stroke fill markers"/><path id="path4" fill="#363636" stroke-linecap="round" stroke-linejoin="round" stroke-width="1.5" d="m6 5v0.5c0 1.3994-0.81858 2.5934-2 3.1543v2.3457h8v-6z" style="paint-order:stroke fill markers;fill:#241f31"/><path id="path6" style="fill:#241f31;stroke-linecap:round;stroke-linejoin:round;paint-order:stroke fill markers" d="M 1 1 L 1 3 L 0 3 L 0 5.5 C -3.7007434e-17 5.79167 0.046875 6.07292 0.140625 6.34375 C 0.244795 6.61459 0.38542 6.859375 0.5625 7.078125 C 0.58987399 7.1119406 0.61956957 7.1434592 0.6484375 7.1757812 L 0.6484375 7.2148438 L 0.68164062 7.2148438 C 0.83112854 7.3758865 0.99954988 7.5180471 1.1875 7.640625 C 1.4375 7.786455 1.70833 7.890625 2 7.953125 L 2 13 L 3 13 L 3 7.953125 C 3.29167 7.890625 3.557295 7.786455 3.796875 7.640625 C 3.9929996 7.5180471 4.1671125 7.3758886 4.3183594 7.2148438 L 4.3925781 7.2148438 L 4.3925781 7.1289062 C 4.4073184 7.1116871 4.423233 7.0957501 4.4375 7.078125 C 4.61458 6.859365 4.75 6.61458 4.84375 6.34375 C 4.947917 6.07292 5 5.79167 5 5.5 L 5 3 L 4 3 L 4 1 L 3 1 L 3 3 L 2 3 L 2 1 L 1 1 z"/></svg>