<svg xmlns="http://www.w3.org/2000/svg" xmlns:svg="http://www.w3.org/2000/svg" id="svg4" width="16" height="16" version="1.1" viewBox="0 0 16 16"><path id="path937" d="M 7.5 1 A 0.50004949 0.50004949 0 0 0 7.3085938 1.0371094 A 0.50004949 0.50004949 0 0 0 7 1.5 L 7 6.2734375 A 2 2 0 0 1 8 6 L 8 2.7070312 L 10.701172 5.4082031 L 9.1601562 6.3730469 A 2 2 0 0 1 9.8085938 7.1464844 L 11.765625 5.9238281 A 0.50004949 0.50004949 0 0 0 11.853516 5.1464844 L 7.8535156 1.1464844 A 0.50004949 0.50004949 0 0 0 7.5 1 z M 3.4296875 5.0039062 A 0.49999949 0.49999949 0 0 0 3.0996094 5.1992188 A 0.49999949 0.49999949 0 0 0 3.1992188 5.9003906 L 6 8 A 2 2 0 0 1 6.2910156 6.96875 L 3.8007812 5.0996094 A 0.49999949 0.49999949 0 0 0 3.4296875 5.0039062 z M 6.0292969 8.328125 L 3.234375 10.076172 A 0.49999949 0.49999949 0 0 0 3.0761719 10.765625 A 0.49999949 0.49999949 0 0 0 3.765625 10.923828 L 6.4433594 9.25 A 2 2 0 0 1 6.0292969 8.328125 z M 9.4707031 9.3515625 A 2 2 0 0 1 8.5605469 9.9199219 L 10.666016 11.5 L 8 13.5 L 8 10 A 2 2 0 0 1 7 9.7265625 L 7 14.5 A 0.50004949 0.50004949 0 0 0 7.8007812 14.900391 L 11.800781 11.900391 A 0.50004949 0.50004949 0 0 0 11.800781 11.099609 L 9.4707031 9.3515625 z" style="color:#000;fill:#241f31;stroke-linecap:round;stroke-linejoin:round;-inkscape-stroke:none;fill-opacity:.5"/><path id="path2955" d="M 4,8 A 1,1 0 0 1 3,9 1,1 0 0 1 2,8 1,1 0 0 1 3,7 1,1 0 0 1 4,8 Z" style="fill:#241f31;stroke-width:3;stroke-linecap:round;stroke-linejoin:round;stop-color:#000;fill-opacity:.5"/><path id="path2957" d="M 9,8 A 1,1 0 0 1 8,9 1,1 0 0 1 7,8 1,1 0 0 1 8,7 1,1 0 0 1 9,8 Z" style="fill:#241f31;stroke-width:3;stroke-linecap:round;stroke-linejoin:round;stop-color:#000"/><path id="path2959" d="M 14,8 A 1,1 0 0 1 13,9 1,1 0 0 1 12,8 1,1 0 0 1 13,7 1,1 0 0 1 14,8 Z" style="fill:#241f31;stroke-width:3;stroke-linecap:round;stroke-linejoin:round;stop-color:#000;fill-opacity:.5"/></svg>