<svg xmlns="http://www.w3.org/2000/svg" xmlns:svg="http://www.w3.org/2000/svg" id="svg4" width="16" height="16" version="1.1" viewBox="0 0 16 16"><path id="path937" style="color:#000;fill:#241f31;stroke-linecap:round;stroke-linejoin:round;-inkscape-stroke:none;fill-opacity:.5" d="M 7.5 1 A 0.50004949 0.50004949 0 0 0 7.3085938 1.0371094 A 0.50004949 0.50004949 0 0 0 7 1.5 L 7 4.8789062 L 8 5.8789062 L 8 2.7070312 L 10.701172 5.4082031 L 8.75 6.6289062 L 9.4765625 7.3554688 L 11.765625 5.9238281 A 0.50004949 0.50004949 0 0 0 11.853516 5.1464844 L 7.8535156 1.1464844 A 0.50004949 0.50004949 0 0 0 7.5 1 z M 3.0917969 5.2128906 A 0.49999949 0.49999949 0 0 0 3.1992188 5.9003906 L 5.5175781 7.6386719 L 3.0917969 5.2128906 z M 6.1386719 8.2597656 L 3.234375 10.076172 A 0.49999949 0.49999949 0 0 0 3.0761719 10.765625 A 0.49999949 0.49999949 0 0 0 3.765625 10.923828 L 6.8652344 8.9863281 L 6.1386719 8.2597656 z M 7 9.1210938 L 7 14.5 A 0.50004949 0.50004949 0 0 0 7.8007812 14.900391 L 10.646484 12.767578 L 9.9296875 12.050781 L 8 13.5 L 8 10.121094 L 7 9.1210938 z"/><path style="color:#000;fill:#241f31;stroke-linecap:round;stroke-linejoin:round;-inkscape-stroke:none" id="path2455" d="m 1.5,1 a 0.5,0.5 0 0 0 -0.3535156,0.1464844 0.5,0.5 0 0 0 0,0.7070312 L 14.146484,14.853516 a 0.5,0.5 0 0 0 0.707032,0 0.5,0.5 0 0 0 0,-0.707032 L 1.8535156,1.1464844 A 0.5,0.5 0 0 0 1.5,1 Z"/></svg>