<svg xmlns="http://www.w3.org/2000/svg" xmlns:svg="http://www.w3.org/2000/svg" id="svg4" width="16" height="16" version="1.1" viewBox="0 0 16 16"><path id="path937" style="color:#000;fill:#241f31;stroke-linecap:round;stroke-linejoin:round;-inkscape-stroke:none;fill-opacity:.5" d="M 7.5 1 A 0.50004949 0.50004949 0 0 0 7.3085938 1.0371094 A 0.50004949 0.50004949 0 0 0 7 1.5 L 7 7 L 8 7 L 8 2.7070312 L 10.701172 5.4082031 L 8.15625 7 L 10.042969 7 L 11.765625 5.9238281 A 0.50004949 0.50004949 0 0 0 11.853516 5.1464844 L 7.8535156 1.1464844 A 0.50004949 0.50004949 0 0 0 7.5 1 z M 3.4296875 5.0039062 A 0.49999949 0.49999949 0 0 0 3.0996094 5.1992188 A 0.49999949 0.49999949 0 0 0 3.1992188 5.9003906 L 6.2519531 8.1894531 L 3.234375 10.076172 A 0.49999949 0.49999949 0 0 0 3.0761719 10.765625 A 0.49999949 0.49999949 0 0 0 3.765625 10.923828 L 7 8.9023438 L 7 7.5 L 3.8007812 5.0996094 A 0.49999949 0.49999949 0 0 0 3.4296875 5.0039062 z"/><rect style="fill:#241f31;fill-opacity:1;stroke:none;stroke-width:3;stroke-linecap:round;stroke-linejoin:round;stroke-miterlimit:4;stroke-dasharray:none;stop-color:#000" id="rect2829" width="8" height="8" x="8" y="8"/></svg>