<svg xmlns="http://www.w3.org/2000/svg" xmlns:svg="http://www.w3.org/2000/svg" id="svg5" width="16" height="16" version="1.1"><path id="path2" fill="#363636" d="M 7.9991255,9.00003 V 2.91413 L 4.8504325,5.853515 C 4.3832393,6.311127 3.6959456,5.6177877 4.1495675,5.146485 L 8.4948351,1 12.850433,5.146485 c 0.481168,0.4713012 -0.233674,1.1924314 -0.700865,0.70703 L 8.9905447,2.91413 v 6.0859 H 7.9992643 Z" style="stroke-width:1;fill:#241f31"/><path style="color:#000;fill:#241f31;-inkscape-stroke:none" id="path4" d="m 6.6074219,10.025391 0.048828,0.002 c 0,0 -1.3396918,-0.1370558 -2.7207031,0.199219 C 3.2450412,10.3947 2.5276468,10.680851 1.9589844,11.207031 1.390322,11.733212 1,12.517033 1,13.509766 v 0.996093 C 1,15.158852 1.374068,15.62653 1.7285156,15.816406 2.0829633,16.006283 2.4277344,16 2.4277344,16 h 1.8574218 c 0,0 0.3467243,0.0063 0.7011719,-0.183594 0.3544477,-0.189876 0.7285156,-0.657554 0.7285156,-1.310547 v -0.498046 c 10e-8,-0.269368 0.069448,-0.417158 0.1738282,-0.542969 0.1043804,-0.125812 0.2627624,-0.227054 0.4414062,-0.298828 0.3572877,-0.143549 0.7421875,-0.150391 0.7421875,-0.150391 h 1.8554688 c 0,0 0.3848999,0.0068 0.7421875,0.150391 0.1786438,0.07177 0.3370261,0.173016 0.4414061,0.298828 0.104381,0.125811 0.173828,0.273601 0.173828,0.542969 v 0.498046 c 0,0.652993 0.374068,1.120671 0.728516,1.310547 C 11.36812,16.006283 11.714844,16 11.714844,16 h 1.857422 c 0,0 0.344771,0.0063 0.699218,-0.183594 C 14.625932,15.62653 15,15.158852 15,14.505859 V 13.509766 C 15,12.517033 14.609678,11.733212 14.041016,11.207031 13.472353,10.680851 12.754959,10.3947 12.064453,10.226563 10.683442,9.8902882 9.34375,10.027344 9.34375,10.027344 l 0.048828,-0.002 z m -0.048828,0.998047 0.023437,0.002 h 2.8359376 l 0.023437,-0.002 c 0,0 1.2141607,-0.111688 2.3867187,0.173828 0.586279,0.142758 1.14623,0.384269 1.535156,0.74414 C 13.752207,12.301277 14,12.761485 14,13.509766 v 0.996093 c 0,0.341873 -0.09133,0.370848 -0.201172,0.429688 C 13.688991,14.994387 13.572266,15 13.572266,15 h -1.857422 c 0,0 -0.118678,-0.0056 -0.228516,-0.06445 -0.109838,-0.05884 -0.201172,-0.08782 -0.201172,-0.429688 v -0.498046 c 0,-0.476782 -0.160463,-0.887744 -0.404297,-1.181641 C 10.637026,12.532275 10.32861,12.353044 10.042969,12.238281 9.471686,12.008755 8.9277344,12.015625 8.9277344,12.015625 H 7.0722656 c 0,0 -0.5439515,-0.0069 -1.1152344,0.222656 -0.2856414,0.114763 -0.5940571,0.293994 -0.8378906,0.587891 -0.2438334,0.293897 -0.4042969,0.704859 -0.4042969,1.181641 v 0.498046 c 0,0.341872 -0.091334,0.370848 -0.2011718,0.429688 C 4.4038343,14.994387 4.2851563,15 4.2851562,15 H 2.4277344 c 0,0 -0.1167249,-0.0056 -0.2265625,-0.06445 C 2.0913343,14.876707 2,14.847731 2,14.505859 v -0.996093 c 0,-0.748281 0.2477928,-1.208489 0.6367188,-1.56836 0.3889259,-0.359871 0.9488774,-0.601382 1.5351562,-0.74414 1.1725576,-0.285516 2.3867187,-0.173828 2.3867187,-0.173828 z"/></svg>