<svg xmlns="http://www.w3.org/2000/svg" xmlns:svg="http://www.w3.org/2000/svg" id="svg8" width="16" height="16" version="1.1"><path id="path2" fill="#363636" fill-rule="evenodd" d="m 8.5,1 a 0.5,0.5 0 1 0 0,1 h 3.793 L 7.5,6.793 2.854,2.146 A 0.50027817,0.50027817 0 1 0 2.147,2.854 L 7.5,8.207 13,2.707 V 6.5 a 0.5,0.5 0 1 0 1,0 V 1 Z" color="#000" font-family="sans-serif" font-weight="400" overflow="visible" style="line-height:normal;font-variant-ligatures:normal;font-variant-position:normal;font-variant-caps:normal;font-variant-numeric:normal;font-variant-alternates:normal;font-feature-settings:normal;text-indent:0;text-align:start;text-decoration-line:none;text-decoration-style:solid;text-decoration-color:#000;text-transform:none;text-orientation:mixed;shape-padding:0;isolation:auto;mix-blend-mode:normal;fill:#241f31" white-space="normal"/><path style="color:#000;fill:#241f31;fill-rule:evenodd;-inkscape-stroke:none;opacity:.4" id="path4" d="m 6.6074219,10.025391 0.048828,0.002 c 0,0 -1.3396903,-0.1370618 -2.7207031,0.199219 -0.6905064,0.16814 -1.4079007,0.45428 -1.9765625,0.980468 C 1.3903226,11.73322 1,12.51702 1,13.509766 v 0.996093 c 0,0.652999 0.3740673,1.120667 0.7285156,1.310547 C 2.0829639,16.006286 2.4277344,16 2.4277344,16 h 1.8574218 c 0,0 0.3467236,0.0063 0.7011719,-0.183594 0.3544483,-0.18988 0.7285156,-0.657548 0.7285156,-1.310547 v -0.498046 c 10e-8,-0.269376 0.069447,-0.417154 0.1738282,-0.542969 0.1043814,-0.125815 0.2627629,-0.227053 0.4414062,-0.298828 0.3572866,-0.143551 0.7421875,-0.150391 0.7421875,-0.150391 h 1.8554688 c 0,0 0.384901,0.0068 0.7421875,0.150391 0.1786432,0.07177 0.3370251,0.173013 0.4414061,0.298828 0.104382,0.125815 0.173828,0.273593 0.173828,0.542969 v 0.498046 c 0,0.652999 0.374067,1.120667 0.728516,1.310547 C 11.36812,16.006286 11.714844,16 11.714844,16 h 1.857422 c 0,0 0.34477,0.0063 0.699218,-0.183594 C 14.625933,15.626526 15,15.158858 15,14.505859 V 13.509766 C 15,12.51702 14.609677,11.73322 14.041016,11.207031 13.472354,10.680843 12.75496,10.394703 12.064453,10.226563 10.68344,9.8902822 9.34375,10.027344 9.34375,10.027344 l 0.048828,-0.002 z m -0.048828,0.998047 0.023437,0.002 h 2.8359376 l 0.023437,-0.002 c 0,0 1.2141627,-0.111693 2.3867187,0.173828 0.586278,0.14276 1.14623,0.384262 1.535156,0.74414 C 13.752208,12.301284 14,12.761468 14,13.509766 v 0.996093 c 0,0.341883 -0.09134,0.370848 -0.201172,0.429688 C 13.688991,14.994387 13.572266,15 13.572266,15 h -1.857422 c 0,0 -0.118679,-0.0056 -0.228516,-0.06445 -0.109837,-0.05884 -0.201172,-0.0878 -0.201172,-0.429688 v -0.498046 c 0,-0.476786 -0.160464,-0.88774 -0.404297,-1.181641 -0.243832,-0.293901 -0.552248,-0.473126 -0.83789,-0.587891 C 9.4716849,12.008751 8.9277344,12.015625 8.9277344,12.015625 H 7.0722656 c 0,0 -0.5439504,-0.0069 -1.1152344,0.222656 -0.2856419,0.114765 -0.594058,0.29399 -0.8378906,0.587891 -0.2438325,0.293901 -0.4042969,0.704855 -0.4042969,1.181641 v 0.498046 c 0,0.341883 -0.091335,0.370848 -0.2011718,0.429688 C 4.4038349,14.994387 4.2851562,15 4.2851562,15 H 2.4277344 c 0,0 -0.1167256,-0.0056 -0.2265625,-0.06445 C 2.0913349,14.876707 2,14.847742 2,14.505859 v -0.996093 c 0,-0.748298 0.2477922,-1.208482 0.6367188,-1.56836 0.3889265,-0.359878 0.9488781,-0.60138 1.5351562,-0.74414 1.1725561,-0.285521 2.3867187,-0.173828 2.3867187,-0.173828 z"/></svg>