<?xml version="1.0" encoding="UTF-8" standalone="no"?>
<svg
   height="16px"
   viewBox="0 0 16 16"
   width="16px"
   version="1.1"
   id="svg8"
   xmlns="http://www.w3.org/2000/svg"
   xmlns:svg="http://www.w3.org/2000/svg">
  <defs
     id="defs12" />
  <path
     id="path1935"
     style="color:#000000;fill:#241f31;-inkscape-stroke:none;fill-opacity:0.5"
     d="M 5.25 2 C 3.4427957 2 2 3.6036233 2 5.5 L 2 10.5 C 2 12.396377 3.4427957 14 5.25 14 L 7 14 L 7 13 L 5.25 13 C 4.0422339 13 3 11.892682 3 10.5 L 3 5.5 C 3 4.1073179 4.0422339 3 5.25 3 L 10.75 3 C 11.957766 3 13 4.1073179 13 5.5 L 13 7 L 14 7 L 14 5.5 C 14 3.6036234 12.557205 2 10.75 2 L 5.25 2 z " />
  <path
     id="path927"
     style="color:#000000;fill:#241f31;fill-opacity:0.5;stroke-linecap:round;stroke-linejoin:round;-inkscape-stroke:none"
     d="M 8,6 C 6.3490697,6 5,7.3490697 5,9 c 0,1.300625 0.8374397,2.412286 2,2.826172 V 10.734375 C 6.4011279,10.390158 6,9.7450311 6,9 6,8.2549691 6.4011279,7.609842 7,7.265625 7,7 7.5860244,7 8,7 h 2.232422 C 9.6822554,6.3865858 8.884492,6 8,6 Z" />
  <circle
     style="fill:#241f31;fill-opacity:0.5;stroke:none;stroke-width:1;stroke-linecap:round;stroke-linejoin:round;stroke-miterlimit:4;stroke-dasharray:none;stop-color:#000000"
     id="path1119"
     cx="10.5"
     cy="4.5"
     r="0.5" />
  <rect
     style="fill:#241f31;fill-opacity:1;stroke:none;stroke-width:3;stroke-linecap:round;stroke-linejoin:round;stroke-miterlimit:4;stroke-dasharray:none;stop-color:#000000"
     id="rect1960"
     width="8"
     height="8"
     x="8"
     y="8" />
</svg>
