<?xml version="1.0" encoding="UTF-8" standalone="no"?>
<svg
   height="16px"
   viewBox="0 0 16 16"
   width="16px"
   version="1.1"
   id="svg8"
   xmlns="http://www.w3.org/2000/svg"
   xmlns:svg="http://www.w3.org/2000/svg">
  <defs
     id="defs12" />
  <path
     id="path4"
     style="color:#000000;fill:#241f31;-inkscape-stroke:none;fill-opacity:0.5"
     d="M 5.25 2 C 4.9118037 2 4.5868553 2.0564276 4.28125 2.1601562 L 5.1289062 3.0078125 C 5.1692021 3.0053284 5.2092945 3 5.25 3 L 10.75 3 C 11.957766 3 13 4.1073179 13 5.5 L 13 10.5 C 13 10.620374 12.989616 10.737936 12.974609 10.853516 L 13.802734 11.681641 C 13.928266 11.310205 14 10.91267 14 10.5 L 14 5.5 C 14 3.6036234 12.557205 2 10.75 2 L 5.25 2 z M 2.1972656 4.3183594 C 2.071734 4.6897949 2 5.0873303 2 5.5 L 2 10.5 C 2 12.396377 3.4427957 14 5.25 14 L 10.75 14 C 11.088196 14 11.413145 13.943572 11.71875 13.839844 L 10.871094 12.992188 C 10.830798 12.994672 10.790705 13 10.75 13 L 5.25 13 C 4.0422339 13 3 11.892682 3 10.5 L 3 5.5 C 3 5.3796261 3.0103843 5.2620638 3.0253906 5.1464844 L 2.1972656 4.3183594 z " />
  <path
     id="path927"
     style="color:#000000;fill:#241f31;stroke-linecap:round;stroke-linejoin:round;-inkscape-stroke:none;fill-opacity:0.5"
     d="M 8.125 6.0039062 L 10.996094 8.875 C 10.931873 7.3228233 9.6771767 6.0681268 8.125 6.0039062 z M 5.3945312 7.515625 C 5.1433549 7.9538452 5 8.4609743 5 9 C 5 10.65093 6.3490697 12 8 12 C 8.5390257 12 9.0461548 11.856645 9.484375 11.605469 L 8.7382812 10.859375 C 8.5100299 10.949284 8.2614837 11 8 11 C 6.8895093 11 6 10.110491 6 9 C 6 8.7385163 6.0507158 8.4899701 6.140625 8.2617188 L 5.3945312 7.515625 z " />
  <circle
     style="fill:#241f31;fill-opacity:0.5;stroke:none;stroke-width:1;stroke-linecap:round;stroke-linejoin:round;stroke-miterlimit:4;stroke-dasharray:none;stop-color:#000000"
     id="path1119"
     cx="10.5"
     cy="4.5"
     r="0.5" />
  <path
     style="color:#000000;fill:#241f31;stroke-linecap:round;stroke-linejoin:round;-inkscape-stroke:none"
     d="m 2,1.5 a 0.5,0.5 0 0 0 -0.3535156,0.1464844 0.5,0.5 0 0 0 0,0.7070312 L 13.646484,14.353516 a 0.5,0.5 0 0 0 0.707032,0 0.5,0.5 0 0 0 0,-0.707032 L 2.3535156,1.6464844 A 0.5,0.5 0 0 0 2,1.5 Z"
     id="path1478" />
</svg>
