<svg xmlns="http://www.w3.org/2000/svg" xmlns:svg="http://www.w3.org/2000/svg" id="svg4" width="16" height="16" version="1.1" viewBox="0 0 16 16"><path id="path2" style="fill:#241f31" d="M 7.9628906 0.5 A 1.0001 1.0001 0 0 0 7.2402344 0.84960938 L 1.2402344 7.8496094 A 1.0001 1.0001 0 0 0 1 8.5 L 1 9 A 1.0001 1.0001 0 0 0 2 10 L 2 12 A 1.0001 1.0001 0 0 0 1 13 L 1 15 A 1.0001 1.0001 0 0 0 2 16 L 14 16 A 1.0001 1.0001 0 0 0 15 15 L 15 13 A 1.0001 1.0001 0 0 0 14 12 L 14 10 A 1.0001 1.0001 0 0 0 15 9 L 15 8.5 A 1.0001 1.0001 0 0 0 14.759766 7.8496094 L 8.7597656 0.84960938 A 1.0001 1.0001 0 0 0 7.9628906 0.5 z M 8 1.5 L 14 8.5 L 14 9 L 13 9 L 13 13 L 14 13 L 14 15 L 2 15 L 2 13 L 3 13 L 3 9 L 2 9 L 2 8.5 L 8 1.5 z"/><path id="rect1100" style="fill:#241f31;stroke-linecap:round;stroke-linejoin:round;stop-color:#000;stroke:none" d="M 6.5 6 C 6.223 6 6 6.223 6 6.5 L 6 9.5 L 6 12.5 C 6 12.777 6.223 13 6.5 13 C 6.777 13 7 12.777 7 12.5 L 7 10 L 9 10 L 9 12.5 C 9 12.777 9.223 13 9.5 13 C 9.777 13 10 12.777 10 12.5 L 10 9.5 L 10 6.5 C 10 6.223 9.777 6 9.5 6 L 6.5 6 z M 7 7 L 9 7 L 9 9 L 7 9 L 7 7 z"/></svg>