<?xml version="1.0" encoding="UTF-8" standalone="no"?>
<svg
   height="16"
   width="16"
   version="1.1"
   id="svg6"
   xmlns="http://www.w3.org/2000/svg"
   xmlns:svg="http://www.w3.org/2000/svg"
   xmlns:rdf="http://www.w3.org/1999/02/22-rdf-syntax-ns#"
   xmlns:cc="http://creativecommons.org/ns#"
   xmlns:dc="http://purl.org/dc/elements/1.1/">
  <metadata
     id="metadata12">
    <rdf:RDF>
      <cc:Work
         rdf:about="">
        <dc:format>image/svg+xml</dc:format>
        <dc:type
           rdf:resource="http://purl.org/dc/dcmitype/StillImage" />
      </cc:Work>
    </rdf:RDF>
  </metadata>
  <defs
     id="defs10" />
  <path
     style="color:#000000;fill:#241f31;stroke-linecap:round;stroke-linejoin:round;-inkscape-stroke:none"
     d="M 2.5,5 A 0.500048,0.500048 0 0 0 2,5.5 v 9 A 0.500048,0.500048 0 0 0 2.5,15 h 11 A 0.500048,0.500048 0 0 0 14,14.5 v -9 A 0.500048,0.500048 0 0 0 13.5,5 Z M 3,6 h 10 v 8 H 3 Z"
     id="path859" />
  <path
     id="path1108"
     style="color:#000000;fill:#241f31;stroke-width:0.999996;stroke-linecap:round;stroke-linejoin:round;-inkscape-stroke:none"
     d="M 4.5 2 C 4.2238693 2.000016 4.0000279 2.342211 4 2.5 L 4 3 L 5 3 L 5.4589844 3 L 11 3 L 11 3.5 C 11 3.657796 11.223858 4 11.5 4 C 11.776142 4 12 3.657796 12 3.5 L 12 2.5 C 11.999972 2.342211 11.776131 2.000016 11.5 2 L 4.5 2 z " />
</svg>
