<svg xmlns="http://www.w3.org/2000/svg" xmlns:svg="http://www.w3.org/2000/svg" id="svg6" width="16" height="16" version="1.1"><metadata id="metadata12"/><path style="color:#000;fill:#241f31;stroke-linecap:round;stroke-linejoin:round;-inkscape-stroke:none" id="path859" d="M 2.5,5 A 0.500048,0.500048 0 0 0 2,5.5 v 9 A 0.500048,0.500048 0 0 0 2.5,15 h 11 A 0.500048,0.500048 0 0 0 14,14.5 v -9 A 0.500048,0.500048 0 0 0 13.5,5 Z M 3,6 h 10 v 8 H 3 Z"/><path style="color:#000;fill:#241f31;stroke-width:.999996;stroke-linecap:round;stroke-linejoin:round;-inkscape-stroke:none" id="path1108" d="M 4.5,2 C 4.2238693,2.000016 4.0000279,2.342211 4,2.5 v 1 C 4,3.657796 4.2238578,4 4.5,4 4.7761422,4 5,3.657796 5,3.5 V 3 h 6 V 3.5 C 11,3.657796 11.223858,4 11.5,4 11.776142,4 12,3.657796 12,3.5 v -1 C 11.999972,2.342211 11.776131,2.000016 11.5,2 Z"/></svg>