<?xml version="1.0" encoding="UTF-8" standalone="no"?>
<svg
   height="16"
   width="16"
   version="1.1"
   id="svg6"
   xmlns="http://www.w3.org/2000/svg"
   xmlns:svg="http://www.w3.org/2000/svg"
   xmlns:rdf="http://www.w3.org/1999/02/22-rdf-syntax-ns#"
   xmlns:cc="http://creativecommons.org/ns#"
   xmlns:dc="http://purl.org/dc/elements/1.1/">
  <metadata
     id="metadata12">
    <rdf:RDF>
      <cc:Work
         rdf:about="">
        <dc:format>image/svg+xml</dc:format>
        <dc:type
           rdf:resource="http://purl.org/dc/dcmitype/StillImage" />
      </cc:Work>
    </rdf:RDF>
  </metadata>
  <defs
     id="defs10" />
  <path
     id="path859"
     style="color:#000000;fill:#241f31;stroke-linecap:round;stroke-linejoin:round;-inkscape-stroke:none;fill-opacity:0.5"
     d="M 6.4355469 5 L 7.5136719 6 L 13 6 L 13 11.09375 L 14 12.023438 L 14 5.5 A 0.500048 0.500048 0 0 0 13.5 5 L 6.4355469 5 z M 2.1679688 5.1328125 A 0.500048 0.500048 0 0 0 2 5.5 L 2 14.5 A 0.500048 0.500048 0 0 0 2.5 15 L 12.794922 15 L 11.716797 14 L 3 14 L 3 6 L 3.1015625 6 L 2.1679688 5.1328125 z " />
  <path
     id="path1108"
     style="color:#000000;fill:#241f31;stroke-width:0.999996;stroke-linecap:round;stroke-linejoin:round;-inkscape-stroke:none;fill-opacity:0.5"
     d="M 4.5 2 C 4.2238693 2.000016 4.0000279 2.342211 4 2.5 L 4 2.7382812 L 4.9648438 3.6328125 C 4.9867104 3.5830488 5 3.5365309 5 3.5 L 5 3 L 11 3 L 11 3.5 C 11 3.657796 11.223858 4 11.5 4 C 11.776142 4 12 3.657796 12 3.5 L 12 2.5 C 11.999972 2.342211 11.776131 2.000016 11.5 2 L 4.5 2 z " />
  <path
     id="rect1319"
     style="fill:#241f31;fill-opacity:0;stroke:none;stroke-linecap:round;stroke-linejoin:round;stop-color:#000000"
     d="M 6.5 7 C 6.223 7 6 7.223 6 7.5 C 6 7.777 6.223 8 6.5 8 L 9 8 L 9 9 L 7.5253906 9 C 7.516845 8.9995696 7.5086562 9 7.5 9 C 7.223 9 7 9.223 7 9.5 L 7 10.5 C 7 10.777 7.223 11 7.5 11 C 7.777 11 8 10.777 8 10.5 L 8 10 L 9.5 10 C 9.777 10 10 9.777 10 9.5 L 10 7.5 C 10 7.223 9.777 7 9.5 7 L 6.5 7 z " />
  <rect
     style="fill:#241f31;fill-opacity:0;stroke:none;stroke-linecap:round;stroke-linejoin:round;stop-color:#000000"
     id="rect1349"
     width="1"
     height="1"
     x="7"
     y="12"
     rx="0.5"
     ry="0.5" />
  <path
     style="color:#000000;fill:#241f31;stroke-linecap:round;stroke-linejoin:round;-inkscape-stroke:none"
     d="m 2.3378906,2.6308594 a 0.50005,0.50005 0 0 0 -0.7011719,0.035156 0.50005,0.50005 0 0 0 0.025391,0.703125 L 13.662109,14.369141 a 0.50005,0.50005 0 0 0 0.484375,0.101562 0.50005,0.50005 0 0 0 0.335938,-0.365234 0.50005,0.50005 0 0 0 -0.144531,-0.47461 z"
     id="path1699" />
</svg>
