<?xml version="1.0" encoding="UTF-8" standalone="no"?>
<svg
   height="16px"
   viewBox="0 0 16 16"
   width="16px"
   version="1.1"
   id="svg4"
   xmlns="http://www.w3.org/2000/svg"
   xmlns:svg="http://www.w3.org/2000/svg">
  <defs
     id="defs8" />
  <path
     style="color:#000000;fill:#241f31;stroke-linecap:round;stroke-linejoin:round;-inkscape-stroke:none"
     d="M 8,1 C 4.1399329,1 1,4.1399329 1,8 c 0,3.860067 3.1399329,7 7,7 3.860067,0 7,-3.139933 7,-7 C 15,4.1399329 11.860067,1 8,1 Z m 0,1 c 3.319627,0 6,2.6803725 6,6 0,3.319627 -2.680373,6 -6,6 C 4.6803725,14 2,11.319627 2,8 2,4.6803725 4.6803725,2 8,2 Z"
     id="path1216" />
  <path
     style="color:#000000;fill:#241f31;stroke-linecap:round;stroke-linejoin:round;-inkscape-stroke:none"
     d="M 7.5,4 A 0.5,0.5 0 0 0 7,4.5 v 4 A 0.50005,0.50005 0 0 0 7.5,9 h 4 A 0.5,0.5 0 0 0 12,8.5 0.5,0.5 0 0 0 11.5,8 H 8 V 4.5 A 0.5,0.5 0 0 0 7.5,4 Z"
     id="path1401" />
</svg>
