<?xml version="1.0" encoding="UTF-8" standalone="no"?>
<svg
   width="16"
   height="16"
   enable-background="new"
   version="1.1"
   id="svg12"
   xmlns="http://www.w3.org/2000/svg"
   xmlns:svg="http://www.w3.org/2000/svg">
  <defs
     id="defs16" />
  <circle
     style="fill:#241f31;stroke-width:3;stroke-linecap:round;stroke-linejoin:round;stop-color:#000000"
     id="path930"
     cx="3"
     cy="6"
     r="1" />
  <circle
     style="fill:#241f31;stroke-width:3;stroke-linecap:round;stroke-linejoin:round;stop-color:#000000"
     id="path932"
     cx="3"
     cy="11"
     r="1" />
  <path
     style="color:#000000;fill:#241f31;stroke-linecap:round;stroke-linejoin:round;-inkscape-stroke:none"
     d="m 10.570313,2.0058594 a 0.5,0.5 0 0 0 -0.371094,0.09375 c 0,0 -1.0356124,0.7771241 -2.0722659,1.9433593 C 7.0902996,5.209204 6,6.7777795 6,8.5 c 0,1.722221 1.0902996,3.290796 2.1269531,4.457031 1.0366535,1.166235 2.0722659,1.94336 2.0722659,1.94336 a 0.5,0.5 0 0 0 0.701172,-0.09961 0.5,0.5 0 0 0 -0.09961,-0.701172 c 0,0 -0.9643896,-0.722878 -1.9277341,-1.80664 C 7.9097024,11.209206 7,9.7777765 7,8.5 7,7.2222235 7.9097024,5.7907938 8.8730469,4.7070312 9.8363914,3.6232687 10.800781,2.9003906 10.800781,2.9003906 a 0.5,0.5 0 0 0 0.09961,-0.7011718 0.5,0.5 0 0 0 -0.330078,-0.1933594 z"
     id="path967" />
</svg>
