<?xml version="1.0" encoding="UTF-8" standalone="no"?>
<svg
   id="svg12"
   width="16"
   height="16"
   enable-background="new"
   version="1.1"
   sodipodi:docname="computer-fail-symbolic.svg"
   inkscape:version="1.4.2 (ebf0e940d0, 2025-05-08)"
   xmlns:inkscape="http://www.inkscape.org/namespaces/inkscape"
   xmlns:sodipodi="http://sodipodi.sourceforge.net/DTD/sodipodi-0.dtd"
   xmlns="http://www.w3.org/2000/svg"
   xmlns:svg="http://www.w3.org/2000/svg">
  <defs
     id="defs1" />
  <sodipodi:namedview
     id="namedview1"
     pagecolor="#ffffff"
     bordercolor="#111111"
     borderopacity="1"
     inkscape:showpageshadow="0"
     inkscape:pageopacity="0"
     inkscape:pagecheckerboard="1"
     inkscape:deskcolor="#d1d1d1"
     showgrid="true"
     inkscape:zoom="23.5"
     inkscape:cx="7.0638298"
     inkscape:cy="9.7872341"
     inkscape:window-width="2560"
     inkscape:window-height="955"
     inkscape:window-x="0"
     inkscape:window-y="0"
     inkscape:window-maximized="1"
     inkscape:current-layer="svg12">
    <inkscape:grid
       id="grid1"
       units="px"
       originx="0"
       originy="0"
       spacingx="1"
       spacingy="1"
       empcolor="#0099e5"
       empopacity="0.30196078"
       color="#0099e5"
       opacity="0.14901961"
       empspacing="5"
       enabled="true"
       visible="true" />
  </sodipodi:namedview>
  <circle
     style="fill:#241f31;stroke-width:3;stroke-linecap:round;stroke-linejoin:round;stop-color:#000"
     id="path930"
     cx="3"
     cy="6"
     r="1" />
  <circle
     style="fill:#241f31;stroke-width:3;stroke-linecap:round;stroke-linejoin:round;stop-color:#000"
     id="path932"
     cx="3"
     cy="11"
     r="1" />
  <path
     style="baseline-shift:baseline;display:inline;overflow:visible;vector-effect:none;fill:#241f31;stroke-linecap:round;stroke-linejoin:round;enable-background:accumulate;stop-color:#000000;stop-opacity:1;opacity:1"
     d="M 11.496094,1.0058594 C 9.9270965,1.019296 8.7213798,1.9855231 7.9765625,3.3085938 7.2317452,4.6316644 6.8808594,6.3274333 6.8808594,8.0195313 c 0,1.6920979 0.3502007,3.3837827 1.0957031,4.7011717 0.7455024,1.31739 1.9544191,2.274519 3.5234375,2.273438 A 0.49415499,0.49415499 0 0 0 11.994141,14.5 0.49415499,0.49415499 0 0 0 11.5,14.005859 C 10.319018,14.006673 9.4654351,13.346771 8.8359375,12.234375 8.2064399,11.121979 7.8691406,9.5720196 7.8691406,8.0195313 c 0,-1.5524884 0.3366142,-3.105172 0.9667969,-4.2246094 C 9.4661202,2.6754845 10.322903,2.0042545 11.503906,1.9941406 A 0.49415499,0.49415499 0 0 0 11.994141,1.4960937 0.49415499,0.49415499 0 0 0 11.496094,1.0058594 Z"
     id="path1" />
</svg>
