<svg xmlns="http://www.w3.org/2000/svg" xmlns:svg="http://www.w3.org/2000/svg" id="svg10" width="16" height="16" version="1.1"><path id="path2" fill="#363636" fill-rule="evenodd" d="m 0,15 v 1 h 15 v -1 z" color="#000" font-family="sans-serif" font-weight="400" overflow="visible" style="line-height:normal;font-variant-ligatures:normal;font-variant-position:normal;font-variant-caps:normal;font-variant-numeric:normal;font-variant-alternates:normal;font-feature-settings:normal;text-indent:0;text-align:start;text-decoration-line:none;text-decoration-style:solid;text-decoration-color:#000;text-transform:none;text-orientation:mixed;shape-padding:0;isolation:auto;mix-blend-mode:normal;fill:#241f31" white-space="normal"/><path id="path4" d="m 0.5,2.000003 a 0.5,0.5 0 0 1 0,-0.9999995 h 1 a 0.5,0.5 0 0 1 0,0.9999995 z" style="fill:#241f31"/><path id="path1024" d="m 13.001953,1.4804725 c 7.41e-4,-0.019136 0.003,-0.038128 0.0059,-0.056641 a 0.5,0.5 0 0 1 0.01563,-0.068359 0.5,0.5 0 0 1 0.0059,-0.017578 0.5,0.5 0 0 1 0.02734,-0.0625 c 0.0074,-0.014666 0.01466,-0.029187 0.02344,-0.042969 a 0.5,0.5 0 0 1 0.03125,-0.042969 0.5,0.5 0 0 1 0.02344,-0.029297 0.5,0.5 0 0 1 0.05664,-0.048828 0.5,0.5 0 0 1 0.02149,-0.019531 0.5,0.5 0 0 1 0.06836,-0.039063 0.5,0.5 0 0 1 0.01758,-0.00976 A 0.5,0.5 0 0 1 13.5,1.0000035 h 1 a 0.5,0.5 0 0 1 0.201172,0.042969 0.5,0.5 0 0 1 0.01758,0.00976 0.5,0.5 0 0 1 0.06836,0.039063 0.5,0.5 0 0 1 0.02149,0.019531 0.5,0.5 0 0 1 0.05664,0.048828 0.5,0.5 0 0 1 0.02344,0.029297 0.5,0.5 0 0 1 0.03125,0.042969 c 0.0088,0.013782 0.01602,0.028303 0.02344,0.042969 a 0.5,0.5 0 0 1 0.02734,0.0625 0.5,0.5 0 0 1 0.0059,0.017578 0.5,0.5 0 0 1 0.01563,0.068359 c 0.0028,0.018513 0.0051,0.037505 0.0059,0.056641 A 0.5,0.5 0 0 1 14.5,2.000003 h -1 A 0.5,0.5 0 0 1 13.001953,1.4804725 Z" style="fill:#241f31"/><path style="color:#000;fill:#241f31;-inkscape-stroke:none" id="path1131" d="M 3.0078125,0 3.0625,0.54882812 C 3.3074108,3.0142083 5.1652244,5 7.5,5 9.8347755,5 11.695488,3.014464 11.939453,0.54882812 L 11.994141,0 Z M 4,1 h 7 C 10.584712,2.7001464 9.0735504,4 7.5,4 5.9264495,4 4.4157338,2.7003171 4,1 Z"/><path id="path1022" d="M 12.449219,5.949222 A 0.498,0.498 0 0 1 12.095703,5.802738 L 11.388672,5.095707 a 0.49994677,0.49994677 0 1 1 0.707031,-0.707032 l 0.707031,0.707032 a 0.499,0.499 0 0 1 -0.353515,0.853515 z" style="fill:#241f31"/><path id="path1020" d="m 2.5507812,5.951175 a 0.5,0.5 0 0 1 -0.3535156,-0.148437 0.499,0.499 0 0 1 0,-0.707031 L 2.9042969,4.388675 a 0.498,0.498 0 0 1 0.7070312,0 0.499,0.499 0 0 1 0,0.707032 L 2.9042969,5.802738 A 0.5,0.5 0 0 1 2.5507812,5.951175 Z" style="fill:#241f31"/><path style="color:#000;fill:#241f31;stroke-linecap:round;stroke-linejoin:round;-inkscape-stroke:none" id="path1328" d="m 7.85344,11.85344 3,-2.9999996 a 0.5,0.5 0 0 0 0,-0.7070312 0.5,0.5 0 0 0 -0.707031,0 L 7.4999244,10.792894 4.8534408,8.1464092 a 0.5,0.5 0 0 0 -0.707032,0 0.5,0.5 0 0 0 0,0.7070312 l 3,2.9999996 a 0.50005,0.50005 0 0 0 0.7070312,0 z"/></svg>