<?xml version="1.0" encoding="UTF-8" standalone="no"?>
<svg
   width="16"
   height="16"
   version="1.1"
   id="svg10"
   xmlns="http://www.w3.org/2000/svg"
   xmlns:svg="http://www.w3.org/2000/svg">
  <defs
     id="defs14" />
  <path
     color="#000000"
     d="m 0,15 v 1 h 15 v -1 z"
     fill="#363636"
     fill-rule="evenodd"
     font-family="sans-serif"
     font-weight="400"
     overflow="visible"
     style="line-height:normal;font-variant-ligatures:normal;font-variant-position:normal;font-variant-caps:normal;font-variant-numeric:normal;font-variant-alternates:normal;font-feature-settings:normal;text-indent:0;text-align:start;text-decoration-line:none;text-decoration-style:solid;text-decoration-color:#000000;text-transform:none;text-orientation:mixed;shape-padding:0;isolation:auto;mix-blend-mode:normal;fill:#241f31"
     white-space="normal"
     id="path2" />
  <path
     id="path4"
     d="m 0.5,12 a 0.5,0.5 0 0 0 0,1 h 1 a 0.5,0.5 0 0 0 0,-1 z"
     style="fill:#241f31" />
  <path
     id="path1024"
     d="m 13.001953,12.519531 c 7.41e-4,0.01914 0.003,0.03813 0.0059,0.05664 a 0.5,0.5 0 0 0 0.01563,0.06836 0.5,0.5 0 0 0 0.0059,0.01758 0.5,0.5 0 0 0 0.02734,0.0625 c 0.0074,0.01467 0.01466,0.02919 0.02344,0.04297 a 0.5,0.5 0 0 0 0.03125,0.04297 0.5,0.5 0 0 0 0.02344,0.0293 0.5,0.5 0 0 0 0.05664,0.04883 0.5,0.5 0 0 0 0.02149,0.01953 0.5,0.5 0 0 0 0.06836,0.03906 0.5,0.5 0 0 0 0.01758,0.0098 A 0.5,0.5 0 0 0 13.5,13 h 1 a 0.5,0.5 0 0 0 0.201172,-0.04297 0.5,0.5 0 0 0 0.01758,-0.0098 0.5,0.5 0 0 0 0.06836,-0.03906 0.5,0.5 0 0 0 0.02149,-0.01953 0.5,0.5 0 0 0 0.05664,-0.04883 0.5,0.5 0 0 0 0.02344,-0.0293 0.5,0.5 0 0 0 0.03125,-0.04297 c 0.0088,-0.01378 0.01602,-0.0283 0.02344,-0.04297 a 0.5,0.5 0 0 0 0.02734,-0.0625 0.5,0.5 0 0 0 0.0059,-0.01758 0.5,0.5 0 0 0 0.01563,-0.06836 c 0.0028,-0.01851 0.0051,-0.0375 0.0059,-0.05664 A 0.5,0.5 0 0 0 14.5,12 h -1 a 0.5,0.5 0 0 0 -0.498047,0.519531 z"
     style="fill:#241f31" />
  <path
     style="color:#000000;fill:#241f31;-inkscape-stroke:none"
     d="M 7.5,9 C 5.1652244,9 3.3074108,10.985791 3.0625,13.451172 L 3.0078125,14 h 8.9863285 l -0.05469,-0.548828 C 11.695488,10.985536 9.8347755,9 7.5,9 Z m 0,1 c 1.5735504,0 2.781978,1.299853 3.197266,3 H 4.3027344 C 4.7184682,11.299683 5.9264495,10 7.5,10 Z"
     id="path1131" />
  <path
     id="path1022"
     d="M 12.449219,8.0507812 A 0.498,0.498 0 0 0 12.095703,8.1972656 L 11.388672,8.9042969 A 0.49994645,0.49994645 0 1 0 12.095703,9.611328 L 12.802734,8.9042969 A 0.499,0.499 0 0 0 12.449219,8.0507812 Z"
     style="fill:#241f31" />
  <path
     id="path1020"
     d="m 2.5507812,8.0488281 a 0.5,0.5 0 0 0 -0.3535156,0.1484375 0.499,0.499 0 0 0 0,0.7070313 L 2.9042969,9.611328 a 0.498,0.498 0 0 0 0.7070312,0 0.499,0.499 0 0 0 0,-0.7070311 L 2.9042969,8.1972656 A 0.5,0.5 0 0 0 2.5507812,8.0488281 Z"
     style="fill:#241f31" />
  <path
     style="color:#000000;fill:#241f31;stroke-linecap:round;stroke-linejoin:round;-inkscape-stroke:none"
     d="m 7.1464088,2.1463881 -3,3 a 0.5,0.5 0 0 0 0,0.7070312 0.5,0.5 0 0 0 0.7070312,0 L 7.4999244,3.206935 10.146408,5.8534193 a 0.5,0.5 0 0 0 0.707032,0 0.5,0.5 0 0 0 0,-0.7070312 l -3,-3 a 0.50005,0.50005 0 0 0 -0.7070312,0 z"
     id="path1328" />
</svg>
