<?xml version="1.0" encoding="UTF-8" standalone="no"?>
<svg
   height="16"
   width="16"
   version="1.1"
   id="svg4"
   xmlns="http://www.w3.org/2000/svg"
   xmlns:svg="http://www.w3.org/2000/svg">
  <defs
     id="defs8" />
  <path
     id="path933"
     style="text-indent:0;text-transform:none;fill:#241f31;fill-opacity:1;stroke:none;stroke-width:1;marker:none"
     d="M 7.5,1 C 3.3525,1 0,4.3525 0,8.5 0,12.6475 3.3525,16 7.5,16 11.6475,16 15,12.6475 15,8.5 15,4.3525 11.6475,1 7.5,1 Z m 0,0.9375 c 3.628125,0 6.5625,2.934375 6.5625,6.5625 0,3.628125 -2.934375,6.5625 -6.5625,6.5625 -3.628125,0 -6.5625,-2.934375 -6.5625,-6.5625 0,-3.628125 2.934375,-6.5625 6.5625,-6.5625 z" />
  <g
     aria-label="?"
     id="text3019"
     class="error"
     style="font-size:10px;line-height:1.25;fill:#241f31;stroke-width:0.822765"
     transform="matrix(1.3704725,0,0,1.0778948,-0.5190294,1.7663153)">
    <path
       d="m 5.4864505,9.4941405 0.7296753,4e-7 V 10.421875 H 5.4864505 Z m 0.7296753,-0.927734 -0.7296753,-3e-7 V 6.7109376 c 0,-0.9277344 0.7296753,-0.9277344 1.4593506,-0.9277343 0.7296754,-1e-7 0.7296754,-0.9277344 0.7296754,-0.9277344 0,0 0,-0.9277344 -0.7296754,-0.9277344 l -2.9187013,10e-8 V 3.0000003 h 3.6483767 c 0.7296753,0 0.7296753,0.9277343 0.7296753,0.9277343 v 1.8554686 c 0,0 0,0.9277344 -0.7296753,0.9277344 l -1.4593507,10e-8 z"
       id="path8642"
       style="fill:#241f31;stroke-width:0.822765" />
  </g>
</svg>
