<?xml version="1.0" encoding="UTF-8" standalone="no"?>
<svg
   width="16"
   height="16"
   version="1.1"
   id="svg10"
   xmlns="http://www.w3.org/2000/svg"
   xmlns:svg="http://www.w3.org/2000/svg">
  <defs
     id="defs14" />
  <path
     class="warning"
     d="m 8.5167877,2.9999999 c -0.6990975,0 -1.2948821,0.3443662 -1.610675,0.860924 -0.00366,-1.96e-5 -0.00733,-1.96e-5 -0.010996,0 L 1.2367398,13.50328 c -0.00463,0.02853 -0.041333,0.08609 -0.041333,0.08609 -0.29059322,0.516548 -0.2689024,1.11915 0.1036318,1.635795 C 1.6301516,15.655633 2.2748438,16 2.8510767,16 H 14.209675 c 0.622402,0 1.237935,-0.344367 1.564892,-0.860924 0.248112,-0.344367 0.26074,-0.774829 0.170412,-1.205274 -0.0013,-0.118776 -0.02938,-0.236029 -0.08246,-0.344365 -0.0087,-0.02919 -0.01911,-0.05791 -0.03115,-0.08609 L 10.130778,3.8609846 c -0.0018,-4.9e-6 -0.0037,-4.9e-6 -0.0055,0 C 9.7977133,3.3444268 9.1536027,3.0000606 8.5164818,3.0000606 Z m 0,0.860924 c 0.3302032,0 0.6262567,0.1721917 0.7897636,0.4304621 l 5.7005957,9.642357 c 0.130895,0.25827 0.129573,0.516557 -0.03664,0.774827 -0.133138,0.258271 -0.430721,0.430462 -0.760445,0.430462 H 2.8514579 c -0.3306161,0 -0.5946587,-0.172191 -0.7586065,-0.344366 -0.1639571,-0.25827 -0.1624748,-0.602637 -0.029319,-0.860923 L 7.721911,4.291386 C 7.8881477,4.0331156 8.1865374,3.8609239 8.5171723,3.8609239 Z"
     id="path2"
     style="fill:#ff7800;stroke-width:0.999997" />
  <rect
     style="fill:#ff7800;stroke:none;stroke-linecap:round;stroke-linejoin:round;stop-color:#000000"
     id="rect938"
     width="1"
     height="5"
     x="8"
     y="7"
     rx="0.5"
     ry="0.5" />
  <rect
     style="fill:#ff7800;stroke:none;stroke-linecap:round;stroke-linejoin:round;stop-color:#000000"
     id="rect940"
     width="1"
     height="1"
     x="8"
     y="13"
     rx="0.5"
     ry="0.5" />
</svg>
