<?xml version="1.0" encoding="UTF-8" standalone="no"?>
<svg
   width="16"
   height="16"
   version="1.1"
   id="svg10"
   xmlns="http://www.w3.org/2000/svg"
   xmlns:svg="http://www.w3.org/2000/svg">
  <defs
     id="defs14" />
  <path
     class="warning"
     d="m 8.5167877,0.99999993 c -0.6990975,0 -1.2948821,0.37085587 -1.610675,0.92714897 -0.00366,-2.11e-5 -0.00733,-2.11e-5 -0.010996,0 L 1.2367398,12.311225 c -0.00463,0.03073 -0.041333,0.09271 -0.041333,0.09271 C 0.90481358,12.96022 0.9265044,13.609176 1.2990386,14.165563 1.6301516,14.629144 2.2748438,15 2.8510767,15 H 14.209675 c 0.622402,0 1.237935,-0.370856 1.564892,-0.927149 0.248112,-0.370856 0.26074,-0.834431 0.170412,-1.297987 -0.0013,-0.127913 -0.02938,-0.254185 -0.08246,-0.370855 -0.0087,-0.03144 -0.01911,-0.06236 -0.03115,-0.09271 L 10.130778,1.9272142 c -0.0018,-5.2e-6 -0.0037,-5.2e-6 -0.0055,0 C 9.7977133,1.3709212 9.1536027,1.0000653 8.5164818,1.0000653 Z m 0,0.92714897 c 0.3302032,0 0.6262567,0.1854372 0.7897636,0.4635746 L 15.007147,12.7748 c 0.130895,0.278137 0.129573,0.556293 -0.03664,0.83443 -0.133138,0.278138 -0.430721,0.463574 -0.760445,0.463574 H 2.8514579 c -0.3306161,0 -0.5946587,-0.185436 -0.7586065,-0.370856 C 1.9288943,13.423811 1.9303766,13.052955 2.0635324,12.7748 L 7.721911,2.3907235 C 7.8881477,2.1125861 8.1865374,1.9271489 8.5171723,1.9271489 Z"
     id="path2"
     style="fill:#ff7800;stroke-width:0.999997" />
  <rect
     style="fill:#ff7800;stroke:none;stroke-linecap:round;stroke-linejoin:round;stop-color:#000000"
     id="rect938"
     class="warning"
     width="1"
     height="5"
     x="8"
     y="5"
     rx="0.5"
     ry="0.5" />
  <rect
     style="fill:#ff7800;stroke:none;stroke-linecap:round;stroke-linejoin:round;stop-color:#000000"
     id="rect940"
     class="warning"
     width="1"
     height="1"
     x="8"
     y="11"
     rx="0.5"
     ry="0.5" />
</svg>
