<?xml version="1.0" encoding="UTF-8" standalone="no"?>
<svg
   width="16"
   height="16"
   version="1.1"
   id="svg8"
   xmlns="http://www.w3.org/2000/svg"
   xmlns:svg="http://www.w3.org/2000/svg">
  <defs
     id="defs12" />
  <path
     id="path2"
     style="isolation:auto;mix-blend-mode:normal;fill:#241f31;fill-opacity:1"
     d="M 7.25 14 A 0.25 0.25 0 0 0 7 14.25 L 7 15.75 C 7 15.889 7.112 16 7.25 16 L 7.75 16 A 0.25 0.25 0 0 0 8 15.75 L 8 14.25 A 0.25 0.25 0 0 0 7.75 14 L 7.25 14 z " />
  <path
     id="path954"
     style="isolation:auto;mix-blend-mode:normal;fill:#241f31;fill-opacity:0.5"
     d="M 11.742188 12.138672 A 0.248 0.248 0 0 0 11.566406 12.212891 L 11.212891 12.566406 A 0.25 0.25 0 0 0 11.212891 12.919922 L 12.273438 13.980469 A 0.25 0.25 0 0 0 12.626953 13.980469 L 12.980469 13.626953 A 0.25 0.25 0 0 0 12.980469 13.273438 L 11.921875 12.212891 A 0.252 0.252 0 0 0 11.742188 12.138672 z " />
  <path
     id="path952"
     style="isolation:auto;mix-blend-mode:normal;fill:#241f31;fill-opacity:1"
     d="M 3.2578125 12.138672 A 0.252 0.252 0 0 0 3.0800781 12.212891 L 2.0195312 13.273438 A 0.25 0.25 0 0 0 2.0195312 13.626953 L 2.3730469 13.980469 A 0.25 0.25 0 0 0 2.7265625 13.980469 L 3.7871094 12.919922 A 0.25 0.25 0 0 0 3.7871094 12.566406 L 3.4335938 12.212891 A 0.248 0.248 0 0 0 3.2578125 12.138672 z " />
  <path
     id="path835"
     style="isolation:auto;mix-blend-mode:normal;fill:#241f31;fill-opacity:1"
     d="M 0.25 8 A 0.25 0.25 0 0 0 0 8.25 L 0 8.75 C 0 8.889 0.112 9 0.25 9 L 1.75 9 A 0.25 0.25 0 0 0 2 8.75 L 2 8.25 A 0.25 0.25 0 0 0 1.75 8 L 0.25 8 z " />
  <path
     id="path877"
     style="isolation:auto;mix-blend-mode:normal;fill:#241f31;fill-opacity:1"
     d="M 7.5 5 A 3.5 3.5 0 0 0 6.8964844 5.0585938 A 3.5 3.5 0 0 0 6.7363281 5.0898438 A 3.5 3.5 0 0 0 6.1601562 5.265625 A 3.5 3.5 0 0 0 5.625 5.5527344 A 3.5 3.5 0 0 0 5.4960938 5.6386719 A 3.5 3.5 0 0 0 5.0253906 6.0253906 A 3.5 3.5 0 0 0 4.6386719 6.4960938 A 3.5 3.5 0 0 0 4.5527344 6.625 A 3.5 3.5 0 0 0 4.265625 7.1601562 A 3.5 3.5 0 0 0 4.0898438 7.7363281 A 3.5 3.5 0 0 0 4.0585938 7.8964844 A 3.5 3.5 0 0 0 4 8.5 A 3.5 3.5 0 0 0 4.0585938 9.1035156 A 3.5 3.5 0 0 0 4.0898438 9.2636719 A 3.5 3.5 0 0 0 4.265625 9.8398438 A 3.5 3.5 0 0 0 4.5527344 10.375 A 3.5 3.5 0 0 0 4.6386719 10.503906 A 3.5 3.5 0 0 0 5.0253906 10.974609 A 3.5 3.5 0 0 0 5.4960938 11.361328 A 3.5 3.5 0 0 0 5.625 11.447266 A 3.5 3.5 0 0 0 6.1601562 11.734375 A 3.5 3.5 0 0 0 6.7363281 11.910156 A 3.5 3.5 0 0 0 6.8964844 11.941406 A 3.5 3.5 0 0 0 7.5 12 A 3.5 3.5 0 0 0 8 11.960938 L 8 10.943359 A 2.5 2.5 0 0 1 7.5 11 A 2.5 2.5 0 0 1 5 8.5 A 2.5 2.5 0 0 1 7.5 6 A 2.5 2.5 0 0 1 8 6.0507812 L 8 5.0410156 A 3.5 3.5 0 0 0 7.5 5 z " />
  <path
     id="path831"
     style="isolation:auto;mix-blend-mode:normal;fill:#241f31;fill-opacity:0.5"
     d="M 7.5 5 A 3.5 3.5 0 0 1 8 5.0410156 L 8 6.0507812 A 2.5 2.5 0 0 1 10 8.5 A 2.5 2.5 0 0 1 8 10.943359 L 8 11.960938 A 3.5 3.5 0 0 0 11 8.5 A 3.5 3.5 0 0 0 7.5 5 z M 13.25 8 A 0.25 0.25 0 0 0 13 8.25 L 13 8.75 C 13 8.889 13.112 9 13.25 9 L 14.75 9 A 0.25 0.25 0 0 0 15 8.75 L 15 8.25 A 0.25 0.25 0 0 0 14.75 8 L 13.25 8 z " />
  <path
     id="path829"
     style="isolation:auto;mix-blend-mode:normal;fill:#241f31;fill-opacity:0.5"
     d="M 12.449219 2.9472656 A 0.246 0.246 0 0 0 12.273438 3.0195312 L 11.214844 4.0800781 A 0.25 0.25 0 0 0 11.214844 4.4335938 L 11.566406 4.7871094 A 0.25 0.25 0 0 0 11.919922 4.7871094 L 12.980469 3.7265625 A 0.25 0.25 0 0 0 12.980469 3.3730469 L 12.626953 3.0195312 A 0.25 0.25 0 0 0 12.449219 2.9472656 z " />
  <path
     id="path827"
     style="isolation:auto;mix-blend-mode:normal;fill:#241f31;fill-opacity:1"
     d="M 2.5507812 2.9472656 A 0.25 0.25 0 0 0 2.3730469 3.0195312 L 2.0195312 3.3730469 A 0.25 0.25 0 0 0 2.0195312 3.7265625 L 3.0800781 4.7871094 A 0.25 0.25 0 0 0 3.4335938 4.7871094 L 3.7871094 4.4335938 A 0.25 0.25 0 0 0 3.7871094 4.0800781 L 2.7265625 3.0195312 A 0.246 0.246 0 0 0 2.5507812 2.9472656 z " />
  <path
     id="path825"
     style="isolation:auto;mix-blend-mode:normal;fill:#241f31;fill-opacity:1"
     d="M 7.25 1 A 0.25 0.25 0 0 0 7 1.25 L 7 2.75 C 7 2.889 7.112 3 7.25 3 L 7.75 3 A 0.25 0.25 0 0 0 8 2.75 L 8 1.25 A 0.25 0.25 0 0 0 7.75 1 L 7.25 1 z " />
</svg>
