<svg xmlns="http://www.w3.org/2000/svg" xmlns:svg="http://www.w3.org/2000/svg" id="svg5" width="16" height="16" version="1.1" viewBox="0 0 16 16"><path style="color:#000;fill:#241f31;stroke-width:1;-inkscape-stroke:none;fill-opacity:1" id="path974" d="M 7.9999982,2.5 C 3.0136237,2.5 0.11869433,7.7421875 0.11869433,7.7421875 L 0,7.9550781 0.08582516,8.1855469 c 0,0 2.04479484,5.3144531 7.91417314,5.3144531 5.8693787,0 7.9141737,-5.3144531 7.9141737,-5.3144531 L 16,7.9550781 15.881305,7.7421875 C 15.881302,7.7421875 12.986373,2.5 7.9999982,2.5 Z m 0,1 C 12.160393,3.5 14.662319,7.6352328 14.900704,8.0371094 14.742886,8.441395 13.095539,12.5 7.9999982,12.5 2.9044571,12.5 1.2571105,8.441395 1.0992921,8.0371094 1.3376779,7.6352328 3.8396035,3.5 7.9999982,3.5 Z"/><path style="color:#000;fill:#241f31;stroke-linecap:round;stroke-linejoin:round;-inkscape-stroke:none" id="path927" d="M 8,5 C 6.3490697,5 5,6.3490697 5,8 5,9.6509303 6.3490697,11 8,11 9.6509303,11 11,9.6509303 11,8 11,6.3490697 9.6509303,5 8,5 Z m 0,1 c 1.1104907,0 2,0.8895093 2,2 0,1.1104907 -0.8895093,2 -2,2 C 6.8895093,10 6,9.1104907 6,8 6,6.8895093 6.8895093,6 8,6 Z"/></svg>