<?xml version="1.0" encoding="UTF-8" standalone="no"?>
<svg
   height="16px"
   viewBox="0 0 16 16"
   width="16px"
   version="1.1"
   id="svg4"
   xmlns="http://www.w3.org/2000/svg"
   xmlns:svg="http://www.w3.org/2000/svg">
  <defs
     id="defs8" />
  <path
     style="color:#000000;fill:#241f31;stroke-linecap:round;stroke-linejoin:round;-inkscape-stroke:none"
     d="M 8,1 C 4.1399332,1 1,4.1399332 1,8 c 0,3.860067 3.1399332,7 7,7 3.860067,0 7,-3.139933 7,-7 C 15,4.1399332 11.860067,1 8,1 Z m 0,1 c 3.319627,0 6,2.6803728 6,6 0,3.319627 -2.680373,6 -6,6 C 4.6803728,14 2,11.319627 2,8 2,4.6803728 4.6803728,2 8,2 Z"
     id="path844" />
  <path
     style="color:#000000;fill:#241f31;stroke-linecap:round;stroke-linejoin:round;-inkscape-stroke:none"
     d="m 6.6601562,1.2265625 a 0.499998,0.499998 0 0 0 -0.6347656,0.3125 c 0,0 -2.3133029,6.6857838 0.00586,12.8378905 a 0.499998,0.499998 0 0 0 0.6445312,0.291016 0.499998,0.499998 0 0 0 0.2910157,-0.644531 C 4.811101,8.3049628 6.9726562,1.8613281 6.9726562,1.8613281 a 0.499998,0.499998 0 0 0 -0.3125,-0.6347656 z"
     id="path1063" />
  <path
     style="color:#000000;fill:#241f31;stroke-linecap:round;stroke-linejoin:round;-inkscape-stroke:none"
     d="M 9.3378906,1.2265625 A 0.5,0.5 0 0 0 9.0273438,1.8613281 c 0,0 2.1621722,6.4438015 0.00391,12.1621099 A 0.5,0.5 0 0 0 9.3242188,14.667969 0.5,0.5 0 0 0 9.96875,14.376953 c 2.322058,-6.1522733 0.00391,-12.8378905 0.00391,-12.8378905 a 0.5,0.5 0 0 0 -0.6347657,-0.3125 z"
     id="path1063-3" />
  <path
     style="color:#000000;fill:#241f31;stroke-linecap:round;stroke-linejoin:round;-inkscape-stroke:none"
     d="M 2,7.5 A 0.5,0.5 0 0 0 1.5,8 0.5,0.5 0 0 0 2,8.5 H 14 A 0.5,0.5 0 0 0 14.5,8 0.5,0.5 0 0 0 14,7.5 Z"
     id="path1294" />
</svg>
