<?xml version="1.0" encoding="UTF-8" standalone="no"?>
<svg
   height="16px"
   viewBox="0 0 16 16"
   width="16px"
   version="1.1"
   id="svg4"
   xmlns="http://www.w3.org/2000/svg"
   xmlns:svg="http://www.w3.org/2000/svg">
  <defs
     id="defs8" />
  <path
     id="path925"
     style="color:#000000;fill:#241f31;stroke-width:0.999995;stroke-linecap:round;stroke-linejoin:round;-inkscape-stroke:none"
     d="M 8,1 C 7.0496389,1 6.1432592,1.1907902 5.3164062,1.5351562 c -0.00459,0.00189 -0.00914,0.00384 -0.013672,0.00586 C 2.7777856,2.5989215 1,5.0947982 1,8 c 0,2.905202 1.7777856,5.401079 4.3027344,6.458984 0.00453,0.002 0.00909,0.004 0.013672,0.0059 C 6.1432592,14.80921 7.0496389,15 8,15 c 0.9503612,0 1.8567408,-0.19079 2.683594,-0.535156 0.0046,-0.0019 0.0091,-0.0038 0.01367,-0.0059 C 13.222214,13.401079 15,10.905202 15,8 15,5.0985083 13.226847,2.605145 10.707031,1.5449219 10.685526,1.5348934 10.663335,1.5264083 10.640625,1.5195312 9.8251491,1.1861596 8.9342378,1 8,1 Z m 0,0.875 c 0.7008584,0 1.3733172,0.1181875 2,0.3339844 V 8 H 6 V 2.2089844 C 6.6266828,1.9931875 7.2991417,1.875 8,1.875 Z M 5,2.6582031 V 8 H 2 C 2,8 2.0343538,7.989729 2,8 2,5 3.265499,3.63285 5,2.6582031 Z m 6,0 C 12.732309,3.6316182 14,5 14,8 c -0.103516,0.4882812 0.03482,2.911e-4 0,0 H 11 Z M 2,9 C 2,9 1.964245,8.99729 2,9 h 3 v 4.341797 C 3.265499,12.36715 2.1617438,11.092875 2,9 Z m 12,0 c -0.161744,2.092875 -1.265499,3.36715 -3,4.341797 V 9 h 3 c 0,0.5 -0.03435,0.010273 0,0 z M 6,9 h 4 v 4.791016 C 9.3733172,14.006813 8.7008584,14.125 8,14.125 c -0.7008583,0 -1.3733172,-0.118187 -2,-0.333984 z" />
</svg>
