<?xml version="1.0" encoding="UTF-8" standalone="no"?>
<svg
   height="16"
   version="1.1"
   width="16"
   id="svg8"
   xmlns="http://www.w3.org/2000/svg"
   xmlns:svg="http://www.w3.org/2000/svg">
  <defs
     id="defs12" />
  <path
     id="path4"
     style="fill:#241f31;stroke-width:0.999994;fill-opacity:0.5"
     d="M 8.5,0 C 5.4626206,0 3,2.5067785 3,5.5996094 c 0,1.106411 0.3155735,2.1319907 0.859375,3 0.026244,0.0424 0.046875,0.083399 0.074219,0.125 l 0.421875,0.7988281 1.9003906,-1.9003906 c -0.331908,-0.4626867 -0.53125,-1.0315983 -0.53125,-1.6484375 0,-1.5464161 1.2311935,-2.7988282 2.75,-2.7988282 0.623772,0 1.1987676,0.2120168 1.6601566,0.5683594 L 12.3125,1.5664062 C 11.32368,0.59720902 9.9809372,0 8.5,0 Z m 5.34375,4.2773438 C 11,7 9,9 5.8242188,12.296875 l 1.5214843,2.878906 C 7.5059896,15.644586 7.9591737,16 8.4746094,16 8.9900454,16 9.4197901,15.644588 9.5800781,15.175781 L 13.386719,8.1757812 C 13.778796,7.4053733 14,6.5266584 14,5.5996094 14,5.1436622 13.944736,4.7016805 13.84375,4.2773438 Z" />
  <path
     style="color:#000000;fill:#241f31;stroke-linecap:round;stroke-linejoin:round;-inkscape-stroke:none;fill-opacity:0.5"
     d="M 14.630859,1.0175781 A 0.50005,0.50005 0 0 0 14.152344,1.140625 L 1.140625,14.152344 a 0.50005,0.50005 0 0 0 0.7070312,0.707031 L 14.859375,1.8476562 A 0.50005,0.50005 0 0 0 14.982422,1.3691406 0.50005,0.50005 0 0 0 14.630859,1.0175781 Z"
     id="path1058" />
</svg>
