<?xml version="1.0" encoding="UTF-8" standalone="no"?>
<svg
   height="16"
   version="1.1"
   width="16"
   id="svg8"
   xmlns="http://www.w3.org/2000/svg"
   xmlns:svg="http://www.w3.org/2000/svg">
  <defs
     id="defs12" />
  <path
     id="path4"
     style="fill:#241f31;fill-opacity:0.5;stroke-width:0.999994"
     d="M 8.5 0 C 7.1235035 -1.3759018e-16 5.8668307 0.51615006 4.9023438 1.3671875 L 7.1113281 3.5761719 C 7.524672 3.3229555 8.0078762 3.1757812 8.5253906 3.1757812 C 10.044197 3.1757813 11.275391 4.4281933 11.275391 5.9746094 C 11.275391 6.4829984 11.13773 6.9585019 10.904297 7.3691406 L 12.787109 9.2519531 L 13.066406 8.7246094 C 13.093756 8.6830084 13.114385 8.6420094 13.140625 8.5996094 C 13.684427 7.7316001 14 6.7060204 14 5.5996094 C 14 2.5067785 11.537379 1.739427e-17 8.5 0 z M 3.0917969 6.6269531 C 3.1913408 7.1755213 3.3694086 7.696586 3.6132812 8.1757812 L 7.4199219 15.175781 C 7.5802099 15.644588 8.0099546 16 8.5253906 16 C 9.0408263 16 9.4940104 15.644586 9.6542969 15.175781 L 10.341797 13.876953 L 3.0917969 6.6269531 z " />
  <path
     style="fill:none;stroke:#241f31;stroke-width:2;stroke-linecap:round;stroke-linejoin:round;stroke-miterlimit:4;stroke-dasharray:none;stroke-opacity:1"
     d="M 0.99009975,0.99009976 15.0099,15.009886 Z"
     id="path1058" />
</svg>
