<?xml version="1.0" encoding="UTF-8" standalone="no"?>
<svg
   height="16"
   version="1.1"
   width="16"
   id="svg8"
   xmlns="http://www.w3.org/2000/svg"
   xmlns:svg="http://www.w3.org/2000/svg">
  <defs
     id="defs12" />
  <path
     id="path1050"
     style="color:#000000;fill:#241f31;stroke-width:0.999997;-inkscape-stroke:none;fill-opacity:0.5"
     d="M 8,0 C 4.6882952,0 2,2.6453117 2,5.8663195 c 0,1.1511439 0.3430804,2.2287497 0.9320913,3.1354166 0,0 0,0.00173 0,0.00173 0,0 0.0018,0.00173 0.0018,0.00173 -0.00229,-0.00332 0.024955,0.039261 0.034254,0.055556 L 6.1033654,14.767361 C 6.4047444,15.486583 7.1162432,16 7.9765625,16 c 0.8630022,0 1.5664279,-0.541904 1.856971,-1.243056 l 3.4939905,-6.1874995 0.0054,-0.010417 C 13.759576,7.7516775 14,6.8319982 14,5.8663195 14,2.6453266 11.311883,0 8,0 Z m 0,1.7777778 c 2.296016,0 4.153846,1.8111739 4.153846,4.0885417 0,0.681217 -0.168955,1.3203878 -0.465144,1.8819444 -5.18e-4,9.778e-4 5.18e-4,0.00249 0,0.00348 L 8.1496394,14.0191 8.1243988,14.09028 c -0.031121,0.08764 -0.097086,0.131939 -0.1478363,0.131939 -0.05075,0 -0.1479125,-0.07123 -0.1694712,-0.131945 L 7.7836538,14.024306 4.5799279,8.1927084 4.5564903,8.15625 c 0.015789,0.023131 -5.33e-4,-0.00416 -0.05589,-0.090278 v -0.00173 l -0.0018,-0.00348 C 4.0851627,7.4249823 3.8461538,6.6807462 3.8461538,5.8663195 3.8461538,3.5889666 5.7042408,1.7777778 8,1.7777778 Z m 0.034254,0.7465278 a 3.6540719,3.6636526 0 0 1 0.250601,0.00868 3.6540719,3.6636526 0 0 0 -0.250601,-0.00868 z" />
  <ellipse
     style="fill:#241f31;fill-opacity:0.5;stroke:none;stroke-width:0;stroke-linecap:round;stroke-linejoin:round;stroke-miterlimit:4;stroke-dasharray:none;stroke-opacity:1;stop-color:#000000"
     id="path1173"
     cx="7.9999995"
     cy="6"
     rx="2"
     ry="1.9999999" />
</svg>
