<?xml version="1.0" encoding="UTF-8" standalone="no"?>
<svg
   height="16"
   version="1.1"
   width="16"
   id="svg8"
   xmlns="http://www.w3.org/2000/svg"
   xmlns:svg="http://www.w3.org/2000/svg">
  <defs
     id="defs12" />
  <path
     d="M 8.499921,0 C 5.4625416,0 3,2.5072249 3,5.6000558 c 0,1.106411 0.3156258,2.131861 0.8594273,2.9998703 0.026244,0.0424 0.046356,0.084 0.0737,0.1256009 l 3.4125639,6.449664 C 7.5059777,15.643996 7.9601283,16 8.475564,16 8.991,16 9.420006,15.643996 9.580294,15.175189 L 13.386348,8.1751218 C 13.778425,7.4047138 14,6.5271048 14,5.6000558 14,2.5072249 11.537536,0 8.499921,0 Z m -0.02436,3.1750719 c 1.518808,0 2.75004,1.2536119 2.75004,2.800028 0,1.5464149 -1.231232,2.8000281 -2.75004,2.8000281 -1.5188065,0 -2.7500393,-1.2536132 -2.7500393,-2.8000281 0,-1.5464161 1.2312328,-2.800028 2.7500393,-2.800028 z"
     fill="#e74c3c"
     id="path4"
     style="fill:#241f31;stroke-width:0.999994" />
</svg>
