<?xml version="1.0" encoding="UTF-8" standalone="no"?>
<svg
   height="16"
   version="1.1"
   width="16"
   id="svg8"
   xmlns="http://www.w3.org/2000/svg"
   xmlns:svg="http://www.w3.org/2000/svg">
  <defs
     id="defs12" />
  <path
     id="path1050"
     style="color:#000000;fill:#241f31;stroke-width:0.999997;-inkscape-stroke:none;fill-opacity:0.5"
     d="M 8 0 C 6.7314045 0 5.5555095 0.39077821 4.5859375 1.0507812 L 5.8828125 2.3476562 C 6.5032037 1.9869389 7.2253973 1.7773438 8 1.7773438 C 10.296016 1.7773438 12.154297 3.5898197 12.154297 5.8671875 C 12.154297 6.5484045 11.985642 7.1864903 11.689453 7.7480469 C 11.688935 7.7490247 11.689971 7.7509631 11.689453 7.7519531 L 11.544922 8.0097656 L 12.886719 9.3515625 L 13.328125 8.5703125 L 13.332031 8.5585938 C 13.758683 7.7512438 14 6.8328662 14 5.8671875 C 14 2.6461946 11.311883 5.9211895e-16 8 0 z M 8.0351562 2.5234375 A 3.6540719 3.6636526 0 0 1 8.2851562 2.5332031 A 3.6540719 3.6636526 0 0 0 8.0351562 2.5234375 z M 2.0097656 5.5449219 C 2.0038046 5.6514985 2 5.7592398 2 5.8671875 C 2 7.0183314 2.3426297 8.0952862 2.9316406 9.0019531 L 2.9316406 9.0039062 L 2.9335938 9.0058594 C 2.9313038 9.0025394 2.959451 9.0442519 2.96875 9.0605469 L 6.1035156 14.767578 C 6.4048946 15.4868 7.1162432 16 7.9765625 16 C 8.8395647 16 9.5434413 15.458965 9.8339844 14.757812 L 10.335938 13.871094 L 8.9921875 12.527344 L 8.1503906 14.019531 L 8.125 14.089844 C 8.093879 14.177484 8.0273128 14.222656 7.9765625 14.222656 C 7.9258125 14.222656 7.8281993 14.150559 7.8066406 14.089844 L 7.7832031 14.023438 L 4.5800781 8.1933594 L 4.5566406 8.15625 C 4.5724296 8.179381 4.555357 8.1525243 4.5 8.0664062 L 4.5 8.0644531 L 4.4980469 8.0605469 C 4.4835696 8.0382946 4.471078 8.0147039 4.4570312 7.9921875 L 2.0097656 5.5449219 z " />
  <path
     id="path1173"
     style="fill:#241f31;fill-opacity:0.5;stroke:none;stroke-width:0;stroke-linecap:round;stroke-linejoin:round;stroke-miterlimit:4;stroke-dasharray:none;stroke-opacity:1;stop-color:#000000"
     d="M 8 4 A 2 1.9999999 0 0 0 7.5839844 4.0488281 L 9.9511719 6.4160156 A 2 1.9999999 0 0 0 10 6 A 2 1.9999999 0 0 0 8 4 z " />
  <path
     style="color:#000000;fill:#241f31;stroke-linecap:round;stroke-linejoin:round;-inkscape-stroke:none"
     d="m 1.7070312,0.29296875 a 1.0001,1.0001 0 0 0 -1.40429682,0.009766 1.0001,1.0001 0 0 0 -0.009766,1.40429682 L 14.292969,15.707031 a 1.0001,1.0001 0 0 0 0.960937,0.248047 1.0001,1.0001 0 0 0 0.701172,-0.701172 1.0001,1.0001 0 0 0 -0.248047,-0.960937 z"
     id="path1025" />
</svg>
