<?xml version="1.0" encoding="UTF-8" standalone="no"?>
<svg
   height="16"
   version="1.1"
   width="16"
   id="svg8"
   xmlns="http://www.w3.org/2000/svg"
   xmlns:svg="http://www.w3.org/2000/svg">
  <defs
     id="defs12" />
  <path
     id="path1173"
     style="color:#000000;fill:#241f31;stroke-linecap:round;stroke-linejoin:round;-inkscape-stroke:none;fill-opacity:0.5"
     d="M 8 3.5 C 7.7116965 3.5 7.4340579 3.549733 7.1757812 3.640625 L 8.0351562 4.5 C 8.8413497 4.5180885 9.4819115 5.1586504 9.5 5.9648438 L 10.359375 6.8242188 C 10.450267 6.5659421 10.5 6.2883034 10.5 6 C 10.5 4.6252119 9.3747882 3.5 8 3.5 z " />
  <path
     id="path1373"
     style="color:#000000;fill:#241f31;-inkscape-stroke:none;fill-opacity:0.5"
     d="M 8 0.5 C 6.8135579 0.5 5.7469489 0.79607225 4.8769531 1.3417969 L 5.6074219 2.0722656 C 6.2693271 1.7060432 7.0710941 1.5 8 1.5 C 9.3888875 1.5 10.4975 1.9545317 11.271484 2.7285156 C 12.045468 3.5024996 12.5 4.6111125 12.5 6 C 12.5 6.8895909 12.349757 7.7513061 12.099609 8.5644531 L 12.890625 9.3554688 C 13.262212 8.3204635 13.5 7.1918848 13.5 6 C 13.5 4.3888905 12.95453 2.9974987 11.978516 2.0214844 C 11.002501 1.0454701 9.6111095 0.5 8 0.5 z M 2.5019531 6.0371094 C 2.5128891 8.6701618 3.6734518 10.99612 4.890625 12.669922 C 5.502095 13.510788 6.1292686 14.188369 6.6503906 14.666016 C 6.9109516 14.904839 7.1436072 15.092153 7.3457031 15.230469 C 7.4467511 15.299629 7.5394502 15.35786 7.6347656 15.404297 C 7.730081 15.450734 7.8133626 15.5 8 15.5 C 8.1866374 15.5 8.269919 15.450727 8.3652344 15.404297 C 8.4605494 15.357857 8.5532489 15.299627 8.6542969 15.230469 C 8.8563928 15.092153 9.0890484 14.904839 9.3496094 14.666016 C 9.6199541 14.418225 9.9180872 14.113961 10.228516 13.763672 L 9.5195312 13.054688 C 9.217427 13.398605 8.9269851 13.695697 8.6738281 13.927734 C 8.4400215 14.142035 8.2359044 14.306285 8.0898438 14.40625 C 8.0492565 14.434028 8.0293819 14.443607 8 14.460938 C 7.9706181 14.443607 7.9507435 14.434028 7.9101562 14.40625 C 7.7640956 14.306285 7.5599785 14.142035 7.3261719 13.927734 C 6.8585587 13.499132 6.2694328 12.864211 5.6992188 12.080078 C 4.7417026 10.763345 3.8441353 9.029448 3.5800781 7.1152344 L 2.5019531 6.0371094 z " />
  <path
     style="color:#000000;fill:#241f31;stroke-width:1;stroke-linecap:round;stroke-linejoin:round;-inkscape-stroke:none"
     d="m 1.5383864,1 a 0.5384678,0.53846465 0 0 0 -0.3807135,0.1577534 0.5384678,0.53846465 0 0 0 0,0.7614226 L 14.080899,14.842328 a 0.5384678,0.53846465 0 0 0 0.761428,0 0.5384678,0.53846465 0 0 0 0,-0.761423 L 1.9191,1.1577534 A 0.5384678,0.53846465 0 0 0 1.5383864,1 Z"
     id="path859" />
</svg>
