<svg xmlns="http://www.w3.org/2000/svg" xmlns:svg="http://www.w3.org/2000/svg" id="svg1" width="16" height="16" fill="none" version="1.1" viewBox="0 0 16 16"><path id="path1" fill="#000" fill-rule="evenodd" d="M 1.5,1 C 1.25332,1 0.894434,1.06989 0.582848,1.29423 0.245766,1.53693 0,1.93704 0,2.5 v 8 c 0,0.2467 0.0698904,0.6056 0.294233,0.9172 C 0.536931,11.7542 0.93704,12 1.5,12 h 0.00469 0.00469 0.00469 0.00469 0.0047 0.00469 0.0047 0.0047 0.0047 0.0047 0.0047 0.0047 0.00471 0.0047 H 1.57047 1.57518 1.57989 1.5846 1.58931 1.59402 1.59873 1.60345 1.60816 1.61288 1.61759 1.62231 1.62703 1.63175 1.63647 1.64119 1.64591 1.65063 1.65536 1.66008 1.66481 1.66953 1.67426 1.67898 1.68371 1.68843 1.69316 1.69789 1.70262 1.70735 1.71208 1.7168 1.72153 1.72626 1.73099 1.73572 1.74045 1.74518 1.74992 1.75465 1.75938 1.76411 1.76884 1.77357 1.7783 1.78303 1.78776 1.79249 1.79722 1.80195 1.80668 1.81141 1.81614 1.82087 1.8256 1.83033 1.83506 1.83979 1.84451 1.84924 1.85397 1.85869 1.86342 1.86815 1.87287 1.87759 1.88232 1.88704 1.89176 1.89648 1.9012 1.90592 1.91064 1.91536 1.92008 1.9248 h 0.00471 0.00472 0.00471 0.00471 0.00472 0.00471 0.00471 0.0047 0.00471 0.00471 0.0047 0.00471 0.0047 0.0047 0.0047 0.0047 0.0047 0.0047 0.00469 0.0047 H 2.0236 2.02829 2.03298 2.03767 2.04235 2.04704 2.05172 2.0564 2.06108 2.06576 2.07044 2.07511 2.07979 2.08446 2.08913 2.0938 2.09846 2.10313 2.10779 2.11245 2.11711 2.12176 2.12642 2.13107 2.13572 2.14037 2.14501 2.14966 2.1543 2.15894 2.16357 2.16821 2.17284 2.17747 2.1821 2.18673 2.19135 2.19597 2.20059 2.2052 2.20982 2.21443 2.21904 2.22364 2.22825 2.23285 2.23744 2.24204 2.24663 2.25122 2.25581 2.26039 2.26497 2.26955 2.27413 2.2787 2.28327 2.28784 2.2924 2.29696 2.30152 2.30607 2.31063 2.31517 2.31972 2.32426 2.3288 2.33334 2.33787 2.3424 2.34692 2.35145 2.35597 2.36048 2.36499 2.3695 2.37401 2.37851 2.38301 2.38751 2.392 2.39648 2.40097 2.40545 2.40993 2.4144 2.41887 2.42333 2.4278 2.43225 2.43671 2.44116 2.44561 2.45005 2.45449 2.45892 2.46335 2.46778 2.4722 2.47662 2.48104 2.48545 2.48985 2.49425 2.49865 2.50304 2.50743 2.51182 2.5162 2.52058 2.52495 2.52932 2.53368 2.53804 2.54239 2.54674 2.55109 2.55543 2.55976 2.56409 2.56842 2.57274 2.57706 2.58137 2.58568 2.58998 2.59428 2.59857 2.60286 2.60715 2.61143 2.6157 2.61997 2.62423 2.62849 2.63275 2.63699 2.64124 2.64548 2.64971 2.65394 2.65816 2.66238 2.66659 2.6708 2.675 2.6792 2.68339 2.68757 2.69175 2.69593 2.7001 2.70426 2.70842 2.71257 2.71672 2.72086 2.725 h 0.00413 0.00412 0.00412 0.00412 0.0041 0.0041 0.0041 0.00409 0.00408 0.00408 0.00408 0.00406 0.00406 0.00406 0.00404 0.00405 0.00403 0.00403 0.00403 0.00401 0.00402 0.004 0.004 H 2.8225 2.82649 2.83047 2.83444 2.83841 2.84237 2.84633 2.85027 2.85422 2.85815 2.86208 2.866 2.86992 2.87382 2.87773 2.88162 2.88551 2.88939 2.89327 2.89714 2.901 2.90485 2.9087 2.91254 2.91637 2.9202 2.92402 2.92783 2.93164 2.93544 2.93923 2.94302 2.94679 2.95056 2.95433 2.95808 2.96183 2.96557 2.96931 2.97304 2.97675 2.98047 2.98417 2.98787 2.99156 2.99524 2.99892 3 v 3.5 c 0,0.2022 0.12182,0.3845 0.30866,0.4619 0.18684,0.0774 0.40189,0.0347 0.54489,-0.1083 L 7.70711,12 H 8 V 11 H 7.5 C 7.36739,11 7.24021,11.0527 7.14645,11.1464 L 4,14.2929 V 11.5 C 4,11.2239 3.77614,11 3.5,11 H 3.49804 3.49607 3.49409 3.49209 3.49008 3.48806 3.48603 3.48399 3.48193 3.47986 3.47778 3.47569 3.47359 3.47147 3.46934 3.46721 3.46505 3.46289 3.46072 3.45853 3.45633 3.45412 3.4519 3.44967 3.44743 3.44517 3.4429 3.44063 3.43834 3.43603 3.43372 3.4314 3.42906 3.42671 3.42436 3.42199 3.41961 3.41721 3.41481 3.4124 3.40997 3.40753 3.40509 3.40263 3.40016 3.39768 3.39518 3.39268 3.39017 3.38764 3.38511 3.38256 3.38001 3.37744 3.37486 3.37227 3.36967 3.36706 3.36444 3.36181 3.35916 3.35651 3.35385 3.35117 3.34849 3.34579 3.34309 3.34037 3.33764 3.33491 3.33216 3.3294 3.32664 3.32386 3.32107 3.31827 3.31546 3.31264 3.30982 3.30698 3.30413 3.30127 3.2984 3.29552 3.29263 3.28973 3.28682 3.28391 3.28098 3.27804 3.27509 3.27213 3.26917 3.26619 3.2632 3.26021 3.2572 3.25418 3.25116 3.24812 3.24508 3.24202 3.23896 3.23589 3.23281 3.22971 3.22661 3.2235 3.22038 3.21725 3.21412 3.21097 3.20781 3.20465 3.20147 3.19829 3.19509 3.19189 3.18868 3.18546 3.18223 3.17899 3.17574 3.17249 3.16922 3.16595 3.16267 3.15937 3.15607 3.15277 3.14945 3.14612 3.14279 3.13944 3.13609 3.13273 3.12936 3.12598 3.1226 3.1192 3.1158 3.11238 3.10896 3.10554 3.1021 3.09865 3.0952 3.09174 3.08827 3.08479 3.0813 3.07781 3.07431 3.07079 3.06728 3.06375 3.06021 3.05667 3.05312 3.04956 3.04599 3.04242 3.03884 3.03525 3.03165 3.02804 3.02443 3.02081 3.01718 3.01354 3.0099 3.00624 3.00258 2.99892 2.99524 2.99156 2.98787 2.98417 2.98047 2.97675 2.97304 2.96931 2.96557 2.96183 2.95808 2.95433 2.95056 2.94679 2.94302 2.93923 2.93544 2.93164 2.92783 2.92402 2.9202 2.91637 2.91254 2.9087 2.90485 2.901 2.89714 2.89327 2.88939 2.88551 2.88162 2.87773 2.87382 2.86992 2.866 2.86208 2.85815 2.85422 2.85027 2.84633 2.84237 2.83841 2.83444 2.83047 2.82649 2.8225 2.81851 2.81451 2.81051 2.80649 2.80248 2.79845 2.79442 2.79039 2.78634 2.7823 2.77824 2.77418 2.77012 2.76604 2.76196 2.75788 2.75379 2.74969 2.74559 2.74149 2.73737 2.73325 2.72913 2.725 2.72086 2.71672 2.71257 2.70842 2.70426 2.7001 2.69593 2.69175 2.68757 2.68339 2.6792 2.675 2.6708 2.66659 2.66238 2.65816 2.65394 2.64971 2.64548 2.64124 2.63699 2.63275 2.62849 2.62423 2.61997 2.6157 2.61143 2.60715 2.60286 2.59857 2.59428 2.58998 2.58568 2.58137 2.57706 2.57274 2.56842 2.56409 2.55976 2.55543 2.55109 2.54674 2.54239 2.53804 2.53368 2.52932 2.52495 2.52058 2.5162 2.51182 2.50743 2.50304 2.49865 2.49425 2.48985 2.48545 2.48104 2.47662 2.4722 2.46778 2.46335 2.45892 2.45449 2.45005 2.44561 2.44116 2.43671 2.43225 2.4278 2.42333 2.41887 2.4144 2.40993 2.40545 2.40097 2.39648 2.392 2.38751 2.38301 2.37851 2.37401 2.3695 2.36499 2.36048 2.35597 2.35145 2.34692 2.3424 2.33787 2.33334 2.3288 2.32426 2.31972 2.31517 2.31063 2.30607 2.30152 2.29696 2.2924 2.28784 2.28327 2.2787 2.27413 2.26955 2.26497 2.26039 2.25581 2.25122 2.24663 2.24204 2.23744 2.23285 2.22825 2.22364 2.21904 2.21443 2.20982 2.2052 2.20059 2.19597 2.19135 2.18673 2.1821 2.17747 2.17284 2.16821 2.16357 2.15894 2.1543 2.14966 2.14501 2.14037 2.13572 2.13107 2.12642 2.12176 2.11711 2.11245 2.10779 2.10313 2.09846 2.0938 2.08913 2.08446 2.07979 2.07511 2.07044 2.06576 2.06108 2.0564 2.05172 2.04704 2.04235 2.03767 2.03298 2.02829 2.0236 2.01891 2.01421 2.00952 2.00482 2.00012 1.99542 1.99072 1.98602 1.98132 1.97661 1.97191 1.9672 1.96249 1.95779 1.95308 1.94837 1.94365 1.93894 1.93423 1.92951 1.9248 1.92008 1.91536 1.91064 1.90592 1.9012 1.89648 1.89176 1.88704 1.88232 1.87759 1.87287 1.86815 1.86342 1.85869 1.85397 1.84924 1.84451 1.83979 1.83506 1.83033 1.8256 1.82087 1.81614 1.81141 1.80668 1.80195 1.79722 1.79249 1.78776 1.78303 1.7783 1.77357 1.76884 1.76411 1.75938 1.75465 1.74992 1.74518 1.74045 1.73572 1.73099 1.72626 1.72153 1.7168 1.71208 1.70735 1.70262 1.69789 1.69316 1.68843 1.68371 1.67898 1.67426 1.66953 1.66481 1.66008 1.65536 1.65063 1.64591 1.64119 1.63647 1.63175 1.62703 1.62231 1.61759 1.61288 1.60816 1.60345 1.59873 1.59402 1.58931 1.5846 1.57989 1.57518 1.57047 1.56576 1.56106 1.55635 1.55165 1.54695 1.54225 1.53755 1.53285 1.52815 1.52346 1.51876 1.51407 1.50938 1.50469 1.5 C 1.26296,11 1.16307,10.9124 1.10577,10.8328 1.03011,10.7278 1,10.5867 1,10.5 v -8 C 1,2.26296 1.08757,2.16307 1.16715,2.10577 1.27223,2.03011 1.41334,2 1.5,2 h 0.02349 0.02358 0.02367 0.02377 0.02387 0.02396 0.02405 0.02414 0.02424 0.02433 0.02441 0.02451 0.0246 0.02469 0.02478 0.02486 0.02495 0.02504 0.02513 0.02521 0.0253 0.02539 0.02547 0.02555 0.02564 0.02572 0.0258 0.02589 0.02596 0.02605 0.02613 0.02621 0.02628 0.02637 0.02645 0.02652 0.0266 0.02668 0.02675 0.02683 0.02691 0.02698 0.02705 0.02713 0.0272 0.02728 0.02735 0.02741 0.02749 0.02756 0.02764 0.0277 0.02777 0.02783 0.02791 0.02797 0.02805 0.0281 0.02818 0.02824 0.0283 0.02837 0.02843 0.0285 0.02856 0.02862 0.02868 0.02875 0.0288 0.02887 0.02893 0.02898 0.02905 0.0291 0.02916 0.02922 0.02927 0.02933 0.02939 0.02944 0.02949 0.02955 0.02961 0.02965 0.02971 0.02976 0.02982 0.02986 0.02991 0.02997 0.03001 0.03006 0.03012 0.03015 0.03021 0.03025 0.0303 0.03035 0.03039 0.03044 0.03047 0.03053 0.03057 0.0306 0.03066 0.03069 0.03073 0.03078 0.03081 0.03086 0.03089 0.03094 0.03097 0.03101 0.03104 0.03108 0.03112 0.03115 0.03119 0.03122 0.03126 0.03129 0.03132 0.03136 0.03138 0.03142 0.03145 0.03148 0.03151 0.03154 0.03156 0.0316 0.03162 0.03165 0.03168 0.0317 0.03173 0.03175 0.03178 0.0318 0.03183 0.03185 0.03187 0.03189 0.03192 0.03193 0.03196 0.03197 0.032 0.03201 0.03203 0.03205 0.03207 0.03209 0.0321 0.03211 0.03213 0.03215 0.03216 0.03217 0.03219 0.0322 0.03221 0.03223 0.03223 0.03225 0.03225 0.03227 0.03227 0.03228 0.03229 0.0323 H 6.54574 6.57805 6.61037 6.64269 6.67502 6.70735 6.73968 6.77202 6.80436 6.83671 6.86905 6.9014 6.93375 6.96609 6.99844 7.03079 7.06313 7.09548 7.12782 7.16016 7.19249 7.22482 7.25715 7.28947 7.32178 7.35409 7.3864 7.41869 7.45098 7.48326 7.51553 7.5478 7.58005 7.61229 7.64452 7.67675 7.70895 7.74115 7.77334 7.80551 7.83766 7.86981 7.90193 7.93405 7.96614 7.99822 8.03029 8.06233 8.09436 8.12637 8.15836 8.19033 8.22228 8.25421 8.28612 8.31801 8.34988 8.38172 8.41354 8.44534 8.47711 8.50885 8.54058 8.57227 8.60394 8.63559 8.6672 8.69879 8.73035 8.76188 8.79338 8.82486 8.8563 8.88771 8.91909 8.95043 8.98175 9.01303 9.04428 9.07549 9.10667 9.13782 9.16893 9.2 9.23104 9.26204 9.293 9.32392 9.3548 h 0.03085 0.03081 0.03076 0.03073 0.03068 0.03064 0.0306 0.03056 0.03051 0.03047 0.03042 0.03038 0.03034 0.03029 0.03024 0.03019 0.03015 0.0301 0.03005 0.03 0.02995 0.02988 0.0299 0.0298 0.0297 0.0297 0.0297 0.0296 0.0295 0.0295 0.0294 0.0294 0.0293 0.0293 0.0292 0.0291 0.0291 0.029 0.029 0.0289 0.0289 0.0287 0.0288 0.0286 0.0287 0.0285 0.0285 0.0284 0.0284 0.0282 0.0283 0.0281 0.0281 0.028 0.028 0.0279 0.0278 0.0278 0.0276 0.0277 0.0275 0.0275 0.0274 0.0273 0.0273 0.0271 0.0272 0.027 0.027 0.0268 0.0269 0.0267 0.0267 0.0265 0.0265 0.0265 0.0263 0.0263 0.0262 0.0261 0.026 0.026 0.0258 0.0258 0.0257 0.0256 0.0256 0.0254 0.0254 0.0252 0.0252 0.0251 0.0251 0.0249 0.0248 0.0248 0.0247 0.0245 0.0245 0.0244 0.0243 0.0242 0.0242 0.024 0.0239 0.0239 0.0237 0.0237 0.0235 0.0235 0.0234 0.0232 0.0232 0.0231 0.0229 0.0229 0.0228 0.0227 0.0226 0.0224 0.0224 0.0223 0.0222 0.022 0.022 0.0218 0.0218 0.0216 0.0216 0.0214 0.0214 0.0212 0.0211 0.021 0.0209 0.0208 0.0207 0.0206 0.0204 0.0204 0.0202 0.0201 0.02 0.0199 0.0198 0.0197 0.0196 0.0194 0.0193 0.0192 0.0191 0.019 0.0188 0.0188 0.0186 0.0185 0.0184 0.0182 0.0182 0.018 0.0179 0.0177 0.0177 0.0175 0.0174 0.0173 0.0171 0.0171 0.0168 0.0168 0.0167 0.0165 0.0164 0.0162 0.0161 0.016 0.0159 0.0157 0.0156 0.0155 0.0154 0.0152 0.015 0.015 0.0148 0.0146 0.0146 0.0144 0.0142 0.0142 0.0139 0.0139 0.0137 0.0136 0.0134 0.0133 0.0131 0.013 0.0129 0.0127 0.0126 0.0124 0.0123 0.0122 0.012 0.0118 0.0118 0.0115 0.0114 0.0113 0.0111 0.011 0.0108 0.0107 0.0105 0.0104 0.0102 0.0101 0.0099 0.0098 0.0096 0.0094 0.0094 0.0091 0.009 0.0088 0.0087 0.0085 0.0084 0.0082 0.0081 0.0079 0.0077 0.0076 0.0074 0.0072 0.0071 0.0069 0.0068 0.0066 0.0064 0.0063 0.0061 0.006 0.0057 0.0057 0.0054 0.0053 0.0051 0.0049 0.0048 c 0.237,0 0.3369,0.08757 0.3942,0.16715 C 14.9699,2.27223 15,2.41334 15,2.5 v 0.0137 0.01376 0.01382 0.01387 0.01393 0.01398 0.01405 0.0141 0.01415 0.01421 0.01426 0.01432 0.01438 0.01442 0.01449 0.01453 0.01459 0.01464 0.01469 0.01475 0.0148 0.01485 0.0149 0.01495 0.01501 0.01505 0.01511 0.01515 0.01521 0.01525 0.0153 0.01536 0.0154 0.01545 0.01549 0.01555 0.01559 0.01564 0.01568 0.01573 0.01578 0.01583 0.01587 0.01591 0.01596 0.01601 0.01605 0.01609 0.01614 0.01618 0.01622 0.01627 0.01631 0.01635 0.01639 0.01644 0.01647 0.01652 0.01656 0.0166 0.01664 0.01668 0.01672 0.01676 0.0168 0.01683 0.01688 0.01691 0.01695 0.01699 0.01703 0.01706 0.0171 0.01714 0.01717 0.01721 0.01725 0.01728 0.01731 0.01735 0.01738 0.01742 0.01745 0.01749 0.01752 0.01755 0.01758 0.01762 0.01764 0.01768 0.01771 0.01775 0.01777 0.0178 0.01784 0.01786 0.0179 0.01792 0.01795 0.01798 0.01801 0.01804 0.01806 0.0181 0.01812 0.01814 0.01818 0.0182 0.01822 0.01826 0.01827 0.01831 0.01832 0.01836 0.01837 0.0184 0.01843 0.01845 0.01847 0.01849 0.01852 0.01854 0.01856 0.01858 0.01861 0.01862 0.01865 0.01867 0.01868 0.01871 0.01872 0.01875 0.01877 0.01878 0.0188 0.01882 0.01884 0.01885 0.01888 0.01889 0.0189 0.01893 0.01893 0.01896 0.01897 0.01899 0.019 0.01901 0.01903 0.01904 0.01906 0.01907 0.01908 0.0191 0.01911 0.01912 0.01913 0.01915 0.01915 0.01917 0.01918 0.01919 0.0192 0.01921 0.01921 0.01923 0.01924 0.01924 0.01926 0.01926 0.01927 0.01927 0.01929 0.01929 0.0193 0.0193 V 5.55552 5.57484 5.59416 5.61349 5.63282 5.65215 5.67149 5.69084 5.71019 5.72954 5.74889 5.76825 5.78761 5.80697 5.82634 5.8457 5.86507 5.88444 5.90381 5.92318 5.94255 5.96192 5.98128 6.00065 6.02002 6.03939 6.05875 6.07811 6.09747 6.11683 6.13618 6.15554 6.17488 6.19423 6.21357 6.23291 6.25224 6.27156 6.29089 6.3102 6.32951 6.34882 6.36812 6.38741 6.40669 6.42597 6.44524 6.4645 6.48376 6.503 6.52224 6.54147 6.56069 6.57989 6.59909 6.61828 6.63746 6.65663 6.67579 6.69493 6.71406 6.73319 6.7523 6.77139 6.79048 6.80955 6.82861 6.84765 6.86668 6.88569 6.9047 6.92368 6.94265 6.96161 6.98055 6.99947 7.01838 7.03727 7.05614 7.075 7.09384 7.11266 7.13146 7.15025 7.16901 7.18776 7.20649 7.22519 7.24388 7.26255 7.2812 7.29982 7.31843 7.33701 7.35557 7.37411 7.39263 7.41113 7.4296 7.44805 7.46648 7.48488 7.50326 7.52161 7.53994 7.55824 7.57652 7.59478 7.613 7.63121 7.64938 7.66753 7.68565 7.70374 7.72181 7.73985 7.75786 7.77584 7.7938 7.81172 7.82962 7.84748 7.86532 7.88312 7.9009 7.91864 7.93635 7.95403 7.97168 7.9893 8 h 1 V 7.9893 7.97168 7.95403 7.93635 7.91864 7.9009 7.88312 7.86532 7.84748 7.82962 7.81172 7.7938 7.77584 7.75786 7.73985 7.72181 7.70374 7.68565 7.66753 7.64938 7.63121 7.613 7.59478 7.57652 7.55824 7.53994 7.52161 7.50326 7.48488 7.46648 7.44805 7.4296 7.41113 7.39263 7.37411 7.35557 7.33701 7.31843 7.29982 7.2812 7.26255 7.24388 7.22519 7.20649 7.18776 7.16901 7.15025 7.13146 7.11266 7.09384 7.075 7.05614 7.03727 7.01838 6.99947 6.98055 6.96161 6.94265 6.92368 6.9047 6.88569 6.86668 6.84765 6.82861 6.80955 6.79048 6.77139 6.7523 6.73319 6.71406 6.69493 6.67579 6.65663 6.63746 6.61828 6.59909 6.57989 6.56069 6.54147 6.52224 6.503 6.48376 6.4645 6.44524 6.42597 6.40669 6.38741 6.36812 6.34882 6.32951 6.3102 6.29089 6.27156 6.25224 6.23291 6.21357 6.19423 6.17488 6.15554 6.13618 6.11683 6.09747 6.07811 6.05875 6.03939 6.02002 6.00065 5.98128 5.96192 5.94255 5.92318 5.90381 5.88444 5.86507 5.8457 5.82634 5.80697 5.78761 5.76825 5.74889 5.72954 5.71019 5.69084 5.67149 5.65215 5.63282 5.61349 5.59416 5.57484 5.55552 5.53621 5.51691 5.49761 5.47832 5.45903 5.43976 5.42049 5.40123 5.38197 5.36273 5.34349 5.32426 5.30505 5.28584 5.26664 5.24745 5.22827 5.2091 5.18995 5.1708 5.15167 5.13255 5.11344 5.09434 5.07526 5.05619 5.03713 5.01809 4.99906 4.98005 4.96105 4.94206 4.92309 4.90413 4.8852 4.86627 4.84737 4.82848 4.8096 4.79075 4.77191 4.75309 4.73429 4.71551 4.69674 4.67799 4.65927 4.64056 4.62188 4.60321 4.58456 4.56594 4.54733 4.52875 4.51019 4.49165 4.47313 4.45464 4.43617 4.41772 4.39929 4.38089 4.36252 4.34416 4.32584 4.30753 4.28926 4.271 4.25278 4.23458 4.2164 4.19826 4.18014 4.16204 4.14398 4.12594 4.10793 4.08995 4.072 4.05408 4.03618 4.01832 4.00048 3.98268 3.96491 3.94716 3.92945 3.91177 3.89413 3.87651 3.85893 3.84138 3.82386 3.80637 3.78892 3.7715 3.75412 3.73677 3.71946 3.70218 3.68493 3.66772 3.65055 3.63341 3.61631 3.59925 3.58222 3.56523 3.54828 3.53137 3.51449 3.49766 3.48086 3.4641 3.44738 3.4307 3.41406 3.39746 3.3809 3.36438 3.34791 3.33147 3.31508 3.29873 3.28242 3.26615 3.24993 3.23375 3.21761 3.20152 3.18547 3.16946 3.1535 3.13759 3.12172 3.10589 3.09011 3.07438 3.0587 3.04306 3.02747 3.01192 2.99643 2.98098 2.96558 2.95022 2.93492 2.91967 2.90446 2.88931 2.8742 2.85915 2.84414 2.82919 2.81429 2.79944 2.78464 2.76989 2.7552 2.74056 2.72597 2.71144 2.69695 2.68253 2.66815 2.65383 2.63957 2.62536 2.61121 2.59711 2.58306 2.56908 2.55515 2.54128 2.52746 2.5137 2.5 C 16,2.25332 15.9301,1.89443 15.7058,1.58285 15.4631,1.24577 15.063,1 14.5,1 H 14.4952 14.4903 14.4852 14.4799 14.4745 14.4688 14.4631 14.4571 14.451 14.4447 14.4383 14.4317 14.4249 14.418 14.4109 14.4037 14.3963 14.3887 14.381 14.3731 14.365 h -0.0082 -0.0084 -0.0085 -0.0087 -0.0088 -0.009 -0.0091 -0.0094 -0.0094 -0.0096 -0.0098 -0.0099 -0.0101 -0.0102 -0.0104 -0.0105 -0.0107 -0.0108 -0.011 -0.0111 -0.0113 -0.0114 -0.0115 -0.0118 -0.0118 -0.012 -0.0122 -0.0123 -0.0124 -0.0126 -0.0127 -0.0129 -0.013 -0.0131 -0.0133 -0.0134 -0.0136 -0.0137 -0.0139 -0.0139 -0.0142 -0.0142 -0.0144 -0.0146 -0.0146 -0.0148 -0.015 -0.015 -0.0152 -0.0154 -0.0155 -0.0156 -0.0157 -0.0159 -0.016 -0.0161 -0.0162 -0.0164 -0.0165 -0.0167 -0.0168 -0.0168 -0.0171 -0.0171 -0.0173 -0.0174 -0.0175 -0.0177 -0.0177 -0.0179 -0.018 -0.0182 -0.0182 -0.0184 -0.0185 -0.0186 -0.0188 -0.0188 -0.019 -0.0191 -0.0192 -0.0193 -0.0194 -0.0196 -0.0197 -0.0198 -0.0199 -0.02 -0.0201 -0.0202 -0.0204 -0.0204 -0.0206 -0.0207 -0.0208 -0.0209 -0.021 -0.0211 -0.0212 -0.0214 -0.0214 -0.0216 -0.0216 -0.0218 -0.0218 -0.022 -0.022 -0.0222 -0.0223 -0.0224 -0.0224 -0.0226 -0.0227 -0.0228 -0.0229 -0.0229 -0.0231 -0.0232 -0.0232 -0.0234 -0.0235 -0.0235 -0.0237 -0.0237 -0.0239 -0.0239 -0.024 -0.0242 -0.0242 -0.0243 -0.0244 -0.0245 -0.0245 -0.0247 -0.0248 -0.0248 -0.0249 -0.0251 -0.0251 -0.0252 -0.0252 -0.0254 -0.0254 -0.0256 -0.0256 -0.0257 -0.0258 -0.0258 -0.026 -0.026 -0.0261 -0.0262 -0.0263 -0.0263 -0.0265 -0.0265 -0.0265 -0.0267 -0.0267 -0.0269 -0.0268 -0.027 -0.027 -0.0272 -0.0271 -0.0273 -0.0273 -0.0274 -0.0275 -0.0275 -0.0277 -0.0276 -0.0278 -0.0278 -0.0279 -0.028 -0.028 H 10.8946 10.8665 10.8382 10.81 10.7816 10.7532 10.7247 10.6962 10.6675 10.6389 10.6101 10.5814 10.5525 10.5236 10.4946 10.4656 10.4365 10.4074 10.3782 10.3489 10.3196 10.2902 10.2608 10.2313 10.2018 10.1722 10.1425 10.1128 10.0831 10.0533 10.0234 9.99352 9.96357 9.93357 9.90352 9.87342 9.84327 9.81308 9.78284 9.75255 9.72221 9.69183 9.66141 9.63094 9.60043 9.56987 9.53927 9.50863 9.47795 9.44722 9.41646 9.38565 9.3548 9.32392 9.293 9.26204 9.23104 9.2 9.16893 9.13782 9.10667 9.07549 9.04428 9.01303 8.98175 8.95043 8.91909 8.88771 8.8563 8.82486 8.79338 8.76188 8.73035 8.69879 8.6672 8.63559 8.60394 8.57227 8.54058 8.50885 8.47711 8.44534 8.41354 8.38172 8.34988 8.31801 8.28612 8.25421 8.22228 8.19033 8.15836 8.12637 8.09436 8.06233 8.03029 7.99822 7.96614 7.93405 7.90193 7.86981 7.83766 7.80551 7.77334 7.74115 7.70895 7.67675 7.64452 7.61229 7.58005 7.5478 7.51553 7.48326 7.45098 7.41869 7.3864 7.35409 7.32178 7.28947 7.25715 7.22482 7.19249 7.16016 7.12782 7.09548 7.06313 7.03079 6.99844 6.96609 6.93375 6.9014 6.86905 6.83671 6.80436 6.77202 6.73968 6.70735 6.67502 6.64269 6.61037 6.57805 6.54574 6.51343 6.48113 6.44884 6.41656 6.38429 6.35202 6.31977 6.28752 6.25529 6.22306 6.19085 6.15865 6.12646 6.09429 6.06213 6.02998 5.99785 5.96574 5.93364 5.90155 5.86948 5.83743 5.8054 5.77339 5.74139 5.70942 5.67746 5.64553 5.61361 5.58172 5.54985 5.518 5.48617 5.45437 5.42259 5.39084 5.35911 5.32741 5.29573 5.26408 5.23246 5.20086 5.1693 5.13776 5.10625 5.07477 5.04332 5.0119 4.98052 4.94916 4.91784 4.88655 4.85529 4.82407 4.79288 4.76173 4.73061 4.69953 4.66849 4.63748 4.60651 4.57557 4.54468 4.51382 4.48301 4.45223 4.4215 4.39081 4.36015 4.32955 4.29898 4.26845 4.23798 4.20754 4.17715 4.1468 4.1165 4.08625 4.05604 4.02589 3.99577 3.96571 3.9357 3.90573 3.87582 3.84596 3.81614 3.78638 3.75667 3.72702 3.69741 3.66786 3.63837 3.60893 3.57954 3.55021 3.52094 3.49172 3.46256 3.43346 3.40441 3.37543 3.3465 3.31763 3.28883 3.26008 3.2314 3.20278 3.17422 3.14572 3.11729 3.08892 3.06062 3.03238 3.0042 2.9761 2.94805 2.92008 2.89217 2.86434 2.83657 2.80887 2.78123 2.75367 2.72618 2.69877 2.67142 2.64414 2.61694 2.58981 2.56276 2.53578 2.50887 2.48204 2.45529 2.42861 2.40201 2.37549 2.34904 2.32267 2.29639 2.27018 2.24405 2.218 2.19204 2.16615 2.14035 2.11463 2.08899 2.06344 2.03797 2.01258 1.98728 1.96207 1.93694 1.9119 1.88695 1.86209 1.83731 1.81262 1.78802 1.76351 1.7391 1.71477 1.69053 1.66639 1.64234 1.61838 1.59451 1.57074 1.54707 1.52349 Z" clip-rule="evenodd"/><g class="error"><path id="rect1" d="m 12,9 c 1.662,0 3,1.338 3,3 0,1.662 -1.338,3 -3,3 -1.662,0 -3,-1.338 -3,-3 0,-1.662 1.338,-3 3,-3 z"/></g></svg>