<?xml version="1.0" encoding="UTF-8" standalone="no"?>
<svg
   height="16px"
   viewBox="0 0 16 16"
   width="16px"
   version="1.1"
   id="svg4"
   xmlns="http://www.w3.org/2000/svg"
   xmlns:svg="http://www.w3.org/2000/svg">
  <defs
     id="defs8" />
  <path
     id="path1251"
     style="color:#000000;fill:#241f31;stroke-width:1;-inkscape-stroke:none;fill-opacity:0.5"
     d="M 4.1269531 7.6621094 C 4.5102544 9.3277573 5.7502826 10.626066 7.3007812 10.9375 C 7.3404707 10.945467 7.3822364 10.952535 7.4238281 10.958984 L 4.1269531 7.6621094 z " />
  <path
     id="path975"
     style="color:#000000;fill:#241f31;stroke-width:1;-inkscape-stroke:none;fill-opacity:0.5"
     d="M 7.953125 0 C 7.7424813 0.0013159 7.539989 0.01646345 7.3554688 0.05078125 C 6.4272421 0.22341687 5.612705 0.74224793 5.0175781 1.4824219 L 5.7539062 2.21875 C 6.2001925 1.6582862 6.8147966 1.2681513 7.5214844 1.1367188 C 7.6323437 1.1161007 7.7928642 1.1006473 7.9589844 1.0996094 C 8.237911 1.0978594 8.5520472 1.1365144 8.6953125 1.1777344 C 9.252457 1.338039 9.6606854 1.5876294 10.046875 1.9960938 C 10.540025 2.5176871 10.846895 3.1475931 10.958984 3.8730469 C 10.959942 3.8792442 10.965159 3.9447124 10.96875 4 C 10.975653 4.1062839 10.983052 4.2571962 10.988281 4.4550781 C 10.996181 4.7558964 11.00022 5.129089 11 5.5 C 10.999777 5.870911 10.994598 6.2408627 10.986328 6.5410156 C 10.98075 6.7427246 10.971682 6.8959187 10.964844 7 C 10.961506 7.0507968 10.957812 7.1141651 10.957031 7.1191406 C 10.943579 7.2049412 10.927044 7.2898558 10.908203 7.3730469 L 11.71875 8.1835938 C 11.81794 7.9041296 11.893664 7.6111527 11.941406 7.3066406 C 11.956168 7.2124913 11.964471 7.1121267 11.970703 7 C 11.977546 6.8768901 11.98177 6.7394708 11.986328 6.5742188 C 11.995045 6.2584069 11.999772 5.8798538 12 5.5 C 12.000228 5.1201462 11.996637 4.7402533 11.988281 4.4238281 C 11.983959 4.2601232 11.981413 4.1220008 11.974609 4 C 11.968262 3.8861854 11.958058 3.7866012 11.943359 3.6914062 C 11.796229 2.7391683 11.379056 1.8787922 10.740234 1.203125 C 10.238002 0.6719239 9.6455222 0.31362535 8.9492188 0.11328125 C 8.6526109 0.02793985 8.3021372 -0.00218565 7.953125 0 z " />
  <path
     id="path1521"
     style="color:#000000;fill:#241f31;stroke-width:1;stroke-linecap:round;stroke-linejoin:round;-inkscape-stroke:none;fill-opacity:0.5"
     d="M 3.5253906 10 A 0.4999975 0.5999298 0 0 0 3.1660156 10.154297 A 0.4999975 0.5999298 0 0 0 3.1289062 11 C 3.128906 11 4.6259557 13.020166 7 13.498047 L 7 16 L 9 16 L 9 13.498047 C 9.2621893 13.44527 9.5119924 13.372713 9.7519531 13.287109 L 8.7851562 12.320312 C 8.5330793 12.368584 8.2724896 12.400391 8 12.400391 C 5.5469149 12.400391 3.8710937 10.199219 3.8710938 10.199219 A 0.4999975 0.5999298 0 0 0 3.5253906 10 z " />
  <path
     style="color:#000000;fill:#241f31;stroke-linecap:round;stroke-linejoin:round;-inkscape-stroke:none"
     d="m 1.5,1 a 0.49999851,0.49999851 0 0 0 -0.3535156,0.1464844 0.49999851,0.49999851 0 0 0 0,0.7070312 L 14.146484,14.853516 a 0.49999851,0.49999851 0 0 0 0.707032,0 0.49999851,0.49999851 0 0 0 0,-0.707032 L 1.8535156,1.1464844 A 0.49999851,0.49999851 0 0 0 1.5,1 Z"
     id="path1093" />
</svg>
