<svg xmlns="http://www.w3.org/2000/svg" xmlns:svg="http://www.w3.org/2000/svg" id="svg4" width="16" height="16" version="1.1" viewBox="0 0 16 16"><path id="path1251" style="color:#000;fill:#241f31;stroke-width:1;-inkscape-stroke:none;fill-opacity:1" d="M 7.953125 0 C 7.7424813 0.0013159 7.539989 0.01646345 7.3554688 0.05078125 C 5.6641248 0.36534475 4.3452298 1.8231041 4.0566406 3.6914062 C 4.0419973 3.7862047 4.0317185 3.8860177 4.0253906 4 C 4.0185349 4.1234905 4.0160939 4.2629618 4.0117188 4.4277344 C 4.0033053 4.7445927 3.9995717 5.1239352 4 5.5039062 C 4.0004283 5.8838774 4.0045599 6.2626539 4.0136719 6.5800781 C 4.0183042 6.741483 4.0222976 6.8779511 4.0292969 7 C 4.0360626 7.1179765 4.045651 7.2218344 4.0605469 7.3183594 C 4.3428084 9.1475598 5.6449236 10.604904 7.3007812 10.9375 C 7.7186895 11.02139 8.2529574 11.021013 8.6738281 10.939453 C 10.350101 10.614317 11.650199 9.16402 11.941406 7.3066406 C 11.956168 7.2124913 11.964471 7.1121267 11.970703 7 C 11.977546 6.8768901 11.98177 6.7394708 11.986328 6.5742188 C 11.995045 6.2584069 11.999772 5.8798538 12 5.5 C 12.000228 5.1201462 11.996637 4.7402533 11.988281 4.4238281 C 11.983959 4.2601232 11.981413 4.1220008 11.974609 4 C 11.968262 3.8861854 11.958058 3.7866012 11.943359 3.6914062 C 11.796229 2.7391683 11.379056 1.8787922 10.740234 1.203125 C 10.238002 0.6719239 9.6455222 0.31362535 8.9492188 0.11328125 C 8.6526109 0.02793985 8.3021372 -0.00218565 7.953125 0 z M 7.9589844 1.0996094 C 8.237911 1.0978594 8.5520472 1.1365144 8.6953125 1.1777344 C 9.252457 1.338039 9.6606854 1.5876294 10.046875 1.9960938 C 10.540025 2.5176871 10.846895 3.1475931 10.958984 3.8730469 C 10.959942 3.8792442 10.965159 3.9447124 10.96875 4 C 10.975653 4.1062839 10.983052 4.2571962 10.988281 4.4550781 C 10.996181 4.7558964 11.00022 5.129089 11 5.5 C 10.999777 5.870911 10.994598 6.2408627 10.986328 6.5410156 C 10.98075 6.7427246 10.971682 6.8959187 10.964844 7 C 10.961506 7.0507968 10.957812 7.1141651 10.957031 7.1191406 C 10.735099 8.5346461 9.7662654 9.6098597 8.5 9.8554688 C 8.2722056 9.8996417 7.6993918 9.8974596 7.4804688 9.8535156 C 6.2417613 9.6047086 5.258561 8.5065996 5.046875 7.1347656 C 5.0454532 7.1255525 5.0394275 7.0589644 5.0351562 7 C 5.0273001 6.8915436 5.0192778 6.7403009 5.0136719 6.5449219 C 5.0050181 6.2433214 5.000418 5.8727491 5 5.5019531 C 4.999582 5.1311572 5.0037288 4.7598943 5.0117188 4.4589844 C 5.0170307 4.2589292 5.0257232 4.1070279 5.0332031 4 C 5.036974 3.9460435 5.0418026 3.8805961 5.0429688 3.8730469 C 5.2623115 2.45304 6.2424396 1.3746008 7.5214844 1.1367188 C 7.6323437 1.1161007 7.7928642 1.1006473 7.9589844 1.0996094 z"/><path id="path1521" style="color:#000;fill:#241f31;stroke-width:1;stroke-linecap:round;stroke-linejoin:round;-inkscape-stroke:none" d="m 3.5253906,10.000112 a 0.4999975,0.5999298 0 0 0 -0.359375,0.15467 0.4999975,0.5999298 0 0 0 -0.037109,0.845999 c -2e-7,0 1.4970495,2.020277 3.8710938,2.498158 v 2.500501 h 2 v -2.500501 c 2.3740436,-0.477881 3.8710936,-2.498158 3.8710936,-2.498158 a 0.4999975,0.5999298 0 0 0 -0.03711,-0.845999 0.4999975,0.5999298 0 0 0 -0.705078,0.04453 c 0,0 -1.675821,2.200534 -4.128906,2.200534 -2.4530851,0 -4.1289062,-2.200534 -4.1289062,-2.200534 a 0.4999975,0.5999298 0 0 0 -0.3457032,-0.1992 z"/></svg>