<?xml version="1.0" encoding="UTF-8" standalone="no"?>
<svg
   height="16px"
   viewBox="0 0 16 16"
   width="16px"
   version="1.1"
   id="svg4"
   xmlns="http://www.w3.org/2000/svg"
   xmlns:svg="http://www.w3.org/2000/svg">
  <defs
     id="defs8" />
  <path
     id="path935"
     style="fill:#3d3846;stroke-width:1;fill-opacity:1"
     d="M 11.892578 9.90625 C 11.636679 9.905111 11.497031 9.9974724 11.251953 10.324219 C 10.478204 11.35581 9.4226581 11.925091 8.171875 11.988281 C 6.84211 12.055456 5.594306 11.451483 4.7402344 10.324219 C 4.5654416 10.093513 4.3989604 10 4.1601562 10 C 3.7966778 10 3.5 10.298399 3.5 10.664062 C 3.5 10.855612 3.609989 11.054675 3.9238281 11.429688 C 4.6907978 12.346156 5.802476 12.999595 6.9824219 13.226562 L 7.34375 13.294922 L 7.34375 13.726562 C 7.34375 14.018982 7.3579579 14.190931 7.3867188 14.259766 C 7.439069 14.385057 7.6058591 14.555924 7.7324219 14.613281 C 7.7905508 14.639591 7.9067144 14.654037 8.03125 14.648438 C 8.2672156 14.637801 8.4226743 14.552174 8.5585938 14.355469 C 8.6379858 14.240572 8.6407806 14.213985 8.6503906 13.765625 L 8.6601562 13.296875 L 9.0253906 13.224609 C 10.216375 12.991148 11.307868 12.35171 12.070312 11.4375 C 12.413449 11.026061 12.536288 10.818433 12.554688 10.626953 C 12.592092 10.23767 12.289737 9.90802 11.892578 9.90625 z " />
  <path
     id="path2268"
     style="fill:#3d3846;stroke-width:1;fill-opacity:1"
     d="M 11.646484 7 L 4.3535156 7 C 4.3627078 7.2919314 4.3765352 7.5221005 4.3945312 7.6269531 C 4.6528563 9.1320594 5.8494789 10.332097 7.3632812 10.605469 C 7.6963318 10.665579 8.2740417 10.666582 8.6132812 10.607422 C 10.152172 10.339062 11.339062 9.1521715 11.607422 7.6132812 C 11.624817 7.5135325 11.637713 7.2884811 11.646484 7 z " />
  <path
     id="path2266"
     style="fill:#3d3846;stroke-width:1;fill-opacity:1"
     d="M 11.521484 4 L 4.4785156 4 C 4.4427591 4.1259893 4.4132095 4.2552662 4.390625 4.3867188 C 4.3373375 4.6968738 4.3260145 6.1266027 4.3535156 7 L 11.646484 7 C 11.672889 6.13158 11.661612 4.6907457 11.609375 4.3867188 C 11.586761 4.2550953 11.557421 4.1264745 11.521484 4 z " />
  <path
     id="path2264"
     style="fill:#3d3846;stroke-width:1;fill-opacity:0.5"
     d="M 7.953125 1.3476562 C 7.756085 1.3487657 7.5665873 1.3628411 7.4121094 1.3886719 C 5.9907272 1.626344 4.8633263 2.6441061 4.4785156 4 L 11.521484 4 C 11.34205 3.3685042 10.997125 2.8029962 10.503906 2.3339844 C 10.039278 1.8921596 9.5149044 1.6070748 8.859375 1.4375 C 8.6293299 1.3779912 8.281525 1.3458072 7.953125 1.3476562 z " />
</svg>
