<?xml version="1.0" encoding="UTF-8" standalone="no"?>
<svg
   height="16px"
   viewBox="0 0 16 16"
   width="16px"
   version="1.1"
   id="svg4"
   xmlns="http://www.w3.org/2000/svg"
   xmlns:svg="http://www.w3.org/2000/svg">
  <defs
     id="defs8" />
  <path
     id="path935"
     style="fill:#3d3846;stroke-width:1;fill-opacity:0.5"
     d="M 8.1523438 1.3515625 C 7.8880339 1.3426395 7.61808 1.3542309 7.4121094 1.3886719 C 6.7638458 1.4970693 6.1785828 1.7689035 5.6953125 2.1601562 L 11.519531 7.984375 C 11.553877 7.8624896 11.585277 7.740269 11.607422 7.6132812 C 11.677183 7.2132571 11.678965 4.7917407 11.609375 4.3867188 C 11.473848 3.5978904 11.095905 2.8969288 10.503906 2.3339844 C 10.039278 1.8921596 9.5149044 1.6070748 8.859375 1.4375 C 8.6753389 1.389893 8.4166536 1.3604855 8.1523438 1.3515625 z M 4.4882812 8.0234375 C 4.8354171 9.2137174 5.7792591 10.157929 6.9765625 10.511719 L 4.4882812 8.0234375 z M 4.1601562 10 C 3.7966778 10 3.5 10.298399 3.5 10.664062 C 3.5 10.855612 3.609989 11.054675 3.9238281 11.429688 C 4.6907978 12.346156 5.802476 12.999595 6.9824219 13.226562 L 7.34375 13.294922 L 7.34375 13.726562 C 7.34375 14.018982 7.3579579 14.190931 7.3867188 14.259766 C 7.439069 14.385057 7.6058591 14.555924 7.7324219 14.613281 C 7.7905508 14.639591 7.9067144 14.654037 8.03125 14.648438 C 8.2672156 14.637801 8.4226743 14.552174 8.5585938 14.355469 C 8.6379858 14.240572 8.6407806 14.213985 8.6503906 13.765625 L 8.6601562 13.296875 L 9.0253906 13.224609 C 9.2050944 13.189383 9.3822562 13.145128 9.5566406 13.091797 L 8.4316406 11.966797 C 8.3459706 11.976185 8.2595 11.983854 8.171875 11.988281 C 6.84211 12.055456 5.594306 11.451483 4.7402344 10.324219 C 4.5654416 10.093513 4.3989604 10 4.1601562 10 z " />
  <path
     style="color:#000000;fill:#241f31;stroke-linecap:round;stroke-linejoin:round;-inkscape-stroke:none"
     d="m 1.7070312,0.29296875 a 1.0001,1.0001 0 0 0 -1.40429682,0.009766 1.0001,1.0001 0 0 0 -0.009766,1.40429682 L 14.292969,15.707031 a 1.0001,1.0001 0 0 0 0.960937,0.248047 1.0001,1.0001 0 0 0 0.701172,-0.701172 1.0001,1.0001 0 0 0 -0.248047,-0.960937 z"
     id="path1230" />
</svg>
