<?xml version="1.0" encoding="UTF-8" standalone="no"?>
<svg
   height="16px"
   viewBox="0 0 16 16"
   width="16px"
   version="1.1"
   id="svg4"
   xmlns="http://www.w3.org/2000/svg"
   xmlns:svg="http://www.w3.org/2000/svg">
  <defs
     id="defs8" />
  <path
     id="path1251"
     style="color:#000000;fill:#241f31;stroke-width:1;-inkscape-stroke:none;fill-opacity:0.5"
     d="M 7.953125 0 C 7.7424813 0.0013159 7.539989 0.01646345 7.3554688 0.05078125 C 5.6641248 0.36534475 4.3452298 1.8231041 4.0566406 3.6914062 C 4.0261324 3.8889107 4.0201322 4.1108761 4.0117188 4.4277344 C 4.0033053 4.7445927 3.9995717 5.1239352 4 5.5039062 C 4.0004283 5.8838774 4.0045599 6.2626539 4.0136719 6.5800781 C 4.0227819 6.8975022 4.0302409 7.1219776 4.0605469 7.3183594 C 4.3255117 9.0354687 5.4886563 10.424481 7 10.863281 L 7 9.7089844 C 5.9939441 9.3055008 5.2302761 8.3232987 5.046875 7.1347656 C 5.0428381 7.1086064 5.0223256 6.8465224 5.0136719 6.5449219 C 5.0050181 6.2433214 5.000418 5.8727491 5 5.5019531 C 4.999582 5.1311572 5.0037288 4.7598943 5.0117188 4.4589844 C 5.0197087 4.1580745 5.0394895 3.8955707 5.0429688 3.8730469 C 5.2623115 2.45304 6.2424396 1.374601 7.5214844 1.1367188 C 7.6323437 1.1161007 7.7928642 1.1006473 7.9589844 1.0996094 C 8.237911 1.0978594 8.5520472 1.1365144 8.6953125 1.1777344 C 9.252457 1.338039 9.6606854 1.5876294 10.046875 1.9960938 C 10.540025 2.5176871 10.846895 3.1475931 10.958984 3.8730469 C 10.961784 3.8911579 10.980331 4.1542605 10.988281 4.4550781 C 10.996181 4.7558964 11.00022 5.129089 11 5.5 C 10.999777 5.870911 10.994598 6.2408627 10.986328 6.5410156 C 10.98075 6.7427246 10.971682 6.8959187 10.964844 7 L 11.970703 7 C 11.977546 6.8768901 11.98177 6.7394708 11.986328 6.5742188 C 11.995045 6.2584069 11.999772 5.8798538 12 5.5 C 12.000228 5.1201462 11.996637 4.7402533 11.988281 4.4238281 C 11.979926 4.1074029 11.973813 3.8886432 11.943359 3.6914062 C 11.796229 2.7391683 11.379056 1.8787922 10.740234 1.203125 C 10.238002 0.6719239 9.6455222 0.31362535 8.9492188 0.11328125 C 8.652611 0.02793985 8.3021372 -0.00218565 7.953125 0 z " />
  <path
     id="path1521"
     style="color:#000000;fill:#241f31;stroke-width:1;stroke-linecap:round;stroke-linejoin:round;-inkscape-stroke:none;fill-opacity:0.5"
     d="M 3.5253906 10 A 0.4999975 0.5999298 0 0 0 3.1660156 10.154297 A 0.4999975 0.5999298 0 0 0 3.1289062 11 C 3.128906 11 4.6259557 13.020166 7 13.498047 L 7 12.277344 C 5.1032056 11.815549 3.8710937 10.199219 3.8710938 10.199219 A 0.4999975 0.5999298 0 0 0 3.5253906 10 z " />
  <path
     style="fill:none;stroke:#e01b24;stroke-width:0.999996px;stroke-linecap:round;stroke-linejoin:round;stroke-opacity:1"
     d="m 8.499998,8.499998 7,7.000005"
     class="error"
     id="path1032" />
  <path
     style="fill:none;stroke:#e01b24;stroke-width:0.999996px;stroke-linecap:round;stroke-linejoin:round;stroke-opacity:1"
     d="m 15.499998,8.499998 -7,7.000005"
     class="error"
     id="path1034" />
</svg>
