<?xml version="1.0" encoding="UTF-8" standalone="no"?>
<svg
   height="16px"
   viewBox="0 0 16 16"
   width="16px"
   version="1.1"
   id="svg4"
   xmlns="http://www.w3.org/2000/svg"
   xmlns:svg="http://www.w3.org/2000/svg">
  <defs
     id="defs8" />
  <path
     id="path935"
     style="fill:#3d3846;stroke-width:1;fill-opacity:1"
     d="M 8.1523438 1.3515625 C 7.8880339 1.3426395 7.61808 1.3542309 7.4121094 1.3886719 C 5.8586528 1.6484284 4.6562637 2.8405764 4.390625 4.3867188 C 4.3195262 4.8005425 4.3226946 7.2084034 4.3945312 7.6269531 C 4.6318323 9.0095651 5.6606941 10.133601 7 10.519531 L 7 7 L 11.646484 7 C 11.672889 6.13158 11.661612 4.6907457 11.609375 4.3867188 C 11.473848 3.5978904 11.095905 2.8969288 10.503906 2.3339844 C 10.039278 1.8921596 9.5149044 1.6070748 8.859375 1.4375 C 8.6753389 1.389893 8.4166536 1.3604855 8.1523438 1.3515625 z M 4.1601562 10 C 3.7966778 10 3.5 10.298399 3.5 10.664062 C 3.5 10.855612 3.609989 11.054675 3.9238281 11.429688 C 4.6907978 12.346156 5.802476 12.999595 6.9824219 13.226562 L 7 13.230469 L 7 11.869141 C 6.1257737 11.642197 5.3366695 11.111436 4.7402344 10.324219 C 4.5654416 10.093513 4.3989604 10 4.1601562 10 z " />
  <path
     id="path9008"
     style="color:#000000;fill:#e01b24;stroke-width:0.999997;stroke-linecap:round;stroke-linejoin:round;-inkscape-stroke:none"
     d="m 15.432114,8.0003411 a 0.57241988,0.57239521 0 0 1 0.400208,0.167678 0.57241988,0.57239521 0 0 1 0.0068,0.8026146 l -3.029497,3.0293673 3.029497,3.029367 A 0.57241988,0.57239521 0 0 1 15.029765,15.83869 L 12.00027,12.809322 8.97077,15.83869 A 0.57241988,0.57239521 0 0 1 8.420766,15.979538 0.57241988,0.57239521 0 0 1 8.02056,15.57935 0.57241988,0.57239521 0 0 1 8.161419,15.029368 L 11.190819,12 8.161321,8.9706329 A 0.57241988,0.57239521 0 0 1 8.020462,8.4206517 0.57241988,0.57239521 0 0 1 8.420668,8.0204623 0.57241988,0.57239521 0 0 1 8.970674,8.1613111 l 3.029504,3.0293669 3.029495,-3.0293669 a 0.57241988,0.57239521 0 0 1 0.402441,-0.16097 z" />
</svg>
