<?xml version="1.0" encoding="UTF-8" standalone="no"?>
<svg
   height="16"
   width="16"
   version="1.1"
   id="svg6"
   xmlns="http://www.w3.org/2000/svg"
   xmlns:svg="http://www.w3.org/2000/svg"
   xmlns:rdf="http://www.w3.org/1999/02/22-rdf-syntax-ns#"
   xmlns:cc="http://creativecommons.org/ns#"
   xmlns:dc="http://purl.org/dc/elements/1.1/">
  <metadata
     id="metadata12">
    <rdf:RDF>
      <cc:Work
         rdf:about="">
        <dc:format>image/svg+xml</dc:format>
        <dc:type
           rdf:resource="http://purl.org/dc/dcmitype/StillImage" />
      </cc:Work>
    </rdf:RDF>
  </metadata>
  <defs
     id="defs10" />
  <path
     id="path5212"
     style="fill:#241f31;stroke-width:1"
     d="M 7.96875 12.855469 C 7.71666 12.855469 7.6484975 12.867207 7.5234375 12.935547 C 7.3194775 13.046943 7.1307563 13.254966 7.0351562 13.472656 C 6.9200863 13.734795 6.9198264 14.113735 7.0351562 14.375 C 7.1531563 14.642337 7.381085 14.864678 7.640625 14.96875 C 7.6921949 14.98948 7.85389 15.0044 8 15 C 8.30994 14.991031 8.4806663 14.915802 8.6914062 14.695312 C 8.8938563 14.483467 8.9824219 14.246999 8.9824219 13.923828 C 8.9824219 13.600666 8.8938762 13.36418 8.6914062 13.152344 C 8.4678162 12.91842 8.31287 12.855469 7.96875 12.855469 z " />
  <path
     id="path5564"
     style="fill:#241f31;stroke-width:1"
     d="M 7.9667969 8.7636719 C 7.294177 8.7634881 6.708683 8.9175151 6.0644531 9.2636719 C 5.5882332 9.5195468 4.903865 10.079679 4.796875 10.300781 C 4.638945 10.627163 4.7561039 11.030356 5.0585938 11.201172 C 5.1813837 11.270562 5.4449056 11.289991 5.5722656 11.238281 C 5.6140756 11.221298 5.7660662 11.101613 5.9101562 10.972656 C 6.7668961 10.205863 7.7182451 9.9303416 8.640625 10.181641 C 9.0791749 10.301121 9.5677351 10.567675 9.921875 10.882812 C 10.314944 11.232615 10.401331 11.278259 10.644531 11.261719 C 10.880171 11.24568 11.036948 11.133621 11.148438 10.900391 C 11.274247 10.637237 11.223909 10.363494 11.005859 10.121094 C 10.850749 9.9486499 10.434405 9.6037767 10.203125 9.4570312 C 9.4579359 8.9841839 8.7461268 8.7638731 7.9667969 8.7636719 z " />
  <path
     id="path5562"
     style="fill:#241f31;stroke-width:1"
     d="M 8 4.8574219 C 7.6944588 4.8574219 7.3882444 4.8680065 7.1933594 4.890625 C 6.0104296 5.027903 4.7962549 5.5044015 3.765625 6.234375 C 3.1672751 6.6581702 2.4403637 7.3434688 2.3398438 7.578125 C 2.2016138 7.9008407 2.3303951 8.2709329 2.640625 8.4433594 C 2.745305 8.5015464 3.0165687 8.5136688 3.1367188 8.4648438 C 3.1798487 8.4473176 3.3596594 8.2920852 3.5371094 8.1210938 C 4.4646192 7.2273211 5.3712521 6.6892959 6.4511719 6.390625 C 6.9766319 6.2452886 7.3947901 6.1914062 8 6.1914062 C 9.0315698 6.1914063 9.9227208 6.4167639 10.84375 6.9101562 C 11.40971 7.2133333 11.875652 7.5648013 12.482422 8.1425781 C 12.843592 8.4867174 12.909616 8.5172432 13.191406 8.4882812 C 13.578306 8.4485565 13.826386 7.9661941 13.660156 7.578125 C 13.559776 7.3437838 12.834695 6.6604014 12.234375 6.234375 C 11.212915 5.5094677 9.9831973 5.0273955 8.8046875 4.890625 C 8.6097975 4.8680065 8.3055412 4.8574219 8 4.8574219 z " />
  <path
     id="path5560"
     style="fill:#241f31;stroke-width:1;fill-opacity:1"
     d="M 8 1 C 6.9019002 1 6.5296299 1.0382117 5.6875 1.2363281 C 3.6882103 1.706673 1.8646404 2.7847011 0.43164062 4.34375 C 0.057830675 4.7504215 -0.00099999985 4.8543277 0 5.1054688 C 0.0010900032 5.3176726 0.14994503 5.5499757 0.359375 5.6679688 C 0.46543498 5.7277309 0.7357319 5.7408434 0.85742188 5.6914062 C 0.90198187 5.6733026 1.1318175 5.4617292 1.3671875 5.2207031 C 1.8946774 4.680551 2.3039101 4.3258618 2.8125 3.96875 C 4.1330398 3.0415351 5.5133753 2.5167685 7.078125 2.3496094 C 7.519765 2.3024472 8.480245 2.3024472 8.921875 2.3496094 C 11.098774 2.5821657 12.989474 3.5290386 14.615234 5.2011719 C 14.835644 5.4278744 15.060234 5.639647 15.115234 5.6699219 C 15.326224 5.7859462 15.662644 5.7138832 15.833984 5.5175781 C 15.921174 5.4177061 16.00022 5.2201225 16 5.0996094 C 15.99954 4.8545845 15.937386 4.747359 15.566406 4.34375 C 14.133406 2.7847011 12.3118 1.706673 10.3125 1.2363281 C 9.4703709 1.0382467 9.0980898 1 8 1 z " />
</svg>
