<?xml version="1.0" encoding="UTF-8" standalone="no"?>
<svg
   height="16"
   width="16"
   version="1.1"
   id="svg6"
   xmlns="http://www.w3.org/2000/svg"
   xmlns:svg="http://www.w3.org/2000/svg"
   xmlns:rdf="http://www.w3.org/1999/02/22-rdf-syntax-ns#"
   xmlns:cc="http://creativecommons.org/ns#"
   xmlns:dc="http://purl.org/dc/elements/1.1/">
  <metadata
     id="metadata12">
    <rdf:RDF>
      <cc:Work
         rdf:about="">
        <dc:format>image/svg+xml</dc:format>
        <dc:type
           rdf:resource="http://purl.org/dc/dcmitype/StillImage" />
      </cc:Work>
    </rdf:RDF>
  </metadata>
  <defs
     id="defs10" />
  <circle
     style="fill:#241f31;stroke:none;stroke-linecap:round;stroke-linejoin:round;stop-color:#000000;fill-opacity:0.5"
     id="path1422"
     cx="5"
     cy="8"
     r="1" />
  <circle
     style="fill:#241f31;stroke:none;stroke-linecap:round;stroke-linejoin:round;stop-color:#000000"
     id="path1424"
     cx="8"
     cy="8"
     r="1" />
  <circle
     style="fill:#241f31;stroke:none;stroke-linecap:round;stroke-linejoin:round;stop-color:#000000;fill-opacity:0.5"
     id="path1426"
     cx="11"
     cy="8"
     r="1" />
  <path
     style="color:#000000;fill:#241f31;stroke-width:0.999998;stroke-linecap:round;stroke-linejoin:round;-inkscape-stroke:none;fill-opacity:0.5"
     d="m 12.314987,2.039067 a 0.49979966,0.54538915 0 0 0 -0.279185,0.7094319 l 1.925011,5.251501 -1.925011,5.2515001 a 0.49979966,0.54538915 0 0 0 0.279185,0.709433 0.49979966,0.54538915 0 0 0 0.65013,-0.304651 l 1.999199,-5.4538916 a 0.49984964,0.54544369 0 0 0 0,-0.404781 L 12.965117,2.3437179 A 0.49979966,0.54538915 0 0 0 12.314987,2.039067 Z"
     id="path862" />
  <path
     style="color:#000000;fill:#241f31;stroke-width:0.999999;stroke-linecap:round;stroke-linejoin:round;-inkscape-stroke:none;fill-opacity:0.5"
     d="M 3.6850137,2.039067 A 0.4997998,0.54538915 0 0 0 3.0348834,2.3437179 L 1.0356842,7.7976094 a 0.49984978,0.54544369 0 0 0 0,0.404781 L 3.0348834,13.656282 A 0.4997998,0.54538915 0 0 0 3.6850137,13.960933 0.4997998,0.54538915 0 0 0 3.9641987,13.2515 L 2.0391885,7.9999999 3.9641987,2.7484989 A 0.4997998,0.54538915 0 0 0 3.6850137,2.039067 Z"
     id="path864" />
</svg>
