<?xml version="1.0" encoding="UTF-8" standalone="no"?>
<svg
   height="16"
   width="16"
   version="1.1"
   id="svg6"
   xmlns="http://www.w3.org/2000/svg"
   xmlns:svg="http://www.w3.org/2000/svg"
   xmlns:rdf="http://www.w3.org/1999/02/22-rdf-syntax-ns#"
   xmlns:cc="http://creativecommons.org/ns#"
   xmlns:dc="http://purl.org/dc/elements/1.1/">
  <metadata
     id="metadata12">
    <rdf:RDF>
      <cc:Work
         rdf:about="">
        <dc:format>image/svg+xml</dc:format>
        <dc:type
           rdf:resource="http://purl.org/dc/dcmitype/StillImage" />
      </cc:Work>
    </rdf:RDF>
  </metadata>
  <defs
     id="defs10" />
  <path
     style="color:#000000;fill:#241f31;stroke-linecap:round;stroke-linejoin:round;-inkscape-stroke:none;fill-opacity:0.5"
     d="M 2.5,5 A 0.500048,0.500048 0 0 0 2,5.5 v 9 A 0.500048,0.500048 0 0 0 2.5,15 h 11 A 0.500048,0.500048 0 0 0 14,14.5 v -9 A 0.500048,0.500048 0 0 0 13.5,5 Z M 3,6 h 10 v 8 H 3 Z"
     id="path859" />
  <path
     style="color:#000000;fill:#241f31;stroke-width:0.999996;stroke-linecap:round;stroke-linejoin:round;-inkscape-stroke:none;fill-opacity:0.5"
     d="M 4.5,2 C 4.2238693,2.000016 4.0000279,2.342211 4,2.5 v 1 C 4,3.657796 4.2238578,4 4.5,4 4.7761422,4 5,3.657796 5,3.5 V 3 h 6 V 3.5 C 11,3.657796 11.223858,4 11.5,4 11.776142,4 12,3.657796 12,3.5 v -1 C 11.999972,2.342211 11.776131,2.000016 11.5,2 Z"
     id="path1108" />
  <path
     id="rect1319"
     style="fill:#241f31;fill-opacity:1;stroke:none;stroke-linecap:round;stroke-linejoin:round;stop-color:#000000"
     d="M 6.5 7 C 6.223 7 6 7.223 6 7.5 C 6 7.777 6.223 8 6.5 8 L 9 8 L 9 9 L 7.5253906 9 C 7.516845 8.9995696 7.5086562 9 7.5 9 C 7.223 9 7 9.223 7 9.5 L 7 10.5 C 7 10.777 7.223 11 7.5 11 C 7.777 11 8 10.777 8 10.5 L 8 10 L 9.5 10 C 9.777 10 10 9.777 10 9.5 L 10 7.5 C 10 7.223 9.777 7 9.5 7 L 6.5 7 z " />
  <rect
     style="fill:#241f31;fill-opacity:1;stroke:none;stroke-linecap:round;stroke-linejoin:round;stop-color:#000000"
     id="rect1349"
     width="1"
     height="1"
     x="7"
     y="12"
     rx="0.5"
     ry="0.5" />
</svg>
