<?xml version="1.0" encoding="UTF-8" standalone="no"?>
<svg
   height="16"
   width="16"
   version="1.1"
   id="svg6"
   xmlns="http://www.w3.org/2000/svg"
   xmlns:svg="http://www.w3.org/2000/svg"
   xmlns:rdf="http://www.w3.org/1999/02/22-rdf-syntax-ns#"
   xmlns:cc="http://creativecommons.org/ns#"
   xmlns:dc="http://purl.org/dc/elements/1.1/">
  <metadata
     id="metadata12">
    <rdf:RDF>
      <cc:Work
         rdf:about="">
        <dc:format>image/svg+xml</dc:format>
        <dc:type
           rdf:resource="http://purl.org/dc/dcmitype/StillImage" />
      </cc:Work>
    </rdf:RDF>
  </metadata>
  <defs
     id="defs10" />
  <path
     id="path5212"
     style="fill:#241f31;stroke-width:1;fill-opacity:0.5"
     d="M 7.96875 12.855469 C 7.71666 12.855469 7.6484975 12.867207 7.5234375 12.935547 C 7.3194775 13.046943 7.1307563 13.254966 7.0351562 13.472656 C 6.9200863 13.734795 6.9198264 14.113735 7.0351562 14.375 C 7.1531563 14.642337 7.381085 14.864678 7.640625 14.96875 C 7.6921949 14.98948 7.85389 15.0044 8 15 C 8.30994 14.991031 8.4806663 14.915802 8.6914062 14.695312 C 8.8938563 14.483467 8.9824219 14.246999 8.9824219 13.923828 C 8.9824219 13.600666 8.8938762 13.36418 8.6914062 13.152344 C 8.4678162 12.91842 8.31287 12.855469 7.96875 12.855469 z " />
  <path
     id="path5564"
     style="fill:#241f31;stroke-width:1;fill-opacity:0.5"
     d="M 5.8574219 9.3925781 C 5.4091665 9.674814 4.8894513 10.109466 4.796875 10.300781 C 4.638945 10.627163 4.7561039 11.030356 5.0585938 11.201172 C 5.1813836 11.270562 5.4449056 11.289991 5.5722656 11.238281 C 5.6140756 11.221298 5.7660662 11.101613 5.9101562 10.972656 C 6.2051535 10.70863 6.5118326 10.50546 6.8242188 10.359375 L 5.8574219 9.3925781 z " />
  <path
     id="path5562"
     style="fill:#241f31;stroke-width:1;fill-opacity:0.5"
     d="M 8.4003906 4.8652344 L 10.107422 6.5722656 C 10.352946 6.6667442 10.597211 6.778086 10.84375 6.9101562 C 11.40971 7.2133334 11.875652 7.5648013 12.482422 8.1425781 C 12.843592 8.4867174 12.909616 8.5172432 13.191406 8.4882812 C 13.578306 8.4485566 13.826386 7.9661941 13.660156 7.578125 C 13.559776 7.3437838 12.834695 6.6604014 12.234375 6.234375 C 11.212915 5.5094677 9.9831973 5.0273955 8.8046875 4.890625 C 8.6978014 4.87822 8.5552395 4.8706391 8.4003906 4.8652344 z M 3.1699219 6.7050781 C 2.7630092 7.0553811 2.4077537 7.4195943 2.3398438 7.578125 C 2.2016137 7.9008407 2.3303951 8.2709329 2.640625 8.4433594 C 2.745305 8.5015464 3.0165687 8.5136687 3.1367188 8.4648438 C 3.1798486 8.4473175 3.3596594 8.2920852 3.5371094 8.1210938 C 3.7222294 7.9427072 3.9067964 7.7779223 4.0917969 7.6269531 L 3.1699219 6.7050781 z " />
  <path
     id="path5560"
     style="fill:#241f31;stroke-width:1;fill-opacity:0.5"
     d="M 8 1 C 6.9019002 1 6.5296299 1.0382117 5.6875 1.2363281 C 5.4454602 1.2932694 5.2072109 1.3610176 4.9707031 1.4355469 L 6.0527344 2.5175781 C 6.3864082 2.4436478 6.727317 2.3870855 7.078125 2.3496094 C 7.519765 2.3024472 8.480245 2.3024472 8.921875 2.3496094 C 11.098774 2.5821657 12.989474 3.5290386 14.615234 5.2011719 C 14.835644 5.4278744 15.060234 5.639647 15.115234 5.6699219 C 15.326224 5.7859462 15.662644 5.7138832 15.833984 5.5175781 C 15.921174 5.4177061 16.00022 5.2201225 16 5.0996094 C 15.99954 4.8545845 15.937386 4.747359 15.566406 4.34375 C 14.133406 2.7847011 12.3118 1.706673 10.3125 1.2363281 C 9.4703709 1.0382467 9.0980898 1 8 1 z M 0.61523438 4.1503906 C 0.55363969 4.2142103 0.49187128 4.2782214 0.43164062 4.34375 C 0.05783068 4.7504215 -0.00099999985 4.8543277 0 5.1054688 C 0.0010900032 5.3176726 0.14994503 5.5499757 0.359375 5.6679688 C 0.46543498 5.7277309 0.7357319 5.7408434 0.85742188 5.6914062 C 0.90198186 5.6733027 1.1318175 5.4617292 1.3671875 5.2207031 C 1.4231649 5.163382 1.4737698 5.1158685 1.5273438 5.0625 L 0.61523438 4.1503906 z " />
  <g
     id="path1105">
    <path
       style="color:#000000;fill:#241f31;stroke-width:2;stroke-linecap:round;stroke-linejoin:round;-inkscape-stroke:none"
       d="M 0.99009975,0.99009974 15.0099,15.011173 Z"
       id="path1291" />
    <path
       style="color:#000000;fill:#241f31;stroke-linecap:round;stroke-linejoin:round;-inkscape-stroke:none"
       d="m 1.6972656,0.28320313 a 1.0001,1.0001 0 0 0 -1.40429685,0.009766 1.0001,1.0001 0 0 0 -0.009766,1.40429685 L 14.302734,15.71875 a 1.0001,1.0001 0 0 0 0.960938,0.248047 1.0001,1.0001 0 0 0 0.701172,-0.703125 1.0001,1.0001 0 0 0 -0.248047,-0.958984 z"
       id="path1293" />
  </g>
</svg>
