<?xml version="1.0" encoding="UTF-8" standalone="no"?>
<svg
   height="16"
   width="16"
   version="1.1"
   id="svg6"
   xmlns="http://www.w3.org/2000/svg"
   xmlns:svg="http://www.w3.org/2000/svg"
   xmlns:rdf="http://www.w3.org/1999/02/22-rdf-syntax-ns#"
   xmlns:cc="http://creativecommons.org/ns#"
   xmlns:dc="http://purl.org/dc/elements/1.1/">
  <metadata
     id="metadata12">
    <rdf:RDF>
      <cc:Work
         rdf:about="">
        <dc:format>image/svg+xml</dc:format>
        <dc:type
           rdf:resource="http://purl.org/dc/dcmitype/StillImage" />
      </cc:Work>
    </rdf:RDF>
  </metadata>
  <defs
     id="defs10" />
  <path
     style="color:#000000;fill:#241f31;fill-opacity:1;stroke-linecap:round;stroke-linejoin:round;-inkscape-stroke:none"
     d="M 1,4 A 1.0001,1.0001 0 0 0 0,5 v 10 a 1.0001,1.0001 0 0 0 1,1 h 14 a 1.0001,1.0001 0 0 0 1,-1 V 5 A 1.0001,1.0001 0 0 0 15,4 Z m 1,2 h 12 v 8 H 2 Z"
     id="rect951" />
  <path
     id="rect1077"
     style="fill:#241f31;fill-opacity:1;stroke:none;stroke-width:2;stroke-linecap:round;stroke-linejoin:round;stroke-opacity:0.5;stop-color:#000000"
     d="M 4,0 C 3.446,0 3,0.446 3,1 V 3 H 5 V 2 h 6 v 1 h 2 V 1 C 13,0.446 12.554,0 12,0 Z" />
</svg>
