<svg xmlns="http://www.w3.org/2000/svg" xmlns:svg="http://www.w3.org/2000/svg" id="svg6" width="16" height="16" version="1.1"><metadata id="metadata12"/><path id="path5564" style="fill:#241f31;stroke-width:1;fill-opacity:.5" d="M 7 8.8867188 C 6.6910402 8.9684995 6.3845214 9.0916932 6.0644531 9.2636719 C 5.5882332 9.5195468 4.903865 10.079679 4.796875 10.300781 C 4.638945 10.627163 4.7561039 11.030356 5.0585938 11.201172 C 5.1813836 11.270562 5.4449056 11.289991 5.5722656 11.238281 C 5.6140756 11.221298 5.7660662 11.101613 5.9101562 10.972656 C 6.2602842 10.659287 6.6267045 10.430046 7 10.283203 L 7 8.8867188 z"/><path id="path5562" style="fill:#241f31;stroke-width:1;fill-opacity:.5" d="M 8 4.8574219 C 7.6944588 4.8574219 7.3882444 4.8680065 7.1933594 4.890625 C 6.0104296 5.027903 4.7962549 5.5044015 3.765625 6.234375 C 3.1672751 6.6581702 2.4403637 7.3434688 2.3398438 7.578125 C 2.2016137 7.9008407 2.3303951 8.2709329 2.640625 8.4433594 C 2.745305 8.5015464 3.0165687 8.5136687 3.1367188 8.4648438 C 3.1798486 8.4473175 3.3596594 8.2920852 3.5371094 8.1210938 C 4.4646192 7.227321 5.3712521 6.6892959 6.4511719 6.390625 C 6.9766319 6.2452886 7.3947901 6.1914062 8 6.1914062 C 9.0315698 6.1914063 9.9227208 6.4167639 10.84375 6.9101562 C 10.897971 6.9392017 10.951309 6.9699115 11.003906 7 L 13.15625 7 C 12.883413 6.7407775 12.543223 6.4535537 12.234375 6.234375 C 11.212915 5.5094677 9.9831973 5.0273955 8.8046875 4.890625 C 8.6097975 4.8680065 8.3055412 4.8574219 8 4.8574219 z"/><path id="path5560" style="fill:#241f31;stroke-width:1;fill-opacity:.5" d="M 8 1 C 6.9019002 1 6.5296299 1.0382117 5.6875 1.2363281 C 3.6882103 1.706673 1.8646404 2.7847011 0.43164062 4.34375 C 0.057830675 4.7504215 -0.00099999985 4.8543277 0 5.1054688 C 0.0010900032 5.3176726 0.14994503 5.5499757 0.359375 5.6679688 C 0.46543498 5.7277309 0.7357319 5.7408434 0.85742188 5.6914062 C 0.90198187 5.6733026 1.1318175 5.4617292 1.3671875 5.2207031 C 1.8946774 4.680551 2.3039101 4.3258618 2.8125 3.96875 C 4.1330398 3.0415351 5.5133753 2.5167685 7.078125 2.3496094 C 7.519765 2.3024472 8.480245 2.3024472 8.921875 2.3496094 C 11.098774 2.5821657 12.989474 3.5290386 14.615234 5.2011719 C 14.835644 5.4278744 15.060234 5.639647 15.115234 5.6699219 C 15.326224 5.7859462 15.662644 5.7138832 15.833984 5.5175781 C 15.921174 5.4177061 16.00022 5.2201225 16 5.0996094 C 15.99954 4.8545845 15.937386 4.747359 15.566406 4.34375 C 14.133406 2.7847011 12.3118 1.706673 10.3125 1.2363281 C 9.4703709 1.0382467 9.0980898 1 8 1 z"/><path id="path9008" style="color:#000;fill:#e01b24;stroke-width:1;stroke-linecap:round;stroke-linejoin:round;-inkscape-stroke:none" d="M 8.5678417,8.0003408 A 0.57242344,0.57239522 0 0 0 8.1676325,8.168018 0.57242344,0.57239522 0 0 0 8.1609239,8.9706325 L 11.19044,12 8.1609239,15.029367 a 0.57242344,0.57239522 0 0 0 0.8093618,0.809322 l 3.0295153,-3.029368 3.029517,3.029368 a 0.57242344,0.57239522 0 0 0 0.550009,0.140848 0.57242344,0.57239522 0 0 0 0.400208,-0.400188 0.57242344,0.57239522 0 0 0 -0.140856,-0.549982 L 12.809165,12 15.838681,8.9706325 A 0.57242344,0.57239522 0 0 0 15.979537,8.4206515 0.57242344,0.57239522 0 0 0 15.579329,8.020462 0.57242344,0.57239522 0 0 0 15.029319,8.1613109 L 11.999802,11.190678 8.9702869,8.1613109 A 0.57242344,0.57239522 0 0 0 8.5678417,8.0003408 Z" class="error"/></svg>