<?xml version="1.0" encoding="UTF-8" standalone="no"?>
<svg
   height="16"
   width="16"
   version="1.1"
   id="svg6"
   xmlns="http://www.w3.org/2000/svg"
   xmlns:svg="http://www.w3.org/2000/svg"
   xmlns:rdf="http://www.w3.org/1999/02/22-rdf-syntax-ns#"
   xmlns:cc="http://creativecommons.org/ns#"
   xmlns:dc="http://purl.org/dc/elements/1.1/">
  <metadata
     id="metadata12">
    <rdf:RDF>
      <cc:Work
         rdf:about="">
        <dc:format>image/svg+xml</dc:format>
        <dc:type
           rdf:resource="http://purl.org/dc/dcmitype/StillImage" />
      </cc:Work>
    </rdf:RDF>
  </metadata>
  <defs
     id="defs10" />
  <path
     style="color:#000000;fill:#e01b24;stroke-linecap:round;stroke-linejoin:round;-inkscape-stroke:none"
     d="m 5.3535156,4.6464844 a 0.50005,0.50005 0 0 0 -0.7011719,0.00586 0.50005,0.50005 0 0 0 -0.00586,0.7011719 l 5.9999996,6.0000004 a 0.50005,0.50005 0 0 0 0.480469,0.123047 0.50005,0.50005 0 0 0 0.34961,-0.34961 0.50005,0.50005 0 0 0 -0.123047,-0.480469 z"
     id="path9008" />
  <path
     style="color:#000000;fill:#e01b24;stroke-linecap:round;stroke-linejoin:round;-inkscape-stroke:none"
     d="M 11.126953,4.5234375 A 0.50005,0.50005 0 0 0 10.646484,4.6464844 L 4.6464844,10.646484 a 0.50005,0.50005 0 0 0 0.7070312,0.707032 L 11.353516,5.3535156 a 0.50005,0.50005 0 0 0 0.123047,-0.4804687 0.50005,0.50005 0 0 0 -0.34961,-0.3496094 z"
     id="path9010" />
  <path
     style="color:#000000;fill:#241f31;stroke-linecap:round;stroke-linejoin:round;-inkscape-stroke:none"
     d="M 3.2617193,1.0507812 A 1,1 0 0 0 1.996094,1.6835937 l -2,6 a 1.0001,1.0001 0 0 0 0,0.6328126 l 2,5.9999997 A 1,1 0 0 0 3.2617193,14.94922 1,1 0 0 0 3.8945318,13.683595 L 2,8 3.8945318,2.3164063 A 1,1 0 0 0 3.2617193,1.0507812 Z"
     id="path1022" />
  <path
     style="color:#000000;fill:#241f31;stroke-linecap:round;stroke-linejoin:round;-inkscape-stroke:none"
     d="m 12.738281,1.0507812 a 1,1 0 0 1 1.265625,0.6328125 l 2,5.9999998 a 1.0001,1.0001 0 0 1 0,0.632813 l -2,5.9999995 A 1,1 0 0 1 12.738281,14.94922 1,1 0 0 1 12.105469,13.683595 L 14,7.9999995 12.105469,2.3164063 a 1,1 0 0 1 0.632812,-1.2656251 z"
     id="path1022-3" />
</svg>
