<?xml version="1.0" encoding="UTF-8" standalone="no"?>
<svg
   height="16"
   width="16"
   version="1.1"
   id="svg6"
   xmlns="http://www.w3.org/2000/svg"
   xmlns:svg="http://www.w3.org/2000/svg"
   xmlns:rdf="http://www.w3.org/1999/02/22-rdf-syntax-ns#"
   xmlns:cc="http://creativecommons.org/ns#"
   xmlns:dc="http://purl.org/dc/elements/1.1/">
  <metadata
     id="metadata12">
    <rdf:RDF>
      <cc:Work
         rdf:about="">
        <dc:format>image/svg+xml</dc:format>
        <dc:type
           rdf:resource="http://purl.org/dc/dcmitype/StillImage" />
      </cc:Work>
    </rdf:RDF>
  </metadata>
  <defs
     id="defs10" />
  <path
     style="color:#000000;fill:#241f31;stroke-width:1;stroke-linecap:round;stroke-linejoin:round;-inkscape-stroke:none;fill-opacity:1"
     d="m 2.6835938,3.0507784 a 1,0.9999435 0 0 0 -0.578125,0.5019247 l -2.00000005,3.999774 a 1.0001,1.0000435 0 0 0 0,0.8944807 L 2.1054688,12.446732 a 1,0.9999435 0 0 0 1.3417968,0.44724 1,0.9999435 0 0 0 0.4472657,-1.341721 L 2.1171875,7.9997175 3.8945313,4.4471838 A 1,0.9999435 0 0 0 3.4472656,3.1054628 1,0.9999435 0 0 0 2.6835938,3.0507784 Z"
     id="path1216" />
  <path
     style="color:#000000;fill:#241f31;stroke-width:1;stroke-linecap:round;stroke-linejoin:round;-inkscape-stroke:none;fill-opacity:1"
     d="m 13.316563,3.0510609 a 1,0.9999435 0 0 1 0.578125,0.5019247 l 2,3.999774 a 1.0001,1.0000435 0 0 1 0,0.8944807 l -2,3.9997747 a 1,0.9999435 0 0 1 -1.341797,0.44724 1,0.9999435 0 0 1 -0.447266,-1.341722 L 13.882969,8 12.105625,4.4474663 a 1,0.9999435 0 0 1 0.447266,-1.341721 1,0.9999435 0 0 1 0.763672,-0.054684 z"
     id="path1216-5" />
  <path
     style="fill:none;stroke:#241f31;stroke-width:1px;stroke-linecap:round;stroke-linejoin:round;stroke-opacity:1"
     d="m 5,5 6,6 z"
     id="path9008" />
  <path
     style="fill:none;stroke:#241f31;stroke-width:1px;stroke-linecap:round;stroke-linejoin:round;stroke-opacity:1"
     d="M 11,5 5,11 Z"
     id="path9010" />
</svg>
