<?xml version="1.0" encoding="UTF-8" standalone="no"?>
<svg
   height="16"
   width="16"
   version="1.1"
   id="svg6"
   xmlns="http://www.w3.org/2000/svg"
   xmlns:svg="http://www.w3.org/2000/svg"
   xmlns:rdf="http://www.w3.org/1999/02/22-rdf-syntax-ns#"
   xmlns:cc="http://creativecommons.org/ns#"
   xmlns:dc="http://purl.org/dc/elements/1.1/">
  <metadata
     id="metadata12">
    <rdf:RDF>
      <cc:Work
         rdf:about="">
        <dc:format>image/svg+xml</dc:format>
        <dc:type
           rdf:resource="http://purl.org/dc/dcmitype/StillImage" />
      </cc:Work>
    </rdf:RDF>
  </metadata>
  <defs
     id="defs10" />
  <path
     style="color:#000000;fill:#241f31;stroke-linecap:round;stroke-linejoin:round;-inkscape-stroke:none;fill-opacity:0.5"
     d="M 3.2617193,2.3671875 C 2.7374563,2.192104 2.1705852,2.4755395 1.996094,3 l -2,4.6835937 c -0.06849442,0.2053773 -0.06849442,0.4274353 0,0.6328126 l 2,4.6835927 C 2.1705845,13.52446 2.7374558,13.807896 3.2617193,13.632813 3.7861796,13.458321 4.069615,12.89145 3.8945318,12.367188 L 2,8 3.8945318,3.6328126 C 4.0696151,3.1085496 3.7861796,2.5416786 3.2617193,2.3671875 Z"
     id="path1022" />
  <path
     style="color:#000000;fill:#241f31;stroke-linecap:round;stroke-linejoin:round;-inkscape-stroke:none;fill-opacity:0.5"
     d="M 12.738281,2.3671875 C 13.262544,2.1921042 13.829415,2.4755397 14.003906,3 l 2,4.6835935 c 0.06849,0.2053774 0.06849,0.4274356 0,0.632813 l -2,4.6835925 c -0.174491,0.52446 -0.741362,0.807897 -1.265625,0.632814 -0.52446,-0.174492 -0.807895,-0.741363 -0.632812,-1.265625 L 14,7.9999995 12.105469,3.6328126 C 11.930386,3.1085497 12.213821,2.5416788 12.738281,2.3671875 Z"
     id="path1022-3" />
  <g
     aria-label="?"
     id="text3019"
     style="font-size:10px;line-height:1.25;fill:#241f31;stroke-width:0.950049"
     transform="matrix(1.0278544,0,0,1.0778947,0.86072778,0.76631598)">
    <path
       d="M 5.9729007,9.4941409 H 6.9458011 V 10.421875 H 5.9729007 Z M 6.9458011,8.5664065 H 5.9729007 c 0,-0.9277344 0,-0.9277344 0,-1.8554688 0,-0.9277344 0,-0.9277344 0.9729004,-0.9277344 0.9729004,0 0.9729004,0 0.9729004,-0.9277344 0,-0.9277344 0,-0.9277344 -0.9729004,-0.9277344 -0.7256484,0 -1.3989866,0 -1.9458009,0 V 3.0000001 c 0.9729005,0 1.9458009,0 2.9187013,0 0.9729005,0 0.9729005,0 0.9729005,0.9277344 0,0.6695725 0,1.1437254 0,1.8554688 0,0.9277344 0,0.9277344 -0.9729005,0.9277344 -0.9729004,0 -0.7418462,0 -0.9729004,0 0,0.3871314 0,0.9277344 0,1.8554688 z"
       id="path8642"
       style="fill:#241f31;stroke-width:0.950049" />
  </g>
</svg>
