<svg xmlns="http://www.w3.org/2000/svg" xmlns:svg="http://www.w3.org/2000/svg" id="svg6" width="16" height="16" version="1.1"><metadata id="metadata12"/><path style="color:#000;fill:#241f31;stroke-linecap:round;stroke-linejoin:round;-inkscape-stroke:none" id="path9008" d="m 5.3535156,4.6464844 a 0.50005,0.50005 0 0 0 -0.7011719,0.00586 0.50005,0.50005 0 0 0 -0.00586,0.7011719 l 5.9999996,6.0000004 a 0.50005,0.50005 0 0 0 0.480469,0.123047 0.50005,0.50005 0 0 0 0.34961,-0.34961 0.50005,0.50005 0 0 0 -0.123047,-0.480469 z"/><path style="color:#000;fill:#241f31;stroke-linecap:round;stroke-linejoin:round;-inkscape-stroke:none" id="path9010" d="M 11.126953,4.5234375 A 0.50005,0.50005 0 0 0 10.646484,4.6464844 L 4.6464844,10.646484 a 0.50005,0.50005 0 0 0 0.7070312,0.707032 L 11.353516,5.3535156 a 0.50005,0.50005 0 0 0 0.123047,-0.4804687 0.50005,0.50005 0 0 0 -0.34961,-0.3496094 z"/><path style="color:#000;fill:#241f31;stroke-linecap:round;stroke-linejoin:round;-inkscape-stroke:none" id="path1025" d="m 3.6699219,2.0292969 a 0.5,0.5 0 0 0 -0.640625,0.3007812 l -2,5.5 a 0.50005,0.50005 0 0 0 0,0.3398438 l 2,5.5000001 a 0.5,0.5 0 0 0 0.640625,0.300781 0.5,0.5 0 0 0 0.3007812,-0.640625 L 2.03125,8 3.9707031,2.6699219 A 0.5,0.5 0 0 0 3.6699219,2.0292969 Z"/><path style="color:#000;fill:#241f31;stroke-linecap:round;stroke-linejoin:round;-inkscape-stroke:none" id="path1027" d="m 12.330078,2.0292969 a 0.5,0.5 0 0 0 -0.300781,0.640625 L 13.96875,8 12.029297,13.330078 a 0.5,0.5 0 0 0 0.300781,0.640625 0.5,0.5 0 0 0 0.640625,-0.300781 l 2,-5.5000001 a 0.50005,0.50005 0 0 0 0,-0.3398438 l -2,-5.5 A 0.5,0.5 0 0 0 12.330078,2.0292969 Z"/></svg>