<?xml version="1.0" encoding="UTF-8" standalone="no"?>
<svg
   height="16"
   width="16"
   version="1.1"
   id="svg6"
   xmlns="http://www.w3.org/2000/svg"
   xmlns:svg="http://www.w3.org/2000/svg"
   xmlns:rdf="http://www.w3.org/1999/02/22-rdf-syntax-ns#"
   xmlns:cc="http://creativecommons.org/ns#"
   xmlns:dc="http://purl.org/dc/elements/1.1/">
  <metadata
     id="metadata12">
    <rdf:RDF>
      <cc:Work
         rdf:about="">
        <dc:format>image/svg+xml</dc:format>
        <dc:type
           rdf:resource="http://purl.org/dc/dcmitype/StillImage" />
      </cc:Work>
    </rdf:RDF>
  </metadata>
  <defs
     id="defs10" />
  <path
     id="path1045-3"
     style="vector-effect:none;fill:#241f31;fill-opacity:0.5;stroke-width:1;stroke-linecap:butt;stroke-linejoin:miter;stroke-miterlimit:4;stroke-dasharray:none;stroke-dashoffset:0;stroke-opacity:1"
     d="M 5,7 A 1,1 0 0 0 5,9 1,1 0 0 0 5,7 Z" />
  <path
     id="path1045-3-6"
     style="vector-effect:none;fill:#241f31;fill-opacity:1;stroke-width:1;stroke-linecap:butt;stroke-linejoin:miter;stroke-miterlimit:4;stroke-dasharray:none;stroke-dashoffset:0;stroke-opacity:1"
     d="M 8,7 A 1,1 0 0 0 8,9 1,1 0 0 0 8,7 Z" />
  <path
     id="path1045-3-6-7"
     style="vector-effect:none;fill:#241f31;fill-opacity:0.5;stroke-width:1;stroke-linecap:butt;stroke-linejoin:miter;stroke-miterlimit:4;stroke-dasharray:none;stroke-dashoffset:0;stroke-opacity:1"
     d="m 11,7 a 1,1 0 0 0 0,2 1,1 0 0 0 0,-2 z" />
  <path
     style="color:#000000;fill:#241f31;stroke-linecap:round;stroke-linejoin:round;-inkscape-stroke:none"
     d="m 3.3164063,1.0507812 a 1,1 0 0 0 -1.265625,0.6328125 l -2.00000005,6 a 1.0001,1.0001 0 0 0 0,0.6328126 L 2.0507813,14.316406 a 1,1 0 0 0 1.265625,0.632813 1,1 0 0 0 0.6328125,-1.265625 L 2.0546875,8 3.9492188,2.3164063 A 1,1 0 0 0 3.3164063,1.0507812 Z"
     id="path1022" />
  <path
     style="color:#000000;fill:#241f31;stroke-linecap:round;stroke-linejoin:round;-inkscape-stroke:none"
     d="m 12.684307,1.0507812 a 1,1 0 0 1 1.265625,0.6328125 l 2,6 a 1.0001,1.0001 0 0 1 0,0.6328126 l -2,5.9999997 a 1,1 0 0 1 -1.265625,0.632813 1,1 0 0 1 -0.632812,-1.265625 L 13.946026,8 12.051495,2.3164063 a 1,1 0 0 1 0.632812,-1.2656251 z"
     id="path1022-3" />
</svg>
