<?xml version="1.0" encoding="UTF-8" standalone="no"?>
<svg
   height="16"
   width="16"
   version="1.1"
   id="svg6"
   xmlns="http://www.w3.org/2000/svg"
   xmlns:svg="http://www.w3.org/2000/svg"
   xmlns:rdf="http://www.w3.org/1999/02/22-rdf-syntax-ns#"
   xmlns:cc="http://creativecommons.org/ns#"
   xmlns:dc="http://purl.org/dc/elements/1.1/">
  <metadata
     id="metadata12">
    <rdf:RDF>
      <cc:Work
         rdf:about="">
        <dc:format>image/svg+xml</dc:format>
        <dc:type
           rdf:resource="http://purl.org/dc/dcmitype/StillImage" />
      </cc:Work>
    </rdf:RDF>
  </metadata>
  <defs
     id="defs10" />
  <path
     style="fill:#241f31;stroke-width:1"
     d="m 7.6402712,14.969237 c -0.25954,-0.104072 -0.4867,-0.327529 -0.6047,-0.594866 -0.1153299,-0.261265 -0.1155199,-0.639613 -4.5e-4,-0.901752 0.0956,-0.21769 0.28515,-0.426018 0.48911,-0.537414 0.12506,-0.06834 0.1920999,-0.08041 0.4441899,-0.08041 0.34412,0 0.4984799,0.06361 0.7220699,0.297534 0.20247,0.211836 0.29185,0.448041 0.29185,0.771203 0,0.323171 -0.0894,0.559367 -0.29185,0.771212 -0.21074,0.22049 -0.3808799,0.295468 -0.6908199,0.304437 -0.14611,0.0044 -0.30783,-0.0092 -0.3593999,-0.02993 z M 5.0579515,11.201341 C 4.7554616,11.030525 4.6380916,10.626828 4.7960216,10.300446 4.9030116,10.079344 5.5878515,9.519233 6.0640714,9.2633581 6.7083013,8.9172013 7.2937212,8.7633946 7.9663411,8.7635784 8.745671,8.7637796 9.4577409,8.9847422 10.20293,9.4575896 c 0.23128,0.1467454 0.6481,0.4910735 0.80321,0.6635174 0.21805,0.2424 0.26797,0.516029 0.14216,0.779183 -0.11149,0.23323 -0.26812,0.345693 -0.50376,0.361732 -0.2432,0.01654 -0.32981,-0.02879 -0.7228792,-0.378593 C 9.5675209,10.568291 9.0788809,10.300376 8.640331,10.180896 7.7179511,9.929597 6.7661813,10.205308 5.9094414,10.972101 c -0.14409,0.128957 -0.2961799,0.248368 -0.3379899,0.265351 -0.12736,0.05171 -0.39071,0.03325 -0.5135,-0.03614 z M 2.6399519,8.4437589 C 2.329722,8.2713324 2.200922,7.9005444 2.3391519,7.5778287 2.4396719,7.3431725 3.1666718,6.6582088 3.7650217,6.2344136 4.7956516,5.5044401 6.0107714,5.0283728 7.1937012,4.8910948 c 0.38977,-0.045237 1.2221598,-0.045237 1.6119398,0 1.1785098,0.1367705 2.407209,0.6180178 3.428669,1.3429251 0.60032,0.4260264 1.32549,1.1094676 1.42587,1.3438088 0.16623,0.3880691 -0.0828,0.8708739 -0.4697,0.9105987 -0.28179,0.028962 -0.3467,-0.00263 -0.70787,-0.3467693 C 11.87584,7.5638813 11.40956,7.2136032 10.8436,6.9104261 9.9225708,6.4170338 9.0312409,6.1918013 7.9996711,6.1918013 c -0.6052099,0 -1.0232298,0.053725 -1.5486898,0.1990614 -1.0799198,0.2986709 -1.9862297,0.8370379 -2.9137395,1.7308105 -0.17745,0.1709915 -0.35791,0.3252269 -0.40104,0.3427531 -0.12015,0.048825 -0.3915699,0.037537 -0.4962499,-0.02065 z M 0.35855223,5.6687292 C 0.14912226,5.5507361 0.00110228,5.3185649 1.2276758e-5,5.1063611 -9.8772309e-4,4.85522 0.05841227,4.7497918 0.43222222,4.3431203 1.865222,2.7840714 3.6877317,1.7064886 5.6870214,1.2361437 6.5291513,1.0380273 6.9015713,1 7.9996711,1 9.0977609,1 9.4701809,1.0380623 10.31231,1.2361437 12.31161,1.7064886 14.1341,2.7840714 15.5671,4.3431203 15.93808,4.7467293 15.99954,4.8540562 16,5.0990811 16.00022,5.2195942 15.9218,5.4184106 15.83461,5.5182826 15.66327,5.7145877 15.32674,5.7852523 15.11575,5.669228 15.06075,5.6389531 14.8354,5.4287443 14.61499,5.2020418 12.98923,3.5299085 11.0985,2.5828663 8.921601,2.35031 8.479971,2.3031478 7.5193712,2.3031478 7.0777312,2.35031 5.5129815,2.5174691 4.1323817,3.0411362 2.8118419,3.9683511 2.303252,4.3254629 1.893852,4.6800109 1.3663621,5.220163 1.1309921,5.4611891 0.90196214,5.6732092 0.85740215,5.6913129 0.73571217,5.7407501 0.46461221,5.7285001 0.35855223,5.668738 Z"
     id="path5212" />
</svg>
