<?xml version="1.0" encoding="UTF-8" standalone="no"?>
<svg
   height="16"
   width="16"
   version="1.1"
   id="svg6"
   xmlns="http://www.w3.org/2000/svg"
   xmlns:svg="http://www.w3.org/2000/svg"
   xmlns:rdf="http://www.w3.org/1999/02/22-rdf-syntax-ns#"
   xmlns:cc="http://creativecommons.org/ns#"
   xmlns:dc="http://purl.org/dc/elements/1.1/">
  <metadata
     id="metadata12">
    <rdf:RDF>
      <cc:Work
         rdf:about="">
        <dc:format>image/svg+xml</dc:format>
        <dc:type
           rdf:resource="http://purl.org/dc/dcmitype/StillImage" />
      </cc:Work>
    </rdf:RDF>
  </metadata>
  <defs
     id="defs10" />
  <g
     aria-label="?"
     id="text3019"
     style="font-size:10px;line-height:1.25;stroke-width:0.950049;fill:#241f31"
     transform="matrix(1.0278544,0,0,1.0778947,0.8607278,0.76631579)">
    <path
       d="M 5.9729007,9.4941409 H 6.9458011 V 10.421875 H 5.9729007 Z M 6.9458011,8.5664065 H 5.9729007 c 0,-0.9277344 0,-0.9277344 0,-1.8554688 0,-0.9277344 0,-0.9277344 0.9729004,-0.9277344 0.9729004,0 0.9729004,0 0.9729004,-0.9277344 0,-0.9277344 0,-0.9277344 -0.9729004,-0.9277344 -0.7256484,0 -1.3989866,0 -1.9458009,0 V 3.0000001 c 0.9729005,0 1.9458009,0 2.9187013,0 0.9729005,0 0.9729005,0 0.9729005,0.9277344 0,0.6695725 0,1.1437254 0,1.8554688 0,0.9277344 0,0.9277344 -0.9729005,0.9277344 -0.9729004,0 -0.7418462,0 -0.9729004,0 0,0.3871314 0,0.9277344 0,1.8554688 z"
       id="path8642"
       style="stroke-width:0.950049;fill:#241f31" />
  </g>
  <path
     style="color:#000000;fill:#241f31;stroke-linecap:round;stroke-linejoin:round;-inkscape-stroke:none;fill-opacity:0.5"
     d="M 3.2617193,1.0507812 A 1,1 0 0 0 1.996094,1.6835937 l -2,6 a 1.0001,1.0001 0 0 0 0,0.6328126 l 2,5.9999997 a 1,1 0 0 0 1.2656253,0.632813 1,1 0 0 0 0.6328125,-1.265625 L 2,8 3.8945318,2.3164063 A 1,1 0 0 0 3.2617193,1.0507812 Z"
     id="path1022" />
  <path
     style="color:#000000;fill:#241f31;stroke-linecap:round;stroke-linejoin:round;-inkscape-stroke:none;fill-opacity:0.5"
     d="m 12.62962,1.0507812 a 1,1 0 0 1 1.265625,0.6328125 l 2,6 a 1.0001,1.0001 0 0 1 0,0.6328126 l -2,5.9999997 A 1,1 0 0 1 12.62962,14.949219 1,1 0 0 1 11.996808,13.683594 L 13.891339,8 11.996808,2.3164063 A 1,1 0 0 1 12.62962,1.0507812 Z"
     id="path1022-3" />
</svg>
