<svg xmlns="http://www.w3.org/2000/svg" xmlns:svg="http://www.w3.org/2000/svg" id="svg6" width="16" height="16" version="1.1"><metadata id="metadata12"/><path id="path5212" style="fill:#241f31;stroke-width:1;fill-opacity:.5" d="M 7.96875 12.855469 C 7.71666 12.855469 7.6484975 12.867207 7.5234375 12.935547 C 7.3194775 13.046943 7.1307563 13.254966 7.0351562 13.472656 C 6.9200863 13.734795 6.9198264 14.113735 7.0351562 14.375 C 7.1531563 14.642337 7.381085 14.864678 7.640625 14.96875 C 7.6921949 14.98948 7.85389 15.0044 8 15 C 8.30994 14.991031 8.4806663 14.915802 8.6914062 14.695312 C 8.8938563 14.483467 8.9824219 14.246999 8.9824219 13.923828 C 8.9824219 13.600666 8.8938762 13.36418 8.6914062 13.152344 C 8.4678162 12.91842 8.31287 12.855469 7.96875 12.855469 z"/><path id="path5564" style="fill:#241f31;stroke-width:1;fill-opacity:.5" d="M 6.3476562 9.1230469 C 6.2541027 9.1661009 6.1601195 9.2122686 6.0644531 9.2636719 C 5.5882332 9.5195468 4.903865 10.079679 4.796875 10.300781 C 4.638945 10.627163 4.7561039 11.030356 5.0585938 11.201172 C 5.1813836 11.270562 5.4449056 11.289991 5.5722656 11.238281 C 5.6140756 11.221298 5.7660662 11.101613 5.9101562 10.972656 C 6.7668961 10.205863 7.7182451 9.9303412 8.640625 10.181641 C 9.0791749 10.301121 9.5677351 10.567676 9.921875 10.882812 C 10.314944 11.232615 10.401331 11.278259 10.644531 11.261719 C 10.880171 11.24568 11.036948 11.133621 11.148438 10.900391 C 11.274247 10.637237 11.223909 10.363494 11.005859 10.121094 C 10.850749 9.9486497 10.434405 9.6037767 10.203125 9.4570312 C 10.012771 9.3362453 9.8243984 9.2309478 9.6367188 9.1425781 A 2 2 0 0 1 8 10 A 2 2 0 0 1 6.3476562 9.1230469 z"/><path id="path5562" style="fill:#241f31;stroke-width:1;fill-opacity:.5" d="M 8 4.8574219 C 7.6944588 4.8574219 7.3882444 4.8680065 7.1933594 4.890625 C 6.1406679 5.012789 5.06409 5.4048956 4.1132812 6.0039062 A 2 2 0 0 1 5.5390625 6.7207031 C 5.8316952 6.588454 6.1334906 6.4784854 6.4511719 6.390625 C 6.6517391 6.3351503 6.8358142 6.2926342 7.0214844 6.2617188 A 2 2 0 0 1 8 6 A 2 2 0 0 1 9.0039062 6.2714844 C 9.5045376 6.3544164 9.9833527 6.5027882 10.462891 6.7226562 A 2 2 0 0 1 11.892578 6.0078125 C 10.944714 5.4101151 9.8548 5.0124945 8.8046875 4.890625 C 8.6097975 4.8680065 8.3055412 4.8574219 8 4.8574219 z"/><path id="path5560" style="fill:#241f31;stroke-width:1;fill-opacity:.5" d="M 8 1 C 6.9019002 1 6.5296299 1.0382117 5.6875 1.2363281 C 3.6882103 1.706673 1.8646404 2.7847011 0.43164062 4.34375 C 0.057830675 4.7504215 -0.00099999985 4.8543277 0 5.1054688 C 0.0010900032 5.3176726 0.14994503 5.5499757 0.359375 5.6679688 C 0.46543498 5.7277309 0.7357319 5.7408434 0.85742188 5.6914062 C 0.90198187 5.6733026 1.1318175 5.4617292 1.3671875 5.2207031 C 1.8946774 4.680551 2.3039101 4.3258618 2.8125 3.96875 C 4.1330398 3.0415351 5.5133753 2.5167685 7.078125 2.3496094 C 7.519765 2.3024472 8.480245 2.3024472 8.921875 2.3496094 C 11.098774 2.5821657 12.989474 3.5290386 14.615234 5.2011719 C 14.835644 5.4278744 15.060234 5.639647 15.115234 5.6699219 C 15.326224 5.7859462 15.662644 5.7138832 15.833984 5.5175781 C 15.921174 5.4177061 16.00022 5.2201225 16 5.0996094 C 15.99954 4.8545845 15.937386 4.747359 15.566406 4.34375 C 14.133406 2.7847011 12.3118 1.706673 10.3125 1.2363281 C 9.4703709 1.0382467 9.0980898 1 8 1 z"/><circle style="fill:#241f31;stroke:none;stroke-linecap:round;stroke-linejoin:round;stop-color:#000;fill-opacity:.5" id="path1422" cx="4" cy="8" r="1"/><circle style="fill:#241f31;stroke:none;stroke-linecap:round;stroke-linejoin:round;stop-color:#000" id="path1424" cx="8" cy="8" r="1"/><circle style="fill:#241f31;stroke:none;stroke-linecap:round;stroke-linejoin:round;stop-color:#000;fill-opacity:.5" id="path1426" cx="12" cy="8" r="1"/></svg>