<svg xmlns="http://www.w3.org/2000/svg" xmlns:svg="http://www.w3.org/2000/svg" id="svg6" width="16" height="16" version="1.1"><metadata id="metadata12"/><path id="path5212" style="fill:#241f31;stroke-width:1;fill-opacity:.5" d="M 7.421875 13 C 7.2582508 13.117652 7.1147028 13.291522 7.0351562 13.472656 C 6.9200864 13.734795 6.9198264 14.113735 7.0351562 14.375 C 7.1531563 14.642337 7.381085 14.864678 7.640625 14.96875 C 7.6921949 14.98948 7.85389 15.0044 8 15 C 8.30994 14.991031 8.4806663 14.915802 8.6914062 14.695312 C 8.8938565 14.483467 8.9824219 14.246999 8.9824219 13.923828 C 8.9824219 13.600666 8.8938764 13.36418 8.6914062 13.152344 C 8.6315197 13.089689 8.5765274 13.04022 8.5214844 13 L 8 13 L 7.421875 13 z"/><path id="path5564" style="fill:#241f31;stroke-width:1;fill-opacity:.5" d="M 9 8.9042969 L 9 10.306641 C 9.3313045 10.446638 9.6623614 10.651881 9.921875 10.882812 C 10.314944 11.232615 10.401331 11.278259 10.644531 11.261719 C 10.880171 11.24568 11.036948 11.133621 11.148438 10.900391 C 11.274247 10.637237 11.223909 10.363494 11.005859 10.121094 C 10.850749 9.9486495 10.434405 9.6037767 10.203125 9.4570312 C 9.7977688 9.1998193 9.4019298 9.0173182 9 8.9042969 z M 6.5 9.0566406 C 6.3568555 9.116222 6.2120075 9.1843881 6.0644531 9.2636719 C 5.5882332 9.5195468 4.903865 10.079679 4.796875 10.300781 C 4.638945 10.627163 4.7561039 11.030356 5.0585938 11.201172 C 5.1813836 11.270562 5.4449056 11.289991 5.5722656 11.238281 C 5.6140756 11.221298 5.7660662 11.101613 5.9101562 10.972656 C 6.1193408 10.785433 6.3340683 10.62813 6.5527344 10.5 L 6.5 10.5 L 6.5 9.0566406 z"/><path id="path5562" style="fill:#241f31;stroke-width:1;fill-opacity:.5" d="M 5 5.5214844 C 4.5701641 5.7202013 4.1548368 5.9587045 3.765625 6.234375 C 3.1672751 6.6581702 2.4403637 7.3434688 2.3398438 7.578125 C 2.2016134 7.9008407 2.3303951 8.2709329 2.640625 8.4433594 C 2.745305 8.5015464 3.0165687 8.5136687 3.1367188 8.4648438 C 3.1798483 8.4473172 3.3596594 8.2920852 3.5371094 8.1210938 C 4.0210014 7.6548025 4.499839 7.2870609 5 6.9980469 L 5 5.5214844 z M 11 5.5234375 L 11 6.75 C 11 6.8433043 10.998671 6.9161986 10.998047 6.9960938 C 11.496982 7.2807872 11.93156 7.6180381 12.482422 8.1425781 C 12.843592 8.4867174 12.909616 8.5172432 13.191406 8.4882812 C 13.578306 8.4485567 13.826386 7.9661941 13.660156 7.578125 C 13.559776 7.3437838 12.834695 6.6604014 12.234375 6.234375 C 11.848179 5.9603 11.431791 5.7222763 11 5.5234375 z"/><path id="path5560" style="fill:#241f31;stroke-width:1;fill-opacity:.5" d="M 8 1 C 6.9019002 1 6.5296299 1.0382117 5.6875 1.2363281 C 3.6882103 1.706673 1.8646404 2.7847011 0.43164062 4.34375 C 0.057830675 4.7504215 -0.00099999985 4.8543277 0 5.1054688 C 0.0010900032 5.3176726 0.14994503 5.5499757 0.359375 5.6679688 C 0.46543498 5.7277309 0.7357319 5.7408434 0.85742188 5.6914062 C 0.90198187 5.6733026 1.1318175 5.4617292 1.3671875 5.2207031 C 1.8946774 4.680551 2.3039101 4.3258618 2.8125 3.96875 C 4.1330398 3.0415351 5.5133753 2.5167685 7.078125 2.3496094 C 7.519765 2.3024472 8.480245 2.3024472 8.921875 2.3496094 C 11.098774 2.5821657 12.989474 3.5290386 14.615234 5.2011719 C 14.835644 5.4278744 15.060234 5.639647 15.115234 5.6699219 C 15.326224 5.7859462 15.662644 5.7138832 15.833984 5.5175781 C 15.921174 5.4177061 16.00022 5.2201225 16 5.0996094 C 15.99954 4.8545845 15.937386 4.747359 15.566406 4.34375 C 14.133406 2.7847011 12.3118 1.706673 10.3125 1.2363281 C 9.4703709 1.0382467 9.0980898 1 8 1 z"/><g id="text3019" aria-label="?" style="font-size:10px;line-height:1.25;fill:#241f31;stroke-width:.950049" transform="matrix(1.0278544,0,0,1.0778947,0.86072778,0.76631598)"><path id="path8642" d="M 5.9729007,9.4941409 H 6.9458011 V 10.421875 H 5.9729007 Z M 6.9458011,8.5664065 H 5.9729007 c 0,-0.9277344 0,-0.9277344 0,-1.8554688 0,-0.9277344 0,-0.9277344 0.9729004,-0.9277344 0.9729004,0 0.9729004,0 0.9729004,-0.9277344 0,-0.9277344 0,-0.9277344 -0.9729004,-0.9277344 -0.7256484,0 -1.3989866,0 -1.9458009,0 V 3.0000001 c 0.9729005,0 1.9458009,0 2.9187013,0 0.9729005,0 0.9729005,0 0.9729005,0.9277344 0,0.6695725 0,1.1437254 0,1.8554688 0,0.9277344 0,0.9277344 -0.9729005,0.9277344 -0.9729004,0 -0.7418462,0 -0.9729004,0 0,0.3871314 0,0.9277344 0,1.8554688 z" style="fill:#241f31;stroke-width:.950049"/></g></svg>