<?xml version="1.0" encoding="UTF-8" standalone="no"?>
<svg
   height="16px"
   viewBox="0 0 16 16"
   width="16px"
   version="1.1"
   id="svg4"
   xmlns="http://www.w3.org/2000/svg"
   xmlns:svg="http://www.w3.org/2000/svg">
  <defs
     id="defs8" />
  <path
     style="color:#000000;-inkscape-font-specification:sans-serif;fill:#241f31;stroke-width:1;stroke-linecap:round;stroke-linejoin:round;-inkscape-stroke:none"
     d="M 8.0000001,0 C 7.3796133,1.2515622e-4 6.8421455,0.41170346 6.6463376,0.96768776 a 1.0002085,0.99900338 0 0 0 0,0.001951 L 5.2477483,4.9613508 H 1.4328814 C 0.78502927,4.961659 0.24575735,5.4374415 0.07335883,5.9504993 -0.0990397,6.4635571 0.02701744,7.1276617 0.50895295,7.5385998 L 3.5678786,10.15682 2.5482368,14.189502 a 1.0002085,0.99900338 0 0 0 0,0.0039 c -0.1461093,0.583537 0.094249,1.196117 0.5293543,1.52762 0.435105,0.331504 1.152663,0.394082 1.6661964,0.04292 l 3.2562126,-2.220219 3.2562129,2.220219 c 0.513532,0.351162 1.231089,0.288582 1.666195,-0.04292 0.435107,-0.331504 0.675466,-0.944081 0.529355,-1.52762 a 1.0002085,0.99900338 0 0 0 0,-0.0039 L 12.432121,10.15682 15.491047,7.5385998 C 15.972982,7.1276615 16.09904,6.4635572 15.926641,5.9504993 15.754242,5.4374414 15.214971,4.9616582 14.567119,4.9613508 H 10.752251 L 9.3536626,0.96963874 a 1.0002085,0.99900338 0 0 0 0,-0.001951 C 9.1578546,0.41170346 8.6203868,1.2515622e-4 8.0000001,0 Z m 0,3.1508382 1.0997286,3.1391322 A 1.0002085,0.99900338 0 0 0 10.04319,6.9591577 h 3.053065 l -2.43581,2.0836503 a 1.0002085,0.99900338 0 0 0 -0.318394,1.002806 l 0.816494,3.232779 -2.5940305,-1.767591 a 1.0002085,0.99900338 0 0 0 -1.1290288,0 L 4.8414543,13.278393 5.6579491,10.045614 A 1.0002085,0.99900338 0 0 0 5.3395552,9.042808 L 2.903744,6.9591577 H 5.9568097 A 1.0002085,0.99900338 0 0 0 6.9002714,6.2899704 Z"
     id="path1024" />
</svg>
