<svg xmlns="http://www.w3.org/2000/svg" xmlns:svg="http://www.w3.org/2000/svg" id="svg14" width="16" height="16" version="1.1" viewBox="0 0 16 16"><circle style="fill:#e01b24;stroke-width:1;stroke-linecap:round;stroke-linejoin:round;stroke-opacity:.0901961;stop-color:#000" id="path1618" cx="12" cy="12" r="4" class="error"/><path id="path1019" style="color:#000;fill:#241f31;stroke-linecap:round;stroke-linejoin:round;-inkscape-stroke:none" d="M 5.75 1 C 4.4686242 1 3.6861548 1.670445 3.3398438 2.3203125 C 2.9935325 2.97018 3 3.6113281 3 3.6113281 L 3 11 L 1.5390625 11 A 0.5 0.5 0 0 0 1.0390625 11.5 A 0.5 0.5 0 0 0 1.5390625 12 L 7 12 L 7 11 L 4 11 L 4 3.6113281 C 4 3.6113281 4.00647 3.1967009 4.2226562 2.7910156 C 4.4388439 2.3853303 4.781381 2 5.75 2 L 10.25 2 C 10.25 2 10.715646 2.00734 11.162109 2.2167969 C 11.608573 2.4262488 12 2.7334067 12 3.6113281 L 12 7 L 13 7 L 13 3.6113281 C 13 2.3781438 12.266425 1.6288714 11.587891 1.3105469 C 10.909357 0.99222233 10.25 1 10.25 1 L 5.75 1 z"/></svg>