<?xml version="1.0" encoding="UTF-8" standalone="no"?>
<svg
   height="16px"
   viewBox="0 0 16 16"
   width="16px"
   version="1.1"
   id="svg14"
   xmlns="http://www.w3.org/2000/svg"
   xmlns:svg="http://www.w3.org/2000/svg">
  <defs
     id="defs18" />
  <path
     id="path1204"
     style="color:#000000;fill:#241f31;-inkscape-stroke:none;fill-opacity:0.5"
     d="M 8 1 C 6.9051844 1 5.9616838 1.2261108 5.1679688 1.6328125 L 6.6757812 3.140625 C 7.102641 3.0055031 7.5504232 2.9348943 8 2.9160156 C 9.2921196 2.9702745 12 4 12 8 C 12 8.1393166 11.997006 8.3090212 11.996094 8.4609375 L 14 10.464844 L 14 7.9160156 C 14 4 12 1 8 1 z M 2.2304688 5.765625 C 2.0804503 6.4378576 2.0031578 7.1587535 2 7.9140625 L 2 7.9160156 L 2 11 L 1.1425781 11 C 0.40391135 11 1.4802974e-16 11.318154 0 12 C 1.4802974e-16 12.681846 0.40391134 13 1.1425781 13 L 2 13 L 3.9160156 13 L 9.4648438 13 L 7.4648438 11 L 4 11 L 4 8 C 4 7.8434086 4.0037554 7.692443 4.0097656 7.5449219 L 2.2304688 5.765625 z M 14.535156 11 L 15.939453 12.404297 C 15.979485 12.287265 16 12.153267 16 12 C 16 11.318154 15.596089 11 14.857422 11 L 14.535156 11 z " />
  <circle
     style="fill:#241f31;stroke-linecap:round;stroke-linejoin:round;stroke-opacity:0.0901961;stop-color:#000000;fill-opacity:0.5"
     id="path1618"
     cx="8"
     cy="15"
     r="1" />
  <path
     style="color:#000000;fill:#241f31;stroke-linecap:round;stroke-linejoin:round;-inkscape-stroke:none"
     d="m 1.7070312,0.29296875 a 1.0001,1.0001 0 0 0 -1.40429682,0.009766 1.0001,1.0001 0 0 0 -0.009766,1.40429682 L 14.292969,15.707031 a 1.0001,1.0001 0 0 0 0.960937,0.248047 1.0001,1.0001 0 0 0 0.701172,-0.701172 1.0001,1.0001 0 0 0 -0.248047,-0.960937 z"
     id="path998" />
</svg>
