<svg xmlns="http://www.w3.org/2000/svg" xmlns:svg="http://www.w3.org/2000/svg" id="svg14" width="16" height="16" version="1.1" viewBox="0 0 16 16"><path id="path1618-7" style="fill:#241f31;stroke-width:1;stroke-linecap:round;stroke-linejoin:round;stroke-opacity:.0901961;stop-color:#000;fill-opacity:.5" d="m 9.0056111,14.000017 a 1.0056116,1 0 0 1 -1.0056116,1 1.0056116,1 0 0 1 -1.0056116,-1 1.0056116,1 0 0 1 1.0056116,-1 1.0056116,1 0 0 1 1.0056116,1 z"/><path id="path1019" style="color:#000;fill:#241f31;stroke-width:1;stroke-linecap:round;stroke-linejoin:round;-inkscape-stroke:none;fill-opacity:.5" d="M 5.7382812 1 C 4.8788139 1 4.2443346 1.299918 3.8125 1.6914062 L 4.5058594 2.3847656 C 4.7454807 2.1623035 5.1104066 2 5.7382812 2 L 10.261719 2 C 10.261719 2 10.730719 2.00734 11.179688 2.2167969 C 11.628655 2.4262488 12.021484 2.7334067 12.021484 3.6113281 L 12.021484 9.9003906 L 13.027344 10.90625 L 13.027344 3.6113281 C 13.027344 2.3781438 12.289764 1.6288714 11.607422 1.3105469 C 10.925081 0.99222231 10.261719 1 10.261719 1 L 5.7382812 1 z M 2.9726562 5.09375 L 2.9726562 11 L 1.5019531 11 A 0.5028058 0.5 0 0 0 1 11.5 A 0.5028058 0.5 0 0 0 1.5019531 12 L 9.8789062 12 L 8.8789062 11 L 3.9785156 11 L 3.9785156 6.0996094 L 2.9726562 5.09375 z M 13.121094 11 L 14.121094 12 L 14.498047 12 A 0.5028058 0.5 0 0 0 15 11.5 A 0.5028058 0.5 0 0 0 14.498047 11 L 13.121094 11 z"/><path style="color:#000;fill:#241f31;stroke-linecap:round;stroke-linejoin:round;-inkscape-stroke:none" id="path1272" d="m 1.5,1 a 0.49999851,0.49999851 0 0 0 -0.3535156,0.1464844 0.49999851,0.49999851 0 0 0 0,0.7070312 L 14.146484,14.853516 a 0.49999851,0.49999851 0 0 0 0.707032,0 0.49999851,0.49999851 0 0 0 0,-0.707032 L 1.8535156,1.1464844 A 0.49999851,0.49999851 0 0 0 1.5,1 Z"/></svg>