<svg xmlns="http://www.w3.org/2000/svg" xmlns:svg="http://www.w3.org/2000/svg" id="svg10" width="16" height="16" version="1.1"><path style="color:#000;fill:#000;stroke-linecap:round;stroke-linejoin:round;-inkscape-stroke:none" id="path355" d="M 5.5,0.95898438 A 0.54024901,0.54024901 0 0 0 5.0507812,1.2011719 l -4,6 A 0.54024901,0.54024901 0 0 0 1.5,8.0410156 H 5.8769531 L 4.9648437,14.423828 A 0.54024901,0.54024901 0 0 0 5.859375,14.902344 L 14.820313,6.9121094 A 0.54024901,0.54024901 0 0 0 14.460938,5.96875 l -3.007813,-0.00781 2.509766,-4.1835938 A 0.54024901,0.54024901 0 0 0 13.5,0.95898438 Z M 5.7871094,2.0410156 h 6.7597656 l -2.509766,4.1816406 a 0.54024901,0.54024901 0 0 0 0.460938,0.8183594 l 2.546875,0.00586 -6.8007814,6.066406 0.7910156,-5.5371091 A 0.54024901,0.54024901 0 0 0 6.5,6.9589844 H 2.5097656 Z"/></svg>