<?xml version="1.0" encoding="UTF-8" standalone="no"?>
<svg
   width="16"
   height="16"
   version="1.1"
   id="svg10"
   sodipodi:docname="preferences-system-power-symbolic.svg"
   inkscape:version="1.2.2 (b0a8486541, 2022-12-01)"
   xmlns:inkscape="http://www.inkscape.org/namespaces/inkscape"
   xmlns:sodipodi="http://sodipodi.sourceforge.net/DTD/sodipodi-0.dtd"
   xmlns="http://www.w3.org/2000/svg"
   xmlns:svg="http://www.w3.org/2000/svg">
  <sodipodi:namedview
     id="namedview7"
     pagecolor="#ffffff"
     bordercolor="#000000"
     borderopacity="0.25"
     inkscape:showpageshadow="2"
     inkscape:pageopacity="0.0"
     inkscape:pagecheckerboard="0"
     inkscape:deskcolor="#d1d1d1"
     showgrid="true"
     inkscape:zoom="48.875"
     inkscape:cx="8"
     inkscape:cy="8"
     inkscape:window-width="2560"
     inkscape:window-height="1001"
     inkscape:window-x="0"
     inkscape:window-y="0"
     inkscape:window-maximized="1"
     inkscape:current-layer="svg10">
    <inkscape:grid
       type="xygrid"
       id="grid290" />
  </sodipodi:namedview>
  <defs
     id="defs14" />
  <path
     style="color:#000000;fill:#000000;stroke-linecap:round;stroke-linejoin:round;-inkscape-stroke:none"
     d="M 5.5,0.95898438 A 0.54024901,0.54024901 0 0 0 5.0507812,1.2011719 l -4,6 A 0.54024901,0.54024901 0 0 0 1.5,8.0410156 H 5.8769531 L 4.9648437,14.423828 A 0.54024901,0.54024901 0 0 0 5.859375,14.902344 L 14.820313,6.9121094 A 0.54024901,0.54024901 0 0 0 14.460938,5.96875 l -3.007813,-0.00781 2.509766,-4.1835938 A 0.54024901,0.54024901 0 0 0 13.5,0.95898438 Z M 5.7871094,2.0410156 h 6.7597656 l -2.509766,4.1816406 a 0.54024901,0.54024901 0 0 0 0.460938,0.8183594 l 2.546875,0.00586 -6.8007814,6.066406 0.7910156,-5.5371091 A 0.54024901,0.54024901 0 0 0 6.5,6.9589844 H 2.5097656 Z"
     id="path355" />
</svg>
