<?xml version="1.0" encoding="UTF-8" standalone="no"?>
<svg
   width="16"
   height="16"
   version="1.1"
   id="svg6"
   xmlns="http://www.w3.org/2000/svg"
   xmlns:svg="http://www.w3.org/2000/svg">
  <defs
     id="defs10" />
  <path
     id="path2"
     class="error"
     d="M 7.5,0 C 3.3534375,0 0,3.3525 0,7.5 0,11.6475 3.3534375,15 7.5,15 11.6475,15 15,11.6475 15,7.5 15,3.3525 11.6475,0 7.5,0 Z m 0,0.9375 A 6.5625,6.5625 0 0 1 14.0625,7.5 6.5625,6.5625 0 0 1 7.5,14.0625 6.5625,6.5625 0 0 1 0.9375,7.5 6.5625,6.5625 0 0 1 7.5,0.9375 Z"
     style="fill:#e01b24;stroke-width:1" />
  <path
     id="rect975"
     class="error"
     style="fill:#e01b24;stroke-linecap:round;stroke-linejoin:round;stop-color:#000000"
     d="M 7.5,3 C 7.777,3 8,3.223 8,3.5 v 5 C 8,8.777 7.777,9 7.5,9 7.223,9 7,8.777 7,8.5 v -5 C 7,3.223 7.223,3 7.5,3 Z" />
  <path
     id="rect977"
     class="error"
     style="fill:#e01b24;stroke-linecap:round;stroke-linejoin:round;stop-color:#000000"
     d="M 7.5,11 C 7.777,11 8,11.223 8,11.5 8,11.777 7.777,12 7.5,12 7.223,12 7,11.777 7,11.5 7,11.223 7.223,11 7.5,11 Z" />
</svg>
