<svg xmlns="http://www.w3.org/2000/svg" xmlns:svg="http://www.w3.org/2000/svg" id="svg8" width="16" height="16" version="1.1"><defs id="defs12"><style id="current-color-scheme" type="text/css">.ColorScheme-Text{color:#363636}</style></defs><path id="path2" fill="#363636" stroke-linecap="round" stroke-linejoin="round" stroke-width="1.002" d="m3 1c-1.662 0-3 1.338-3 3v7c0 1.662 1.338 3 3 3h10c1.662 0 3-1.338 3-3v-7c0-1.662-1.338-3-3-3h-10zm0 1h10c1.108 0 2 0.892 2 2v7c0 1.108-0.892 2-2 2h-10c-1.108 0-2-0.892-2-2v-7c0-1.108 0.892-2 2-2z" style="fill:#241f31"/><rect id="rect4" width="8" height="1" x="4" y="15" fill="#363636" stroke-linecap="round" stroke-linejoin="round" stroke-width="1.002" rx=".5" ry=".5" style="fill:#241f31"/><path id="path4" style="fill:#241f31;fill-opacity:1;stroke:none;stroke-width:.999995" d="M 9.601509,3 C 12,5.2494182 12,5.2494182 12,5.2494182 c 0,0 0,0.7498061 -0.799497,0.7498061 -1.395873,0.00486 -2.417492,-0.00991 -3.813033,0.00765 -0.983948,-0.00765 -2.499473,1.1602196 -2.574782,2.4147522 -0.128113,1.2315478 0.80844,2.4569945 2.090755,2.7436175 0.622029,0.137595 1.265561,0.06357 1.898569,0.08262 V 11.99767 C 7.901671,11.98252 6.959104,12.08774 6.122167,11.699607 4.67778,11.112333 3.780842,9.5662128 4.046485,8.1097042 4.265738,6.5988826 5.702445,5.3487273 7.325956,5.259257 8.375477,5.237704 9.426019,5.254957 10.475959,5.249417 L 8.802012,3.749806 c 0,0 0,-0.7498061 0.799497,-0.749806 z" class="ColorScheme-Text"/></svg>