<?xml version="1.0" encoding="UTF-8" standalone="no"?>
<svg
   width="16"
   height="16"
   version="1.1"
   id="svg8"
   xmlns="http://www.w3.org/2000/svg"
   xmlns:svg="http://www.w3.org/2000/svg">
  <defs
     id="defs12" />
  <path
     d="m 2,1 v 8 c 0,2.072 1.575,3.522 2.937,4.469 a 14.758,14.758 0 0 0 2.688,1.468 L 8,15.062 8.375,14.937 c 0,0 1.33,-0.544 2.687,-1.5 C 12.421,12.482 14,11.044 14,9 V 1 Z m 1,1 h 10 v 7 c 0,2.964 -5,5 -5,5 0,0 -5,-1.95 -5,-5 z"
     overflow="visible"
     style="color:#363636;font-weight:400;font-family:Sans;text-indent:0;text-decoration-line:none;text-transform:none;fill:#241f31;stroke-width:2"
     id="path2" />
  <path
     style="color:#363636;fill:#241f31;-inkscape-stroke:none"
     d="m 4,3 v 0.5 5.1582031 c 0,1.1621362 0.9616537,2.1066539 2.0214844,2.8300779 0.8768038,0.598429 1.5706982,0.845991 1.7871093,0.935547 l 0.1953126,0.08008 0.1933593,-0.08203 c 0.220829,-0.0951 0.9037971,-0.355688 1.78125,-0.962891 C 10.511452,11.091165 10.997351,10.666291 11.365234,10.201172 11.733118,9.7360523 12,9.2232706 12,8.6582031 V 3 Z m 1,1 h 6 V 8.6582031 C 11,8.8839692 10.864726,9.2201946 10.580078,9.5800781 10.295431,9.9399616 9.8773441,10.314277 9.4101563,10.636719 8.7132711,11.118967 8.3016259,11.27053 7.9960937,11.398438 7.6877536,11.275085 7.2761231,11.133169 6.5859375,10.662109 5.6560202,10.027362 5,9.1791671 5,8.6582031 Z"
     id="path4" />
</svg>
