<svg xmlns="http://www.w3.org/2000/svg" xmlns:svg="http://www.w3.org/2000/svg" id="svg4" width="16" height="16" version="1.1" viewBox="0 0 16 16"><path id="path993" style="color:#000;-inkscape-font-specification:sans-serif;fill:#ff7800;fill-opacity:1;stroke-width:.999998;stroke-linecap:round;stroke-linejoin:round;-inkscape-stroke:none" d="M 8.0000251,0 V 0.93945312 C 7.6255486,0.93952866 7.2916037,1.1987993 7.1719001,1.5351562 a -0.47053061,0.46987268 0 0 1 0,0.00195 l -1.316406,3.7558594 a -0.47053061,0.46987268 0 0 1 -0.445313,0.3144531 h -3.589844 c -0.379039,1.799e-4 -0.736074,0.323864 -0.83203096,0.609375 -0.101228,0.3011941 -0.02435,0.7357919 0.26953096,0.9863281 a -0.47053061,0.46987268 0 0 1 0.00195,0.00195 l 2.876953,2.4628907 a -0.47053061,0.46987268 0 0 1 0.148437,0.4726562 l -0.943359,3.736328 v -0.05469 a -0.47053061,0.46987268 0 0 1 -0.015625,0.113281 c -0.0892,0.356199 0.074542,0.75605 0.328125,0.949219 0.233756,0.178062 0.722534,0.227724 1.015625,0.02734 a -0.47053061,0.46987268 0 0 1 0.00195,0 L 7.7363532,12.822266 A -0.47053061,0.46987268 0 0 1 8.0000251,12.75 v 1.029297 l -2.798828,1.90625 c -0.673004,0.459103 -1.532646,0.392536 -2.117188,-0.05274 -0.565162,-0.430509 -0.855659,-1.18413 -0.669922,-1.925781 a -0.47053061,0.46987268 0 0 1 0,-0.002 -0.47053061,0.46987268 0 0 1 0,-0.002 -0.47053061,0.46987268 0 0 1 0,-0.002 L 3.3027591,10.191406 0.64650914,7.9199219 c -0.612994,-0.5225883 -0.77396,-1.3378984 -0.550781,-2.0019531 0.228453,-0.6797374 0.884565,-1.2496014 1.72460896,-1.25 h 3.25586 L 6.2558845,1.3007812 v 0.080078 a -0.47053061,0.46987268 0 0 1 0.027344,-0.15625 C 6.532766,0.51619943 7.2080435,1.5974e-4 8.0000251,0 Z" class="warning"/></svg>