<?xml version="1.0" encoding="UTF-8" standalone="no"?>
<svg
   height="16px"
   viewBox="0 0 16 16"
   width="16px"
   version="1.1"
   id="svg4"
   xmlns="http://www.w3.org/2000/svg"
   xmlns:svg="http://www.w3.org/2000/svg">
  <defs
     id="defs8" />
  <path
     d="m 8.0032121,0 c 0.433594,0 0.816406,0.29572603 0.953125,0.72890179 l 1.4492189,4.62748361 4.589843,-0.016662 c 0.984375,-0.00833 1.386719,1.3370144 0.582031,1.9367962 l -3.628906,2.728174 1.5,4.569172 c 0.316406,0.962149 -0.6875,1.80351 -1.488281,1.249545 L 7.9563371,13.05775 4.0578991,15.81508 c -0.796875,0.566461 -1.808593,-0.274899 -1.496093,-1.241214 L 4.0657121,10.000529 0.42118014,7.2556946 c -0.789062,-0.5997819 -0.394531,-1.9284655 0.574219,-1.9326304 L 5.6555561,5.3064026 7.0578991,0.73723156 c 0.132813,-0.43734065 0.515625,-0.73306641 0.945313,-0.73306641 z m 0.00391,4.4900339 -0.675781,2.2075298 c -0.132813,0.4373407 -0.515625,0.7372316 -0.945313,0.7413965 l -2.253906,0.00833 1.703125,1.2787018 c 0.363281,0.2748995 0.511719,0.7747176 0.367187,1.224554 l -0.765624,2.3366512 1.960937,-1.391162 c 0.203125,-0.06248 0.40625,-0.116624 0.609375,-0.174935 z m 0,0"
     fill="#2e3436"
     id="path2"
     style="fill:#241f31;stroke-width:1" />
</svg>
