<?xml version="1.0" encoding="UTF-8" standalone="no"?>
<svg
   height="16px"
   viewBox="0 0 16 16"
   width="16px"
   version="1.1"
   id="svg4"
   xmlns="http://www.w3.org/2000/svg"
   xmlns:svg="http://www.w3.org/2000/svg">
  <defs
     id="defs8" />
  <path
     id="path993"
     style="color:#000000;-inkscape-font-specification:sans-serif;fill:#ff7800;stroke-width:0.999998;stroke-linecap:round;stroke-linejoin:round;-inkscape-stroke:none;fill-opacity:1"
     class="warning"
     d="M 8 0 L 8 0.93945312 C 8.3744765 0.93952866 8.7084214 1.1987993 8.828125 1.5351562 A 0.47053061 0.46987268 0 0 0 8.828125 1.5371094 L 10.144531 5.2929688 A 0.47053061 0.46987268 0 0 0 10.589844 5.6074219 L 14.179688 5.6074219 C 14.558727 5.6076018 14.915762 5.9312859 15.011719 6.2167969 C 15.112947 6.517991 15.036069 6.9525888 14.742188 7.203125 A 0.47053061 0.46987268 0 0 0 14.740234 7.2050781 L 11.863281 9.6679688 A 0.47053061 0.46987268 0 0 0 11.714844 10.140625 L 12.658203 13.876953 L 12.658203 13.822266 A 0.47053061 0.46987268 0 0 0 12.673828 13.935547 C 12.763028 14.291746 12.599286 14.691597 12.345703 14.884766 C 12.111947 15.062828 11.623169 15.11249 11.330078 14.912109 A 0.47053061 0.46987268 0 0 0 11.328125 14.912109 L 8.2636719 12.822266 A 0.47053061 0.46987268 0 0 0 8 12.75 L 8 13.779297 L 10.798828 15.685547 C 11.471832 16.14465 12.331474 16.078083 12.916016 15.632812 C 13.481178 15.202303 13.771675 14.448682 13.585938 13.707031 A 0.47053061 0.46987268 0 0 0 13.585938 13.705078 A 0.47053061 0.46987268 0 0 0 13.585938 13.703125 A 0.47053061 0.46987268 0 0 0 13.585938 13.701172 L 12.697266 10.191406 L 15.353516 7.9199219 C 15.96651 7.3973336 16.127476 6.5820235 15.904297 5.9179688 C 15.675844 5.2382314 15.019732 4.6683674 14.179688 4.6679688 L 10.923828 4.6679688 L 9.7441406 1.3007812 L 9.7441406 1.3808594 A 0.47053061 0.46987268 0 0 0 9.7167969 1.2246094 C 9.4672591 0.51619943 8.7919816 0.00015974 8 0 z " />
</svg>
