<?xml version="1.0" encoding="UTF-8" standalone="no"?>
<svg
   height="16px"
   viewBox="0 0 16 16"
   width="16px"
   version="1.1"
   id="svg4"
   xmlns="http://www.w3.org/2000/svg"
   xmlns:svg="http://www.w3.org/2000/svg">
  <defs
     id="defs8" />
  <path
     d="M 8.003906,0 C 7.570312,0 7.1875,0.29572603 7.050781,0.72890179 L 5.601562,5.3563854 1.011719,5.3397238 C 0.0273438,5.331394 -0.375,6.6767382 0.429688,7.27652 l 3.628906,2.728174 -1.5,4.569172 c -0.316406,0.962149 0.6875,1.80351 1.488281,1.249545 l 4.003906,-2.765661 3.898438,2.75733 c 0.796875,0.566461 1.808593,-0.274899 1.496093,-1.241214 L 11.941406,10.000529 15.585938,7.2556946 C 16.375,6.6559127 15.980469,5.3272291 15.011719,5.3230642 L 10.351562,5.3064026 8.949219,0.73723156 C 8.816406,0.29989091 8.433594,0.00416515 8.003906,0.00416515 Z M 8,4.4900339 8.675781,6.6975637 C 8.808594,7.1349044 9.191406,7.4347953 9.621094,7.4389602 L 11.875,7.447291 10.171875,8.7259928 C 9.808594,9.0008923 9.660156,9.5007104 9.804688,9.9505468 L 10.570312,12.287198 8.609375,10.896036 C 8.40625,10.833559 8.203125,10.779412 8,10.721101 Z m 0,0"
     fill="#2e3436"
     id="path2"
     style="stroke-width:1;fill:#241f31" />
</svg>
