<?xml version="1.0" encoding="UTF-8" standalone="no"?>
<svg
   width="16.011"
   height="16"
   version="1.1"
   id="svg22"
   xmlns="http://www.w3.org/2000/svg"
   xmlns:svg="http://www.w3.org/2000/svg">
  <defs
     id="defs26" />
  <path
     d="m8 1a8 8 0 0 0-8 8 8 8 0 0 0 3.3496 6.5098l0.58203-0.81445a7 7 0 0 1-2.9316-5.6953 7 7 0 0 1 6.9062-7 7 7 0 0 1 0.09375 0 7 7 0 0 1 7 7 7 7 0 0 1-2.9316 5.6973l0.58008 0.8125a8 8 0 0 0 3.3516-6.5098 8 8 0 0 0-8-8z"
     fill="#333333"
     style="paint-order:stroke fill markers;fill:#241f31"
     id="path2" />
  <circle
     cx="8"
     cy="9"
     r="1"
     fill="#333333"
     style="paint-order:stroke fill markers;fill:#241f31"
     id="circle4" />
  <rect
     x="7.5055"
     y="1.5261"
     width="1"
     height="1.4739"
     rx="0"
     ry="0"
     fill="#333333"
     style="paint-order:stroke fill markers;fill:#241f31"
     id="rect6" />
  <rect
     transform="rotate(45)"
     x="11.525"
     y="-6.7707"
     width="1"
     height="1.4739"
     rx="0"
     ry="0"
     fill="#333333"
     style="paint-order:stroke fill markers;fill:#241f31"
     id="rect8" />
  <rect
     transform="rotate(45)"
     x="11.525"
     y="6.7032"
     width="1"
     height="1.4739"
     rx="0"
     ry="0"
     fill="#333333"
     style="paint-order:stroke fill markers;fill:#241f31"
     id="rect10" />
  <rect
     transform="rotate(90)"
     x="8.5"
     y="-15.479"
     width="1"
     height="1.4739"
     rx="0"
     ry="0"
     fill="#333333"
     style="paint-order:stroke fill markers;fill:#241f31"
     id="rect12" />
  <rect
     transform="rotate(90)"
     x="8.5"
     y="-2.0055"
     width="1"
     height="1.4739"
     rx="0"
     ry="0"
     fill="#333333"
     style="paint-order:stroke fill markers;fill:#241f31"
     id="rect14" />
  <rect
     transform="rotate(135)"
     x=".20322"
     y="-19.499"
     width="1"
     height="1.4739"
     rx="0"
     ry="0"
     fill="#333333"
     style="paint-order:stroke fill markers;fill:#241f31"
     id="rect16" />
  <rect
     transform="rotate(135)"
     x=".20322"
     y="-6.0247"
     width="1"
     height="1.4739"
     rx="0"
     ry="0"
     fill="#333333"
     style="paint-order:stroke fill markers;fill:#241f31"
     id="rect18" />
  <rect
     x="7.5055"
     y="4"
     width="1"
     height="5"
     rx=".5"
     ry=".5"
     fill="#363636"
     stroke-linecap="round"
     stroke-linejoin="round"
     stroke-width="2"
     style="paint-order:stroke fill markers;fill:#241f31"
     id="rect20" />
</svg>
