<svg xmlns="http://www.w3.org/2000/svg" xmlns:svg="http://www.w3.org/2000/svg" id="svg22" width="16.011" height="16" version="1.1"><path id="path2" fill="#333" d="m8 1a8 8 0 0 0-8 8 8 8 0 0 0 3.3496 6.5098l0.58203-0.81445a7 7 0 0 1-2.9316-5.6953 7 7 0 0 1 6.9062-7 7 7 0 0 1 0.09375 0 7 7 0 0 1 7 7 7 7 0 0 1-2.9316 5.6973l0.58008 0.8125a8 8 0 0 0 3.3516-6.5098 8 8 0 0 0-8-8z" style="paint-order:stroke fill markers;fill:#241f31"/><circle cx="8" cy="9" r="1" fill="#333" style="paint-order:stroke fill markers;fill:#241f31" id="circle4"/><rect id="rect6" width="1" height="1.474" x="7.505" y="1.526" fill="#333" rx="0" ry="0" style="paint-order:stroke fill markers;fill:#241f31"/><rect id="rect8" width="1" height="1.474" x="11.525" y="-6.771" fill="#333" rx="0" ry="0" transform="rotate(45)" style="paint-order:stroke fill markers;fill:#241f31"/><rect id="rect10" width="1" height="1.474" x="11.525" y="6.703" fill="#333" rx="0" ry="0" transform="rotate(45)" style="paint-order:stroke fill markers;fill:#241f31"/><rect id="rect12" width="1" height="1.474" x="8.5" y="-15.479" fill="#333" rx="0" ry="0" transform="rotate(90)" style="paint-order:stroke fill markers;fill:#241f31"/><rect id="rect14" width="1" height="1.474" x="8.5" y="-2.006" fill="#333" rx="0" ry="0" transform="rotate(90)" style="paint-order:stroke fill markers;fill:#241f31"/><rect id="rect16" width="1" height="1.474" x=".203" y="-19.499" fill="#333" rx="0" ry="0" transform="rotate(135)" style="paint-order:stroke fill markers;fill:#241f31"/><rect id="rect18" width="1" height="1.474" x=".203" y="-6.025" fill="#333" rx="0" ry="0" transform="rotate(135)" style="paint-order:stroke fill markers;fill:#241f31"/><rect id="rect20" width="1" height="5" x="7.505" y="4" fill="#363636" stroke-linecap="round" stroke-linejoin="round" stroke-width="2" rx=".5" ry=".5" style="paint-order:stroke fill markers;fill:#241f31"/></svg>