<?xml version="1.0" encoding="UTF-8" standalone="no"?>
<svg
   height="16px"
   viewBox="0 0 16 16"
   width="16px"
   version="1.1"
   id="svg4"
   xmlns="http://www.w3.org/2000/svg"
   xmlns:svg="http://www.w3.org/2000/svg">
  <defs
     id="defs8" />
  <path
     style="color:#000000;-inkscape-font-specification:sans-serif;fill:#241f31;stroke-width:0.999998;stroke-linecap:round;stroke-linejoin:round;-inkscape-stroke:none"
     d="M 7.9999763,0 C 7.2079945,1.5974e-4 6.5329842,0.51570643 6.2834464,1.2241162 A 0.47053061,0.46987268 0 0 0 6.2558794,1.380113 V 1.301197 L 5.0759944,4.6670577 H 1.8212038 C 0.98116116,4.6674573 0.32393623,5.2389636 0.09548486,5.9187026 -0.12744234,6.5820054 0.03371986,7.3946419 0.64499497,7.9172971 L 3.302492,10.19118 2.4148218,13.702026 a 0.47053061,0.46987268 0 0 0 0,0.0055 c -0.1857343,0.74165 0.103805,1.494673 0.6689688,1.925184 0.5845421,0.445272 1.444171,0.51232 2.117176,0.05322 l 2.7990097,-1.906831 2.7990107,1.906831 c 0.673004,0.459103 1.532634,0.39205 2.117176,-0.05322 0.565162,-0.43051 0.854705,-1.183533 0.668968,-1.925184 a 0.47053061,0.46987268 0 0 0 0,-0.0055 L 12.697461,10.19118 15.35312,7.9191324 C 15.966114,7.3965441 16.127647,6.5827574 15.904468,5.9187026 15.676015,5.2389652 15.018793,4.6674563 14.178749,4.6670577 H 10.923958 L 9.7440735,1.301197 V 1.380113 A 0.47053061,0.46987268 0 0 0 9.7165061,1.2241162 C 9.4669683,0.51570626 8.7919579,1.5974e-4 7.9999763,0 Z m 0,0.9396514 c 0.3744765,7.553e-5 0.709156,0.2582662 0.8288596,0.5946232 a 0.47053061,0.46987268 0 0 0 0,0.00367 L 10.14472,5.2928797 a 0.47053061,0.46987268 0 0 0 0.444754,0.3138289 h 3.589275 c 0.37904,1.799e-4 0.736578,0.3237942 0.832535,0.6093052 0.101228,0.3011941 0.02556,0.7368319 -0.268322,0.9873681 a 0.47053061,0.46987268 0 0 0 -0.0019,0.00183 L 11.863044,9.6681326 A 0.47053061,0.46987268 0 0 0 11.71418,10.139794 l 0.944642,3.736582 v -0.05505 a 0.47053061,0.46987268 0 0 0 0.01471,0.113786 c 0.0892,0.356199 -0.07355,0.755659 -0.327133,0.948828 -0.233756,0.178062 -0.723227,0.227911 -1.016318,0.02753 a 0.47053061,0.46987268 0 0 0 -0.0019,0 L 8.2646233,12.82294 a 0.47053061,0.46987268 0 0 0 -0.5292941,0 l -3.0636566,2.088521 a 0.47053061,0.46987268 0 0 0 -0.00183,0 c -0.2930958,0.20038 -0.782568,0.150531 -1.016321,-0.02753 C 3.3999309,14.690764 3.2371801,14.2913 3.3263837,13.935104 a 0.47053061,0.46987268 0 0 0 0,-0.0019 l 0.00735,-0.02569 a 0.47053061,0.46987268 0 0 0 0,-0.0073 L 4.285729,10.139793 A 0.47053061,0.46987268 0 0 0 4.1368651,9.668132 L 1.258829,7.2052175 a 0.47053061,0.46987268 0 0 0 -0.00184,-0.00183 C 0.96311337,6.9528463 0.88744147,6.5172075 0.9886685,6.2160143 1.0846243,5.9305053 1.4421651,5.6068894 1.8212038,5.6067091 h 3.589275 A 0.47053061,0.46987268 0 0 0 5.8552328,5.2928802 L 7.1711165,1.537945 a 0.47053061,0.46987268 0 0 0 0,-0.00367 C 7.2908202,1.1979177 7.6254998,0.93972693 7.9999763,0.9396514 Z"
     id="path1024" />
</svg>
