<?xml version="1.0" encoding="UTF-8" standalone="no"?>
<svg
   height="16px"
   viewBox="0 0 16 16"
   width="16px"
   version="1.1"
   id="svg4"
   xmlns="http://www.w3.org/2000/svg"
   xmlns:svg="http://www.w3.org/2000/svg">
  <defs
     id="defs8" />
  <path
     d="M 8,0 C 7.570312,0 7.1875,0.29156114 7.050781,0.72890179 L 5.601562,5.3563854 1.011719,5.3397238 C 0.03125,5.3355589 -0.371094,6.6809031 0.429688,7.2806849 l 3.625,2.7240091 -1.5,4.569172 c -0.316407,0.962149 0.6875,1.80351 1.492187,1.249545 l 4.003906,-2.765661 3.894531,2.75733 c 0.800782,0.566461 1.816407,-0.274899 1.5,-1.23705 L 11.941406,10.004694 15.585938,7.2556946 C 16.375,6.6559127 15.980469,5.3272291 15.011719,5.3230642 L 10.351562,5.3064026 8.949219,0.73723156 C 8.816406,0.29989091 8.433594,0.00416515 8,0 Z m 0,0"
     fill="#2e3436"
     id="path2"
     style="stroke-width:1;fill:#241f31" />
</svg>
