<?xml version="1.0" encoding="UTF-8" standalone="no"?>
<svg
   height="16px"
   viewBox="0 0 16 16"
   width="16px"
   version="1.1"
   id="svg4"
   sodipodi:docname="stopwatch-filled-symbolic.svg"
   xml:space="preserve"
   inkscape:version="1.2.2 (b0a8486541, 2022-12-01)"
   xmlns:inkscape="http://www.inkscape.org/namespaces/inkscape"
   xmlns:sodipodi="http://sodipodi.sourceforge.net/DTD/sodipodi-0.dtd"
   xmlns="http://www.w3.org/2000/svg"
   xmlns:svg="http://www.w3.org/2000/svg"><sodipodi:namedview
     id="namedview7"
     pagecolor="#ffffff"
     bordercolor="#000000"
     borderopacity="0.25"
     inkscape:showpageshadow="2"
     inkscape:pageopacity="0.0"
     inkscape:pagecheckerboard="0"
     inkscape:deskcolor="#d1d1d1"
     showgrid="false"
     inkscape:zoom="48.875"
     inkscape:cx="8"
     inkscape:cy="6.3631714"
     inkscape:window-width="2560"
     inkscape:window-height="927"
     inkscape:window-x="0"
     inkscape:window-y="0"
     inkscape:window-maximized="1"
     inkscape:current-layer="svg4" /><defs
     id="defs8" /><path
     style="color:#000000;fill:#241f31;stroke-linecap:round;stroke-linejoin:round;-inkscape-stroke:none"
     d="m 13.146484,0.14648437 a 0.5,0.5 0 0 0 0,0.70703126 l 2,1.99999997 a 0.5,0.5 0 0 0 0.707032,0 0.5,0.5 0 0 0 0,-0.7070312 l -2,-2.00000003 a 0.5,0.5 0 0 0 -0.707032,0 z"
     id="path860" /><path
     id="path341"
     style="opacity:1;fill:#241f31;fill-opacity:1;stroke:none;stroke-width:1.04972;stroke-linecap:round;stroke-linejoin:round;stop-color:#000000"
     d="M 8.0000001,1 C 4.134015,1.00002 1.00002,4.1340151 1,7.9999999 c 2e-5,3.8659841 3.134015,6.9999791 7.0000001,6.9999991 3.8659859,-2e-5 6.9999809,-3.134015 7.0000009,-6.9999991 C 14.999981,4.134015 11.865986,1.0000199 8.0000001,1 Z M 7.0000002,4 h 1 V 7.9999999 H 12 v 1 h -3.9999998 -1 v -1 z"
     sodipodi:nodetypes="cccccccccccccc" /></svg>
