<svg xmlns="http://www.w3.org/2000/svg" xmlns:svg="http://www.w3.org/2000/svg" id="svg4" width="16" height="16" version="1.1" viewBox="0 0 16 16" xml:space="preserve"><path style="color:#000;fill:#241f31;stroke-linecap:round;stroke-linejoin:round;-inkscape-stroke:none" id="path860" d="m 13.146484,0.14648437 a 0.5,0.5 0 0 0 0,0.70703126 l 2,1.99999997 a 0.5,0.5 0 0 0 0.707032,0 0.5,0.5 0 0 0 0,-0.7070312 l -2,-2.00000003 a 0.5,0.5 0 0 0 -0.707032,0 z"/><path id="path341" style="opacity:1;fill:#241f31;fill-opacity:1;stroke:none;stroke-width:1.04972;stroke-linecap:round;stroke-linejoin:round;stop-color:#000" d="M 8.0000001,1 C 4.134015,1.00002 1.00002,4.1340151 1,7.9999999 c 2e-5,3.8659841 3.134015,6.9999791 7.0000001,6.9999991 3.8659859,-2e-5 6.9999809,-3.134015 7.0000009,-6.9999991 C 14.999981,4.134015 11.865986,1.0000199 8.0000001,1 Z M 7.0000002,4 h 1 V 7.9999999 H 12 v 1 h -3.9999998 -1 v -1 z"/></svg>