<?xml version="1.0" encoding="UTF-8" standalone="no"?>
<!-- Created with Inkscape (http://www.inkscape.org/) -->

<svg
   width="16"
   height="16"
   viewBox="0 0 16 16"
   version="1.1"
   id="svg5"
   xmlns="http://www.w3.org/2000/svg"
   xmlns:svg="http://www.w3.org/2000/svg">
  <defs
     id="defs2" />
  <path
     id="path1018"
     style="fill:#241f31;stroke:none;stroke-width:1px;stroke-linecap:butt;stroke-linejoin:miter;stroke-opacity:1;fill-opacity:0.5"
     d="M 8 4 C 7.3978848 4 6.8255652 4.0600664 6.2832031 4.1621094 L 7.6484375 5.5273438 C 7.7637803 5.5108602 7.8802948 5.5 8 5.5 C 9.3747882 5.5 10.5 6.6252118 10.5 8 C 10.5 8.1197052 10.48914 8.2362197 10.472656 8.3515625 L 12.808594 10.6875 C 14.856952 9.5211736 16 8 16 8 C 16 8 13 4 8 4 z M 3.1914062 5.3125 C 1.1430477 6.4788264 0 8 0 8 C 0 8 3 12 8 12 C 8.6021152 12 9.1744348 11.939934 9.7167969 11.837891 L 8.3515625 10.472656 C 8.2362197 10.48914 8.1197052 10.5 8 10.5 C 6.6252118 10.5 5.5 9.3747882 5.5 8 C 5.5 7.8802948 5.5108602 7.7637803 5.5273438 7.6484375 L 3.1914062 5.3125 z M 9.0097656 6.8886719 L 9.1113281 6.9902344 C 9.0791497 6.9547968 9.0452032 6.9208503 9.0097656 6.8886719 z M 6.8886719 9.0097656 C 6.9208503 9.0452032 6.9547968 9.0791497 6.9902344 9.1113281 L 6.8886719 9.0097656 z " />
  <path
     style="color:#000000;fill:#241f31;stroke-linecap:round;stroke-linejoin:round;-inkscape-stroke:none"
     d="m 3.3535156,2.6464844 a 0.50005,0.50005 0 0 0 -0.7011718,0.00586 0.50005,0.50005 0 0 0 -0.00586,0.7011718 L 12.646484,13.353516 a 0.50005,0.50005 0 0 0 0.480469,0.123047 0.50005,0.50005 0 0 0 0.34961,-0.34961 0.50005,0.50005 0 0 0 -0.123047,-0.480469 z"
     id="path975" />
</svg>
