<?xml version="1.0" encoding="UTF-8" standalone="no"?>
<svg
   height="16px"
   viewBox="0 0 16 16"
   width="16px"
   version="1.1"
   id="svg4"
   xmlns="http://www.w3.org/2000/svg"
   xmlns:svg="http://www.w3.org/2000/svg">
  <defs
     id="defs8" />
  <path
     style="color:#000000;fill:#241f31;stroke-width:1;stroke-linecap:round;stroke-linejoin:round;-inkscape-stroke:none"
     d="M 2.5454675,1 C 2.2442216,1 2.0000136,1.2238576 2.0000136,1.5 v 11 c 0,0 -0.00752,0.6034 0.3302554,1.222656 C 2.6680447,14.341913 3.4545586,15 4.7272831,15 H 11.27273 c 0,0 0.658254,0.0069 1.333805,-0.302734 C 13.282088,14.387637 14,13.666665 14,12.5 V 1.5 C 14,1.2238576 13.755792,0.99999995 13.454546,1 13.1533,0.99999995 13,1.2238576 13,1.5 v 11 c 0,0.833333 -0.463904,1.112363 -0.879259,1.302734 C 11.705386,13.993106 11,14 11,14 H 5 C 4.0909111,14 3.5137977,13.658086 3.30612,13.277344 3.0984425,12.896601 3,12.778483 3,12.5 3,9 3,1.5 3,1.5 3,1.2238576 2.8467134,1 2.5454675,1 Z"
     id="path857" />
  <path
     style="color:#000000;fill:#241f31;stroke-width:0.999997;stroke-linecap:round;stroke-linejoin:round;-inkscape-stroke:none"
     d="M 2.4615385,1 A 0.46153846,0.5 0 0 0 2,1.5 0.46153846,0.5 0 0 0 2.4615385,2 H 13.538462 A 0.46153846,0.5 0 0 0 14,1.5 0.46153846,0.5 0 0 0 13.538462,1 Z"
     id="path859" />
  <rect
     style="fill:#241f31;stroke:#241f31;stroke-linecap:round;stroke-linejoin:round;stop-color:#000000"
     id="rect1685"
     width="10"
     height="12"
     x="3"
     y="2"
     rx="0.5"
     ry="0.5" />
</svg>
