<svg xmlns="http://www.w3.org/2000/svg" xmlns:svg="http://www.w3.org/2000/svg" id="svg4" width="16" height="16" version="1.1" viewBox="0 0 16 16"><path id="path857" style="color:#000;fill:#241f31;stroke-width:1;stroke-linecap:round;stroke-linejoin:round;-inkscape-stroke:none" d="M 2.5449219 1 C 2.243676 1 2 1.2238576 2 1.5 L 2 12.5 C 2 12.5 1.9923027 13.1034 2.3300781 13.722656 C 2.6678538 14.341913 3.453838 15 4.7265625 15 L 11.273438 15 C 11.273438 15 11.931871 15.0069 12.607422 14.697266 C 13.282975 14.387637 14 13.666665 14 12.5 L 14 1.5 C 14 1.2238576 13.756324 0.99999995 13.455078 1 C 13.153832 0.99999995 13 1.2238576 13 1.5 L 13 1.5625 L 3 1.5625 L 3 1.5 C 3 1.2238576 2.8461678 1 2.5449219 1 z M 3.2050781 13.097656 L 12.892578 13.097656 C 12.731818 13.487182 12.415385 13.667851 12.121094 13.802734 C 11.705739 13.993106 11 14 11 14 L 5 14 C 4.0909111 14 3.5143183 13.658086 3.3066406 13.277344 C 3.2681082 13.206701 3.2361586 13.152919 3.2050781 13.097656 z"/><path id="path859" style="color:#000;fill:#241f31;stroke-width:.999997;stroke-linecap:round;stroke-linejoin:round;-inkscape-stroke:none" d="M 2.4609375 1 A 0.46153846 0.5 0 0 0 2 1.5 A 0.46153846 0.5 0 0 0 2.4609375 2 L 3.5 2 C 3.223 2 3 2.223 3 2.5 L 3 13.5 C 3 13.777 3.223 14 3.5 14 L 4.0507812 14 L 4.0507812 14.207031 C 4.0507812 14.484031 4.2737812 14.707031 4.5507812 14.707031 L 11.191406 14.707031 C 11.468406 14.707031 11.691406 14.484031 11.691406 14.207031 L 11.691406 14 L 12.5 14 C 12.777 14 13 13.777 13 13.5 L 13 2.5 C 13 2.223 12.777 2 12.5 2 L 13.539062 2 A 0.46153846 0.5 0 0 0 14 1.5 A 0.46153846 0.5 0 0 0 13.539062 1 L 2.4609375 1 z"/></svg>