<?xml version="1.0" encoding="UTF-8" standalone="no"?>
<!-- Created with Inkscape (http://www.inkscape.org/) -->

<svg
   width="16"
   height="16"
   viewBox="0 0 16 16"
   version="1.1"
   id="svg5"
   xmlns="http://www.w3.org/2000/svg"
   xmlns:svg="http://www.w3.org/2000/svg">
  <defs
     id="defs2" />
  <path
     id="path1018"
     style="fill:#241f31;stroke:none;stroke-width:1px;stroke-linecap:butt;stroke-linejoin:miter;stroke-opacity:1;fill-opacity:0.5"
     d="M 8 4 C 7.846785 4 7.6962288 4.0042381 7.546875 4.0117188 L 13.673828 10.138672 C 15.17421 9.0944386 16 8 16 8 C 16 8 13 4 8 4 z M 2.3261719 5.8613281 C 0.82579011 6.9055614 2.5118279e-16 8 0 8 C 0 8 3 12 8 12 C 8.153215 12 8.3037712 11.995762 8.453125 11.988281 L 2.3261719 5.8613281 z " />
  <path
     style="color:#000000;fill:#241f31;stroke-linecap:round;stroke-linejoin:round;-inkscape-stroke:none"
     d="m 1.6972656,0.28320313 a 1.0001,1.0001 0 0 0 -1.40429685,0.009766 1.0001,1.0001 0 0 0 -0.009766,1.40429685 L 14.302734,15.71875 a 1.0001,1.0001 0 0 0 0.960938,0.248047 1.0001,1.0001 0 0 0 0.701172,-0.703125 1.0001,1.0001 0 0 0 -0.248047,-0.958984 z"
     id="path1138" />
</svg>
