<?xml version="1.0" encoding="UTF-8" standalone="no"?>
<svg
   height="16px"
   viewBox="0 0 16 16"
   width="16px"
   version="1.1"
   id="svg4"
   xmlns="http://www.w3.org/2000/svg"
   xmlns:svg="http://www.w3.org/2000/svg">
  <defs
     id="defs8" />
  <path
     id="path2"
     style="fill:#241f31;stroke-width:0.999997"
     d="M 2.0742188 0.99609375 C 2.0490137 0.99850375 2.02571 1 2 1 L 1.9472656 1 L 1.9472656 1.0039062 C 1.4183943 1.0315944 1 1.4639953 1 2 C 1 2.5386976 1.4224327 2.9743397 1.9550781 2.9980469 L 2 14 C 2 16 4 16 4 16 L 12 16 C 14 16 14 14 14 14 L 13.955078 3 L 14 3 C 14.554 3 15 2.554 15 2 C 15 1.446 14.554 1 14 1 L 13.947266 1 L 12.888672 1 C 12.865602 1 12.844936 0.99804375 12.822266 0.99609375 L 11.900391 1 L 3.9804688 1 L 2.0742188 0.99609375 z M 3.984375 3 L 11.917969 3 L 12 13 C 12 14 11 14 11 14 L 5 14 C 5 14 4 14 4 13 L 3.984375 3 z " />
  <path
     id="rect844"
     style="fill:#241f31;stroke-width:0.999997;stroke-linecap:round;stroke-linejoin:round;stop-color:#000000"
     d="m 7,5 h 2 c 1,0 1,1 1,1 v 5 c 0,1 -1,1 -1,1 H 7 C 7,12 6,12 6,11 V 6 C 6,6 6,5 7,5 Z" />
</svg>
