<?xml version="1.0" encoding="UTF-8" standalone="no"?>
<svg
   height="16px"
   viewBox="0 0 16 16"
   width="16px"
   version="1.1"
   id="svg4"
   xmlns="http://www.w3.org/2000/svg"
   xmlns:svg="http://www.w3.org/2000/svg">
  <defs
     id="defs8" />
  <path
     style="color:#000000;fill:#241f31;stroke-linecap:round;stroke-linejoin:round;-inkscape-stroke:none"
     d="M 7.9472656,1.0078125 C 4.5830325,1.5771915 2,4.4727076 2,7.9511719 2,11.834743 5.2227871,15 9.1523438,15 10.936815,15 12.571374,14.342814 13.826172,13.267578 A 0.50004899,0.50004899 0 0 0 13.625,12.404297 C 10.255411,11.541789 7.7480469,8.5220258 7.7480469,4.9433594 c 0,-1.1504593 0.2683034,-2.23953 0.7363281,-3.2304688 A 0.50004899,0.50004899 0 0 0 7.9472656,1.0078125 Z M 7.3574219,2.2617188 c -0.2948973,0.8622152 -0.609375,1.7241695 -0.609375,2.6816406 0,3.6793112 2.3925241,6.7394126 5.6738281,8.0117186 C 11.463127,13.568133 10.377323,14 9.1523438,14 5.7584309,14 3,11.282112 3,7.9511719 3,5.2476004 4.8588377,3.0330075 7.3574219,2.2617188 Z"
     id="path2" />
</svg>
