<?xml version="1.0" encoding="UTF-8" standalone="no"?>
<svg
   height="16px"
   viewBox="0 0 16 16"
   width="16px"
   version="1.1"
   id="svg4"
   xmlns="http://www.w3.org/2000/svg"
   xmlns:svg="http://www.w3.org/2000/svg">
  <defs
     id="defs8" />
  <path
     style="color:#000000;fill:#241f31;stroke-linecap:round;stroke-linejoin:round;-inkscape-stroke:none"
     d="m 13.490234,4 c 0,0 -0.601115,0.00471 -1.216796,0.3183594 C 11.657756,4.6320088 11,5.3489982 11,6.5 A 0.5,0.5 0 0 0 11.5,7 0.5,0.5 0 0 0 12,6.5 c 0,-0.8112582 0.342245,-1.095231 0.726563,-1.2910156 0.382289,-0.1947514 0.775128,-0.2068799 0.779296,-0.2070313 0.006,1.147e-4 0.393666,0.0064 0.771485,0.1953125 C 14.658086,5.387637 15,5.6666675 15,6.5 15,7.3333325 14.658086,7.612363 14.277344,7.8027344 13.896601,7.9931057 13.5,8 13.5,8 H 1.5 A 0.5,0.5 0 0 0 1,8.5 0.5,0.5 0 0 0 1.5,9 h 12 c 0,0 0.6034,0.00689 1.222656,-0.3027344 C 15.341913,8.3876375 16,7.6666655 16,6.5 16,5.3333345 15.341913,4.6123625 14.722656,4.3027344 14.1034,3.9931062 13.5,4 13.5,4 a 0.50005,0.50005 0 0 0 -0.0098,0 z"
     id="path862" />
  <path
     style="color:#000000;fill:#241f31;stroke-linecap:round;stroke-linejoin:round;-inkscape-stroke:none"
     d="M 1.5,11 A 0.5,0.5 0 0 0 1,11.5 0.5,0.5 0 0 0 1.5,12 h 7.5722656 c 0,0 0.5248127,0.0076 1.0234374,0.212891 C 10.594328,12.418207 11,12.702382 11,13.5 11,14.297618 10.594328,14.581793 10.095703,14.787109 9.5989025,14.991674 9.079994,14.999946 9.0761719,15 9.0723742,14.99989 8.5505131,14.985045 8.0507813,14.775391 7.5492325,14.564974 7.1425781,14.274856 7.1425781,13.5 a 0.5,0.5 0 0 0 -0.5,-0.5 0.5,0.5 0 0 0 -0.5,0.5 c 0,1.187402 0.8087484,1.898248 1.5214844,2.197266 C 8.3767985,15.996283 9.0644531,16 9.0644531,16 a 0.50005,0.50005 0 0 0 0.00781,0 c 0,0 0.6886374,0.0076 1.4042974,-0.287109 C 11.192222,15.418207 12,14.70238 12,13.5 12,12.29762 11.192222,11.581793 10.476563,11.287109 9.760903,10.992426 9.0722656,11 9.0722656,11 Z"
     id="path862-3" />
  <path
     style="color:#000000;fill:#241f31;stroke-linecap:round;stroke-linejoin:round;-inkscape-stroke:none"
     d="m 6.4902344,1 c 0,0 -0.6011156,0.00471 -1.2167969,0.3183594 C 4.6577562,1.632009 4,2.348999 4,3.5 A 0.5,0.5 0 0 0 4.5,4 0.5,0.5 0 0 0 5,3.5 C 5,2.688743 5.3422449,2.4047692 5.7265625,2.2089844 6.108852,2.0142327 6.5016907,2.0021045 6.5058594,2.0019531 c 0.00601,1.147e-4 0.393666,0.0064 0.7714843,0.1953125 C 7.6580864,2.387637 8,2.6666675 8,3.5 8,4.3333325 7.6580864,4.612363 7.2773437,4.8027344 6.8966011,4.9931057 6.5,5 6.5,5 h -5 A 0.5,0.5 0 0 0 1,5.5 0.5,0.5 0 0 0 1.5,6 h 5 c 0,0 0.6033999,0.00689 1.2226562,-0.3027344 C 8.3419126,5.3876375 9,4.6666655 9,3.5 9,2.3333345 8.3419126,1.6123625 7.7226562,1.3027344 7.1033999,0.99310621 6.5,1 6.5,1 a 0.50005,0.50005 0 0 0 -0.00977,0 z"
     id="path862-3-6" />
</svg>
