<?xml version="1.0" encoding="UTF-8" standalone="no"?>
<svg
   height="16px"
   viewBox="0 0 16 16"
   width="16px"
   version="1.1"
   id="svg4"
   xmlns="http://www.w3.org/2000/svg"
   xmlns:svg="http://www.w3.org/2000/svg">
  <style
     id="style1179">
#g1177 { 
    class:warning;
}
</style>
  <defs
     id="defs8" />
  <path
     style="color:#000000;fill:#241f31;stroke-linecap:round;stroke-linejoin:round;-inkscape-stroke:none"
     d="M 7.3007812,2 C 4.3743519,1.999515 2.0001294,4.4230642 2,7.3886719 2.0001293,10.35428 4.3743518,12.777829 7.3007812,12.777344 a 0.50004699,0.50004699 0 0 0 0.00391,0 C 7.800887,12.773739 8.2831209,12.652329 8.7578125,12.509766 9.4104825,13.398991 10.387617,13.99719 11.498047,14 A 0.50004699,0.50004699 0 0 0 11.5,14 C 13.431691,14 14.999455,12.397765 15,10.445313 15.000681,8.9117429 13.964464,7.6659656 12.558594,7.1816406 12.445052,4.3174854 10.153997,2.0007098 7.3007812,2 Z m 0,1 c 2.3739494,5.906e-4 4.2966128,1.9523787 4.2988278,4.3847656 -6.23e-4,0.00974 -0.0013,0.019564 -0.002,0.029297 a 0.50004699,0.50004699 0 0 0 0.396485,0.5253906 C 13.159459,8.179921 14.000543,9.221785 14,10.445313 13.999604,11.866586 12.882407,12.998937 11.501953,13 10.616286,12.997759 9.7965447,12.51865 9.3476563,11.732422 A 0.50004699,0.50004699 0 0 0 8.7402344,11.511719 C 8.2788738,11.683438 7.7915649,11.773328 7.3007812,11.777344 4.9248388,11.777737 3.0001062,9.8236284 3,7.3886719 3.0001063,4.9537154 4.9248389,2.9996063 7.3007812,3 Z"
     id="path1008" />
</svg>
