<svg xmlns="http://www.w3.org/2000/svg" xmlns:svg="http://www.w3.org/2000/svg" id="svg4" width="16" height="16" version="1.1" viewBox="0 0 16 16"><path style="color:#000;fill:#241f31;stroke-linecap:round;stroke-linejoin:round;-inkscape-stroke:none" id="path1568" d="M 6.5,2 A 0.500048,0.500048 0 0 0 6.0761719,2.234375 l -5,8 A 0.500048,0.500048 0 0 0 1.5,11 h 5.359375 l -0.84375,3.378906 a 0.500048,0.500048 0 0 0 0.8144531,0.498047 L 14.830078,7.8769531 A 0.500048,0.500048 0 0 0 14.5,7 h -3.947266 l 3.40625,-4.1835937 A 0.500048,0.500048 0 0 0 13.572266,2 Z M 6.7773437,3 H 12.519531 L 9.1113281,7.1835937 A 0.500048,0.500048 0 0 0 9.5,8 h 3.667969 L 7.3710937,13.072266 7.984375,10.621094 A 0.500048,0.500048 0 0 0 7.5,10 H 2.4023438 Z"/></svg>