<svg xmlns="http://www.w3.org/2000/svg" xmlns:svg="http://www.w3.org/2000/svg" id="svg4" width="16" height="16" version="1.1" viewBox="0 0 16 16"><path style="color:#000;fill:#241f31;stroke-width:1;stroke-linecap:round;stroke-linejoin:round;-inkscape-stroke:none" id="path1131" d="M 4.609375,1.0165874 A 0.5,0.69993615 0 0 0 4.0117188,1.5470078 L 2.0117187,14.145859 a 0.5,0.69993615 0 0 0 0.3789063,0.836642 0.5,0.69993615 0 0 0 0.5976562,-0.53042 L 4.9882813,1.8532299 A 0.5,0.69993615 0 0 0 4.609375,1.0165874 Z"/><path style="color:#000;fill:#241f31;stroke-width:1;stroke-linecap:round;stroke-linejoin:round;-inkscape-stroke:none" id="path1131-3" d="M 7.609375,1.0165868 A 0.5,0.69993615 0 0 0 7.0117188,1.5470073 L 5.0117187,14.145859 a 0.5,0.69993615 0 0 0 0.3789063,0.836642 0.5,0.69993615 0 0 0 0.5976562,-0.53042 L 7.9882813,1.8532293 A 0.5,0.69993615 0 0 0 7.609375,1.0165868 Z"/><path style="color:#000;fill:#241f31;stroke-width:1;stroke-linecap:round;stroke-linejoin:round;-inkscape-stroke:none" id="path1131-3-6" d="M 10.609375,1.0165863 A 0.5,0.69993615 0 0 0 10.011719,1.5470067 L 8.0117187,14.145859 a 0.5,0.69993615 0 0 0 0.3789063,0.836642 0.5,0.69993615 0 0 0 0.5976562,-0.53042 L 10.988281,1.8532288 A 0.5,0.69993615 0 0 0 10.609375,1.0165863 Z"/><path style="color:#000;fill:#241f31;stroke-width:1;stroke-linecap:round;stroke-linejoin:round;-inkscape-stroke:none" id="path1131-3-6-7" d="m 13.609375,1.0165857 a 0.5,0.69993615 0 0 0 -0.597656,0.5304204 l -2,12.5988529 a 0.5,0.69993615 0 0 0 0.378906,0.836642 0.5,0.69993615 0 0 0 0.597656,-0.53042 l 2,-12.5988528 A 0.5,0.69993615 0 0 0 13.609375,1.0165857 Z"/></svg>