<?xml version="1.0" encoding="UTF-8" standalone="no"?>
<svg
   height="16px"
   viewBox="0 0 16 16"
   width="16px"
   version="1.1"
   id="svg4"
   xmlns="http://www.w3.org/2000/svg"
   xmlns:svg="http://www.w3.org/2000/svg">
  <defs
     id="defs8" />
  <path
     style="color:#000000;fill:#241f31;stroke-linecap:round;stroke-linejoin:round;-inkscape-stroke:none"
     d="M 2.5,2 A 0.5,0.5 0 0 0 2,2.5 0.5,0.5 0 0 0 2.5,3 h 11 A 0.5,0.5 0 0 0 14,2.5 0.5,0.5 0 0 0 13.5,2 Z"
     id="path954" />
  <path
     style="color:#000000;fill:#241f31;stroke-linecap:round;stroke-linejoin:round;-inkscape-stroke:none"
     d="M 3.5,4 A 0.5,0.5 0 0 0 3,4.5 0.5,0.5 0 0 0 3.5,5 h 10 A 0.5,0.5 0 0 0 14,4.5 0.5,0.5 0 0 0 13.5,4 Z"
     id="path956" />
  <path
     style="color:#000000;fill:#241f31;stroke-linecap:round;stroke-linejoin:round;-inkscape-stroke:none"
     d="M 6.5,6 A 0.5,0.5 0 0 0 6,6.5 0.5,0.5 0 0 0 6.5,7 h 6 A 0.5,0.5 0 0 0 13,6.5 0.5,0.5 0 0 0 12.5,6 Z"
     id="path958" />
  <path
     style="color:#000000;fill:#241f31;stroke-linecap:round;stroke-linejoin:round;-inkscape-stroke:none"
     d="M 5.5,8 A 0.5,0.5 0 0 0 5,8.5 0.5,0.5 0 0 0 5.5,9 h 5 A 0.5,0.5 0 0 0 11,8.5 0.5,0.5 0 0 0 10.5,8 Z"
     id="path960" />
  <path
     style="color:#000000;fill:#241f31;stroke-linecap:round;stroke-linejoin:round;-inkscape-stroke:none"
     d="M 7.5,10 A 0.5,0.5 0 0 0 7,10.5 0.5,0.5 0 0 0 7.5,11 h 2 A 0.5,0.5 0 0 0 10,10.5 0.5,0.5 0 0 0 9.5,10 Z"
     id="path962" />
  <path
     style="color:#000000;fill:#241f31;stroke-linecap:round;stroke-linejoin:round;-inkscape-stroke:none"
     d="M 7.5,12 A 0.5,0.5 0 0 0 7,12.5 0.5,0.5 0 0 0 7.5,13 h 3 A 0.5,0.5 0 0 0 11,12.5 0.5,0.5 0 0 0 10.5,12 Z"
     id="path964" />
  <path
     style="color:#000000;fill:#241f31;stroke-linecap:round;stroke-linejoin:round;-inkscape-stroke:none"
     d="M 6.5,14 A 0.5,0.5 0 0 0 6,14.5 0.5,0.5 0 0 0 6.5,15 h 2 A 0.5,0.5 0 0 0 9,14.5 0.5,0.5 0 0 0 8.5,14 Z"
     id="path966" />
</svg>
