<?xml version="1.0" encoding="UTF-8" standalone="no"?>
<svg
   height="16px"
   viewBox="0 0 16 16"
   width="16px"
   version="1.1"
   id="svg4"
   xmlns="http://www.w3.org/2000/svg"
   xmlns:svg="http://www.w3.org/2000/svg">
  <defs
     id="defs8" />
  <path
     style="color:#000000;fill:#241f31;-inkscape-stroke:none"
     d="m 11.5,6 c -0.337594,0 -0.694861,0.1227391 -0.947266,0.4140625 -6.28e-4,7.25e-4 -0.0013,0.00123 -0.002,0.00195 C 10.405919,6.5788234 9.7944007,7.2883486 9.1972656,8.2441406 8.5979788,9.2033767 8,10.39223 8,11.585938 c 0,0.868953 0.307759,1.698418 0.8808594,2.322265 h 0.00195 C 9.3422881,14.407931 10.198309,15 11.5,15 13.716654,15 15,13.272191 15,11.585938 15,10.390348 14.400572,9.2009248 13.800781,8.2421875 13.20099,7.2834502 12.576013,6.5631427 12.445313,6.4140625 v -0.00195 C 12.194226,6.1287447 11.838434,6 11.5,6 Z m 0,1 c 0.09125,0 0.157338,0.031362 0.195313,0.074219 0.116011,0.1323423 0.704695,0.8150868 1.257812,1.6992188 C 13.506653,9.6582263 14,10.748337 14,11.585938 14,12.797737 13.220842,14 11.5,14 10.490114,14 9.9410356,13.582189 9.6191406,13.232422 9.2234919,12.80174 9,12.219116 9,11.585938 9,10.750248 9.4918656,9.6586757 10.044922,8.7734375 10.597978,7.8881993 11.194707,7.1974656 11.302734,7.0761719 l 0.0039,-0.00391 0.002,-0.00391 C 11.33733,7.0350272 11.408746,7 11.5,7 Z"
     id="path2" />
  <path
     style="color:#000000;fill:#241f31;-inkscape-stroke:none"
     d="M 4.5,1 C 4.162406,1 3.8051384,1.1227418 3.5527344,1.4140625 c -6.282e-4,7.25e-4 -0.00133,0.00123 -0.00195,0.00195 C 3.4059186,1.5788239 2.7944005,2.2883486 2.1972656,3.2441406 1.5979791,4.2033767 1,5.3922308 1,6.5859375 1,7.4548914 1.3077588,8.2843569 1.8808594,8.9082031 h 0.00195 C 2.3422878,9.407931 3.198309,10 4.5,10 6.716654,10 8,8.2721915 8,6.5859375 8,5.3903481 7.4005721,4.2009248 6.8007812,3.2421875 6.2009904,2.2834502 5.576013,1.5631429 5.4453125,1.4140625 v -0.00195 C 5.1942253,1.1287443 4.8384345,0.99999984 4.5,1 Z m 0,1 c 0.091253,0 0.157338,0.031363 0.1953125,0.074219 C 4.8113243,2.2065608 5.4000076,2.8893055 5.953125,3.7734375 6.5066533,4.6582263 7,5.7483378 7,6.5859375 7,7.7977376 6.2208421,9 4.5,9 3.4901137,9 2.9410358,8.5821894 2.6191406,8.2324219 2.2234922,7.8017404 2,7.2191167 2,6.5859375 2,5.7502481 2.4918658,4.6586757 3.0449219,3.7734375 3.597978,2.8881993 4.1947074,2.197465 4.3027344,2.0761719 l 0.00391,-0.00391 0.00195,-0.00391 C 4.3373325,2.035025 4.4087466,2 4.5,2 Z"
     id="path1012" />
</svg>
