<?xml version="1.0" encoding="UTF-8" standalone="no"?>
<svg
   height="16px"
   viewBox="0 0 16 16"
   width="16px"
   version="1.1"
   id="svg4"
   xmlns="http://www.w3.org/2000/svg"
   xmlns:svg="http://www.w3.org/2000/svg">
  <defs
     id="defs8" />
  <path
     id="path2"
     style="fill:none;stroke:#241f31;stroke-width:0.999997;stroke-opacity:1"
     d="m 11.499999,6.4999985 c -0.214844,0 -0.429689,0.079658 -0.570312,0.2427691 -0.25,0.2807013 -2.4296885,2.8146034 -2.4296885,4.8440024 0,0.751067 0.265625,1.456614 0.75,1.983879 0.390625,0.424846 1.0937505,0.92935 2.2500005,0.92935 1.96875,0 3,-1.464201 3,-2.913229 0,-2.033192 -2.183594,-4.5633012 -2.429688,-4.8440024 C 11.92578,6.5796568 11.714843,6.4999985 11.499999,6.4999985 Z" />
  <path
     id="path1012"
     style="fill:none;stroke:#241f31;stroke-width:0.999997;stroke-opacity:1"
     d="M 4.5,1.5 C 4.285156,1.5 4.0703115,1.5796583 3.9296875,1.7427691 3.6796875,2.0234703 1.5,4.5573729 1.5,6.586771 1.5,7.3378383 1.765625,8.0433853 2.25,8.5706497 2.640625,8.9954956 3.34375,9.5 4.5,9.5 6.46875,9.5 7.5,8.0357995 7.5,6.586771 7.5,4.5535799 5.3164065,2.0234703 5.0703125,1.7427691 4.9257815,1.5796583 4.714844,1.4999999 4.5,1.5 Z" />
</svg>
