<?xml version="1.0" encoding="UTF-8" standalone="no"?>
<svg
   height="16px"
   viewBox="0 0 16 16"
   width="16px"
   version="1.1"
   id="svg4"
   xmlns="http://www.w3.org/2000/svg"
   xmlns:svg="http://www.w3.org/2000/svg">
  <defs
     id="defs8" />
  <path
     style="color:#000000;fill:#241f31;stroke-width:0.999993;stroke-linecap:round;stroke-linejoin:round;-inkscape-stroke:none"
     d="M 10.005283,7 C 7.7827219,7 6,9.0336389 6,11.5 c 0,1.144471 0.4881703,2.197044 1.1732649,2.997071 0.6850945,0.800026 1.5690336,1.36286 2.4483708,1.498535 a 0.35717698,0.3750375 0 0 0 0.051618,0.0044 h 0.3320293 3.316114 0.33203 a 0.35717698,0.3750375 0 0 0 0.153459,-0.03662 c 1.149105,-0.575241 2.155321,-1.48061 2.19307,-2.733397 a 0.35717698,0.3750375 0 0 0 0,-0.01172 C 15.998528,11.919794 15.08606,10.892675 13.897566,10.599127 13.51728,8.5364732 11.91761,7.0029972 10.005283,7 Z m -0.0014,0.75 h 0.0014 c 1.598855,0.00327 2.977634,1.3145262 3.242174,3.13916 a 0.35717698,0.3750375 0 0 0 0.309708,0.316406 c 0.987946,0.123757 1.720578,0.983295 1.725718,2.006836 -0.02791,0.80868 -0.736435,1.524514 -1.732693,2.037598 H 13.321397 10.005283 9.7137111 C 9.0582395,15.145128 8.2904018,14.679947 7.7047916,13.996094 7.1160097,13.308537 6.7142825,12.418027 6.7142825,11.5 c 0,-2.0894383 1.483405,-3.7491342 3.2896065,-3.75 z"
     id="path926" />
  <path
     id="path1467"
     style="isolation:auto;mix-blend-mode:normal;fill:#241f31"
     d="M 0.25,7 C 0.11193,7 0,7.11193 0,7.25 v 0.5 C 0,7.889 0.112,8 0.25,8 h 1.5 C 1.88807,8 2,7.88807 2,7.75 V 7.25 C 2,7.11193 1.88807,7 1.75,7 Z" />
  <path
     id="path1465"
     style="isolation:auto;mix-blend-mode:normal;fill:#241f31"
     d="m 12.449219,1.9472656 c -0.0657,-3e-5 -0.129551,0.025566 -0.175781,0.072266 l -1.058594,1.0605469 c -0.0979,0.0977 -0.0979,0.2558357 0,0.3535157 l 0.351562,0.3535156 c 0.0976,0.0973 0.255946,0.0973 0.353516,0 l 1.060547,-1.0605469 c 0.0979,-0.0977 0.0979,-0.2558356 0,-0.3535156 L 12.626953,2.0195312 c -0.0472,-0.0471 -0.111034,-0.072666 -0.177734,-0.072266 z" />
  <path
     id="path1463"
     style="isolation:auto;mix-blend-mode:normal;fill:#241f31"
     d="m 2.5507812,1.9472656 c -0.0667,-3.8e-4 -0.1305143,0.025166 -0.1777343,0.072266 L 2.0195312,2.3730469 c -0.0979,0.0977 -0.0979,0.2558356 0,0.3535156 l 1.0605469,1.0605469 c 0.0977,0.0979 0.2558357,0.0979 0.3535157,0 L 3.7871094,3.4335938 c 0.0979,-0.0977 0.0979,-0.2558357 0,-0.3535157 L 2.7265625,2.0195312 c -0.0465,-0.047 -0.1096912,-0.072566 -0.1757813,-0.072266 z" />
  <path
     id="path1461"
     style="isolation:auto;mix-blend-mode:normal;fill:#241f31"
     d="M 7.75,0 H 7.25 C 7.11193,0 7,0.11193 7,0.25 v 1.5 C 7,1.889 7.112,2 7.25,2 h 0.5 C 7.88807,2 8,1.88807 8,1.75 V 0.25 C 8,0.11193 7.88807,0 7.75,0 Z" />
  <path
     id="circle6-7"
     style="color:#000000;fill:#241f31;fill-rule:evenodd;-inkscape-stroke:none;paint-order:stroke fill markers"
     d="m 7.5,3.5 c -2.2032145,0 -4,1.7967855 -4,4 0,1.2472988 0.6005327,2.2654932 1.5,3 C 5,9.5 5,10 5,9 4.6704938,8.5182151 4.5,8.1306316 4.5,7.5 c 0,-1.6627749 1.3372251,-3 3,-3 1.1148868,0 2.0824061,0.6025488 2.599609,1.5 h 1.105469 C 10.609794,4.5364905 9.1730739,3.5 7.5,3.5 Z" />
</svg>
