<?xml version="1.0" encoding="UTF-8" standalone="no"?>
<svg
   height="16px"
   viewBox="0 0 16 16"
   width="16px"
   version="1.1"
   id="svg4"
   xmlns="http://www.w3.org/2000/svg"
   xmlns:svg="http://www.w3.org/2000/svg">
  <defs
     id="defs8" />
  <path
     style="color:#000000;fill:#241f31;fill-opacity:0.5;stroke-linecap:round;stroke-linejoin:round;-inkscape-stroke:none"
     d="m 3.1464844,2.1464844 -2,2 a 0.5,0.5 0 0 0 0,0.7070312 0.5,0.5 0 0 0 0.7070312,0 L 3.5,3.2070313 5.1464844,4.8535156 a 0.50005,0.50005 0 0 0 0.7070312,0 L 7.5,3.2070313 9.1464844,4.8535156 a 0.50005,0.50005 0 0 0 0.7070312,0 L 11.5,3.2070313 13.146484,4.8535156 a 0.50005,0.50005 0 0 0 0.707032,0 l 2,-2 a 0.5,0.5 0 0 0 0,-0.7070312 0.5,0.5 0 0 0 -0.707032,0 L 13.5,3.7929688 11.853516,2.1464844 a 0.50005,0.50005 0 0 0 -0.707032,0 L 9.5,3.7929688 7.8535156,2.1464844 a 0.50005,0.50005 0 0 0 -0.7070312,0 L 5.5,3.7929688 3.8535156,2.1464844 a 0.50005,0.50005 0 0 0 -0.7070312,0 z"
     id="path860" />
  <path
     style="color:#000000;fill:#241f31;fill-opacity:0.5;stroke-linecap:round;stroke-linejoin:round;-inkscape-stroke:none"
     d="m 3.1464844,7.1464844 -2,2 a 0.5,0.5 0 0 0 0,0.7070312 0.5,0.5 0 0 0 0.7070312,0 L 3.5,8.2070313 5.1464844,9.8535156 a 0.50005,0.50005 0 0 0 0.7070312,0 L 7.5,8.2070313 9.1464844,9.8535156 a 0.50005,0.50005 0 0 0 0.7070312,0 L 11.5,8.2070313 13.146484,9.8535156 a 0.50005,0.50005 0 0 0 0.707032,0 l 2,-2 a 0.5,0.5 0 0 0 0,-0.7070312 0.5,0.5 0 0 0 -0.707032,0 L 13.5,8.7929688 11.853516,7.1464844 a 0.50005,0.50005 0 0 0 -0.707032,0 L 9.5,8.7929688 7.8535156,7.1464844 a 0.50005,0.50005 0 0 0 -0.7070312,0 L 5.5,8.7929688 3.8535156,7.1464844 a 0.50005,0.50005 0 0 0 -0.7070312,0 z"
     id="path860-3" />
  <path
     style="color:#000000;fill:#241f31;fill-opacity:0.5;stroke-linecap:round;stroke-linejoin:round;-inkscape-stroke:none"
     d="m 3.1464844,12.146484 -2,2 a 0.5,0.5 0 0 0 0,0.707032 0.5,0.5 0 0 0 0.7070312,0 L 3.5,13.207031 5.1464844,14.853516 a 0.50005,0.50005 0 0 0 0.7070312,0 L 7.5,13.207031 9.1464844,14.853516 a 0.50005,0.50005 0 0 0 0.7070312,0 L 11.5,13.207031 l 1.646484,1.646485 a 0.50005,0.50005 0 0 0 0.707032,0 l 2,-2 a 0.5,0.5 0 0 0 0,-0.707032 0.5,0.5 0 0 0 -0.707032,0 L 13.5,13.792969 11.853516,12.146484 a 0.50005,0.50005 0 0 0 -0.707032,0 L 9.5,13.792969 7.8535156,12.146484 a 0.50005,0.50005 0 0 0 -0.7070312,0 L 5.5,13.792969 3.8535156,12.146484 a 0.50005,0.50005 0 0 0 -0.7070312,0 z"
     id="path860-3-6" />
</svg>
