<?xml version="1.0" encoding="UTF-8" standalone="no"?>
<svg
   height="16px"
   viewBox="0 0 16 16"
   width="16px"
   version="1.1"
   id="svg4"
   xmlns="http://www.w3.org/2000/svg"
   xmlns:svg="http://www.w3.org/2000/svg">
  <defs
     id="defs8" />
  <path
     style="color:#000000;fill:#241f31;stroke-linecap:round;stroke-linejoin:round;-inkscape-stroke:none"
     d="M 3.609375,4.0117187 A 0.5,0.5 0 0 0 3.0117188,4.390625 l -2.0000001,9 a 0.5,0.5 0 0 0 0.3789063,0.597656 0.5,0.5 0 0 0 0.5976562,-0.378906 l 2.0000001,-9 A 0.5,0.5 0 0 0 3.609375,4.0117187 Z"
     id="path1131" />
  <path
     style="color:#000000;fill:#241f31;stroke-linecap:round;stroke-linejoin:round;-inkscape-stroke:none"
     d="M 6.609375,4.0117183 A 0.5,0.5 0 0 0 6.0117188,4.3906246 L 4.0117187,13.390625 A 0.5,0.5 0 0 0 4.390625,13.988281 0.5,0.5 0 0 0 4.9882812,13.609375 L 6.9882813,4.6093746 A 0.5,0.5 0 0 0 6.609375,4.0117183 Z"
     id="path1131-3" />
  <path
     style="color:#000000;fill:#241f31;stroke-linecap:round;stroke-linejoin:round;-inkscape-stroke:none"
     d="M 9.609375,4.0117179 A 0.5,0.5 0 0 0 9.011719,4.3906242 L 7.0117187,13.390625 A 0.5,0.5 0 0 0 7.390625,13.988281 0.5,0.5 0 0 0 7.9882812,13.609375 L 9.988281,4.6093742 A 0.5,0.5 0 0 0 9.609375,4.0117179 Z"
     id="path1131-3-6" />
  <path
     style="color:#000000;fill:#241f31;stroke-linecap:round;stroke-linejoin:round;-inkscape-stroke:none"
     d="m 12.609375,4.0117175 a 0.5,0.5 0 0 0 -0.597656,0.3789063 l -2,9.0000012 a 0.5,0.5 0 0 0 0.378906,0.597656 0.5,0.5 0 0 0 0.597656,-0.378906 l 2,-9.0000012 A 0.5,0.5 0 0 0 12.609375,4.0117175 Z"
     id="path1131-3-6-7" />
</svg>
