<svg xmlns="http://www.w3.org/2000/svg" xmlns:svg="http://www.w3.org/2000/svg" id="svg4" width="16" height="16" version="1.1" viewBox="0 0 16 16"><path style="color:#000;fill:#241f31;stroke-width:.999993;stroke-linecap:round;stroke-linejoin:round;-inkscape-stroke:none" id="path926" d="M 10.005283,7 C 7.7827219,7 6,9.0336389 6,11.5 c 0,1.144471 0.4881703,2.197044 1.1732649,2.997071 0.6850945,0.800026 1.5690336,1.36286 2.4483708,1.498535 a 0.35717698,0.3750375 0 0 0 0.051618,0.0044 h 0.3320293 3.316114 0.33203 a 0.35717698,0.3750375 0 0 0 0.153459,-0.03662 c 1.149105,-0.575241 2.155321,-1.48061 2.19307,-2.733397 a 0.35717698,0.3750375 0 0 0 0,-0.01172 C 15.998528,11.919794 15.08606,10.892675 13.897566,10.599127 13.51728,8.5364732 11.91761,7.0029972 10.005283,7 Z m -0.0014,0.75 h 0.0014 c 1.598855,0.00327 2.977634,1.3145262 3.242174,3.13916 a 0.35717698,0.3750375 0 0 0 0.309708,0.316406 c 0.987946,0.123757 1.720578,0.983295 1.725718,2.006836 -0.02791,0.80868 -0.736435,1.524514 -1.732693,2.037598 H 13.321397 10.005283 9.7137111 C 9.0582395,15.145128 8.2904018,14.679947 7.7047916,13.996094 7.1160097,13.308537 6.7142825,12.418027 6.7142825,11.5 c 0,-2.0894383 1.483405,-3.7491342 3.2896065,-3.75 z"/><path id="path2" style="color:#000;fill:#241f31;stroke-linecap:round;stroke-linejoin:round;-inkscape-stroke:none" d="m 8.1699219,0.90039062 c -0.045537,-0.004966 -0.09154,-0.003652 -0.1367188,0.003906 C 4.6689696,1.4736758 2.0859375,4.3691919 2.0859375,7.8476562 2.0859375,10.581357 2.6838013,12.956601 5,14.125 V 12.986328 C 3.2524554,11.917221 3.0859375,10.012533 3.0859375,7.8476562 c 0,-2.7035715 1.8588381,-4.9181644 4.3574219,-5.6894531 -0.2948973,0.8622152 -0.609375,1.7241695 -0.609375,2.6816407 0,0.3945659 0.028857,0.7812735 0.082031,1.1601562 H 7.9257812 C 7.8670465,5.6212277 7.8339844,5.2343407 7.8339844,4.8398438 c 0,-1.1504594 0.2683034,-2.23953 0.7363281,-3.2304688 C 8.7157089,1.2982579 8.5114298,0.93653427 8.1699219,0.90039062 Z"/></svg>