<?xml version="1.0" encoding="UTF-8" standalone="no"?>
<svg
   height="16px"
   viewBox="0 0 16 16"
   width="16px"
   version="1.1"
   id="svg4"
   xmlns="http://www.w3.org/2000/svg"
   xmlns:svg="http://www.w3.org/2000/svg">
  <defs
     id="defs8" />
  <path
     style="color:#000000;fill:#241f31;stroke-linecap:round;stroke-linejoin:round;-inkscape-stroke:none"
     d="M 6.5,3 A 0.50005,0.50005 0 0 0 6.0839844,3.2226563 l -4,6 A 0.50005,0.50005 0 0 0 2.5,10 h 3.6621094 l 1.8730469,4.685547 a 0.50005,0.50005 0 0 0 0.8496093,0.134766 L 13.884766,8.8203125 A 0.50005,0.50005 0 0 0 13.5,8 H 9.7070313 L 13.853516,3.8535156 A 0.50005,0.50005 0 0 0 13.5,3 Z M 6.7675781,4 H 12.292969 L 8.1464844,8.1464844 A 0.50005,0.50005 0 0 0 8.5,9 h 3.931641 L 8.6523438,13.535156 6.9648437,9.3144531 A 0.50005,0.50005 0 0 0 6.5,9 H 3.4335938 Z"
     id="path1150" />
</svg>
