<svg width="128" height="128" viewBox="0 0 128 128" fill="none" xmlns="http://www.w3.org/2000/svg">
<rect x="28" y="9" width="71" height="98" rx="12" fill="#D9D9D9"/>
<rect x="28.5" y="19.5" width="70" height="87" rx="11.5" fill="url(#paint0_linear_3_20)" stroke="#BEBD9B"/>
<rect x="28.5" y="9.5" width="70" height="91" rx="11.5" fill="url(#paint1_linear_3_20)" stroke="url(#paint2_linear_3_20)"/>
<rect x="47" y="43" width="25" height="36" rx="6" fill="black" fill-opacity="0.14"/>
<g filter="url(#filter0_ii_3_20)">
<rect x="47" y="41" width="25" height="36" rx="6" fill="#2E2E2E"/>
</g>
<rect x="72" y="19" width="19" height="24" rx="6" fill="black" fill-opacity="0.14"/>
<g filter="url(#filter1_ii_3_20)">
<rect x="72" y="17" width="19" height="24" rx="6" fill="#2E2E2E"/>
</g>
<rect x="56" y="81" width="4" height="17" fill="#CCCCCC" fill-opacity="0.17"/>
<rect x="37" y="49" width="4" height="36" fill="#CCCCCC" fill-opacity="0.17"/>
<rect x="81" y="47" width="4" height="16" fill="#CCCCCC" fill-opacity="0.17"/>
<rect x="77" y="63" width="8" height="4" fill="#CCCCCC" fill-opacity="0.17"/>
<rect x="41" y="81" width="15" height="4" fill="#CCCCCC" fill-opacity="0.17"/>
<rect x="68" y="81" width="4" height="17" fill="#CCCCCC" fill-opacity="0.17"/>
<rect x="37" y="104" width="34" height="14" rx="4" fill="black" fill-opacity="0.25"/>
<path d="M37 102H71V112C71 114.209 69.2091 116 67 116H41C38.7909 116 37 114.209 37 112V102Z" fill="#897E5A"/>
<rect x="75" y="104" width="16" height="14" rx="4" fill="black" fill-opacity="0.25"/>
<path d="M75 102H91V112C91 114.209 89.2091 116 87 116H79C76.7909 116 75 114.209 75 112V102Z" fill="#897E5A"/>
<rect x="40" y="104" width="4" height="12" fill="#CCCCCC" fill-opacity="0.17"/>
<rect x="48" y="104" width="4" height="12" fill="#CCCCCC" fill-opacity="0.17"/>
<rect x="56" y="104" width="4" height="12" fill="#CCCCCC" fill-opacity="0.17"/>
<rect x="64" y="104" width="4" height="12" fill="#CCCCCC" fill-opacity="0.17"/>
<rect x="77" y="104" width="4" height="12" fill="#CCCCCC" fill-opacity="0.17"/>
<rect x="85" y="104" width="4" height="12" fill="#CCCCCC" fill-opacity="0.17"/>
<defs>
<filter id="filter0_ii_3_20" x="47" y="40" width="25" height="38" filterUnits="userSpaceOnUse" color-interpolation-filters="sRGB">
<feFlood flood-opacity="0" result="BackgroundImageFix"/>
<feBlend mode="normal" in="SourceGraphic" in2="BackgroundImageFix" result="shape"/>
<feColorMatrix in="SourceAlpha" type="matrix" values="0 0 0 0 0 0 0 0 0 0 0 0 0 0 0 0 0 0 127 0" result="hardAlpha"/>
<feOffset dy="2"/>
<feGaussianBlur stdDeviation="0.5"/>
<feComposite in2="hardAlpha" operator="arithmetic" k2="-1" k3="1"/>
<feColorMatrix type="matrix" values="0 0 0 0 1 0 0 0 0 1 0 0 0 0 1 0 0 0 0.3 0"/>
<feBlend mode="normal" in2="shape" result="effect1_innerShadow_3_20"/>
<feColorMatrix in="SourceAlpha" type="matrix" values="0 0 0 0 0 0 0 0 0 0 0 0 0 0 0 0 0 0 127 0" result="hardAlpha"/>
<feOffset dy="-2"/>
<feGaussianBlur stdDeviation="0.5"/>
<feComposite in2="hardAlpha" operator="arithmetic" k2="-1" k3="1"/>
<feColorMatrix type="matrix" values="0 0 0 0 0 0 0 0 0 0 0 0 0 0 0 0 0 0 0.5 0"/>
<feBlend mode="normal" in2="effect1_innerShadow_3_20" result="effect2_innerShadow_3_20"/>
</filter>
<filter id="filter1_ii_3_20" x="72" y="16" width="19" height="26" filterUnits="userSpaceOnUse" color-interpolation-filters="sRGB">
<feFlood flood-opacity="0" result="BackgroundImageFix"/>
<feBlend mode="normal" in="SourceGraphic" in2="BackgroundImageFix" result="shape"/>
<feColorMatrix in="SourceAlpha" type="matrix" values="0 0 0 0 0 0 0 0 0 0 0 0 0 0 0 0 0 0 127 0" result="hardAlpha"/>
<feOffset dy="2"/>
<feGaussianBlur stdDeviation="0.5"/>
<feComposite in2="hardAlpha" operator="arithmetic" k2="-1" k3="1"/>
<feColorMatrix type="matrix" values="0 0 0 0 1 0 0 0 0 1 0 0 0 0 1 0 0 0 0.3 0"/>
<feBlend mode="normal" in2="shape" result="effect1_innerShadow_3_20"/>
<feColorMatrix in="SourceAlpha" type="matrix" values="0 0 0 0 0 0 0 0 0 0 0 0 0 0 0 0 0 0 127 0" result="hardAlpha"/>
<feOffset dy="-2"/>
<feGaussianBlur stdDeviation="0.5"/>
<feComposite in2="hardAlpha" operator="arithmetic" k2="-1" k3="1"/>
<feColorMatrix type="matrix" values="0 0 0 0 0 0 0 0 0 0 0 0 0 0 0 0 0 0 0.5 0"/>
<feBlend mode="normal" in2="effect1_innerShadow_3_20" result="effect2_innerShadow_3_20"/>
</filter>
<linearGradient id="paint0_linear_3_20" x1="28" y1="107" x2="99" y2="107" gradientUnits="userSpaceOnUse">
<stop stop-color="#929974"/>
<stop offset="0.13" stop-color="#BEBD9B"/>
<stop offset="0.25" stop-color="#929974"/>
<stop offset="0.74" stop-color="#929974"/>
<stop offset="0.87" stop-color="#BEBD9B"/>
<stop offset="1" stop-color="#929974"/>
</linearGradient>
<linearGradient id="paint1_linear_3_20" x1="63.5" y1="9" x2="63.5" y2="101" gradientUnits="userSpaceOnUse">
<stop stop-color="#4E4E4E"/>
<stop offset="1" stop-color="#262626"/>
</linearGradient>
<linearGradient id="paint2_linear_3_20" x1="62.9365" y1="9" x2="62.9365" y2="102.6" gradientUnits="userSpaceOnUse">
<stop stop-color="#AAAAAA"/>
<stop offset="0.26" stop-color="#666666"/>
<stop offset="0.73" stop-color="#666666"/>
<stop offset="1" stop-color="#AAAAAA"/>
</linearGradient>
</defs>
</svg>
