<svg xmlns="http://www.w3.org/2000/svg" xmlns:svg="http://www.w3.org/2000/svg" id="svg3486" width="128" height="128" version="1.0"><metadata id="metadata83"/><rect style="opacity:1;fill:#cdcdd4;fill-opacity:1;stroke:none;stroke-width:1;stroke-linecap:round;stroke-linejoin:round;stroke-opacity:1;stop-color:#000" id="rect5984" width="102" height="25" x="13" y="90" rx="6" ry="6"/><rect style="opacity:1;fill:#f0f0f2;fill-opacity:1;stroke:none;stroke-width:.999999;stroke-linecap:round;stroke-linejoin:round;stroke-opacity:1;stop-color:#000" id="rect6798" width="101.969" height="90" x="13.031" y="10" rx="6" ry="6"/><path style="vector-effect:none;fill:#2d2d2d;fill-opacity:1;fill-rule:nonzero;stroke:none;stroke-width:.999997;stroke-linecap:butt;stroke-linejoin:miter;stroke-miterlimit:4;stroke-dasharray:none;stroke-opacity:.598837;paint-order:normal" id="rect917" d="m 21,112 h 63.999999 v -8 H 21 Z"/><path style="fill:#febc16;fill-opacity:1;stroke:none;stroke-width:1px;stroke-linecap:butt;stroke-linejoin:miter;stroke-opacity:1" id="path928" d="m 22,104 v 5 h 2 v -5 z"/><path style="fill:#febc16;fill-opacity:1;stroke:none;stroke-width:1px;stroke-linecap:butt;stroke-linejoin:miter;stroke-opacity:1" id="path928-3" d="m 26,104 v 5 h 2 v -5 z"/><path style="fill:#febc16;fill-opacity:1;stroke:none;stroke-width:1px;stroke-linecap:butt;stroke-linejoin:miter;stroke-opacity:1" id="path928-6" d="m 30,104 v 5 h 2 v -5 z"/><path style="fill:#febc16;fill-opacity:1;stroke:none;stroke-width:1px;stroke-linecap:butt;stroke-linejoin:miter;stroke-opacity:1" id="path928-7" d="m 34,104 v 5 h 2 v -5 z"/><path style="fill:#febc16;fill-opacity:1;stroke:none;stroke-width:1px;stroke-linecap:butt;stroke-linejoin:miter;stroke-opacity:1" id="path928-5" d="m 38,104 v 5 h 2 v -5 z"/><path style="fill:#febc16;fill-opacity:1;stroke:none;stroke-width:1px;stroke-linecap:butt;stroke-linejoin:miter;stroke-opacity:1" id="path928-35" d="m 42,104 v 5 h 2 v -5 z"/><path style="fill:#febc16;fill-opacity:1;stroke:none;stroke-width:1px;stroke-linecap:butt;stroke-linejoin:miter;stroke-opacity:1" id="path928-62" d="m 46,104 v 5 h 2 v -5 z"/><path style="fill:#febc16;fill-opacity:1;stroke:none;stroke-width:1px;stroke-linecap:butt;stroke-linejoin:miter;stroke-opacity:1" id="path928-9" d="m 50,104 v 5 h 2 v -5 z"/><path style="fill:#febc16;fill-opacity:1;stroke:none;stroke-width:1px;stroke-linecap:butt;stroke-linejoin:miter;stroke-opacity:1" id="path928-1" d="m 54,104 v 5 h 2 v -5 z"/><path style="fill:#febc16;fill-opacity:1;stroke:none;stroke-width:1px;stroke-linecap:butt;stroke-linejoin:miter;stroke-opacity:1" id="path928-2" d="m 58,104 v 5 h 2 v -5 z"/><path style="fill:#febc16;fill-opacity:1;stroke:none;stroke-width:1px;stroke-linecap:butt;stroke-linejoin:miter;stroke-opacity:1" id="path928-70" d="m 62,104 v 5 h 2 v -5 z"/><path style="fill:#febc16;fill-opacity:1;stroke:none;stroke-width:1px;stroke-linecap:butt;stroke-linejoin:miter;stroke-opacity:1" id="path928-93" d="m 66,104 v 5 h 2 v -5 z"/><path style="fill:#febc16;fill-opacity:1;stroke:none;stroke-width:1px;stroke-linecap:butt;stroke-linejoin:miter;stroke-opacity:1" id="path928-60" d="m 70,104 v 5 h 2 v -5 z"/><path style="fill:#febc16;fill-opacity:1;stroke:none;stroke-width:1px;stroke-linecap:butt;stroke-linejoin:miter;stroke-opacity:1" id="path928-626" d="m 74,104 v 5 h 2 v -5 z"/><path style="fill:#febc16;fill-opacity:1;stroke:none;stroke-width:1px;stroke-linecap:butt;stroke-linejoin:miter;stroke-opacity:1" id="path928-18" d="m 78,104 v 5 h 2 v -5 z"/><path style="fill:#febc16;fill-opacity:1;stroke:none;stroke-width:1px;stroke-linecap:butt;stroke-linejoin:miter;stroke-opacity:1" id="path928-79" d="m 82,104 v 5 h 2 v -5 z"/><path style="fill:#49d05e;fill-opacity:1;stroke:none;stroke-width:1px;stroke-linecap:butt;stroke-linejoin:miter;stroke-opacity:.544444" id="path915-6" d="m 105,105 v 5 h -5 v -5 z"/><path style="fill:#db2860;fill-opacity:1;stroke:none;stroke-width:1px;stroke-linecap:butt;stroke-linejoin:miter;stroke-opacity:.544444" id="path915-6-2" d="m 95,105 v 5 h -5 v -5 z"/><circle style="opacity:1;fill:#a5a5a5;fill-opacity:1;stroke:none;stroke-linecap:round;stroke-linejoin:round;stroke-opacity:1;stop-color:#000" id="path7160" cx="22.5" cy="87.5" r="2.5"/><circle style="opacity:1;fill:#a5a5a5;fill-opacity:1;stroke:none;stroke-linecap:round;stroke-linejoin:round;stroke-opacity:1;stop-color:#000" id="path7184" cx="107.5" cy="87.5" r="2.5"/><circle style="opacity:1;fill:#a5a5a5;fill-opacity:1;stroke:none;stroke-linecap:round;stroke-linejoin:round;stroke-opacity:1;stop-color:#000" id="path7186" cx="107.5" cy="17.5" r="2.5"/><circle style="opacity:1;fill:#a5a5a5;fill-opacity:1;stroke:none;stroke-linecap:round;stroke-linejoin:round;stroke-opacity:1;stop-color:#000" id="path7188" cx="22.5" cy="17.5" r="2.5"/></svg>