<svg xmlns="http://www.w3.org/2000/svg" width="128" height="128" fill="none" viewBox="0 0 128 128"><rect width="71" height="98" x="28" y="9" fill="#D9D9D9" rx="12"/><rect width="70" height="87" x="28.5" y="19.5" fill="url(#paint0_linear_3_20)" stroke="#BEBD9B" rx="11.5"/><rect width="70" height="91" x="28.5" y="9.5" fill="url(#paint1_linear_3_20)" stroke="url(#paint2_linear_3_20)" rx="11.5"/><rect width="25" height="36" x="47" y="43" fill="#000" fill-opacity=".14" rx="6"/><g filter="url(#filter0_ii_3_20)"><rect width="25" height="36" x="47" y="41" fill="#2E2E2E" rx="6"/></g><rect width="19" height="24" x="72" y="19" fill="#000" fill-opacity=".14" rx="6"/><g filter="url(#filter1_ii_3_20)"><rect width="19" height="24" x="72" y="17" fill="#2E2E2E" rx="6"/></g><rect width="4" height="17" x="56" y="81" fill="#CCC" fill-opacity=".17"/><rect width="4" height="36" x="37" y="49" fill="#CCC" fill-opacity=".17"/><rect width="4" height="16" x="81" y="47" fill="#CCC" fill-opacity=".17"/><rect width="8" height="4" x="77" y="63" fill="#CCC" fill-opacity=".17"/><rect width="15" height="4" x="41" y="81" fill="#CCC" fill-opacity=".17"/><rect width="4" height="17" x="68" y="81" fill="#CCC" fill-opacity=".17"/><rect width="34" height="14" x="37" y="104" fill="#000" fill-opacity=".25" rx="4"/><path fill="#897E5A" d="M37 102H71V112C71 114.209 69.2091 116 67 116H41C38.7909 116 37 114.209 37 112V102Z"/><rect width="16" height="14" x="75" y="104" fill="#000" fill-opacity=".25" rx="4"/><path fill="#897E5A" d="M75 102H91V112C91 114.209 89.2091 116 87 116H79C76.7909 116 75 114.209 75 112V102Z"/><rect width="4" height="12" x="40" y="104" fill="#CCC" fill-opacity=".17"/><rect width="4" height="12" x="48" y="104" fill="#CCC" fill-opacity=".17"/><rect width="4" height="12" x="56" y="104" fill="#CCC" fill-opacity=".17"/><rect width="4" height="12" x="64" y="104" fill="#CCC" fill-opacity=".17"/><rect width="4" height="12" x="77" y="104" fill="#CCC" fill-opacity=".17"/><rect width="4" height="12" x="85" y="104" fill="#CCC" fill-opacity=".17"/><defs><filter id="filter0_ii_3_20" width="25" height="38" x="47" y="40" color-interpolation-filters="sRGB" filterUnits="userSpaceOnUse"><feFlood flood-opacity="0" result="BackgroundImageFix"/><feBlend in="SourceGraphic" in2="BackgroundImageFix" mode="normal" result="shape"/><feColorMatrix in="SourceAlpha" result="hardAlpha" type="matrix" values="0 0 0 0 0 0 0 0 0 0 0 0 0 0 0 0 0 0 127 0"/><feOffset dy="2"/><feGaussianBlur stdDeviation=".5"/><feComposite in2="hardAlpha" k2="-1" k3="1" operator="arithmetic"/><feColorMatrix type="matrix" values="0 0 0 0 1 0 0 0 0 1 0 0 0 0 1 0 0 0 0.3 0"/><feBlend in2="shape" mode="normal" result="effect1_innerShadow_3_20"/><feColorMatrix in="SourceAlpha" result="hardAlpha" type="matrix" values="0 0 0 0 0 0 0 0 0 0 0 0 0 0 0 0 0 0 127 0"/><feOffset dy="-2"/><feGaussianBlur stdDeviation=".5"/><feComposite in2="hardAlpha" k2="-1" k3="1" operator="arithmetic"/><feColorMatrix type="matrix" values="0 0 0 0 0 0 0 0 0 0 0 0 0 0 0 0 0 0 0.5 0"/><feBlend in2="effect1_innerShadow_3_20" mode="normal" result="effect2_innerShadow_3_20"/></filter><filter id="filter1_ii_3_20" width="19" height="26" x="72" y="16" color-interpolation-filters="sRGB" filterUnits="userSpaceOnUse"><feFlood flood-opacity="0" result="BackgroundImageFix"/><feBlend in="SourceGraphic" in2="BackgroundImageFix" mode="normal" result="shape"/><feColorMatrix in="SourceAlpha" result="hardAlpha" type="matrix" values="0 0 0 0 0 0 0 0 0 0 0 0 0 0 0 0 0 0 127 0"/><feOffset dy="2"/><feGaussianBlur stdDeviation=".5"/><feComposite in2="hardAlpha" k2="-1" k3="1" operator="arithmetic"/><feColorMatrix type="matrix" values="0 0 0 0 1 0 0 0 0 1 0 0 0 0 1 0 0 0 0.3 0"/><feBlend in2="shape" mode="normal" result="effect1_innerShadow_3_20"/><feColorMatrix in="SourceAlpha" result="hardAlpha" type="matrix" values="0 0 0 0 0 0 0 0 0 0 0 0 0 0 0 0 0 0 127 0"/><feOffset dy="-2"/><feGaussianBlur stdDeviation=".5"/><feComposite in2="hardAlpha" k2="-1" k3="1" operator="arithmetic"/><feColorMatrix type="matrix" values="0 0 0 0 0 0 0 0 0 0 0 0 0 0 0 0 0 0 0.5 0"/><feBlend in2="effect1_innerShadow_3_20" mode="normal" result="effect2_innerShadow_3_20"/></filter><linearGradient id="paint0_linear_3_20" x1="28" x2="99" y1="107" y2="107" gradientUnits="userSpaceOnUse"><stop stop-color="#929974"/><stop offset=".13" stop-color="#BEBD9B"/><stop offset=".25" stop-color="#929974"/><stop offset=".74" stop-color="#929974"/><stop offset=".87" stop-color="#BEBD9B"/><stop offset="1" stop-color="#929974"/></linearGradient><linearGradient id="paint1_linear_3_20" x1="63.5" x2="63.5" y1="9" y2="101" gradientUnits="userSpaceOnUse"><stop stop-color="#4E4E4E"/><stop offset="1" stop-color="#262626"/></linearGradient><linearGradient id="paint2_linear_3_20" x1="62.937" x2="62.937" y1="9" y2="102.6" gradientUnits="userSpaceOnUse"><stop stop-color="#AAA"/><stop offset=".26" stop-color="#666"/><stop offset=".73" stop-color="#666"/><stop offset="1" stop-color="#AAA"/></linearGradient></defs></svg>