<svg xmlns="http://www.w3.org/2000/svg" xmlns:svg="http://www.w3.org/2000/svg" id="svg3486" width="128" height="128" version="1.0"><metadata id="metadata83"/><rect style="opacity:1;fill:#2fb744;fill-opacity:1;stroke:none;stroke-width:.999996;stroke-linecap:round;stroke-linejoin:round;stroke-opacity:1;stop-color:#000" id="rect6798" width="77" height="104" x="25.5" y="12" rx="6" ry="6"/><rect style="fill:#49d05e;fill-opacity:1;stroke:none;stroke-width:.999996;stroke-linecap:round;stroke-linejoin:round;stroke-opacity:1;stop-color:#000" id="rect6798-3" width="77" height="100" x="25.5" y="12" rx="6" ry="6"/><path style="vector-effect:none;fill:#2d2d2d;fill-opacity:1;fill-rule:nonzero;stroke:none;stroke-width:.999996;stroke-linecap:butt;stroke-linejoin:miter;stroke-miterlimit:4;stroke-dasharray:none;stroke-opacity:.598837;paint-order:normal" id="rect917" d="m 32,116 h 63.999999 v -4 H 32 Z"/><path style="fill:#febc16;fill-opacity:1;stroke:none;stroke-width:1px;stroke-linecap:butt;stroke-linejoin:miter;stroke-opacity:1" id="path928" d="m 33,110 v 5 h 2 v -5 z"/><path style="fill:#febc16;fill-opacity:1;stroke:none;stroke-width:1px;stroke-linecap:butt;stroke-linejoin:miter;stroke-opacity:1" id="path928-3" d="m 37,110 v 5 h 2 v -5 z"/><path style="fill:#febc16;fill-opacity:1;stroke:none;stroke-width:1px;stroke-linecap:butt;stroke-linejoin:miter;stroke-opacity:1" id="path928-6" d="m 41,110 v 5 h 2 v -5 z"/><path style="fill:#febc16;fill-opacity:1;stroke:none;stroke-width:1px;stroke-linecap:butt;stroke-linejoin:miter;stroke-opacity:1" id="path928-7" d="m 45,110 v 5 h 2 v -5 z"/><path style="fill:#febc16;fill-opacity:1;stroke:none;stroke-width:1px;stroke-linecap:butt;stroke-linejoin:miter;stroke-opacity:1" id="path928-5" d="m 49,110 v 5 h 2 v -5 z"/><path style="fill:#febc16;fill-opacity:1;stroke:none;stroke-width:1px;stroke-linecap:butt;stroke-linejoin:miter;stroke-opacity:1" id="path928-35" d="m 53,110 v 5 h 2 v -5 z"/><path style="fill:#febc16;fill-opacity:1;stroke:none;stroke-width:1px;stroke-linecap:butt;stroke-linejoin:miter;stroke-opacity:1" id="path928-62" d="m 57,110 v 5 h 2 v -5 z"/><path style="fill:#febc16;fill-opacity:1;stroke:none;stroke-width:1px;stroke-linecap:butt;stroke-linejoin:miter;stroke-opacity:1" id="path928-9" d="m 61,110 v 5 h 2 v -5 z"/><path style="fill:#febc16;fill-opacity:1;stroke:none;stroke-width:1px;stroke-linecap:butt;stroke-linejoin:miter;stroke-opacity:1" id="path928-1" d="m 65,110 v 5 h 2 v -5 z"/><path style="fill:#febc16;fill-opacity:1;stroke:none;stroke-width:1px;stroke-linecap:butt;stroke-linejoin:miter;stroke-opacity:1" id="path928-2" d="m 69,110 v 5 h 2 v -5 z"/><path style="fill:#febc16;fill-opacity:1;stroke:none;stroke-width:1px;stroke-linecap:butt;stroke-linejoin:miter;stroke-opacity:1" id="path928-70" d="m 73,110 v 5 h 2 v -5 z"/><path style="fill:#febc16;fill-opacity:1;stroke:none;stroke-width:1px;stroke-linecap:butt;stroke-linejoin:miter;stroke-opacity:1" id="path928-93" d="m 77,110 v 5 h 2 v -5 z"/><path style="fill:#febc16;fill-opacity:1;stroke:none;stroke-width:1px;stroke-linecap:butt;stroke-linejoin:miter;stroke-opacity:1" id="path928-60" d="m 81,110 v 5 h 2 v -5 z"/><path style="fill:#febc16;fill-opacity:1;stroke:none;stroke-width:1px;stroke-linecap:butt;stroke-linejoin:miter;stroke-opacity:1" id="path928-626" d="m 85,110 v 5 h 2 v -5 z"/><path style="fill:#febc16;fill-opacity:1;stroke:none;stroke-width:1px;stroke-linecap:butt;stroke-linejoin:miter;stroke-opacity:1" id="path928-18" d="m 89,110 v 5 h 2 v -5 z"/><path style="fill:#febc16;fill-opacity:1;stroke:none;stroke-width:1px;stroke-linecap:butt;stroke-linejoin:miter;stroke-opacity:1" id="path928-79" d="m 93,110 v 5 h 2 v -5 z"/><rect style="fill:#828292;stroke-width:1.001;stroke-linecap:round;stroke-linejoin:round;stop-color:#000" id="rect870-3" width="35" height="45" x="50.5" y="33.5" rx="6" ry="6"/><rect style="fill:#2d2d2d;stroke-width:1.001;stroke-linecap:round;stroke-linejoin:round;stop-color:#000" id="rect870" width="35" height="45" x="50.5" y="29.5" rx="6" ry="6"/><rect style="fill:#2e7a68;stroke-width:10;stroke-linejoin:round;stop-color:#000" id="rect1561" width="5" height="60" x="40" y="25"/><rect style="fill:#2e7a68;stroke-width:10;stroke-linejoin:round;stop-color:#000" id="rect1563" width="30" height="5" x="40" y="80"/><rect style="fill:#2e7a68;stroke-width:10;stroke-linejoin:round;stop-color:#000" id="rect1565" width="5" height="10" x="65" y="75"/><rect style="fill:#2e7a68;stroke-width:10;stroke-linejoin:round;stop-color:#000" id="rect1567" width="5" height="75" x="30" y="25"/><rect style="fill:#2e7a68;stroke-width:10;stroke-linejoin:round;stop-color:#000" id="rect1569" width="65" height="5" x="30" y="95"/><rect style="fill:#2e7a68;stroke-width:10;stroke-linejoin:round;stop-color:#000" id="rect1571" width="5" height="15" x="50" y="95"/><rect style="fill:#2e7a68;stroke-width:10;stroke-linejoin:round;stop-color:#000" id="rect1573" width="5" height="15" x="75" y="95"/><rect style="fill:#2e7a68;stroke-width:10;stroke-linejoin:round;stop-color:#000" id="rect1989" width="10" height="5" x="35" y="25"/></svg>