<svg xmlns="http://www.w3.org/2000/svg" xmlns:svg="http://www.w3.org/2000/svg" xmlns:xlink="http://www.w3.org/1999/xlink" id="svg37" width="128" height="128" version="1.1" viewBox="0 0 128 128"><defs id="defs41"><linearGradient id="linearGradient3979"><stop style="stop-color:#bebec7;stop-opacity:1" id="stop3975" offset="0"/><stop style="stop-color:#db2860;stop-opacity:1" id="stop4437" offset=".221"/><stop style="stop-color:#f7812b;stop-opacity:.60730749" id="stop4371" offset=".456"/><stop style="stop-color:#febc16;stop-opacity:.36662364" id="stop4369" offset=".651"/><stop style="stop-color:#49d05e;stop-opacity:.22300763" id="stop4367" offset=".863"/><stop style="stop-color:#268ef9;stop-opacity:.18217181" id="stop3977" offset="1"/></linearGradient><linearGradient id="linearGradient3981" x1="79.918" x2="99.101" y1="41.801" y2="18.771" gradientTransform="matrix(1.0842766,0,0,1.124592,-6.7352538,-5.2080799)" gradientUnits="userSpaceOnUse" xlink:href="#linearGradient3979"/></defs><filter id="a" width="1" height="1" x="0" y="0"><feColorMatrix id="feColorMatrix2" in="SourceGraphic" type="matrix" values="0 0 0 0 1 0 0 0 0 1 0 0 0 0 1 0 0 0 1 0"/></filter><mask id="b"><g id="g7" filter="url(#a)"><rect id="rect5" width="128" height="128" fill-opacity=".2"/></g></mask><clipPath id="c"><rect id="rect10" width="192" height="152"/></clipPath><path id="path17-3" style="fill:#cdcdd4" d="M 64,6 C 30.863281,6 4,32.414062 4,65 4,97.585938 30.863281,124 64,124 97.136719,124 124,97.585938 124,65 124,32.414062 97.136719,6 64,6 Z m 0,44 c 8.843744,0 16,7.156248 16,16 0,8.843752 -7.156256,16 -16,16 -8.812504,0 -16,-7.156248 -16,-16 0,-8.843752 7.187496,-16 16,-16 z"/><path id="path17" style="fill:#e3e3e7" d="M 64 2 C 30.863281 2 4 28.414062 4 61 C 4 93.585938 30.863281 120 64 120 C 97.136719 120 124 93.585938 124 61 C 124 28.414062 97.136719 2 64 2 z M 64 46 C 72.843744 46 80 53.156248 80 62 C 80 70.843752 72.843744 78 64 78 C 55.187496 78 48 70.843752 48 62 C 48 53.156248 55.187496 46 64 46 z"/><path id="path31" style="fill:#ababb6;stroke-width:.999997" d="M 63.521484 38.003906 C 60.404583 38.063222 57.247532 38.734604 54.220703 40.082031 C 42.129009 45.487363 36.692322 59.671982 42.082031 71.779297 C 47.487363 83.870965 61.671979 89.307679 73.779297 83.917969 C 85.870959 78.512631 91.307679 64.328018 85.917969 52.220703 C 81.86397 43.151933 72.872189 37.825959 63.521484 38.003906 z M 64 46 C 72.843744 46 80 53.156248 80 62 C 80 70.843752 72.843744 78 64 78 C 55.187496 78 48 70.843752 48 62 C 48 53.156248 55.187496 46 64 46 z"/><path style="fill:url(#linearGradient3981);fill-opacity:1;stroke:none;stroke-width:1px;stroke-linecap:butt;stroke-linejoin:miter;stroke-opacity:1" id="path1606" d="M 79.918446,41.801066 91.215748,8.709603 c 0,0 0,0 10.584232,6.347479 8.27243,9.001659 8.27243,9.001659 8.27243,9.001659 z"/></svg>