<svg xmlns="http://www.w3.org/2000/svg" xmlns:svg="http://www.w3.org/2000/svg" id="svg12" width="16" height="16" fill="none" version="1.1" viewBox="0 0 16 16"><path id="path307" fill="#000" fill-opacity=".25" d="M7 14L7 2.5C5 2 3 3.21652 3 4V8.59114V14L7 14Z"/><path style="color:#000;fill:#000;stroke-linejoin:round;-inkscape-stroke:none" id="path6" d="M 4.875,1.8320312 C 3.9762001,1.8984478 3.1536018,2.3682301 2.5839844,3.2226563 2.1831548,3.8238941 2.0668118,4.5885028 2.0175781,5.5136719 1.9683445,6.4388409 2,7.5419611 2,8.8398438 V 14 H 3 V 8.8398438 C 3,7.526619 2.9718569,6.4255729 3.0175781,5.5664062 3.0632994,4.7072396 3.1966658,4.1063649 3.4160156,3.7773438 3.8463972,3.1317714 4.3233502,2.8763265 4.9492187,2.8300781 5.5750873,2.7838298 6.3737271,2.9954573 7.2773437,3.4472656 8.7972184,4.2072029 10.279385,4.8335055 11.332031,5.59375 12.384677,6.3539945 13,7.166668 13,8.5 V 14 h 1 V 8.5 C 14,6.833335 13.11532,5.6460039 11.917969,4.78125 10.720617,3.9164961 9.2027786,3.2927956 7.7226562,2.5527344 6.7249548,2.0538837 5.7737999,1.7656147 4.875,1.8320312 Z"/><path id="path8" stroke="#000" stroke-linecap="round" stroke-linejoin="round" d="M8.5 8.5L10 10L11 9L12 10L13.5 8.5"/><path id="rect10" style="fill:#000" d="M 5,8 C 5.554,8 6,8.446 6,9 6,9.554 5.554,10 5,10 4.446,10 4,9.554 4,9 4,8.446 4.446,8 5,8 Z"/></svg>