<svg xmlns="http://www.w3.org/2000/svg" xmlns:svg="http://www.w3.org/2000/svg" id="svg4" width="16" height="16" version="1.1" viewBox="0 0 16 16"><path id="path925" style="color:#000;fill:#241f31;stroke-linecap:round;stroke-linejoin:round;-inkscape-stroke:none" d="m 6,1 v 9.056641 C 5.3637443,9.405732 4.4779728,9 3.5,9 1.5729276,9 0,10.572928 0,12.5 0,14.427072 1.5729276,16 3.5,16 5,16 7,15 7,12.5 V 2 h 8 v 8.056641 C 14.363744,9.405732 13.477973,9 12.5,9 10.572928,9 9,10.572928 9,12.5 9,14.427072 10.572928,16 12.5,16 14.427072,16 16,14.427072 16,12.5 V 1 Z M 3.5,10 C 4.8866328,10 6,11.113367 6,12.5 6,13.886633 4.8866328,15 3.5,15 2.1133672,15 1,13.886633 1,12.5 1,11.113367 2.1133672,10 3.5,10 Z m 9,0 C 13.886633,10 15,11.113367 15,12.5 15,13.886633 13.886633,15 12.5,15 11.113367,15 10,13.886633 10,12.5 10,11.113367 11.113367,10 12.5,10 Z"/></svg>