<svg xmlns="http://www.w3.org/2000/svg" xmlns:svg="http://www.w3.org/2000/svg" id="svg6" width="16" height="16" version="1.1"><path id="path4" fill="#363636" d="M 9.5,1 C 9.223,1 9,1.223 9,1.5 9,1.777 9.223,2 9.5,2 h 3.793 L 9.1953,6.0957 c -0.19587,0.19587 -0.19587,0.51312 0,0.70898 0.19587,0.19586 0.51312,0.19587 0.70898,0 l 4.0957,-4.0977 v 3.793 c 0,0.277 0.223,0.5 0.5,0.5 0.277,0 0.5,-0.223 0.5,-0.5 v -5 c 0,-0.015983 -5.01e-4,-0.031284 -0.002,-0.046875 -1.19e-4,-0.00124 1.29e-4,-0.00267 0,-0.00391 -0.0015,-0.01495 -0.005,-0.030398 -0.0078,-0.044922 -0.0061,-0.031968 -0.01547,-0.062339 -0.02734,-0.091797 -0.0041,-0.01009 -0.009,-0.01955 -0.01367,-0.029297 -0.0024,-0.00503 -0.0033,-0.010688 -0.0059,-0.015625 -0.0011,-0.00205 -0.0028,-0.00383 -0.0039,-0.00586 -0.0068,-0.012592 -0.01364,-0.025205 -0.02148,-0.037109 -10e-4,-0.00152 -0.0029,-0.00239 -0.0039,-0.00391 -0.0018,-0.00272 -0.004,-0.00513 -0.0059,-0.00781 C 14.89154,1.189335 14.87368,1.16674 14.8534,1.146459 14.83312,1.126178 14.81052,1.108327 14.78699,1.091771 14.76477,1.076135 14.74138,1.062653 14.71668,1.050755 c -0.0097,-0.00469 -0.01921,-0.0096 -0.0293,-0.013672 -0.02946,-0.011877 -0.05983,-0.02121 -0.0918,-0.027344 -0.01451,-0.00282 -0.03025,-0.00629 -0.04492,-0.00781 -0.0013,-1.306e-4 -0.0026,1.209e-4 -0.0039,0 -0.01592,-0.00153 -0.0309,-0.00195 -0.04687,-0.00195 h -5 z" style="fill:#241f31"/><path id="path937" style="color:#000;fill:#241f31;stroke-linecap:round;stroke-linejoin:round;-inkscape-stroke:none" d="m 1,9 v 5.5 c 2.76e-5,0.276131 0.2238691,0.499972 0.5,0.5 h 14 c 0.276131,-2.8e-5 0.499972,-0.223869 0.5,-0.5 V 9 h -1 v 5 H 2 V 9 Z"/></svg>