<?xml version="1.0" encoding="UTF-8" standalone="no"?>
<svg
   width="16"
   height="16"
   version="1.1"
   id="svg18"
   xmlns="http://www.w3.org/2000/svg"
   xmlns:svg="http://www.w3.org/2000/svg"
   xmlns:rdf="http://www.w3.org/1999/02/22-rdf-syntax-ns#"
   xmlns:cc="http://creativecommons.org/ns#"
   xmlns:dc="http://purl.org/dc/elements/1.1/">
  <defs
     id="defs22" />
  <metadata
     id="metadata2">
    <rdf:RDF>
      <cc:Work
         rdf:about="">
        <dc:format>image/svg+xml</dc:format>
        <dc:type
           rdf:resource="http://purl.org/dc/dcmitype/StillImage" />
        <dc:title>Gnome Symbolic Icon Theme</dc:title>
      </cc:Work>
    </rdf:RDF>
  </metadata>
  <title
     id="title4">Gnome Symbolic Icon Theme</title>
  <path
     d="m 3,10 c -0.554,0 -1,0.446 -1,1 v 2 c 0,0.554 0.446,1 1,1 h 2 c 0.554,0 1,-0.446 1,-1 V 11 C 6,10.446 5.554,10 5,10 Z m 0,1 h 2 v 2 H 3 Z"
     color="#000000"
     enable-background="new"
     id="path6"
     style="fill:#241f31" />
  <path
     d="M 7,3 C 6.446,3 6,3.446 6,4 V 6 C 6,6.554 6.446,7 7,7 H 9 C 9.554,7 10,6.554 10,6 V 4 C 10,3.446 9.554,3 9,3 Z M 7,4 H 9 V 6 H 7 Z"
     color="#000000"
     enable-background="new"
     id="path12"
     style="fill:#241f31" />
  <path
     d="m 11,10 c -0.554,0 -1,0.446 -1,1 v 2 c 0,0.554 0.446,1 1,1 h 2 c 0.554,0 1,-0.446 1,-1 v -2 c 0,-0.554 -0.446,-1 -1,-1 z m 0,1 h 2 v 2 h -2 z"
     color="#000000"
     enable-background="new"
     id="path14"
     style="fill:#241f31" />
</svg>
