<svg xmlns="http://www.w3.org/2000/svg" xmlns:svg="http://www.w3.org/2000/svg" id="svg4" width="16" height="16" version="1.1"><path id="path2" style="font-variation-settings:normal;fill:#241f31" d="M 8.5097656 0 A 5.5 5.042 0 0 0 4.9648438 1.1796875 A 5.5 5.042 0 0 0 3.7363281 7.5625 C 4.5033281 8.6125 6 9.643 6 11 L 6.0039062 11 L 6.0019531 13 L 6.0019531 14.947266 C 5.9629531 15.480266 6.4141719 15.983094 6.9511719 15.996094 C 7.9501719 15.998094 8.9502187 15.997047 9.9492188 15.998047 C 10.482219 16.037047 10.986047 15.585781 10.998047 15.050781 C 11.001047 14.383781 10.999 11.666 11 11 C 11 9.643 12.496672 8.6125 13.263672 7.5625 A 5.5 5.042 0 0 0 12.035156 1.1796875 A 5.5 5.042 0 0 0 8.5097656 0 z M 8.5 0.91601562 A 4.5 4.125 0 0 1 13 5.0410156 A 4.5 4.125 0 0 1 12.337891 7.1777344 C 11.826891 7.9487344 9.948 9.435 10 11 L 7 11 C 7.052 9.418 5.1217187 7.9104844 4.6367188 7.1464844 A 4.5 4.125 0 0 1 4 5.0410156 A 4.5 4.125 0 0 1 8.5 0.91601562 z M 8 8 L 8 10 L 9 10 L 9 8 L 8 8 z M 7 12 L 10 12 L 10 15 L 7 15 L 7 14 L 8.5019531 14 L 8.5019531 13 L 7 13 L 7 12 z"/><path id="path972" style="fill:#241f31;stroke-linecap:round;stroke-linejoin:round;stop-color:#000" d="M 8,7.5 A 0.5,0.5 0 0 1 7.5,8 0.5,0.5 0 0 1 7,7.5 0.5,0.5 0 0 1 7.5,7 0.5,0.5 0 0 1 8,7.5 Z"/><path id="path974" style="fill:#241f31;stroke-linecap:round;stroke-linejoin:round;stop-color:#000" d="M 10,7.5 A 0.5,0.5 0 0 1 9.5,8 0.5,0.5 0 0 1 9,7.5 0.5,0.5 0 0 1 9.5,7 0.5,0.5 0 0 1 10,7.5 Z"/></svg>