<svg xmlns="http://www.w3.org/2000/svg" xmlns:svg="http://www.w3.org/2000/svg" id="svg4" width="16" height="16" version="1.1"><path id="path2" style="marker:none;fill:#241f31" d="M 8 0 C 3.588 0 0 3.588 0 8 C 0 12.412 3.588 16 8 16 C 12.412 16 16 12.412 16 8 C 16 3.588 12.412 0 8 0 z M 8 1 C 11.872 1 15 4.128 15 8 C 15 11.872 11.872 15 8 15 C 4.128 15 1 11.872 1 8 C 1 4.128 4.128 1 8 1 z M 5.1738281 9.8300781 L 4.4667969 10.537109 A 4.999 4.999 0 0 0 8 12.003906 A 4.999 4.999 0 0 0 11.533203 10.537109 L 10.826172 9.8300781 A 4 4 0 0 1 8 11.003906 A 4 4 0 0 1 5.1738281 9.8300781 z"/><path id="rect1061" style="fill:#241f31;stroke-linecap:round;stroke-linejoin:round;stop-color:#000" d="M 6.5,4 C 6.777,4 7,4.223 7,4.5 v 2 C 7,6.777 6.777,7 6.5,7 6.223,7 6,6.777 6,6.5 v -2 C 6,4.223 6.223,4 6.5,4 Z"/><path id="rect1064" style="fill:#241f31;stroke-linecap:round;stroke-linejoin:round;stop-color:#000" d="M 9.5,4 C 9.777,4 10,4.223 10,4.5 v 2 C 10,6.777 9.777,7 9.5,7 9.223,7 9,6.777 9,6.5 v -2 C 9,4.223 9.223,4 9.5,4 Z"/></svg>