<svg xmlns="http://www.w3.org/2000/svg" xmlns:svg="http://www.w3.org/2000/svg" id="svg6" width="16" height="16" version="1.1"><metadata id="metadata12"/><path style="color:#000;fill:#241f31;stroke-linecap:round;stroke-linejoin:round;-inkscape-stroke:none" id="path1019" d="M 4.5,1 A 0.50005,0.50005 0 0 0 4,1.5 V 7.3867187 15 A 0.5,0.5 0 0 0 4.5,15.5 0.5,0.5 0 0 0 5,15 V 7.9238281 c 0.3246918,0.0078 0.7202397,0.00144 1.4238281,0.109375 0.4753081,0.072917 0.9438548,0.1869179 1.2421875,0.3242188 0.1491664,0.06865 0.2522394,0.1434737 0.296875,0.1914062 C 8.0075262,8.5967607 8,8.5956746 8,8.6132813 8,8.9024925 8.1373767,9.178518 8.3203125,9.359375 c 0.1829358,0.180857 0.3994291,0.2928523 0.6289063,0.3789063 0.4589543,0.1721078 0.9921877,0.2415216 1.5175782,0.2773437 1.050781,0.07164 2.076172,-0.017578 2.076172,-0.017578 A 0.50005,0.50005 0 0 0 13,9.5 v -6 A 0.50005,0.50005 0 0 0 12.443359,3.0039063 c 0,0 -0.974844,0.108056 -1.923828,0.070312 C 10.045039,3.055347 9.5777922,2.9926492 9.2890625,2.8925781 9.1446977,2.8425426 9.0501909,2.7832688 9.0175781,2.7519531 8.9849654,2.7206375 9,2.7441691 9,2.7265625 9,2.4373512 8.8674736,2.1674436 8.6933594,1.9804687 8.5192452,1.7934939 8.3098177,1.6683878 8.0839844,1.5644531 7.6323178,1.3565838 7.1008628,1.2406486 6.5761719,1.1601562 5.5267901,0.99917153 4.5,1 4.5,1 Z M 5,2.0390625 c 0.3247271,0.0078 0.720294,0.00145 1.4238281,0.109375 0.4753081,0.072917 0.9438548,0.1869179 1.2421875,0.3242188 0.1491664,0.06865 0.2522394,0.1415205 0.296875,0.1894531 C 8.0075262,2.7100419 8,2.7089559 8,2.7265625 8,3.0157738 8.1400349,3.2939224 8.3261719,3.4726563 8.5123089,3.6513901 8.7303027,3.7579547 8.9609375,3.8378906 9.4222071,3.9977624 9.9549616,4.053318 10.480469,4.0742187 11.249686,4.1048125 11.650197,4.049407 12,4.0175781 v 4.9882813 c -0.309945,0.019619 -0.74308,0.061063 -1.466797,0.011719 C 10.058595,8.9852185 9.5918262,8.9099231 9.3007813,8.8007813 9.1552588,8.7462103 9.0592515,8.6838445 9.0234375,8.6484375 8.9876235,8.6130305 9,8.6308879 9,8.6132813 9,8.32407 8.8674736,8.0541624 8.6933594,7.8671875 8.5192452,7.6802126 8.3098177,7.5531534 8.0839844,7.4492187 7.6323178,7.2413495 7.1008628,7.1254142 6.5761719,7.0449219 5.7795473,6.9227124 5.3311679,6.9323732 5,6.9257812 Z"/></svg>