<?xml version="1.0" encoding="UTF-8" standalone="no"?>
<svg
   height="16px"
   viewBox="0 0 16 16"
   width="16px"
   version="1.1"
   id="svg4"
   xmlns="http://www.w3.org/2000/svg"
   xmlns:svg="http://www.w3.org/2000/svg">
  <defs
     id="defs8" />
  <path
     style="color:#000000;fill:#241f31;stroke-linecap:round;stroke-linejoin:round;-inkscape-stroke:none"
     d="M 8,1 C 4.1399332,1 1,4.1399332 1,8 c 0,3.860067 3.1399332,7 7,7 3.860067,0 7,-3.139933 7,-7 C 15,4.1399332 11.860067,1 8,1 Z m 0,1 c 3.319627,0 6,2.6803728 6,6 0,3.319627 -2.680373,6 -6,6 C 4.6803728,14 2,11.319627 2,8 2,4.6803728 4.6803728,2 8,2 Z"
     id="path844" />
  <path
     style="color:#000000;fill:#241f31;stroke-linecap:round;stroke-linejoin:round;-inkscape-stroke:none"
     d="m 3.3382281,1.2265625 a 0.499998,0.499998 0 0 1 0.6347656,0.3125 c 0,0 2.3133033,6.6857838 -0.00586,12.8378905 A 0.499998,0.499998 0 0 1 3.3226025,14.667969 0.499998,0.499998 0 0 1 3.0315868,14.023438 C 5.1872833,8.3049628 3.0257281,1.8613281 3.0257281,1.8613281 a 0.499998,0.499998 0 0 1 0.3125,-0.6347656 z"
     id="path1063" />
  <path
     style="color:#000000;fill:#241f31;stroke-linecap:round;stroke-linejoin:round;-inkscape-stroke:none"
     d="m 12.663098,1.2265625 a 0.5,0.5 0 0 1 0.310547,0.6347656 c 0,0 -2.162173,6.4438015 -0.0039,12.1621099 A 0.5,0.5 0 0 1 12.67677,14.667969 0.5,0.5 0 0 1 12.032238,14.376953 C 9.7101804,8.2246797 12.028328,1.5390625 12.028328,1.5390625 a 0.5,0.5 0 0 1 0.634766,-0.3125 z"
     id="path1063-3" />
</svg>
