<svg xmlns="http://www.w3.org/2000/svg" xmlns:svg="http://www.w3.org/2000/svg" id="svg4" width="16" height="16" version="1.1"><path id="path2" style="font-variation-settings:normal;fill:#241f31" d="M 8.9667969,1 C 8.3666691,1.0002722 7.9019376,1.5253823 7.9746094,2.1210938 7.9896094,2.2480938 7.998,2.3749531 8,2.5019531 c 0.00204,1.5002958 -0.9550008,2.8340197 -2.3769531,3.3125 -0.148,0.061 -0.4122032,0.1875 -0.5332031,0.1875 L 3,6 C 2.446,6 2,6.446 2,7 v 6 c 0,0.554 0.446,1 1,1 h 2 l 6.015625,0.972656 c 0.969855,0.16753 1.907435,-0.432115 2.162109,-1.382812 L 14.837891,7.3945312 C 15.160918,6.1863454 14.250624,5.0003509 13,5 h -1.453125 c 0.046,-0.314 0.07422,-0.645 0.07422,-1 0,-0.637 -0.07156,-1.2128906 -0.226563,-1.7128906 C 11.321917,2.027702 11.204238,1.7830894 11.046875,1.5644531 10.868875,1.3244531 10.518,1 10,1 Z M 9.2402344,2.1035156 H 10 c 0.041,0 0.0952,0.028234 0.158203,0.1152344 0.064,0.086 0.127641,0.2234844 0.181641,0.3964844 0.108,0.347 0.177734,0.8397656 0.177734,1.3847656 0,0.529 -0.06792,1.0026563 -0.169922,1.3476562 -0.02,0.052 -0.01739,0.1122032 -0.02539,0.1582032 0,0.276 0.224,0.4941406 0.5,0.4941406 H 13 c 0.593702,-1.11e-4 1.025587,0.5634703 0.871094,1.1367188 L 12.210938,13.332031 C 12.089729,13.782448 11.645106,14.06616 11.185547,13.986328 9.5042095,13.704253 7.5180846,13.386293 6,13 H 5 4.5 3 V 7 H 4.5 5 6 C 8,6 9.0545801,4.2749459 9.1035156,2.5 v -0.00195 c -0.002,-0.126 -0.013391,-0.2509532 -0.025391,-0.3769531 z"/></svg>