<svg xmlns="http://www.w3.org/2000/svg" xmlns:svg="http://www.w3.org/2000/svg" xmlns:xlink="http://www.w3.org/1999/xlink" id="svg51" width="128" height="128" version="1.1" viewBox="0 0 128 128"><defs id="defs55"><linearGradient id="linearGradient964"><stop style="stop-color:#828292;stop-opacity:1" id="stop960" offset="0"/><stop style="stop-color:#77767b;stop-opacity:0" id="stop962" offset="1"/></linearGradient><linearGradient id="linearGradient2898"><stop style="stop-color:#111;stop-opacity:1" id="stop2894" offset="0"/><stop style="stop-color:#828292;stop-opacity:1" id="stop2896" offset="1"/></linearGradient><linearGradient id="linearGradient2900" x1="65" x2="65" y1="75" y2="20" gradientTransform="matrix(0.67307691,0,0,0.97938144,20.923078,3.3917526)" gradientUnits="userSpaceOnUse" xlink:href="#linearGradient2898"/><linearGradient id="linearGradient966" x1="85" x2="85" y1="80" y2="115" gradientTransform="matrix(1,0,0,1.0277778,0,-2.2222222)" gradientUnits="userSpaceOnUse" xlink:href="#linearGradient964"/><linearGradient id="linearGradient968" x1="65" x2="65" y1="80" y2="115" gradientTransform="matrix(1,0,0,1.0277778,0,-2.2222222)" gradientUnits="userSpaceOnUse" xlink:href="#linearGradient964"/><linearGradient id="linearGradient970" x1="45" x2="45" y1="80" y2="115" gradientTransform="matrix(1,0,0,1.0277778,0,-2.2222222)" gradientUnits="userSpaceOnUse" xlink:href="#linearGradient964"/></defs><linearGradient id="a" x1="88.596" x2="536.596" y1="-449.394" y2="-449.394" gradientTransform="matrix(0.15625009,0,0,0.3295883,15.156921,264.83726)" gradientUnits="userSpaceOnUse"><stop id="stop2" offset="0" stop-color="#77767b" style="stop-color:#a5a5a5;stop-opacity:1"/><stop id="stop4" offset=".038" stop-color="#c0bfbc" style="stop-color:#c2c2c2;stop-opacity:1"/><stop id="stop6" offset=".077" stop-color="#9a9996" style="stop-color:#a5a5a5;stop-opacity:1"/><stop id="stop8" offset=".923" stop-color="#9a9996" style="stop-color:#a5a5a5;stop-opacity:1"/><stop id="stop10" offset=".962" stop-color="#c0bfbc" style="stop-color:#c2c2c2;stop-opacity:1"/><stop id="stop12" offset="1" stop-color="#77767b" style="stop-color:#a5a5a5;stop-opacity:1"/></linearGradient><filter id="b" width="1" height="1" x="0" y="0"><feColorMatrix id="feColorMatrix15" in="SourceGraphic" type="matrix" values="0 0 0 0 1 0 0 0 0 1 0 0 0 0 1 0 0 0 1 0"/></filter><mask id="c"><g id="g20" filter="url(#b)"><rect id="rect18" width="128" height="128" fill-opacity=".8"/></g></mask><linearGradient id="d" x1="20.495" x2="121.292" y1="28.495" y2="77.01" gradientUnits="userSpaceOnUse"><stop id="stop23" offset="0" stop-color="#fff"/><stop id="stop25" offset=".511" stop-color="#f6f5f4" stop-opacity=".4"/><stop id="stop27" offset="1" stop-color="#fff"/></linearGradient><clipPath id="e"><rect id="rect30" width="192" height="152"/></clipPath><path id="rect2768" style="fill:url(#linearGradient2900);stroke-width:4;stroke-linecap:round;stroke-linejoin:round;stop-color:#000" d="m 34.833334,22 h 58.33333 C 96.398335,22 99,24.676 99,28 v 56.556701 c 0,3.324 -2.601665,6 -5.833336,6 h -58.33333 c -3.231668,0 -5.833334,-2.676 -5.833334,-6 V 28 c 0,-3.324 2.601666,-6 5.833334,-6 z"/><path id="path39" fill="url(#a)" d="m 29,56 v 52.70679 c 0,4.44165 2.400466,8.01486 5.384616,8.01486 H 93.615385 C 96.599532,116.72165 99,113.14844 99,108.70679 V 56 c 0,4.441648 -2.400468,8.01486 -5.384615,8.01486 H 34.384616 C 31.400466,64.01486 29,60.441648 29,56 Z" style="fill:#9e9eab;stroke-width:1.20185"/><path style="fill:#828292;stroke:none;stroke-width:1px;stroke-linecap:butt;stroke-linejoin:miter;stroke-opacity:1" id="path880-3" d="m 34,51 5.25,-5 5.25,5 v -5 l 5.25,-5 v 0 -5 L 60,43 55,46 65.5,51 V 46 H 76 v 5 h 5.25 5.25 v 5 l 5.25,-5 V 46 H 97 V 66 H 34 Z"/><path style="fill:#bebec7;stroke:none;stroke-width:1px;stroke-linecap:butt;stroke-linejoin:miter;stroke-opacity:1" id="path880" d="m 34,53 5.25,-5 5.25,5 v -5 l 5.25,-5 v 0 -5 l 10.5,5 -5.25,5 10.5,5 V 48 H 76 v 5 h 5.25 5.25 v 5 l 5.25,-5 V 48 H 97 V 68 H 34 Z"/><path style="fill:#f0f0f2;stroke:none;stroke-width:1px;stroke-linecap:butt;stroke-linejoin:miter;stroke-opacity:1" id="path880-6" d="m 34,55 5.25,-5 5.25,5 v -5 l 5.25,-5 v 0 -5 l 10.5,5 -5.25,5 10.5,5 V 50 H 76 v 5 h 5.25 5.25 v 5 l 5.25,-5 V 50 H 97 V 70 H 34 Z"/><path style="color:#000;fill:#828292;stroke-linecap:round;stroke-linejoin:round;-inkscape-stroke:none" id="rect868-3" d="m 36,19 c -5.470806,0 -10,4.529194 -10,10 v 33 c 0,5.470806 4.529194,10 10,10 h 56 c 5.470806,0 10,-4.529194 10,-10 V 29 C 102,23.529194 97.470806,19 92,19 Z m 0,8 h 56 c 1.177188,0 2,0.822812 2,2 v 33 c 0,1.177188 -0.822812,2 -2,2 H 36 c -1.177188,0 -2,-0.822812 -2,-2 V 29 c 0,-1.177188 0.822812,-2 2,-2 z"/><path style="color:#000;fill:#ababb6;stroke-linecap:round;stroke-linejoin:round;-inkscape-stroke:none" id="rect868" d="m 36,16 c -5.470806,0 -10,4.529194 -10,10 v 33 c 0,5.470806 4.529194,10 10,10 h 56 c 5.470806,0 10,-4.529194 10,-10 V 26 C 102,20.529194 97.470806,16 92,16 Z m 0,8 h 56 c 1.177188,0 2,0.822812 2,2 v 33 c 0,1.177188 -0.822812,2 -2,2 H 36 c -1.177188,0 -2,-0.822812 -2,-2 V 26 c 0,-1.177188 0.822812,-2 2,-2 z"/><rect style="fill:url(#linearGradient970);fill-opacity:1;stroke-width:.999996;stroke-linecap:round;stroke-linejoin:round;stop-color:#000" id="rect874" width="10" height="37" x="40" y="80"/><rect style="fill:url(#linearGradient968);fill-opacity:1;stroke-width:.999996;stroke-linecap:round;stroke-linejoin:round;stop-color:#000" id="rect876" width="10" height="37" x="60" y="80"/><rect style="fill:url(#linearGradient966);fill-opacity:1;stroke-width:.999996;stroke-linecap:round;stroke-linejoin:round;stop-color:#000" id="rect878" width="10" height="37" x="80" y="80"/></svg>