<svg width="100" height="100" viewBox="0 0 100 100" fill="none" xmlns="http://www.w3.org/2000/svg">
<g style="mix-blend-mode:hard-light" filter="url(#filter0_diii_5_5)">
<path d="M47.4378 60.1876L38.4793 44.4828H52.9124L64.8571 68.9126H47.4378V82L34 60.1876H47.4378Z" fill="#FECB49"/>
<path d="M47.4378 60.1876L38.4793 44.4828H52.9124L64.8571 68.9126H47.4378V82L34 60.1876H47.4378Z" fill="url(#paint0_linear_5_5)"/>
</g>
<g filter="url(#filter1_diii_5_5)">
<path fill-rule="evenodd" clip-rule="evenodd" d="M39 18C27.402 18 18 26.2428 18 36.411C18 46.3947 27.0642 54.5221 38.3714 54.814C38.5246 54.8193 38.6785 54.8219 38.8332 54.8219H38.9819C38.9879 54.8219 38.994 54.8219 39 54.8219H39.6665C39.6725 54.8219 39.6785 54.8219 39.6846 54.8219H70.6486C76.9178 54.8219 82 50.3663 82 44.87C82 39.3738 76.9178 34.9182 70.6486 34.9182H60.5983C59.7316 25.4482 50.6912 18 39.6665 18H39Z" fill="#F0F0F2" fill-opacity="0.8"/>
<path fill-rule="evenodd" clip-rule="evenodd" d="M39 18C27.402 18 18 26.2428 18 36.411C18 46.3947 27.0642 54.5221 38.3714 54.814C38.5246 54.8193 38.6785 54.8219 38.8332 54.8219H38.9819C38.9879 54.8219 38.994 54.8219 39 54.8219H39.6665C39.6725 54.8219 39.6785 54.8219 39.6846 54.8219H70.6486C76.9178 54.8219 82 50.3663 82 44.87C82 39.3738 76.9178 34.9182 70.6486 34.9182H60.5983C59.7316 25.4482 50.6912 18 39.6665 18H39Z" fill="url(#paint1_linear_5_5)"/>
</g>
<defs>
<filter id="filter0_diii_5_5" x="30" y="40.4828" width="38.8571" height="49.5172" filterUnits="userSpaceOnUse" color-interpolation-filters="sRGB">
<feFlood flood-opacity="0" result="BackgroundImageFix"/>
<feColorMatrix in="SourceAlpha" type="matrix" values="0 0 0 0 0 0 0 0 0 0 0 0 0 0 0 0 0 0 127 0" result="hardAlpha"/>
<feOffset dy="4"/>
<feGaussianBlur stdDeviation="2"/>
<feComposite in2="hardAlpha" operator="out"/>
<feColorMatrix type="matrix" values="0 0 0 0 0 0 0 0 0 0 0 0 0 0 0 0 0 0 0.1 0"/>
<feBlend mode="normal" in2="BackgroundImageFix" result="effect1_dropShadow_5_5"/>
<feBlend mode="normal" in="SourceGraphic" in2="effect1_dropShadow_5_5" result="shape"/>
<feColorMatrix in="SourceAlpha" type="matrix" values="0 0 0 0 0 0 0 0 0 0 0 0 0 0 0 0 0 0 127 0" result="hardAlpha"/>
<feOffset dy="-4"/>
<feGaussianBlur stdDeviation="2"/>
<feComposite in2="hardAlpha" operator="arithmetic" k2="-1" k3="1"/>
<feColorMatrix type="matrix" values="0 0 0 0 0.176471 0 0 0 0 0.176471 0 0 0 0 0.176471 0 0 0 0.25 0"/>
<feBlend mode="normal" in2="shape" result="effect2_innerShadow_5_5"/>
<feColorMatrix in="SourceAlpha" type="matrix" values="0 0 0 0 0 0 0 0 0 0 0 0 0 0 0 0 0 0 127 0" result="hardAlpha"/>
<feOffset dy="4"/>
<feGaussianBlur stdDeviation="2"/>
<feComposite in2="hardAlpha" operator="arithmetic" k2="-1" k3="1"/>
<feColorMatrix type="matrix" values="0 0 0 0 0.996078 0 0 0 0 0.796079 0 0 0 0 0.286274 0 0 0 0.25 0"/>
<feBlend mode="normal" in2="effect2_innerShadow_5_5" result="effect3_innerShadow_5_5"/>
<feColorMatrix in="SourceAlpha" type="matrix" values="0 0 0 0 0 0 0 0 0 0 0 0 0 0 0 0 0 0 127 0" result="hardAlpha"/>
<feOffset dy="4"/>
<feGaussianBlur stdDeviation="2"/>
<feComposite in2="hardAlpha" operator="arithmetic" k2="-1" k3="1"/>
<feColorMatrix type="matrix" values="0 0 0 0 0.941176 0 0 0 0 0.941176 0 0 0 0 0.94902 0 0 0 0.25 0"/>
<feBlend mode="normal" in2="effect3_innerShadow_5_5" result="effect4_innerShadow_5_5"/>
</filter>
<filter id="filter1_diii_5_5" x="14" y="14" width="72" height="48.8219" filterUnits="userSpaceOnUse" color-interpolation-filters="sRGB">
<feFlood flood-opacity="0" result="BackgroundImageFix"/>
<feColorMatrix in="SourceAlpha" type="matrix" values="0 0 0 0 0 0 0 0 0 0 0 0 0 0 0 0 0 0 127 0" result="hardAlpha"/>
<feOffset dy="4"/>
<feGaussianBlur stdDeviation="2"/>
<feComposite in2="hardAlpha" operator="out"/>
<feColorMatrix type="matrix" values="0 0 0 0 0 0 0 0 0 0 0 0 0 0 0 0 0 0 0.1 0"/>
<feBlend mode="normal" in2="BackgroundImageFix" result="effect1_dropShadow_5_5"/>
<feBlend mode="normal" in="SourceGraphic" in2="effect1_dropShadow_5_5" result="shape"/>
<feColorMatrix in="SourceAlpha" type="matrix" values="0 0 0 0 0 0 0 0 0 0 0 0 0 0 0 0 0 0 127 0" result="hardAlpha"/>
<feOffset dy="-4"/>
<feGaussianBlur stdDeviation="2"/>
<feComposite in2="hardAlpha" operator="arithmetic" k2="-1" k3="1"/>
<feColorMatrix type="matrix" values="0 0 0 0 0.176471 0 0 0 0 0.176471 0 0 0 0 0.176471 0 0 0 0.25 0"/>
<feBlend mode="normal" in2="shape" result="effect2_innerShadow_5_5"/>
<feColorMatrix in="SourceAlpha" type="matrix" values="0 0 0 0 0 0 0 0 0 0 0 0 0 0 0 0 0 0 127 0" result="hardAlpha"/>
<feOffset dy="4"/>
<feGaussianBlur stdDeviation="2"/>
<feComposite in2="hardAlpha" operator="arithmetic" k2="-1" k3="1"/>
<feColorMatrix type="matrix" values="0 0 0 0 0.996078 0 0 0 0 0.796079 0 0 0 0 0.286274 0 0 0 0.25 0"/>
<feBlend mode="normal" in2="effect2_innerShadow_5_5" result="effect3_innerShadow_5_5"/>
<feColorMatrix in="SourceAlpha" type="matrix" values="0 0 0 0 0 0 0 0 0 0 0 0 0 0 0 0 0 0 127 0" result="hardAlpha"/>
<feOffset dy="4"/>
<feGaussianBlur stdDeviation="2"/>
<feComposite in2="hardAlpha" operator="arithmetic" k2="-1" k3="1"/>
<feColorMatrix type="matrix" values="0 0 0 0 0.941176 0 0 0 0 0.941176 0 0 0 0 0.94902 0 0 0 0.25 0"/>
<feBlend mode="normal" in2="effect3_innerShadow_5_5" result="effect4_innerShadow_5_5"/>
</filter>
<linearGradient id="paint0_linear_5_5" x1="54.2857" y1="44.4828" x2="54.2857" y2="82" gradientUnits="userSpaceOnUse">
<stop stop-color="#2D2D2D" stop-opacity="0"/>
<stop offset="1" stop-color="#2D2D2D" stop-opacity="0.2"/>
</linearGradient>
<linearGradient id="paint1_linear_5_5" x1="60.074" y1="18" x2="60.074" y2="54.8219" gradientUnits="userSpaceOnUse">
<stop stop-color="#2D2D2D" stop-opacity="0"/>
<stop offset="1" stop-color="#2D2D2D" stop-opacity="0.2"/>
</linearGradient>
</defs>
</svg>
