<svg width="100" height="100" viewBox="0 0 100 100" fill="none" xmlns="http://www.w3.org/2000/svg">
<g style="mix-blend-mode:hard-light" filter="url(#filter0_dii_6_28)">
<path d="M39.0077 35.9986C30.8422 32.0107 43.5441 28.429 50.9157 27.1366C38.2517 25.1057 15.7588 24.3672 27.0997 37.6602C38.4407 50.9532 57.592 47.0388 69.5 41.5C60.2382 42.6077 47.1732 39.9865 39.0077 35.9986Z" fill="#D9D9D9"/>
<path d="M39.0077 35.9986C30.8422 32.0107 43.5441 28.429 50.9157 27.1366C38.2517 25.1057 15.7588 24.3672 27.0997 37.6602C38.4407 50.9532 57.592 47.0388 69.5 41.5C60.2382 42.6077 47.1732 39.9865 39.0077 35.9986Z" fill="url(#paint0_linear_6_28)"/>
<path d="M42.0434 55.3674C36.0348 52.4289 45.3815 49.7898 50.8059 48.8375C41.4871 47.3411 24.9357 46.7969 33.2809 56.5918C41.6262 66.3866 57.2375 62.5812 66 58.5C59.1847 59.3162 48.052 58.3059 42.0434 55.3674Z" fill="#D9D9D9"/>
<path d="M42.0434 55.3674C36.0348 52.4289 45.3815 49.7898 50.8059 48.8375C41.4871 47.3411 24.9357 46.7969 33.2809 56.5918C41.6262 66.3866 57.2375 62.5812 66 58.5C59.1847 59.3162 48.052 58.3059 42.0434 55.3674Z" fill="url(#paint1_linear_6_28)"/>
<path d="M44.3623 69.7362C40.3566 67.8472 46.5877 66.1506 50.2039 65.5384C43.9914 64.5764 32.9571 64.2266 38.5206 70.5233C44.0841 76.82 57.1583 73.1469 63 70.5233C58.4565 71.048 48.368 71.6252 44.3623 69.7362Z" fill="#D9D9D9"/>
<path d="M44.3623 69.7362C40.3566 67.8472 46.5877 66.1506 50.2039 65.5384C43.9914 64.5764 32.9571 64.2266 38.5206 70.5233C44.0841 76.82 57.1583 73.1469 63 70.5233C58.4565 71.048 48.368 71.6252 44.3623 69.7362Z" fill="url(#paint2_linear_6_28)"/>
</g>
<g style="mix-blend-mode:hard-light" filter="url(#filter1_dii_6_28)">
<path d="M61.9923 35.9986C70.1578 32.0107 57.4559 28.429 50.0843 27.1366C62.7483 25.1057 85.2412 24.3672 73.9003 37.6602C62.5593 50.9532 34 47 31 41.5C40.2618 42.6077 53.8268 39.9865 61.9923 35.9986Z" fill="#CDE6FF"/>
<path d="M61.9923 35.9986C70.1578 32.0107 57.4559 28.429 50.0843 27.1366C62.7483 25.1057 85.2412 24.3672 73.9003 37.6602C62.5593 50.9532 34 47 31 41.5C40.2618 42.6077 53.8268 39.9865 61.9923 35.9986Z" fill="url(#paint3_linear_6_28)"/>
<path d="M58.9566 55.3674C64.9652 52.4289 55.6185 49.7898 50.1941 48.8375C59.5129 47.3411 76.0643 46.7969 67.7191 56.5918C59.3738 66.3866 41 63.5 36 59C42.8153 59.8162 52.948 58.3059 58.9566 55.3674Z" fill="#CDE6FF"/>
<path d="M58.9566 55.3674C64.9652 52.4289 55.6185 49.7898 50.1941 48.8375C59.5129 47.3411 76.0643 46.7969 67.7191 56.5918C59.3738 66.3866 41 63.5 36 59C42.8153 59.8162 52.948 58.3059 58.9566 55.3674Z" fill="url(#paint4_linear_6_28)"/>
<path d="M56.6377 69.7362C60.6434 67.8472 54.4123 66.1506 50.7961 65.5384C57.0086 64.5764 68.0429 64.2266 62.4794 70.5233C56.9159 76.82 43.5 75 38 70.5233C42.5435 71.048 52.632 71.6252 56.6377 69.7362Z" fill="#CDE6FF"/>
<path d="M56.6377 69.7362C60.6434 67.8472 54.4123 66.1506 50.7961 65.5384C57.0086 64.5764 68.0429 64.2266 62.4794 70.5233C56.9159 76.82 43.5 75 38 70.5233C42.5435 71.048 52.632 71.6252 56.6377 69.7362Z" fill="url(#paint5_linear_6_28)"/>
</g>
<defs>
<filter id="filter0_dii_6_28" x="20" y="22" width="53.5" height="60" filterUnits="userSpaceOnUse" color-interpolation-filters="sRGB">
<feFlood flood-opacity="0" result="BackgroundImageFix"/>
<feColorMatrix in="SourceAlpha" type="matrix" values="0 0 0 0 0 0 0 0 0 0 0 0 0 0 0 0 0 0 127 0" result="hardAlpha"/>
<feOffset dy="4"/>
<feGaussianBlur stdDeviation="2"/>
<feComposite in2="hardAlpha" operator="out"/>
<feColorMatrix type="matrix" values="0 0 0 0 0 0 0 0 0 0 0 0 0 0 0 0 0 0 0.1 0"/>
<feBlend mode="normal" in2="BackgroundImageFix" result="effect1_dropShadow_6_28"/>
<feBlend mode="normal" in="SourceGraphic" in2="effect1_dropShadow_6_28" result="shape"/>
<feColorMatrix in="SourceAlpha" type="matrix" values="0 0 0 0 0 0 0 0 0 0 0 0 0 0 0 0 0 0 127 0" result="hardAlpha"/>
<feOffset dy="-4"/>
<feGaussianBlur stdDeviation="2"/>
<feComposite in2="hardAlpha" operator="arithmetic" k2="-1" k3="1"/>
<feColorMatrix type="matrix" values="0 0 0 0 0.176471 0 0 0 0 0.176471 0 0 0 0 0.176471 0 0 0 0.25 0"/>
<feBlend mode="normal" in2="shape" result="effect2_innerShadow_6_28"/>
<feColorMatrix in="SourceAlpha" type="matrix" values="0 0 0 0 0 0 0 0 0 0 0 0 0 0 0 0 0 0 127 0" result="hardAlpha"/>
<feOffset dy="4"/>
<feGaussianBlur stdDeviation="2"/>
<feComposite in2="hardAlpha" operator="arithmetic" k2="-1" k3="1"/>
<feColorMatrix type="matrix" values="0 0 0 0 0.941176 0 0 0 0 0.941176 0 0 0 0 0.94902 0 0 0 0.2 0"/>
<feBlend mode="normal" in2="effect2_innerShadow_6_28" result="effect3_innerShadow_6_28"/>
</filter>
<filter id="filter1_dii_6_28" x="27" y="22" width="54" height="60.5917" filterUnits="userSpaceOnUse" color-interpolation-filters="sRGB">
<feFlood flood-opacity="0" result="BackgroundImageFix"/>
<feColorMatrix in="SourceAlpha" type="matrix" values="0 0 0 0 0 0 0 0 0 0 0 0 0 0 0 0 0 0 127 0" result="hardAlpha"/>
<feOffset dy="4"/>
<feGaussianBlur stdDeviation="2"/>
<feComposite in2="hardAlpha" operator="out"/>
<feColorMatrix type="matrix" values="0 0 0 0 0 0 0 0 0 0 0 0 0 0 0 0 0 0 0.1 0"/>
<feBlend mode="normal" in2="BackgroundImageFix" result="effect1_dropShadow_6_28"/>
<feBlend mode="normal" in="SourceGraphic" in2="effect1_dropShadow_6_28" result="shape"/>
<feColorMatrix in="SourceAlpha" type="matrix" values="0 0 0 0 0 0 0 0 0 0 0 0 0 0 0 0 0 0 127 0" result="hardAlpha"/>
<feOffset dy="-4"/>
<feGaussianBlur stdDeviation="2"/>
<feComposite in2="hardAlpha" operator="arithmetic" k2="-1" k3="1"/>
<feColorMatrix type="matrix" values="0 0 0 0 0.176471 0 0 0 0 0.176471 0 0 0 0 0.176471 0 0 0 0.25 0"/>
<feBlend mode="normal" in2="shape" result="effect2_innerShadow_6_28"/>
<feColorMatrix in="SourceAlpha" type="matrix" values="0 0 0 0 0 0 0 0 0 0 0 0 0 0 0 0 0 0 127 0" result="hardAlpha"/>
<feOffset dy="4"/>
<feGaussianBlur stdDeviation="2"/>
<feComposite in2="hardAlpha" operator="arithmetic" k2="-1" k3="1"/>
<feColorMatrix type="matrix" values="0 0 0 0 0.941176 0 0 0 0 0.941176 0 0 0 0 0.94902 0 0 0 0.2 0"/>
<feBlend mode="normal" in2="effect2_innerShadow_6_28" result="effect3_innerShadow_6_28"/>
</filter>
<linearGradient id="paint0_linear_6_28" x1="68.2886" y1="25.5671" x2="68.2886" y2="43.4073" gradientUnits="userSpaceOnUse">
<stop stop-color="#2D2D2D" stop-opacity="0"/>
<stop offset="1" stop-color="#2D2D2D" stop-opacity="0.1"/>
</linearGradient>
<linearGradient id="paint1_linear_6_28" x1="63.5897" y1="47.681" x2="63.5897" y2="60.8264" gradientUnits="userSpaceOnUse">
<stop stop-color="#2D2D2D" stop-opacity="0"/>
<stop offset="1" stop-color="#2D2D2D" stop-opacity="0.1"/>
</linearGradient>
<linearGradient id="paint2_linear_6_28" x1="58.7265" y1="64.7949" x2="58.7265" y2="73.2456" gradientUnits="userSpaceOnUse">
<stop stop-color="#2D2D2D" stop-opacity="0"/>
<stop offset="1" stop-color="#2D2D2D" stop-opacity="0.1"/>
</linearGradient>
<linearGradient id="paint3_linear_6_28" x1="32.7114" y1="25.5671" x2="32.7114" y2="43.4073" gradientUnits="userSpaceOnUse">
<stop stop-color="#2D2D2D" stop-opacity="0"/>
<stop offset="1" stop-color="#2D2D2D" stop-opacity="0.1"/>
</linearGradient>
<linearGradient id="paint4_linear_6_28" x1="37.4103" y1="47.681" x2="37.4103" y2="60.8264" gradientUnits="userSpaceOnUse">
<stop stop-color="#2D2D2D" stop-opacity="0"/>
<stop offset="1" stop-color="#2D2D2D" stop-opacity="0.1"/>
</linearGradient>
<linearGradient id="paint5_linear_6_28" x1="42.2735" y1="64.7949" x2="42.2735" y2="73.2456" gradientUnits="userSpaceOnUse">
<stop stop-color="#2D2D2D" stop-opacity="0"/>
<stop offset="1" stop-color="#2D2D2D" stop-opacity="0.1"/>
</linearGradient>
</defs>
</svg>
