<svg width="100" height="100" viewBox="0 0 100 100" fill="none" xmlns="http://www.w3.org/2000/svg">
<g style="mix-blend-mode:hard-light" filter="url(#filter0_dii_6_36)">
<path d="M59.9084 39.8819C67.6261 32.6743 55.6209 26.2008 48.6536 23.865C60.623 20.1945 89.2482 28.5196 71.1633 42.8851C58.3229 53.0846 35.2549 52.8956 24 42.8851C32.7538 44.8872 52.1908 47.0895 59.9084 39.8819Z" fill="#D9D9D9"/>
<path d="M59.9084 39.8819C67.6261 32.6743 55.6209 26.2008 48.6536 23.865C60.623 20.1945 89.2482 28.5196 71.1633 42.8851C58.3229 53.0846 35.2549 52.8956 24 42.8851C32.7538 44.8872 52.1908 47.0895 59.9084 39.8819Z" fill="url(#paint0_linear_6_36)"/>
</g>
<g style="mix-blend-mode:hard-light" filter="url(#filter1_dii_6_36)">
<path d="M45.9975 65.6919C50.7253 70.5198 43.371 74.856 39.1028 76.4206C46.4353 78.8793 63.971 73.3028 52.8922 63.6802C45.0262 56.8482 30.8948 56.9748 24.0001 63.6802C29.3627 62.3392 41.2697 60.864 45.9975 65.6919Z" fill="#D9D9D9"/>
<path d="M45.9975 65.6919C50.7253 70.5198 43.371 74.856 39.1028 76.4206C46.4353 78.8793 63.971 73.3028 52.8922 63.6802C45.0262 56.8482 30.8948 56.9748 24.0001 63.6802C29.3627 62.3392 41.2697 60.864 45.9975 65.6919Z" fill="url(#paint1_linear_6_36)"/>
</g>
<g style="mix-blend-mode:hard-light" filter="url(#filter2_dii_6_36)">
<path d="M61.6938 61.6697C66.4216 66.4976 64.5705 71.1429 60.3024 72.7075C67.6348 75.1662 80.1938 68.3971 69.115 58.7745C61.249 51.9425 31.0188 49.4453 24.1241 56.1507C29.4866 54.8096 56.966 56.8417 61.6938 61.6697Z" fill="#D9D9D9"/>
<path d="M61.6938 61.6697C66.4216 66.4976 64.5705 71.1429 60.3024 72.7075C67.6348 75.1662 80.1938 68.3971 69.115 58.7745C61.249 51.9425 31.0188 49.4453 24.1241 56.1507C29.4866 54.8096 56.966 56.8417 61.6938 61.6697Z" fill="url(#paint2_linear_6_36)"/>
</g>
<defs>
<filter id="filter0_dii_6_36" x="20" y="19" width="61" height="39.4641" filterUnits="userSpaceOnUse" color-interpolation-filters="sRGB">
<feFlood flood-opacity="0" result="BackgroundImageFix"/>
<feColorMatrix in="SourceAlpha" type="matrix" values="0 0 0 0 0 0 0 0 0 0 0 0 0 0 0 0 0 0 127 0" result="hardAlpha"/>
<feOffset dy="4"/>
<feGaussianBlur stdDeviation="2"/>
<feComposite in2="hardAlpha" operator="out"/>
<feColorMatrix type="matrix" values="0 0 0 0 0 0 0 0 0 0 0 0 0 0 0 0 0 0 0.1 0"/>
<feBlend mode="normal" in2="BackgroundImageFix" result="effect1_dropShadow_6_36"/>
<feBlend mode="normal" in="SourceGraphic" in2="effect1_dropShadow_6_36" result="shape"/>
<feColorMatrix in="SourceAlpha" type="matrix" values="0 0 0 0 0 0 0 0 0 0 0 0 0 0 0 0 0 0 127 0" result="hardAlpha"/>
<feOffset dy="-4"/>
<feGaussianBlur stdDeviation="2"/>
<feComposite in2="hardAlpha" operator="arithmetic" k2="-1" k3="1"/>
<feColorMatrix type="matrix" values="0 0 0 0 0.176471 0 0 0 0 0.176471 0 0 0 0 0.176471 0 0 0 0.25 0"/>
<feBlend mode="normal" in2="shape" result="effect2_innerShadow_6_36"/>
<feColorMatrix in="SourceAlpha" type="matrix" values="0 0 0 0 0 0 0 0 0 0 0 0 0 0 0 0 0 0 127 0" result="hardAlpha"/>
<feOffset dy="4"/>
<feGaussianBlur stdDeviation="2"/>
<feComposite in2="hardAlpha" operator="arithmetic" k2="-1" k3="1"/>
<feColorMatrix type="matrix" values="0 0 0 0 0.941176 0 0 0 0 0.941176 0 0 0 0 0.94902 0 0 0 0.2 0"/>
<feBlend mode="normal" in2="effect2_innerShadow_6_36" result="effect3_innerShadow_6_36"/>
</filter>
<filter id="filter1_dii_6_36" x="20.0001" y="54.6036" width="40.4677" height="30.3964" filterUnits="userSpaceOnUse" color-interpolation-filters="sRGB">
<feFlood flood-opacity="0" result="BackgroundImageFix"/>
<feColorMatrix in="SourceAlpha" type="matrix" values="0 0 0 0 0 0 0 0 0 0 0 0 0 0 0 0 0 0 127 0" result="hardAlpha"/>
<feOffset dy="4"/>
<feGaussianBlur stdDeviation="2"/>
<feComposite in2="hardAlpha" operator="out"/>
<feColorMatrix type="matrix" values="0 0 0 0 0 0 0 0 0 0 0 0 0 0 0 0 0 0 0.1 0"/>
<feBlend mode="normal" in2="BackgroundImageFix" result="effect1_dropShadow_6_36"/>
<feBlend mode="normal" in="SourceGraphic" in2="effect1_dropShadow_6_36" result="shape"/>
<feColorMatrix in="SourceAlpha" type="matrix" values="0 0 0 0 0 0 0 0 0 0 0 0 0 0 0 0 0 0 127 0" result="hardAlpha"/>
<feOffset dy="-4"/>
<feGaussianBlur stdDeviation="2"/>
<feComposite in2="hardAlpha" operator="arithmetic" k2="-1" k3="1"/>
<feColorMatrix type="matrix" values="0 0 0 0 0.176471 0 0 0 0 0.176471 0 0 0 0 0.176471 0 0 0 0.25 0"/>
<feBlend mode="normal" in2="shape" result="effect2_innerShadow_6_36"/>
<feColorMatrix in="SourceAlpha" type="matrix" values="0 0 0 0 0 0 0 0 0 0 0 0 0 0 0 0 0 0 127 0" result="hardAlpha"/>
<feOffset dy="4"/>
<feGaussianBlur stdDeviation="2"/>
<feComposite in2="hardAlpha" operator="arithmetic" k2="-1" k3="1"/>
<feColorMatrix type="matrix" values="0 0 0 0 0.941176 0 0 0 0 0.941176 0 0 0 0 0.94902 0 0 0 0.2 0"/>
<feBlend mode="normal" in2="effect2_innerShadow_6_36" result="effect3_innerShadow_6_36"/>
</filter>
<filter id="filter2_dii_6_36" x="20.124" y="48.2084" width="57.3717" height="33.0067" filterUnits="userSpaceOnUse" color-interpolation-filters="sRGB">
<feFlood flood-opacity="0" result="BackgroundImageFix"/>
<feColorMatrix in="SourceAlpha" type="matrix" values="0 0 0 0 0 0 0 0 0 0 0 0 0 0 0 0 0 0 127 0" result="hardAlpha"/>
<feOffset dy="4"/>
<feGaussianBlur stdDeviation="2"/>
<feComposite in2="hardAlpha" operator="out"/>
<feColorMatrix type="matrix" values="0 0 0 0 0 0 0 0 0 0 0 0 0 0 0 0 0 0 0.1 0"/>
<feBlend mode="normal" in2="BackgroundImageFix" result="effect1_dropShadow_6_36"/>
<feBlend mode="normal" in="SourceGraphic" in2="effect1_dropShadow_6_36" result="shape"/>
<feColorMatrix in="SourceAlpha" type="matrix" values="0 0 0 0 0 0 0 0 0 0 0 0 0 0 0 0 0 0 127 0" result="hardAlpha"/>
<feOffset dy="-4"/>
<feGaussianBlur stdDeviation="2"/>
<feComposite in2="hardAlpha" operator="arithmetic" k2="-1" k3="1"/>
<feColorMatrix type="matrix" values="0 0 0 0 0.176471 0 0 0 0 0.176471 0 0 0 0 0.176471 0 0 0 0.25 0"/>
<feBlend mode="normal" in2="shape" result="effect2_innerShadow_6_36"/>
<feColorMatrix in="SourceAlpha" type="matrix" values="0 0 0 0 0 0 0 0 0 0 0 0 0 0 0 0 0 0 127 0" result="hardAlpha"/>
<feOffset dy="4"/>
<feGaussianBlur stdDeviation="2"/>
<feComposite in2="hardAlpha" operator="arithmetic" k2="-1" k3="1"/>
<feColorMatrix type="matrix" values="0 0 0 0 0.941176 0 0 0 0 0.941176 0 0 0 0 0.94902 0 0 0 0.2 0"/>
<feBlend mode="normal" in2="effect2_innerShadow_6_36" result="effect3_innerShadow_6_36"/>
</filter>
<linearGradient id="paint0_linear_6_36" x1="32.2337" y1="21.0283" x2="32.2337" y2="53.2721" gradientUnits="userSpaceOnUse">
<stop stop-color="#2D2D2D" stop-opacity="0"/>
<stop offset="1" stop-color="#2D2D2D" stop-opacity="0.1"/>
</linearGradient>
<linearGradient id="paint1_linear_6_36" x1="29.0441" y1="78.3207" x2="29.0441" y2="56.7226" gradientUnits="userSpaceOnUse">
<stop stop-color="#2D2D2D" stop-opacity="0"/>
<stop offset="1" stop-color="#2D2D2D" stop-opacity="0.1"/>
</linearGradient>
<linearGradient id="paint2_linear_6_36" x1="29.1683" y1="73.415" x2="29.1683" y2="51.8169" gradientUnits="userSpaceOnUse">
<stop stop-color="#2D2D2D" stop-opacity="0"/>
<stop offset="1" stop-color="#2D2D2D" stop-opacity="0.1"/>
</linearGradient>
</defs>
</svg>
