<svg width="100" height="100" viewBox="0 0 100 100" fill="none" xmlns="http://www.w3.org/2000/svg">
<g style="mix-blend-mode:hard-light" filter="url(#filter0_dii_6_28)">
<path d="M36.1225 31.1691C26.2623 25.9167 41.6004 21.1992 50.502 19.497C35.2096 16.8222 8.04832 15.8495 21.7431 33.3577C35.4378 50.8658 58.5639 45.7101 72.9434 38.415C61.7593 39.874 45.9828 36.4216 36.1225 31.1691Z" fill="#F0F0F2"/>
<path d="M36.1225 31.1691C26.2623 25.9167 41.6004 21.1992 50.502 19.497C35.2096 16.8222 8.04832 15.8495 21.7431 33.3577C35.4378 50.8658 58.5639 45.7101 72.9434 38.415C61.7593 39.874 45.9828 36.4216 36.1225 31.1691Z" fill="url(#paint0_linear_6_28)"/>
<path d="M39.7883 56.6797C32.5327 52.8095 43.8192 49.3334 50.3695 48.0792C39.1165 46.1083 19.1299 45.3915 29.2072 58.2923C39.2845 71.1931 58.1359 66.181 68.717 60.8056C60.4873 61.8807 47.044 60.5499 39.7883 56.6797Z" fill="#F0F0F2"/>
<path d="M39.7883 56.6797C32.5327 52.8095 43.8192 49.3334 50.3695 48.0792C39.1165 46.1083 19.1299 45.3915 29.2072 58.2923C39.2845 71.1931 58.1359 66.181 68.717 60.8056C60.4873 61.8807 47.044 60.5499 39.7883 56.6797Z" fill="url(#paint1_linear_6_28)"/>
<path d="M42.5884 75.6048C37.7513 73.1168 45.2757 70.8822 49.6425 70.0759C42.1405 68.8088 28.8162 68.3481 35.5343 76.6415C42.2525 84.9348 58.0403 80.097 65.0943 76.6415C59.6078 77.3326 47.4255 78.0928 42.5884 75.6048Z" fill="#F0F0F2"/>
<path d="M42.5884 75.6048C37.7513 73.1168 45.2757 70.8822 49.6425 70.0759C42.1405 68.8088 28.8162 68.3481 35.5343 76.6415C42.2525 84.9348 58.0403 80.097 65.0943 76.6415C59.6078 77.3326 47.4255 78.0928 42.5884 75.6048Z" fill="url(#paint2_linear_6_28)"/>
</g>
<g style="mix-blend-mode:hard-light" filter="url(#filter1_dii_6_28)">
<path d="M63.8775 31.1691C73.7377 25.9167 58.3996 21.1992 49.498 19.497C64.7904 16.8222 91.9517 15.8495 78.2569 33.3577C64.5622 50.8658 30.0755 45.659 26.4528 38.415C37.6369 39.874 54.0172 36.4216 63.8775 31.1691Z" fill="#A1DDFF"/>
<path d="M63.8775 31.1691C73.7377 25.9167 58.3996 21.1992 49.498 19.497C64.7904 16.8222 91.9517 15.8495 78.2569 33.3577C64.5622 50.8658 30.0755 45.659 26.4528 38.415C37.6369 39.874 54.0172 36.4216 63.8775 31.1691Z" fill="url(#paint3_linear_6_28)"/>
<path d="M60.2117 56.6797C67.4673 52.8095 56.1808 49.3334 49.6305 48.0792C60.8835 46.1083 80.8701 45.3915 70.7928 58.2923C60.7155 71.1931 38.5283 67.3911 32.4905 61.4642C40.7203 62.5393 52.956 60.5499 60.2117 56.6797Z" fill="#A1DDFF"/>
<path d="M60.2117 56.6797C67.4673 52.8095 56.1808 49.3334 49.6305 48.0792C60.8835 46.1083 80.8701 45.3915 70.7928 58.2923C60.7155 71.1931 38.5283 67.3911 32.4905 61.4642C40.7203 62.5393 52.956 60.5499 60.2117 56.6797Z" fill="url(#paint4_linear_6_28)"/>
<path d="M57.4116 75.6048C62.2487 73.1168 54.7243 70.8822 50.3575 70.0759C57.8595 68.8088 71.1838 68.3481 64.4657 76.6415C57.7475 84.9348 41.5472 82.5377 34.9057 76.6415C40.3922 77.3326 52.5745 78.0928 57.4116 75.6048Z" fill="#A1DDFF"/>
<path d="M57.4116 75.6048C62.2487 73.1168 54.7243 70.8822 50.3575 70.0759C57.8595 68.8088 71.1838 68.3481 64.4657 76.6415C57.7475 84.9348 41.5472 82.5377 34.9057 76.6415C40.3922 77.3326 52.5745 78.0928 57.4116 75.6048Z" fill="url(#paint5_linear_6_28)"/>
</g>
<defs>
<filter id="filter0_dii_6_28" x="14" y="14" width="62.9434" height="75.2206" filterUnits="userSpaceOnUse" color-interpolation-filters="sRGB">
<feFlood flood-opacity="0" result="BackgroundImageFix"/>
<feColorMatrix in="SourceAlpha" type="matrix" values="0 0 0 0 0 0 0 0 0 0 0 0 0 0 0 0 0 0 127 0" result="hardAlpha"/>
<feOffset dy="4"/>
<feGaussianBlur stdDeviation="2"/>
<feComposite in2="hardAlpha" operator="out"/>
<feColorMatrix type="matrix" values="0 0 0 0 0 0 0 0 0 0 0 0 0 0 0 0 0 0 0.1 0"/>
<feBlend mode="normal" in2="BackgroundImageFix" result="effect1_dropShadow_6_28"/>
<feBlend mode="normal" in="SourceGraphic" in2="effect1_dropShadow_6_28" result="shape"/>
<feColorMatrix in="SourceAlpha" type="matrix" values="0 0 0 0 0 0 0 0 0 0 0 0 0 0 0 0 0 0 127 0" result="hardAlpha"/>
<feOffset dy="-4"/>
<feGaussianBlur stdDeviation="2"/>
<feComposite in2="hardAlpha" operator="arithmetic" k2="-1" k3="1"/>
<feColorMatrix type="matrix" values="0 0 0 0 0.176471 0 0 0 0 0.176471 0 0 0 0 0.176471 0 0 0 0.25 0"/>
<feBlend mode="normal" in2="shape" result="effect2_innerShadow_6_28"/>
<feColorMatrix in="SourceAlpha" type="matrix" values="0 0 0 0 0 0 0 0 0 0 0 0 0 0 0 0 0 0 127 0" result="hardAlpha"/>
<feOffset dy="4"/>
<feGaussianBlur stdDeviation="2"/>
<feComposite in2="hardAlpha" operator="arithmetic" k2="-1" k3="1"/>
<feColorMatrix type="matrix" values="0 0 0 0 0.941176 0 0 0 0 0.941176 0 0 0 0 0.94902 0 0 0 0.2 0"/>
<feBlend mode="normal" in2="effect2_innerShadow_6_28" result="effect3_innerShadow_6_28"/>
</filter>
<filter id="filter1_dii_6_28" x="22.4529" y="14" width="63.5471" height="76" filterUnits="userSpaceOnUse" color-interpolation-filters="sRGB">
<feFlood flood-opacity="0" result="BackgroundImageFix"/>
<feColorMatrix in="SourceAlpha" type="matrix" values="0 0 0 0 0 0 0 0 0 0 0 0 0 0 0 0 0 0 127 0" result="hardAlpha"/>
<feOffset dy="4"/>
<feGaussianBlur stdDeviation="2"/>
<feComposite in2="hardAlpha" operator="out"/>
<feColorMatrix type="matrix" values="0 0 0 0 0 0 0 0 0 0 0 0 0 0 0 0 0 0 0.1 0"/>
<feBlend mode="normal" in2="BackgroundImageFix" result="effect1_dropShadow_6_28"/>
<feBlend mode="normal" in="SourceGraphic" in2="effect1_dropShadow_6_28" result="shape"/>
<feColorMatrix in="SourceAlpha" type="matrix" values="0 0 0 0 0 0 0 0 0 0 0 0 0 0 0 0 0 0 127 0" result="hardAlpha"/>
<feOffset dy="-4"/>
<feGaussianBlur stdDeviation="2"/>
<feComposite in2="hardAlpha" operator="arithmetic" k2="-1" k3="1"/>
<feColorMatrix type="matrix" values="0 0 0 0 0.176471 0 0 0 0 0.176471 0 0 0 0 0.176471 0 0 0 0.25 0"/>
<feBlend mode="normal" in2="shape" result="effect2_innerShadow_6_28"/>
<feColorMatrix in="SourceAlpha" type="matrix" values="0 0 0 0 0 0 0 0 0 0 0 0 0 0 0 0 0 0 127 0" result="hardAlpha"/>
<feOffset dy="4"/>
<feGaussianBlur stdDeviation="2"/>
<feComposite in2="hardAlpha" operator="arithmetic" k2="-1" k3="1"/>
<feColorMatrix type="matrix" values="0 0 0 0 0.941176 0 0 0 0 0.941176 0 0 0 0 0.94902 0 0 0 0.2 0"/>
<feBlend mode="normal" in2="effect2_innerShadow_6_28" result="effect3_innerShadow_6_28"/>
</filter>
<linearGradient id="paint0_linear_6_28" x1="71.4806" y1="17.4298" x2="71.4806" y2="40.9271" gradientUnits="userSpaceOnUse">
<stop stop-color="#2D2D2D" stop-opacity="0"/>
<stop offset="1" stop-color="#2D2D2D" stop-opacity="0.1"/>
</linearGradient>
<linearGradient id="paint1_linear_6_28" x1="65.8065" y1="46.556" x2="65.8065" y2="63.8698" gradientUnits="userSpaceOnUse">
<stop stop-color="#2D2D2D" stop-opacity="0"/>
<stop offset="1" stop-color="#2D2D2D" stop-opacity="0.1"/>
</linearGradient>
<linearGradient id="paint2_linear_6_28" x1="59.9339" y1="69.0967" x2="59.9339" y2="80.227" gradientUnits="userSpaceOnUse">
<stop stop-color="#2D2D2D" stop-opacity="0"/>
<stop offset="1" stop-color="#2D2D2D" stop-opacity="0.1"/>
</linearGradient>
<linearGradient id="paint3_linear_6_28" x1="28.5194" y1="17.4298" x2="28.5194" y2="40.9271" gradientUnits="userSpaceOnUse">
<stop stop-color="#2D2D2D" stop-opacity="0"/>
<stop offset="1" stop-color="#2D2D2D" stop-opacity="0.1"/>
</linearGradient>
<linearGradient id="paint4_linear_6_28" x1="34.1935" y1="46.556" x2="34.1935" y2="63.8698" gradientUnits="userSpaceOnUse">
<stop stop-color="#2D2D2D" stop-opacity="0"/>
<stop offset="1" stop-color="#2D2D2D" stop-opacity="0.1"/>
</linearGradient>
<linearGradient id="paint5_linear_6_28" x1="40.0661" y1="69.0967" x2="40.0661" y2="80.227" gradientUnits="userSpaceOnUse">
<stop stop-color="#2D2D2D" stop-opacity="0"/>
<stop offset="1" stop-color="#2D2D2D" stop-opacity="0.1"/>
</linearGradient>
</defs>
</svg>
