<svg width="100" height="100" viewBox="0 0 100 100" fill="none" xmlns="http://www.w3.org/2000/svg">
<g style="mix-blend-mode:hard-light" filter="url(#filter0_dii_6_2)">
<path d="M76 49.5C76 34.8645 64.1355 23 49.5 23C34.8645 23 23 34.8645 23 49.5V50.5C23 65.1355 34.8645 77 49.5 77C64.1355 77 76 65.1355 76 50.5V49.5Z" fill="#FECB49"/>
<path d="M76 49.5C76 34.8645 64.1355 23 49.5 23C34.8645 23 23 34.8645 23 49.5V50.5C23 65.1355 34.8645 77 49.5 77C64.1355 77 76 65.1355 76 50.5V49.5Z" fill="url(#paint0_linear_6_2)"/>
</g>
<g style="mix-blend-mode:hard-light" filter="url(#filter1_diii_6_2)">
<path fill-rule="evenodd" clip-rule="evenodd" d="M46.5185 47C38.5002 47 32 53.775 32 62.1324C32 70.3382 38.2666 77.0183 46.0839 77.2582C46.1899 77.2625 46.2963 77.2647 46.4032 77.2647H46.506C46.5102 77.2647 46.5144 77.2647 46.5185 77.2647H46.9793C46.9835 77.2647 46.9876 77.2647 46.9918 77.2647H68.3991C72.7334 77.2647 76.247 73.6025 76.247 69.085C76.247 64.5676 72.7334 60.9054 68.3991 60.9054H61.4508C60.8516 53.1218 54.6013 47 46.9793 47H46.5185Z" fill="#F0F0F2" fill-opacity="0.8"/>
<path fill-rule="evenodd" clip-rule="evenodd" d="M46.5185 47C38.5002 47 32 53.775 32 62.1324C32 70.3382 38.2666 77.0183 46.0839 77.2582C46.1899 77.2625 46.2963 77.2647 46.4032 77.2647H46.506C46.5102 77.2647 46.5144 77.2647 46.5185 77.2647H46.9793C46.9835 77.2647 46.9876 77.2647 46.9918 77.2647H68.3991C72.7334 77.2647 76.247 73.6025 76.247 69.085C76.247 64.5676 72.7334 60.9054 68.3991 60.9054H61.4508C60.8516 53.1218 54.6013 47 46.9793 47H46.5185Z" fill="url(#paint1_linear_6_2)"/>
</g>
<defs>
<filter id="filter0_dii_6_2" x="19" y="19" width="61" height="66" filterUnits="userSpaceOnUse" color-interpolation-filters="sRGB">
<feFlood flood-opacity="0" result="BackgroundImageFix"/>
<feColorMatrix in="SourceAlpha" type="matrix" values="0 0 0 0 0 0 0 0 0 0 0 0 0 0 0 0 0 0 127 0" result="hardAlpha"/>
<feOffset dy="4"/>
<feGaussianBlur stdDeviation="2"/>
<feComposite in2="hardAlpha" operator="out"/>
<feColorMatrix type="matrix" values="0 0 0 0 0 0 0 0 0 0 0 0 0 0 0 0 0 0 0.1 0"/>
<feBlend mode="normal" in2="BackgroundImageFix" result="effect1_dropShadow_6_2"/>
<feBlend mode="normal" in="SourceGraphic" in2="effect1_dropShadow_6_2" result="shape"/>
<feColorMatrix in="SourceAlpha" type="matrix" values="0 0 0 0 0 0 0 0 0 0 0 0 0 0 0 0 0 0 127 0" result="hardAlpha"/>
<feOffset dy="-4"/>
<feGaussianBlur stdDeviation="2"/>
<feComposite in2="hardAlpha" operator="arithmetic" k2="-1" k3="1"/>
<feColorMatrix type="matrix" values="0 0 0 0 0.176471 0 0 0 0 0.176471 0 0 0 0 0.176471 0 0 0 0.25 0"/>
<feBlend mode="normal" in2="shape" result="effect2_innerShadow_6_2"/>
<feColorMatrix in="SourceAlpha" type="matrix" values="0 0 0 0 0 0 0 0 0 0 0 0 0 0 0 0 0 0 127 0" result="hardAlpha"/>
<feOffset dy="4"/>
<feGaussianBlur stdDeviation="2"/>
<feComposite in2="hardAlpha" operator="arithmetic" k2="-1" k3="1"/>
<feColorMatrix type="matrix" values="0 0 0 0 0.941176 0 0 0 0 0.941176 0 0 0 0 0.94902 0 0 0 0.2 0"/>
<feBlend mode="normal" in2="effect2_innerShadow_6_2" result="effect3_innerShadow_6_2"/>
</filter>
<filter id="filter1_diii_6_2" x="28" y="43" width="52.247" height="42.2647" filterUnits="userSpaceOnUse" color-interpolation-filters="sRGB">
<feFlood flood-opacity="0" result="BackgroundImageFix"/>
<feColorMatrix in="SourceAlpha" type="matrix" values="0 0 0 0 0 0 0 0 0 0 0 0 0 0 0 0 0 0 127 0" result="hardAlpha"/>
<feOffset dy="4"/>
<feGaussianBlur stdDeviation="2"/>
<feComposite in2="hardAlpha" operator="out"/>
<feColorMatrix type="matrix" values="0 0 0 0 0 0 0 0 0 0 0 0 0 0 0 0 0 0 0.1 0"/>
<feBlend mode="normal" in2="BackgroundImageFix" result="effect1_dropShadow_6_2"/>
<feBlend mode="normal" in="SourceGraphic" in2="effect1_dropShadow_6_2" result="shape"/>
<feColorMatrix in="SourceAlpha" type="matrix" values="0 0 0 0 0 0 0 0 0 0 0 0 0 0 0 0 0 0 127 0" result="hardAlpha"/>
<feOffset dy="-4"/>
<feGaussianBlur stdDeviation="2"/>
<feComposite in2="hardAlpha" operator="arithmetic" k2="-1" k3="1"/>
<feColorMatrix type="matrix" values="0 0 0 0 0.176471 0 0 0 0 0.176471 0 0 0 0 0.176471 0 0 0 0.25 0"/>
<feBlend mode="normal" in2="shape" result="effect2_innerShadow_6_2"/>
<feColorMatrix in="SourceAlpha" type="matrix" values="0 0 0 0 0 0 0 0 0 0 0 0 0 0 0 0 0 0 127 0" result="hardAlpha"/>
<feOffset dy="4"/>
<feGaussianBlur stdDeviation="2"/>
<feComposite in2="hardAlpha" operator="arithmetic" k2="-1" k3="1"/>
<feColorMatrix type="matrix" values="0 0 0 0 0.996078 0 0 0 0 0.796079 0 0 0 0 0.286274 0 0 0 0.25 0"/>
<feBlend mode="normal" in2="effect2_innerShadow_6_2" result="effect3_innerShadow_6_2"/>
<feColorMatrix in="SourceAlpha" type="matrix" values="0 0 0 0 0 0 0 0 0 0 0 0 0 0 0 0 0 0 127 0" result="hardAlpha"/>
<feOffset dy="4"/>
<feGaussianBlur stdDeviation="2"/>
<feComposite in2="hardAlpha" operator="arithmetic" k2="-1" k3="1"/>
<feColorMatrix type="matrix" values="0 0 0 0 0.941176 0 0 0 0 0.941176 0 0 0 0 0.94902 0 0 0 0.25 0"/>
<feBlend mode="normal" in2="effect3_innerShadow_6_2" result="effect4_innerShadow_6_2"/>
</filter>
<linearGradient id="paint0_linear_6_2" x1="49.5" y1="23" x2="49.5" y2="77" gradientUnits="userSpaceOnUse">
<stop stop-color="#2D2D2D" stop-opacity="0"/>
<stop offset="1" stop-color="#2D2D2D" stop-opacity="0.1"/>
</linearGradient>
<linearGradient id="paint1_linear_6_2" x1="61.0883" y1="47" x2="61.0883" y2="77.2647" gradientUnits="userSpaceOnUse">
<stop stop-color="#2D2D2D" stop-opacity="0"/>
<stop offset="1" stop-color="#2D2D2D" stop-opacity="0.2"/>
</linearGradient>
</defs>
</svg>
