<svg xmlns="http://www.w3.org/2000/svg" width="100" height="100" fill="none" viewBox="0 0 100 100"><g style="mix-blend-mode:hard-light" filter="url(#filter0_dii_6_9)"><path fill="#D7C5E9" d="M82 68.9301C60.3578 68.9301 45.7494 41.8149 64.3548 22C47.9867 22 25.744 44.2212 38.1747 64.7586C50.6053 85.296 82 77.2733 82 68.9301Z"/><path fill="url(#paint0_linear_6_9)" d="M82 68.9301C60.3578 68.9301 45.7494 41.8149 64.3548 22C47.9867 22 25.744 44.2212 38.1747 64.7586C50.6053 85.296 82 77.2733 82 68.9301Z"/></g><g style="mix-blend-mode:hard-light" filter="url(#filter1_diii_6_9)"><path fill="#F0F0F2" fill-opacity=".8" fill-rule="evenodd" d="M34.0204 46.1811C25.1726 46.1811 18 53.304 18 62.0906C18 70.7178 24.9149 77.7409 33.5409 77.9932C33.6578 77.9977 33.7752 78 33.8932 78H34.0066C34.0112 78 34.0159 78 34.0204 78H34.5289C34.5335 78 34.5381 78 34.5427 78H58.1646C62.9472 78 66.8243 74.1498 66.8243 69.4003C66.8243 64.6508 62.9472 60.8006 58.1646 60.8006H50.4974C49.8362 52.6173 42.9394 46.1811 34.5289 46.1811H34.0204Z" clip-rule="evenodd"/><path fill="url(#paint1_linear_6_9)" fill-rule="evenodd" d="M34.0204 46.1811C25.1726 46.1811 18 53.304 18 62.0906C18 70.7178 24.9149 77.7409 33.5409 77.9932C33.6578 77.9977 33.7752 78 33.8932 78H34.0066C34.0112 78 34.0159 78 34.0204 78H34.5289C34.5335 78 34.5381 78 34.5427 78H58.1646C62.9472 78 66.8243 74.1498 66.8243 69.4003C66.8243 64.6508 62.9472 60.8006 58.1646 60.8006H50.4974C49.8362 52.6173 42.9394 46.1811 34.5289 46.1811H34.0204Z" clip-rule="evenodd"/></g><defs><filter id="filter0_dii_6_9" width="55.448" height="67.722" x="30.552" y="18" color-interpolation-filters="sRGB" filterUnits="userSpaceOnUse"><feFlood flood-opacity="0" result="BackgroundImageFix"/><feColorMatrix in="SourceAlpha" result="hardAlpha" type="matrix" values="0 0 0 0 0 0 0 0 0 0 0 0 0 0 0 0 0 0 127 0"/><feOffset dy="4"/><feGaussianBlur stdDeviation="2"/><feComposite in2="hardAlpha" operator="out"/><feColorMatrix type="matrix" values="0 0 0 0 0 0 0 0 0 0 0 0 0 0 0 0 0 0 0.1 0"/><feBlend in2="BackgroundImageFix" mode="normal" result="effect1_dropShadow_6_9"/><feBlend in="SourceGraphic" in2="effect1_dropShadow_6_9" mode="normal" result="shape"/><feColorMatrix in="SourceAlpha" result="hardAlpha" type="matrix" values="0 0 0 0 0 0 0 0 0 0 0 0 0 0 0 0 0 0 127 0"/><feOffset dy="-4"/><feGaussianBlur stdDeviation="2"/><feComposite in2="hardAlpha" k2="-1" k3="1" operator="arithmetic"/><feColorMatrix type="matrix" values="0 0 0 0 0.176471 0 0 0 0 0.176471 0 0 0 0 0.176471 0 0 0 0.25 0"/><feBlend in2="shape" mode="normal" result="effect2_innerShadow_6_9"/><feColorMatrix in="SourceAlpha" result="hardAlpha" type="matrix" values="0 0 0 0 0 0 0 0 0 0 0 0 0 0 0 0 0 0 127 0"/><feOffset dy="4"/><feGaussianBlur stdDeviation="2"/><feComposite in2="hardAlpha" k2="-1" k3="1" operator="arithmetic"/><feColorMatrix type="matrix" values="0 0 0 0 0.941176 0 0 0 0 0.941176 0 0 0 0 0.94902 0 0 0 0.2 0"/><feBlend in2="effect2_innerShadow_6_9" mode="normal" result="effect3_innerShadow_6_9"/></filter><filter id="filter1_diii_6_9" width="56.824" height="43.819" x="14" y="42.181" color-interpolation-filters="sRGB" filterUnits="userSpaceOnUse"><feFlood flood-opacity="0" result="BackgroundImageFix"/><feColorMatrix in="SourceAlpha" result="hardAlpha" type="matrix" values="0 0 0 0 0 0 0 0 0 0 0 0 0 0 0 0 0 0 127 0"/><feOffset dy="4"/><feGaussianBlur stdDeviation="2"/><feComposite in2="hardAlpha" operator="out"/><feColorMatrix type="matrix" values="0 0 0 0 0 0 0 0 0 0 0 0 0 0 0 0 0 0 0.1 0"/><feBlend in2="BackgroundImageFix" mode="normal" result="effect1_dropShadow_6_9"/><feBlend in="SourceGraphic" in2="effect1_dropShadow_6_9" mode="normal" result="shape"/><feColorMatrix in="SourceAlpha" result="hardAlpha" type="matrix" values="0 0 0 0 0 0 0 0 0 0 0 0 0 0 0 0 0 0 127 0"/><feOffset dy="-4"/><feGaussianBlur stdDeviation="2"/><feComposite in2="hardAlpha" k2="-1" k3="1" operator="arithmetic"/><feColorMatrix type="matrix" values="0 0 0 0 0.176471 0 0 0 0 0.176471 0 0 0 0 0.176471 0 0 0 0.25 0"/><feBlend in2="shape" mode="normal" result="effect2_innerShadow_6_9"/><feColorMatrix in="SourceAlpha" result="hardAlpha" type="matrix" values="0 0 0 0 0 0 0 0 0 0 0 0 0 0 0 0 0 0 127 0"/><feOffset dy="4"/><feGaussianBlur stdDeviation="2"/><feComposite in2="hardAlpha" k2="-1" k3="1" operator="arithmetic"/><feColorMatrix type="matrix" values="0 0 0 0 0.996078 0 0 0 0 0.796079 0 0 0 0 0.286274 0 0 0 0.25 0"/><feBlend in2="effect2_innerShadow_6_9" mode="normal" result="effect3_innerShadow_6_9"/><feColorMatrix in="SourceAlpha" result="hardAlpha" type="matrix" values="0 0 0 0 0 0 0 0 0 0 0 0 0 0 0 0 0 0 127 0"/><feOffset dy="4"/><feGaussianBlur stdDeviation="2"/><feComposite in2="hardAlpha" k2="-1" k3="1" operator="arithmetic"/><feColorMatrix type="matrix" values="0 0 0 0 0.941176 0 0 0 0 0.941176 0 0 0 0 0.94902 0 0 0 0.25 0"/><feBlend in2="effect3_innerShadow_6_9" mode="normal" result="effect4_innerShadow_6_9"/></filter><linearGradient id="paint0_linear_6_9" x1="74.201" x2="74.201" y1="20.73" y2="73.051" gradientUnits="userSpaceOnUse"><stop stop-color="#2D2D2D" stop-opacity="0"/><stop offset="1" stop-color="#2D2D2D" stop-opacity=".1"/></linearGradient><linearGradient id="paint1_linear_6_9" x1="50.097" x2="50.097" y1="46.181" y2="78" gradientUnits="userSpaceOnUse"><stop stop-color="#2D2D2D" stop-opacity="0"/><stop offset="1" stop-color="#2D2D2D" stop-opacity=".2"/></linearGradient></defs></svg>