<svg xmlns="http://www.w3.org/2000/svg" width="100" height="100" fill="none" viewBox="0 0 100 100"><g style="mix-blend-mode:hard-light" filter="url(#filter0_dii_6_2)"><path fill="#FECB49" d="M81.7031 49.2542C81.7031 31.993 67.4427 18 49.8516 18C32.2604 18 18 31.993 18 49.2542V50.4336C18 67.6948 32.2604 81.6878 49.8516 81.6878C67.4427 81.6878 81.7031 67.6948 81.7031 50.4336V49.2542Z"/><path fill="url(#paint0_linear_6_2)" d="M81.7031 49.2542C81.7031 31.993 67.4427 18 49.8516 18C32.2604 18 18 31.993 18 49.2542V50.4336C18 67.6948 32.2604 81.6878 49.8516 81.6878C67.4427 81.6878 81.7031 67.6948 81.7031 50.4336V49.2542Z"/></g><g style="mix-blend-mode:hard-light" filter="url(#filter1_diii_6_2)"><path fill="#F0F0F2" fill-opacity=".8" fill-rule="evenodd" d="M46.268 46.3057C36.6303 46.3057 28.8175 54.2961 28.8175 64.1528C28.8175 73.8309 36.3496 81.7093 45.7456 81.9924C45.8729 81.9975 46.0008 82 46.1294 82H46.2529C46.2579 82 46.263 82 46.268 82H46.8218C46.8268 82 46.8318 82 46.8369 82H72.5673C77.7768 82 82 77.6808 82 72.3528C82 67.025 77.7768 62.7058 72.5673 62.7058H64.2157C63.4955 53.5258 55.9831 46.3057 46.8218 46.3057H46.268Z" clip-rule="evenodd"/><path fill="url(#paint1_linear_6_2)" fill-rule="evenodd" d="M46.268 46.3057C36.6303 46.3057 28.8175 54.2961 28.8175 64.1528C28.8175 73.8309 36.3496 81.7093 45.7456 81.9924C45.8729 81.9975 46.0008 82 46.1294 82H46.2529C46.2579 82 46.263 82 46.268 82H46.8218C46.8268 82 46.8318 82 46.8369 82H72.5673C77.7768 82 82 77.6808 82 72.3528C82 67.025 77.7768 62.7058 72.5673 62.7058H64.2157C63.4955 53.5258 55.9831 46.3057 46.8218 46.3057H46.268Z" clip-rule="evenodd"/></g><defs><filter id="filter0_dii_6_2" width="71.703" height="75.688" x="14" y="14" color-interpolation-filters="sRGB" filterUnits="userSpaceOnUse"><feFlood flood-opacity="0" result="BackgroundImageFix"/><feColorMatrix in="SourceAlpha" result="hardAlpha" type="matrix" values="0 0 0 0 0 0 0 0 0 0 0 0 0 0 0 0 0 0 127 0"/><feOffset dy="4"/><feGaussianBlur stdDeviation="2"/><feComposite in2="hardAlpha" operator="out"/><feColorMatrix type="matrix" values="0 0 0 0 0 0 0 0 0 0 0 0 0 0 0 0 0 0 0.1 0"/><feBlend in2="BackgroundImageFix" mode="normal" result="effect1_dropShadow_6_2"/><feBlend in="SourceGraphic" in2="effect1_dropShadow_6_2" mode="normal" result="shape"/><feColorMatrix in="SourceAlpha" result="hardAlpha" type="matrix" values="0 0 0 0 0 0 0 0 0 0 0 0 0 0 0 0 0 0 127 0"/><feOffset dy="-4"/><feGaussianBlur stdDeviation="2"/><feComposite in2="hardAlpha" k2="-1" k3="1" operator="arithmetic"/><feColorMatrix type="matrix" values="0 0 0 0 0.176471 0 0 0 0 0.176471 0 0 0 0 0.176471 0 0 0 0.25 0"/><feBlend in2="shape" mode="normal" result="effect2_innerShadow_6_2"/><feColorMatrix in="SourceAlpha" result="hardAlpha" type="matrix" values="0 0 0 0 0 0 0 0 0 0 0 0 0 0 0 0 0 0 127 0"/><feOffset dy="4"/><feGaussianBlur stdDeviation="2"/><feComposite in2="hardAlpha" k2="-1" k3="1" operator="arithmetic"/><feColorMatrix type="matrix" values="0 0 0 0 0.941176 0 0 0 0 0.941176 0 0 0 0 0.94902 0 0 0 0.2 0"/><feBlend in2="effect2_innerShadow_6_2" mode="normal" result="effect3_innerShadow_6_2"/></filter><filter id="filter1_diii_6_2" width="61.182" height="47.694" x="24.817" y="42.306" color-interpolation-filters="sRGB" filterUnits="userSpaceOnUse"><feFlood flood-opacity="0" result="BackgroundImageFix"/><feColorMatrix in="SourceAlpha" result="hardAlpha" type="matrix" values="0 0 0 0 0 0 0 0 0 0 0 0 0 0 0 0 0 0 127 0"/><feOffset dy="4"/><feGaussianBlur stdDeviation="2"/><feComposite in2="hardAlpha" operator="out"/><feColorMatrix type="matrix" values="0 0 0 0 0 0 0 0 0 0 0 0 0 0 0 0 0 0 0.1 0"/><feBlend in2="BackgroundImageFix" mode="normal" result="effect1_dropShadow_6_2"/><feBlend in="SourceGraphic" in2="effect1_dropShadow_6_2" mode="normal" result="shape"/><feColorMatrix in="SourceAlpha" result="hardAlpha" type="matrix" values="0 0 0 0 0 0 0 0 0 0 0 0 0 0 0 0 0 0 127 0"/><feOffset dy="-4"/><feGaussianBlur stdDeviation="2"/><feComposite in2="hardAlpha" k2="-1" k3="1" operator="arithmetic"/><feColorMatrix type="matrix" values="0 0 0 0 0.176471 0 0 0 0 0.176471 0 0 0 0 0.176471 0 0 0 0.25 0"/><feBlend in2="shape" mode="normal" result="effect2_innerShadow_6_2"/><feColorMatrix in="SourceAlpha" result="hardAlpha" type="matrix" values="0 0 0 0 0 0 0 0 0 0 0 0 0 0 0 0 0 0 127 0"/><feOffset dy="4"/><feGaussianBlur stdDeviation="2"/><feComposite in2="hardAlpha" k2="-1" k3="1" operator="arithmetic"/><feColorMatrix type="matrix" values="0 0 0 0 0.996078 0 0 0 0 0.796079 0 0 0 0 0.286274 0 0 0 0.25 0"/><feBlend in2="effect2_innerShadow_6_2" mode="normal" result="effect3_innerShadow_6_2"/><feColorMatrix in="SourceAlpha" result="hardAlpha" type="matrix" values="0 0 0 0 0 0 0 0 0 0 0 0 0 0 0 0 0 0 127 0"/><feOffset dy="4"/><feGaussianBlur stdDeviation="2"/><feComposite in2="hardAlpha" k2="-1" k3="1" operator="arithmetic"/><feColorMatrix type="matrix" values="0 0 0 0 0.941176 0 0 0 0 0.941176 0 0 0 0 0.94902 0 0 0 0.25 0"/><feBlend in2="effect3_innerShadow_6_2" mode="normal" result="effect4_innerShadow_6_2"/></filter><linearGradient id="paint0_linear_6_2" x1="49.852" x2="49.852" y1="18" y2="81.688" gradientUnits="userSpaceOnUse"><stop stop-color="#2D2D2D" stop-opacity="0"/><stop offset="1" stop-color="#2D2D2D" stop-opacity=".1"/></linearGradient><linearGradient id="paint1_linear_6_2" x1="63.78" x2="63.78" y1="46.306" y2="82" gradientUnits="userSpaceOnUse"><stop stop-color="#2D2D2D" stop-opacity="0"/><stop offset="1" stop-color="#2D2D2D" stop-opacity=".2"/></linearGradient></defs></svg>