<svg width="100" height="100" viewBox="0 0 100 100" fill="none" xmlns="http://www.w3.org/2000/svg">
<g style="mix-blend-mode:hard-light" filter="url(#filter0_dii_6_36)">
<path d="M61.3611 38.0082C70.6805 29.4658 56.1837 21.7935 47.7703 19.0252C62.224 14.6749 96.7903 24.5417 74.9519 41.5675C59.4466 53.6559 31.5908 53.4319 18 41.5675C28.5706 43.9404 52.0417 46.5505 61.3611 38.0082Z" fill="#D9D9D9"/>
<path d="M61.3611 38.0082C70.6805 29.4658 56.1837 21.7935 47.7703 19.0252C62.224 14.6749 96.7903 24.5417 74.9519 41.5675C59.4466 53.6559 31.5908 53.4319 18 41.5675C28.5706 43.9404 52.0417 46.5505 61.3611 38.0082Z" fill="url(#paint0_linear_6_36)"/>
</g>
<g style="mix-blend-mode:hard-light" filter="url(#filter1_dii_6_36)">
<path d="M44.5631 68.5978C50.2721 74.3198 41.3914 79.4589 36.2374 81.3133C45.0917 84.2273 66.2669 77.6181 52.8888 66.2136C43.3902 58.1164 26.3259 58.2664 18.0002 66.2136C24.4757 64.6242 38.8541 62.8758 44.5631 68.5978Z" fill="#D9D9D9"/>
<path d="M44.5631 68.5978C50.2721 74.3198 41.3914 79.4589 36.2374 81.3133C45.0917 84.2273 66.2669 77.6181 52.8888 66.2136C43.3902 58.1164 26.3259 58.2664 18.0002 66.2136C24.4757 64.6242 38.8541 62.8758 44.5631 68.5978Z" fill="url(#paint1_linear_6_36)"/>
</g>
<g style="mix-blend-mode:hard-light" filter="url(#filter2_dii_6_36)">
<path d="M63.5171 63.8307C69.2261 69.5527 66.9908 75.0583 61.8368 76.9126C70.6911 79.8266 85.8566 71.804 72.4785 60.3995C62.98 52.3022 26.4755 49.3425 18.1498 57.2897C24.6254 55.7003 57.808 58.1087 63.5171 63.8307Z" fill="#D9D9D9"/>
<path d="M63.5171 63.8307C69.2261 69.5527 66.9908 75.0583 61.8368 76.9126C70.6911 79.8266 85.8566 71.804 72.4785 60.3995C62.98 52.3022 26.4755 49.3425 18.1498 57.2897C24.6254 55.7003 57.808 58.1087 63.5171 63.8307Z" fill="url(#paint2_linear_6_36)"/>
</g>
<defs>
<filter id="filter0_dii_6_36" x="14" y="14" width="72" height="44.55" filterUnits="userSpaceOnUse" color-interpolation-filters="sRGB">
<feFlood flood-opacity="0" result="BackgroundImageFix"/>
<feColorMatrix in="SourceAlpha" type="matrix" values="0 0 0 0 0 0 0 0 0 0 0 0 0 0 0 0 0 0 127 0" result="hardAlpha"/>
<feOffset dy="4"/>
<feGaussianBlur stdDeviation="2"/>
<feComposite in2="hardAlpha" operator="out"/>
<feColorMatrix type="matrix" values="0 0 0 0 0 0 0 0 0 0 0 0 0 0 0 0 0 0 0.1 0"/>
<feBlend mode="normal" in2="BackgroundImageFix" result="effect1_dropShadow_6_36"/>
<feBlend mode="normal" in="SourceGraphic" in2="effect1_dropShadow_6_36" result="shape"/>
<feColorMatrix in="SourceAlpha" type="matrix" values="0 0 0 0 0 0 0 0 0 0 0 0 0 0 0 0 0 0 127 0" result="hardAlpha"/>
<feOffset dy="-4"/>
<feGaussianBlur stdDeviation="2"/>
<feComposite in2="hardAlpha" operator="arithmetic" k2="-1" k3="1"/>
<feColorMatrix type="matrix" values="0 0 0 0 0.176471 0 0 0 0 0.176471 0 0 0 0 0.176471 0 0 0 0.25 0"/>
<feBlend mode="normal" in2="shape" result="effect2_innerShadow_6_36"/>
<feColorMatrix in="SourceAlpha" type="matrix" values="0 0 0 0 0 0 0 0 0 0 0 0 0 0 0 0 0 0 127 0" result="hardAlpha"/>
<feOffset dy="4"/>
<feGaussianBlur stdDeviation="2"/>
<feComposite in2="hardAlpha" operator="arithmetic" k2="-1" k3="1"/>
<feColorMatrix type="matrix" values="0 0 0 0 0.941176 0 0 0 0 0.941176 0 0 0 0 0.94902 0 0 0 0.2 0"/>
<feBlend mode="normal" in2="effect2_innerShadow_6_36" result="effect3_innerShadow_6_36"/>
</filter>
<filter id="filter1_dii_6_36" x="14.0001" y="56.1968" width="47.2063" height="33.8032" filterUnits="userSpaceOnUse" color-interpolation-filters="sRGB">
<feFlood flood-opacity="0" result="BackgroundImageFix"/>
<feColorMatrix in="SourceAlpha" type="matrix" values="0 0 0 0 0 0 0 0 0 0 0 0 0 0 0 0 0 0 127 0" result="hardAlpha"/>
<feOffset dy="4"/>
<feGaussianBlur stdDeviation="2"/>
<feComposite in2="hardAlpha" operator="out"/>
<feColorMatrix type="matrix" values="0 0 0 0 0 0 0 0 0 0 0 0 0 0 0 0 0 0 0.1 0"/>
<feBlend mode="normal" in2="BackgroundImageFix" result="effect1_dropShadow_6_36"/>
<feBlend mode="normal" in="SourceGraphic" in2="effect1_dropShadow_6_36" result="shape"/>
<feColorMatrix in="SourceAlpha" type="matrix" values="0 0 0 0 0 0 0 0 0 0 0 0 0 0 0 0 0 0 127 0" result="hardAlpha"/>
<feOffset dy="-4"/>
<feGaussianBlur stdDeviation="2"/>
<feComposite in2="hardAlpha" operator="arithmetic" k2="-1" k3="1"/>
<feColorMatrix type="matrix" values="0 0 0 0 0.176471 0 0 0 0 0.176471 0 0 0 0 0.176471 0 0 0 0.25 0"/>
<feBlend mode="normal" in2="shape" result="effect2_innerShadow_6_36"/>
<feColorMatrix in="SourceAlpha" type="matrix" values="0 0 0 0 0 0 0 0 0 0 0 0 0 0 0 0 0 0 127 0" result="hardAlpha"/>
<feOffset dy="4"/>
<feGaussianBlur stdDeviation="2"/>
<feComposite in2="hardAlpha" operator="arithmetic" k2="-1" k3="1"/>
<feColorMatrix type="matrix" values="0 0 0 0 0.941176 0 0 0 0 0.941176 0 0 0 0 0.94902 0 0 0 0.2 0"/>
<feBlend mode="normal" in2="effect2_innerShadow_6_36" result="effect3_innerShadow_6_36"/>
</filter>
<filter id="filter2_dii_6_36" x="14.1498" y="48.6173" width="67.6187" height="36.8968" filterUnits="userSpaceOnUse" color-interpolation-filters="sRGB">
<feFlood flood-opacity="0" result="BackgroundImageFix"/>
<feColorMatrix in="SourceAlpha" type="matrix" values="0 0 0 0 0 0 0 0 0 0 0 0 0 0 0 0 0 0 127 0" result="hardAlpha"/>
<feOffset dy="4"/>
<feGaussianBlur stdDeviation="2"/>
<feComposite in2="hardAlpha" operator="out"/>
<feColorMatrix type="matrix" values="0 0 0 0 0 0 0 0 0 0 0 0 0 0 0 0 0 0 0.1 0"/>
<feBlend mode="normal" in2="BackgroundImageFix" result="effect1_dropShadow_6_36"/>
<feBlend mode="normal" in="SourceGraphic" in2="effect1_dropShadow_6_36" result="shape"/>
<feColorMatrix in="SourceAlpha" type="matrix" values="0 0 0 0 0 0 0 0 0 0 0 0 0 0 0 0 0 0 127 0" result="hardAlpha"/>
<feOffset dy="-4"/>
<feGaussianBlur stdDeviation="2"/>
<feComposite in2="hardAlpha" operator="arithmetic" k2="-1" k3="1"/>
<feColorMatrix type="matrix" values="0 0 0 0 0.176471 0 0 0 0 0.176471 0 0 0 0 0.176471 0 0 0 0.25 0"/>
<feBlend mode="normal" in2="shape" result="effect2_innerShadow_6_36"/>
<feColorMatrix in="SourceAlpha" type="matrix" values="0 0 0 0 0 0 0 0 0 0 0 0 0 0 0 0 0 0 127 0" result="hardAlpha"/>
<feOffset dy="4"/>
<feGaussianBlur stdDeviation="2"/>
<feComposite in2="hardAlpha" operator="arithmetic" k2="-1" k3="1"/>
<feColorMatrix type="matrix" values="0 0 0 0 0.941176 0 0 0 0 0.941176 0 0 0 0 0.94902 0 0 0 0.2 0"/>
<feBlend mode="normal" in2="effect2_innerShadow_6_36" result="effect3_innerShadow_6_36"/>
</filter>
<linearGradient id="paint0_linear_6_36" x1="27.9426" y1="15.6631" x2="27.9426" y2="53.878" gradientUnits="userSpaceOnUse">
<stop stop-color="#2D2D2D" stop-opacity="0"/>
<stop offset="1" stop-color="#2D2D2D" stop-opacity="0.1"/>
</linearGradient>
<linearGradient id="paint1_linear_6_36" x1="24.091" y1="83.5653" x2="24.091" y2="57.9676" gradientUnits="userSpaceOnUse">
<stop stop-color="#2D2D2D" stop-opacity="0"/>
<stop offset="1" stop-color="#2D2D2D" stop-opacity="0.1"/>
</linearGradient>
<linearGradient id="paint2_linear_6_36" x1="24.2409" y1="77.7511" x2="24.2409" y2="52.1534" gradientUnits="userSpaceOnUse">
<stop stop-color="#2D2D2D" stop-opacity="0"/>
<stop offset="1" stop-color="#2D2D2D" stop-opacity="0.1"/>
</linearGradient>
</defs>
</svg>
