<svg width="100" height="100" viewBox="0 0 100 100" fill="none" xmlns="http://www.w3.org/2000/svg">
<g filter="url(#filter0_diii_5_66)">
<path fill-rule="evenodd" clip-rule="evenodd" d="M38.7319 43.9443C40.2789 44.3361 41.1818 45.7881 40.7487 47.1875L30.5678 80.0776C30.1347 81.4769 28.5294 82.2937 26.9824 81.9019C25.4354 81.5101 24.5325 80.058 24.9656 78.6587L35.1465 45.7686C35.5797 44.3692 37.1849 43.5525 38.7319 43.9443Z" fill="#6AC9FF"/>
<path fill-rule="evenodd" clip-rule="evenodd" d="M38.7319 43.9443C40.2789 44.3361 41.1818 45.7881 40.7487 47.1875L30.5678 80.0776C30.1347 81.4769 28.5294 82.2937 26.9824 81.9019C25.4354 81.5101 24.5325 80.058 24.9656 78.6587L35.1465 45.7686C35.5797 44.3692 37.1849 43.5525 38.7319 43.9443Z" fill="url(#paint0_linear_5_66)"/>
</g>
<g filter="url(#filter1_diii_5_66)">
<path fill-rule="evenodd" clip-rule="evenodd" d="M54.7318 43.9443C56.2788 44.3361 57.1817 45.7881 56.7486 47.1875L46.5677 80.0776C46.1345 81.4769 44.5293 82.2937 42.9823 81.9019C41.4353 81.5101 40.5324 80.058 40.9655 78.6587L51.1464 45.7686C51.5795 44.3692 53.1848 43.5525 54.7318 43.9443Z" fill="#6AC9FF"/>
<path fill-rule="evenodd" clip-rule="evenodd" d="M54.7318 43.9443C56.2788 44.3361 57.1817 45.7881 56.7486 47.1875L46.5677 80.0776C46.1345 81.4769 44.5293 82.2937 42.9823 81.9019C41.4353 81.5101 40.5324 80.058 40.9655 78.6587L51.1464 45.7686C51.5795 44.3692 53.1848 43.5525 54.7318 43.9443Z" fill="url(#paint1_linear_5_66)"/>
</g>
<g filter="url(#filter2_diii_5_66)">
<path fill-rule="evenodd" clip-rule="evenodd" d="M71.7228 43.9443C73.3803 44.3361 74.3478 45.7881 73.8837 47.1875L62.9756 80.0776C62.5115 81.4769 60.7916 82.2937 59.1341 81.9019C57.4766 81.5101 56.5092 80.058 56.9733 78.6587L67.8813 45.7686C68.3454 44.3692 70.0653 43.5525 71.7228 43.9443Z" fill="#6AC9FF"/>
<path fill-rule="evenodd" clip-rule="evenodd" d="M71.7228 43.9443C73.3803 44.3361 74.3478 45.7881 73.8837 47.1875L62.9756 80.0776C62.5115 81.4769 60.7916 82.2937 59.1341 81.9019C57.4766 81.5101 56.5092 80.058 56.9733 78.6587L67.8813 45.7686C68.3454 44.3692 70.0653 43.5525 71.7228 43.9443Z" fill="url(#paint2_linear_5_66)"/>
</g>
<g style="mix-blend-mode:hard-light" filter="url(#filter3_diii_5_66)">
<path fill-rule="evenodd" clip-rule="evenodd" d="M39 18C27.402 18 18 28.0623 18 40.4749C18 52.6624 27.0642 62.5838 38.3714 62.9402C38.5246 62.9466 38.6785 62.9498 38.8332 62.9498H38.9819C38.9879 62.9498 38.994 62.9498 39 62.9498H39.6665C39.6725 62.9498 39.6785 62.9498 39.6846 62.9498H70.6486C76.9178 62.9498 82 57.5107 82 50.8012C82 44.0918 76.9178 38.6526 70.6486 38.6526H60.5983C59.7316 27.0923 50.6912 18 39.6665 18H39Z" fill="#F0F0F2" fill-opacity="0.8"/>
<path fill-rule="evenodd" clip-rule="evenodd" d="M39 18C27.402 18 18 28.0623 18 40.4749C18 52.6624 27.0642 62.5838 38.3714 62.9402C38.5246 62.9466 38.6785 62.9498 38.8332 62.9498H38.9819C38.9879 62.9498 38.994 62.9498 39 62.9498H39.6665C39.6725 62.9498 39.6785 62.9498 39.6846 62.9498H70.6486C76.9178 62.9498 82 57.5107 82 50.8012C82 44.0918 76.9178 38.6526 70.6486 38.6526H60.5983C59.7316 27.0923 50.6912 18 39.6665 18H39Z" fill="url(#paint3_linear_5_66)"/>
</g>
<defs>
<filter id="filter0_diii_5_66" x="20.8572" y="39.8462" width="24" height="50.1538" filterUnits="userSpaceOnUse" color-interpolation-filters="sRGB">
<feFlood flood-opacity="0" result="BackgroundImageFix"/>
<feColorMatrix in="SourceAlpha" type="matrix" values="0 0 0 0 0 0 0 0 0 0 0 0 0 0 0 0 0 0 127 0" result="hardAlpha"/>
<feOffset dy="4"/>
<feGaussianBlur stdDeviation="2"/>
<feComposite in2="hardAlpha" operator="out"/>
<feColorMatrix type="matrix" values="0 0 0 0 0 0 0 0 0 0 0 0 0 0 0 0 0 0 0.1 0"/>
<feBlend mode="normal" in2="BackgroundImageFix" result="effect1_dropShadow_5_66"/>
<feBlend mode="normal" in="SourceGraphic" in2="effect1_dropShadow_5_66" result="shape"/>
<feColorMatrix in="SourceAlpha" type="matrix" values="0 0 0 0 0 0 0 0 0 0 0 0 0 0 0 0 0 0 127 0" result="hardAlpha"/>
<feOffset dy="-4"/>
<feGaussianBlur stdDeviation="2"/>
<feComposite in2="hardAlpha" operator="arithmetic" k2="-1" k3="1"/>
<feColorMatrix type="matrix" values="0 0 0 0 0.176471 0 0 0 0 0.176471 0 0 0 0 0.176471 0 0 0 0.25 0"/>
<feBlend mode="normal" in2="shape" result="effect2_innerShadow_5_66"/>
<feColorMatrix in="SourceAlpha" type="matrix" values="0 0 0 0 0 0 0 0 0 0 0 0 0 0 0 0 0 0 127 0" result="hardAlpha"/>
<feOffset dy="4"/>
<feGaussianBlur stdDeviation="2"/>
<feComposite in2="hardAlpha" operator="arithmetic" k2="-1" k3="1"/>
<feColorMatrix type="matrix" values="0 0 0 0 0.996078 0 0 0 0 0.796079 0 0 0 0 0.286274 0 0 0 0.25 0"/>
<feBlend mode="normal" in2="effect2_innerShadow_5_66" result="effect3_innerShadow_5_66"/>
<feColorMatrix in="SourceAlpha" type="matrix" values="0 0 0 0 0 0 0 0 0 0 0 0 0 0 0 0 0 0 127 0" result="hardAlpha"/>
<feOffset dy="4"/>
<feGaussianBlur stdDeviation="2"/>
<feComposite in2="hardAlpha" operator="arithmetic" k2="-1" k3="1"/>
<feColorMatrix type="matrix" values="0 0 0 0 0.941176 0 0 0 0 0.941176 0 0 0 0 0.94902 0 0 0 0.25 0"/>
<feBlend mode="normal" in2="effect3_innerShadow_5_66" result="effect4_innerShadow_5_66"/>
</filter>
<filter id="filter1_diii_5_66" x="36.8571" y="39.8462" width="24" height="50.1538" filterUnits="userSpaceOnUse" color-interpolation-filters="sRGB">
<feFlood flood-opacity="0" result="BackgroundImageFix"/>
<feColorMatrix in="SourceAlpha" type="matrix" values="0 0 0 0 0 0 0 0 0 0 0 0 0 0 0 0 0 0 127 0" result="hardAlpha"/>
<feOffset dy="4"/>
<feGaussianBlur stdDeviation="2"/>
<feComposite in2="hardAlpha" operator="out"/>
<feColorMatrix type="matrix" values="0 0 0 0 0 0 0 0 0 0 0 0 0 0 0 0 0 0 0.1 0"/>
<feBlend mode="normal" in2="BackgroundImageFix" result="effect1_dropShadow_5_66"/>
<feBlend mode="normal" in="SourceGraphic" in2="effect1_dropShadow_5_66" result="shape"/>
<feColorMatrix in="SourceAlpha" type="matrix" values="0 0 0 0 0 0 0 0 0 0 0 0 0 0 0 0 0 0 127 0" result="hardAlpha"/>
<feOffset dy="-4"/>
<feGaussianBlur stdDeviation="2"/>
<feComposite in2="hardAlpha" operator="arithmetic" k2="-1" k3="1"/>
<feColorMatrix type="matrix" values="0 0 0 0 0.176471 0 0 0 0 0.176471 0 0 0 0 0.176471 0 0 0 0.25 0"/>
<feBlend mode="normal" in2="shape" result="effect2_innerShadow_5_66"/>
<feColorMatrix in="SourceAlpha" type="matrix" values="0 0 0 0 0 0 0 0 0 0 0 0 0 0 0 0 0 0 127 0" result="hardAlpha"/>
<feOffset dy="4"/>
<feGaussianBlur stdDeviation="2"/>
<feComposite in2="hardAlpha" operator="arithmetic" k2="-1" k3="1"/>
<feColorMatrix type="matrix" values="0 0 0 0 0.996078 0 0 0 0 0.796079 0 0 0 0 0.286274 0 0 0 0.25 0"/>
<feBlend mode="normal" in2="effect2_innerShadow_5_66" result="effect3_innerShadow_5_66"/>
<feColorMatrix in="SourceAlpha" type="matrix" values="0 0 0 0 0 0 0 0 0 0 0 0 0 0 0 0 0 0 127 0" result="hardAlpha"/>
<feOffset dy="4"/>
<feGaussianBlur stdDeviation="2"/>
<feComposite in2="hardAlpha" operator="arithmetic" k2="-1" k3="1"/>
<feColorMatrix type="matrix" values="0 0 0 0 0.941176 0 0 0 0 0.941176 0 0 0 0 0.94902 0 0 0 0.25 0"/>
<feBlend mode="normal" in2="effect3_innerShadow_5_66" result="effect4_innerShadow_5_66"/>
</filter>
<filter id="filter2_diii_5_66" x="52.8571" y="39.8462" width="25.1428" height="50.1538" filterUnits="userSpaceOnUse" color-interpolation-filters="sRGB">
<feFlood flood-opacity="0" result="BackgroundImageFix"/>
<feColorMatrix in="SourceAlpha" type="matrix" values="0 0 0 0 0 0 0 0 0 0 0 0 0 0 0 0 0 0 127 0" result="hardAlpha"/>
<feOffset dy="4"/>
<feGaussianBlur stdDeviation="2"/>
<feComposite in2="hardAlpha" operator="out"/>
<feColorMatrix type="matrix" values="0 0 0 0 0 0 0 0 0 0 0 0 0 0 0 0 0 0 0.1 0"/>
<feBlend mode="normal" in2="BackgroundImageFix" result="effect1_dropShadow_5_66"/>
<feBlend mode="normal" in="SourceGraphic" in2="effect1_dropShadow_5_66" result="shape"/>
<feColorMatrix in="SourceAlpha" type="matrix" values="0 0 0 0 0 0 0 0 0 0 0 0 0 0 0 0 0 0 127 0" result="hardAlpha"/>
<feOffset dy="-4"/>
<feGaussianBlur stdDeviation="2"/>
<feComposite in2="hardAlpha" operator="arithmetic" k2="-1" k3="1"/>
<feColorMatrix type="matrix" values="0 0 0 0 0.176471 0 0 0 0 0.176471 0 0 0 0 0.176471 0 0 0 0.25 0"/>
<feBlend mode="normal" in2="shape" result="effect2_innerShadow_5_66"/>
<feColorMatrix in="SourceAlpha" type="matrix" values="0 0 0 0 0 0 0 0 0 0 0 0 0 0 0 0 0 0 127 0" result="hardAlpha"/>
<feOffset dy="4"/>
<feGaussianBlur stdDeviation="2"/>
<feComposite in2="hardAlpha" operator="arithmetic" k2="-1" k3="1"/>
<feColorMatrix type="matrix" values="0 0 0 0 0.996078 0 0 0 0 0.796079 0 0 0 0 0.286274 0 0 0 0.25 0"/>
<feBlend mode="normal" in2="effect2_innerShadow_5_66" result="effect3_innerShadow_5_66"/>
<feColorMatrix in="SourceAlpha" type="matrix" values="0 0 0 0 0 0 0 0 0 0 0 0 0 0 0 0 0 0 127 0" result="hardAlpha"/>
<feOffset dy="4"/>
<feGaussianBlur stdDeviation="2"/>
<feComposite in2="hardAlpha" operator="arithmetic" k2="-1" k3="1"/>
<feColorMatrix type="matrix" values="0 0 0 0 0.941176 0 0 0 0 0.941176 0 0 0 0 0.94902 0 0 0 0.25 0"/>
<feBlend mode="normal" in2="effect3_innerShadow_5_66" result="effect4_innerShadow_5_66"/>
</filter>
<filter id="filter3_diii_5_66" x="14" y="14" width="72" height="56.9498" filterUnits="userSpaceOnUse" color-interpolation-filters="sRGB">
<feFlood flood-opacity="0" result="BackgroundImageFix"/>
<feColorMatrix in="SourceAlpha" type="matrix" values="0 0 0 0 0 0 0 0 0 0 0 0 0 0 0 0 0 0 127 0" result="hardAlpha"/>
<feOffset dy="4"/>
<feGaussianBlur stdDeviation="2"/>
<feComposite in2="hardAlpha" operator="out"/>
<feColorMatrix type="matrix" values="0 0 0 0 0 0 0 0 0 0 0 0 0 0 0 0 0 0 0.1 0"/>
<feBlend mode="normal" in2="BackgroundImageFix" result="effect1_dropShadow_5_66"/>
<feBlend mode="normal" in="SourceGraphic" in2="effect1_dropShadow_5_66" result="shape"/>
<feColorMatrix in="SourceAlpha" type="matrix" values="0 0 0 0 0 0 0 0 0 0 0 0 0 0 0 0 0 0 127 0" result="hardAlpha"/>
<feOffset dy="-4"/>
<feGaussianBlur stdDeviation="2"/>
<feComposite in2="hardAlpha" operator="arithmetic" k2="-1" k3="1"/>
<feColorMatrix type="matrix" values="0 0 0 0 0.176471 0 0 0 0 0.176471 0 0 0 0 0.176471 0 0 0 0.25 0"/>
<feBlend mode="normal" in2="shape" result="effect2_innerShadow_5_66"/>
<feColorMatrix in="SourceAlpha" type="matrix" values="0 0 0 0 0 0 0 0 0 0 0 0 0 0 0 0 0 0 127 0" result="hardAlpha"/>
<feOffset dy="4"/>
<feGaussianBlur stdDeviation="2"/>
<feComposite in2="hardAlpha" operator="arithmetic" k2="-1" k3="1"/>
<feColorMatrix type="matrix" values="0 0 0 0 0.996078 0 0 0 0 0.796079 0 0 0 0 0.286274 0 0 0 0.25 0"/>
<feBlend mode="normal" in2="effect2_innerShadow_5_66" result="effect3_innerShadow_5_66"/>
<feColorMatrix in="SourceAlpha" type="matrix" values="0 0 0 0 0 0 0 0 0 0 0 0 0 0 0 0 0 0 127 0" result="hardAlpha"/>
<feOffset dy="4"/>
<feGaussianBlur stdDeviation="2"/>
<feComposite in2="hardAlpha" operator="arithmetic" k2="-1" k3="1"/>
<feColorMatrix type="matrix" values="0 0 0 0 0.941176 0 0 0 0 0.941176 0 0 0 0 0.94902 0 0 0 0.25 0"/>
<feBlend mode="normal" in2="effect3_innerShadow_5_66" result="effect4_innerShadow_5_66"/>
</filter>
<linearGradient id="paint0_linear_5_66" x1="35.3757" y1="43.8462" x2="35.3757" y2="82" gradientUnits="userSpaceOnUse">
<stop stop-color="#2D2D2D" stop-opacity="0"/>
<stop offset="1" stop-color="#2D2D2D" stop-opacity="0.2"/>
</linearGradient>
<linearGradient id="paint1_linear_5_66" x1="51.3755" y1="43.8462" x2="51.3755" y2="82" gradientUnits="userSpaceOnUse">
<stop stop-color="#2D2D2D" stop-opacity="0"/>
<stop offset="1" stop-color="#2D2D2D" stop-opacity="0.2"/>
</linearGradient>
<linearGradient id="paint2_linear_5_66" x1="68.1269" y1="43.8462" x2="68.1269" y2="82" gradientUnits="userSpaceOnUse">
<stop stop-color="#2D2D2D" stop-opacity="0"/>
<stop offset="1" stop-color="#2D2D2D" stop-opacity="0.2"/>
</linearGradient>
<linearGradient id="paint3_linear_5_66" x1="60.074" y1="18" x2="60.074" y2="62.9498" gradientUnits="userSpaceOnUse">
<stop stop-color="#2D2D2D" stop-opacity="0"/>
<stop offset="1" stop-color="#2D2D2D" stop-opacity="0.2"/>
</linearGradient>
</defs>
</svg>
