<svg width="100" height="100" viewBox="0 0 100 100" fill="none" xmlns="http://www.w3.org/2000/svg">
<g filter="url(#filter0_dii_5_52)">
<path fill-rule="evenodd" clip-rule="evenodd" d="M54.4804 23C54.4804 20.7909 52.6895 19 50.4804 19C48.2713 19 46.4804 20.7909 46.4804 23V40.0883L39.6177 32.9804C38.0832 31.3912 35.5509 31.3467 33.9617 32.8812C32.3724 34.4156 32.328 36.9479 33.8624 38.5372L40.5841 45.4988H23C20.7909 45.4988 19 47.2897 19 49.4988C19 51.708 20.7909 53.4988 23 53.4988H41.8602L33.7618 62.5318C32.2871 64.1766 32.425 66.7055 34.0699 68.1802C35.7147 69.6549 38.2436 69.517 39.7183 67.8721L46.4804 60.3298V76.9792C46.4804 79.1884 48.2713 80.9792 50.4804 80.9792C52.6895 80.9792 54.4804 79.1884 54.4804 76.9792V59.8915L61.3428 66.9989C62.8772 68.5882 65.4095 68.6326 66.9988 67.0982C68.588 65.5637 68.6324 63.0314 67.098 61.4422L59.4286 53.4988H76.9792C79.1884 53.4988 80.9792 51.708 80.9792 49.4988C80.9792 47.2897 79.1884 45.4988 76.9792 45.4988H59.7771L65.2358 39.4104C66.7105 37.7655 66.5725 35.2366 64.9277 33.7619C63.2828 32.2872 60.7539 32.4251 59.2792 34.07L54.4804 39.4225V23Z" fill="#DEFFFF"/>
<path fill-rule="evenodd" clip-rule="evenodd" d="M54.4804 23C54.4804 20.7909 52.6895 19 50.4804 19C48.2713 19 46.4804 20.7909 46.4804 23V40.0883L39.6177 32.9804C38.0832 31.3912 35.5509 31.3467 33.9617 32.8812C32.3724 34.4156 32.328 36.9479 33.8624 38.5372L40.5841 45.4988H23C20.7909 45.4988 19 47.2897 19 49.4988C19 51.708 20.7909 53.4988 23 53.4988H41.8602L33.7618 62.5318C32.2871 64.1766 32.425 66.7055 34.0699 68.1802C35.7147 69.6549 38.2436 69.517 39.7183 67.8721L46.4804 60.3298V76.9792C46.4804 79.1884 48.2713 80.9792 50.4804 80.9792C52.6895 80.9792 54.4804 79.1884 54.4804 76.9792V59.8915L61.3428 66.9989C62.8772 68.5882 65.4095 68.6326 66.9988 67.0982C68.588 65.5637 68.6324 63.0314 67.098 61.4422L59.4286 53.4988H76.9792C79.1884 53.4988 80.9792 51.708 80.9792 49.4988C80.9792 47.2897 79.1884 45.4988 76.9792 45.4988H59.7771L65.2358 39.4104C66.7105 37.7655 66.5725 35.2366 64.9277 33.7619C63.2828 32.2872 60.7539 32.4251 59.2792 34.07L54.4804 39.4225V23Z" fill="url(#paint0_linear_5_52)"/>
</g>
<defs>
<filter id="filter0_dii_5_52" x="15" y="15" width="69.9792" height="73.9792" filterUnits="userSpaceOnUse" color-interpolation-filters="sRGB">
<feFlood flood-opacity="0" result="BackgroundImageFix"/>
<feColorMatrix in="SourceAlpha" type="matrix" values="0 0 0 0 0 0 0 0 0 0 0 0 0 0 0 0 0 0 127 0" result="hardAlpha"/>
<feOffset dy="4"/>
<feGaussianBlur stdDeviation="2"/>
<feComposite in2="hardAlpha" operator="out"/>
<feColorMatrix type="matrix" values="0 0 0 0 0 0 0 0 0 0 0 0 0 0 0 0 0 0 0.1 0"/>
<feBlend mode="normal" in2="BackgroundImageFix" result="effect1_dropShadow_5_52"/>
<feBlend mode="normal" in="SourceGraphic" in2="effect1_dropShadow_5_52" result="shape"/>
<feColorMatrix in="SourceAlpha" type="matrix" values="0 0 0 0 0 0 0 0 0 0 0 0 0 0 0 0 0 0 127 0" result="hardAlpha"/>
<feOffset dy="-4"/>
<feGaussianBlur stdDeviation="2"/>
<feComposite in2="hardAlpha" operator="arithmetic" k2="-1" k3="1"/>
<feColorMatrix type="matrix" values="0 0 0 0 0.176471 0 0 0 0 0.176471 0 0 0 0 0.176471 0 0 0 0.25 0"/>
<feBlend mode="normal" in2="shape" result="effect2_innerShadow_5_52"/>
<feColorMatrix in="SourceAlpha" type="matrix" values="0 0 0 0 0 0 0 0 0 0 0 0 0 0 0 0 0 0 127 0" result="hardAlpha"/>
<feOffset dy="4"/>
<feGaussianBlur stdDeviation="2"/>
<feComposite in2="hardAlpha" operator="arithmetic" k2="-1" k3="1"/>
<feColorMatrix type="matrix" values="0 0 0 0 0.941176 0 0 0 0 0.941176 0 0 0 0 0.94902 0 0 0 0.2 0"/>
<feBlend mode="normal" in2="effect2_innerShadow_5_52" result="effect3_innerShadow_5_52"/>
</filter>
<linearGradient id="paint0_linear_5_52" x1="49.9896" y1="19" x2="49.9896" y2="80.9792" gradientUnits="userSpaceOnUse">
<stop stop-color="#2D2D2D" stop-opacity="0"/>
<stop offset="1" stop-color="#2D2D2D" stop-opacity="0.1"/>
</linearGradient>
</defs>
</svg>
