<svg xmlns="http://www.w3.org/2000/svg" width="100" height="100" fill="none" viewBox="0 0 100 100"><g style="mix-blend-mode:hard-light" filter="url(#filter0_dii_6_50)"><path fill="url(#paint0_linear_6_50)" d="M78 46.229C78 30.6386 65.464 18 50 18C34.536 18 22 30.6386 22 46.229V47.2943C22 62.8847 34.536 75.5233 50 75.5233C65.464 75.5233 78 62.8847 78 47.2943V46.229Z"/><path fill="url(#paint1_linear_6_50)" d="M78 46.229C78 30.6386 65.464 18 50 18C34.536 18 22 30.6386 22 46.229V47.2943C22 62.8847 34.536 75.5233 50 75.5233C65.464 75.5233 78 62.8847 78 47.2943V46.229Z"/></g><g style="mix-blend-mode:hard-light" filter="url(#filter1_dii_6_50)"><path fill="#E25480" d="M64.1283 82C61.8691 82 60.0377 80.1686 60.0377 77.9095C60.0377 75.6503 61.8691 73.8189 64.1283 73.8189H65.1439C67.403 73.8189 69.2344 75.6503 69.2344 77.9095C69.2344 80.1686 67.403 82 65.1439 82H64.1283ZM64.6361 66.5326C62.0965 66.5326 60.0377 64.4739 60.0377 61.9343V37.5118C60.0377 34.9722 62.0965 32.9135 64.6361 32.9135C67.1757 32.9135 69.2344 34.9722 69.2344 37.5118V61.9343C69.2344 64.4739 67.1757 66.5326 64.6361 66.5326Z"/><path fill="url(#paint2_linear_6_50)" d="M64.1283 82C61.8691 82 60.0377 80.1686 60.0377 77.9095C60.0377 75.6503 61.8691 73.8189 64.1283 73.8189H65.1439C67.403 73.8189 69.2344 75.6503 69.2344 77.9095C69.2344 80.1686 67.403 82 65.1439 82H64.1283ZM64.6361 66.5326C62.0965 66.5326 60.0377 64.4739 60.0377 61.9343V37.5118C60.0377 34.9722 62.0965 32.9135 64.6361 32.9135C67.1757 32.9135 69.2344 34.9722 69.2344 37.5118V61.9343C69.2344 64.4739 67.1757 66.5326 64.6361 66.5326Z"/><path stroke="#fff" d="M59.5377 77.9095C59.5377 80.4447 61.593 82.5 64.1283 82.5H65.1439C67.6791 82.5 69.7344 80.4447 69.7344 77.9095C69.7344 75.3742 67.6791 73.3189 65.1439 73.3189H64.1283C61.593 73.3189 59.5377 75.3742 59.5377 77.9095ZM59.5377 61.9343C59.5377 64.75 61.8203 67.0326 64.6361 67.0326C67.4518 67.0326 69.7344 64.75 69.7344 61.9343V37.5118C69.7344 34.6961 67.4518 32.4135 64.6361 32.4135C61.8203 32.4135 59.5377 34.6961 59.5377 37.5118V61.9343Z"/></g><defs><filter id="filter0_dii_6_50" width="64" height="69.523" x="18" y="14" color-interpolation-filters="sRGB" filterUnits="userSpaceOnUse"><feFlood flood-opacity="0" result="BackgroundImageFix"/><feColorMatrix in="SourceAlpha" result="hardAlpha" type="matrix" values="0 0 0 0 0 0 0 0 0 0 0 0 0 0 0 0 0 0 127 0"/><feOffset dy="4"/><feGaussianBlur stdDeviation="2"/><feComposite in2="hardAlpha" operator="out"/><feColorMatrix type="matrix" values="0 0 0 0 0 0 0 0 0 0 0 0 0 0 0 0 0 0 0.1 0"/><feBlend in2="BackgroundImageFix" mode="normal" result="effect1_dropShadow_6_50"/><feBlend in="SourceGraphic" in2="effect1_dropShadow_6_50" mode="normal" result="shape"/><feColorMatrix in="SourceAlpha" result="hardAlpha" type="matrix" values="0 0 0 0 0 0 0 0 0 0 0 0 0 0 0 0 0 0 127 0"/><feOffset dy="-4"/><feGaussianBlur stdDeviation="2"/><feComposite in2="hardAlpha" k2="-1" k3="1" operator="arithmetic"/><feColorMatrix type="matrix" values="0 0 0 0 0.176471 0 0 0 0 0.176471 0 0 0 0 0.176471 0 0 0 0.25 0"/><feBlend in2="shape" mode="normal" result="effect2_innerShadow_6_50"/><feColorMatrix in="SourceAlpha" result="hardAlpha" type="matrix" values="0 0 0 0 0 0 0 0 0 0 0 0 0 0 0 0 0 0 127 0"/><feOffset dy="4"/><feGaussianBlur stdDeviation="2"/><feComposite in2="hardAlpha" k2="-1" k3="1" operator="arithmetic"/><feColorMatrix type="matrix" values="0 0 0 0 0.941176 0 0 0 0 0.941176 0 0 0 0 0.94902 0 0 0 0.2 0"/><feBlend in2="effect2_innerShadow_6_50" mode="normal" result="effect3_innerShadow_6_50"/></filter><filter id="filter1_dii_6_50" width="19.197" height="63.087" x="55.038" y="27.913" color-interpolation-filters="sRGB" filterUnits="userSpaceOnUse"><feFlood flood-opacity="0" result="BackgroundImageFix"/><feColorMatrix in="SourceAlpha" result="hardAlpha" type="matrix" values="0 0 0 0 0 0 0 0 0 0 0 0 0 0 0 0 0 0 127 0"/><feOffset dy="4"/><feGaussianBlur stdDeviation="2"/><feComposite in2="hardAlpha" operator="out"/><feColorMatrix type="matrix" values="0 0 0 0 0 0 0 0 0 0 0 0 0 0 0 0 0 0 0.1 0"/><feBlend in2="BackgroundImageFix" mode="normal" result="effect1_dropShadow_6_50"/><feBlend in="SourceGraphic" in2="effect1_dropShadow_6_50" mode="normal" result="shape"/><feColorMatrix in="SourceAlpha" result="hardAlpha" type="matrix" values="0 0 0 0 0 0 0 0 0 0 0 0 0 0 0 0 0 0 127 0"/><feOffset dy="-4"/><feGaussianBlur stdDeviation="2"/><feComposite in2="hardAlpha" k2="-1" k3="1" operator="arithmetic"/><feColorMatrix type="matrix" values="0 0 0 0 0.176471 0 0 0 0 0.176471 0 0 0 0 0.176471 0 0 0 0.25 0"/><feBlend in2="shape" mode="normal" result="effect2_innerShadow_6_50"/><feColorMatrix in="SourceAlpha" result="hardAlpha" type="matrix" values="0 0 0 0 0 0 0 0 0 0 0 0 0 0 0 0 0 0 127 0"/><feOffset dy="4"/><feGaussianBlur stdDeviation="2"/><feComposite in2="hardAlpha" k2="-1" k3="1" operator="arithmetic"/><feColorMatrix type="matrix" values="0 0 0 0 0.941176 0 0 0 0 0.941176 0 0 0 0 0.94902 0 0 0 0.2 0"/><feBlend in2="effect2_innerShadow_6_50" mode="normal" result="effect3_innerShadow_6_50"/></filter><linearGradient id="paint0_linear_6_50" x1="50" x2="50" y1="18" y2="75.523" gradientUnits="userSpaceOnUse"><stop stop-color="#FECB49"/><stop offset="1" stop-color="#E25480"/></linearGradient><linearGradient id="paint1_linear_6_50" x1="50" x2="50" y1="18" y2="75.523" gradientUnits="userSpaceOnUse"><stop stop-color="#2D2D2D" stop-opacity="0"/><stop offset="1" stop-color="#2D2D2D" stop-opacity=".1"/></linearGradient><linearGradient id="paint2_linear_6_50" x1="64.636" x2="64.636" y1="32.913" y2="82" gradientUnits="userSpaceOnUse"><stop stop-color="#2D2D2D" stop-opacity="0"/><stop offset="1" stop-color="#2D2D2D" stop-opacity=".1"/></linearGradient></defs></svg>