<svg xmlns="http://www.w3.org/2000/svg" width="100" height="100" fill="none" viewBox="0 0 100 100"><g style="mix-blend-mode:hard-light" filter="url(#filter0_dii_6_36)"><path fill="#F0F0F2" d="M61.3611 38.0082C70.6805 29.4658 56.1837 21.7935 47.7703 19.0252C62.224 14.6749 96.7903 24.5417 74.9519 41.5675C59.4466 53.6559 31.5908 53.4319 18 41.5675C28.5706 43.9404 52.0417 46.5505 61.3611 38.0082Z"/><path fill="url(#paint0_linear_6_36)" d="M61.3611 38.0082C70.6805 29.4658 56.1837 21.7935 47.7703 19.0252C62.224 14.6749 96.7903 24.5417 74.9519 41.5675C59.4466 53.6559 31.5908 53.4319 18 41.5675C28.5706 43.9404 52.0417 46.5505 61.3611 38.0082Z"/></g><g style="mix-blend-mode:hard-light" filter="url(#filter1_dii_6_36)"><path fill="#F0F0F2" d="M44.5631 68.5978C50.2721 74.3198 41.3914 79.4589 36.2374 81.3133C45.0917 84.2273 66.2669 77.6181 52.8888 66.2136C43.3902 58.1164 26.3259 58.2664 18.0002 66.2136C24.4757 64.6242 38.8541 62.8758 44.5631 68.5978Z"/><path fill="url(#paint1_linear_6_36)" d="M44.5631 68.5978C50.2721 74.3198 41.3914 79.4589 36.2374 81.3133C45.0917 84.2273 66.2669 77.6181 52.8888 66.2136C43.3902 58.1164 26.3259 58.2664 18.0002 66.2136C24.4757 64.6242 38.8541 62.8758 44.5631 68.5978Z"/></g><g style="mix-blend-mode:hard-light" filter="url(#filter2_dii_6_36)"><path fill="#F0F0F2" d="M63.5171 63.8307C69.2261 69.5527 66.9908 75.0583 61.8368 76.9126C70.6911 79.8266 85.8566 71.804 72.4785 60.3995C62.98 52.3022 26.4755 49.3425 18.1498 57.2897C24.6254 55.7003 57.808 58.1087 63.5171 63.8307Z"/><path fill="url(#paint2_linear_6_36)" d="M63.5171 63.8307C69.2261 69.5527 66.9908 75.0583 61.8368 76.9126C70.6911 79.8266 85.8566 71.804 72.4785 60.3995C62.98 52.3022 26.4755 49.3425 18.1498 57.2897C24.6254 55.7003 57.808 58.1087 63.5171 63.8307Z"/></g><defs><filter id="filter0_dii_6_36" width="72" height="44.55" x="14" y="14" color-interpolation-filters="sRGB" filterUnits="userSpaceOnUse"><feFlood flood-opacity="0" result="BackgroundImageFix"/><feColorMatrix in="SourceAlpha" result="hardAlpha" type="matrix" values="0 0 0 0 0 0 0 0 0 0 0 0 0 0 0 0 0 0 127 0"/><feOffset dy="4"/><feGaussianBlur stdDeviation="2"/><feComposite in2="hardAlpha" operator="out"/><feColorMatrix type="matrix" values="0 0 0 0 0 0 0 0 0 0 0 0 0 0 0 0 0 0 0.1 0"/><feBlend in2="BackgroundImageFix" mode="normal" result="effect1_dropShadow_6_36"/><feBlend in="SourceGraphic" in2="effect1_dropShadow_6_36" mode="normal" result="shape"/><feColorMatrix in="SourceAlpha" result="hardAlpha" type="matrix" values="0 0 0 0 0 0 0 0 0 0 0 0 0 0 0 0 0 0 127 0"/><feOffset dy="-4"/><feGaussianBlur stdDeviation="2"/><feComposite in2="hardAlpha" k2="-1" k3="1" operator="arithmetic"/><feColorMatrix type="matrix" values="0 0 0 0 0.176471 0 0 0 0 0.176471 0 0 0 0 0.176471 0 0 0 0.25 0"/><feBlend in2="shape" mode="normal" result="effect2_innerShadow_6_36"/><feColorMatrix in="SourceAlpha" result="hardAlpha" type="matrix" values="0 0 0 0 0 0 0 0 0 0 0 0 0 0 0 0 0 0 127 0"/><feOffset dy="4"/><feGaussianBlur stdDeviation="2"/><feComposite in2="hardAlpha" k2="-1" k3="1" operator="arithmetic"/><feColorMatrix type="matrix" values="0 0 0 0 0.941176 0 0 0 0 0.941176 0 0 0 0 0.94902 0 0 0 0.2 0"/><feBlend in2="effect2_innerShadow_6_36" mode="normal" result="effect3_innerShadow_6_36"/></filter><filter id="filter1_dii_6_36" width="47.206" height="33.803" x="14" y="56.197" color-interpolation-filters="sRGB" filterUnits="userSpaceOnUse"><feFlood flood-opacity="0" result="BackgroundImageFix"/><feColorMatrix in="SourceAlpha" result="hardAlpha" type="matrix" values="0 0 0 0 0 0 0 0 0 0 0 0 0 0 0 0 0 0 127 0"/><feOffset dy="4"/><feGaussianBlur stdDeviation="2"/><feComposite in2="hardAlpha" operator="out"/><feColorMatrix type="matrix" values="0 0 0 0 0 0 0 0 0 0 0 0 0 0 0 0 0 0 0.1 0"/><feBlend in2="BackgroundImageFix" mode="normal" result="effect1_dropShadow_6_36"/><feBlend in="SourceGraphic" in2="effect1_dropShadow_6_36" mode="normal" result="shape"/><feColorMatrix in="SourceAlpha" result="hardAlpha" type="matrix" values="0 0 0 0 0 0 0 0 0 0 0 0 0 0 0 0 0 0 127 0"/><feOffset dy="-4"/><feGaussianBlur stdDeviation="2"/><feComposite in2="hardAlpha" k2="-1" k3="1" operator="arithmetic"/><feColorMatrix type="matrix" values="0 0 0 0 0.176471 0 0 0 0 0.176471 0 0 0 0 0.176471 0 0 0 0.25 0"/><feBlend in2="shape" mode="normal" result="effect2_innerShadow_6_36"/><feColorMatrix in="SourceAlpha" result="hardAlpha" type="matrix" values="0 0 0 0 0 0 0 0 0 0 0 0 0 0 0 0 0 0 127 0"/><feOffset dy="4"/><feGaussianBlur stdDeviation="2"/><feComposite in2="hardAlpha" k2="-1" k3="1" operator="arithmetic"/><feColorMatrix type="matrix" values="0 0 0 0 0.941176 0 0 0 0 0.941176 0 0 0 0 0.94902 0 0 0 0.2 0"/><feBlend in2="effect2_innerShadow_6_36" mode="normal" result="effect3_innerShadow_6_36"/></filter><filter id="filter2_dii_6_36" width="67.619" height="36.897" x="14.15" y="48.617" color-interpolation-filters="sRGB" filterUnits="userSpaceOnUse"><feFlood flood-opacity="0" result="BackgroundImageFix"/><feColorMatrix in="SourceAlpha" result="hardAlpha" type="matrix" values="0 0 0 0 0 0 0 0 0 0 0 0 0 0 0 0 0 0 127 0"/><feOffset dy="4"/><feGaussianBlur stdDeviation="2"/><feComposite in2="hardAlpha" operator="out"/><feColorMatrix type="matrix" values="0 0 0 0 0 0 0 0 0 0 0 0 0 0 0 0 0 0 0.1 0"/><feBlend in2="BackgroundImageFix" mode="normal" result="effect1_dropShadow_6_36"/><feBlend in="SourceGraphic" in2="effect1_dropShadow_6_36" mode="normal" result="shape"/><feColorMatrix in="SourceAlpha" result="hardAlpha" type="matrix" values="0 0 0 0 0 0 0 0 0 0 0 0 0 0 0 0 0 0 127 0"/><feOffset dy="-4"/><feGaussianBlur stdDeviation="2"/><feComposite in2="hardAlpha" k2="-1" k3="1" operator="arithmetic"/><feColorMatrix type="matrix" values="0 0 0 0 0.176471 0 0 0 0 0.176471 0 0 0 0 0.176471 0 0 0 0.25 0"/><feBlend in2="shape" mode="normal" result="effect2_innerShadow_6_36"/><feColorMatrix in="SourceAlpha" result="hardAlpha" type="matrix" values="0 0 0 0 0 0 0 0 0 0 0 0 0 0 0 0 0 0 127 0"/><feOffset dy="4"/><feGaussianBlur stdDeviation="2"/><feComposite in2="hardAlpha" k2="-1" k3="1" operator="arithmetic"/><feColorMatrix type="matrix" values="0 0 0 0 0.941176 0 0 0 0 0.941176 0 0 0 0 0.94902 0 0 0 0.2 0"/><feBlend in2="effect2_innerShadow_6_36" mode="normal" result="effect3_innerShadow_6_36"/></filter><linearGradient id="paint0_linear_6_36" x1="27.943" x2="27.943" y1="15.663" y2="53.878" gradientUnits="userSpaceOnUse"><stop stop-color="#2D2D2D" stop-opacity="0"/><stop offset="1" stop-color="#2D2D2D" stop-opacity=".1"/></linearGradient><linearGradient id="paint1_linear_6_36" x1="24.091" x2="24.091" y1="83.565" y2="57.968" gradientUnits="userSpaceOnUse"><stop stop-color="#2D2D2D" stop-opacity="0"/><stop offset="1" stop-color="#2D2D2D" stop-opacity=".1"/></linearGradient><linearGradient id="paint2_linear_6_36" x1="24.241" x2="24.241" y1="77.751" y2="52.153" gradientUnits="userSpaceOnUse"><stop stop-color="#2D2D2D" stop-opacity="0"/><stop offset="1" stop-color="#2D2D2D" stop-opacity=".1"/></linearGradient></defs></svg>