<?xml version="1.0" encoding="UTF-8"?>
<svg height="16px" viewBox="0 0 16 16" width="16px" xmlns="http://www.w3.org/2000/svg">
    <g fill="#241f31">
        <path d="m 8.015625 0 c -0.570313 -0.00390625 -1.140625 0.207031 -1.578125 0.640625 l -5.820312 5.726563 c -0.878907 0.867187 -0.886719 2.269531 -0.023438 3.148437 l 5.726562 5.816406 c 0.867188 0.878907 2.269532 0.890625 3.148438 0.027344 l 5.816406 -5.726563 c 0.878906 -0.867187 0.890625 -2.269531 0.027344 -3.148437 l -5.726562 -5.816406 c -0.433594 -0.441407 -1 -0.66406275 -1.570313 -0.667969 z m -0.0625 6.367188 c 0.902344 0 1.632813 0.730468 1.632813 1.632812 s -0.730469 1.632812 -1.632813 1.632812 s -1.632813 -0.730468 -1.632813 -1.632812 s 0.730469 -1.632812 1.632813 -1.632812 z m 0 0" fill-opacity="0.501961"/>
        <path d="m 3.871094 1.691406 c -1.234375 0 -2.226563 0.992188 -2.226563 2.226563 v 8.164062 c 0 1.234375 0.992188 2.226563 2.226563 2.226563 h 8.164062 c 1.230469 0 2.226563 -0.992188 2.226563 -2.226563 v -8.164062 c 0 -1.234375 -0.996094 -2.226563 -2.226563 -2.226563 z m 4.082031 4.675782 c 0.902344 0 1.632813 0.730468 1.632813 1.632812 s -0.730469 1.632812 -1.632813 1.632812 s -1.632813 -0.730468 -1.632813 -1.632812 s 0.730469 -1.632812 1.632813 -1.632812 z m 0 0"/>
    </g>
</svg>
