<svg xmlns="http://www.w3.org/2000/svg" xmlns:svg="http://www.w3.org/2000/svg" id="svg13986" width="16" height="16" version="1.1"><metadata id="metadata13991"/><path id="path932" style="color:#000;fill:#241f31;stroke-linecap:round;stroke-linejoin:round;-inkscape-stroke:none" d="M 8 1 C 4.1399329 1 1 4.1399329 1 8 C 1 11.52042 3.6122448 14.440875 7 14.927734 L 7 13.916016 C 4.1582469 13.441481 2 10.978834 2 8 C 2 4.6803725 4.6803725 2 8 2 C 10.978834 2 13.441481 4.1582469 13.916016 7 L 14.927734 7 C 14.440875 3.6122448 11.52042 1 8 1 z M 8 4 C 5.7967859 4 4 5.7967865 4 8 C 4 9.8583031 5.2777676 11.427287 7 11.873047 L 7 10.826172 C 5.833173 10.41584 5 9.3110946 5 8 C 5 6.3372241 6.3372231 5 8 5 C 9.3110954 5 10.41584 5.8331733 10.826172 7 L 11.873047 7 C 11.427287 5.2777678 9.8583031 4 8 4 z"/><path id="path967" style="color:#000;fill:#241f31;stroke-linecap:round;stroke-linejoin:round;-inkscape-stroke:none" d="M 12 8 A 0.5 0.5 0 0 0 11.5 8.5 L 11.5 11.5 L 8.5 11.5 A 0.5 0.5 0 0 0 8 12 A 0.5 0.5 0 0 0 8.5 12.5 L 11.5 12.5 L 11.5 15.5 A 0.5 0.5 0 0 0 12 16 A 0.5 0.5 0 0 0 12.5 15.5 L 12.5 12.5 L 15.5 12.5 A 0.5 0.5 0 0 0 16 12 A 0.5 0.5 0 0 0 15.5 11.5 L 12.5 11.5 L 12.5 8.5 A 0.5 0.5 0 0 0 12 8 z"/></svg>