<?xml version="1.0" encoding="UTF-8" standalone="no"?>
<svg
   height="16px"
   viewBox="0 0 16 16"
   width="16px"
   version="1.1"
   id="svg12"
   xmlns="http://www.w3.org/2000/svg"
   xmlns:svg="http://www.w3.org/2000/svg">
  <defs
     id="defs16" />
  <path
     style="color:#000000;fill:#241f31;stroke-linecap:round;stroke-linejoin:round;-inkscape-stroke:none"
     d="M 14.5,1 A -0.50005,0.50005 0 0 1 15,1.5 v 13 A -0.50005,0.50005 0 0 1 14.5,15 H 1.5 A -0.50005,0.50005 0 0 1 1,14.5 V 1.5 A -0.50005,0.50005 0 0 1 1.5,1 Z M 14,2 H 2 v 12 h 12 z"
     id="rect3070" />
  <path
     id="path3240"
     style="color:#000000;fill:#241f31;stroke-linecap:round;stroke-linejoin:round;-inkscape-stroke:none"
     d="m 8,3 c 2.755498,0 5,2.2445014 5,5 0,2.755499 -2.244502,5 -5,5 C 5.955289,13 4.193583,11.763496 3.419922,10 H 4.535156 C 5.225214,11.196553 6.5147768,12 8,12 10.21506,12 12,10.21506 12,8 12,5.7849398 10.21506,4 8,4 6.5147768,4 5.225214,4.8034468 4.535156,6 H 3.419922 C 4.193583,4.2365038 5.955289,3 8,3 Z" />
  <path
     id="rect952"
     style="fill:#241f31;stroke-linecap:round;stroke-linejoin:round;stop-color:#000000"
     d="m 4.5,7 a -0.49999949,0.49999949 0 0 1 0.353516,0.1464844 -0.49999949,0.49999949 0 0 1 0,0.7070312 L 4.707031,8 H 8.5 C 8.777,8 9,8.223 9,8.5 9,8.777 8.777,9 8.5,9 h -5 C 3.466676,9 3.43381,8.996395 3.402344,8.9902344 a -0.49999949,0.49999949 0 0 1 -0.00391,0 C 3.337071,8.9777406 3.28132,8.9525593 3.230469,8.9199219 3.226509,8.9173803 3.222632,8.9147588 3.21875,8.9121094 3.193019,8.8945474 3.168434,8.8754649 3.146484,8.8535156 A -0.49999949,0.49999949 0 0 1 3.113281,8.8183594 C 3.109116,8.8133084 3.10553,8.80795 3.101562,8.8027344 A -0.49999949,0.49999949 0 0 1 3.085938,8.7792969 c -0.00131,-0.00194 -0.00263,-0.0039 -0.00391,-0.00586 A -0.49999949,0.49999949 0 0 1 3.060547,8.7382812 c -0.00419,-0.00773 -0.00793,-0.015466 -0.011719,-0.023437 a -0.49999949,0.49999949 0 0 1 -0.00977,-0.019531 c -0.00155,-0.00369 -0.00244,-0.00798 -0.00391,-0.011719 A -0.49999949,0.49999949 0 0 1 3.023438,8.6503906 c -0.00252,-0.00799 -0.00569,-0.015274 -0.00781,-0.023437 -6.93e-4,-0.00266 -0.0013,-0.00513 -0.00195,-0.00781 a -0.49999949,0.49999949 0 0 1 -0.00391,-0.017578 c -0.00114,-0.00561 -10e-4,-0.011903 -0.00195,-0.017578 A -0.49999949,0.49999949 0 0 1 3,8.5 c 0,-0.00598 -2.06e-4,-0.011646 0,-0.017578 a -0.49999949,0.49999949 0 0 1 0.00977,-0.083984 c 0.00124,-0.00607 0.00245,-0.011588 0.00391,-0.017578 a -0.49999949,0.49999949 0 0 1 0.00195,-0.00781 c 0.00212,-0.00816 0.00529,-0.015444 0.00781,-0.023437 a -0.49999949,0.49999949 0 0 1 0.015624,-0.044922 c 0.00287,-0.0068 0.00661,-0.012888 0.00977,-0.019531 a -0.49999949,0.49999949 0 0 1 0.011719,-0.023437 c 0.00112,-0.00207 0.00276,-0.00381 0.00391,-0.00586 a -0.49999949,0.49999949 0 0 1 0.00977,-0.013672 c 0.003,-0.00496 0.00464,-0.010782 0.00781,-0.015625 a -0.49999949,0.49999949 0 0 1 0.00391,-0.00586 c 0.0053,-0.00785 0.0099,-0.015913 0.015624,-0.023437 a -0.49999949,0.49999949 0 0 1 0.011719,-0.015625 c 0.0029,-0.00352 0.00677,-0.00633 0.00977,-0.00977 A -0.49999949,0.49999949 0 0 1 3.146484,8.1464844 L 3.181641,8.1132812 4.146484,7.1464844 A -0.49999949,0.49999949 0 0 1 4.5,7 Z" />
</svg>
