<?xml version="1.0" encoding="UTF-8" standalone="no"?>
<svg
   width="16px"
   height="16px"
   version="1.1"
   viewBox="0 0 16 16"
   id="svg4"
   xmlns="http://www.w3.org/2000/svg"
   xmlns:svg="http://www.w3.org/2000/svg">
  <defs
     id="defs8" />
  <path
     d="m 7.9997439,1 c 1.662,0 3.0000001,1.338 3.0000001,3 V 6 H 9.9997439 V 4 c 0,-1.108 -0.892,-2 -2,-2 h -4 c -1.108,0 -2,0.892 -2,2 v 8 c 0,1.108 0.892,2 2,2 h 4 c 1.108,0 2,-0.892 2,-2 v -2 h 1.0000001 v 2 c 0,1.662 -1.3380001,3 -3.0000001,3 h -4 c -1.662,0 -3.00000003,-1.338 -3.00000003,-3 V 4 c 0,-1.662 1.33800003,-3 3.00000003,-3 z m 4.6719001,3.6699 c 0.12781,0 0.25558,0.050503 0.35352,0.14844 l 2.8281,2.8281 c 0.01224,0.012242 0.02249,0.023992 0.0332,0.037109 v 0.00195 c 0.0026,0.00323 0.0053,0.00649 0.0078,0.00977 0.01241,0.016061 0.0228,0.033241 0.0332,0.050781 0.002,0.0033 0.0039,0.00643 0.0059,0.00977 0.01048,0.018629 0.02123,0.036614 0.0293,0.056641 0.0021,0.00512 0.004,0.010423 0.0059,0.015625 0.008,0.021141 0.01457,0.042611 0.01953,0.064453 0.004,0.01827 0.0079,0.037673 0.0098,0.056641 6.4e-5,6.418e-4 -6.2e-5,0.00131 0,0.00195 v 0.00195 c 0.0029,0.031209 0.003,0.06255 0,0.09375 v 0.00195 c -0.0019,0.019638 -0.0057,0.0397 -0.0098,0.058594 -0.0062,0.027764 -0.0143,0.055421 -0.02539,0.082031 -0.0044,0.010923 -0.01045,0.020733 -0.01563,0.03125 -0.0074,0.014658 -0.01458,0.02892 -0.02344,0.042969 -0.0084,0.013558 -0.01769,0.02642 -0.02734,0.039062 -0.0031,0.00408 -0.0065,0.00771 -0.0098,0.011719 v 0.00195 c -0.01044,0.012713 -0.02132,0.025223 -0.0332,0.037109 l -2.8281,2.8281 c -0.19587,0.19587 -0.51116,0.19587 -0.70703,0 -0.19587,-0.19587 -0.19587,-0.51116 0,-0.70703 l 1.9746,-1.9746 H 6.4997326 c -0.277,0 -0.5,-0.223 -0.5,-0.5 0,-0.277 0.223,-0.5 0.5,-0.5 h 7.7930004 l -1.9746,-1.9746 c -0.19587,-0.19587 -0.19587,-0.51116 0,-0.70703 0.09793,-0.097934 0.22571,-0.14844 0.35352,-0.14844 z"
     fill="#363636"
     id="path2"
     style="fill:#241f31" />
</svg>
