<svg xmlns="http://www.w3.org/2000/svg" xmlns:svg="http://www.w3.org/2000/svg" id="svg4" width="16" height="16" version="1.1" viewBox="0 0 16 16"><path id="path1216" style="color:#000;fill:#241f31;stroke-linecap:round;stroke-linejoin:round;-inkscape-stroke:none" d="M 8 1 C 4.1399329 1 1 4.1399329 1 8 C 1 11.52042 3.6122448 14.440875 7 14.927734 L 7 13.916016 C 4.1582469 13.441481 2 10.978834 2 8 C 2 4.6803725 4.6803725 2 8 2 C 10.978834 2 13.441481 4.1582469 13.916016 7 L 14.927734 7 C 14.440875 3.6122448 11.52042 1 8 1 z"/><path id="path1401" style="color:#000;fill:#241f31;stroke-linecap:round;stroke-linejoin:round;-inkscape-stroke:none" d="M 7.5 4 A 0.5 0.5 0 0 0 7 4.5 L 7 7 L 8 7 L 8 4.5 A 0.5 0.5 0 0 0 7.5 4 z"/><path id="path937" style="color:#000;fill:#e01b24;stroke-linecap:round;stroke-linejoin:round;-inkscape-stroke:none" d="M 8.5 8 A 0.5 0.5 0 0 0 8.1464844 8.1464844 A 0.5 0.5 0 0 0 8.1464844 8.8535156 L 11.292969 12 L 8.1464844 15.146484 A 0.5 0.5 0 0 0 8.1464844 15.853516 A 0.5 0.5 0 0 0 8.8535156 15.853516 L 12 12.707031 L 15.146484 15.853516 A 0.5 0.5 0 0 0 15.853516 15.853516 A 0.5 0.5 0 0 0 15.853516 15.146484 L 12.707031 12 L 15.853516 8.8535156 A 0.5 0.5 0 0 0 15.853516 8.1464844 A 0.5 0.5 0 0 0 15.146484 8.1464844 L 12 11.292969 L 8.8535156 8.1464844 A 0.5 0.5 0 0 0 8.5 8 z" class="error"/></svg>