<svg xmlns="http://www.w3.org/2000/svg" xmlns:svg="http://www.w3.org/2000/svg" id="svg4" width="16" height="16" version="1.1" viewBox="0 0 16 16"><path id="path1024" style="color:#000;-inkscape-font-specification:sans-serif;fill:#241f31;stroke-width:.999998;stroke-linecap:round;stroke-linejoin:round;-inkscape-stroke:none" d="M 8 0 C 7.2080182 0.00015974 6.5327409 0.51619961 6.2832031 1.2246094 A 0.47053061 0.46987268 0 0 0 6.2558594 1.3808594 L 6.2558594 1.3007812 L 5.0761719 4.6679688 L 1.8203125 4.6679688 C 0.98026986 4.6683683 0.32415449 5.2382297 0.095703125 5.9179688 C -0.12722407 6.5812716 0.03325614 7.3953136 0.64453125 7.9179688 L 3.3027344 10.191406 L 2.4140625 13.701172 A 0.47053061 0.46987268 0 0 0 2.4140625 13.707031 C 2.2283282 14.448681 2.5188206 15.202302 3.0839844 15.632812 C 3.6685265 16.078084 4.5281669 16.144647 5.2011719 15.685547 L 7 14.460938 L 7 13.324219 L 4.671875 14.912109 A 0.47053061 0.46987268 0 0 0 4.6699219 14.912109 C 4.3768261 15.112489 3.8880499 15.062827 3.6542969 14.884766 C 3.4007062 14.691599 3.2369683 14.291743 3.3261719 13.935547 A 0.47053061 0.46987268 0 0 0 3.3261719 13.933594 L 3.3339844 13.908203 A 0.47053061 0.46987268 0 0 0 3.3339844 13.90625 A 0.47053061 0.46987268 0 0 0 3.3339844 13.904297 A 0.47053061 0.46987268 0 0 0 3.3339844 13.902344 A 0.47053061 0.46987268 0 0 0 3.3339844 13.900391 L 4.2851562 10.140625 A 0.47053061 0.46987268 0 0 0 4.1367188 9.6679688 L 1.2597656 7.2050781 A 0.47053061 0.46987268 0 0 0 1.2578125 7.203125 C 0.96393687 6.9525838 0.88705422 6.5179901 0.98828125 6.2167969 C 1.0842371 5.9312879 1.4412738 5.6076022 1.8203125 5.6074219 L 5.4101562 5.6074219 A 0.47053061 0.46987268 0 0 0 5.8554688 5.2929688 L 7.171875 1.5371094 A 0.47053061 0.46987268 0 0 0 7.171875 1.5351562 C 7.2915787 1.198799 7.6255235 0.93952866 8 0.93945312 C 8.3744765 0.93952866 8.7084214 1.1987993 8.828125 1.5351562 A 0.47053061 0.46987268 0 0 0 8.828125 1.5371094 L 10.144531 5.2929688 A 0.47053061 0.46987268 0 0 0 10.589844 5.6074219 L 14.179688 5.6074219 C 14.558727 5.6076018 14.915762 5.9312859 15.011719 6.2167969 C 15.089155 6.4471999 15.062151 6.7552917 14.914062 7 L 15.931641 7 C 16.028812 6.6398957 16.018846 6.2588023 15.904297 5.9179688 C 15.675844 5.2382314 15.019732 4.6683674 14.179688 4.6679688 L 10.923828 4.6679688 L 9.7441406 1.3007812 L 9.7441406 1.3808594 A 0.47053061 0.46987268 0 0 0 9.7167969 1.2246094 C 9.4672591 0.51619943 8.7919816 0.00015974 8 0 z"/><path id="rect1018" style="fill:#241f31;stroke-width:.999995;stroke-linecap:round;stroke-linejoin:round;stop-color:#000" d="M 12.5 9 C 12.223 9 12 9.223 12 9.5 L 12 12 L 9.5 12 C 9.223 12 9 12.223 9 12.5 C 9 12.777 9.223 13 9.5 13 L 12 13 L 12 15.5 C 12 15.777 12.223 16 12.5 16 C 12.777 16 13 15.777 13 15.5 L 13 13 L 15.5 13 C 15.777 13 16 12.777 16 12.5 C 16 12.223 15.777 12 15.5 12 L 13 12 L 13 9.5 C 13 9.223 12.777 9 12.5 9 z"/></svg>