<?xml version="1.0" encoding="UTF-8" standalone="no"?>
<svg
   height="16"
   width="16"
   version="1.1"
   id="svg4"
   xmlns="http://www.w3.org/2000/svg"
   xmlns:svg="http://www.w3.org/2000/svg">
  <defs
     id="defs8" />
  <path
     style="color:#000000;fill:#241f31;stroke-linecap:round;stroke-linejoin:round;-inkscape-stroke:none"
     d="M 11.580078,1.0117187 A 0.50004949,0.50004949 0 0 0 11.228516,1.2988281 L 9.5136719,5.2011719 a 0.50004949,0.50004949 0 0 0 0.050781,0.4921875 L 10.316406,6.75 C 9.9370669,7.2619966 9.2472573,8.0507359 8.7265625,8.5722656 8.1942253,9.1038194 7.3765802,9.824037 6.8691406,10.193359 L 5.640625,9.53125 A 0.50004949,0.50004949 0 0 0 5.2011719,9.5136719 L 1.2988281,11.230469 a 0.50004949,0.50004949 0 0 0 -0.2871094,0.568359 c 0.1351977,0.596742 0.2988965,1.458976 0.734375,2.171875 0.2177393,0.35645 0.5185971,0.684859 0.9375001,0.873047 0.4189029,0.188188 0.9316793,0.210384 1.4785156,0.04687 2.5046788,-0.746378 4.6633819,-2.777404 6.3027346,-4.416016 l 0.0039,-0.0039 0.0059,-0.0039 a 0.50004949,0.50004949 0 0 0 0,-0.002 C 12.113086,8.8253258 14.143342,6.6677711 14.890625,4.1640625 15.053828,3.6169804 15.032021,3.1025368 14.84375,2.6835938 14.655479,2.2646507 14.325197,1.9638598 13.96875,1.7460937 13.255856,1.3105616 12.393261,1.1484518 11.796875,1.0136719 l 0.04883,0.066406 a 0.50004949,0.50004949 0 0 0 -0.265625,-0.068359 z m 0.382813,1.1035157 c 0.523254,0.1250811 1.100015,0.2495561 1.484375,0.484375 0.242276,0.1480154 0.402013,0.3108675 0.484375,0.4941406 0.08236,0.1832731 0.111202,0.4104335 0,0.7832031 -0.647496,2.1693795 -2.548677,4.2664004 -4.1640629,5.8828125 l -0.00586,0.00391 -0.00391,0.00391 C 8.1414446,11.383215 6.0469165,13.286959 3.8769531,13.933594 3.5044617,14.044972 3.2767919,14.013871 3.09375,13.931641 2.9107081,13.849411 2.7476279,13.691532 2.5996094,13.449219 2.3647279,13.064707 2.2406349,12.486682 2.1152344,11.962891 l 3.265625,-1.435547 1.3144531,0.708984 a 0.50004949,0.50004949 0 0 0 0.5058594,-0.01953 C 7.8685678,10.792262 8.8157509,9.8962304 9.4335938,9.2792969 10.050669,8.6612327 10.948086,7.7133072 11.373047,7.046875 A 0.50004949,0.50004949 0 0 0 11.357422,6.4863281 L 10.542969,5.34375 Z"
     id="path2" />
</svg>
