<?xml version="1.0" encoding="UTF-8" standalone="no"?>
<svg
   height="16"
   width="16"
   version="1.1"
   id="svg4"
   xmlns="http://www.w3.org/2000/svg"
   xmlns:svg="http://www.w3.org/2000/svg">
  <defs
     id="defs8" />
  <path
     style="color:#000000;fill:#241f31;stroke-linecap:round;stroke-linejoin:round;-inkscape-stroke:none"
     d="M 3.8535156,0.61914062 C 3.2713199,0.44536401 2.7290619,0.46925843 2.2871094,0.66796875 1.8451568,0.86667907 1.5266505,1.2162567 1.2949219,1.5957031 0.83146459,2.354596 0.65503051,3.2790532 0.50976562,3.921875 L 0.8984375,3.6113281 A 0.50005,0.50005 0 0 0 0.79492187,4.4902344 L 4.9980469,6.3378906 A 0.50005,0.50005 0 0 0 5.4902344,6.2871094 L 6.6523437,5.4570312 c 0.5545254,0.4071145 1.4180102,1.1688832 1.9863282,1.7363282 0.577823,0.578712 1.3677161,1.4707852 1.7656251,2.0214844 L 9.6777344,10.5625 A 0.50005,0.50005 0 0 0 9.6601563,11 l 1.8476567,4.203125 a 0.50005,0.50005 0 0 0 0.568359,0.287109 c 0.643174,-0.145726 1.569238,-0.323508 2.328125,-0.787109 0.379443,-0.2318 0.727213,-0.550152 0.925781,-0.992187 0.198568,-0.442036 0.222891,-0.982286 0.04883,-1.564454 C 14.579041,9.462137 12.396289,7.1394835 10.632813,5.375 l -0.0039,-0.00391 -0.0059,-0.00586 C 8.8584961,3.6016902 6.5366861,1.4200393 3.8535156,0.61914062 Z M 3.5664063,1.5761719 c 2.3488245,0.7010998 4.6081636,2.7556414 6.3496093,4.4960937 l 0.00586,0.00586 0.00391,0.00391 c 1.7405197,1.741513 3.7940077,3.9999618 4.4941407,6.3496098 a 0.50005,0.50005 0 0 0 0.002,0 c 0.121937,0.407831 0.08871,0.664911 -0.0039,0.871093 -0.09262,0.206183 -0.269851,0.386754 -0.535156,0.548829 -0.429347,0.262285 -1.066627,0.398978 -1.640625,0.535156 l -1.56836,-3.564453 0.771485,-1.4335941 A 0.50005,0.50005 0 0 0 11.427734,8.8828125 C 10.975076,8.1729888 10.009179,7.1508246 9.3457031,6.4863281 8.6812069,5.8228526 7.657208,4.8570306 6.9472656,4.4042969 A 0.50005,0.50005 0 0 0 6.3886719,4.4179687 L 5.140625,5.3085937 1.6132812,3.7558594 C 1.7491067,3.1822821 1.8862379,2.5445758 2.1484375,2.1152344 2.3104585,1.8499315 2.4910313,1.672805 2.6972656,1.5800781 2.9034999,1.4873512 3.158603,1.4544488 3.5664063,1.5761719 Z"
     id="path2" />
</svg>
