<?xml version="1.0" encoding="UTF-8" standalone="no"?>
<svg
   height="16px"
   viewBox="0 0 16 16"
   width="16px"
   version="1.1"
   id="svg8"
   xmlns="http://www.w3.org/2000/svg"
   xmlns:svg="http://www.w3.org/2000/svg">
  <defs
     id="defs12" />
  <path
     id="path2"
     style="color:#000000;fill:#241f31;stroke-width:1;stroke-miterlimit:4;stroke-dasharray:none;fill-opacity:0.5"
     d="M 3.625 2 C 2.7213978 2 2 2.8018117 2 3.75 L 2 4.40625 L 0 3 L 0 3.5195312 L 0 7 L 2 5.5976562 L 2 6.25 C 2 7.1981885 2.7213978 8 3.625 8 L 6.375 8 C 7.2786025 8 8 7.1981885 8 6.25 L 8 3.75 C 8 2.8018117 7.2786025 2 6.375 2 L 3.625 2 z M 3.625 2.5 L 6.375 2.5 C 6.978883 2.5 7.5 3.053659 7.5 3.75 L 7.5 6.25 C 7.5 6.946341 6.978883 7.5 6.375 7.5 L 3.625 7.5 C 3.021117 7.5 2.5 6.946341 2.5 6.25 L 2.5 5.2480469 L 2.5 4.7578125 L 2.5 3.75 C 2.5 3.053659 3.021117 2.5 3.625 2.5 z M 0.5 4 L 2 5 L 0.5 6 L 0.5 4 z " />
  <path
     style="color:#000000;fill:#241f31;stroke-width:0.999995;-inkscape-stroke:none"
     d="M 16.000001,10 V 10.519315 14 l -2.5,-1.751494 v -0.489844 z m -0.5,1 -1.5,1 v 0 l 1.5,1 z"
     id="path2-3" />
  <path
     style="color:#000000;fill:#241f31;stroke-width:1;-inkscape-stroke:none"
     d="m 12.375001,9 c 0.903602,0 1.625,0.8018117 1.625,1.75 v 2.5 c 0,0.948188 -0.721398,1.75 -1.625,1.75 H 9.6250004 C 8.7213979,15 8,14.198188 8,13.25 v -2.5 C 8,9.8018117 8.7213979,9 9.6250004,9 Z m 0,0.5 H 9.6250004 C 9.0211174,9.5 8.5,10.053659 8.5,10.75 v 2.5 c 0,0.696341 0.5211174,1.25 1.1250004,1.25 h 2.7500006 c 0.603883,0 1.125,-0.553659 1.125,-1.25 v -2.5 c 0,-0.696341 -0.521117,-1.25 -1.125,-1.25 z"
     id="path4-6" />
</svg>
