<?xml version="1.0" encoding="UTF-8" standalone="no"?>
<svg
   width="16"
   height="17"
   version="1.1"
   id="svg6"
   xmlns="http://www.w3.org/2000/svg"
   xmlns:svg="http://www.w3.org/2000/svg">
  <defs
     id="defs10" />
  <path
     d="m2 2c-1.108 0-2 0.892-2 2v7c0 1.108 0.892 2 2 2h6.666l3.7344 2.8008c0.6595 0.49391 1.5998 0.023162 1.5996-0.80078v-2.2754c0.5958-0.34556 1-0.98354 1-1.7246v-7c0-1.108-0.892-2-2-2zm0 1h11c0.554 0 1 0.446 1 1v7c0 0.554-0.446 1-1 1v3l-2.666-2-1.334-1h-7c-0.554 0-1-0.446-1-1v-7c0-0.554 0.446-1 1-1z"
     fill="#363636"
     id="path2"
     style="fill:#241f31" />
  <path
     id="rect1162"
     style="fill:#241f31;fill-opacity:1;stroke-linecap:round;stroke-linejoin:round;stop-color:#000000"
     d="M 7.5 4 C 7.223 4 7 4.223 7 4.5 L 7 7 L 4.5 7 C 4.223 7 4 7.223 4 7.5 C 4 7.777 4.223 8 4.5 8 L 7 8 L 7 10.5 C 7 10.777 7.223 11 7.5 11 C 7.777 11 8 10.777 8 10.5 L 8 8 L 10.5 8 C 10.777 8 11 7.777 11 7.5 C 11 7.223 10.777 7 10.5 7 L 8 7 L 8 4.5 C 8 4.223 7.777 4 7.5 4 z " />
</svg>
