<?xml version="1.0" encoding="UTF-8" standalone="no"?>
<svg
   id="svg6"
   width="16"
   height="16"
   version="1.1"
   viewBox="0 0 16 16"
   sodipodi:docname="checkbox-checked-symbolic.svg"
   inkscape:version="1.4.2 (ebf0e940d0, 2025-05-08)"
   xml:space="preserve"
   xmlns:inkscape="http://www.inkscape.org/namespaces/inkscape"
   xmlns:sodipodi="http://sodipodi.sourceforge.net/DTD/sodipodi-0.dtd"
   xmlns="http://www.w3.org/2000/svg"
   xmlns:svg="http://www.w3.org/2000/svg"><defs
     id="defs1" /><sodipodi:namedview
     id="namedview1"
     pagecolor="#ffffff"
     bordercolor="#111111"
     borderopacity="1"
     inkscape:showpageshadow="0"
     inkscape:pageopacity="0"
     inkscape:pagecheckerboard="1"
     inkscape:deskcolor="#d1d1d1"
     inkscape:zoom="74.3125"
     inkscape:cx="7.9932717"
     inkscape:cy="8"
     inkscape:window-width="2560"
     inkscape:window-height="1368"
     inkscape:window-x="0"
     inkscape:window-y="0"
     inkscape:window-maximized="1"
     inkscape:current-layer="svg6"
     showgrid="true"><inkscape:grid
       id="grid1"
       units="px"
       originx="0"
       originy="0"
       spacingx="1"
       spacingy="1"
       empcolor="#0099e5"
       empopacity="0.30196078"
       color="#0099e5"
       opacity="0.14901961"
       empspacing="5"
       enabled="true"
       visible="true" /></sodipodi:namedview><path
     style="baseline-shift:baseline;display:inline;overflow:visible;opacity:1;vector-effect:none;fill:#241f31;stroke-width:1;stroke-linecap:round;stroke-linejoin:round;enable-background:accumulate;stop-color:#000000;stop-opacity:1"
     d="M 15.003906,3.5000001 A 0.5,0.50528585 0 0 0 14.650391,3.6440854 L 7.4550781,10.785195 4.3515625,7.688346 a 0.5,0.50528585 0 0 0 -0.7070312,0.00395 0.5,0.50528585 0 0 0 0.00391,0.7145058 l 3.4550781,3.4481812 a 0.50005,0.50533638 0 0 0 0.7011719,0 L 15.349609,4.3664864 a 0.5,0.50528585 0 0 0 0.0078,-0.7145059 0.5,0.50528585 0 0 0 -0.353516,-0.1519804 z"
     id="path1" /><path
     id="path2"
     fill="#363636"
     d="M 3,0 C 1.338,0 0,1.338 0,3 v 10 c 0,1.662 1.338,3 3,3 h 10 c 1.662,0 3,-1.338 3,-3 V 3 C 16,1.338 14.662,0 13,0 Z m 0,1 h 10 c 1.108,0 2,0.892 2,2 v 10 c 0,1.108 -0.892,2 -2,2 H 3 C 1.892,15 1,14.108 1,13 V 3 C 1,1.892 1.892,1 3,1 Z"
     style="fill:#241f31" /></svg>
