<?xml version="1.0" encoding="UTF-8" standalone="no"?>
<svg
   width="16px"
   height="16px"
   version="1.1"
   viewBox="0 0 16 16"
   id="svg6"
   xmlns="http://www.w3.org/2000/svg"
   xmlns:svg="http://www.w3.org/2000/svg">
  <defs
     id="defs10" />
  <path
     d="m3 0c-1.662 0-3 1.338-3 3v10c0 1.662 1.338 3 3 3h10c1.662 0 3-1.338 3-3v-10c0-1.662-1.338-3-3-3zm0 1h10c1.108 0 2 0.892 2 2v10c0 1.108-0.892 2-2 2h-10c-1.108 0-2-0.892-2-2v-10c0-1.108 0.892-2 2-2z"
     fill="#363636"
     id="path2"
     style="fill:#241f31" />
  <path
     id="rect4"
     style="fill:#241f31;stroke-width:0.999997"
     d="m 4.5,8 h 7 C 11.777,8 12,8.223 12,8.5 12,8.777 11.777,9 11.5,9 h -7 C 4.223,9 4,8.777 4,8.5 4,8.223 4.223,8 4.5,8 Z" />
</svg>
