<svg xmlns="http://www.w3.org/2000/svg" xmlns:svg="http://www.w3.org/2000/svg" id="svg6" width="16" height="16" version="1.1"><path id="path2" style="fill:#241f31" d="m 14.490234,1 c -0.12976,0.004 -0.25303,0.057501 -0.34375,0.1503906 l -0.486328,0.4863282 c -0.21492,-0.10289 -0.451263,-0.1531044 -0.689453,-0.1464844 -0.38956,0.0113 -0.75946,0.173865 -1.03125,0.453125 L 10.292969,3.5898438 9.3535156,2.6503906 c -0.0942,-0.0974 -0.223895,-0.1523437 -0.359375,-0.1523437 -0.44941,8e-5 -0.6705962,0.546825 -0.3476562,0.859375 L 9.5859375,4.296875 3.4394531,10.443359 C 3.0841931,10.785849 2.9303,11.271608 3,11.742188 v 0.554687 l -1.8535156,1.853516 0.7070312,0.707031 1.8535156,-1.853516 h 0.5449219 c 0.47378,0.0725 0.9643038,-0.081 1.3085938,-0.439453 l 6.1464841,-6.1464842 0.939453,0.9394531 c 0.47127,0.49023 1.197292,-0.2357613 0.707032,-0.7070313 L 12.414062,5.7109375 14.060547,4.0644531 c 0.45873,-0.44877 0.581207,-1.13955 0.304687,-1.71875 L 14.853516,1.8574219 C 15.178806,1.5394119 14.944924,0.98752 14.490234,1 Z M 13,2.2 13.800781,3 12,4.8007812 11.199219,4 Z M 10.396484,4.9003906 11.103516,5.6074219 7.7070312,9.0039062 H 6.2929688 Z"/></svg>