<svg xmlns="http://www.w3.org/2000/svg" xmlns:svg="http://www.w3.org/2000/svg" id="svg13986" width="16" height="16" version="1.1"><metadata id="metadata13991"/><path id="path1219" style="color:#000;fill:#241f31;stroke-linecap:round;stroke-linejoin:round;-inkscape-stroke:none" d="M 7 11.054688 C 3.0951555 11.470697 1.09375 14.207031 1.09375 14.207031 A 0.49999899 0.49999899 0 0 0 1.2070312 14.90625 A 0.49999899 0.49999899 0 0 0 1.90625 14.792969 C 1.90625 14.792969 3.5747108 12.456576 7 12.058594 L 7 11.054688 z"/><path id="path1243" style="color:#000;fill:#241f31;stroke-linecap:round;stroke-linejoin:round;-inkscape-stroke:none" d="M 8 2 C 5.7967855 2 4 3.7967855 4 6 C 4 7.8583035 5.2777674 9.4272867 7 9.8730469 L 7 8.8300781 C 5.832547 8.4200825 5 7.3115407 5 6 C 5 4.3372251 6.3372251 3 8 3 C 9.662775 3 11 4.3372251 11 6 C 11 6.3512342 10.939876 6.6873529 10.830078 7 L 11.873047 7 C 11.955782 6.6803445 12 6.344911 12 6 C 12 3.7967855 10.203214 2 8 2 z"/><path id="rect985" style="fill:#241f31;stroke-linecap:round;stroke-linejoin:round;stop-color:#000" d="M 11.5 8 C 11.223 8 11 8.223 11 8.5 L 11 11 L 8.5 11 C 8.223 11 8 11.223 8 11.5 C 8 11.777 8.223 12 8.5 12 L 11 12 L 11 14.5 C 11 14.777 11.223 15 11.5 15 C 11.777 15 12 14.777 12 14.5 L 12 12 L 14.5 12 C 14.777 12 15 11.777 15 11.5 C 15 11.223 14.777 11 14.5 11 L 12 11 L 12 8.5 C 12 8.223 11.777 8 11.5 8 z"/></svg>