<?xml version="1.0" encoding="UTF-8" standalone="no"?>
<svg
   height="16px"
   viewBox="0 0 16 16"
   width="16px"
   version="1.1"
   id="svg4"
   xmlns="http://www.w3.org/2000/svg"
   xmlns:svg="http://www.w3.org/2000/svg">
  <defs
     id="defs8" />
  <path
     id="path1840"
     style="color:#000000;fill:#241f31;stroke-width:1px;stroke-linecap:round;stroke-linejoin:round;-inkscape-stroke:none"
     d="M 11.371094 0.017578125 A 0.50005 0.50005 0 0 0 11.146484 0.14648438 L 9.8535156 1.4394531 L 14.560547 6.1464844 L 15.853516 4.8535156 A 0.50005 0.50005 0 0 0 15.853516 4.1464844 L 11.853516 0.14648438 A 0.50005 0.50005 0 0 0 11.371094 0.017578125 z M 8.4394531 2.8535156 L 0.14648438 11.146484 A 0.50005 0.50005 0 0 0 0 11.5 L 0 15.5 A 0.50005 0.50005 0 0 0 0.5 16 L 4.5 16 A 0.50005 0.50005 0 0 0 4.8535156 15.853516 L 13.146484 7.5605469 L 8.4394531 2.8535156 z " />
</svg>
