<?xml version="1.0" encoding="UTF-8" standalone="no"?>
<svg
   height="16px"
   viewBox="0 0 16 16"
   width="16px"
   version="1.1"
   id="svg4"
   xmlns="http://www.w3.org/2000/svg"
   xmlns:svg="http://www.w3.org/2000/svg">
  <defs
     id="defs8" />
  <path
     id="path937"
     style="color:#000000;fill:#241f31;stroke-linecap:round;stroke-linejoin:round;-inkscape-stroke:none"
     d="m 1,9 v 5.5 c 2.76e-5,0.276131 0.2238691,0.499972 0.5,0.5 h 14 c 0.276131,-2.8e-5 0.499972,-0.223869 0.5,-0.5 V 9 h -1 v 5 H 2 V 9 Z" />
  <path
     style="color:#000000;fill:#241f31;stroke-width:1;stroke-linecap:round;stroke-linejoin:round;-inkscape-stroke:none"
     d="m 8.0822011,0.1730073 -5.909194,5.909194 a 0.59097849,0.59097848 0 0 0 0,0.8355968 l 5.909194,5.9091949 a 0.59097849,0.59097848 0 0 0 0.8355972,0 L 14.826993,6.9177981 a 0.59097849,0.59097848 0 0 0 0,-0.8355968 L 8.9177983,0.1730073 a 0.59097849,0.59097848 0 0 0 -0.8355972,0 z M 8.4999995,1.4264028 13.573597,6.4999998 8.4999995,11.573597 3.4264026,6.4999998 Z"
     id="path936" />
  <ellipse
     style="fill:none;stroke:#241f31;stroke-width:0.999997;stroke-linecap:round;stroke-linejoin:round;stop-color:#000000"
     id="path1098"
     cx="8.5"
     cy="6.5000024"
     rx="2"
     ry="2.0000021" />
</svg>
