<svg xmlns="http://www.w3.org/2000/svg" xmlns:svg="http://www.w3.org/2000/svg" id="svg4" width="16" height="16" version="1.1" viewBox="0 0 16 16"><path id="path937" style="color:#000;fill:#241f31;stroke-linecap:round;stroke-linejoin:round;-inkscape-stroke:none" d="m 1,9 v 5.5 c 2.76e-5,0.276131 0.2238691,0.499972 0.5,0.5 h 14 c 0.276131,-2.8e-5 0.499972,-0.223869 0.5,-0.5 V 9 h -1 v 5 H 2 V 9 Z"/><path id="path3022" style="color:#000;fill:#241f31;stroke-linecap:round;stroke-linejoin:round;-inkscape-stroke:none" d="M 8.5010945,1 A 0.50005,0.50005 0 0 0 8.3272664,1.033203 0.5,0.5 0 0 0 8.2745324,1.060547 0.50005,0.50005 0 0 0 8.2003134,1.09961 l -4,3 a 0.5,0.5 0 0 0 -0.099609,0.7011718 0.5,0.5 0 0 0 0.7011718,0.099609 L 8.0010945,2.5 v 10 a 0.5,0.5 0 0 0 0.5,0.5 0.5,0.5 0 0 0 0.5,-0.5 v -10 l 3.1992195,2.4003906 a 0.5,0.5 0 0 0 0.701172,-0.099609 0.5,0.5 0 0 0 -0.09961,-0.7011718 l -4.0000003,-3 a 0.50005,0.50005 0 0 0 -0.015625,-0.00781 0.5,0.5 0 0 0 -0.1210937,-0.0625 0.5,0.5 0 0 0 -0.00586,-0.00391 0.50005,0.50005 0 0 0 -0.00391,0 A 0.5,0.5 0 0 0 8.5010945,1 Z"/></svg>