<?xml version="1.0" encoding="UTF-8" standalone="no"?>
<svg
   height="16"
   width="16"
   version="1.1"
   id="svg6"
   xmlns="http://www.w3.org/2000/svg"
   xmlns:svg="http://www.w3.org/2000/svg"
   xmlns:rdf="http://www.w3.org/1999/02/22-rdf-syntax-ns#"
   xmlns:cc="http://creativecommons.org/ns#"
   xmlns:dc="http://purl.org/dc/elements/1.1/">
  <metadata
     id="metadata12">
    <rdf:RDF>
      <cc:Work
         rdf:about="">
        <dc:format>image/svg+xml</dc:format>
        <dc:type
           rdf:resource="http://purl.org/dc/dcmitype/StillImage" />
      </cc:Work>
    </rdf:RDF>
  </metadata>
  <defs
     id="defs10" />
  <path
     id="path859"
     style="color:#000000;fill:#241f31;stroke-width:0.999997;stroke-linecap:round;stroke-linejoin:round;-inkscape-stroke:none"
     d="M 1.5 6 C 1.2238691 6.0000166 1.0000276 6.1351027 1 6.3007812 L 1 11.699219 C 1.0000276 11.864898 1.2238691 11.999983 1.5 12 L 7 12 L 7 11 L 2 11 L 2 7 L 7.5 7 L 14 7 L 15 7 L 15 6.3007812 C 14.999972 6.1351027 14.776131 6.0000166 14.5 6 L 1.5 6 z " />
  <path
     id="path1108"
     style="color:#000000;fill:#241f31;stroke-width:0.999996;stroke-linecap:round;stroke-linejoin:round;-inkscape-stroke:none"
     d="M 4.5 13 C 4.2238578 13 4 13.342204 4 13.5 L 4 14.5 C 4.0000279 14.657789 4.2238693 14.999984 4.5 15 L 7 15 L 7 14 L 5 14 L 5 13.5 C 5 13.342204 4.7761422 13 4.5 13 z " />
  <path
     style="color:#000000;fill:#241f31;stroke-linecap:round;stroke-linejoin:round;-inkscape-stroke:none"
     d="M 4.5,1 A 0.50005,0.50005 0 0 0 4,1.5 v 3 A 0.5,0.5 0 0 0 4.5,5 0.5,0.5 0 0 0 5,4.5 V 2 h 6 V 4.5 A 0.5,0.5 0 0 0 11.5,5 0.5,0.5 0 0 0 12,4.5 v -3 A 0.50005,0.50005 0 0 0 11.5,1 Z"
     id="path1354" />
  <path
     id="path1005"
     style="color:#000000;fill:#241f31;stroke-linecap:round;stroke-linejoin:round;-inkscape-stroke:none"
     d="M 11 8 C 9.3490697 8 8 9.3490697 8 11 C 8 12.65093 9.3490697 14 11 14 C 11.645941 14 12.24553 13.793677 12.736328 13.443359 L 14.646484 15.353516 A 0.5 0.5 0 0 0 15.353516 15.353516 A 0.5 0.5 0 0 0 15.353516 14.646484 L 13.443359 12.736328 C 13.793677 12.24553 14 11.645941 14 11 C 14 9.3490697 12.65093 8 11 8 z M 11 9 C 12.110491 9 13 9.8895093 13 11 C 13 12.110491 12.110491 13 11 13 C 9.8895093 13 9 12.110491 9 11 C 9 9.8895093 9.8895093 9 11 9 z " />
</svg>
