<svg xmlns="http://www.w3.org/2000/svg" xmlns:svg="http://www.w3.org/2000/svg" id="svg4" width="16" height="16" version="1.1" viewBox="0 0 16 16"><path id="path937" d="m 1,9 v 5.5 c 2.76e-5,0.276131 0.2238691,0.499972 0.5,0.5 h 14 c 0.276131,-2.8e-5 0.499972,-0.223869 0.5,-0.5 V 9 h -1 v 5 H 2 V 9 Z" style="color:#000;fill:#241f31;stroke-linecap:round;stroke-linejoin:round;-inkscape-stroke:none"/><path id="path2734" d="M 5.5,2 A 0.5,0.5 0 0 0 5,2.5 0.5,0.5 0 0 0 5.5,3 H 8 v 9 H 5.5 A 0.5,0.5 0 0 0 5,12.5 0.5,0.5 0 0 0 5.5,13 h 3 3 A 0.5,0.5 0 0 0 12,12.5 0.5,0.5 0 0 0 11.5,12 H 9 V 3 h 2.5 A 0.5,0.5 0 0 0 12,2.5 0.5,0.5 0 0 0 11.5,2 Z" style="color:#000;fill:#241f31;stroke-linecap:round;stroke-linejoin:round;-inkscape-stroke:none"/></svg>