<svg xmlns="http://www.w3.org/2000/svg" xmlns:svg="http://www.w3.org/2000/svg" id="svg4" width="16" height="16" version="1.1" viewBox="0 0 16 16"><path id="path937" style="color:#000;fill:#241f31;stroke-linecap:round;stroke-linejoin:round;-inkscape-stroke:none" d="m 1,9 v 5.5 c 2.76e-5,0.276131 0.2238691,0.499972 0.5,0.5 h 14 c 0.276131,-2.8e-5 0.499972,-0.223869 0.5,-0.5 V 9 h -1 v 5 H 2 V 9 Z"/><path style="color:#000;fill:#241f31;stroke-linecap:round;stroke-linejoin:round;-inkscape-stroke:none" id="path938" d="M 7.5,2 A 0.5,0.5 0 0 0 7.1464844,2.1464844 l -3,3 A 0.50005,0.50005 0 0 0 4.5,6 h 3 c 0.1773898,0 0.2520721,0.034609 0.2949219,0.064453 0.04285,0.029844 0.079786,0.069482 0.1191406,0.1796875 C 7.9927713,6.4645524 8.0125242,6.9305691 8,7.4882812 A 0.50005,0.50005 0 0 0 8,7.5 v 5 A 0.5,0.5 0 0 0 8.5,13 0.5,0.5 0 0 0 9,12.5 V 7.5117187 7.5 C 9.012826,6.9337015 9.0318085,6.4020149 8.8554688,5.9082031 8.766655,5.6594943 8.6095478,5.4129402 8.3671875,5.2441406 8.1248272,5.0753411 7.8226097,5 7.5,5 H 5.7070312 L 7.8535156,2.8535156 a 0.5,0.5 0 0 0 0,-0.7070312 A 0.5,0.5 0 0 0 7.5,2 Z"/></svg>