<?xml version="1.0" encoding="UTF-8" standalone="no"?>
<svg
   height="16px"
   viewBox="0 0 16 16"
   width="16px"
   version="1.1"
   id="svg4"
   xmlns="http://www.w3.org/2000/svg"
   xmlns:svg="http://www.w3.org/2000/svg">
  <defs
     id="defs8" />
  <path
     style="color:#000000;fill:#241f31;stroke-linecap:round;stroke-linejoin:round;-inkscape-stroke:none"
     d="M 1.5,1 C 1.2238691,1.0000276 1.0000276,1.2238691 1,1.5 v 13 c 2.76e-5,0.276131 0.2238691,0.499972 0.5,0.5 h 13 c 0.276131,-2.8e-5 0.499972,-0.223869 0.5,-0.5 V 7 C 15,6.7238576 14.776142,6.5 14.5,6.5 14.223858,6.5 14,6.7238576 14,7 v 7 H 2 V 2 H 9 C 9.2761424,2 9.5,1.7761424 9.5,1.5 9.5,1.2238576 9.2761424,1 9,1 Z"
     id="path937" />
  <path
     style="color:#000000;fill:#241f31;stroke-width:1;stroke-linecap:round;stroke-linejoin:round;stroke-miterlimit:4;stroke-dasharray:none;stroke:none;fill-opacity:1"
     d="M 14.672913,1.015912 A 0.44511851,0.44511693 0 0 0 14.245225,1.1254415 L 7.1240406,8.2466003 A 0.44511851,0.44511693 0 0 0 7.753403,8.8759609 L 14.874588,1.7548017 A 0.44511851,0.44511693 0 0 0 14.672913,1.015912 Z"
     id="path938" />
</svg>
