<svg xmlns="http://www.w3.org/2000/svg" xmlns:svg="http://www.w3.org/2000/svg" id="svg4" width="16" height="16" version="1.1" viewBox="0 0 16 16"><path id="path937" style="color:#000;fill:#241f31;stroke-linecap:round;stroke-linejoin:round;-inkscape-stroke:none" d="m 1,9 v 5.5 c 2.76e-5,0.276131 0.2238691,0.499972 0.5,0.5 h 14 c 0.276131,-2.8e-5 0.499972,-0.223869 0.5,-0.5 V 9 h -1 v 5 H 2 V 9 Z"/><path style="color:#000;fill:#241f31;stroke-linecap:round;stroke-linejoin:round;-inkscape-stroke:none" id="path938" d="m 9.5079486,2 a 0.5,0.5 0 0 1 0.3535156,0.1464844 l 2.9999998,3 A 0.50005,0.50005 0 0 1 12.507949,6 H 9.5079486 C 9.3305588,6 9.2558765,6.034609 9.2130267,6.064453 9.1701767,6.094297 9.1332407,6.133935 9.0938861,6.2441405 9.0151773,6.4645524 8.9954244,6.9305691 9.0079486,7.4882812 a 0.50005,0.50005 0 0 1 0,0.011719 V 12.5 a 0.5,0.5 0 0 1 -0.5,0.5 0.5,0.5 0 0 1 -0.5,-0.5 V 7.5117187 7.5 C 7.9951226,6.9337015 7.9761401,6.4020149 8.1524798,5.9082031 8.2412936,5.6594943 8.3984008,5.4129402 8.6407611,5.2441406 8.8831214,5.0753411 9.1853389,5 9.5079486,5 H 11.300917 L 9.154433,2.8535156 a 0.5,0.5 0 0 1 0,-0.7070312 A 0.5,0.5 0 0 1 9.5079486,2 Z"/></svg>