<svg xmlns="http://www.w3.org/2000/svg" xmlns:svg="http://www.w3.org/2000/svg" id="svg6" width="16" height="16" version="1.1" viewBox="0 0 16 16"><path id="path2" style="fill:#241f31;stroke-width:1" d="M 3.625,1 C 2.17075,1 1,2.17075 1,3.625 v 8.75 C 1,13.82925 2.17075,15 3.625,15 h 8.75 C 13.82925,15 15,13.82925 15,12.375 v -3.5 h -0.875 v 3.5 c 0,0.9695 -0.7805,1.75 -1.75,1.75 h -8.75 c -0.9695,0 -1.75,-0.7805 -1.75,-1.75 v -8.75 c 0,-0.9695 0.7805,-1.75 1.75,-1.75 h 3.5 V 1 Z"/><path style="color:#000;fill:#241f31;stroke-linecap:round;stroke-linejoin:round;-inkscape-stroke:none" id="path1242" d="m 14.146484,1.1464844 -6.9999996,7 a 0.5,0.5 0 0 0 0,0.7070312 0.5,0.5 0 0 0 0.7070312,0 l 7.0000004,-7 a 0.5,0.5 0 0 0 0,-0.7070312 0.5,0.5 0 0 0 -0.707032,0 z"/></svg>