<?xml version="1.0" encoding="UTF-8" standalone="no"?>
<svg
   height="16px"
   viewBox="0 0 16 16"
   width="16px"
   version="1.1"
   id="svg4"
   xmlns="http://www.w3.org/2000/svg"
   xmlns:svg="http://www.w3.org/2000/svg">
  <defs
     id="defs8" />
  <path
     id="path937"
     style="color:#000000;fill:#241f31;stroke-linecap:round;stroke-linejoin:round;-inkscape-stroke:none"
     d="m 1,9 v 5.5 c 2.76e-5,0.276131 0.2238691,0.499972 0.5,0.5 h 14 c 0.276131,-2.8e-5 0.499972,-0.223869 0.5,-0.5 V 9 h -1 v 5 H 2 V 9 Z" />
  <path
     style="color:#000000;fill:#241f31;stroke-width:1;stroke-linecap:round;stroke-linejoin:round;-inkscape-stroke:none"
     d="m 8.0822011,0.1730073 -5.909194,5.909194 a 0.59097849,0.59097848 0 0 0 0,0.8355968 l 5.909194,5.9091949 a 0.59097849,0.59097848 0 0 0 0.8355972,0 L 14.826993,6.9177981 a 0.59097849,0.59097848 0 0 0 0,-0.8355968 L 8.9177983,0.1730073 a 0.59097849,0.59097848 0 0 0 -0.8355972,0 z M 8.4999995,1.4264028 13.573597,6.4999998 8.4999995,11.573597 3.4264026,6.4999998 Z"
     id="path936" />
  <path
     style="color:#000000;fill:#241f31;stroke-linecap:round;stroke-linejoin:round;-inkscape-stroke:none"
     d="M 8.5,4 C 7.1252123,4 6,5.1252117 6,6.5 6,7.8747883 7.1252123,9 8.5,9 9.8747877,9 11,7.8747883 11,6.5 11,5.1252117 9.8747877,4 8.5,4 Z m 0,1 C 9.3343491,5 10,5.6656491 10,6.5 10,7.3343509 9.3343491,8 8.5,8 7.6656509,8 7,7.3343509 7,6.5 7,5.6656491 7.6656509,5 8.5,5 Z"
     id="path1098" />
</svg>
