<?xml version="1.0" encoding="UTF-8" standalone="no"?>
<svg
   height="16px"
   viewBox="0 0 16 16"
   width="16px"
   version="1.1"
   id="svg4"
   xmlns="http://www.w3.org/2000/svg"
   xmlns:svg="http://www.w3.org/2000/svg">
  <defs
     id="defs8" />
  <path
     id="path937"
     style="color:#000000;fill:#241f31;stroke-linecap:round;stroke-linejoin:round;-inkscape-stroke:none"
     d="m 1,9 v 5.5 c 2.76e-5,0.276131 0.2238691,0.499972 0.5,0.5 h 14 c 0.276131,-2.8e-5 0.499972,-0.223869 0.5,-0.5 V 9 h -1 v 5 H 2 V 9 Z" />
  <path
     id="path1035"
     style="color:#000000;fill:#241f31;stroke-linecap:round;stroke-linejoin:round;-inkscape-stroke:none"
     d="M 8.5 1 A 0.5 0.5 0 0 0 8 1.5 L 8 6 L 3.5 6 A 0.5 0.5 0 0 0 3 6.5 A 0.5 0.5 0 0 0 3.5 7 L 8 7 L 8 11.5 A 0.5 0.5 0 0 0 8.5 12 A 0.5 0.5 0 0 0 9 11.5 L 9 7 L 13.5 7 A 0.5 0.5 0 0 0 14 6.5 A 0.5 0.5 0 0 0 13.5 6 L 9 6 L 9 1.5 A 0.5 0.5 0 0 0 8.5 1 z " />
</svg>
