<svg xmlns="http://www.w3.org/2000/svg" xmlns:svg="http://www.w3.org/2000/svg" id="svg9" version="1.1" viewBox="0 0 16 16"><defs id="defs3"><style id="current-color-scheme" type="text/css">.ColorScheme-Text{color:#363636}</style></defs><path id="path5" fill="currentColor" d="m9.7497 2a1.0001 1.0001 0 0 1 0.68945 0.27539l4.6309 4.4121 0.61914 0.58789a1.0001 1.0001 0 0 1 0 1.4492l-0.61914 0.58789-4.6309 4.4121a1.0001 1.0001 0 0 1-0.68945 0.27539h-8.75a1.0001 1.0001 0 0 1-1-1v-10a1.0001 1.0001 0 0 1 1-1h8.75zm0 1h-8.75v10h8.75l4.6309-4.4102 0.61914-0.58984-0.61914-0.58984-4.6309-4.4102z" class="ColorScheme-Text" style="fill:#241f31"/><path style="color:#000;fill:#241f31;stroke-linecap:round;stroke-linejoin:round;-inkscape-stroke:none" id="path863" d="m 3.5,5 a 0.5,0.5 0 0 0 -0.3535156,0.1464844 0.5,0.5 0 0 0 0,0.7070312 l 5,5.0000004 a 0.5,0.5 0 0 0 0.7070312,0 0.5,0.5 0 0 0 0,-0.707032 l -5,-4.9999996 A 0.5,0.5 0 0 0 3.5,5 Z"/><path style="color:#000;fill:#241f31;stroke-linecap:round;stroke-linejoin:round;-inkscape-stroke:none" id="path865" d="m 8.1464844,5.1464844 -5,4.9999996 a 0.5,0.5 0 0 0 0,0.707032 0.5,0.5 0 0 0 0.7070312,0 l 5,-5.0000004 a 0.5,0.5 0 0 0 0,-0.7070312 0.5,0.5 0 0 0 -0.7070312,0 z"/></svg>