<svg xmlns="http://www.w3.org/2000/svg" xmlns:svg="http://www.w3.org/2000/svg" id="svg6" width="16" height="15.974" version="1.1"><path style="color:#000;fill:#241f31;stroke-linecap:round;stroke-linejoin:round;-inkscape-stroke:none" id="path962" d="M 9.5,9 A 0.50005,0.50005 0 0 0 9,9.5 v 4 A 0.50005,0.50005 0 0 0 9.5,14 h 4 A 0.50005,0.50005 0 0 0 14,13.5 v -4 A 0.50005,0.50005 0 0 0 13.5,9 Z m 0.5,1 h 3 v 3 h -3 z"/><path style="color:#000;fill:#241f31;stroke-linecap:round;stroke-linejoin:round;-inkscape-stroke:none" id="path960" d="M 3.5,9 A 0.50005,0.50005 0 0 0 3,9.5 v 4 A 0.50005,0.50005 0 0 0 3.5,14 h 4 A 0.50005,0.50005 0 0 0 8,13.5 v -4 A 0.50005,0.50005 0 0 0 7.5,9 Z M 4,10 h 3 v 3 H 4 Z"/><path style="color:#000;fill:#241f31;stroke-linecap:round;stroke-linejoin:round;-inkscape-stroke:none" id="path948" d="M 3.5,3 A 0.50005,0.50005 0 0 0 3,3.5 v 4 A 0.50005,0.50005 0 0 0 3.5,8 h 10 A 0.50005,0.50005 0 0 0 14,7.5 v -4 A 0.50005,0.50005 0 0 0 13.5,3 Z M 4,4 h 9 V 7 H 4 Z"/></svg>