<svg xmlns="http://www.w3.org/2000/svg" xmlns:svg="http://www.w3.org/2000/svg" id="svg6" width="16" height="16" version="1.1"><path style="color:#000;fill:#241f31;stroke-linecap:round;stroke-linejoin:round;-inkscape-stroke:none" id="path1113" d="M 8,1 C 4.1399331,1 1,4.139932 1,8 c 0,3.860068 3.1399331,7 7,7 3.860067,0 7,-3.139932 7,-7 C 15,4.139932 11.860067,1 8,1 Z m 0,1 c 3.319628,0 6,2.6803708 6,6 0,3.319629 -2.680372,6 -6,6 C 4.6803723,14 2,11.319629 2,8 2,4.6803708 4.6803723,2 8,2 Z"/><path id="path1278" style="color:#000;fill:#241f31;stroke-linecap:round;stroke-linejoin:round;-inkscape-stroke:none" d="M 5.5 5 A 0.5 0.5 0 0 0 5.1464844 5.1464844 A 0.5 0.5 0 0 0 5.1464844 5.8535156 L 7.2929688 8 L 5.1464844 10.146484 A 0.5 0.5 0 0 0 5.1464844 10.853516 A 0.5 0.5 0 0 0 5.8535156 10.853516 L 8 8.7070312 L 10.146484 10.853516 A 0.5 0.5 0 0 0 10.853516 10.853516 A 0.5 0.5 0 0 0 10.853516 10.146484 L 8.7070312 8 L 10.853516 5.8535156 A 0.5 0.5 0 0 0 10.853516 5.1464844 A 0.5 0.5 0 0 0 10.146484 5.1464844 L 8 7.2929688 L 5.8535156 5.1464844 A 0.5 0.5 0 0 0 5.5 5 z"/></svg>