<?xml version="1.0" encoding="UTF-8" standalone="no"?>
<svg
   height="16px"
   viewBox="0 0 16 16"
   width="16px"
   version="1.1"
   id="svg10"
   xmlns="http://www.w3.org/2000/svg"
   xmlns:svg="http://www.w3.org/2000/svg">
  <defs
     id="defs14" />
  <path
     style="color:#000000;fill:#241f31;stroke-linecap:round;stroke-linejoin:round;-inkscape-stroke:none"
     d="M 1.5,10 A -0.5,-0.5 0 0 0 2,9.5 V 2 h 8.5 A -0.5,-0.5 0 0 0 11,1.5 -0.5,-0.5 0 0 0 10.5,1 h -9 A -0.50005,-0.50005 0 0 0 1,1.5 v 8 A -0.5,-0.5 0 0 0 1.5,10 Z"
     id="path1257" />
  <path
     style="color:#000000;fill:#241f31;stroke-linecap:round;stroke-linejoin:round;-inkscape-stroke:none"
     d="M 14.5,15 A -0.50005,-0.50005 0 0 0 15,14.5 V 3.5 A -0.50005,-0.50005 0 0 0 14.5,3 H 3.5 A -0.50005,-0.50005 0 0 0 3,3.5 v 11 A -0.50005,-0.50005 0 0 0 3.5,15 Z M 14,14 H 4 V 4 h 10 z"
     id="rect941" />
</svg>
