<?xml version="1.0" encoding="UTF-8" standalone="no"?>
<svg
   id="svg6"
   version="1.1"
   viewBox="0 0 16 16"
   sodipodi:docname="edit-redo-symbolic.svg"
   inkscape:version="1.4.2 (ebf0e940d0, 2025-05-08)"
   xmlns:inkscape="http://www.inkscape.org/namespaces/inkscape"
   xmlns:sodipodi="http://sodipodi.sourceforge.net/DTD/sodipodi-0.dtd"
   xmlns="http://www.w3.org/2000/svg"
   xmlns:svg="http://www.w3.org/2000/svg">
  <sodipodi:namedview
     id="namedview1"
     pagecolor="#ffffff"
     bordercolor="#111111"
     borderopacity="1"
     inkscape:showpageshadow="0"
     inkscape:pageopacity="0"
     inkscape:pagecheckerboard="1"
     inkscape:deskcolor="#d1d1d1"
     showgrid="true"
     inkscape:zoom="33.234019"
     inkscape:cx="7.2516057"
     inkscape:cy="8.8162675"
     inkscape:window-width="2560"
     inkscape:window-height="955"
     inkscape:window-x="0"
     inkscape:window-y="0"
     inkscape:window-maximized="1"
     inkscape:current-layer="svg6">
    <inkscape:grid
       id="grid1"
       units="px"
       originx="0"
       originy="0"
       spacingx="1"
       spacingy="1"
       empcolor="#0099e5"
       empopacity="0.30196078"
       color="#0099e5"
       opacity="0.14902"
       empspacing="5"
       enabled="true"
       visible="true" />
  </sodipodi:namedview>
  <defs
     id="defs3051">
    <style
       id="current-color-scheme"
       type="text/css">.ColorScheme-Text{color:#363636}</style>
  </defs>
  <path
     id="path1"
     style="baseline-shift:baseline;display:inline;overflow:visible;opacity:1;vector-effect:none;fill:#241f31;stroke-width:1.02605;stroke-linecap:round;stroke-linejoin:round;enable-background:accumulate;stop-color:#000000;stop-opacity:1"
     d="M 10.5 2 A 0.5 0.5 0 0 0 10.146484 2.1464844 A 0.5 0.5 0 0 0 10.146484 2.8535156 L 12.294922 5.0019531 L 6.8378906 5.0058594 L 6.8378906 5 C 6.8132766 4.9996758 6.7883649 5 6.7636719 5 C 6.7221362 5 6.6819348 5.0049441 6.640625 5.0058594 L 6.5703125 5.0058594 A 0.5 0.5 0 0 0 6.4902344 5.0136719 C 3.7166199 5.1502804 1.5 7.3322481 1.5 10 C 1.5 12.755436 3.8628152 15 6.7636719 15 C 6.7883649 15 6.8132776 15.000324 6.8378906 15 L 6.8378906 14.982422 A 0.52638798 0.5 0 0 0 6.9726562 15 A 0.52638798 0.5 0 0 0 7.5 14.5 A 0.52638798 0.5 0 0 0 6.9726562 14 A 0.52638798 0.5 0 0 0 6.8378906 14.017578 L 6.8378906 13.988281 C 6.8132896 13.988681 6.7883769 13.988281 6.7636719 13.988281 C 4.4381728 13.988281 2.5644531 12.208922 2.5644531 10 C 2.5644531 7.7910786 4.4381728 6.0117186 6.7636719 6.0117188 C 6.7883779 6.0117188 6.8132896 6.0113185 6.8378906 6.0117188 L 6.8378906 6.0058594 L 13.5 6 A 0.50005 0.50005 0 0 0 13.853516 5.1464844 L 10.853516 2.1464844 A 0.5 0.5 0 0 0 10.5 2 z " />
</svg>
