<svg xmlns="http://www.w3.org/2000/svg" xmlns:svg="http://www.w3.org/2000/svg" id="svg10" width="16" height="16" version="1.1" viewBox="0 0 16 16"><path style="color:#000;fill:#241f31;stroke-linecap:round;stroke-linejoin:round;-inkscape-stroke:none" id="path1257" d="M 14.5,6 A 0.5,0.5 0 0 0 14,6.5 V 14 H 5.5 A 0.5,0.5 0 0 0 5,14.5 0.5,0.5 0 0 0 5.5,15 h 9 A 0.50005,0.50005 0 0 0 15,14.5 v -8 A 0.5,0.5 0 0 0 14.5,6 Z"/><path style="color:#000;fill:#241f31;stroke-linecap:round;stroke-linejoin:round;-inkscape-stroke:none" id="rect941" d="M 1.5,1 A 0.50005,0.50005 0 0 0 1,1.5 v 11 A 0.50005,0.50005 0 0 0 1.5,13 h 11 A 0.50005,0.50005 0 0 0 13,12.5 V 1.5 A 0.50005,0.50005 0 0 0 12.5,1 Z M 2,2 H 12 V 12 H 2 Z"/></svg>