<svg xmlns="http://www.w3.org/2000/svg" xmlns:svg="http://www.w3.org/2000/svg" id="svg6" width="16" height="16" version="1.1"><path style="color:#000;fill:#241f31;stroke-linecap:round;stroke-linejoin:round;-inkscape-stroke:none" id="path862" d="M 1.5,5 A 0.5,0.5 0 0 0 1,5.5 v 3 a 0.50005,0.50005 0 0 0 0.1464844,0.3535156 l 3,3.0000004 a 0.5,0.5 0 0 0 0.7070312,0 0.5,0.5 0 0 0 0,-0.707032 L 2,8.2929687 V 5.5 A 0.5,0.5 0 0 0 1.5,5 Z"/><path style="color:#000;fill:#241f31;stroke-linecap:round;stroke-linejoin:round;-inkscape-stroke:none" id="path864" d="m 11.146484,5.1464844 c -0.195212,0.1952535 -0.195212,0.5117777 0,0.7070312 L 14,8.7070313 V 11.5 c 0,0.276142 0.223858,0.5 0.5,0.5 0.276142,0 0.5,-0.223858 0.5,-0.5 v -3 c -2.5e-5,-0.1325994 -0.05272,-0.2597597 -0.146484,-0.3535156 l -3,-3 c -0.195254,-0.1952123 -0.511778,-0.1952123 -0.707032,0 z"/></svg>