<svg xmlns="http://www.w3.org/2000/svg" xmlns:svg="http://www.w3.org/2000/svg" id="svg6" version="1.1" viewBox="0 0 16 16"><defs id="defs3051"><style id="current-color-scheme" type="text/css">.ColorScheme-Text{color:#363636}</style></defs><path id="path4" style="fill:#241f31;fill-opacity:1;stroke:none" d="m 10.006293,2 c 3,3 3,3 3,3 0,0 0,1 -1,1 C 10.260352,6.00648 8.9825255,5.986788 7.2370013,6.010206 6.0062929,6 4.1106949,7.5575656 4.0164989,9.2307084 3.8562569,10.873197 5.0276849,12.507548 6.6315879,12.889811 7.4096122,13.073318 8.2145336,12.974591 9.0062929,13 v 1 C 7.8801576,13.97979 6.7012079,14.120118 5.6543779,13.60248 3.8477589,12.819242 2.7258799,10.757215 3.0581429,8.8147011 3.3323819,6.7997513 5.1293949,5.1324463 7.1600609,5.0131218 8.4727874,4.984378 9.7867911,5.007395 11.100043,5 L 9.0062929,3 c 0,0 0,-1 1.0000001,-1 z" class="ColorScheme-Text"/></svg>