<?xml version="1.0" encoding="UTF-8" standalone="no"?>
<svg
   height="16px"
   viewBox="0 0 16 16"
   width="16px"
   version="1.1"
   id="svg10"
   xmlns="http://www.w3.org/2000/svg"
   xmlns:svg="http://www.w3.org/2000/svg">
  <defs
     id="defs14" />
  <path
     id="path4"
     style="fill:#241f31"
     d="m 12,15 c 1.644531,0 3,-1.355469 3,-3 V 5 C 15,3.355469 13.644531,2 12,2 H 6 C 4.355469,2 3,3.355469 3,5 v 7 c 0,1.644531 1.355469,3 3,3 z m 0,-2 H 6 C 5.429688,13 5,12.570312 5,12 V 5 C 5,4.429688 5.429688,4 6,4 h 6 c 0.570312,0 1,0.429688 1,1 v 7 c 0,0.570312 -0.429688,1 -1,1 z" />
  <path
     style="color:#000000;fill:#241f31;stroke-linecap:round;stroke-linejoin:round;-inkscape-stroke:none"
     d="M 1.5,9 A 0.5,-0.5 0 0 0 2,8.5 V 1 h 8.5 A 0.5,-0.5 0 0 0 11,0.5 0.5,-0.5 0 0 0 10.5,0 h -9 A 0.50005,-0.50005 0 0 0 1,0.5 v 8 A 0.5,-0.5 0 0 0 1.5,9 Z"
     id="path1257" />
</svg>
