<?xml version="1.0" encoding="UTF-8" standalone="no"?>
<svg
   height="16px"
   viewBox="0 0 16 16"
   width="16px"
   version="1.1"
   id="svg8"
   xmlns="http://www.w3.org/2000/svg"
   xmlns:svg="http://www.w3.org/2000/svg">
  <defs
     id="defs12" />
  <path
     id="path1050"
     style="color:#000000;fill:#241f31;stroke-width:3.77952;stroke-linejoin:round;-inkscape-stroke:none"
     d="M 7.5 0 C 3.3697131 0 -5.9211895e-16 3.3697131 0 7.5 C 0 11.630287 3.3697131 15 7.5 15 C 7.6682154 15 7.8344812 14.993423 8 14.982422 L 8 12.976562 C 7.835219 12.99126 7.6687631 13 7.5 13 C 4.4505929 13 2 10.549407 2 7.5 C 2 4.4505929 4.4505929 2 7.5 2 C 10.549407 2 13 4.4505929 13 7.5 C 13 7.6687631 12.99126 7.835219 12.976562 8 L 14.982422 8 C 14.993423 7.8344812 15 7.6682154 15 7.5 C 15 3.3697131 11.630287 -5.9211895e-16 7.5 0 z " />
  <path
     id="path916"
     style="color:#000000;fill:#241f31;stroke-linecap:round;stroke-linejoin:round;-inkscape-stroke:none"
     d="M 13.75 8 A 0.50005 0.50005 0 0 0 13.396484 8.1464844 L 12.625 8.9179688 L 15.082031 11.375 L 15.853516 10.603516 A 0.50005 0.50005 0 0 0 15.853516 9.8964844 L 14.103516 8.1464844 A 0.50005 0.50005 0 0 0 13.75 8 z M 11.917969 9.625 L 9.0214844 12.521484 A 0.50005 0.50005 0 0 0 8.9003906 12.716797 L 8.0253906 15.341797 A 0.50005 0.50005 0 0 0 8.6582031 15.974609 L 11.283203 15.099609 A 0.50005 0.50005 0 0 0 11.478516 14.978516 L 14.375 12.082031 L 11.917969 9.625 z " />
  <path
     id="path1050-3"
     style="color:#000000;fill:#241f31;stroke-width:3.77952;stroke-linejoin:round;-inkscape-stroke:none"
     d="m 15,14 c -1,1 0,0 -1,1 l 0.767578,0.792969 c 0.183997,0.179501 0.449076,0.248555 0.697266,0.18164 0.248101,-0.06784 0.441927,-0.261664 0.509765,-0.509765 0.06692,-0.24819 -0.0021,-0.513269 -0.18164,-0.697266 z" />
</svg>
