<svg xmlns="http://www.w3.org/2000/svg" xmlns:svg="http://www.w3.org/2000/svg" id="svg6" version="1.1" viewBox="0 0 16 16"><defs id="defs3051"><style id="current-color-scheme" type="text/css">.ColorScheme-Text{color:#363636}</style></defs><path id="path4" style="fill:#241f31;fill-opacity:1;stroke:none" d="M 6,2 C 3,5 3,5 3,5 3,5 3,6 4,6 5.7459408,6.00648 7.0237674,5.986788 8.7692916,6.010206 10,6 11.895598,7.5575656 11.989794,9.2307084 12.150036,10.873197 10.978608,12.507548 9.374705,12.889811 8.5966807,13.073318 7.7917593,12.974591 7,13 v 1 c 1.1261353,-0.02021 2.305085,0.120118 3.351915,-0.39752 1.806619,-0.783238 2.928498,-2.845265 2.596235,-4.7877789 C 12.673911,6.7997513 10.876898,5.1324463 8.846232,5.0131218 7.5335055,4.984378 6.2195018,5.007395 4.90625,5 L 7,3 C 7,3 7,2 6,2 Z" class="ColorScheme-Text"/></svg>