<?xml version="1.0" encoding="UTF-8" standalone="no"?>
<svg
   height="16px"
   viewBox="0 0 16 16"
   width="16px"
   version="1.1"
   id="svg10"
   xmlns="http://www.w3.org/2000/svg"
   xmlns:svg="http://www.w3.org/2000/svg">
  <defs
     id="defs14" />
  <path
     style="color:#000000;fill:#241f31;stroke-linecap:round;stroke-linejoin:round;-inkscape-stroke:none"
     d="M 14.5,6 A 0.5,0.5 0 0 0 14,6.5 V 14 H 5.5 A 0.5,0.5 0 0 0 5,14.5 0.5,0.5 0 0 0 5.5,15 h 9 A 0.50005,0.50005 0 0 0 15,14.5 v -8 A 0.5,0.5 0 0 0 14.5,6 Z"
     id="path1257" />
  <path
     style="color:#000000;fill:#241f31;stroke-linecap:round;stroke-linejoin:round;-inkscape-stroke:none"
     d="M 1.5,1 A 0.50005,0.50005 0 0 0 1,1.5 v 11 A 0.50005,0.50005 0 0 0 1.5,13 h 11 A 0.50005,0.50005 0 0 0 13,12.5 V 1.5 A 0.50005,0.50005 0 0 0 12.5,1 Z M 2,2 H 12 V 12 H 2 Z"
     id="rect941" />
</svg>
