<svg xmlns="http://www.w3.org/2000/svg" xmlns:svg="http://www.w3.org/2000/svg" id="svg6" version="1.1" viewBox="0 0 16 16"><defs id="defs3051"><style id="current-color-scheme" type="text/css"/></defs><path style="baseline-shift:baseline;display:inline;overflow:visible;opacity:1;vector-effect:none;fill:#241f31;stroke-width:1.02605;stroke-linecap:round;stroke-linejoin:round;enable-background:accumulate;stop-color:#000;stop-opacity:1" id="path1" d="M 10.5 2 A 0.5 0.5 0 0 0 10.146484 2.1464844 A 0.5 0.5 0 0 0 10.146484 2.8535156 L 12.294922 5.0019531 L 6.8378906 5.0058594 L 6.8378906 5 C 6.8132766 4.9996758 6.7883649 5 6.7636719 5 C 6.7221362 5 6.6819348 5.0049441 6.640625 5.0058594 L 6.5703125 5.0058594 A 0.5 0.5 0 0 0 6.4902344 5.0136719 C 3.7166199 5.1502804 1.5 7.3322481 1.5 10 C 1.5 12.755436 3.8628152 15 6.7636719 15 C 6.7883649 15 6.8132776 15.000324 6.8378906 15 L 6.8378906 14.982422 A 0.52638798 0.5 0 0 0 6.9726562 15 A 0.52638798 0.5 0 0 0 7.5 14.5 A 0.52638798 0.5 0 0 0 6.9726562 14 A 0.52638798 0.5 0 0 0 6.8378906 14.017578 L 6.8378906 13.988281 C 6.8132896 13.988681 6.7883769 13.988281 6.7636719 13.988281 C 4.4381728 13.988281 2.5644531 12.208922 2.5644531 10 C 2.5644531 7.7910786 4.4381728 6.0117186 6.7636719 6.0117188 C 6.7883779 6.0117188 6.8132896 6.0113185 6.8378906 6.0117188 L 6.8378906 6.0058594 L 13.5 6 A 0.50005 0.50005 0 0 0 13.853516 5.1464844 L 10.853516 2.1464844 A 0.5 0.5 0 0 0 10.5 2 z"/></svg>