<svg xmlns="http://www.w3.org/2000/svg" xmlns:svg="http://www.w3.org/2000/svg" id="svg6" version="1.1" viewBox="0 0 16 16"><defs id="defs3051"><style id="current-color-scheme" type="text/css"/></defs><path style="baseline-shift:baseline;display:inline;overflow:visible;opacity:1;vector-effect:none;fill:#241f31;stroke-width:1.02605;stroke-linecap:round;stroke-linejoin:round;enable-background:accumulate;stop-color:#000;stop-opacity:1" id="path1" d="m 5.4998542,2 a 0.5,0.5 0 0 1 0.353516,0.1464844 0.5,0.5 0 0 1 0,0.7070312 l -2.148438,2.1484375 5.4570314,0.00391 V 5 c 0.024614,-3.242e-4 0.049526,0 0.074219,0 0.041536,0 0.081737,0.00494 0.1230469,0.00586 h 0.070312 a 0.5,0.5 0 0 1 0.080078,0.00781 C 12.283234,5.1502804 14.499854,7.3322481 14.499854,10 c 0,2.755436 -2.362815,5 -5.2636717,5 -0.024693,0 -0.049606,3.24e-4 -0.074219,0 V 14.98242 A 0.52638798,0.5 0 0 1 9.027198,15 0.52638798,0.5 0 0 1 8.4998542,14.5 0.52638798,0.5 0 0 1 9.027198,14 0.52638798,0.5 0 0 1 9.1619636,14.01758 v -0.0293 c 0.024601,4e-4 0.049514,0 0.074219,0 2.3254984,0 4.1992184,-1.779359 4.1992184,-3.988281 0,-2.2089214 -1.87372,-3.9882814 -4.1992184,-3.9882812 -0.024706,0 -0.049618,-4.003e-4 -0.074219,0 v -0.00586 L 2.4998542,6 A 0.50005,0.50005 0 0 1 2.1463382,5.1464844 l 3,-3 A 0.5,0.5 0 0 1 5.4998542,2 Z"/></svg>