<svg xmlns="http://www.w3.org/2000/svg" xmlns:svg="http://www.w3.org/2000/svg" id="svg6" width="16" height="16" version="1.1" viewBox="0 0 16 16"><path style="color:#000;fill:#241f31;stroke-linecap:round;stroke-linejoin:round;-inkscape-stroke:none" id="path1242" d="m 14.146484,1.1464844 -6.9999996,7 a 0.5,0.5 0 0 0 0,0.7070312 0.5,0.5 0 0 0 0.7070312,0 l 7.0000004,-7 a 0.5,0.5 0 0 0 0,-0.7070312 0.5,0.5 0 0 0 -0.707032,0 z"/><path style="color:#000;fill:#241f31;stroke-linecap:round;stroke-linejoin:round;-inkscape-stroke:none" id="path938" d="M 1.5,3 A 0.5,0.5 0 0 0 1,3.5 v 11 a 0.50005,0.50005 0 0 0 0.8535156,0.353516 l 3,-3 a 0.5,0.5 0 0 0 0,-0.707032 0.5,0.5 0 0 0 -0.7070312,0 L 2,13.292969 V 3.5 A 0.5,0.5 0 0 0 1.5,3 Z"/></svg>