<?xml version="1.0" encoding="UTF-8" standalone="no"?>
<svg
   width="16px"
   height="16px"
   version="1.1"
   viewBox="0 0 16 16"
   id="svg6"
   xmlns="http://www.w3.org/2000/svg"
   xmlns:svg="http://www.w3.org/2000/svg">
  <defs
     id="defs10" />
  <path
     style="color:#000000;fill:#241f31;stroke-linecap:round;stroke-linejoin:round;-inkscape-stroke:none"
     d="m 14.146484,1.1464844 -6.9999996,7 a 0.5,0.5 0 0 0 0,0.7070312 0.5,0.5 0 0 0 0.7070312,0 l 7.0000004,-7 a 0.5,0.5 0 0 0 0,-0.7070312 0.5,0.5 0 0 0 -0.707032,0 z"
     id="path1242" />
  <path
     style="color:#000000;fill:#241f31;stroke-linecap:round;stroke-linejoin:round;-inkscape-stroke:none"
     d="M 1.5,3 A 0.5,0.5 0 0 0 1,3.5 v 11 a 0.50005,0.50005 0 0 0 0.8535156,0.353516 l 3,-3 a 0.5,0.5 0 0 0 0,-0.707032 0.5,0.5 0 0 0 -0.7070312,0 L 2,13.292969 V 3.5 A 0.5,0.5 0 0 0 1.5,3 Z"
     id="path938" />
</svg>
