<?xml version="1.0" encoding="UTF-8" standalone="no"?>
<svg
   height="16"
   version="1.1"
   width="16"
   id="svg8"
   xmlns="http://www.w3.org/2000/svg"
   xmlns:svg="http://www.w3.org/2000/svg">
  <defs
     id="defs12" />
  <path
     style="color:#000000;fill:#241f31;stroke-linecap:round;stroke-linejoin:round;-inkscape-stroke:none"
     d="M 8,3.5 C 6.6252118,3.5 5.5,4.6252119 5.5,6 5.5,7.3747881 6.6252118,8.5 8,8.5 9.3747882,8.5 10.5,7.3747881 10.5,6 10.5,4.6252119 9.3747882,3.5 8,3.5 Z m 0,1 C 8.8343486,4.5 9.5,5.1656515 9.5,6 9.5,6.8343485 8.8343486,7.5 8,7.5 7.1656514,7.5 6.5,6.8343485 6.5,6 6.5,5.1656515 7.1656514,4.5 8,4.5 Z"
     id="path1173" />
  <path
     style="color:#000000;fill:#241f31;-inkscape-stroke:none"
     d="M 8,0.5 C 6.3888905,0.5 4.9974987,1.0454701 4.0214844,2.0214844 3.0454701,2.9974987 2.5,4.3888905 2.5,6 c 0,2.6484467 1.167685,4.98819 2.390625,6.669922 0.61147,0.840866 1.2386436,1.518447 1.7597656,1.996094 0.260561,0.238823 0.4932166,0.426137 0.6953125,0.564453 0.101048,0.06916 0.1937471,0.127391 0.2890625,0.173828 C 7.730081,15.450734 7.8133626,15.5 8,15.5 c 0.1866374,0 0.269919,-0.04927 0.3652344,-0.0957 0.095315,-0.04644 0.1880145,-0.10467 0.2890625,-0.173828 0.2020959,-0.138316 0.4347515,-0.32563 0.6953125,-0.564453 0.521122,-0.477647 1.1482956,-1.155228 1.7597656,-1.996094 C 12.332315,10.98819 13.5,8.6484467 13.5,6 13.5,4.3888905 12.95453,2.9974987 11.978516,2.0214844 11.002501,1.0454701 9.6111095,0.5 8,0.5 Z m 0,1 c 1.3888875,0 2.4975,0.4545317 3.271484,1.2285156 C 12.045468,3.5024996 12.5,4.6111125 12.5,6 c 0,2.3515483 -1.058791,4.511813 -2.199219,6.080078 C 9.7305673,12.864211 9.1414413,13.499132 8.6738281,13.927734 8.4400215,14.142035 8.2359044,14.306285 8.0898438,14.40625 8.0492566,14.434028 8.0293819,14.443608 8,14.460938 7.9706181,14.443608 7.9507434,14.434028 7.9101562,14.40625 7.7640956,14.306285 7.5599785,14.142035 7.3261719,13.927734 6.8585587,13.499132 6.2694327,12.864211 5.6992187,12.080078 4.5587909,10.511813 3.5,8.3515483 3.5,6 3.5,4.6111125 3.9545317,3.5024996 4.7285156,2.7285156 5.5024996,1.9545317 6.6111125,1.5 8,1.5 Z"
     id="path1373" />
</svg>
