<?xml version="1.0" encoding="UTF-8" standalone="no"?>
<svg
   height="16px"
   viewBox="0 0 16 16"
   width="16px"
   version="1.1"
   id="svg4"
   xmlns="http://www.w3.org/2000/svg"
   xmlns:svg="http://www.w3.org/2000/svg">
  <defs
     id="defs8" />
  <path
     d="M 7.9999213,3.6e-7 C 4.962542,3.6e-7 2.5,2.5072252 2.5,5.6000561 c 0,1.106411 0.315626,2.131861 0.859428,2.9998703 0.02624,0.0424 0.04636,0.084 0.0737,0.1256009 L 6.8456915,15.175191 C 7.005978,15.643996 7.4601286,16 7.9755643,16 c 0.515436,0 0.9444421,-0.356004 1.10473,-0.824811 L 12.886348,8.1751221 C 13.278425,7.4047141 13.5,6.5271051 13.5,5.6000561 13.5,2.5072252 11.037536,3.6e-7 7.9999213,3.6e-7 Z m -0.02436,3.17507184 c 1.5188081,0 2.7500397,1.2536119 2.7500397,2.800028 0,1.5464149 -1.2312316,2.8000281 -2.7500397,2.8000281 -1.5188065,0 -2.7500393,-1.2536132 -2.7500393,-2.8000281 0,-1.5464161 1.2312328,-2.800028 2.7500393,-2.800028 z"
     fill="#e74c3c"
     id="path4"
     style="fill:#241f31;stroke-width:1;stroke-miterlimit:4;stroke-dasharray:none" />
  <path
     style="color:#000000;fill:#241f31;fill-opacity:0.5;stroke-linecap:round;stroke-linejoin:round;-inkscape-stroke:none"
     d="M 8,12 C 6.1738972,12 4.5215789,12.167196 3.2910156,12.451172 2.675734,12.59316 2.1676321,12.760424 1.7714844,12.976563 1.5734105,13.084632 1.4004134,13.204417 1.2578125,13.365234 1.1152116,13.526051 1,13.750078 1,14 c 0,0.249922 0.1152116,0.473949 0.2578125,0.634766 0.1426009,0.160817 0.315598,0.280602 0.5136719,0.388672 0.3961477,0.216138 0.9042496,0.383402 1.5195312,0.52539 C 4.5215789,15.832804 6.1738972,16 8,16 c 1.8261028,0 3.478421,-0.167196 4.708984,-0.451172 0.615282,-0.141988 1.123384,-0.309252 1.519532,-0.52539 0.198074,-0.10807 0.371071,-0.227855 0.513672,-0.388672 C 14.884788,14.473949 15,14.249922 15,14 15,13.750078 14.884788,13.526051 14.742188,13.365234 14.599587,13.204417 14.42659,13.084632 14.228516,12.976563 13.832368,12.760424 13.324266,12.59316 12.708984,12.451172 11.478421,12.167196 9.8261028,12 8,12 Z m 0,1 c 1.7637444,0 3.362403,0.166865 4.484375,0.425781 0.560986,0.129459 1.003938,0.286911 1.265625,0.429688 0.108838,0.05938 0.163204,0.107064 0.203125,0.144531 -0.03992,0.03747 -0.09429,0.08515 -0.203125,0.144531 -0.261687,0.142777 -0.704639,0.300229 -1.265625,0.429688 C 11.362403,14.833135 9.7637444,15 8,15 6.2362556,15 4.6375967,14.833135 3.515625,14.574219 2.9546392,14.44476 2.5116874,14.287308 2.25,14.144531 2.1411618,14.085149 2.0867959,14.037467 2.046875,14 2.0867959,13.962533 2.1411618,13.914851 2.25,13.855469 2.5116874,13.712692 2.9546392,13.55524 3.515625,13.425781 4.6375967,13.166865 6.2362556,13 8,13 Z"
     id="path933" />
</svg>
