<?xml version="1.0" encoding="UTF-8" standalone="no"?>
<svg
   height="16px"
   viewBox="0 0 16 16"
   width="16px"
   version="1.1"
   id="svg4"
   xmlns="http://www.w3.org/2000/svg"
   xmlns:svg="http://www.w3.org/2000/svg">
  <defs
     id="defs8" />
  <path
     id="path933"
     style="color:#000000;fill:#241f31;fill-opacity:0.5;stroke-linecap:round;stroke-linejoin:round;-inkscape-stroke:none"
     d="M 5.2402344 12.138672 C 4.5179686 12.215009 3.8583098 12.320258 3.2910156 12.451172 C 2.675734 12.59316 2.1676321 12.760424 1.7714844 12.976562 C 1.5734105 13.084631 1.4004134 13.204417 1.2578125 13.365234 C 1.1152116 13.526051 1 13.750078 1 14 C 1 14.249922 1.1152116 14.473949 1.2578125 14.634766 C 1.4004134 14.795583 1.5734105 14.915368 1.7714844 15.023438 C 2.1676321 15.239576 2.675734 15.40684 3.2910156 15.548828 C 4.5215789 15.832804 6.1738972 16 8 16 C 9.8261028 16 11.478421 15.832804 12.708984 15.548828 C 13.324266 15.40684 13.832368 15.239575 14.228516 15.023438 C 14.42659 14.915368 14.599586 14.795583 14.742188 14.634766 C 14.884787 14.473949 15 14.249922 15 14 C 15 13.750078 14.884788 13.526051 14.742188 13.365234 C 14.599586 13.204417 14.42659 13.084632 14.228516 12.976562 C 13.832368 12.760423 13.324266 12.59316 12.708984 12.451172 C 12.177327 12.328482 11.563642 12.229324 10.894531 12.154297 A 2.9312224 2.5 0 0 1 10.314453 13.101562 C 11.141647 13.175929 11.883058 13.287016 12.484375 13.425781 C 13.045361 13.55524 13.488313 13.712692 13.75 13.855469 C 13.858838 13.914849 13.913204 13.962533 13.953125 14 C 13.913205 14.03747 13.858835 14.08515 13.75 14.144531 C 13.488313 14.287308 13.045361 14.44476 12.484375 14.574219 C 11.362403 14.833135 9.7637444 15 8 15 C 6.2362556 15 4.6375967 14.833135 3.515625 14.574219 C 2.9546392 14.44476 2.5116874 14.287308 2.25 14.144531 C 2.1411618 14.085149 2.0867959 14.037467 2.046875 14 C 2.0867959 13.962533 2.1411618 13.914851 2.25 13.855469 C 2.5116874 13.712692 2.9546392 13.55524 3.515625 13.425781 C 4.1474522 13.279975 4.9339802 13.163905 5.8125 13.089844 A 2.9312224 2.5 0 0 1 5.2402344 12.138672 z " />
  <g
     id="g1311">
    <path
       id="path1050"
       style="color:#000000;fill:#241f31;fill-opacity:1;stroke-width:0.999997;-inkscape-stroke:none"
       d="M 8,0 C 4.6882952,0 2,2.6453117 2,5.8663195 c 0,1.1511439 0.3430804,2.2287497 0.9320913,3.1354166 0,0 0,0.00173 0,0.00173 0,0 0.0018,0.00173 0.0018,0.00173 -0.00229,-0.00332 0.024955,0.039261 0.034254,0.055556 L 6.1033654,14.767361 C 6.4047444,15.486583 7.1162432,16 7.9765625,16 c 0.8630022,0 1.5664279,-0.541904 1.856971,-1.243056 l 3.4939905,-6.1874995 0.0054,-0.010417 C 13.759576,7.7516775 14,6.8319982 14,5.8663195 14,2.6453266 11.311883,0 8,0 Z m 0,1.7777778 c 2.296016,0 4.153846,1.8111739 4.153846,4.0885417 0,0.681217 -0.168955,1.3203878 -0.465144,1.8819444 -5.18e-4,9.778e-4 5.18e-4,0.00249 0,0.00348 L 8.1496394,14.0191 8.1243988,14.09028 c -0.031121,0.08764 -0.097086,0.131939 -0.1478363,0.131939 -0.05075,0 -0.1479125,-0.07123 -0.1694712,-0.131945 L 7.7836538,14.024306 4.5799279,8.1927084 4.5564903,8.15625 c 0.015789,0.023131 -5.33e-4,-0.00416 -0.05589,-0.090278 v -0.00173 l -0.0018,-0.00348 C 4.0851627,7.4249823 3.8461538,6.6807462 3.8461538,5.8663195 3.8461538,3.5889666 5.7042408,1.7777778 8,1.7777778 Z m 0.034254,0.7465278 a 3.6540719,3.6636526 0 0 1 0.250601,0.00868 3.6540719,3.6636526 0 0 0 -0.250601,-0.00868 z" />
    <ellipse
       style="fill:#241f31;fill-opacity:1;stroke:none;stroke-width:0;stroke-linecap:round;stroke-linejoin:round;stroke-miterlimit:4;stroke-dasharray:none;stroke-opacity:1;stop-color:#000000"
       id="path1173"
       cx="7.9999995"
       cy="6"
       rx="2"
       ry="1.9999999" />
  </g>
</svg>
