<?xml version="1.0" encoding="UTF-8" standalone="no"?>
<svg
   width="16"
   height="16"
   version="1.1"
   id="svg6"
   xmlns="http://www.w3.org/2000/svg"
   xmlns:svg="http://www.w3.org/2000/svg">
  <defs
     id="defs10" />
  <path
     d="m0 2v12h10v-10c0-2-2-2-2-2h-8zm10 0s1 0 1 2v10h1v-10c0-2-2-2-2-2zm2 0s1 0 1 2v10h1v-10c0-2-2-2-2-2zm-11 1h7c0.554 0 1 0.446 1 1v9h-8v-10z"
     fill="#363636"
     id="path2"
     style="fill:#241f31" />
  <path
     style="color:#000000;fill:#241f31;stroke-linecap:round;stroke-linejoin:round;-inkscape-stroke:none"
     d="M 3.2773446,5.0528626 A 0.50005,0.50005 0 0 0 3.0000008,5.5001282 v 5.9999998 a 0.50005,0.50005 0 0 0 0.8007813,0.400391 L 7.800782,8.9005188 a 0.50005,0.50005 0 0 0 0,-0.8007812 l -3.9999999,-3 A 0.50005,0.50005 0 0 0 3.2773446,5.0528626 Z m 0.7226562,1.4472656 2.6660156,2 -2.6660156,1.9999998 z"
     id="path862" />
</svg>
