<svg xmlns="http://www.w3.org/2000/svg" xmlns:svg="http://www.w3.org/2000/svg" id="svg6" width="16" height="16" version="1.1"><path id="path2" fill="#363636" stroke-linecap="round" stroke-linejoin="round" stroke-width="2" d="m3 6c-1.108 0-2 0.892-2 2v5c0 1.108 0.892 2 2 2h7c1.108 0 2-0.892 2-2v-2h-1v2c0 0.554-0.446 1-1 1h-7c-0.554 0-1-0.446-1-1v-4c0-0.554 0.446-1 1-1h1v-2h-1z" opacity=".35" style="fill:#241f31"/><path id="path4" fill="#363636" stroke-linecap="round" stroke-linejoin="round" stroke-width="2" d="m7 1c-1.108 0-2 0.892-2 2v5c0 1.108 0.892 2 2 2h7c1.108 0 2-0.892 2-2v-5c0-1.108-0.892-2-2-2h-7zm0 2h7c0.554 0 1 0.446 1 1v4c0 0.554-0.446 1-1 1h-7c-0.554 0-1-0.446-1-1v-4c0-0.554 0.446-1 1-1z" style="fill:#241f31"/></svg>