<?xml version="1.0" encoding="UTF-8" standalone="no"?>
<svg
   height="15px"
   viewBox="0 0 16 15"
   width="16px"
   version="1.1"
   id="svg4"
   xmlns="http://www.w3.org/2000/svg"
   xmlns:svg="http://www.w3.org/2000/svg">
  <defs
     id="defs8" />
  <path
     id="path1478"
     style="color:#000000;fill:#241f31;stroke-width:0.999999;stroke-linecap:round;stroke-linejoin:round;-inkscape-stroke:none"
     d="m 12,9 v 0 2 h -2 v 0 2 c 0,0 -0.2761311,-2.7e-5 0,0 h 2 v 2 0 h 2 v 0 -2 h 2 v 0 -2 0 H 14 V 9 9 Z" />
  <path
     id="path1101"
     style="color:#000000;fill:#241f31;stroke-linecap:round;stroke-linejoin:round;-inkscape-stroke:none"
     d="M 1 3 A 1.0001 1.0001 0 0 0 0 4 L 0 12 C 0 12 -0.01378784 12.708752 0.35546875 13.447266 C 0.72472534 14.185779 1.666668 15 3 15 L 5 15 A 1 1 0 0 0 6 14 A 1 1 0 0 0 5 13 L 3 13 C 2.333334 13 2.2752741 12.81422 2.1445312 12.552734 C 2.0137883 12.291249 2 12 2 12 L 2 5 L 14 5 L 14 6 C 14 6.554 14.446 7 15 7 C 15.554 7 16 6.554 16 6 L 16 5 L 16 4 A 1 1 0 0 0 15 3 L 1 3 z " />
  <path
     id="rect2264"
     style="fill:#241f31;stroke-width:3;stroke-linecap:round;stroke-linejoin:round;stop-color:#000000"
     d="M 3,0 H 7 C 7.554,0 8,0.446 8,1 8,1.554 7.554,2 7,2 H 3 C 2.446,2 2,1.554 2,1 2,0.446 2.446,0 3,0 Z" />
</svg>
