<svg xmlns="http://www.w3.org/2000/svg" xmlns:svg="http://www.w3.org/2000/svg" id="svg4" width="16" height="15" version="1.1" viewBox="0 0 16 15"><path id="rect928" style="fill:#241f31;stroke:none;stroke-linecap:round;stroke-linejoin:round;stop-color:#000;fill-opacity:1" d="M 12 8 L 12 11 L 9 11 L 9 12 L 12 12 L 12 15 L 13 15 L 13 12 L 16 12 L 16 11 L 13 11 L 13 8 L 12 8 z"/><path style="color:#000;fill:#241f31;stroke-linecap:round;stroke-linejoin:round;-inkscape-stroke:none" id="path1100" d="M 0.5,3 A 0.50005,0.50005 0 0 0 0,3.5 v 8.800781 c 0,0 -0.00694976,0.650391 0.31835938,1.31836 C 0.64366851,14.287109 1.4000404,15 2.6425781,15 h 2.1425781 a 0.5,0.5 0 0 0 0.5,-0.5 0.5,0.5 0 0 0 -0.5,-0.5 H 2.6425781 C 1.7422626,14 1.4272011,13.613671 1.2167969,13.181641 1.0063927,12.74961 1,12.300781 1,12.300781 V 4 h 14 v 1.6992187 a 0.5,0.5 0 0 0 0.5,0.5 0.5,0.5 0 0 0 0.5,-0.5 V 3.5 A 0.50005,0.50005 0 0 0 15.5,3 Z"/><path style="color:#000;fill:#241f31;stroke-linecap:round;stroke-linejoin:round;-inkscape-stroke:none" id="path1353" d="m 2.5996094,1 a 0.5,0.5 0 0 0 -0.5,0.5 0.5,0.5 0 0 0 0.5,0.5 h 4.8007812 a 0.5,0.5 0 0 0 0.5,-0.5 0.5,0.5 0 0 0 -0.5,-0.5 z"/></svg>