<?xml version="1.0" encoding="UTF-8" standalone="no"?>
<svg
   height="15px"
   viewBox="0 0 16 15"
   width="16px"
   version="1.1"
   id="svg4"
   xmlns="http://www.w3.org/2000/svg"
   xmlns:svg="http://www.w3.org/2000/svg">
  <defs
     id="defs8" />
  <path
     id="path1478"
     style="color:#000000;fill:#241f31;stroke-width:0.999999;stroke-linecap:round;stroke-linejoin:round;-inkscape-stroke:none"
     d="M 11.125 7 A 0.50004949 0.50004949 0 0 0 10.625 7.5 L 10.625 9.6191406 L 8.5 9.6191406 A 0.50004949 0.50004949 0 0 0 8 10.119141 L 8 11.871094 A 0.50004949 0.50004949 0 0 0 8.5 12.371094 L 10.625 12.371094 L 10.625 14.5 A 0.50004949 0.50004949 0 0 0 11.125 15 L 12.875 15 A 0.50004949 0.50004949 0 0 0 13.375 14.5 L 13.375 12.371094 L 15.5 12.371094 A 0.50004949 0.50004949 0 0 0 16 11.871094 L 16 10.119141 A 0.50004949 0.50004949 0 0 0 15.5 9.6191406 L 13.375 9.6191406 L 13.375 7.5 A 0.50004949 0.50004949 0 0 0 12.875 7 L 11.125 7 z " />
  <path
     style="color:#000000;fill:#241f31;stroke-width:1;stroke-linecap:round;stroke-linejoin:round;-inkscape-stroke:none"
     d="M 2.0000001,0 V 2 H 9.0000003 V 0 Z"
     id="path1099" />
  <path
     style="color:#000000;fill:#241f31;stroke-linecap:round;stroke-linejoin:round;-inkscape-stroke:none"
     d="M 1,3 A 1.0001,1.0001 0 0 0 0,4 v 8 c 0,0 -0.01378784,0.708752 0.35546875,1.447266 C 0.72472534,14.185779 1.666668,15 3,15 H 5 A 1,1 0 0 0 6,14 1,1 0 0 0 5,13 H 3 C 2.333334,13 2.2752742,12.81422 2.1445313,12.552734 2.0137883,12.291249 2,12 2,12 V 5 H 15 A 1,1 0 0 0 16,4 1,1 0 0 0 15,3 Z"
     id="path1101" />
</svg>
