<?xml version="1.0" encoding="UTF-8" standalone="no"?>
<svg
   width="16"
   height="16"
   version="1.1"
   id="svg6"
   xmlns="http://www.w3.org/2000/svg"
   xmlns:svg="http://www.w3.org/2000/svg">
  <defs
     id="defs10" />
  <path
     d="M 5,4 V 5 H 9.6 C 10.4864,5 11,5.5136 11,6.4 V 7 H 6.4 C 5.0704,7 4,8.2704 4,9.6 4,10.9296 5.0704,12 6.4,12 H 12 V 6.4 C 12,5.0704 10.9296,4 9.6,4 Z M 6.4,8 H 11 v 3 H 6.4 C 5.5136,11 5,10.4864 5,9.6 5,8.7136 5.5136,8 6.4,8 Z"
     fill="#363636"
     id="path4"
     style="fill:#241f31;stroke-width:0.999996" />
  <path
     style="color:#000000;fill:#241f31;stroke-width:1;stroke-linecap:round;stroke-linejoin:round;-inkscape-stroke:none"
     d="M 2.6599914,2.025291 A 0.50113645,0.47295161 0 0 0 2.0237831,2.3208857 L 0.02706745,7.8466602 a 0.50118655,0.4729989 0 0 0 0,0.3066795 L 2.0237831,13.679114 a 0.50113645,0.47295161 0 0 0 0.6362083,0.295595 0.50113645,0.47295161 0 0 0 0.3132102,-0.600427 L 1.0312979,8 2.9732016,2.6257178 A 0.50113645,0.47295161 0 0 0 2.6599914,2.025291 Z"
     id="path857" />
  <path
     style="color:#000000;fill:#241f31;stroke-width:1;stroke-linecap:round;stroke-linejoin:round;-inkscape-stroke:none"
     d="m 13.340009,2.0252906 a 0.5011365,0.4729516 0 0 0 -0.313211,0.6004268 l 1.941904,5.3742821 -1.941904,5.3742825 a 0.5011365,0.4729516 0 0 0 0.313211,0.600427 0.5011365,0.4729516 0 0 0 0.636207,-0.295595 l 1.996717,-5.5257748 a 0.50118661,0.4729989 0 0 0 0,-0.3066795 L 13.976216,2.3208853 A 0.5011365,0.4729516 0 0 0 13.340009,2.0252906 Z"
     id="path859" />
</svg>
