<svg xmlns="http://www.w3.org/2000/svg" xmlns:svg="http://www.w3.org/2000/svg" id="svg6" width="16" height="16" version="1.1"><path id="path2" style="color:#363636;fill:#241f31;marker:none" d="M 1.0019531 13 L 1.0019531 14 L 15.001953 14 L 15.001953 13 L 1.0019531 13 z"/><path id="path1062" style="color:#363636;fill:#241f31;marker:none" d="M 7.0019531 10 L 7.0019531 11 L 15.001953 11 L 15.001953 10 L 7.0019531 10 z"/><path id="path1060" style="color:#363636;fill:#241f31;marker:none" d="M 7.0019531 7 L 7.0019531 8 L 15.001953 8 L 15.001953 7 L 7.0019531 7 z"/><path id="path1058" style="color:#363636;fill:#241f31;marker:none" d="M 7.0019531 4 L 7.0019531 5 L 15.001953 5 L 15.001953 4 L 7.0019531 4 z"/><path id="path1052" style="color:#363636;fill:#241f31;marker:none" d="M 1.0019531 1 L 1.0019531 2 L 15.001953 2 L 15.001953 1 L 1.0019531 1 z"/><path style="color:#000;fill:#241f31;stroke-linecap:round;stroke-linejoin:round;-inkscape-stroke:none" id="path1398" d="M 1.3085937,3.0371094 A 0.50005,0.50005 0 0 0 1,3.5 v 8 a 0.50005,0.50005 0 0 0 0.8535156,0.353516 l 4,-4.0000004 a 0.50005,0.50005 0 0 0 0,-0.7070312 l -4,-4 A 0.50005,0.50005 0 0 0 1.3085937,3.0371094 Z M 2,4.7070312 4.7929687,7.5 2,10.292969 Z"/></svg>