<?xml version="1.0" encoding="UTF-8" standalone="no"?>
<svg
   height="16"
   width="16"
   version="1.1"
   id="svg6"
   xmlns="http://www.w3.org/2000/svg"
   xmlns:svg="http://www.w3.org/2000/svg">
  <defs
     id="defs10" />
  <path
     id="path2"
     style="color:#363636;fill:#241f31;marker:none"
     d="m 1.001953,13 v 1 h 14 v -1 z" />
  <path
     id="path1062"
     style="color:#363636;fill:#241f31;marker:none"
     d="m 7.001953,10 v 1 h 8 v -1 z" />
  <path
     id="path1060"
     style="color:#363636;fill:#241f31;marker:none"
     d="m 7.001953,7 v 1 h 8 V 7 Z" />
  <path
     id="path1058"
     style="color:#363636;fill:#241f31;marker:none"
     d="m 7.001953,4 v 1 h 8 V 4 Z" />
  <path
     id="path1052"
     style="color:#363636;fill:#241f31;marker:none"
     d="m 1.001953,1 v 1 h 14 V 1 Z" />
  <path
     style="color:#000000;fill:#241f31;stroke-linecap:round;stroke-linejoin:round;-inkscape-stroke:none"
     d="M 1.308594,3.0371094 A -0.50005,0.50005 0 0 0 1,3.5 v 8 a -0.50005,0.50005 0 0 0 0.853515,0.353516 l 4,-4.0000004 a -0.50005,0.50005 0 0 0 0,-0.7070312 l -4,-4 A -0.50005,0.50005 0 0 0 1.308594,3.0371094 Z M 2,4.7070312 4.792969,7.5 2,10.292969 Z"
     id="path1398" />
</svg>
