<svg xmlns="http://www.w3.org/2000/svg" xmlns:svg="http://www.w3.org/2000/svg" id="svg6" width="16" height="16" version="1.1"><path style="color:#000;fill:#241f31;stroke-linecap:round;stroke-linejoin:round;-inkscape-stroke:none" id="path3" d="M 3.5,2 A 0.5,0.5 0 0 0 3,2.5 v 5.9863281 c 0,0 -0.029393,0.8582196 0.3964844,1.7324219 C 3.8223622,11.092952 4.7989923,12 6.5,12 h 6 A 0.50005,0.50005 0 0 0 13,11.5 v -9 A 0.5,0.5 0 0 0 12.5,2 0.5,0.5 0 0 0 12,2.5 V 11 H 6.5 C 5.1239807,11 4.5997858,10.407046 4.2949219,9.78125 3.990058,9.1554538 4,8.5136719 4,8.5136719 A 0.50005,0.50005 0 0 0 4,8.5 v -6 A 0.5,0.5 0 0 0 3.5,2 Z"/><path id="rect4" style="fill:#241f31;stroke-linecap:round;stroke-linejoin:round" d="M 2.5316521,14 H 13.468348 C 13.762883,14 14,14.223 14,14.5 14,14.777 13.762883,15 13.468348,15 H 2.5316521 C 2.2371168,15 2,14.777 2,14.5 2,14.223 2.2371168,14 2.5316521,14 Z"/></svg>