<?xml version="1.0" encoding="UTF-8" standalone="no"?>
<svg
   height="16"
   width="16"
   version="1.1"
   id="svg14"
   xmlns="http://www.w3.org/2000/svg"
   xmlns:svg="http://www.w3.org/2000/svg">
  <defs
     id="defs18" />
  <path
     id="rect2"
     style="color:#363636;overflow:visible;fill:#241f31;marker:none"
     d="m 1.5,2 h 13 C 14.777,2 15,2.223 15,2.5 15,2.777 14.777,3 14.5,3 H 1.5 C 1.223,3 1,2.777 1,2.5 1,2.223 1.223,2 1.5,2 Z" />
  <path
     id="rect4"
     style="color:#363636;overflow:visible;fill:#241f31;marker:none"
     d="m 3.5,5 h 9 C 12.777,5 13,5.223 13,5.5 13,5.777 12.777,6 12.5,6 h -9 C 3.223,6 3,5.777 3,5.5 3,5.223 3.223,5 3.5,5 Z" />
  <path
     id="rect6"
     style="color:#363636;overflow:visible;fill:#241f31;marker:none"
     d="m 3.5,11 h 9 c 0.277,0 0.5,0.223 0.5,0.5 0,0.277 -0.223,0.5 -0.5,0.5 h -9 C 3.223,12 3,11.777 3,11.5 3,11.223 3.223,11 3.5,11 Z" />
  <path
     id="rect8"
     style="color:#363636;overflow:visible;fill:#241f31;marker:none"
     d="m 1.5,14 h 13 c 0.277,0 0.5,0.223 0.5,0.5 0,0.277 -0.223,0.5 -0.5,0.5 H 1.5 C 1.223,15 1,14.777 1,14.5 1,14.223 1.223,14 1.5,14 Z" />
  <path
     id="rect10"
     style="color:#363636;overflow:visible;fill:#241f31;marker:none"
     d="m 1.5,8 h 13 C 14.777,8 15,8.223 15,8.5 15,8.777 14.777,9 14.5,9 H 1.5 C 1.223,9 1,8.777 1,8.5 1,8.223 1.223,8 1.5,8 Z" />
</svg>
