<svg xmlns="http://www.w3.org/2000/svg" xmlns:svg="http://www.w3.org/2000/svg" id="svg6" width="16" height="16" version="1.1"><path style="color:#000;fill:#241f31;stroke-linecap:round;stroke-linejoin:round;-inkscape-stroke:none" id="path1566" d="m 5.2148437,2.5 a 0.5,0.5 0 0 0 -0.5,0.5 0.5,0.5 0 0 0 0.5,0.5 H 9.8574219 A 0.5,0.5 0 0 0 10.357422,3 0.5,0.5 0 0 0 9.8574219,2.5 Z"/><path style="color:#000;fill:#241f31;stroke-linecap:round;stroke-linejoin:round;-inkscape-stroke:none" id="path1681" d="M 8.2109375,2.546875 A 0.5,0.5 0 0 0 7.546875,2.7890625 L 2.9042969,12.789063 a 0.5,0.5 0 0 0 0.2421875,0.664062 0.5,0.5 0 0 0 0.6640625,-0.242187 L 8.453125,3.2109375 A 0.5,0.5 0 0 0 8.2109375,2.546875 Z"/><path style="color:#000;fill:#241f31;stroke-linecap:round;stroke-linejoin:round;-inkscape-stroke:none" id="path1683" d="M 1.5,12.5 A 0.5,0.5 0 0 0 1,13 0.5,0.5 0 0 0 1.5,13.5 h 3.7148437 a 0.5,0.5 0 0 0 0.5,-0.5 0.5,0.5 0 0 0 -0.5,-0.5 z"/><path style="color:#000;fill:#241f31;stroke-linecap:round;stroke-linejoin:round;-inkscape-stroke:none" id="path1685" d="m 10.785156,12.5 a 0.5,0.5 0 0 0 -0.5,0.5 0.5,0.5 0 0 0 0.5,0.5 H 14.5 A 0.5,0.5 0 0 0 15,13 0.5,0.5 0 0 0 14.5,12.5 Z"/><path style="color:#000;fill:#241f31;stroke-linecap:round;stroke-linejoin:round;-inkscape-stroke:none" id="path1687" d="M 7.7890625,2.546875 A 0.5,0.5 0 0 0 7.546875,3.2109375 l 4.642578,10.0000005 a 0.5,0.5 0 0 0 0.664063,0.242187 0.5,0.5 0 0 0 0.242187,-0.664062 L 8.453125,2.7890625 A 0.5,0.5 0 0 0 7.7890625,2.546875 Z"/><path style="color:#000;fill:#241f31;stroke-linecap:round;stroke-linejoin:round;-inkscape-stroke:none" id="path1689" d="m 3.3574219,7.5 a 0.5,0.5 0 0 0 -0.5,0.5 0.5,0.5 0 0 0 0.5,0.5 h 6.5 A 0.5,0.5 0 0 0 10.357422,8 0.5,0.5 0 0 0 9.8574219,7.5 Z"/></svg>