<?xml version="1.0" encoding="UTF-8" standalone="no"?>
<svg
   height="16"
   width="16"
   version="1.1"
   id="svg4"
   xmlns="http://www.w3.org/2000/svg"
   xmlns:svg="http://www.w3.org/2000/svg">
  <defs
     id="defs8" />
  <path
     id="path12222"
     style="font-size:13px;fill:#241f31;stroke-width:1"
     d="M 4.9999999,3 V 13 H 8.5427077 C 11,13 12,13 12,10 12,9 12,8 11,7.5 12,7 12,6 12,5.5 12,3 9.8692606,3.0118282 8.4105171,3 Z M 6,4 h 2 c 2.013868,0 3,0 2.999856,1.5 C 11,7 9.986132,7 8,7 H 6 Z m 0,4 h 2 c 2.025688,0 3,0 3,2 0,2 -0.783806,2 -2.5223707,2 H 6 Z" />
</svg>
