<svg xmlns="http://www.w3.org/2000/svg" xmlns:svg="http://www.w3.org/2000/svg" id="svg4" width="16" height="16" version="1.1"><g id="text3330" aria-label="B" style="font-size:17.3333px;stroke-width:.962352;fill:#241f31" transform="matrix(1.0824094,0,0,0.99756346,-0.6845186,0.03411157)"><path d="m 3.4039973,14 h 4.5066579 c 2.8946608,0 4.7319908,-1.438664 4.7319908,-3.726659 0,-1.5079975 -0.814665,-2.5999954 -2.183996,-3.0853278 0.745332,-0.5199989 1.213331,-1.3866639 1.213331,-2.3573287 0,-1.8546631 -1.507997,-2.8599944 -4.2813248,-2.8599944 H 3.4039973 Z M 5.6226596,8.6440104 h 2.599995 c 1.2999974,0 2.0973294,0.7626652 2.0973294,1.9239966 0,1.109331 -0.6759989,1.62933 -2.131996,1.62933 H 5.6226596 Z M 8.4306542,6.8933471 H 5.6226596 V 3.7733532 h 1.5946636 c 1.4213306,0 2.1839957,0.5893322 2.1839957,1.6293302 0,0.6239988 -0.294666,1.1093312 -0.9706647,1.4906637 z" style="-inkscape-font-specification:'Cantarell Bold';stroke-width:.962352;fill:#241f31" id="path9064"/></g></svg>