<svg xmlns="http://www.w3.org/2000/svg" xmlns:svg="http://www.w3.org/2000/svg" id="svg6" width="16" height="16" version="1.1"><path id="path2" fill="#363636" d="m 5.9998546,1 v 1 h 6.0000004 c 1.108,0 2,0.892 2,2 V 5 H 7.9998546 c -1.662,0 -3,1.338 -3,3 0,1.662 1.338,3 3,3 H 14.999855 V 4 c 0,-1.662 -1.338,-3 -3,-3 z m 2,5 h 6.0000004 v 4 H 7.9998546 c -1.108,0 -2,-0.892 -2,-2 0,-1.108 0.892,-2 2,-2 z" style="fill:#241f31"/><path style="color:#000;fill:#241f31;stroke-linecap:round;stroke-linejoin:round;-inkscape-stroke:none" id="path880" d="m 14.499855,12 a -0.5,0.5 0 0 1 0.5,0.5 -0.5,0.5 0 0 1 -0.5,0.5 H 2.7068856 l 2.146485,2.146484 a -0.5,0.5 0 0 1 0,0.707032 -0.5,0.5 0 0 1 -0.707032,0 l -3,-3 A -0.50005,0.50005 0 0 1 1.4998546,12 Z"/></svg>