<svg xmlns="http://www.w3.org/2000/svg" xmlns:svg="http://www.w3.org/2000/svg" id="svg6" width="16" height="16" version="1.1"><path id="path2" fill="#363636" stroke-width=".707" d="m1 7v1h14v-1z" color="#000" overflow="visible" style="font-feature-settings:normal;font-variant-alternates:normal;font-variant-caps:normal;font-variant-ligatures:normal;font-variant-numeric:normal;font-variant-position:normal;isolation:auto;mix-blend-mode:normal;shape-padding:0;text-decoration-color:#000;text-decoration-line:none;text-decoration-style:solid;text-indent:0;text-orientation:mixed;text-transform:none;fill:#241f31"/><path id="path4" fill="#363636" d="M 12,3 V 4 H 6 C 4.892,4 4,4.892 4,6 H 3 C 3,4.338 4.338,3 6,3 Z m 0.81836,6 C 12.92931,9.31399 13,9.64708 13,10 13,10.483335 12.88684,10.939269 12.685461,11.342861 12.194376,12.327063 11.178665,13 10,13 H 4 3 v -1 h 1 6 c 1.108,0 2,-0.892 2,-2 0,-0.36693 -0.10429,-0.705 -0.27539,-1 h 1.0938 z" style="fill:#241f31"/></svg>