<?xml version="1.0" encoding="UTF-8" standalone="no"?>
<svg
   width="16"
   height="16"
   version="1.1"
   id="svg6"
   sodipodi:docname="format-text-strikethrough-symbolic.svg"
   inkscape:version="1.3.2 (091e20ef0f, 2023-11-25)"
   xmlns:inkscape="http://www.inkscape.org/namespaces/inkscape"
   xmlns:sodipodi="http://sodipodi.sourceforge.net/DTD/sodipodi-0.dtd"
   xmlns="http://www.w3.org/2000/svg"
   xmlns:svg="http://www.w3.org/2000/svg">
  <sodipodi:namedview
     id="namedview1"
     pagecolor="#ffffff"
     bordercolor="#111111"
     borderopacity="1"
     inkscape:showpageshadow="0"
     inkscape:pageopacity="0"
     inkscape:pagecheckerboard="1"
     inkscape:deskcolor="#d1d1d1"
     inkscape:zoom="46.75"
     inkscape:cx="8"
     inkscape:cy="8"
     inkscape:window-width="2560"
     inkscape:window-height="952"
     inkscape:window-x="0"
     inkscape:window-y="28"
     inkscape:window-maximized="1"
     inkscape:current-layer="svg6" />
  <defs
     id="defs10" />
  <path
     d="m1 7v1h14v-1z"
     color="#000000"
     fill="#363636"
     overflow="visible"
     stroke-width=".70711"
     style="font-feature-settings:normal;font-variant-alternates:normal;font-variant-caps:normal;font-variant-ligatures:normal;font-variant-numeric:normal;font-variant-position:normal;isolation:auto;mix-blend-mode:normal;shape-padding:0;text-decoration-color:#000000;text-decoration-line:none;text-decoration-style:solid;text-indent:0;text-orientation:mixed;text-transform:none;fill:#241f31"
     id="path2" />
  <path
     d="M 12,3 V 4 H 6 C 4.892,4 4,4.892 4,6 H 3 C 3,4.338 4.338,3 6,3 Z m 0.81836,6 C 12.92931,9.31399 13,9.64708 13,10 13,10.483335 12.88684,10.939269 12.685461,11.342861 12.194376,12.327063 11.178665,13 10,13 H 4 3 v -1 h 1 6 c 1.108,0 2,-0.892 2,-2 0,-0.36693 -0.10429,-0.705 -0.27539,-1 h 1.0938 z"
     fill="#363636"
     id="path4"
     style="fill:#241f31"
     sodipodi:nodetypes="ccsccsccsssccccssccc" />
</svg>
