<?xml version="1.0" encoding="UTF-8" standalone="no"?>
<svg
   height="16"
   width="16"
   version="1.1"
   id="svg6"
   xmlns="http://www.w3.org/2000/svg"
   xmlns:svg="http://www.w3.org/2000/svg">
  <defs
     id="defs10" />
  <path
     id="path2"
     style="color:#363636;fill:#241f31;marker:none"
     d="m 14.999999,13 v 1 H 0.99999911 v -1 z" />
  <path
     id="path1062"
     style="color:#363636;fill:#241f31;marker:none"
     d="m 8.999999,10 v 1 H 0.99999911 v -1 z" />
  <path
     id="path1060"
     style="color:#363636;fill:#241f31;marker:none"
     d="M 8.999999,7 V 8 H 0.99999911 V 7 Z" />
  <path
     id="path1058"
     style="color:#363636;fill:#241f31;marker:none"
     d="M 8.999999,4 V 5 H 0.99999911 V 4 Z" />
  <path
     id="path1052"
     style="color:#363636;fill:#241f31;marker:none"
     d="M 14.999999,1 V 2 H 0.99999911 V 1 Z" />
  <path
     style="color:#000000;fill:#241f31;stroke-linecap:round;stroke-linejoin:round;-inkscape-stroke:none"
     d="M 14.693358,3.0371094 A -0.50005,0.50005 0 0 1 15.001952,3.5 v 8 a -0.50005,0.50005 0 0 1 -0.853515,0.353516 l -4,-4.0000004 a -0.50005,0.50005 0 0 1 0,-0.7070312 l 4,-4 a -0.50005,0.50005 0 0 1 0.544921,-0.109375 z M 14.001952,4.7070312 11.208983,7.5 l 2.792969,2.792969 z"
     id="path1398" />
</svg>
