<svg xmlns="http://www.w3.org/2000/svg" xmlns:svg="http://www.w3.org/2000/svg" id="svg6" width="16" height="16" version="1.1"><path id="path2" fill="#363636" d="m2 1v1h6c1.108 0 2 0.892 2 2v1h-6c-1.662 0-3 1.338-3 3s1.338 3 3 3h7v-7c0-1.662-1.338-3-3-3zm2 5h6v4h-6c-1.108 0-2-0.892-2-2s0.892-2 2-2z" style="fill:#241f31"/><path style="color:#000;fill:#241f31;stroke-linecap:round;stroke-linejoin:round;-inkscape-stroke:none" id="path880" d="M 1.5,12 A 0.5,0.5 0 0 0 1,12.5 0.5,0.5 0 0 0 1.5,13 h 11.792969 l -2.146485,2.146484 a 0.5,0.5 0 0 0 0,0.707032 0.5,0.5 0 0 0 0.707032,0 l 3,-3 A 0.50005,0.50005 0 0 0 14.5,12 Z"/></svg>