<?xml version="1.0" encoding="UTF-8" standalone="no"?>
<!-- Created with Inkscape (http://www.inkscape.org/) -->

<svg
   width="16"
   height="16"
   viewBox="0 0 16 16"
   version="1.1"
   id="svg5"
   xmlns="http://www.w3.org/2000/svg"
   xmlns:svg="http://www.w3.org/2000/svg">
  <defs
     id="defs2" />
  <path
     style="color:#000000;fill:#241f31;stroke-width:1;stroke-linecap:round;stroke-linejoin:round;-inkscape-stroke:none"
     d="m 1.0342092,8.4908638 a 1.1667148,1.2002991 0 0 0 0.5332251,0.7384653 l 5.833574,3.6008969 a 1.1668315,1.2004191 0 0 0 1.1986172,0 L 14.4332,9.2293291 A 1.1667148,1.2002991 0 0 0 14.834258,7.5836064 1.1667148,1.2002991 0 0 0 13.234582,7.1710035 L 8.0003169,10.401496 2.7660515,7.1710035 A 1.1667148,1.2002991 0 0 0 1.1663761,7.5836064 1.1667148,1.2002991 0 0 0 1.0342092,8.4908638 Z"
     id="path997" />
  <path
     id="path2415"
     style="fill:#241f31;stroke-linecap:round;stroke-linejoin:round"
     d="M 8,3 A 2,2 0 0 1 10,5 2,2 0 0 1 8,7 2,2 0 0 1 6,5 2,2 0 0 1 8,3 Z" />
  <path
     style="color:#000000;fill:#241f31;stroke-width:1;stroke-linecap:round;stroke-linejoin:round;-inkscape-stroke:none"
     d="M 1.5306536,14 A 0.53913056,0.50005 0 0 0 1,14.5 0.53913056,0.50005 0 0 0 1.5306536,15 H 14.468494 a 0.53913056,0.50005 0 0 0 0,-1 z"
     id="path2678" />
</svg>
