<?xml version="1.0" encoding="UTF-8" standalone="no"?>
<!-- Created with Inkscape (http://www.inkscape.org/) -->

<svg
   width="16"
   height="16"
   viewBox="0 0 4.2333332 4.2333335"
   version="1.1"
   id="svg5"
   xmlns="http://www.w3.org/2000/svg"
   xmlns:svg="http://www.w3.org/2000/svg">
  <defs
     id="defs2" />
  <g
     id="layer1">
    <path
       style="color:#000000;fill:#241f31;stroke-width:0.999997;stroke-linecap:round;stroke-linejoin:round;-inkscape-stroke:none"
       d="m 0.1469949,2.3879452 a 0.19241194,0.1651752 0 0 1 0.1448767,0.01707 L 2.1156191,3.346319 3.942207,2.4050153 a 0.19241194,0.1651752 0 0 1 0.2641877,0.056089 0.19241194,0.1651752 0 0 1 -0.068178,0.2267908 L 2.2150446,3.6804087 a 0.19243118,0.16519173 0 0 1 -0.1988509,0 L 0.0930211,2.6878941 A 0.19241194,0.1651752 0 0 1 0.0276841,2.4611033 0.19241194,0.1651752 0 0 1 0.1469949,2.3879452 Z"
       id="path857" />
    <path
       id="path845"
       style="fill:#241f31;stroke-width:0.264583;stroke-linecap:round;stroke-linejoin:round;stroke-opacity:0.5;stop-color:#000000"
       d="M 1.8520831,2.1166666 A 0.26458331,0.26458332 0 0 0 2.1166664,2.3812499 0.26458331,0.26458332 0 0 0 2.3812498,2.1166666 0.26458331,0.26458332 0 0 0 2.1166664,1.8520833 0.26458331,0.26458332 0 0 0 1.8520831,2.1166666 Z" />
  </g>
</svg>
