<?xml version="1.0" encoding="UTF-8" standalone="no"?>
<!-- Created with Inkscape (http://www.inkscape.org/) -->

<svg
   width="16"
   height="16"
   viewBox="0 0 16 16"
   version="1.1"
   id="svg5"
   xmlns="http://www.w3.org/2000/svg"
   xmlns:svg="http://www.w3.org/2000/svg">
  <defs
     id="defs2" />
  <path
     style="color:#000000;fill:#241f31;stroke-width:1;stroke-linecap:round;stroke-linejoin:round;-inkscape-stroke:none"
     d="M 7.509052,1.0342934 A 1.2002991,1.1667148 0 0 0 6.7705867,1.5675185 l -3.6008969,5.833574 a 1.2004191,1.1668315 0 0 0 0,1.1986172 l 3.6008969,5.8335743 a 1.2002991,1.1667148 0 0 0 1.6457227,0.401058 1.2002991,1.1667148 0 0 0 0.4126029,-1.599676 L 5.5984198,8.0004011 8.8289123,2.7661357 A 1.2002991,1.1667148 0 0 0 8.4163094,1.1664603 1.2002991,1.1667148 0 0 0 7.509052,1.0342934 Z"
     id="path997" />
  <path
     id="path2415"
     style="fill:#241f31;stroke-linecap:round;stroke-linejoin:round"
     d="m 12.999916,8.0000842 a 2,2 0 0 1 -2,1.9999998 2,2 0 0 1 -2.0000002,-1.9999998 2,2 0 0 1 2.0000002,-2 2,2 0 0 1 2,2 z" />
  <path
     style="color:#000000;fill:#241f31;stroke-width:1;stroke-linecap:round;stroke-linejoin:round;-inkscape-stroke:none"
     d="m 1.9999158,1.5307378 a 0.50005,0.53913056 0 0 0 -0.5,-0.5306536 0.50005,0.53913056 0 0 0 -0.5,0.5306536 V 14.468578 a 0.50005,0.53913056 0 0 0 1,0 z"
     id="path2678" />
</svg>
