<?xml version="1.0" encoding="UTF-8" standalone="no"?>
<!-- Created with Inkscape (http://www.inkscape.org/) -->

<svg
   width="16"
   height="16"
   viewBox="0 0 16 16"
   version="1.1"
   id="svg5"
   xmlns="http://www.w3.org/2000/svg"
   xmlns:svg="http://www.w3.org/2000/svg">
  <defs
     id="defs2" />
  <g
     id="layer1">
    <path
       style="color:#000000;fill:#241f31;stroke-linecap:round;stroke-linejoin:round;-inkscape-stroke:none"
       d="m 8.5136719,2.1425781 a 1,1 0 0 0 -1.3710938,0.34375 l -3,5 a 1.0001,1.0001 0 0 0 0,1.0273438 l 3,5.0000001 a 1,1 0 0 0 1.3710938,0.34375 1,1 0 0 0 0.34375,-1.371094 L 6.1660156,8 8.8574219,3.5136719 a 1,1 0 0 0 -0.34375,-1.3710938 z"
       id="path997" />
    <path
       id="path2415"
       style="fill:#241f31;stroke-linecap:round;stroke-linejoin:round;stop-color:#000000"
       transform="scale(1,-1)"
       d="m 12.999996,-8 a 2,2 0 0 1 -2,2 2,2 0 0 1 -1.9999998,-2 2,2 0 0 1 1.9999998,-2 2,2 0 0 1 2,2 z" />
    <path
       style="color:#000000;fill:#241f31;stroke-width:1;stroke-linecap:round;stroke-linejoin:round;-inkscape-stroke:none"
       d="M 2.5,0.9999999 A 0.50005,0.5385593 0 0 1 3,1.5300912 V 14.454223 a 0.50005,0.5385593 0 0 1 -1,0 V 1.5300912 A 0.50005,0.5385593 0 0 1 2.5,0.9999999 Z"
       id="path2678" />
  </g>
</svg>
