<svg xmlns="http://www.w3.org/2000/svg" xmlns:svg="http://www.w3.org/2000/svg" id="svg4" width="16" height="16" enable-background="new" version="1.1"><path id="path938" style="color:#000;fill:#241f31;stroke-linecap:round;stroke-linejoin:round;-inkscape-stroke:none" d="m 8.5214844,2 a 0.5,0.5 0 0 0 -0.1621094,0.019531 0.5,0.5 0 0 0 -0.00391,0.00195 0.5,0.5 0 0 0 -0.0625,0.023437 0.5,0.5 0 0 0 -0.00781,0.00391 0.5,0.5 0 0 0 -0.1132812,0.074219 0.5,0.5 0 0 0 -0.025391,0.023437 l -3,3 A 0.5,0.5 0 0 0 5,5.5 a 0.5,0.5 0 0 0 0.1464844,0.3535156 0.5,0.5 0 0 0 0.7070312,0 L 8,3.7070312 V 13.5 A 0.5,0.5 0 0 0 8.5,14 0.5,0.5 0 0 0 9,13.5 V 2.5 A 0.5,0.5 0 0 0 8.96875,2.3359375 0.5,0.5 0 0 0 8.9492188,2.2871094 0.5,0.5 0 0 0 8.8535156,2.1464844 0.5,0.5 0 0 0 8.6992188,2.0429688 0.5,0.5 0 0 0 8.6796875,2.0351562 0.5,0.5 0 0 0 8.5214844,2 Z"/></svg>