<svg xmlns="http://www.w3.org/2000/svg" xmlns:svg="http://www.w3.org/2000/svg" id="svg5" width="16" height="16" version="1.1" viewBox="0 0 4.233 4.233"><g id="layer1"><g id="g935" transform="matrix(0,1,1,0,-0.52916694,2e-7)"><path style="color:#000;fill:#241f31;stroke-width:.999997;stroke-linecap:round;stroke-linejoin:round;-inkscape-stroke:none" id="path857" d="m 0.1469949,2.3879452 a 0.19241194,0.1651752 0 0 1 0.1448767,0.01707 L 2.1156191,3.346319 3.942207,2.4050153 a 0.19241194,0.1651752 0 0 1 0.2641877,0.056089 0.19241194,0.1651752 0 0 1 -0.068178,0.2267908 L 2.2150446,3.6804087 a 0.19243118,0.16519173 0 0 1 -0.1988509,0 L 0.0930211,2.6878941 A 0.19241194,0.1651752 0 0 1 0.0276841,2.4611033 0.19241194,0.1651752 0 0 1 0.1469949,2.3879452 Z"/><path id="path845" style="fill:#241f31;stroke-width:.264583;stroke-linecap:round;stroke-linejoin:round;stroke-opacity:.5;stop-color:#000" d="M 1.8520831,2.1166666 A 0.26458331,0.26458332 0 0 0 2.1166664,2.3812499 0.26458331,0.26458332 0 0 0 2.3812498,2.1166666 0.26458331,0.26458332 0 0 0 2.1166664,1.8520833 0.26458331,0.26458332 0 0 0 1.8520831,2.1166666 Z"/></g><path id="rect1098" style="fill:#241f31;stroke-width:.264583;stroke-linecap:round;stroke-linejoin:round;stop-color:#000" d="M 3.4395833,0.13229192 V 4.1010416 c 0,0.07329 -0.059002,0.1322917 -0.1322917,0.1322917 C 3.2340016,4.2333333 3.175,4.1743313 3.175,4.1010416 V 0.13229192 C 3.175,0.05900234 3.234002,2.45625e-7 3.3072916,2.45625e-7 c 0.07329,0 0.1322917,0.059002094375 0.1322917,0.132291674375 z"/></g></svg>