<svg xmlns="http://www.w3.org/2000/svg" xmlns:svg="http://www.w3.org/2000/svg" id="svg5" width="16" height="16" version="1.1" viewBox="0 0 4.233 4.233"><g id="layer1"><g id="g836" transform="matrix(-1,0,0,1,4.7624999,0)"><path style="color:#000;fill:#241f31;stroke-width:.999997;stroke-linecap:round;stroke-linejoin:round;-inkscape-stroke:none" id="path857" d="M 2.3758938,4.0863383 A 0.13214014,0.19241194 0 0 0 2.3622375,3.9414616 L 1.6091949,2.1177141 2.3622377,0.29112619 A 0.13214014,0.19241194 0 0 0 2.3173667,0.02693851 0.13214014,0.19241194 0 0 0 2.1359341,0.09511597 L 1.3419232,2.0182886 a 0.13215336,0.19243118 0 0 0 0,0.1988509 l 0.7940115,1.9231726 a 0.13214014,0.19241194 0 0 0 0.1814326,0.065337 0.13214014,0.19241194 0 0 0 0.058527,-0.1193108 z"/><path id="path845" style="fill:#241f31;stroke-width:.264583;stroke-linecap:round;stroke-linejoin:round;stroke-opacity:.5;stop-color:#000" d="M 2.6458334,2.3812501 A 0.26458332,0.26458331 0 0 1 2.3812501,2.1166668 0.26458332,0.26458331 0 0 1 2.6458334,1.8520834 0.26458332,0.26458331 0 0 1 2.9104167,2.1166668 0.26458332,0.26458331 0 0 1 2.6458334,2.3812501 Z"/></g></g></svg>