<?xml version="1.0" encoding="UTF-8" standalone="no"?>
<!-- Created with Inkscape (http://www.inkscape.org/) -->

<svg
   width="16"
   height="16"
   viewBox="0 0 16 16"
   version="1.1"
   id="svg5"
   xmlns="http://www.w3.org/2000/svg"
   xmlns:svg="http://www.w3.org/2000/svg">
  <defs
     id="defs2" />
  <g
     id="layer1">
    <path
       style="color:#000000;fill:#241f31;stroke-linecap:round;stroke-linejoin:round;-inkscape-stroke:none"
       d="M 8.2421875,2.0292969 A 1,1 0 0 0 7.4863281,2.1425781 1,1 0 0 0 7.1425781,3.5136719 L 9.8339844,8 7.1425781,12.486328 a 1,1 0 0 0 0.34375,1.371094 1,1 0 0 0 1.3710938,-0.34375 L 11.857422,8.5136719 a 1.0001,1.0001 0 0 0 0,-1.0273438 l -3.0000001,-5 A 1,1 0 0 0 8.2421875,2.0292969 Z"
       id="path997" />
    <path
       id="path2415"
       style="fill:#241f31;stroke-linecap:round;stroke-linejoin:round;stop-color:#000000"
       transform="scale(-1,1)"
       d="m -3,8 a 2,2 0 0 1 -2,2 2,2 0 0 1 -2,-2 2,2 0 0 1 2,-2 2,2 0 0 1 2,2 z" />
  </g>
</svg>
