<?xml version="1.0" encoding="UTF-8" standalone="no"?>
<!-- Created with Inkscape (http://www.inkscape.org/) -->

<svg
   width="16"
   height="16"
   viewBox="0 0 16 16"
   version="1.1"
   id="svg5"
   xmlns="http://www.w3.org/2000/svg"
   xmlns:svg="http://www.w3.org/2000/svg">
  <defs
     id="defs2" />
  <g
     id="layer1">
    <path
       style="color:#000000;fill:#241f31;stroke-linecap:round;stroke-linejoin:round;-inkscape-stroke:none"
       d="M 2.0292969,7.7578043 A 1,1 0 0 1 2.4863281,7.1425699 l 5,-3 a 1.0001,1.0001 0 0 1 1.0273438,0 l 5.0000001,3 a 1,1 0 0 1 0.34375,1.3710938 1,1 0 0 1 -1.371094,0.34375 L 8,6.1660074 3.5136719,8.8574137 A 1,1 0 0 1 2.1425781,8.5136637 1,1 0 0 1 2.0292969,7.7578043 Z"
       id="path997" />
    <path
       id="path2415"
       style="fill:#241f31;stroke-linecap:round;stroke-linejoin:round"
       d="m 8,12.999992 a 2,2 0 0 0 2,-2 2,2 0 0 0 -2,-2.0000002 2,2 0 0 0 -2,2.0000002 2,2 0 0 0 2,2 z" />
    <path
       style="color:#000000;fill:#241f31;stroke-linecap:round;stroke-linejoin:round;-inkscape-stroke:none"
       d="M 2,2 A 0.50005,0.50005 0 0 0 1.5078125,2.5 0.50005,0.50005 0 0 0 2,3 h 12 a 0.50005,0.50005 0 0 0 0,-1 z"
       id="path2678" />
  </g>
</svg>
