<?xml version="1.0" encoding="UTF-8" standalone="no"?>
<!-- Created with Inkscape (http://www.inkscape.org/) -->

<svg
   width="16"
   height="16"
   viewBox="0 0 16 16"
   version="1.1"
   id="svg5"
   xmlns="http://www.w3.org/2000/svg"
   xmlns:svg="http://www.w3.org/2000/svg">
  <defs
     id="defs2" />
  <path
     style="color:#000000;fill:#241f31;stroke-width:1;stroke-linecap:round;stroke-linejoin:round;-inkscape-stroke:none"
     d="M 1.0342092,7.5091362 A 1.1667148,1.2002991 0 0 1 1.5674343,6.7706709 L 7.4010083,3.169774 a 1.1668315,1.2004191 0 0 1 1.1986172,0 L 14.4332,6.7706709 A 1.1667148,1.2002991 0 0 1 14.834258,8.416394 1.1667148,1.2002991 0 0 1 13.234582,8.828996 L 8.0003169,5.598504 2.7660515,8.828996 A 1.1667148,1.2002991 0 0 1 1.1663761,8.416394 1.1667148,1.2002991 0 0 1 1.0342092,7.5091362 Z"
     id="path997" />
  <path
     id="path2415"
     style="fill:#241f31;stroke-linecap:round;stroke-linejoin:round"
     d="M 8,13 A 2,2 0 0 0 10,11 2,2 0 0 0 8,9 2,2 0 0 0 6,11 2,2 0 0 0 8,13 Z" />
  <path
     style="color:#000000;fill:#241f31;stroke-width:1;stroke-linecap:round;stroke-linejoin:round;-inkscape-stroke:none"
     d="M 1.5306536,2 A 0.53913056,0.50005 0 0 1 1,1.5 0.53913056,0.50005 0 0 1 1.5306536,1 H 14.468494 a 0.53913056,0.50005 0 0 1 0,1 z"
     id="path2678" />
</svg>
