<?xml version="1.0" encoding="UTF-8" standalone="no"?>
<!-- Created with Inkscape (http://www.inkscape.org/) -->

<svg
   width="16"
   height="16"
   viewBox="0 0 16 16"
   version="1.1"
   id="svg5"
   xmlns="http://www.w3.org/2000/svg"
   xmlns:svg="http://www.w3.org/2000/svg">
  <defs
     id="defs2" />
  <g
     id="g1515"
     transform="matrix(0,1.000006,-1,0,16.000061,1.181e-4)"
     style="stroke-width:0.999997">
    <path
       id="path2415"
       style="fill:#241f31;stroke-width:0.999994;stroke-linecap:round;stroke-linejoin:round"
       d="m 10.999877,8.0000611 a 1,1 0 0 1 -1.0000001,1 1,1 0 0 1 -1,-1 1,1 0 0 1 1,-1 1,1 0 0 1 1.0000001,1 z" />
    <path
       style="color:#000000;fill:#241f31;stroke-width:0.999997;stroke-linecap:round;stroke-linejoin:round;-inkscape-stroke:none"
       d="M 8.9803457,1.8047486 A 1,1 0 0 0 8.5545644,1.1680298 1,1 0 0 0 7.1678456,1.4453736 l -3.9999997,6 a 1.0001,1.0001 0 0 0 0,1.109375 l 3.9999997,6.0000004 a 1,1 0 0 0 1.3867188,0.277343 1,1 0 0 0 0.2773438,-1.386718 L 5.2010489,8.0000611 8.8319082,2.5547486 a 1,1 0 0 0 0.1484375,-0.75 z"
       id="path939" />
  </g>
</svg>
