<?xml version="1.0" encoding="UTF-8" standalone="no"?>
<!-- Created with Inkscape (http://www.inkscape.org/) -->

<svg
   width="16"
   height="16"
   viewBox="0 0 16 16"
   version="1.1"
   id="svg5"
   xmlns="http://www.w3.org/2000/svg"
   xmlns:svg="http://www.w3.org/2000/svg">
  <defs
     id="defs2" />
  <g
     id="g947"
     transform="matrix(1,0,0,-1,0,17.999823)">
    <path
       style="color:#000000;fill:#241f31;stroke-width:1;stroke-linecap:round;stroke-linejoin:round;-inkscape-stroke:none"
       d="M 1.0103069,8.0410863 A 1.333481,1.4001154 0 0 0 0.1899036,8.6809828 1.333481,1.4001154 0 0 0 0.6482877,10.600672 l 6.667405,4.200347 a 1.3336143,1.4002554 0 0 0 1.3699433,0 l 6.667405,-4.200347 A 1.333481,1.4001154 0 0 0 15.811425,8.6809828 1.333481,1.4001154 0 0 0 13.983098,8.1996931 L 8.000664,11.967972 2.0182311,8.1996931 A 1.333481,1.4001154 0 0 0 1.0103069,8.0410863 Z"
       id="path997" />
    <path
       id="path2415"
       style="fill:#241f31;stroke-linecap:round;stroke-linejoin:round;stop-color:#000000"
       d="m 8,3.9999919 a 2,2 0 0 1 2,2 2,2 0 0 1 -2,2 2,2 0 0 1 -2,-2 2,2 0 0 1 2,-2 z" />
  </g>
</svg>
