<?xml version="1.0" encoding="UTF-8" standalone="no"?>
<svg
   height="16px"
   viewBox="0 0 16 16"
   width="16px"
   version="1.1"
   id="svg4"
   xmlns="http://www.w3.org/2000/svg"
   xmlns:svg="http://www.w3.org/2000/svg">
  <defs
     id="defs8" />
  <path
     d="M 8,0 C 3.589844,0 0,3.589844 0,8 c 0,4.410156 3.589844,8 8,8 4.410156,0 8,-3.589844 8,-8 C 16,3.589844 12.410156,0 8,0 Z m 0,2 c 3.332031,0 6,2.667969 6,6 0,3.332031 -2.667969,6 -6,6 C 4.667969,14 2,11.332031 2,8 2,4.667969 4.667969,2 8,2 Z M 8,3.875 C 7.378906,3.875 6.875,4.378906 6.875,5 6.875,5.621094 7.378906,6.125 8,6.125 8.621094,6.125 9.125,5.621094 9.125,5 9.125,4.378906 8.621094,3.875 8,3.875 Z M 7,7 7.0320748,7.009989 C 7,7 7,7 7,8 v 0 3 1 0 0 h 2 v 0 0 -1 -4 z"
     fill="#2e3436"
     id="path2"
     style="fill:#241f31" />
</svg>
