<svg xmlns="http://www.w3.org/2000/svg" xmlns:svg="http://www.w3.org/2000/svg" id="svg4" width="16" height="16" version="1.1" viewBox="0 0 16 16"><rect style="fill:#241f31;fill-opacity:1;stroke:none;stroke-width:.999997;stroke-linecap:round;stroke-linejoin:round;stop-color:#000" id="rect926" width="1" height="6" x="7" y="7"/><rect style="fill:#241f31;fill-opacity:1;stroke:none;stroke-width:.999997;stroke-linecap:round;stroke-linejoin:round;stop-color:#000" id="rect972" width="1" height="2" x="7" y="4"/><path style="color:#000;fill:#241f31;stroke-linecap:round;stroke-linejoin:round;-inkscape-stroke:none" id="path1076" d="M 7.5,1 C 3.3637908,1 0,4.3637908 0,8.5 0,12.636209 3.3637908,16 7.5,16 11.636209,16 15,12.636209 15,8.5 15,4.3637908 11.636209,1 7.5,1 Z m 0,1 C 11.09577,2 14,4.9042304 14,8.5 14,12.09577 11.09577,15 7.5,15 3.9042304,15 1,12.09577 1,8.5 1,4.9042304 3.9042304,2 7.5,2 Z"/></svg>