<?xml version="1.0" encoding="UTF-8" standalone="no"?>
<svg
   height="16px"
   viewBox="0 0 16 16"
   width="16px"
   version="1.1"
   id="svg4"
   xmlns="http://www.w3.org/2000/svg"
   xmlns:svg="http://www.w3.org/2000/svg">
  <defs
     id="defs8" />
  <rect
     style="fill:#241f31;fill-opacity:1;stroke:none;stroke-width:0.999997;stroke-linecap:round;stroke-linejoin:round;stop-color:#000000"
     id="rect926"
     width="1"
     height="6"
     x="7"
     y="7" />
  <rect
     style="fill:#241f31;fill-opacity:1;stroke:none;stroke-width:0.999997;stroke-linecap:round;stroke-linejoin:round;stop-color:#000000"
     id="rect972"
     width="1"
     height="2"
     x="7"
     y="4" />
  <path
     style="color:#000000;fill:#241f31;stroke-linecap:round;stroke-linejoin:round;-inkscape-stroke:none"
     d="M 7.5,1 C 3.3637908,1 0,4.3637908 0,8.5 0,12.636209 3.3637908,16 7.5,16 11.636209,16 15,12.636209 15,8.5 15,4.3637908 11.636209,1 7.5,1 Z m 0,1 C 11.09577,2 14,4.9042304 14,8.5 14,12.09577 11.09577,15 7.5,15 3.9042304,15 1,12.09577 1,8.5 1,4.9042304 3.9042304,2 7.5,2 Z"
     id="path1076" />
</svg>
