<svg xmlns="http://www.w3.org/2000/svg" xmlns:svg="http://www.w3.org/2000/svg" id="svg6" width="16" height="16" version="1.1"><g id="g4" transform="matrix(0.76473647,0,0,0.76473647,6.1329724,-0.88247532)" style="fill:#241f31;stroke-width:1.30765"><path id="path2" fill="#363636" d="m -3.2154,10.414 c -1.1752,1.1752 -1.1752,3.0674 0,4.2426 1.1752,1.1752 3.0674,1.1752 4.2426,0 L 3.8556,11.8282 C 5.0308,10.653 5.0308,8.7608 3.8556,7.5856 3.60605,7.33605 3.32053,7.1505 3.02005,7.00693 L 2.44138,7.5856 C 2.377663,7.649317 2.342746,7.72471 2.29913,7.7969 2.6091,7.888541 2.90298,8.0472 3.14849,8.2927 c 0.78347,0.78347 0.78347,2.045 1e-7,2.8284 l -2.8284,2.8284 c -0.78347,0.78348 -2.045,0.78348 -2.8284,0 -0.78347,-0.78347 -0.78347,-2.045 0,-2.8284 l 1.8092,-1.8092 c -0.11098,-0.42439 -0.14985,-0.85863 -0.12015,-1.2941 z M 1.0272,6.1714 c -1.1752,1.1752 -1.1752,3.0674 0,4.2426 0.24955,0.24955 0.53507,0.4351 0.83555,0.57867 L 2.44142,10.414 C 2.505137,10.35028 2.540056,10.27489 2.58367,10.2027 2.2737,10.11106 1.97982,9.9524 1.73431,9.7069 c -0.78347,-0.78347 -0.78347,-2.045 0,-2.8284 l 2.8284,-2.8284 c 0.78347,-0.78347 2.045,-0.78347 2.8284,0 0.78347,0.78347 0.78347,2.045 0,2.8284 l -1.8092,1.8092 c 0.11098,0.42439 0.14986,0.85863 0.12015,1.2941 l 2.3962,-2.3962 c 1.1752,-1.1752 1.1752,-3.0674 10e-8,-4.2426 -1.1752,-1.1752 -3.0674,-1.1752 -4.2426,0 z" style="fill:#241f31;stroke-width:1.30765"/></g><path style="color:#000;fill:#241f31;stroke-linecap:round;stroke-linejoin:round;-inkscape-stroke:none" id="path857" d="m 5.8128432,12.109716 a 0.5,0.5 0 0 0 -0.703125,0.07813 0.5,0.5 0 0 0 0.078125,0.703125 l 2.5,2 a 0.50005,0.50005 0 0 0 0.625,0 l 2.4999998,-2 a 0.5,0.5 0 0 0 0.07813,-0.703125 0.5,0.5 0 0 0 -0.703125,-0.07813 l -2.1874998,1.75 z"/></svg>