<?xml version="1.0" encoding="UTF-8" standalone="no"?>
<svg
   width="16"
   height="16"
   version="1.1"
   id="svg8"
   xmlns="http://www.w3.org/2000/svg"
   xmlns:svg="http://www.w3.org/2000/svg">
  <defs
     id="defs12" />
  <path
     d="M 4,2 C 2.892,2 2,2.892 2,4 v 5 c 0,1.108 0.892,2 2,2 h 8 c 1.108,0 2,-0.892 2,-2 V 4 C 14,2.892 13.108,2 12,2 Z m 0,1 h 8 c 0.554,0 1,0.446 1,1 v 5 c 0,0.554 -0.446,1 -1,1 H 4 C 3.446,10 3,9.554 3,9 V 4 C 3,3.446 3.446,3 4,3 Z"
     fill="#333333"
     stroke-linecap="round"
     stroke-linejoin="round"
     stroke-opacity="0.25"
     stroke-width="1.0016"
     style="fill:#241f31;paint-order:markers stroke fill"
     id="path6" />
  <path
     style="color:#000000;fill:#241f31;stroke-linecap:round;stroke-linejoin:round;-inkscape-stroke:none"
     d="M 7.125,4 A 0.5000475,0.5000475 0 0 0 6.7480469,4.1699219 l -2.625,3 a 0.4999975,0.4999975 0 0 0 0.046875,0.7070312 0.4999975,0.4999975 0 0 0 0.7070312,-0.046875 L 7.125,5.2617187 9.3730469,7.8300781 a 0.5000475,0.5000475 0 0 0 0.7539061,0 L 10.625,7.2617187 11.123047,7.8300781 a 0.4999975,0.4999975 0 0 0 0.707031,0.046875 0.4999975,0.4999975 0 0 0 0.04687,-0.7070312 l -0.875,-1 a 0.5000475,0.5000475 0 0 0 -0.753906,0 L 9.75,6.7382812 7.5019531,4.1699219 A 0.5000475,0.5000475 0 0 0 7.125,4 Z"
     id="path864" />
  <path
     style="fill:none;stroke:#241f31;stroke-width:1px;stroke-linecap:round;stroke-linejoin:round;stroke-opacity:1"
     d="m 5.5,12.5 2.5,2 2.5,-2"
     id="path1251" />
</svg>
