<svg xmlns="http://www.w3.org/2000/svg" xmlns:svg="http://www.w3.org/2000/svg" id="svg6" width="16" height="16" version="1.1"><path d="M 8,1 A 5,5 0 1 0 8,11 5,5 0 0 0 8,1 Z m 0,1 a 4,4 0 1 1 0,8 4,4 0 0 1 0,-8 z" style="fill:#241f31;marker:none" id="path4" fill="#363636" color="#000" overflow="visible"/><path style="color:#000;fill:#241f31;stroke-linecap:round;stroke-linejoin:round;-inkscape-stroke:none" id="path880" d="M 5.8125,12.109375 A 0.49999949,0.49999949 0 0 0 5.109375,12.1875 0.49999949,0.49999949 0 0 0 5.1875,12.890625 l 2.5,2 a 0.50004949,0.50004949 0 0 0 0.625,0 l 2.5,-2 A 0.49999949,0.49999949 0 0 0 10.890625,12.1875 0.49999949,0.49999949 0 0 0 10.1875,12.109375 L 8,13.859375 Z"/></svg>