<?xml version="1.0" encoding="UTF-8" standalone="no"?>
<svg
   width="16"
   height="16"
   version="1.1"
   id="svg6"
   xmlns="http://www.w3.org/2000/svg"
   xmlns:svg="http://www.w3.org/2000/svg">
  <defs
     id="defs10" />
  <path
     d="M 4,0.99999996 V 2 h 6 c 1.108,0 2,0.892 2,2 V 5 H 6 C 4.338,5 3,6.338 3,8 c 0,1.662 1.338,3 3,3 h 7 V 4 C 13,2.338 11.662,0.99999996 10,0.99999996 Z M 6,6 h 6 v 4 H 6 C 4.892,10 4,9.108 4,8 4,6.892 4.892,6 6,6 Z"
     fill="#363636"
     id="path4"
     style="fill:#241f31" />
  <path
     style="color:#000000;fill:#241f31;stroke-linecap:round;stroke-linejoin:round;-inkscape-stroke:none"
     d="M 5.4453125,12.003906 A 0.5,0.5 0 0 0 5.109375,12.1875 0.5,0.5 0 0 0 5.1875,12.890625 l 2.5,2 a 0.50005,0.50005 0 0 0 0.625,0 l 2.5,-2 A 0.5,0.5 0 0 0 10.890625,12.1875 0.5,0.5 0 0 0 10.1875,12.109375 l -2.1875,1.75 -2.1875,-1.75 A 0.5,0.5 0 0 0 5.4453125,12.003906 Z"
     id="path862" />
</svg>
