<svg xmlns="http://www.w3.org/2000/svg" xmlns:svg="http://www.w3.org/2000/svg" id="svg4" width="16" height="16" version="1.1" viewBox="0 0 16 16"><g id="path1236" style="fill:#241f31;stroke-width:1.15338" transform="matrix(0.80953538,0,0,1,2,1)"><path style="color:#000;fill:#241f31;stroke-width:1.15338px;stroke-linecap:round;stroke-linejoin:round;-inkscape-stroke:none" id="path866" d="M 0.5,7.5 H 15.558824"/><path style="color:#000;fill:#241f31;stroke-width:1.15338;stroke-linecap:round;stroke-linejoin:round;-inkscape-stroke:none" id="path868" d="M 0.5,7 A 0.5,0.5 0 0 0 0,7.5 0.5,0.5 0 0 0 0.5,8 h 15.058594 a 0.5,0.5 0 0 0 0.5,-0.5 0.5,0.5 0 0 0 -0.5,-0.5 z"/></g><path style="color:#000;fill:#241f31;stroke-width:1.03774;stroke-linecap:round;stroke-linejoin:round;-inkscape-stroke:none" id="path826" d="M 8.5,1.9999999 A 0.5,0.40634922 0 0 0 8,2.4063493 V 14.593651 A 0.5,0.40634922 0 0 0 8.5,15 0.5,0.40634922 0 0 0 9,14.593651 V 2.4063493 A 0.5,0.40634922 0 0 0 8.5,1.9999999 Z"/></svg>