<?xml version="1.0" encoding="UTF-8" standalone="no"?>
<svg
   height="16px"
   viewBox="0 0 16 16"
   width="16px"
   version="1.1"
   id="svg4"
   xmlns="http://www.w3.org/2000/svg"
   xmlns:svg="http://www.w3.org/2000/svg">
  <defs
     id="defs8" />
  <g
     id="path1236"
     style="fill:#241f31;stroke-width:1.11143"
     transform="matrix(0.80953538,0,0,1,2,1)">
    <path
       style="color:#000000;fill:#241f31;stroke-width:1.11143px;stroke-linecap:round;stroke-linejoin:round;-inkscape-stroke:none"
       d="M 0.5,7.5 H 15.558824"
       id="path866" />
    <path
       style="color:#000000;fill:#241f31;stroke-width:1.11143;stroke-linecap:round;stroke-linejoin:round;-inkscape-stroke:none"
       d="M 0.5,7 A 0.5,0.5 0 0 0 0,7.5 0.5,0.5 0 0 0 0.5,8 h 15.058594 a 0.5,0.5 0 0 0 0.5,-0.5 0.5,0.5 0 0 0 -0.5,-0.5 z"
       id="path868" />
  </g>
  <path
     style="color:#000000;fill:#241f31;stroke-width:0.999994;stroke-linecap:round;stroke-linejoin:round;-inkscape-stroke:none"
     d="M 8.5,2 A 0.5,0.40634922 0 0 0 8,2.4063493 V 14.593651 A 0.5,0.40634922 0 0 0 8.5,15 0.5,0.40634922 0 0 0 9,14.593651 V 2.4063493 A 0.5,0.40634922 0 0 0 8.5,2 Z"
     id="path826" />
</svg>
