<?xml version="1.0" encoding="UTF-8" standalone="no"?>
<svg
   height="16px"
   viewBox="0 0 16 16"
   width="16px"
   version="1.1"
   id="svg4"
   sodipodi:docname="list-add-symbolic.svg"
   inkscape:version="1.2.2 (b0a8486541, 2022-12-01)"
   xmlns:inkscape="http://www.inkscape.org/namespaces/inkscape"
   xmlns:sodipodi="http://sodipodi.sourceforge.net/DTD/sodipodi-0.dtd"
   xmlns="http://www.w3.org/2000/svg"
   xmlns:svg="http://www.w3.org/2000/svg">
  <sodipodi:namedview
     id="namedview8"
     pagecolor="#ffffff"
     bordercolor="#000000"
     borderopacity="0.25"
     inkscape:showpageshadow="2"
     inkscape:pageopacity="0.0"
     inkscape:pagecheckerboard="0"
     inkscape:deskcolor="#d1d1d1"
     showgrid="true"
     inkscape:zoom="46.5625"
     inkscape:cx="6.7221477"
     inkscape:cy="8.0107383"
     inkscape:window-width="2560"
     inkscape:window-height="919"
     inkscape:window-x="0"
     inkscape:window-y="32"
     inkscape:window-maximized="1"
     inkscape:current-layer="svg4">
    <inkscape:grid
       type="xygrid"
       id="grid291" />
  </sodipodi:namedview>
  <defs
     id="defs8" />
  <g
     id="path1236"
     style="fill:#241f31;stroke-width:1.11143"
     transform="matrix(0.87180733,0,0,1,1,0.5)">
    <path
       style="color:#000000;fill:#241f31;stroke-width:1.11143px;stroke-linecap:round;stroke-linejoin:round;-inkscape-stroke:none"
       d="M 0.5,7.5 H 15.558824"
       id="path866" />
    <path
       style="color:#000000;fill:#241f31;stroke-width:1.11143;stroke-linecap:round;stroke-linejoin:round;-inkscape-stroke:none"
       d="M 0.5,7 A 0.5,0.5 0 0 0 0,7.5 0.5,0.5 0 0 0 0.5,8 h 15.058594 a 0.5,0.5 0 0 0 0.5,-0.5 0.5,0.5 0 0 0 -0.5,-0.5 z"
       id="path868" />
  </g>
  <path
     style="color:#000000;fill:#241f31;stroke-width:1.03774;stroke-linecap:round;stroke-linejoin:round;-inkscape-stroke:none"
     d="M 8,1 A 0.5,0.43760686 0 0 0 7.5,1.4376069 V 14.562393 A 0.5,0.43760686 0 0 0 8,15 0.5,0.43760686 0 0 0 8.5,14.562393 V 1.4376069 A 0.5,0.43760686 0 0 0 8,1 Z"
     id="path826" />
</svg>
