<?xml version="1.0" encoding="UTF-8" standalone="no"?>
<svg
   height="16px"
   viewBox="0 0 16 16"
   width="16px"
   version="1.1"
   id="svg4"
   xmlns="http://www.w3.org/2000/svg"
   xmlns:svg="http://www.w3.org/2000/svg">
  <defs
     id="defs8" />
  <g
     id="path1236"
     style="fill:#241f31;stroke-width:1.33577"
     transform="matrix(0.56044757,0,0,1,0,1)">
    <path
       style="color:#000000;fill:#241f31;stroke-width:1.33577px;stroke-linecap:round;stroke-linejoin:round;-inkscape-stroke:none"
       d="M 0.5,7.5 H 15.558824"
       id="path866" />
    <path
       style="color:#000000;fill:#241f31;stroke-width:1.33577;stroke-linecap:round;stroke-linejoin:round;-inkscape-stroke:none"
       d="M 0.69607201,7 C 0.41992964,7 0,7.2238576 0,7.5 0,7.7761424 0.41992964,8 0.69607201,8 H 15.16645 c 0.276142,0 0.892144,-0.2238576 0.892144,-0.5 0,-0.2761424 -0.616002,-0.5 -0.892144,-0.5 z"
       id="path868" />
  </g>
  <g
     id="path1236-3"
     style="fill:#241f31;stroke-width:1.33577"
     transform="matrix(0.56044757,0,0,1,0,5)">
    <path
       style="color:#000000;fill:#241f31;stroke-width:1.33577px;stroke-linecap:round;stroke-linejoin:round;-inkscape-stroke:none"
       d="M 0.5,7.5 H 15.558824"
       id="path866-6" />
    <path
       style="color:#000000;fill:#241f31;stroke-width:1.33577;stroke-linecap:round;stroke-linejoin:round;-inkscape-stroke:none"
       d="M 0.69607201,7 C 0.41992964,7 0,7.2238576 0,7.5 0,7.7761424 0.41992964,8 0.69607201,8 H 15.362522 c 0.276142,0 0.696072,-0.2238576 0.696072,-0.5 0,-0.2761424 -0.616002,-0.5 -0.892144,-0.5 z"
       id="path868-7" />
  </g>
  <g
     id="path1236-3-5"
     style="fill:#241f31;stroke-width:1.33577"
     transform="matrix(0.56044757,0,0,1,0,-3)">
    <path
       style="color:#000000;fill:#241f31;stroke-width:1.33577px;stroke-linecap:round;stroke-linejoin:round;-inkscape-stroke:none"
       d="M 0.5,7.5 H 15.558824"
       id="path866-6-3" />
    <path
       style="color:#000000;fill:#241f31;stroke-width:1.33577;stroke-linecap:round;stroke-linejoin:round;-inkscape-stroke:none"
       d="M 0.69607201,7 C 0.41992964,7 0,7.2238576 0,7.5 0,7.7761424 0.41992964,8 0.69607201,8 H 15.16645 c 0.276142,0 0.892144,-0.2238576 0.892144,-0.5 0,-0.2761424 -0.616002,-0.5 -0.892144,-0.5 z"
       id="path868-7-5" />
  </g>
  <path
     id="path1027"
     style="color:#000000;fill:#e01b24;stroke-linecap:round;stroke-linejoin:round;-inkscape-stroke:none"
     class="error"
     d="m 10.4218,10.006093 a 0.5,0.5 0 0 0 -0.275391,0.140625 0.5,0.5 0 0 0 0,0.707032 l 2.146485,2.146484 -2.146485,2.146484 a 0.5,0.5 0 0 0 0,0.707032 0.5,0.5 0 0 0 0.707032,0 l 2.146484,-2.146485 2.146484,2.146485 a 0.5,0.5 0 0 0 0.707032,0 0.5,0.5 0 0 0 0,-0.707032 l -2.146485,-2.146484 2.146485,-2.146484 a 0.5,0.5 0 0 0 0,-0.707032 0.5,0.5 0 0 0 -0.707032,0 l -2.146484,2.146485 -2.146484,-2.146485 A 0.5,0.5 0 0 0 10.4218,10.006093 Z" />
</svg>
