<svg xmlns="http://www.w3.org/2000/svg" xmlns:svg="http://www.w3.org/2000/svg" id="svg4" width="16" height="16" enable-background="new" version="1.1"><path id="path938" style="color:#000;fill:#241f31;stroke-linecap:round;stroke-linejoin:round;-inkscape-stroke:none" d="m 6.4785156,13.999514 a 0.5,0.5 0 0 0 0.1621094,-0.01953 0.5,0.5 0 0 0 0.00391,-0.002 0.5,0.5 0 0 0 0.0625,-0.02344 0.5,0.5 0 0 0 0.00781,-0.0039 0.5,0.5 0 0 0 0.1132812,-0.07422 0.5,0.5 0 0 0 0.025391,-0.02344 l 3,-3 A 0.5,0.5 0 0 0 10,10.499514 0.5,0.5 0 0 0 9.8535156,10.145998 a 0.5,0.5 0 0 0 -0.7070312,0 L 7,12.292482 V 2.4995136 a 0.5,0.5 0 0 0 -0.5,-0.5 0.5,0.5 0 0 0 -0.5,0.5 V 13.499514 a 0.5,0.5 0 0 0 0.03125,0.164062 0.5,0.5 0 0 0 0.019531,0.04883 0.5,0.5 0 0 0 0.095703,0.140625 0.5,0.5 0 0 0 0.1542968,0.103516 0.5,0.5 0 0 0 0.019531,0.0078 0.5,0.5 0 0 0 0.1582031,0.03516 z"/></svg>