<?xml version="1.0" encoding="UTF-8" standalone="no"?>
<svg
   width="16"
   height="16"
   enable-background="new"
   version="1.1"
   id="svg4"
   sodipodi:docname="location-symbolic.svg"
   inkscape:version="1.3 (0e150ed6c4, 2023-07-21)"
   xmlns:inkscape="http://www.inkscape.org/namespaces/inkscape"
   xmlns:sodipodi="http://sodipodi.sourceforge.net/DTD/sodipodi-0.dtd"
   xmlns="http://www.w3.org/2000/svg"
   xmlns:svg="http://www.w3.org/2000/svg">
  <sodipodi:namedview
     id="namedview1"
     pagecolor="#ffffff"
     bordercolor="#000000"
     borderopacity="0.25"
     inkscape:showpageshadow="2"
     inkscape:pageopacity="0.0"
     inkscape:pagecheckerboard="0"
     inkscape:deskcolor="#d1d1d1"
     inkscape:zoom="50.4375"
     inkscape:cx="7.9900867"
     inkscape:cy="8"
     inkscape:window-width="2560"
     inkscape:window-height="1011"
     inkscape:window-x="0"
     inkscape:window-y="0"
     inkscape:window-maximized="1"
     inkscape:current-layer="svg4" />
  <defs
     id="defs8" />
  <path
     id="path938"
     style="color:#000000;fill:#241f31;stroke-linecap:round;stroke-linejoin:round;-inkscape-stroke:none"
     d="m 6.4785156,13.999514 a 0.5,0.5 0 0 0 0.1621094,-0.01953 0.5,0.5 0 0 0 0.00391,-0.002 0.5,0.5 0 0 0 0.0625,-0.02344 0.5,0.5 0 0 0 0.00781,-0.0039 0.5,0.5 0 0 0 0.1132812,-0.07422 0.5,0.5 0 0 0 0.025391,-0.02344 l 3,-3 A 0.5,0.5 0 0 0 10,10.499514 0.5,0.5 0 0 0 9.8535156,10.145998 a 0.5,0.5 0 0 0 -0.7070312,0 L 7,12.292482 V 2.4995136 a 0.5,0.5 0 0 0 -0.5,-0.5 0.5,0.5 0 0 0 -0.5,0.5 V 13.499514 a 0.5,0.5 0 0 0 0.03125,0.164062 0.5,0.5 0 0 0 0.019531,0.04883 0.5,0.5 0 0 0 0.095703,0.140625 0.5,0.5 0 0 0 0.1542968,0.103516 0.5,0.5 0 0 0 0.019531,0.0078 0.5,0.5 0 0 0 0.1582031,0.03516 z" />
</svg>
