<?xml version="1.0" encoding="UTF-8" standalone="no"?>
<svg
   height="16"
   width="16"
   enable-background="new"
   version="1.1"
   id="svg9"
   xmlns="http://www.w3.org/2000/svg"
   xmlns:svg="http://www.w3.org/2000/svg">
  <defs
     id="defs5" />
  <path
     d="M 5.219,1 4.906,1.281 1.281,4.906 1,5.22 v 5.56 l 0.281,0.313 3.625,3.625 0.313,0.281 h 5.561 l 0.313,-0.281 3.625,-3.625 0.281,-0.313 V 5.22 L 14.718,4.907 11.093,1.282 10.78,1 H 5.22 Z m 0.406,1 h 4.75 L 14,5.625 v 4.75 L 10.375,14 H 5.625 L 2,10.375 V 5.625 Z M 8,4 C 8,7.349 8.003,8.315 8,9 H 9 C 8.995,7 8.991,6 9,4 Z m 0,6 v 2 h 1 v -2 z"
     style="line-height:normal;-inkscape-font-specification:Sans;text-indent:0;text-align:start;text-decoration-line:none;text-transform:none;fill:#241f31;marker:none"
     color="#000000"
     font-weight="400"
     font-family="Sans"
     overflow="visible"
     fill="#363636"
     enable-background="accumulate"
     id="path7" />
</svg>
