<?xml version="1.0" encoding="UTF-8" standalone="no"?>
<svg
   width="16"
   height="16"
   enable-background="new"
   version="1.1"
   id="svg11"
   xmlns="http://www.w3.org/2000/svg"
   xmlns:svg="http://www.w3.org/2000/svg">
  <defs
     id="defs5" />
  <path
     style="isolation:auto;mix-blend-mode:normal;marker:none;fill:#241f31"
     d="M2.498 3.053c-.831 0-1.5.669-1.5 1.5v7c0 .83.669 1.5 1.5 1.5H7v-1H2.498a.499.499 0 0 1-.5-.5V4.566L7 8.416V7.4c0-.084.02-.148.03-.222L2.972 4.053H13.02L10.494 6h1.64l1.864-1.436V6h1V4.553c0-.831-.669-1.5-1.5-1.5z"
     overflow="visible"
     fill="#363636"
     color="#000"
     id="path7" />
  <rect
     style="fill:#241f31;stroke-linecap:round;stroke-linejoin:round;stop-color:#000000"
     id="rect967"
     width="1"
     height="5"
     x="11"
     y="8"
     rx="0.5"
     ry="0.5" />
  <rect
     style="fill:#241f31;stroke-linecap:round;stroke-linejoin:round;stop-color:#000000"
     id="rect969"
     width="1"
     height="1"
     x="11"
     y="14"
     rx="0.5"
     ry="0.5" />
</svg>
