<svg xmlns="http://www.w3.org/2000/svg" xmlns:svg="http://www.w3.org/2000/svg" id="svg6" width="16" height="16" version="1.1" viewBox="0 0 16 16"><path id="path2" fill="#363636" d="M 9.637559,13.995793 V 12.98122 C 8.4358227,12.972089 7.2327489,13.000334 6.0319211,12.965565 4.4397158,12.848243 3.1015322,11.502766 3.0979427,10.016296 3.0194021,8.5302536 4.2825123,7.121205 5.8678826,6.9287256 6.8139384,6.8580078 7.7666896,6.9094741 8.7157091,6.8937797 H 12.13926 c 0,0 0,0 1.753369,-0.028968 0.259203,-0.3078325 0.0013,-0.8326974 -0.268472,-1.0343855 C 12.636901,4.9205227 11.669264,3.9904468 10.669632,3.0932696 10.075734,2.7075935 9.4771626,3.620725 10.079692,3.9644408 l 2.055328,1.9147455 c -2.034658,0.00733 -4.0700937,-0.014958 -6.1042408,0.01179 -1.9686096,0.104517 -3.7119475,1.6080852 -3.9739396,3.4268574 -0.3293171,1.7854213 0.802674,3.6839693 2.6099495,4.3599973 1.078578,0.449751 2.2726458,0.286612 3.4167278,0.317942 0.5180023,1.3e-5 1.0360986,-2.8e-5 1.5540421,2e-5 z" style="fill:#241f31;stroke-width:1"/></svg>