<svg xmlns="http://www.w3.org/2000/svg" xmlns:svg="http://www.w3.org/2000/svg" id="svg10" width="16" height="16" enable-background="new" version="1.1"><g id="g8" fill="#363636" style="fill:#241f31"><path id="path2" d="m1.4902 7-1.2852 1.6777c-0.13316 0.17448-0.20523 0.38793-0.20508 0.60742v3.7148c0 1.108 0.892 2 2 2h11c1.108 0 1.9979-0.892 2-2v-3.7148c1.48e-4 -0.21949-0.07192-0.43294-0.20508-0.60742l-1.2852-1.6777h-1.2598l1.5312 2h-3.832c-0.23757 1.1639-1.2613 1.9999-2.4492 2-1.1864-0.00199-2.208-0.83756-2.4453-2h-3.8359l1.5312-2zm-0.49023 3h3.3418c0.57875 1.2201 1.8078 1.9984 3.1582 2 1.3503-0.0033 2.5693-0.78633 3.1465-2h3.3535v3c0 0.554-0.446 1-1 1h-11c-0.554 0-1-0.446-1-1z" style="fill:#241f31"/><path id="path4" d="M 5.5,8 C 5.1834442,8.0110911 4.9542817,7.6940114 5,7.3950499 V 2.707 C 4.5641995,3.1404021 4.133084,3.5787302 3.6943332,4.0090303 3.4086511,4.2663186 2.8995061,4.0520157 2.8807629,3.6689479 2.844783,3.3403471 3.1576024,3.1609126 3.3469508,2.9459892 3.9596817,2.335634 4.5677783,1.7204026 5.1834154,1.1131054 5.414753,0.9114624 5.7674346,1.001996 5.9400894,1.2330494 c 0.059891,1.4739506 0,0 0.059891,1.4739506 -0.00171,1.614733 0.00343,3.2296379 -0.00257,4.8442634 C 5.9766364,7.8008954 5.7504348,8.0048499 5.5,8 Z" style="fill:#241f31"/><path id="path6" d="M 9.5,0.99998 C 9.1834442,0.98888887 8.9542817,1.3059686 9,1.6049301 V 6.29298 c 0,0 0,0 0.010056,1.4813041 0.2345486,0.1669042 0.7657359,0.2071513 0.930033,-0.00735 C 10.629124,7.0754823 11.323111,6.3887443 12.00904,5.6943432 12.266329,5.4086611 12.052026,4.8995161 11.668958,4.8807729 11.340357,4.844793 11.160923,5.1576124 10.945999,5.3469608 L 9.99998,6.29298 C 9.9982656,4.678247 10.003409,3.0633421 9.997408,1.4487166 9.9766364,1.1990846 9.7504348,0.99513008 9.5,0.99998 Z" style="fill:#241f31"/></g></svg>