<?xml version="1.0" encoding="UTF-8" standalone="no"?>
<svg
   version="1.1"
   viewBox="0 0 16 16"
   id="svg9"
   xmlns="http://www.w3.org/2000/svg"
   xmlns:svg="http://www.w3.org/2000/svg">
  <defs
     id="defs3">
    <style
       id="current-color-scheme"
       type="text/css">.ColorScheme-Text {
        color:#363636;
      }</style>
  </defs>
  <path
     id="path7"
     style="fill:#241f31"
     class="ColorScheme-Text"
     d="M 2 2 C 0.892 2 0 2.892 0 4 L 0 12 C 0 13.108 0.892 14 2 14 L 7 14 L 7 13 L 2 13 C 1.51112 13 1.1255194 12.645944 1.0371094 12.183594 L 5.4980469 8.6328125 L 6.6679688 9.5644531 C 6.7700161 9.6457163 6.8821459 9.713363 7 9.7714844 L 7 8.5644531 L 1.0371094 3.8164062 C 1.1255154 3.3540564 1.51112 3 2 3 L 14 3 C 14.48888 3 14.874481 3.3540564 14.962891 3.8164062 L 10.964844 7 L 12.5 7 L 12.548828 7 L 15 5.0488281 L 15 7 L 15.5 7 L 16 7 L 16 4 C 16 2.892 15.108 2 14 2 L 2 2 z M 1 5.0488281 L 4.7050781 8 L 1 10.951172 L 1 5.0488281 z " />
  <rect
     style="fill:#241f31;stroke:none;stroke-width:0.999995;stroke-linecap:round;stroke-linejoin:round;stop-color:#000000"
     id="rect1055"
     width="1"
     height="7"
     x="12"
     y="9"
     rx="0.5"
     ry="0.49999994" />
  <rect
     style="fill:#241f31;stroke:none;stroke-width:0.999995;stroke-linecap:round;stroke-linejoin:round;stop-color:#000000"
     id="rect1057"
     width="7"
     height="1"
     x="9"
     y="12"
     rx="0.5"
     ry="0.5" />
</svg>
