<?xml version="1.0" encoding="UTF-8" standalone="no"?>
<svg
   height="16px"
   viewBox="0 0 16 16"
   width="16px"
   version="1.1"
   id="svg4"
   xmlns="http://www.w3.org/2000/svg"
   xmlns:svg="http://www.w3.org/2000/svg">
  <defs
     id="defs8" />
  <path
     d="M 7.9999213,3.6e-7 C 4.962542,3.6e-7 2.5,2.5072252 2.5,5.6000561 c 0,1.106411 0.315626,2.131861 0.859428,2.9998703 0.02624,0.0424 0.04636,0.084 0.0737,0.1256009 L 6.8456915,15.175191 C 7.005978,15.643996 7.4601286,16 7.9755643,16 c 0.515436,0 0.9444421,-0.356004 1.10473,-0.824811 L 12.886348,8.1751221 C 13.278425,7.4047141 13.5,6.5271051 13.5,5.6000561 13.5,2.5072252 11.037536,3.6e-7 7.9999213,3.6e-7 Z m -0.02436,3.17507184 c 1.5188081,0 2.7500397,1.2536119 2.7500397,2.800028 0,1.5464149 -1.2312316,2.8000281 -2.7500397,2.8000281 -1.5188065,0 -2.7500393,-1.2536132 -2.7500393,-2.8000281 0,-1.5464161 1.2312328,-2.800028 2.7500393,-2.800028 z"
     fill="#e74c3c"
     id="path4"
     style="fill:#241f31;stroke-width:1;stroke-miterlimit:4;stroke-dasharray:none" />
  <path
     id="path933"
     style="color:#000000;fill:#241f31;fill-opacity:1;stroke-linecap:round;stroke-linejoin:round;-inkscape-stroke:none"
     d="M 8 12 C 7.0210342 12 6.0947758 12.050336 5.2539062 12.138672 L 5.7988281 13.091797 C 6.4841535 13.03361 7.2243039 13 8 13 C 8.769777 13 9.5045675 13.032493 10.185547 13.089844 L 10.732422 12.136719 C 9.8952117 12.049309 8.9735851 12 8 12 z M 11.802734 12.277344 L 11.267578 13.208984 C 11.713662 13.270508 12.125592 13.342985 12.484375 13.425781 C 13.045361 13.55524 13.488313 13.712692 13.75 13.855469 C 13.858838 13.914849 13.913204 13.962533 13.953125 14 C 13.913205 14.03747 13.858835 14.08515 13.75 14.144531 C 13.488313 14.287308 13.045361 14.44476 12.484375 14.574219 C 11.362403 14.833135 9.7637444 15 8 15 C 6.2362556 15 4.6375967 14.833135 3.515625 14.574219 C 2.9546392 14.44476 2.5116874 14.287308 2.25 14.144531 C 2.1411618 14.085149 2.0867959 14.037467 2.046875 14 C 2.0867959 13.962533 2.1411618 13.914851 2.25 13.855469 C 2.5116874 13.712692 2.9546392 13.55524 3.515625 13.425781 C 3.8701421 13.34397 4.2769238 13.273961 4.7167969 13.212891 L 4.1816406 12.279297 C 3.8663271 12.330636 3.566764 12.387538 3.2910156 12.451172 C 2.675734 12.59316 2.1676321 12.760425 1.7714844 12.976562 C 1.5734105 13.084632 1.4004134 13.204417 1.2578125 13.365234 C 1.1152116 13.526051 1 13.750078 1 14 C 1 14.249922 1.1152116 14.473949 1.2578125 14.634766 C 1.4004134 14.795583 1.5734105 14.915368 1.7714844 15.023438 C 2.1676321 15.239575 2.675734 15.40684 3.2910156 15.548828 C 4.5215789 15.832804 6.1738972 16 8 16 C 9.8261028 16 11.478421 15.832804 12.708984 15.548828 C 13.324266 15.40684 13.832368 15.239574 14.228516 15.023438 C 14.42659 14.915368 14.599585 14.795583 14.742188 14.634766 C 14.884786 14.473949 15 14.249922 15 14 C 15 13.750078 14.884788 13.526051 14.742188 13.365234 C 14.599585 13.204417 14.42659 13.084632 14.228516 12.976562 C 13.832368 12.760423 13.324266 12.59316 12.708984 12.451172 C 12.428627 12.386474 12.123943 12.329322 11.802734 12.277344 z " />
</svg>
