<?xml version="1.0" encoding="UTF-8" standalone="no"?>
<svg
   height="16"
   width="16"
   version="1.1"
   id="svg6"
   xmlns="http://www.w3.org/2000/svg"
   xmlns:svg="http://www.w3.org/2000/svg">
  <defs
     id="defs10" />
  <g
     transform="translate(-413 23)"
     id="g4"
     style="stroke:#241f31;fill:none;stroke-linejoin:round;stroke-linecap:round">
    <path
       style="color:#000000;display:block;fill:#241f31;stroke:none;-inkscape-stroke:none"
       d="m 420.64648,-20.353516 -5,5 A 0.50005,0.50005 0 0 0 415.5,-15 v 1 a 0.50005,0.50005 0 0 0 0.5,0.5 h 10 a 0.50005,0.50005 0 0 0 0.5,-0.5 v -1 a 0.50005,0.50005 0 0 0 -0.14648,-0.353516 l -5,-5 a 0.50005,0.50005 0 0 0 -0.70704,0 z m 0.35352,1.060547 4.5,4.5 V -14.5 h -9 v -0.292969 z M 416,-12.5 a 0.50005,0.50005 0 0 0 -0.5,0.5 v 2 a 0.50005,0.50005 0 0 0 0.5,0.5 h 10 a 0.50005,0.50005 0 0 0 0.5,-0.5 v -2 a 0.50005,0.50005 0 0 0 -0.5,-0.5 z m 0.5,1 h 9 v 1 h -9 z"
       id="path2" />
  </g>
</svg>
