<?xml version="1.0" encoding="UTF-8" standalone="no"?>
<svg
   width="16"
   height="16"
   enable-background="new"
   version="1.1"
   id="svg4"
   xmlns="http://www.w3.org/2000/svg"
   xmlns:svg="http://www.w3.org/2000/svg">
  <defs
     id="defs8" />
  <path
     style="color:#000000;fill:#241f31;stroke-linecap:round;stroke-linejoin:round;-inkscape-stroke:none"
     d="M 3.5,2 A 0.5,0.5 0 0 0 3,2.5 v 11 A 0.5,0.5 0 0 0 3.5,14 0.5,0.5 0 0 0 4,13.5 V 2.5 A 0.5,0.5 0 0 0 3.5,2 Z"
     id="path938" />
  <path
     style="color:#000000;fill:#241f31;stroke-linecap:round;stroke-linejoin:round;-inkscape-stroke:none"
     d="M 12.5,2 A 0.5,0.5 0 0 0 12,2.5 v 11 A 0.5,0.5 0 0 0 12.5,14 0.5,0.5 0 0 0 13,13.5 V 2.5 A 0.5,0.5 0 0 0 12.5,2 Z"
     id="path940" />
</svg>
