<svg xmlns="http://www.w3.org/2000/svg" xmlns:svg="http://www.w3.org/2000/svg" id="svg4" width="16" height="16" enable-background="new" version="1.1"><path style="color:#000;fill:#241f31;stroke-linecap:round;stroke-linejoin:round;-inkscape-stroke:none" id="path935" d="M 2.7226563,4.0527344 A 0.50005,0.50005 0 0 0 2,4.5 v 7 a 0.50005,0.50005 0 0 0 0.7226563,0.447266 L 9,8.8085938 V 11.5 a 0.50005,0.50005 0 0 0 0.7519531,0.431641 L 15.751953,8.4316406 a 0.50005,0.50005 0 0 0 0,-0.8632812 l -5.9999999,-3.5 A 0.50005,0.50005 0 0 0 9,4.5 V 7.1914062 Z M 3,5.3085937 8.3828125,8 3,10.691406 Z m 7,0.0625 L 14.507813,8 10,10.628906 V 8 Z"/></svg>