<svg xmlns="http://www.w3.org/2000/svg" xmlns:svg="http://www.w3.org/2000/svg" id="svg4" width="16" height="16" enable-background="new" version="1.1"><path style="color:#000;fill:#241f31;stroke-width:1;stroke-linecap:round;stroke-linejoin:round;-inkscape-stroke:none" id="rect927" d="M 4,2 C 2,2 2,4 2,4 c 0,0 0,6 0,8 0,0 0,2 2,2 h 8 c 2,0 2,-2 2,-2 V 4 C 14,4 14,2 12,2 Z M 3,4 C 3,3 4.0138148,3 4.0138148,3 L 12,3 c 0,0 1,0 1,1 0,2.2377416 0,6 0,8 0,1 -1,1 -1,1 H 4.010766 C 3,13 3,12 3,12 3,12 3,6 3,4 Z"/></svg>