<?xml version="1.0" encoding="UTF-8" standalone="no"?>
<svg
   width="16"
   height="16"
   enable-background="new"
   version="1.1"
   id="svg4"
   xmlns="http://www.w3.org/2000/svg"
   xmlns:svg="http://www.w3.org/2000/svg">
  <defs
     id="defs8" />
  <path
     id="path938"
     style="color:#000000;fill:#241f31;stroke-linecap:round;stroke-linejoin:round;-inkscape-stroke:none"
     d="M 10.5 1 A 0.5 0.5 0 0 0 10.146484 1.1464844 A 0.5 0.5 0 0 0 10.146484 1.8535156 L 12.292969 4 L 2.5 4 A 0.5 0.5 0 0 0 2 4.5 A 0.5 0.5 0 0 0 2.5 5 L 13.5 5 A 0.5 0.5 0 0 0 13.664062 4.96875 A 0.5 0.5 0 0 0 13.712891 4.9492188 A 0.5 0.5 0 0 0 13.853516 4.8535156 A 0.5 0.5 0 0 0 13.957031 4.6992188 A 0.5 0.5 0 0 0 13.964844 4.6796875 A 0.5 0.5 0 0 0 13.980469 4.359375 A 0.5 0.5 0 0 0 13.978516 4.3554688 A 0.5 0.5 0 0 0 13.955078 4.2929688 A 0.5 0.5 0 0 0 13.951172 4.2851562 A 0.5 0.5 0 0 0 13.876953 4.171875 A 0.5 0.5 0 0 0 13.853516 4.1464844 L 10.853516 1.1464844 A 0.5 0.5 0 0 0 10.5 1 z M 2.5 11 A 0.5 0.5 0 0 0 2 11.5 A 0.5 0.5 0 0 0 2.5 12 L 12.292969 12 L 10.146484 14.146484 A 0.5 0.5 0 0 0 10.146484 14.853516 A 0.5 0.5 0 0 0 10.853516 14.853516 L 13.853516 11.853516 A 0.5 0.5 0 0 0 13.957031 11.699219 A 0.5 0.5 0 0 0 13.964844 11.679688 A 0.5 0.5 0 0 0 14 11.5 A 0.5 0.5 0 0 0 13.994141 11.429688 A 0.5 0.5 0 0 0 13.984375 11.376953 A 0.5 0.5 0 0 0 13.980469 11.359375 A 0.5 0.5 0 0 0 13.978516 11.355469 A 0.5 0.5 0 0 0 13.955078 11.292969 A 0.5 0.5 0 0 0 13.951172 11.285156 A 0.5 0.5 0 0 0 13.919922 11.230469 A 0.5 0.5 0 0 0 13.886719 11.183594 A 0.5 0.5 0 0 0 13.876953 11.171875 A 0.5 0.5 0 0 0 13.845703 11.140625 A 0.5 0.5 0 0 0 13.769531 11.080078 A 0.5 0.5 0 0 0 13.763672 11.076172 A 0.5 0.5 0 0 0 13.732422 11.060547 A 0.5 0.5 0 0 0 13.628906 11.017578 A 0.5 0.5 0 0 0 13.5 11 L 2.5 11 z " />
</svg>
