<?xml version="1.0" encoding="UTF-8" standalone="no"?>
<svg
   width="16"
   height="16"
   enable-background="new"
   version="1.1"
   id="svg4"
   xmlns="http://www.w3.org/2000/svg"
   xmlns:svg="http://www.w3.org/2000/svg">
  <defs
     id="defs8" />
  <path
     style="color:#000000;fill:#241f31;-inkscape-stroke:none"
     d="M 6,4.5 C 5.1776486,4.5 4.5,5.1776486 4.5,6 v 4 c 0,0.822351 0.6776486,1.5 1.5,1.5 h 4 c 0.822351,0 1.5,-0.677649 1.5,-1.5 V 6 C 11.5,5.1776486 10.822351,4.5 10,4.5 Z m 0,1 h 4 c 0.285627,0 0.5,0.2143725 0.5,0.5 v 4 c 0,0.285627 -0.214373,0.5 -0.5,0.5 H 6 C 5.7143725,10.5 5.5,10.285627 5.5,10 V 6 C 5.5,5.7143725 5.7143725,5.5 6,5.5 Z"
     id="path2" />
  <path
     id="path973"
     d="M 8 0 A 8 8 0 0 0 0 8 A 8 8 0 0 0 8 16 A 8 8 0 0 0 16 8 A 8 8 0 0 0 8 0 z M 7.9042969 1 A 6.9999 6.9999 0 0 1 7.90625 1 A 6.9999 6.9999 0 0 1 8 1 A 6.9999 6.9999 0 0 1 15 8 A 6.9999 6.9999 0 0 1 8 15 A 6.9999 6.9999 0 0 1 1 8 A 6.9999 6.9999 0 0 1 7.9042969 1 z M 3.96875 4.0371094 L 12.326172 4.0371094 L 3.96875 4.0371094 z "
     style="fill:#241f31" />
</svg>
