<svg xmlns="http://www.w3.org/2000/svg" xmlns:svg="http://www.w3.org/2000/svg" id="svg10" width="16" height="16" version="1.1"><path id="path2" d="M 4.5,3 C 3.1181415,2.997228 1.997228,4.1181415 2,5.5 v 5 C 2,11.885 3.115,13 4.5,13 h 7.0625 C 12.9475,13 13.98,11.885 14,10.5 14,8 14,6.8449547 14,5 13.768256,3.8374518 12.747921,3.0002537 11.5625,3 Z M 4.3242188,4 H 11.675781 C 12.409051,4 13,4.5909688 13,5.3242188 V 10.675781 C 13,11.409051 12.409031,12 11.675781,12 H 4.3242188 C 3.5909488,12 3,11.409031 3,10.675781 V 5.3242188 C 3,4.5909487 3.5909688,4 4.3242188,4 Z" style="fill:#241f31"/><rect id="rect6" width="8" height="1" x="4" y="8" fill="#363636" rx=".5" ry=".5" style="fill:#241f31"/><rect id="rect8" width="5" height="1" x="4" y="10" fill="#363636" rx=".5" ry=".5" style="fill:#241f31"/></svg>