<svg xmlns="http://www.w3.org/2000/svg" xmlns:svg="http://www.w3.org/2000/svg" id="svg4" width="16" height="16" version="1.1" viewBox="0 0 16 16"><path id="path860" d="m 14.5,1 c -0.276143,-8.7e-7 -0.500001,0.237852 -0.5,0.5312581 V 3.9281452 C 13.87583,3.7527807 13.839622,3.6097077 13.681641,3.432166 12.650446,2.2732933 10.834741,1.1411154 7.8808594,1.1411154 5.6262747,1.1411154 3.8728695,2.0768723 2.71875,3.4819714 1.5646305,4.8870706 1,6.1575057 1,8 1,8.1406498 0.99023,7.5787289 1,8 2,8 1,8 2,8 2,6.3893268 2.4995052,5.3640242 3.4726562,4.1792477 4.4458072,2.9944711 5.8809028,2.2036316 7.8808594,2.2036316 c 2.7188406,0 4.2145066,0.9928562 5.0742186,1.9590143 0.401343,0.4510355 0.654147,0.8874341 0.814453,1.2285343 h -3.320312 c -0.276142,0 -0.5000002,0.2378523 -0.5000002,0.5312581 0,0.2934058 0.2238582,0.5312581 0.5000002,0.5312581 H 14.5 c 0.0144,-0.00141 0.02874,-0.0035 0.04297,-0.00623 0.01111,-9.899e-4 0.02218,-0.00237 0.0332,-0.00415 0.07028,-0.011095 0.13753,-0.037979 0.197266,-0.078859 0.0073,-0.00601 0.01449,-0.012241 0.02148,-0.018677 0.05969,-0.046065 0.109048,-0.1055949 0.144531,-0.174319 l 0.002,-0.00207 c 6.57e-4,-0.00138 0.0013,-0.00276 0.002,-0.00415 C 14.980071,6.0902553 14.999578,6.0070087 15,5.9224383 V 1.5312581 C 15.000001,1.237852 14.776143,0.99999913 14.5,1 Z" style="color:#000;fill:#241f31;stroke-width:1;stroke-linecap:round;stroke-linejoin:round;-inkscape-stroke:none"/><path id="path860-3" d="m 1.499997,15 c 0.276143,10e-7 0.500001,-0.237852 0.5,-0.531258 v -2.396887 c 0.12417,0.175365 0.160378,0.318437 0.318359,0.49598 1.031195,1.158872 2.8469,2.29105 5.8007816,2.29105 2.2545844,0 4.0079904,-0.935757 5.1621094,-2.340856 C 14.435367,11.11293 15,9.8424939 15,8 c 0,-0.1406497 0.0098,1 0,0 h -1 c 0,0 -0.499543,2.635976 -1.472694,3.820753 -0.973151,1.184777 -2.408246,1.975616 -4.4082028,1.975616 -2.7188402,0 -4.2145062,-0.992857 -5.0742182,-1.959014 C 2.643542,11.386319 2.390738,10.94992 2.230432,10.60882 h 3.320312 c 0.276142,0 0.4999998,-0.237852 0.4999998,-0.531258 0,-0.293405 -0.2238578,-0.531258 -0.4999998,-0.531258 H 1.499997 c -0.0144,0.0014 -0.02874,0.0035 -0.04297,0.0063 -0.01111,9.9e-4 -0.02218,0.0023 -0.0332,0.0041 -0.07028,0.01109 -0.13753,0.03797 -0.197266,0.07886 -0.0073,0.0061 -0.01449,0.01224 -0.02148,0.01868 -0.05969,0.04607 -0.109048,0.105593 -0.144531,0.174318 l -0.002,0.002 c -6.57e-4,0.0014 -0.0013,0.0028 -0.002,0.0041 C 1.01993,9.909719 1.00042,9.992963 1,10.077534 v 4.391179 c -1e-6,0.293407 0.223857,0.531259 0.5,0.531258 z" style="color:#000;fill:#241f31;stroke-width:1;stroke-linecap:round;stroke-linejoin:round;-inkscape-stroke:none"/></svg>