<svg xmlns="http://www.w3.org/2000/svg" xmlns:svg="http://www.w3.org/2000/svg" id="svg4" width="16" height="16" enable-background="new" version="1.1"><path style="color:#000;fill:#241f31;stroke-linecap:round;stroke-linejoin:round;-inkscape-stroke:none" id="path938" d="M 3.5,2 A 0.5,0.5 0 0 0 3,2.5 v 11 A 0.5,0.5 0 0 0 3.5,14 0.5,0.5 0 0 0 4,13.5 V 2.5 A 0.5,0.5 0 0 0 3.5,2 Z"/><path style="color:#000;fill:#241f31;stroke-linecap:round;stroke-linejoin:round;-inkscape-stroke:none" id="path940" d="M 12.5,2 A 0.5,0.5 0 0 0 12,2.5 v 11 A 0.5,0.5 0 0 0 12.5,14 0.5,0.5 0 0 0 13,13.5 V 2.5 A 0.5,0.5 0 0 0 12.5,2 Z"/></svg>