<svg xmlns="http://www.w3.org/2000/svg" xmlns:svg="http://www.w3.org/2000/svg" id="svg14" width="16" height="16" version="1.1"><g id="g1" transform="matrix(1.1111111,0,0,1.1428571,-0.8888888,-1.7142854)"><path id="rect1" d="m 3.95,5 h 8.1 c 0.2493,0 0.45,0.195125 0.45,0.4375 0,0.242375 -0.2007,0.4375001 -0.45,0.4375001 H 3.95 C 3.7007,5.8750001 3.5,5.679875 3.5,5.4375 3.5,5.195125 3.7007,5 3.95,5 Z" style="fill:#111;stroke-width:1.32758"/><path id="rect1-6" d="m 3.95,7.625 h 8.1 c 0.2493,0 0.45,0.195125 0.45,0.4375 0,0.242375 -0.2007,0.4375001 -0.45,0.4375001 H 3.95 C 3.7007,8.5000001 3.5,8.304875 3.5,8.0625 3.5,7.820125 3.7007,7.625 3.95,7.625 Z" style="fill:#111;stroke-width:1.32758"/><path id="rect1-5" d="m 3.95,10.25 h 8.1 c 0.2493,0 0.45,0.195125 0.45,0.4375 0,0.242375 -0.2007,0.4375 -0.45,0.4375 H 3.95 C 3.7007,11.125 3.5,10.929875 3.5,10.6875 3.5,10.445125 3.7007,10.25 3.95,10.25 Z" style="fill:#111;stroke-width:1.32758"/></g></svg>