<svg xmlns="http://www.w3.org/2000/svg" xmlns:svg="http://www.w3.org/2000/svg" id="svg14" width="16" height="16" version="1.1"><g id="g1" transform="matrix(1.1111111,0,0,1.1428571,-0.8888888,-1.7142854)"><path id="rect1" d="m 3.86,5 h 6.48 c 0.19944,0 0.36,0.195125 0.36,0.4375 0,0.242375 -0.16056,0.4375001 -0.36,0.4375001 H 3.86 C 3.66056,5.8750001 3.5,5.679875 3.5,5.4375 3.5,5.195125 3.66056,5 3.86,5 Z" style="fill:#111;stroke-width:1.18742"/><path id="rect1-6" d="M 3.725,7.625 H 7.7750001 C 7.8996501,7.625 8,7.820125 8,8.0625 8,8.304875 7.8996501,8.5000001 7.7750001,8.5000001 H 3.725 C 3.60035,8.5000001 3.5,8.304875 3.5,8.0625 3.5,7.820125 3.60035,7.625 3.725,7.625 Z" style="fill:#111;stroke-width:.938738"/><path id="rect1-5" d="m 3.8591751,10.25 h 6.4651509 c 0.198982,0 0.359174,0.195125 0.359174,0.4375 0,0.242375 -0.160192,0.4375 -0.359174,0.4375 H 3.8591751 C 3.6601921,11.125 3.5,10.929875 3.5,10.6875 3.5,10.445125 3.6601921,10.25 3.8591751,10.25 Z" style="fill:#111;stroke-width:1.18606"/><path style="fill:#111;stroke-linecap:round;stroke-linejoin:round" id="path4" d="M 13.256442,5.2276073 9.9700613,7.9245399 Z"/><path id="path5" d="M 13.298047,5.002259 A 0.44375038,0.43317811 0 0 0 12.974609,5.095682 L 9.6892578,7.7282093 a 0.44375038,0.43317811 0 0 0 -0.1423828,0.2936152 0.44375038,0.43317811 0 0 0 -0.00352,0.041707 0.44375038,0.43317811 0 0 0 0.00352,0.040038 0.44375038,0.43317811 0 0 0 0.1423828,0.2936152 l 3.2853512,2.6325273 a 0.44375038,0.43317811 0 0 0 0.71543,-0.266923 0.44375038,0.43317811 0 0 0 -0.15293,-0.402052 l -2.86875,-2.297206 2.86875,-2.2988736 a 0.44375038,0.43317811 0 0 0 0.15293,-0.4020526 0.44375038,0.43317811 0 0 0 -0.279492,-0.3336537 0.44375038,0.43317811 0 0 0 -0.1125,-0.026692 z" style="stroke-width:.988016;stroke-linecap:round;stroke-linejoin:round"/><path style="color:#000;font-style:normal;font-variant:normal;font-weight:400;font-stretch:normal;font-size:medium;line-height:normal;font-family:sans-serif;font-variant-ligatures:normal;font-variant-position:normal;font-variant-caps:normal;font-variant-numeric:normal;font-variant-alternates:normal;font-variant-east-asian:normal;font-feature-settings:normal;font-variation-settings:normal;text-indent:0;text-align:start;text-decoration-line:none;text-decoration-style:solid;text-decoration-color:#000;letter-spacing:normal;word-spacing:normal;text-transform:none;writing-mode:lr-tb;direction:ltr;text-orientation:mixed;dominant-baseline:auto;baseline-shift:baseline;text-anchor:start;white-space:normal;shape-padding:0;shape-margin:0;inline-size:0;clip-rule:nonzero;display:inline;overflow:visible;visibility:visible;isolation:auto;mix-blend-mode:normal;color-interpolation:sRGB;color-interpolation-filters:linearRGB;solid-color:#000;solid-opacity:1;vector-effect:none;fill:#111;fill-opacity:1;fill-rule:nonzero;stroke:none;stroke-linecap:round;stroke-linejoin:round;stroke-miterlimit:4;stroke-dasharray:none;stroke-dashoffset:0;stroke-opacity:1;-inkscape-stroke:none;color-rendering:auto;image-rendering:auto;shape-rendering:auto;text-rendering:auto;enable-background:accumulate;stop-color:#000" id="path2" d="M 13.256442,10.621472 9.9700613,7.9245399 Z"/></g></svg>