<?xml version="1.0" encoding="UTF-8" standalone="no"?>
<svg
   width="16"
   height="16"
   version="1.1"
   id="svg8"
   xmlns="http://www.w3.org/2000/svg"
   xmlns:svg="http://www.w3.org/2000/svg">
  <defs
     id="defs12" />
  <path
     id="path2"
     style="isolation:auto;mix-blend-mode:normal;fill:#241f31;fill-opacity:0.5"
     d="M 7.25 1 C 7.11193 1 7 1.11193 7 1.25 L 7 2.75 C 7 2.889 7.112 3 7.25 3 L 7.75 3 C 7.88807 3 8 2.88807 8 2.75 L 8 1.25 C 8 1.11193 7.88807 1 7.75 1 L 7.25 1 z M 12.449219 2.9472656 C 12.383519 2.9472356 12.319668 2.9728314 12.273438 3.0195312 L 11.214844 4.0800781 C 11.116944 4.1777781 11.116944 4.3359137 11.214844 4.4335938 L 11.566406 4.7871094 C 11.664006 4.8844094 11.822352 4.8844094 11.919922 4.7871094 L 12.980469 3.7265625 C 13.078369 3.6288625 13.078369 3.4707269 12.980469 3.3730469 L 12.626953 3.0195312 C 12.579753 2.9724314 12.515919 2.9468656 12.449219 2.9472656 z M 0.25 8 C 0.11193 8 0 8.11193 0 8.25 L 0 8.75 C 0 8.889 0.112 9 0.25 9 L 1.75 9 C 1.88807 9 2 8.88807 2 8.75 L 2 8.25 C 2 8.11193 1.88807 8 1.75 8 L 0.25 8 z M 13.25 8 C 13.11193 8 13 8.11193 13 8.25 L 13 8.75 C 13 8.889 13.112 9 13.25 9 L 14.75 9 C 14.88807 9 15 8.88807 15 8.75 L 15 8.25 C 15 8.11193 14.88807 8 14.75 8 L 13.25 8 z M 3.2578125 12.138672 C 3.1910125 12.138772 3.1272581 12.165591 3.0800781 12.212891 L 2.0195312 13.273438 C 1.9216313 13.371136 1.9216313 13.529273 2.0195312 13.626953 L 2.3730469 13.980469 C 2.4707469 14.078369 2.6288825 14.078369 2.7265625 13.980469 L 3.7871094 12.919922 C 3.8850094 12.822222 3.8850094 12.664086 3.7871094 12.566406 L 3.4335938 12.212891 C 3.3871936 12.165691 3.3240025 12.138872 3.2578125 12.138672 z M 7.25 14 C 7.11193 14 7 14.11193 7 14.25 L 7 15.75 C 7 15.889 7.112 16 7.25 16 L 7.75 16 C 7.88807 16 8 15.88807 8 15.75 L 8 14.25 C 8 14.11193 7.88807 14 7.75 14 L 7.25 14 z " />
  <path
     id="circle6"
     style="color:#000000;fill:#241f31;fill-rule:evenodd;-inkscape-stroke:none;paint-order:stroke fill markers;fill-opacity:0.5"
     d="M 7.5 4.5 C 6.9467429 4.5 6.4194371 4.6137717 5.9394531 4.8183594 L 6.7226562 5.6015625 C 6.970424 5.5357976 7.2308887 5.5 7.5 5.5 C 9.1627749 5.5 10.5 6.8372251 10.5 8.5 C 10.5 8.7691113 10.464202 9.029576 10.398438 9.2773438 L 11.181641 10.060547 C 11.386228 9.5805629 11.5 9.053257 11.5 8.5 C 11.5 6.2967855 9.7032145 4.5 7.5 4.5 z M 3.8183594 6.9394531 C 3.6137717 7.4194371 3.5 7.9467429 3.5 8.5 C 3.5 10.703214 5.2967855 12.5 7.5 12.5 C 8.0532571 12.5 8.5805629 12.386228 9.0605469 12.181641 L 8.2773438 11.398438 C 8.029576 11.464202 7.7691113 11.5 7.5 11.5 C 5.8372251 11.5 4.5 10.162775 4.5 8.5 C 4.5 8.2308887 4.5357976 7.970424 4.6015625 7.7226562 L 3.8183594 6.9394531 z " />
  <path
     style="color:#000000;fill:#241f31;stroke-linecap:round;stroke-linejoin:round;-inkscape-stroke:none"
     d="m 2.8496094,3.140625 a 0.50005,0.50005 0 0 0 -0.703125,0.00586 0.50005,0.50005 0 0 0 -0.00391,0.7011719 L 12.152344,13.859375 a 0.50005,0.50005 0 0 0 0.480469,0.123047 0.50005,0.50005 0 0 0 0.349609,-0.349609 0.50005,0.50005 0 0 0 -0.123047,-0.480469 z"
     id="path1654" />
</svg>
