<svg xmlns="http://www.w3.org/2000/svg" xmlns:svg="http://www.w3.org/2000/svg" id="svg8" width="16" height="16" version="1.1"><g id="g4" transform="translate(-613 191)" style="fill:#241f31"><path style="isolation:auto;mix-blend-mode:normal;fill:#241f31" id="path2" fill="#363636" d="m620.25-190c-0.13807 0-0.25 0.11193-0.25 0.25v1.5c0 0.139 0.112 0.25 0.25 0.25h0.5c0.13807 0 0.25-0.11193 0.25-0.25v-1.5c0-0.13807-0.11193-0.25-0.25-0.25zm-4.699 1.947c-0.0667-3.8e-4 -0.13078 0.0259-0.178 0.073l-0.353 0.353c-0.0979 0.0977-0.0979 0.25632 0 0.354l1.06 1.06c0.0977 0.0979 0.25632 0.0979 0.354 0l0.353-0.353c0.0979-0.0977 0.0979-0.25632 0-0.354l-1.06-1.06c-0.0465-0.047-0.10991-0.0733-0.176-0.073zm9.898 0c-0.0657-3e-5 -0.12877 0.0263-0.175 0.073l-1.06 1.06c-0.0979 0.0977-0.0979 0.25632 0 0.354l0.353 0.353c0.0976 0.0973 0.25543 0.0973 0.353 0l1.06-1.06c0.0979-0.0977 0.0979-0.25632 0-0.354l-0.353-0.353c-0.0472-0.0471-0.1113-0.0734-0.178-0.073zm-12.199 5.053c-0.13807 0-0.25 0.11193-0.25 0.25v0.5c0 0.139 0.112 0.25 0.25 0.25h1.5c0.13807 0 0.25-0.11193 0.25-0.25v-0.5c0-0.13807-0.11193-0.25-0.25-0.25zm13 0c-0.13807 0-0.25 0.11193-0.25 0.25v0.5c0 0.139 0.112 0.25 0.25 0.25h1.5c0.13807 0 0.25-0.11193 0.25-0.25v-0.5c0-0.13807-0.11193-0.25-0.25-0.25zm-9.992 4.139c-0.0668 1e-4 -0.13082 0.0267-0.178 0.074l-1.06 1.06c-0.0979 0.0977-0.0979 0.25632 0 0.354l0.353 0.353c0.0977 0.0979 0.25632 0.0979 0.354 0l1.06-1.06c0.0979-0.0977 0.0979-0.25632 0-0.354l-0.353-0.353c-0.0464-0.0472-0.10981-0.0738-0.176-0.074zm8.484 0c-0.0658 4.6e-4 -0.1288 0.0271-0.175 0.074l-0.354 0.353c-0.0979 0.0977-0.0979 0.25632 0 0.354l1.06 1.06c0.0977 0.0979 0.25632 0.0979 0.354 0l0.354-0.353c0.0979-0.0977 0.0979-0.25632 0-0.354l-1.06-1.06c-0.0474-0.0475-0.11186-0.0742-0.179-0.074zm-4.492 1.861c-0.13807 0-0.25 0.11193-0.25 0.25v1.5c0 0.139 0.112 0.25 0.25 0.25h0.5c0.13807 0 0.25-0.11193 0.25-0.25v-1.5c0-0.13807-0.11193-0.25-0.25-0.25z" color="#000" overflow="visible"/></g><path style="color:#000;fill:#241f31;fill-rule:evenodd;-inkscape-stroke:none;paint-order:stroke fill markers" id="circle6" d="m 7.5,4.5 c -2.2032145,0 -4,1.7967855 -4,4 0,2.203214 1.7967855,4 4,4 2.2032145,0 4,-1.796786 4,-4 0,-2.2032145 -1.7967855,-4 -4,-4 z m 0,1 c 1.6627749,0 3,1.3372251 3,3 0,1.662775 -1.3372251,3 -3,3 -1.6627749,0 -3,-1.337225 -3,-3 0,-1.6627749 1.3372251,-3 3,-3 z"/><path style="fill:none;stroke:#241f31;stroke-width:.999996px;stroke-linecap:round;stroke-linejoin:round;stroke-opacity:1" id="path896" d="m 6.5000202,7.499998 v 0.6666666 c 0,0 0,1.3333334 1.3333225,1.3333334 H 8.500004"/></svg>