<svg xmlns="http://www.w3.org/2000/svg" xmlns:svg="http://www.w3.org/2000/svg" id="svg4" width="16" height="16" version="1.1" viewBox="0 0 16 16"><path id="path865" style="color:#000;fill:#241f31;stroke-width:1;stroke-linecap:round;stroke-linejoin:round;-inkscape-stroke:none" d="m 11.371543,12.634881 c 0.198288,-0.213536 0.15411,-0.608835 -0.04418,-0.82237 -0.198287,-0.213539 -0.565354,-0.261113 -0.76364,-0.04758 l -1.4925716,1.60736 -2e-7,-6.3444872 A 0.57121408,0.61514466 0 0 0 8.4999997,6.4127286 0.57121408,0.61514466 0 0 0 7.9288466,7.0278075 l 4e-7,6.3444875 -1.4925716,-1.607361 c -0.1982872,-0.213537 -0.5653541,-0.165962 -0.7636411,0.04758 -0.198287,0.213536 -0.2424638,0.608835 -0.044178,0.82237 l 2.5118114,2.704989 c 0.1982986,0.213506 0.5211646,0.213506 0.7194641,10e-7 z"/><path id="path865-3" style="color:#000;fill:#241f31;stroke-width:1;stroke-linecap:round;stroke-linejoin:round;-inkscape-stroke:none" d="m 11.371543,3.8651171 c 0.198288,0.2135371 0.15411,0.6088344 -0.04418,0.8223704 -0.198287,0.2135383 -0.565354,0.2611124 -0.76364,0.04758 l -1.4925716,-1.60736 -2e-7,6.344488 A 0.57121408,0.61514466 0 0 1 8.4999997,10.08727 0.57121408,0.61514466 0 0 1 7.9288466,9.4721913 l 4e-7,-6.3444884 -1.4925716,1.607361 C 6.2379882,4.948601 5.8709213,4.9010258 5.6726343,4.6874887 5.4743473,4.4739515 5.4301705,4.0786542 5.6284567,3.8651181 L 8.1402681,1.1601302 C 8.3385667,0.94662349 8.6614327,0.94662349 8.8597322,1.160129 Z"/></svg>