<svg xmlns="http://www.w3.org/2000/svg" xmlns:svg="http://www.w3.org/2000/svg" id="svg4" width="16" height="16" version="1.1" viewBox="0 0 16 16"><path id="path860" style="color:#000;fill:#241f31;stroke-linecap:round;stroke-linejoin:round;-inkscape-stroke:none" d="m 1.0664325,7.8144681 c 0,-2.2545847 0.880699,-4.0079899 2.203125,-5.1621094 1.322426,-1.1541195 3.0627894,-1.71874997 4.7968753,-1.71874997 1.7340859,0 3.4744492,0.56463047 4.7968752,1.71874997 1.322426,1.1541195 2.203125,2.9075247 2.203125,5.1621094 0,0.9454536 0.01606,2.6744799 -0.695312,4.2265629 -0.711371,1.552083 -2.252399,2.892578 -5.003907,2.892578 -0.2761427,10e-7 -0.5000008,-0.223857 -0.5,-0.5 -8e-7,-0.276143 0.2238573,-0.500001 0.5,-0.5 2.448478,0 3.505124,-1.024316 4.09375,-2.308594 0.588626,-1.284277 0.605469,-2.8650933 0.605469,-3.8105469 0,-1.9999566 -0.744308,-3.4350521 -1.859375,-4.4082032 -1.115067,-0.973151 -2.6247206,-1.4726562 -4.1406252,-1.4726562 -1.5159046,0 -3.0255583,0.4995052 -4.1406253,1.4726562 -1.115067,0.973151 -1.859375,2.4082466 -1.859375,4.4082032 0,2.7188409 0.934439,4.2145069 1.84375,5.0742189 0.424498,0.401343 0.83522,0.654147 1.15625,0.814453 v -3.319531 c 0,-0.276142 0.223858,-0.5000003 0.5,-0.5000003 0.276143,0 0.5000003,0.2238583 0.5000003,0.5000003 v 4.05 c -0.00133,0.0144 -0.00329,0.02874 -0.00586,0.04297 -9.316e-4,0.01111 -0.00223,0.02218 -0.00391,0.0332 -0.010442,0.07028 -0.035744,0.137531 -0.074219,0.197266 -0.0057,0.0073 -0.01152,0.01449 -0.01758,0.02148 -0.04336,0.05969 -0.09938,0.109048 -0.164062,0.144531 -6.49e-4,6.53e-4 -0.0013,0.0013 -0.002,0.002 -0.0013,6.57e-4 -0.0026,0.0013 -0.0039,0.002 -0.07057,0.03671 -0.148916,0.05613 -0.228511,0.05655 h -4.132812 c -0.276143,1e-6 -0.50000103,-0.223857 -0.50000003,-0.5 -1e-6,-0.276143 0.22385703,-0.500001 0.50000003,-0.5 h 2.255859 c -0.165046,-0.12417 -0.299701,-0.160378 -0.466797,-0.318359 -1.090687,-1.031195 -2.15625,-2.8469 -2.15625,-5.8007819 z"/></svg>