<svg xmlns="http://www.w3.org/2000/svg" xmlns:svg="http://www.w3.org/2000/svg" id="svg4" width="16" height="16" version="1.1" viewBox="0 0 16 16"><g id="g2"><path id="path1" d="m 9.5507819,16 c -0.021504,7.36e-4 -0.043033,8.4e-5 -0.064453,-0.002 C 9.3540278,15.98483 9.2324377,15.91947 9.1484382,15.816406 8.9738839,15.602769 9.0053489,15.288122 9.2187512,15.113281 L 11.150392,13.056348 H 8.5566412 8.5000002 c -0.017312,0 -0.033932,-2.53e-4 -0.050781,-0.0019 -0.00197,-1.6e-5 -0.00389,1.7e-5 -0.00586,0 -3.5576948,-0.03089 -6.4433588,-2.933262 -6.4433588,-6.4981002 0,-3.5839291 2.916073,-6.50000013 6.4999998,-6.50000013 C 12.083928,0.05634767 15,2.9724187 15,6.5563478 c 0,0.00512 1.3e-5,0.010504 0,0.015625 H 14.9961 C 14.99929,6.5995298 15,6.6273078 15,6.6559568 15,6.9883567 14.776998,7.2555662 14.5,7.2555662 14.223002,7.255566 14,6.9883567 14,6.6559568 c 0,-0.02865 7.07e-4,-0.056427 0.0039,-0.083984 H 14 c 1.4e-5,-0.00512 0,-0.010501 0,-0.015625 0,-3.0434881 -2.456513,-5.5000001 -5.4999998,-5.5000001 -3.0434868,0 -5.4999998,2.456512 -5.4999998,5.5000001 0,3.0362006 2.445132,5.4882742 5.4785154,5.5000002 0.00701,-2.89e-4 0.014401,0 0.021484,0 h 0.074219 c 0.1025727,-0.0016 0.2057243,-0.0068 0.3066406,-0.01367 v 0.01367 h 0.625 1.5839846 L 9.2070321,9.9375003 C 8.9972674,9.7592204 8.9710753,9.444916 9.1484381,9.2343753 9.326718,9.0246106 9.6410224,8.9984185 9.8515631,9.1757813 l 2.9707039,3.0387697 c 0.2378,0.201729 0.234973,0.569528 -0.0059,0.767578 l -2.9648039,2.90459 C 9.7665021,15.956553 9.6607772,15.996371 9.5507819,16 Z" style="baseline-shift:baseline;display:inline;overflow:visible;opacity:1;vector-effect:none;fill:#241f31;stroke-width:1;stroke-linecap:round;stroke-linejoin:round;enable-background:accumulate;stop-color:#000;stop-opacity:1"/></g></svg>