<svg xmlns="http://www.w3.org/2000/svg" xmlns:svg="http://www.w3.org/2000/svg" id="svg4" width="16" height="16" version="1.1" viewBox="0 0 16 16"><g id="g2"><path id="path1" d="m 6.4492237,16 c 0.021504,7.36e-4 0.043033,8.4e-5 0.064453,-0.002 0.1323011,-0.01317 0.2538912,-0.07853 0.3378907,-0.181594 0.1745543,-0.213637 0.1430893,-0.528284 -0.070313,-0.703125 L 4.8496138,13.056348 h 2.5937506 0.056641 c 0.017312,0 0.033932,-2.53e-4 0.050781,-0.0019 0.00197,-1.6e-5 0.00389,1.7e-5 0.00586,0 3.5576956,-0.03089 6.4433596,-2.933262 6.4433596,-6.4981002 0,-3.5839291 -2.916073,-6.50000013 -6.5000006,-6.50000013 -3.5839276,0 -6.4999996,2.91607103 -6.4999996,6.50000013 0,0.00512 -1.302e-5,0.010504 0,0.015625 h 0.0039 c -0.00319,0.027557 -0.0039,0.055335 -0.0039,0.083984 0,0.3323999 0.223002,0.5996094 0.5,0.5996094 0.276998,-2e-7 0.5,-0.2672095 0.5,-0.5996094 0,-0.02865 -7.07e-4,-0.056427 -0.0039,-0.083984 h 0.0039 c -1.4e-5,-0.00512 0,-0.010501 0,-0.015625 0,-3.0434881 2.456513,-5.5000001 5.4999996,-5.5000001 3.0434876,0 5.5000006,2.456512 5.5000006,5.5000001 0,3.0362006 -2.445132,5.4882742 -5.4785162,5.5000002 -0.00701,-2.89e-4 -0.014401,0 -0.021484,0 h -0.074219 c -0.1025727,-0.0016 -0.2057243,-0.0068 -0.3066406,-0.01367 v 0.01367 h -0.625 -1.5839844 L 6.7929735,9.9375003 C 7.0027382,9.7592204 7.0289303,9.444916 6.8515675,9.2343753 6.6732876,9.0246106 6.3589832,8.9984185 6.1484425,9.1757813 L 3.1777388,12.214551 c -0.2378,0.201729 -0.234973,0.569528 0.0059,0.767578 l 2.9648037,2.90459 C 6.2335035,15.956553 6.3392284,15.996371 6.4492237,16 Z" style="baseline-shift:baseline;display:inline;overflow:visible;opacity:1;vector-effect:none;fill:#241f31;stroke-width:1;stroke-linecap:round;stroke-linejoin:round;enable-background:accumulate;stop-color:#000;stop-opacity:1"/></g></svg>