<?xml version="1.0" encoding="UTF-8" standalone="no"?>
<!-- Created with Inkscape (http://www.inkscape.org/) -->

<svg
   width="16"
   height="16"
   viewBox="0 0 4.2333332 4.2333332"
   version="1.1"
   id="svg5"
   inkscape:version="1.1.2 (0a00cf5339, 2022-02-04)"
   sodipodi:docname="open-menu-symbolic.svg"
   xmlns:inkscape="http://www.inkscape.org/namespaces/inkscape"
   xmlns:sodipodi="http://sodipodi.sourceforge.net/DTD/sodipodi-0.dtd"
   xmlns="http://www.w3.org/2000/svg"
   xmlns:svg="http://www.w3.org/2000/svg">
  <sodipodi:namedview
     id="namedview7"
     pagecolor="#f2f2f2"
     bordercolor="#666666"
     borderopacity="1.0"
     inkscape:pageshadow="2"
     inkscape:pageopacity="0"
     inkscape:pagecheckerboard="true"
     inkscape:document-units="mm"
     showgrid="false"
     showborder="true"
     inkscape:showpageshadow="false"
     inkscape:zoom="22.627416"
     inkscape:cx="7.9107575"
     inkscape:cy="9.4575536"
     inkscape:window-width="2560"
     inkscape:window-height="1011"
     inkscape:window-x="0"
     inkscape:window-y="0"
     inkscape:window-maximized="1"
     inkscape:current-layer="layer1"
     units="px"
     height="16px">
    <inkscape:grid
       type="xygrid"
       id="grid858" />
  </sodipodi:namedview>
  <defs
     id="defs2" />
  <g
     inkscape:label="Layer 1"
     inkscape:groupmode="layer"
     id="layer1">
    <path
       style="color:#000000;fill:#241f31;stroke-linecap:round;stroke-linejoin:round;-inkscape-stroke:none"
       d="M 3.96875,1.1914063 A 0.26460996,0.26460996 0 0 0 3.8359375,0.96289068 L 2.25,0.0351563 a 0.26460996,0.26460996 0 0 0 -0.2675781,0 L 0.3945313,0.96289068 A 0.26460996,0.26460996 0 0 0 0.2636719,1.1914063 v 1.8515626 a 0.26460996,0.26460996 0 0 0 0.1308594,0.2285156 l 1.5878906,0.9257812 a 0.26460996,0.26460996 0 0 0 0.2675781,0 L 3.8359375,3.2714845 A 0.26460996,0.26460996 0 0 0 3.96875,3.0429689 Z M 3.4394532,1.3437501 v 1.546875 L 2.1152344,3.6621095 0.7929688,2.8906251 V 1.341797 L 2.1152344,0.57031255 Z"
       id="path893" />
    <path
       style="color:#000000;fill:#241f31;stroke-linecap:round;stroke-linejoin:round;-inkscape-stroke:none"
       d="m 2.1171875,1.3222656 c -0.4368086,0 -0.7949219,0.3581133 -0.7949219,0.7949219 0,0.4368086 0.3581133,0.7929688 0.7949219,0.7929688 0.4368086,0 0.7929688,-0.3561602 0.7929688,-0.7929688 0,-0.4368086 -0.3561602,-0.7949219 -0.7929688,-0.7949219 z m 0,0.265625 c 0.293818,0 0.5292969,0.2354789 0.5292969,0.5292969 0,0.293818 -0.2354789,0.5292969 -0.5292969,0.5292969 -0.293818,0 -0.5292969,-0.2354789 -0.5292969,-0.5292969 0,-0.293818 0.2354789,-0.5292969 0.5292969,-0.5292969 z"
       id="path917" />
  </g>
</svg>
