<?xml version="1.0" encoding="UTF-8" standalone="no"?>
<!-- Created with Inkscape (http://www.inkscape.org/) -->

<svg
   width="16"
   height="16"
   viewBox="0 0 4.2333332 4.2333332"
   version="1.1"
   id="svg5"
   xmlns="http://www.w3.org/2000/svg"
   xmlns:svg="http://www.w3.org/2000/svg">
  <defs
     id="defs2" />
  <g
     id="layer1">
    <path
       style="color:#000000;fill:#241f31;stroke-width:1;stroke-linecap:round;stroke-linejoin:round;-inkscape-stroke:none"
       d="M 3.4382481,1.3223819 2.1166667,0.52916667 0.79375,1.3229167 v 1.5875 l 1.3229167,0.79375 1.3215814,-0.7932083 z M 3.96875,1.0583333 c 0,2.1166667 0,0 0,2.1166667 -1.8520833,1.0583333 0,0 -1.8520833,1.0583333 L 0.26458333,3.175 c -0.005041,-0.5101097 0.003,-1.1166244 0.002072,-1.6267463 -0.002072,-0.225337 -0.002072,-0.4899204 -0.002072,-0.4899204 C 2.1166667,0 0.26458333,1.0583333 2.1166667,0 Z"
       id="path893" />
    <path
       style="color:#000000;fill:#241f31;stroke-width:0.999997;stroke-linecap:round;stroke-linejoin:round;-inkscape-stroke:none"
       d="M 2.117643,1.3229167 C 1.7983914,1.3187611 1.4925647,1.5298914 1.3783209,1.8271494 1.2635734,2.1069853 1.3312688,2.4485674 1.543169,2.6641709 1.7513977,2.8874704 2.0936694,2.97049 2.3806452,2.865472 2.6809889,2.7630157 2.9018024,2.4659749 2.9098335,2.1482121 2.9261915,1.8325405 2.731938,1.5210946 2.4434104,1.3934644 2.3415348,1.3469487 2.2296264,1.322786 2.117643,1.3229167 Z m 0,0.2655596 C 2.3619982,1.5831719 2.5920081,1.7700707 2.6361202,2.0105685 2.6874168,2.2413414 2.5630932,2.4961718 2.34771,2.5948829 2.1276627,2.704718 1.8369203,2.6353356 1.6931637,2.4348937 1.5369321,2.2331291 1.5588276,1.9200467 1.7429053,1.7429054 1.8408092,1.6441243 1.9786411,1.5877021 2.117643,1.5884763 Z"
       id="path3510" />
  </g>
</svg>
