<?xml version="1.0" encoding="UTF-8" standalone="no"?>
<!-- Created with Inkscape (http://www.inkscape.org/) -->

<svg
   width="16"
   height="16"
   viewBox="0 0 4.2333332 4.2333332"
   version="1.1"
   id="svg5"
   inkscape:version="1.1.2 (0a00cf5339, 2022-02-04)"
   sodipodi:docname="open-menu-symbolic.svg"
   xmlns:inkscape="http://www.inkscape.org/namespaces/inkscape"
   xmlns:sodipodi="http://sodipodi.sourceforge.net/DTD/sodipodi-0.dtd"
   xmlns="http://www.w3.org/2000/svg"
   xmlns:svg="http://www.w3.org/2000/svg">
  <sodipodi:namedview
     id="namedview7"
     pagecolor="#f2f2f2"
     bordercolor="#666666"
     borderopacity="1.0"
     inkscape:pageshadow="2"
     inkscape:pageopacity="0"
     inkscape:pagecheckerboard="true"
     inkscape:document-units="mm"
     showgrid="true"
     showborder="true"
     inkscape:showpageshadow="false"
     inkscape:zoom="51.75"
     inkscape:cx="8"
     inkscape:cy="8"
     inkscape:window-width="2560"
     inkscape:window-height="1011"
     inkscape:window-x="0"
     inkscape:window-y="0"
     inkscape:window-maximized="1"
     inkscape:current-layer="layer1"
     units="px"
     height="16px">
    <inkscape:grid
       type="xygrid"
       id="grid858" />
  </sodipodi:namedview>
  <defs
     id="defs2" />
  <g
     inkscape:label="Layer 1"
     inkscape:groupmode="layer"
     id="layer1">
    <path
       style="color:#000000;fill:#241f31;stroke-width:0.999997;stroke-linecap:round;stroke-linejoin:round;-inkscape-stroke:none"
       d="M 3.96875,1.1921687 C 3.9713655,0.99159396 3.7608246,0.92939871 3.6223286,0.83876452 3.1540487,0.56666739 2.6887504,0.28906159 2.2186003,0.02042001 2.0378668,-0.05298732 1.8910104,0.10504847 1.7400599,0.17817701 1.2826184,0.4472128 0.82186481,0.71099236 0.36650288,0.98332852 0.21577846,1.1034414 0.27765375,1.3073521 0.26458341,1.4734247 c 0.001505,0.5348229 -0.003018,1.0698425 0.002275,1.6045419 0.0272074,0.190986 0.23463678,0.2403918 0.37153279,0.3352423 0.4591418,0.2658998 0.9153735,0.5371853 1.3763416,0.7997045 0.1807174,0.07338 0.3276067,-0.0846 0.4785948,-0.1576643 C 2.9502421,3.7869559 3.4100775,3.5233428 3.8651609,3.2521157 4.0176657,3.1329217 3.9558123,2.9281399 3.96875,2.7618612 Z m -0.5291666,0.130748 v 1.5875 l -1.3229167,0.79375 -1.3229167,-0.79375 9e-8,-1.5875 1.32291661,-0.79375003 z"
       id="path893"
       sodipodi:nodetypes="cccccccccccccccccccc" />
    <path
       style="color:#000000;fill:#241f31;stroke-width:0.999997;stroke-linecap:round;stroke-linejoin:round;-inkscape-stroke:none"
       d="m 2.1166667,1.3229167 c -0.4367011,0 -0.79375,0.3570489 -0.79375,0.79375 0,0.4367011 0.3570489,0.79375 0.79375,0.79375 0.4367011,0 0.79375,-0.3570489 0.79375,-0.79375 0,-0.4367011 -0.3570489,-0.79375 -0.79375,-0.79375 z m 0,0.2645833 c 0.2937457,0 0.5291666,0.235421 0.5291666,0.5291667 0,0.2937457 -0.2354209,0.5291666 -0.5291666,0.5291666 C 1.822921,2.6458333 1.5875,2.4104124 1.5875,2.1166667 1.5875,1.822921 1.822921,1.5875 2.1166667,1.5875 Z"
       id="path917"
       sodipodi:nodetypes="ssssssssss" />
  </g>
</svg>
