<?xml version="1.0" encoding="UTF-8" standalone="no"?>
<!-- Created with Inkscape (http://www.inkscape.org/) -->

<svg
   width="16"
   height="16"
   viewBox="0 0 16 16"
   version="1.1"
   id="svg5"
   xmlns="http://www.w3.org/2000/svg"
   xmlns:svg="http://www.w3.org/2000/svg">
  <defs
     id="defs2" />
  <path
     style="color:#000000;fill:#241f31;stroke-width:0.999996;stroke-linecap:round;stroke-linejoin:round;-inkscape-stroke:none"
     d="M 8,5 C 6.3499163,5 5,6.3499158 5,8.0000001 5,9.6500842 6.3499163,11 8,11 9.6500847,11 11,9.6500842 11,8.0000001 11,6.3499158 9.6500847,5 8,5 Z m 0,1.1428572 c 1.0324393,0 1.857143,0.8247038 1.857143,1.8571429 0,1.0324389 -0.8247037,1.857143 -1.857143,1.857143 -1.0324382,0 -1.8571428,-0.8247041 -1.8571428,-1.857143 C 6.1428572,6.967561 6.9675618,6.1428572 8,6.1428572 Z"
     id="path959" />
  <path
     style="color:#000000;fill:#241f31;stroke-linecap:round;stroke-linejoin:round;-inkscape-stroke:none"
     d="m 7.7480469,0.06835937 -6.5,3.80078123 C 1.0945283,3.9587122 1.0000941,4.1230426 1,4.3007812 v 7.4240238 c -2.084e-4,0.168236 0.084196,0.3253 0.2246094,0.417969 l 6.5,3.775195 c 0.1670507,0.110222 0.3837305,0.110222 0.5507812,0 L 14.775391,12.142774 C 14.915805,12.050105 15.000208,11.893041 15,11.724805 V 4.3007812 c -9.4e-5,-0.1777386 -0.09453,-0.342069 -0.248047,-0.4316406 L 8.2519531,0.06835937 c -0.1556927,-0.09081818 -0.3482135,-0.09081818 -0.5039062,0 z M 8,1.0800781 14,4.5859375 V 11.457227 L 8,14.900391 2,11.457227 V 4.5878906 Z"
     id="path938" />
</svg>
