<svg xmlns="http://www.w3.org/2000/svg" xmlns:svg="http://www.w3.org/2000/svg" id="svg2" width="16" height="16" fill="currentColor" class="bi bi-nut" version="1.1" viewBox="0 0 16 16"><path id="path1" fill-rule="evenodd" d="M 11.486669,1.9999999 H 4.5143502 L 1.0200356,8.0000002 4.5143502,14 H 11.486669 L 14.980984,8.0000002 Z M 4.5143502,1 A 1.019345,1 0 0 0 3.6295588,1.504 L 0.13422478,7.5040001 a 1.019345,1 0 0 0 0,0.992 L 3.6295588,14.496 A 1.019345,1 0 0 0 4.5143502,15 h 6.9723188 a 1.019345,1 0 0 0 0.884792,-0.504 l 3.494315,-5.9999999 a 1.019345,1 0 0 0 0,-0.992 L 12.371461,1.504 A 1.019345,1 0 0 0 11.486669,1 Z" style="stroke-width:1;stroke-dasharray:none;fill:#000;fill-opacity:1;stroke:none;stroke-opacity:1"/><path style="color:#000;fill:#000;stroke-linecap:round;stroke-linejoin:round;-inkscape-stroke:none" id="path2" d="M 8,4 C 5.7967855,4 4,5.7967855 4,8 c 0,2.203214 1.7967855,4 4,4 2.203214,0 4,-1.796786 4,-4 C 12,5.7967855 10.203214,4 8,4 Z m 0,1 c 1.6627749,0 3,1.3372251 3,3 0,1.6627749 -1.3372251,3 -3,3 C 6.3372251,11 5,9.6627749 5,8 5,6.3372251 6.3372251,5 8,5 Z"/></svg>