<?xml version="1.0" encoding="UTF-8" standalone="no"?>
<svg
   height="16px"
   viewBox="0 0 16 16"
   width="16px"
   version="1.1"
   id="svg4"
   xmlns="http://www.w3.org/2000/svg"
   xmlns:svg="http://www.w3.org/2000/svg">
  <defs
     id="defs8" />
  <path
     id="path935"
     style="fill:#241f31;stroke:#241f31;stroke-width:0.999992;stroke-miterlimit:4;stroke-dasharray:none;stroke-opacity:1"
     d="m 10.90272,6.5000706 c -0.03711,-9.663e-4 -0.07567,0.0084 -0.115731,0.025786 -0.263898,0.1144859 -0.364885,0.6575696 -0.185653,0.9996706 0.169411,0.3233593 0.163634,0.6227713 -0.01808,0.9838028 -0.163232,0.3243047 -0.06805,0.8312335 0.179625,0.956034 0.09648,0.048616 0.211569,0.036318 0.294151,-0.031735 0.08566,-0.070593 0.245287,-0.3799566 0.317056,-0.6148766 C 11.582476,8.1366359 11.516607,7.3292283 11.207722,6.7638726 11.112742,6.5900302 11.01405,6.5029692 10.90272,6.5000706 Z" />
  <path
     id="path1183"
     style="fill:#241f31;stroke:#241f31;stroke-width:1;stroke-miterlimit:4;stroke-dasharray:none;stroke-opacity:1"
     d="m 14.000165,4.5027046 c -0.150182,0.015961 -0.292919,0.1069851 -0.373876,0.256442 -0.165364,0.3052861 -0.140926,0.5950567 0.07478,0.9039578 0.32722,0.4686029 0.55102,0.9869056 0.663005,1.5322409 0.05211,0.2538181 0.06143,0.3804882 0.05982,0.8035182 -0.0016,0.4276643 -0.01222,0.5515696 -0.06979,0.8227513 -0.117841,0.5550364 -0.321392,1.0274453 -0.6115,1.4232522 C 13.554297,10.501779 13.5,10.636146 13.5,10.847506 c -10e-7,0.264644 0.100912,0.47423 0.287468,0.598364 0.113987,0.07585 0.346122,0.07108 0.480223,-0.01072 0.196015,-0.119498 0.596984,-0.755097 0.817542,-1.295032 C 15.733582,8.5529734 15.612166,6.638324 14.771179,5.1993719 14.581594,4.874986 14.387399,4.6274327 14.267693,4.558267 14.18408,4.5099554 14.090274,4.4931277 14.000165,4.5027046 Z" />
  <path
     id="path1179"
     style="fill:#241f31;stroke:#241f31;stroke-width:0.999999;stroke-miterlimit:4;stroke-dasharray:none;stroke-opacity:1"
     d="M 6.5747678,1.5006708 C 6.139753,1.513219 5.7099129,1.69835 5.3980368,2.0232932 5.3007038,2.1247035 4.8625277,2.6874674 4.4253951,3.2716622 3.9882623,3.8558572 3.5696671,4.4060695 3.4950421,4.4946409 3.2395195,4.79792 3.0345091,4.8918744 2.5646892,4.9262804 2.0098022,4.9669161 1.5802292,5.181166 1.1691597,5.6224048 0.86725267,5.9464694 0.65180989,6.3676633 0.54402142,6.8411516 c -0.0586952,0.2578338 -0.0586952,2.2600633 0,2.517897 0.20880734,0.9172374 0.83522998,1.6284234 1.64006878,1.8598584 0.066437,0.0191 0.2765239,0.0481 0.4670151,0.0656 0.287074,0.02637 0.3777579,0.04998 0.5276903,0.131184 0.099489,0.05388 0.2164172,0.132867 0.2592487,0.175618 0.042829,0.04275 0.4131019,0.495989 0.821873,1.007159 1.3007194,1.626559 1.3873748,1.706654 1.9875722,1.857742 0.3877765,0.09762 0.8118002,0.03212 1.2190197,-0.188313 0.4840616,-0.262035 0.8768429,-0.83162 0.9891895,-1.436686 0.036638,-0.197576 0.044128,-0.921379 0.044128,-4.8305532 0,-5.1311265 0.010828,-4.8376323 -0.2096053,-5.3447126 C 8.0507309,2.105024 7.5660527,1.6864486 7.0068487,1.5472202 6.8646378,1.5118129 6.7197727,1.496488 6.5747678,1.5006708 Z m -0.00552,1.3287726 c 0.2735934,-0.019318 0.5499719,0.1431972 0.6784625,0.4337553 l 0.073546,0.1692704 v 4.5681847 4.5681852 l -0.073546,0.16927 c -0.083643,0.189143 -0.217684,0.318627 -0.400824,0.391438 -0.067097,0.02668 -0.1758803,0.04807 -0.2427008,0.04655 C 6.3178463,13.169922 6.2700585,13.124325 5.2343976,11.83886 4.7031094,11.179422 4.1970458,10.57723 4.1091486,10.501624 3.7417469,10.185623 3.3073687,10.0112 2.7651011,9.9620745 2.2415261,9.9146484 1.9651244,9.7287025 1.7777503,9.2998041 L 1.6803022,9.0797526 V 8.1001002 7.1204478 L 1.7593642,6.9342503 C 1.8672407,6.6749953 2.0231204,6.4923446 2.2410882,6.3714264 2.3969976,6.2849349 2.4799509,6.2631231 2.755908,6.2381259 2.9366914,6.2217494 3.1669472,6.186332 3.2670504,6.1577224 3.5378214,6.0803358 3.9056554,5.862754 4.127535,5.6499112 4.237083,5.5448249 4.7367237,4.912268 5.2564614,4.2195764 5.9323243,3.3188052 6.2201021,2.9574278 6.3026487,2.9098468 6.3878546,2.8607319 6.4780551,2.8358828 6.5692513,2.8294434 Z" />
</svg>
