<?xml version="1.0" encoding="UTF-8" standalone="no"?>
<svg
   height="16px"
   viewBox="0 0 16 16"
   width="16px"
   version="1.1"
   id="svg14"
   xmlns="http://www.w3.org/2000/svg"
   xmlns:svg="http://www.w3.org/2000/svg">
  <defs
     id="defs18" />
  <path
     id="path4953"
     style="color:#000000;fill:#241f31;stroke-width:1;-inkscape-stroke:none"
     d="M 8,0 C 5,0 2.0167231,3.0000393 1.9999999,6.9999999 V 11 12 H 3 V 11 6.9999999 C 3,3 6,1 8,1 c 2,0 5,2.6153878 5,5.9999999 V 11 12 h 1 V 11 6.9999999 C 14,3.0000042 11,0 8,0 Z" />
  <path
     id="rect847"
     style="fill:#241f31;stroke-width:1;stroke-linecap:round;stroke-linejoin:round;stroke-opacity:0.0901961;stop-color:#000000"
     d="m 2,11 h 12 c 0.646333,0 1,0.318154 1,1 0,0.681846 -0.353667,1 -1,1 H 2 C 1.3536666,13 1,12.681846 1,12 1,11.318154 1.3536666,11 2,11 Z" />
  <circle
     style="fill:#241f31;stroke-linecap:round;stroke-linejoin:round;stroke-opacity:0.0901961;stop-color:#000000"
     id="path1618"
     cx="8"
     cy="15"
     r="1" />
</svg>
