<?xml version="1.0" encoding="UTF-8" standalone="no"?>
<!-- Created with Inkscape (http://www.inkscape.org/) -->

<svg
   width="16"
   height="16"
   viewBox="0 0 4.2333332 4.2333335"
   version="1.1"
   id="svg5"
   xmlns="http://www.w3.org/2000/svg"
   xmlns:svg="http://www.w3.org/2000/svg">
  <defs
     id="defs2" />
  <g
     id="layer1">
    <path
       style="color:#000000;fill:#241f31;stroke-width:0.999997;stroke-linejoin:round;-inkscape-stroke:none"
       d="m 3.5008446,3.2295365 a 0.19244765,0.19244724 0 0 0 -0.269892,0.00142 0.19244765,0.19244724 0 0 0 -0.00142,0.2698914 L 3.9071054,4.1784158 A 0.19244765,0.19244724 0 0 0 4.091766,4.2267126 0.19244765,0.19244724 0 0 0 4.2267121,4.0917669 0.19244765,0.19244724 0 0 0 4.1784153,3.9071043 Z"
       id="path1050" />
    <path
       style="color:#000000;fill:#241f31;stroke-linecap:round;stroke-linejoin:round;-inkscape-stroke:none"
       d="M 1.984375,0 C 0.89156992,0 0,0.89156992 0,1.984375 0,3.0771801 0.89156992,3.96875 1.984375,3.96875 3.0771801,3.96875 3.96875,3.0771801 3.96875,1.984375 3.96875,0.89156992 3.0771801,0 1.984375,0 Z m 0,0.52929687 c 0.8068223,0 1.4550781,0.64825583 1.4550781,1.45507813 0,0.8068223 -0.6482558,1.4550781 -1.4550781,1.4550781 -0.8068223,0 -1.45507813,-0.6482558 -1.45507813,-1.4550781 0,-0.8068223 0.64825583,-1.45507813 1.45507813,-1.45507813 z"
       id="path926" />
  </g>
</svg>
