<?xml version="1.0" encoding="UTF-8" standalone="no"?>
<svg
   height="16px"
   viewBox="0 0 16 16"
   width="16px"
   version="1.1"
   id="svg4"
   xmlns="http://www.w3.org/2000/svg"
   xmlns:svg="http://www.w3.org/2000/svg">
  <defs
     id="defs8" />
  <path
     style="color:#000000;fill:#241f31;fill-opacity:0.5;stroke-linecap:round;stroke-linejoin:round;-inkscape-stroke:none"
     d="M 8,2 C 4.6981394,2 2,4.6981394 2,8 c 0,3.301861 2.6981394,6 6,6 3.301861,0 6,-2.698139 6,-6 C 14,4.6981394 11.301861,2 8,2 Z m 0,2 c 2.220981,0 4,1.7790186 4,4 0,2.220981 -1.779019,4 -4,4 C 5.7790186,12 4,10.220981 4,8 4,5.7790186 5.7790186,4 8,4 Z"
     id="path1371" />
  <path
     id="path947"
     style="fill:#241f31;stroke-width:2;stroke-linecap:round;stroke-linejoin:round;stop-color:#000000"
     d="m 15,2.9999998 a 2,2 0 0 1 -2,2 2,2 0 0 1 -2,-2 2,2 0 0 1 2,-2.00000004 2,2 0 0 1 2,2.00000004 z" />
  <path
     id="path949"
     style="fill:#241f31;stroke-width:2;stroke-linecap:round;stroke-linejoin:round;stop-color:#000000"
     d="m 15,13 a 2,2 0 0 1 -2,2 2,2 0 0 1 -2,-2 2,2 0 0 1 2,-2 2,2 0 0 1 2,2 z" />
  <path
     id="path951"
     style="fill:#241f31;stroke-width:2;stroke-linecap:round;stroke-linejoin:round;stop-color:#000000"
     d="M 5,13 A 2,2 0 0 1 3,15 2,2 0 0 1 1,13 2,2 0 0 1 3,11 2,2 0 0 1 5,13 Z" />
  <path
     id="path951-3"
     style="fill:#241f31;stroke-width:2;stroke-linecap:round;stroke-linejoin:round;stop-color:#000000"
     d="M 5,3 A 2,2 0 0 1 3,5 2,2 0 0 1 1,3 2,2 0 0 1 3,1 2,2 0 0 1 5,3 Z" />
</svg>
