<?xml version="1.0" encoding="UTF-8" standalone="no"?>
<svg
   height="16px"
   viewBox="0 0 16 16"
   width="16px"
   version="1.1"
   id="svg4"
   xmlns="http://www.w3.org/2000/svg"
   xmlns:svg="http://www.w3.org/2000/svg">
  <defs
     id="defs8" />
  <path
     id="path826"
     style="color:#000000;fill:#241f31;stroke-width:0.999992;-inkscape-stroke:none"
     d="M 6.5605469 1 C 5.9933406 1.0163613 5.4422151 1.2556554 5.0371094 1.6777344 C 4.9280454 1.791367 4.8234367 1.9285339 4.6445312 2.1582031 C 4.4656258 2.3878724 4.2458281 2.678058 4.0253906 2.9726562 C 3.8075794 3.2637444 3.5933517 3.5453539 3.4257812 3.765625 C 3.2582107 3.9858961 3.1186982 4.1654455 3.1132812 4.171875 C 2.9098827 4.4132881 2.9416027 4.3973972 2.5273438 4.4277344 C 1.863528 4.4763472 1.2772023 4.7719598 0.80273438 5.28125 C 0.43440678 5.6766099 0.18219131 6.1789554 0.056640625 6.7304688 C 0.010878105 6.9314925 0.01931037 7.0551046 0.01171875 7.2910156 C 0.00412713 7.5269266 0 7.8127733 0 8.0996094 C 0 8.3864454 0.00412713 8.6742452 0.01171875 8.9101562 C 0.01931037 9.1460672 0.010878065 9.2696794 0.056640625 9.4707031 C 0.30107257 10.54443 1.0468036 11.411644 2.046875 11.699219 C 2.2531537 11.758519 2.398217 11.764163 2.6054688 11.783203 C 2.8750224 11.807963 2.830025 11.795139 2.9414062 11.855469 C 2.9892638 11.881389 3.0791721 11.954321 3.0957031 11.962891 C 3.1102751 11.979236 3.126105 11.995879 3.1425781 12.015625 C 3.1877941 12.069825 3.2504216 12.145925 3.3242188 12.236328 C 3.4718131 12.417134 3.6657275 12.655787 3.8691406 12.910156 C 4.520382 13.724538 4.8650243 14.154988 5.1757812 14.445312 C 5.4865384 14.735636 5.8101426 14.862147 6.125 14.941406 C 6.6478009 15.073018 7.2065396 14.976896 7.7050781 14.707031 C 8.3563195 14.354498 8.807015 13.677224 8.9472656 12.921875 C 8.9844286 12.721469 8.9856955 12.511062 8.9921875 11.8125 C 8.998679 11.113944 9 9.9549045 9 8 C 9 5.434791 9.0024522 4.2321134 8.9765625 3.5742188 C 8.9506728 2.9163239 8.8453958 2.6809708 8.7480469 2.4570312 C 8.4471422 1.7648336 7.8484127 1.2421262 7.1269531 1.0625 C 6.940316 1.0160316 6.7503301 0.99452553 6.5605469 1 z M 6.6035156 3.328125 C 6.6569806 3.324345 6.7418928 3.353762 6.7910156 3.4648438 L 6.8203125 3.5371094 L 6.8203125 8 L 6.8203125 12.464844 L 6.7890625 12.539062 C 6.7528765 12.619642 6.7323365 12.636143 6.6621094 12.664062 C 6.6821724 12.656063 6.5630994 12.674591 6.6152344 12.675781 C 6.6038353 12.675528 6.6072174 12.6759 6.6015625 12.675781 C 6.5912506 12.667549 6.5769115 12.656315 6.5488281 12.628906 C 6.4189292 12.502198 6.1403317 12.167446 5.6230469 11.525391 C 5.3553938 11.193178 5.0956756 10.875008 4.8886719 10.628906 C 4.78517 10.505855 4.6951827 10.402283 4.6230469 10.320312 C 4.550911 10.23834 4.5264665 10.201253 4.4355469 10.123047 C 3.9893947 9.7393127 3.4348308 9.5213992 2.8105469 9.4648438 C 2.5993568 9.4457138 2.4901283 9.4038749 2.4238281 9.359375 C 2.3575281 9.314875 2.3045195 9.2556991 2.2363281 9.0996094 L 2.2363281 9.0976562 L 2.1796875 8.9746094 L 2.1796875 8.0996094 L 2.1796875 7.2226562 L 2.2207031 7.1289062 L 2.2207031 7.1269531 C 2.2949474 6.948522 2.3647553 6.8749531 2.484375 6.8085938 C 2.6056778 6.7413004 2.5418843 6.75978 2.8007812 6.7363281 C 3.0080822 6.7175495 3.2142419 6.6929898 3.4042969 6.6386719 C 3.7981237 6.5261158 4.1763562 6.2958715 4.4746094 6.0097656 C 4.6170164 5.8731586 4.7228045 5.7269006 4.9296875 5.4648438 C 5.1365705 5.202787 5.3940695 4.8689579 5.65625 4.5195312 C 5.9929995 4.070721 6.2325019 3.7571739 6.3925781 3.5566406 C 6.4726162 3.456374 6.5327234 3.3835903 6.5703125 3.3417969 C 6.5729733 3.3388385 6.5734234 3.3386406 6.5761719 3.3359375 C 6.5842301 3.3330862 6.5905916 3.3290374 6.6035156 3.328125 z M 14.017578 4.0019531 C 13.993739 4.0027038 13.970713 4.0033673 13.947266 4.0058594 C 13.631536 4.0394144 13.345191 4.2303664 13.1875 4.5214844 C 12.949201 4.9614186 13.001424 5.5345103 13.291016 5.9492188 C 13.580422 6.3636694 13.776862 6.8189698 13.875 7.296875 C 13.92288 7.5300955 13.925408 7.5807877 13.923828 7.9960938 C 13.922228 8.4158417 13.918924 8.4656139 13.865234 8.71875 C 13.759716 9.2157446 13.583735 9.6164677 13.339844 9.9492188 C 13.129482 10.236212 13 10.550665 13 10.847656 C 12.999999 11.239406 13.176348 11.639473 13.509766 11.861328 C 13.701109 11.988653 13.868693 12.003535 14.03125 12 C 14.193807 11.9965 14.354484 11.96677 14.527344 11.861328 C 14.679864 11.768348 14.750055 11.678462 14.835938 11.572266 C 14.921817 11.466069 15.005752 11.346127 15.089844 11.212891 C 15.258027 10.946418 15.424411 10.634657 15.548828 10.330078 C 16.258676 8.5923857 16.131028 6.5349336 15.203125 4.9472656 C 15.098764 4.7687011 14.992629 4.6095102 14.886719 4.4746094 C 14.780809 4.3397085 14.699759 4.2302633 14.517578 4.125 C 14.359789 4.0338294 14.184449 3.9966984 14.017578 4.0019531 z M 10.867188 6 C 10.757628 6.0043478 10.664354 6.0332219 10.587891 6.0664062 C 10.212492 6.2292641 10.091459 6.5570901 10.037109 6.8496094 C 9.9827604 7.1421287 10.000199 7.4562261 10.158203 7.7578125 C 10.266565 7.9646458 10.270432 8.0194855 10.136719 8.2851562 C 9.990519 8.5756214 9.974775 8.8744427 10.027344 9.1542969 C 10.079914 9.4341511 10.193309 9.7388727 10.537109 9.9121094 C 10.806546 10.047878 11.139288 10.014555 11.375 9.8203125 C 11.57683 9.653983 11.593549 9.5584736 11.666016 9.4179688 C 11.738486 9.2774638 11.803333 9.1227127 11.851562 8.9648438 C 12.100763 8.1491344 12.037065 7.2383208 11.646484 6.5234375 C 11.580892 6.4033912 11.504868 6.2923964 11.388672 6.1914062 C 11.272475 6.0904162 11.098039 6.0047392 10.916016 6 C 10.899745 5.9995763 10.882839 5.9993789 10.867188 6 z " />
</svg>
