<?xml version="1.0" encoding="UTF-8" standalone="no"?>
<svg
   width="16"
   height="16"
   version="1.1"
   id="svg13"
   xmlns="http://www.w3.org/2000/svg"
   xmlns:svg="http://www.w3.org/2000/svg">
  <defs
     id="defs3">
    <style
       id="current-color-scheme"
       type="text/css">.ColorScheme-Text { color:#363636; }</style>
  </defs>
  <g
     style="fill:#241f31"
     class="ColorScheme-Text"
     id="g11">
    <path
       d="m8 0a8 8 0 0 0-8 8 8 8 0 0 0 8 8 8 8 0 0 0 8-8 8 8 0 0 0-8-8zm0 1a7 7 0 0 1 7 7 7 7 0 0 1-7 7 7 7 0 0 1-7-7 7 7 0 0 1 7-7z"
       id="path5"
       style="fill:#241f31" />
    <rect
       x="8"
       y="2"
       width="1"
       height="7"
       ry=".5"
       id="rect7"
       style="fill:#241f31" />
    <rect
       transform="rotate(90)"
       x="8"
       y="-9"
       width="1"
       height="6"
       ry=".5"
       id="rect9"
       style="fill:#241f31" />
  </g>
</svg>
