<?xml version="1.0" encoding="UTF-8" standalone="no"?>
<svg
   height="16px"
   viewBox="0 0 16 16"
   width="16px"
   version="1.1"
   id="svg14"
   xmlns="http://www.w3.org/2000/svg"
   xmlns:svg="http://www.w3.org/2000/svg">
  <defs
     id="defs18" />
  <path
     id="path1204"
     style="color:#000000;fill:#241f31;-inkscape-stroke:none"
     d="M 8,1 C 4,1 2.0163646,3.9998787 2,7.9140625 V 7.9160156 11.583984 13 H 3.9160156 V 11.583984 L 4,11 V 8 C 4,4 6,3 8,2.9160156 9.2921196,2.9702745 12,4 12,8 c 0,1 -0.02972,2.41033 0,3 l 0.08398,2 H 14 V 11.583984 7.9160156 C 14,4 12,1 8,1 Z" />
  <path
     id="rect847"
     style="fill:#241f31;stroke-width:1;stroke-linecap:round;stroke-linejoin:round;stroke-opacity:0.0901961;stop-color:#000000"
     d="M 1.1428571,11 H 14.857142 c 0.738667,0 1.142857,0.318154 1.142857,1 0,0.681846 -0.40419,1 -1.142857,1 H 1.1428571 C 0.4041903,13 -4e-8,12.681846 -4e-8,12 c 0,-0.681846 0.40419034,-1 1.14285714,-1 z" />
  <circle
     style="fill:#241f31;stroke-linecap:round;stroke-linejoin:round;stroke-opacity:0.0901961;stop-color:#000000"
     id="path1618"
     cx="8"
     cy="15"
     r="1" />
</svg>
