<?xml version="1.0" encoding="UTF-8" standalone="no"?>
<!-- Created with Inkscape (http://www.inkscape.org/) -->

<svg
   width="16"
   height="16"
   viewBox="0 0 16 16"
   version="1.1"
   id="svg5"
   xmlns="http://www.w3.org/2000/svg"
   xmlns:svg="http://www.w3.org/2000/svg">
  <defs
     id="defs2" />
  <path
     id="path847"
     style="fill:#241f31;stroke-width:0.999999"
     d="M 7.4274905,1 C 5.7564478,1.03229 3.8840309,1.2939235 2.6878548,2.399894 1.8895552,3.1835241 1.7208692,4.5172668 2.5301983,5.3371596 3.2299945,5.9937235 4.4860276,5.699014 5.2033011,6.3038979 6.4863068,7.3858694 4.9089986,10.187034 4.3282236,12.101512 4.0062277,13.162945 5.3070921,14.168997 6.4950381,14.545167 9.1937725,15.49414 12.616521,14.952221 14.508895,12.974982 18.279328,7.850905 14.400039,2.354592 8.4488333,1.0646073 8.1149757,1.0005927 7.7679198,1.0011754 7.4274905,1 Z M 5.2556798,2.4273373 C 6.4370607,2.3828856 7.2806228,3.6238614 6.6749467,4.4960496 6.1658068,5.4054284 4.5203833,5.4709874 3.9103677,4.6114677 3.1709001,3.7233692 3.9868661,2.3954649 5.2556798,2.4273373 Z m 8.2287972,4.1708144 c 0.87597,-0.036335 1.423388,0.9689429 0.830263,1.5271454 -0.519354,0.603148 -1.754058,0.3369986 -1.885681,-0.4051922 -0.150357,-0.5575327 0.391402,-1.135347 1.055418,-1.1219532 z M 12.808426,9.396316 c 0.876517,-0.036243 1.423137,0.969344 0.830263,1.527887 -0.519091,0.605362 -1.754804,0.337045 -1.88568,-0.405855 -0.150375,-0.5575599 0.391349,-1.1354237 1.055417,-1.122032 z m -5.3978367,1.866658 c 0.877022,-0.03829 1.4292769,0.966938 0.8341343,1.526373 C 7.7246601,13.396513 6.4874304,13.128341 6.355171,12.38396 6.2050448,11.826755 6.7472075,11.249561 7.4105893,11.262974 Z m 3.2387027,0 c 0.87567,-0.03682 1.430474,0.967627 0.83277,1.526373 -0.519619,0.606834 -1.7553339,0.338928 -1.8861664,-0.405387 -0.1496223,-0.556521 0.3897975,-1.13455 1.0533964,-1.120986 z" />
  <path
     id="path850"
     style="fill:#241f31;stroke-width:1.99999;stroke-linecap:round;stroke-linejoin:round;stop-color:#000000"
     d="M 4,9 A 2,2 0 0 1 2,11 2,2 0 0 1 0,9 2,2 0 0 1 2,7 2,2 0 0 1 4,9 Z" />
</svg>
