<?xml version="1.0" encoding="UTF-8" standalone="no"?>
<!-- Created with Inkscape (http://www.inkscape.org/) -->

<svg
   width="16"
   height="16"
   viewBox="0 0 16 16"
   version="1.1"
   id="svg5"
   xmlns="http://www.w3.org/2000/svg"
   xmlns:svg="http://www.w3.org/2000/svg">
  <defs
     id="defs2" />
  <path
     id="path847"
     style="fill:#241f31;stroke-width:0.999999"
     d="M 6.4274905,1 C 4.7564478,1.03229 2.8840309,1.2939235 1.6878548,2.399894 0.88955524,3.1835241 0.72086918,4.5172668 1.5301983,5.3371596 c 0.6997962,0.6565639 1.8418152,0.5316213 2.6731028,0.9667383 1.1425094,1.2294057 0.060829,4.0293931 -0.8750775,5.7976141 0.063567,1.107376 0.9788685,2.067485 2.1668145,2.443655 2.6987344,0.948973 6.1214829,0.407054 8.0138569,-1.570185 C 17.279328,7.850905 13.400039,2.354592 7.4488333,1.0646073 7.1149757,1.0005927 6.7679198,1.0011754 6.4274905,1 Z M 4.2556798,2.4273373 C 5.4370607,2.3828856 6.2806228,3.6238614 5.6749467,4.4960496 5.1658068,5.4054284 3.5203833,5.4709874 2.9103677,4.6114677 2.1709001,3.7233692 2.9868661,2.3954649 4.2556798,2.4273373 Z m 8.2287972,4.1708144 c 0.87597,-0.036335 1.423388,0.9689429 0.830263,1.5271454 -0.519354,0.603148 -1.754058,0.3369986 -1.885681,-0.4051922 -0.150357,-0.5575327 0.391402,-1.135347 1.055418,-1.1219532 z M 11.808426,9.396316 c 0.876517,-0.036243 1.423137,0.969344 0.830263,1.527887 -0.519091,0.605362 -1.754804,0.337045 -1.88568,-0.405855 -0.150375,-0.5575599 0.391349,-1.1354237 1.055417,-1.122032 z m -5.3978367,1.866658 c 0.877022,-0.03829 1.4292769,0.966938 0.8341343,1.526373 C 6.7246601,13.396513 5.4874304,13.128341 5.355171,12.38396 5.2050448,11.826755 5.7472075,11.249561 6.4105893,11.262974 Z m 3.2387026,0 c 0.8756701,-0.03682 1.4304741,0.967627 0.8327701,1.526373 C 9.9624426,13.396181 8.7267281,13.128275 8.5958956,12.38396 8.4462733,11.827439 8.9856931,11.24941 9.6492919,11.262974 Z" />
  <path
     id="path850"
     style="fill:#241f31;stroke-width:2;stroke-linecap:round;stroke-linejoin:round;stop-color:#000000"
     d="M 3,8.5 A 1,1.5 0 0 1 2,10 1,1.5 0 0 1 1,8.5 1,1.5 0 0 1 2,7 1,1.5 0 0 1 3,8.5 Z" />
</svg>
