<svg xmlns="http://www.w3.org/2000/svg" xmlns:svg="http://www.w3.org/2000/svg" id="svg6" width="16" height="16" version="1.1"><metadata id="metadata12"/><path style="color:#000;fill:#241f31;stroke-width:1;-inkscape-stroke:none" id="path939" d="M 8.0483769,0.99999998 7.7707327,1.1388429 C 5.6524256,2.1921514 4.0767587,2.7118748 3.0423677,2.9690454 2.0079767,3.2262161 1.5594951,3.2214872 1.5594951,3.2214872 H 0.99999999 l 0.0210334,0.5574754 c 0.1815425,4.7144578 1.859115,7.5447704 3.5210334,9.1594274 1.6619185,1.614657 3.340144,2.036363 3.340144,2.036363 L 7.989482,15 8.098857,14.983165 c 3.482554,-0.57722 5.234237,-3.482438 6.070313,-6.1153979 0.836075,-2.6329598 0.830829,-5.1077376 0.830829,-5.1077376 V 3.2214872 h -0.538462 c -2.987552,0 -6.1544462,-2.0489854 -6.1544462,-2.0489854 z M 7.9747591,2.2096166 C 8.32806,2.4410515 10.868905,4.0089418 13.891525,4.218632 13.874637,4.7873882 13.798454,6.4766865 13.142728,8.5416965 12.37629,10.955353 10.9158,13.347019 8.0252399,13.882943 7.8622441,13.839514 6.6712809,13.505455 5.2929684,12.16634 3.8747049,10.788408 2.4203988,8.3641882 2.1547475,4.2018026 2.4260053,4.1788008 2.5681741,4.1973135 3.3031849,4.0145749 4.3569205,3.7525948 5.970132,3.1786062 7.9747591,2.2096166 Z"/><path id="path1426" style="fill:#241f31;fill-opacity:1;stroke:none;stroke-width:3;stroke-linecap:round;stroke-linejoin:round;stop-color:#000" d="M 8,6 C 7.4477153,6 7,6.4477153 7,7 7.000584,7.4298612 7.2758167,7.8112551 7.6835938,7.9472656 L 7,11 H 9 L 8.3164062,7.9472656 C 8.7241833,7.8112551 8.999416,7.4298612 9,7 9,6.4477153 8.5522847,6 8,6 Z"/></svg>