<svg xmlns="http://www.w3.org/2000/svg" xmlns:svg="http://www.w3.org/2000/svg" id="svg13986" width="16" height="16" version="1.1"><metadata id="metadata13991"/><path style="color:#000;fill:#241f31;stroke-linecap:round;stroke-linejoin:round;-inkscape-stroke:none" id="path1219" d="M 8,11 C 3.4359019,11 1.09375,14.207031 1.09375,14.207031 A 0.49999899,0.49999899 0 0 0 1.2070312,14.90625 0.49999899,0.49999899 0 0 0 1.90625,14.792969 C 1.90625,14.792969 3.8974389,12 8,12 c 4.102561,0 6.09375,2.792969 6.09375,2.792969 a 0.49999899,0.49999899 0 0 0 0.699219,0.113281 0.49999899,0.49999899 0 0 0 0.113281,-0.699219 C 14.90625,14.207031 12.564098,11 8,11 Z"/><path style="color:#000;fill:#241f31;stroke-linecap:round;stroke-linejoin:round;-inkscape-stroke:none" id="path1243" d="M 8,2 C 5.7967855,2 4,3.7967855 4,6 4,8.2032145 5.7967855,10 8,10 10.203214,10 12,8.2032145 12,6 12,3.7967855 10.203214,2 8,2 Z M 8,3 C 9.662775,3 11,4.3372251 11,6 11,7.6627749 9.662775,9 8,9 6.3372251,9 5,7.6627749 5,6 5,4.3372251 6.3372251,3 8,3 Z"/></svg>