<?xml version="1.0" encoding="UTF-8" standalone="no"?>
<svg
   height="16px"
   viewBox="0 0 16 16"
   width="16px"
   version="1.1"
   id="svg4"
   xmlns="http://www.w3.org/2000/svg"
   xmlns:svg="http://www.w3.org/2000/svg">
  <defs
     id="defs8" />
  <path
     id="path860"
     style="color:#000000;fill:#241f31;stroke-width:1;stroke-linecap:round;stroke-linejoin:round;-inkscape-stroke:none"
     d="m 1.583328,0.9999999 a 0.5833406,0.58333695 0 0 0 -0.41244,0.1708996 0.5833406,0.58333695 0 0 0 0,0.8248748 L 7.1751946,8.0000433 1.170888,14.004312 a 0.5833406,0.58333695 0 0 0 0,0.824876 0.5833406,0.58333695 0 0 0 0.82488,0 L 8.0000746,8.8249182 14.004381,14.829188 a 0.5833406,0.58333695 0 0 0 0.824881,0 0.5833406,0.58333695 0 0 0 0,-0.824876 L 8.8249546,8.0000433 14.829262,1.9957743 a 0.5833406,0.58333695 0 0 0 0,-0.8248748 0.5833406,0.58333695 0 0 0 -0.824881,0 L 8.0000746,7.1751685 1.995768,1.1708995 A 0.5833406,0.58333695 0 0 0 1.583328,0.9999999 Z" />
</svg>
