<?xml version="1.0" encoding="UTF-8" standalone="no"?>
<svg
   width="16px"
   height="16px"
   version="1.1"
   viewBox="0 0 16 16"
   id="svg6"
   xmlns="http://www.w3.org/2000/svg"
   xmlns:svg="http://www.w3.org/2000/svg">
  <defs
     id="defs10" />
  <path
     d="m8 0a8 8 0 0 0-8 8 8 8 0 0 0 8 8 8 8 0 0 0 8-8 8 8 0 0 0-8-8zm0 1a7 7 0 0 1 7 7 7 7 0 0 1-7 7 7 7 0 0 1-7-7 7 7 0 0 1 7-7z"
     fill="#363636"
     id="path2"
     style="fill:#241f31" />
  <rect
     x="4"
     y="8"
     width="8"
     height="1"
     rx="0.5"
     ry="0.5"
     fill="#363636"
     id="rect4"
     style="stroke-width:0.999997;fill:#241f31" />
</svg>
