<?xml version="1.0" encoding="UTF-8" standalone="no"?>
<svg
   height="16px"
   viewBox="0 0 16 16"
   width="16px"
   version="1.1"
   id="svg4"
   xmlns="http://www.w3.org/2000/svg"
   xmlns:svg="http://www.w3.org/2000/svg">
  <defs
     id="defs8" />
  <g
     id="path1236"
     style="fill:#241f31;stroke-width:1.33577"
     transform="matrix(0.56044757,0,0,1,1,1)">
    <path
       style="color:#000000;fill:#241f31;stroke-width:1.33577px;stroke-linecap:round;stroke-linejoin:round;-inkscape-stroke:none"
       d="M 0.5,7.5 H 15.558824"
       id="path866" />
    <path
       style="color:#000000;fill:#241f31;stroke-width:1.33577;stroke-linecap:round;stroke-linejoin:round;-inkscape-stroke:none"
       d="M 0.69607201,7 C 0.41992964,7 0,7.2238576 0,7.5 0,7.7761424 0.41992964,8 0.69607201,8 H 15.16645 c 0.276142,0 0.892144,-0.2238576 0.892144,-0.5 0,-0.2761424 -0.616002,-0.5 -0.892144,-0.5 z"
       id="path868" />
  </g>
  <g
     id="path1236-3"
     style="fill:#241f31;stroke-width:1.33577"
     transform="matrix(0.56044757,0,0,1,1,5)">
    <path
       style="color:#000000;fill:#241f31;stroke-width:1.33577px;stroke-linecap:round;stroke-linejoin:round;-inkscape-stroke:none"
       d="M 0.5,7.5 H 15.558824"
       id="path866-6" />
    <path
       style="color:#000000;fill:#241f31;stroke-width:1.33577;stroke-linecap:round;stroke-linejoin:round;-inkscape-stroke:none"
       d="M 0.69607201,7 C 0.41992964,7 0,7.2238576 0,7.5 0,7.7761424 0.41992964,8 0.69607201,8 H 15.362522 c 0.276142,0 0.696072,-0.2238576 0.696072,-0.5 0,-0.2761424 -0.616002,-0.5 -0.892144,-0.5 z"
       id="path868-7" />
  </g>
  <g
     id="path1236-3-5"
     style="fill:#241f31;stroke-width:1.33577"
     transform="matrix(0.56044757,0,0,1,1,-3)">
    <path
       style="color:#000000;fill:#241f31;stroke-width:1.33577px;stroke-linecap:round;stroke-linejoin:round;-inkscape-stroke:none"
       d="M 0.5,7.5 H 15.558824"
       id="path866-6-3" />
    <path
       style="color:#000000;fill:#241f31;stroke-width:1.33577;stroke-linecap:round;stroke-linejoin:round;-inkscape-stroke:none"
       d="M 0.69607201,7 C 0.41992964,7 0,7.2238576 0,7.5 0,7.7761424 0.41992964,8 0.69607201,8 H 15.16645 c 0.276142,0 0.892144,-0.2238576 0.892144,-0.5 0,-0.2761424 -0.616002,-0.5 -0.892144,-0.5 z"
       id="path868-7-5" />
  </g>
  <path
     style="color:#000000;fill:#241f31;stroke-linecap:round;stroke-linejoin:round;-inkscape-stroke:none"
     d="M 14.496094,2 A 0.5,0.5 0 0 0 14.144531,2.1484375 L 12.521484,3.796875 11.847656,3.1464844 a 0.5,0.5 0 0 0 -0.707031,0.011719 0.5,0.5 0 0 0 0.01172,0.7070313 l 1.029297,0.9941406 a 0.50005,0.50005 0 0 0 0.703125,-0.00781 l 1.970703,-2 A 0.5,0.5 0 0 0 14.851563,2.1445313 0.5,0.5 0 0 0 14.496094,2 Z"
     id="path935" />
  <path
     style="color:#000000;fill:#241f31;stroke-linecap:round;stroke-linejoin:round;-inkscape-stroke:none"
     d="M 14.326172,5.9140625 A 0.5,0.5 0 0 0 13.972656,6.0644531 L 12.349609,7.7109375 11.675781,7.0605469 a 0.5,0.5 0 0 0 -0.707031,0.011719 0.5,0.5 0 0 0 0.01367,0.7070313 l 1.029297,0.9941406 a 0.50005,0.50005 0 0 0 0.703125,-0.00781 l 1.970703,-2 a 0.5,0.5 0 0 0 -0.0059,-0.7070313 0.5,0.5 0 0 0 -0.353516,-0.1445312 z"
     id="path935-6" />
</svg>
