<svg xmlns="http://www.w3.org/2000/svg" xmlns:svg="http://www.w3.org/2000/svg" id="svg4" width="16" height="16" version="1.1" viewBox="0 0 16 16"><path id="path2" fill="#363636" stroke-width="2.001" d="m 13.0767,1 q 0.70347,0.6961308 1.2428,1.5082982 0.54714,0.8121477 0.92232,1.7093783 Q 15.617,5.1071786 15.80459,6.0662869 16,7.0176666 16,8 16,8.9823136 15.80459,9.9414318 15.617,10.892812 15.24182,11.790042 14.86664,12.679544 14.3195,13.491702 13.78018,14.303849 13.0767,15 l -0.70347,-0.696131 q 0.63312,-0.626514 1.1177,-1.353629 0.49243,-0.734803 0.82853,-1.539172 0.3361,-0.80437 0.50806,-1.6629679 Q 15.0073,8.8818033 15.0073,8.0000297 15.0073,7.118266 14.82752,6.259678 14.65556,5.3933812 14.31946,4.5889918 13.98336,3.7845727 13.49093,3.0575377 13.00632,2.3227346 12.37323,1.6961902 Z m -2.1182,2.0961011 q 0.49243,0.4872926 0.86761,1.0596285 0.383,0.5646371 0.64094,1.191142 0.26576,0.6265147 0.39863,1.2994006 0.14069,0.6729254 0.14069,1.3536289 0,0.6883924 -0.14069,1.3613475 -0.13288,0.6651874 -0.39863,1.2916824 -0.25794,0.626514 -0.64094,1.19886 -0.37518,0.564637 -0.86761,1.05191 l -0.71128,-0.703859 q 0.84416,-0.835353 1.2975,-1.925995 0.46116,-1.0906017 0.46116,-2.2740251 0,-1.1834233 -0.46116,-2.2740253 -0.45335,-1.0906019 -1.2975,-1.9259945 z M 8.8324999,5.1999209 q 0.56277,0.5568987 0.8676099,1.2839633 0.3048402,0.7270647 0.3048402,1.5160169 0,0.7889423 -0.3048402,1.5160168 -0.30484,0.7270651 -0.8676099,1.2839631 l -0.70347,-0.69613 q 0.42208,-0.417677 0.64875,-0.9591088 0.22667,-0.5491701 0.22667,-1.1447312 0,-0.5955809 -0.22667,-1.1370127 -0.22667,-0.5491702 -0.64875,-0.9668466 z M 5.2916997,2.0596285 H 6.0029798 V 13.940372 H 5.2916997 L 2.2901999,10.970186 H 0 V 5.0299132 h 2.2901999 z m -0.2892,1.693941 -2.2901998,2.2663067 H 1.0005001 v 3.9601487 h 1.7117998 l 2.2901999,2.2663071 z" style="fill:#241f31;stroke-linecap:round;stroke-linejoin:round;paint-order:stroke fill markers"/></svg>