<svg xmlns="http://www.w3.org/2000/svg" xmlns:svg="http://www.w3.org/2000/svg" id="svg13986" width="16" height="16" version="1.1"><metadata id="metadata13991"/><path style="color:#000;fill:#241f31;stroke-linecap:round;stroke-linejoin:round;-inkscape-stroke:none" id="path1084" d="M 3,2 C 1.9013541,2 1,2.9013544 1,4 1,5.0986456 1.9013541,6 3,6 4.0986459,6 5,5.0986456 5,4 5,2.9013544 4.0986459,2 3,2 Z M 3,3 C 3.5582084,3 4,3.441793 4,4 4,4.558207 3.5582084,5 3,5 2.4417916,5 2,4.558207 2,4 2,3.441793 2.4417916,3 3,3 Z"/><path style="color:#000;fill:#241f31;stroke-linecap:round;stroke-linejoin:round;-inkscape-stroke:none" id="path1199" d="M 3,7 C 1.9666677,7 1.2093747,7.6167191 0.7402344,8.1796875 0.271094,8.7426559 0.0390625,9.3085938 0.0390625,9.3085938 A 0.5,0.5 0 0 0 0.3085937,9.9609375 0.5,0.5 0 0 0 0.9609375,9.6914063 c 0,0 0.184636,-0.4340632 0.5488281,-0.8710938 C 1.8739578,8.3832819 2.3666673,8 3,8 3.6333327,8 4.1260422,8.3832819 4.4902344,8.8203125 4.8544266,9.2573431 5.0390625,9.6914062 5.0390625,9.6914063 A 0.5,0.5 0 0 0 5.6914062,9.9609375 0.5,0.5 0 0 0 5.9609375,9.3085938 c 0,0 -0.2320315,-0.5659379 -0.7011719,-1.1289063 C 4.7906253,7.6167191 4.0333323,7 3,7 Z"/><path style="color:#000;fill:#241f31;stroke-linecap:round;stroke-linejoin:round;-inkscape-stroke:none" id="path1084-3" d="m 9.953125,4.140625 c -1.6509301,0 -3,1.3490704 -3,3 0,1.6509296 1.3490699,3 3,3 1.65093,0 3,-1.3490704 3,-3 0,-1.6509296 -1.34907,-3 -3,-3 z m 0,1 c 1.110495,0 2,0.8895065 2,2 0,1.1104935 -0.889505,2 -2,2 -1.1104946,0 -2,-0.8895065 -2,-2 0,-1.1104935 0.8895054,-2 2,-2 z"/><path style="color:#000;fill:#241f31;stroke-linecap:round;stroke-linejoin:round;-inkscape-stroke:none" id="path1569" d="M 9.4999844,11 C 5.2499886,11 3.0839688,14.222656 3.0839688,14.222656 A 0.5,0.5 0 0 0 3.2226406,14.916016 0.5,0.5 0 0 0 3.916,14.777344 c 0,0 1.8339881,-2.777344 5.5839844,-2.777344 3.7499956,0 5.5839836,2.777344 5.5839836,2.777344 a 0.5,0.5 0 0 0 0.69336,0.138672 0.5,0.5 0 0 0 0.138672,-0.69336 C 15.916,14.222656 13.74998,11 9.4999844,11 Z"/></svg>