<svg xmlns="http://www.w3.org/2000/svg" xmlns:svg="http://www.w3.org/2000/svg" id="svg8" width="16" height="16" version="1.1"><path style="color:#000;fill:#241f31;stroke-linecap:round;stroke-linejoin:round;-inkscape-stroke:none;fill-opacity:.5" id="path1173" d="M 7.5,3 C 6.1252118,3 5,4.1252119 5,5.5 5,6.8747881 6.1252118,8 7.5,8 8.8747882,8 10,6.8747881 10,5.5 10,4.1252119 8.8747882,3 7.5,3 Z m 0,1 C 8.3343486,4 9,4.6656515 9,5.5 9,6.3343485 8.3343486,7 7.5,7 6.6656514,7 6,6.3343485 6,5.5 6,4.6656515 6.6656514,4 7.5,4 Z"/><path style="color:#000;fill:#241f31;stroke-linecap:round;stroke-linejoin:round;-inkscape-stroke:none;fill-opacity:.2" id="path1173-3" d="M 11.5,10 C 10.125212,10 9,11.125212 9,12.5 9,13.874788 10.125212,15 11.5,15 12.874788,15 14,13.874788 14,12.5 14,11.125212 12.874788,10 11.5,10 Z m 0,1 C 12.334349,11 13,11.665651 13,12.5 13,13.334349 12.334349,14 11.5,14 10.665651,14 10,13.334349 10,12.5 10,11.665651 10.665651,11 11.5,11 Z"/><path style="color:#000;fill:#241f31;stroke-linecap:round;stroke-linejoin:round;-inkscape-stroke:none" id="path1173-3-6" d="m 3.5014663,10 c -1.374788,0 -2.5,1.125212 -2.5,2.5 0,1.374788 1.125212,2.5 2.5,2.5 1.3747877,0 2.4999997,-1.125212 2.4999997,-2.5 0,-1.374788 -1.125212,-2.5 -2.4999997,-2.5 z m 0,1 c 0.8343487,0 1.4999997,0.665651 1.4999997,1.5 0,0.834349 -0.665651,1.5 -1.4999997,1.5 -0.834349,0 -1.5,-0.665651 -1.5,-1.5 0,-0.834349 0.665651,-1.5 1.5,-1.5 z"/></svg>