<svg xmlns="http://www.w3.org/2000/svg" xmlns:svg="http://www.w3.org/2000/svg" id="svg6" width="16" height="16" version="1.1"><metadata id="metadata12"/><path style="color:#000;fill:#241f31;stroke-linecap:round;stroke-linejoin:round;-inkscape-stroke:none" id="path859" d="M 1.5,2 A 0.50005,0.50005 0 0 0 1,2.5 v 9 A 0.50005,0.50005 0 0 0 1.5,12 h 13 A 0.50005,0.50005 0 0 0 15,11.5 v -9 A 0.50005,0.50005 0 0 0 14.5,2 Z M 2,3 h 12 v 8 H 2 Z"/><path style="color:#000;fill:#241f31;stroke-width:.999996;stroke-linecap:round;stroke-linejoin:round;-inkscape-stroke:none" id="path1108" d="M 4.5,15 C 4.2238693,14.999984 4.0000279,14.657789 4,14.5 v -1 C 4,13.342204 4.2238578,13 4.5,13 4.7761422,13 5,13.342204 5,13.5 V 14 h 6 v -0.5 c 0,-0.157796 0.223858,-0.5 0.5,-0.5 0.276142,0 0.5,0.342204 0.5,0.5 v 1 c -2.8e-5,0.157789 -0.223869,0.499984 -0.5,0.5 z"/><path id="path930" style="color:#000;fill:#241f31;stroke-width:1;stroke-linecap:round;stroke-linejoin:round;-inkscape-stroke:none" d="m 7.4000363,4.0000002 c -1.107445,-0.019146 -2.1437697,0.8324564 -2.3509844,1.918386 -0.2870847,1.3577469 0.7083115,2.8867497 2.106766,3.0668993 0.56436,0.1055048 1.0507144,-0.2559397 1.4981436,-0.5414683 0.1390879,0.2464377 0.3771575,0.4166332 0.5658768,0.6244715 0.2852855,0.2754584 0.5516742,0.572378 0.8501367,0.8328841 0.351993,0.2550342 0.905221,-0.00922 0.92728,-0.4435863 0.04727,-0.3562624 -0.272748,-0.565782 -0.484948,-0.79373 C 10.186323,8.346405 9.8766864,8.010617 9.5397707,7.705421 9.7974254,7.1647083 9.9955499,6.4597637 10,5.8602337 9.6976386,4.7712786 8.5139898,4.0019765 7.4000363,4.0000002 Z M 7.4000363,5 C 7.9784447,5.029926 8.5062459,5.3983228 8.8254337,5.8682906 9.0415525,6.1700895 9.0473307,6.5807664 8.8620487,6.8985924 8.5917871,7.3918423 8.1451688,7.8228248 7.594315,7.9764565 7.0709815,8.0926302 6.6130816,7.6936631 6.3305138,7.2974035 6.0364533,6.8936915 5.8692506,6.3292985 6.1397416,5.8682906 6.3861676,5.4060619 6.859731,5.016643 7.4000363,5 Z"/></svg>