<svg xmlns="http://www.w3.org/2000/svg" xmlns:svg="http://www.w3.org/2000/svg" id="svg6" width="16" height="16" version="1.1"><metadata id="metadata12"/><path style="color:#000;fill:#241f31;stroke-linecap:round;stroke-linejoin:round;-inkscape-stroke:none" id="path859" d="M 1.5,4 A 0.50005,0.50005 0 0 0 1,4.5 v 9 A 0.50005,0.50005 0 0 0 1.5,14 h 13 A 0.50005,0.50005 0 0 0 15,13.5 v -9 A 0.50005,0.50005 0 0 0 14.5,4 Z M 2,5 h 12 v 8 H 2 Z"/><path style="color:#000;fill:#241f31;stroke-linecap:round;stroke-linejoin:round;-inkscape-stroke:none" id="path939" d="M 14.146484,1.1464844 5.1464844,10.146484 a 0.5,0.5 0 0 0 0,0.707032 0.5,0.5 0 0 0 0.7070312,0 L 14.853516,1.8535156 a 0.5,0.5 0 0 0 0,-0.7070312 0.5,0.5 0 0 0 -0.707032,0 z"/></svg>