<?xml version="1.0" encoding="UTF-8" standalone="no"?>
<svg
   height="16"
   version="1.1"
   width="16"
   id="svg8"
   xmlns="http://www.w3.org/2000/svg"
   xmlns:svg="http://www.w3.org/2000/svg">
  <defs
     id="defs12" />
  <path
     style="color:#000000;fill:#241f31;stroke-linecap:round;stroke-linejoin:round;-inkscape-stroke:none"
     d="M 7.5,1 C 6.1252118,1 5,2.1252119 5,3.5 5,4.8747881 6.1252118,6 7.5,6 8.8747882,6 10,4.8747881 10,3.5 10,2.1252119 8.8747882,1 7.5,1 Z m 0,1 C 8.3343486,2 9,2.6656515 9,3.5 9,4.3343485 8.3343486,5 7.5,5 6.6656514,5 6,4.3343485 6,3.5 6,2.6656515 6.6656514,2 7.5,2 Z"
     id="path1173" />
  <g
     id="path938"
     style="fill:#241f31">
    <path
       style="color:#000000;fill:#241f31;stroke-width:1px;stroke-linecap:round;stroke-linejoin:round;-inkscape-stroke:none"
       d="M 1.5909091,7.5000001 H 13.409091"
       id="path845" />
    <path
       style="color:#000000;fill:#241f31;stroke-linecap:round;stroke-linejoin:round;-inkscape-stroke:none"
       d="m 1.5917969,7 a 0.5,0.5 0 0 0 -0.5,0.5 0.5,0.5 0 0 0 0.5,0.5 H 13.408203 a 0.5,0.5 0 0 0 0.5,-0.5 0.5,0.5 0 0 0 -0.5,-0.5 z"
       id="path847" />
  </g>
  <g
     id="path940"
     style="fill:#241f31">
    <path
       style="color:#000000;fill:#241f31;stroke-width:1px;stroke-linecap:round;stroke-linejoin:round;-inkscape-stroke:none"
       d="m 5.5,14.5 v -5"
       id="path851" />
    <path
       style="color:#000000;fill:#241f31;stroke-linecap:round;stroke-linejoin:round;-inkscape-stroke:none"
       d="M 5.5,9 A 0.5,0.5 0 0 0 5,9.5 v 5 A 0.5,0.5 0 0 0 5.5,15 0.5,0.5 0 0 0 6,14.5 v -5 A 0.5,0.5 0 0 0 5.5,9 Z"
       id="path853" />
  </g>
  <g
     id="path942"
     style="fill:#241f31">
    <path
       style="color:#000000;fill:#241f31;stroke-width:1px;stroke-linecap:round;stroke-linejoin:round;-inkscape-stroke:none"
       d="m 9.5,14.5 v -5"
       id="path857" />
    <path
       style="color:#000000;fill:#241f31;stroke-linecap:round;stroke-linejoin:round;-inkscape-stroke:none"
       d="M 9.5,9 A 0.5,0.5 0 0 0 9,9.5 v 5 A 0.5,0.5 0 0 0 9.5,15 0.5,0.5 0 0 0 10,14.5 v -5 A 0.5,0.5 0 0 0 9.5,9 Z"
       id="path859" />
  </g>
</svg>
