<?xml version="1.0" encoding="UTF-8" standalone="no"?>
<svg
   height="16"
   width="16"
   version="1.1"
   id="svg6"
   xmlns="http://www.w3.org/2000/svg"
   xmlns:svg="http://www.w3.org/2000/svg"
   xmlns:rdf="http://www.w3.org/1999/02/22-rdf-syntax-ns#"
   xmlns:cc="http://creativecommons.org/ns#"
   xmlns:dc="http://purl.org/dc/elements/1.1/">
  <metadata
     id="metadata12">
    <rdf:RDF>
      <cc:Work
         rdf:about="">
        <dc:format>image/svg+xml</dc:format>
        <dc:type
           rdf:resource="http://purl.org/dc/dcmitype/StillImage" />
      </cc:Work>
    </rdf:RDF>
  </metadata>
  <defs
     id="defs10" />
  <path
     style="color:#000000;fill:#241f31;stroke-linecap:round;stroke-linejoin:round;-inkscape-stroke:none"
     d="M 4.5,6 A 0.50005,0.50005 0 0 0 4.0410156,6.3027344 l -3,6.9999996 a 0.5,0.5 0 0 0 0.2617188,0.65625 0.5,0.5 0 0 0 0.65625,-0.261718 L 4.8300781,7 h 6.3398439 l 2.871094,6.697266 a 0.5,0.5 0 0 0 0.65625,0.261718 0.5,0.5 0 0 0 0.261718,-0.65625 l -3,-6.9999996 A 0.50005,0.50005 0 0 0 11.5,6 Z"
     id="path939" />
  <path
     style="color:#000000;fill:#241f31;stroke-linecap:round;stroke-linejoin:round;-inkscape-stroke:none"
     d="m 6.25,10 c -0.6279746,0 -1.1351293,0.319102 -1.5058594,0.601563 -0.37073,0.28246 -0.6210937,0.568359 -0.6210937,0.568359 a 0.4999975,0.4999975 0 0 0 0.046875,0.707031 0.4999975,0.4999975 0 0 0 0.7070312,-0.04687 c 0,0 0.187137,-0.214102 0.4726563,-0.43164 C 5.6351287,11.180899 6.0029755,11 6.25,11 c 0.2470245,0 0.6148713,0.180899 0.9003906,0.398438 0.2855193,0.217538 0.4726563,0.43164 0.4726563,0.43164 0,0 0.2503637,0.285899 0.6210937,0.56836 C 8.6148707,12.680898 9.1220254,13 9.75,13 c 0.627975,0 1.135129,-0.319102 1.505859,-0.601562 0.37073,-0.282461 0.621094,-0.56836 0.621094,-0.56836 a 0.4999975,0.4999975 0 0 0 -0.04687,-0.707031 0.4999975,0.4999975 0 0 0 -0.707031,0.04687 c 0,0 -0.187137,0.214102 -0.472656,0.431641 C 10.364871,11.819101 9.9970245,12 9.75,12 9.5029755,12 9.1351287,11.819101 8.8496094,11.601563 8.5640901,11.384024 8.3769531,11.169922 8.3769531,11.169922 c 0,0 -0.2503637,-0.285899 -0.6210937,-0.568359 C 7.3851293,10.319102 6.8779746,10 6.25,10 Z"
     id="path1093" />
</svg>
