<?xml version="1.0" encoding="UTF-8" standalone="no"?>
<svg
   height="16"
   width="16"
   version="1.1"
   id="svg6"
   xmlns="http://www.w3.org/2000/svg"
   xmlns:svg="http://www.w3.org/2000/svg"
   xmlns:rdf="http://www.w3.org/1999/02/22-rdf-syntax-ns#"
   xmlns:cc="http://creativecommons.org/ns#"
   xmlns:dc="http://purl.org/dc/elements/1.1/">
  <metadata
     id="metadata12">
    <rdf:RDF>
      <cc:Work
         rdf:about="">
        <dc:format>image/svg+xml</dc:format>
        <dc:type
           rdf:resource="http://purl.org/dc/dcmitype/StillImage" />
      </cc:Work>
    </rdf:RDF>
  </metadata>
  <defs
     id="defs10" />
  <path
     style="color:#000000;fill:#241f31;stroke-width:0.999997;stroke-linecap:round;stroke-linejoin:round;-inkscape-stroke:none"
     d="M 1.4285714,1 C 1.1918877,1.0000332 1.0000237,1.2686429 1,1.6 v 10.8 c 2.37e-5,0.331357 0.1918877,0.599967 0.4285714,0.6 H 12.571429 C 12.808112,12.999967 12.999976,12.731357 13,12.4 V 1.6 C 12.999976,1.2686431 12.808112,1.0000335 12.571429,1 Z M 2,2 H 12 V 12 H 2 Z"
     id="path859" />
  <path
     style="color:#000000;fill:#241f31;stroke-linecap:round;stroke-linejoin:round;-inkscape-stroke:none"
     d="M 14.5,4 A 0.5,0.5 0 0 0 14,4.5 V 14 H 4.5 A 0.5,0.5 0 0 0 4,14.5 0.5,0.5 0 0 0 4.5,15 h 10 A 0.50005,0.50005 0 0 0 15,14.5 V 4.5 A 0.5,0.5 0 0 0 14.5,4 Z"
     id="path1076" />
</svg>
