<svg xmlns="http://www.w3.org/2000/svg" xmlns:svg="http://www.w3.org/2000/svg" id="svg4" width="16" height="16" version="1.1" viewBox="0 0 16 16"><path style="color:#000;fill:#241f31;stroke-linecap:round;stroke-linejoin:round;-inkscape-stroke:none" id="path937" d="M 7.3085937,1.0371094 A 0.50004949,0.50004949 0 0 0 7,1.5 v 6 L 3.8007813,5.0996094 a 0.49999949,0.49999949 0 0 0 -0.7011719,0.099609 0.49999949,0.49999949 0 0 0 0.099609,0.7011719 L 6.2519531,8.1894531 3.234375,10.076172 A 0.49999949,0.49999949 0 0 0 3.0761719,10.765625 0.49999949,0.49999949 0 0 0 3.765625,10.923828 L 7,8.9023438 V 14.5 a 0.50004949,0.50004949 0 0 0 0.8007812,0.400391 l 3.9999998,-3 a 0.50004949,0.50004949 0 0 0 0,-0.800782 L 8.0214844,8.2636719 11.765625,5.9238281 a 0.50004949,0.50004949 0 0 0 0.08789,-0.7773437 l -4.0000004,-4 A 0.50004949,0.50004949 0 0 0 7.3085937,1.0371094 Z M 8,2.7070313 10.701172,5.4082031 8,7.0976562 Z M 8,9.5 10.666016,11.5 8,13.5 Z"/></svg>