<svg xmlns="http://www.w3.org/2000/svg" xmlns:svg="http://www.w3.org/2000/svg" id="svg6" width="16" height="16" version="1.1"><metadata id="metadata12"/><path style="color:#000;fill:#241f31;stroke-linecap:round;stroke-linejoin:round;-inkscape-stroke:none" id="rect925" d="M 5.5,1 C 4.12365,1 3,2.12365 3,3.5 v 9 C 3,13.87635 4.12365,15 5.5,15 h 4 c 1.37635,0 2.5,-1.12365 2.5,-2.5 v -9 C 12,2.12365 10.87635,1 9.5,1 Z m 0,1 h 4 C 10.339648,2 11,2.6603522 11,3.5 v 9 C 11,13.339648 10.339648,14 9.5,14 h -4 C 4.6603522,14 4,13.339648 4,12.5 v -9 C 4,2.6603522 4.6603522,2 5.5,2 Z"/><path style="color:#000;fill:#241f31;stroke-linecap:round;stroke-linejoin:round;-inkscape-stroke:none" id="path1066" d="M 7.5,3 A 0.5,0.5 0 0 0 7,3.5 v 3 A 0.5,0.5 0 0 0 7.5,7 0.5,0.5 0 0 0 8,6.5 v -3 A 0.5,0.5 0 0 0 7.5,3 Z"/></svg>