<svg xmlns="http://www.w3.org/2000/svg" xmlns:svg="http://www.w3.org/2000/svg" id="svg5" width="16" height="16" version="1.1" viewBox="0 0 16 16"><path id="path974" d="M 8 2.5 C 3.0136255 2.5 0.11914062 7.7421875 0.11914062 7.7421875 L 0 7.9550781 L 0.0859375 8.1855469 C 0.0859375 8.1855469 1.6574737 12.270042 6 13.277344 L 6 12.265625 C 2.461124 11.398768 1.2345765 8.3828565 1.0996094 8.0371094 C 1.3379952 7.6352328 3.8396053 3.5 8 3.5 C 10.323971 3.5 12.128965 4.7908577 13.3125 6 L 14.630859 6 C 13.331923 4.4745227 11.060588 2.5 8 2.5 z" style="color:#000;fill:#241f31;fill-opacity:1;stroke-width:1;-inkscape-stroke:none"/><path id="path927" d="M 8 5 C 6.3490697 5 5 6.3490697 5 8 C 5 8.9093015 5.4091998 9.7261601 6.0527344 10.277344 A 5 5 0 0 1 6.3652344 9.15625 C 6.1353362 8.8304792 6 8.4320297 6 8 C 6 6.8895093 6.8895093 6 8 6 C 8.4320297 6 8.8304792 6.1353362 9.15625 6.3652344 A 5 5 0 0 1 10.277344 6.0527344 C 9.7261601 5.4091998 8.9093015 5 8 5 z" style="color:#000;fill:#241f31;stroke-linecap:round;stroke-linejoin:round;-inkscape-stroke:none"/><path style="color:#000;fill:#241f31;stroke-linecap:round;stroke-linejoin:round;-inkscape-stroke:none" id="path948" d="M 11.5,7 C 10.984321,7 10.554687,7.4296333 10.554688,7.9453125 L 10.611328,7.7167969 9.6289063,9.6289063 7.7167969,10.611328 c -0.093464,0.048 -0.2295762,0.100097 -0.3867188,0.22461 C 7.1729356,10.96045 7,11.223757 7,11.5 c 0,0.515679 0.4296333,0.945312 0.9453125,0.945313 l -0.2285156,-0.05664 1.9121094,0.982422 0.9824217,1.912109 c 0.048,0.09347 0.100097,0.229577 0.22461,0.386719 C 10.96045,15.827064 11.223758,16 11.5,16 c 0.515679,0 0.945312,-0.429632 0.945313,-0.945312 l -0.05664,0.228515 0.982422,-1.912109 1.912109,-0.982422 c 0.09347,-0.048 0.229577,-0.100097 0.386719,-0.224609 C 15.827064,12.03955 16,11.776243 16,11.5 16,10.984321 15.570365,10.554687 15.054688,10.554688 l 0.228515,0.05664 L 13.371094,9.6289063 12.388672,7.7167969 C 12.340676,7.6233316 12.288575,7.4872203 12.164063,7.3300781 12.03955,7.1729359 11.776244,7 11.5,7 Z m 0,1.171875 1.054688,2.056641 a 0.50004851,0.50004851 0 0 0 0.216796,0.216797 L 14.828125,11.5 12.771484,12.554688 a 0.50004851,0.50004851 0 0 0 -0.216796,0.216796 L 11.5,14.828125 10.445313,12.771484 A 0.50004851,0.50004851 0 0 0 10.228516,12.554688 L 8.171875,11.5 10.228516,10.445313 a 0.50004851,0.50004851 0 0 0 0.216797,-0.216797 z"/></svg>