<svg xmlns="http://www.w3.org/2000/svg" xmlns:svg="http://www.w3.org/2000/svg" id="svg12" width="16" height="16" version="1.1"><title id="title2">Gnome Symbolic Icon Theme</title><g id="g10" transform="translate(100 72.989)"><g id="g8" fill="#363636" transform="rotate(90 -82 -75.001)"><rect id="rect4" width="12" height="1" x="-78" y="-63" color="#000" color-rendering="auto" image-rendering="auto" shape-rendering="auto" solid-color="#000000" style="isolation:auto;mix-blend-mode:normal;paint-order:normal"/><path id="path6" d="m3 0.98828c-1.108 0-2 0.892-2 2v10c0 1.108 0.892 2 2 2h10c1.108 0 2-0.892 2-2v-10c0-1.108-0.892-2-2-2zm0 1h10c0.554 0 1 0.446 1 1v10c0 0.554-0.446 1-1 1h-10c-0.554 0-1-0.446-1-1v-10c0-0.554 0.446-1 1-1z" transform="translate(-80,-72.989)"/></g></g></svg>