<?xml version="1.0" encoding="UTF-8" standalone="no"?>
<svg
   height="16px"
   viewBox="0 0 16 16"
   width="16px"
   version="1.1"
   id="svg16"
   sodipodi:docname="sidebar-tree-symbolic.svg"
   inkscape:version="1.3 (0e150ed6c4, 2023-07-21)"
   xmlns:inkscape="http://www.inkscape.org/namespaces/inkscape"
   xmlns:sodipodi="http://sodipodi.sourceforge.net/DTD/sodipodi-0.dtd"
   xmlns="http://www.w3.org/2000/svg"
   xmlns:svg="http://www.w3.org/2000/svg">
  <sodipodi:namedview
     id="namedview1"
     pagecolor="#ffffff"
     bordercolor="#000000"
     borderopacity="0.25"
     inkscape:showpageshadow="2"
     inkscape:pageopacity="0.0"
     inkscape:pagecheckerboard="0"
     inkscape:deskcolor="#d1d1d1"
     inkscape:zoom="50.4375"
     inkscape:cx="7.9900867"
     inkscape:cy="8"
     inkscape:window-width="2560"
     inkscape:window-height="1011"
     inkscape:window-x="0"
     inkscape:window-y="0"
     inkscape:window-maximized="1"
     inkscape:current-layer="svg16" />
  <defs
     id="defs20" />
  <path
     style="color:#000000;fill:#241f31;stroke-linecap:round;stroke-linejoin:round;-inkscape-stroke:none"
     d="M 6.5,8 A 0.5,0.5 0 0 0 6,8.5 0.5,0.5 0 0 0 6.5,9 h 8 A 0.5,0.5 0 0 0 15,8.5 0.5,0.5 0 0 0 14.5,8 Z"
     id="path890" />
  <path
     style="color:#000000;fill:#241f31;stroke-linecap:round;stroke-linejoin:round;-inkscape-stroke:none"
     d="M 2.5,3 A 0.5,0.5 0 0 0 2,3.5 0.5,0.5 0 0 0 2.5,4 h 8 A 0.5,0.5 0 0 0 11,3.5 0.5,0.5 0 0 0 10.5,3 Z"
     id="path892" />
  <path
     style="color:#000000;fill:#241f31;stroke-linecap:round;stroke-linejoin:round;-inkscape-stroke:none"
     d="M 6.5,13 A 0.5,0.5 0 0 0 6,13.5 0.5,0.5 0 0 0 6.5,14 h 8 A 0.5,0.5 0 0 0 15,13.5 0.5,0.5 0 0 0 14.5,13 Z"
     id="path894" />
</svg>
