<svg xmlns="http://www.w3.org/2000/svg" xmlns:svg="http://www.w3.org/2000/svg" id="svg16" width="16" height="16" version="1.1" viewBox="0 0 16 16"><path style="color:#000;fill:#241f31;stroke-linecap:round;stroke-linejoin:round;-inkscape-stroke:none" id="path890" d="M 6.5,8 A 0.5,0.5 0 0 0 6,8.5 0.5,0.5 0 0 0 6.5,9 h 8 A 0.5,0.5 0 0 0 15,8.5 0.5,0.5 0 0 0 14.5,8 Z"/><path style="color:#000;fill:#241f31;stroke-linecap:round;stroke-linejoin:round;-inkscape-stroke:none" id="path892" d="M 2.5,3 A 0.5,0.5 0 0 0 2,3.5 0.5,0.5 0 0 0 2.5,4 h 8 A 0.5,0.5 0 0 0 11,3.5 0.5,0.5 0 0 0 10.5,3 Z"/><path style="color:#000;fill:#241f31;stroke-linecap:round;stroke-linejoin:round;-inkscape-stroke:none" id="path894" d="M 6.5,13 A 0.5,0.5 0 0 0 6,13.5 0.5,0.5 0 0 0 6.5,14 h 8 A 0.5,0.5 0 0 0 15,13.5 0.5,0.5 0 0 0 14.5,13 Z"/></svg>