<svg xmlns="http://www.w3.org/2000/svg" xmlns:svg="http://www.w3.org/2000/svg" id="svg13" width="16" height="16" version="1.1"><defs id="defs3"><style id="current-color-scheme" type="text/css">.ColorScheme-Text{color:#363636}</style></defs><g style="fill:currentColor" id="g11" class="ColorScheme-Text"><path id="path5" d="m8 0a8 8 0 0 0-8 8 8 8 0 0 0 8 8 8 8 0 0 0 8-8 8 8 0 0 0-8-8zm0 1a7 7 0 0 1 7 7 7 7 0 0 1-7 7 7 7 0 0 1-7-7 7 7 0 0 1 7-7z"/><rect id="rect7" width="1" height="7" x="8" y="2" ry=".5"/><rect id="rect9" width="1" height="6" x="8" y="-9" ry=".5" transform="rotate(90)"/></g></svg>