<svg xmlns="http://www.w3.org/2000/svg" xmlns:svg="http://www.w3.org/2000/svg" id="svg4" width="16" height="16" version="1.1" viewBox="0 0 16 16"><path id="path937" d="m 1,9 v 5.5 c 2.76e-5,0.276131 0.2238691,0.499972 0.5,0.5 h 14 c 0.276131,-2.8e-5 0.499972,-0.223869 0.5,-0.5 V 9 h -1 v 5 H 2 V 9 Z" style="color:#000;fill:#241f31;stroke-linecap:round;stroke-linejoin:round;-inkscape-stroke:none"/><path id="path938" d="M 8.4414062,2.0024912 A 0.44733447,0.49303041 89.998957 0 0 8.2480469,2.0591291 0.44733447,0.49303041 89.998957 0 0 8,2.4419228 L 8.0117188,11.304771 4.8535156,8.1467219 A 0.5,0.49997554 0 0 0 4.5,8.0002447 0.5,0.49997554 0 0 0 4.1464844,8.1467219 a 0.5,0.49997554 0 0 0 0,0.7069966 l 4,3.9998045 a 0.50005,0.50002554 0 0 0 0.00195,0.002 0.44733447,0.49303041 89.998957 0 0 0.1445313,0.0957 0.50005,0.50002554 0 0 0 0.015625,0.0098 0.44733447,0.49303041 89.998957 0 0 0.00195,0 0.44733447,0.49303041 89.998957 0 0 0.1386719,0.0293 0.50005,0.50002554 0 0 0 0.054694,0.0097 0.44733447,0.49303041 89.998957 0 0 0.3984376,-0.195303 L 12.853516,8.8537185 a 0.5,0.49997554 0 0 0 0,-0.7069966 0.5,0.49997554 0 0 0 -0.707032,0 L 8.9980469,11.295005 8.9863281,2.4399698 A 0.44733447,0.49303041 89.998957 0 0 8.4414062,2.0024912 Z" style="color:#000;fill:#241f31;fill-opacity:1;stroke:none;stroke-width:.999996;stroke-linecap:round;stroke-linejoin:round;stroke-miterlimit:4;stroke-dasharray:none"/></svg>