<svg xmlns="http://www.w3.org/2000/svg" xmlns:svg="http://www.w3.org/2000/svg" id="svg9" width="16" height="16" version="1.1" viewBox="0 0 16 16"><defs id="defs3"><style id="current-color-scheme" type="text/css"/></defs><path id="path5" fill="#363636" stroke-linecap="round" stroke-linejoin="round" stroke-width="1.441" d="m1 2c-0.554 0-1 0.446-1 1v10c0 0.554 0.446 1 1 1h14c0.554 0 1-0.446 1-1v-10c0-0.554-0.446-1-1-1h-14zm0 1h14v10h-14v-10z" style="paint-order:stroke fill markers;fill:#241f31"/><path style="color:#000;fill:#241f31;stroke-linecap:round;stroke-linejoin:round;-inkscape-stroke:none" id="path940" d="m 10.146484,5.1464844 a 0.5,0.5 0 0 0 0,0.7070312 L 12.792969,8.5 10.146484,11.146484 a 0.5,0.5 0 0 0 0,0.707032 0.5,0.5 0 0 0 0.707032,0 l 3,-3.0000004 a 0.50005,0.50005 0 0 0 0,-0.7070312 l -3,-3 a 0.5,0.5 0 0 0 -0.707032,0 z"/></svg>