<?xml version="1.0" encoding="UTF-8" standalone="no"?>
<svg
   height="16px"
   viewBox="0 0 16 16"
   width="16px"
   version="1.1"
   id="svg4"
   xmlns="http://www.w3.org/2000/svg"
   xmlns:svg="http://www.w3.org/2000/svg">
  <defs
     id="defs8" />
  <path
     id="path847"
     style="color:#000000;fill:#241f31;stroke-linecap:round;stroke-linejoin:round;-inkscape-stroke:none"
     d="M 6 1.2910156 C 3.1113083 2.1534413 1 4.8345245 1 8 C 1 11.860067 4.1399329 15 8 15 C 11.860067 15 15 11.860067 15 8 C 15 4.8345245 12.888692 2.1534413 10 1.2910156 L 10 2.3417969 C 12.332328 3.1637983 14 5.3824671 14 8 C 14 11.319627 11.319627 14 8 14 C 4.6803725 14 2 11.319627 2 8 C 2 5.3824671 3.6676718 3.1637983 6 2.3417969 L 6 1.2910156 z " />
  <path
     style="color:#000000;fill:#241f31;stroke-linejoin:round;-inkscape-stroke:none"
     d="M 8,0.01367188 A 1.0001,1.0001 0 0 0 7,1 V 6 A 1.0001,1.0001 0 0 0 9,6 V 1 A 1.0001,1.0001 0 0 0 8,0.01367188 Z"
     id="path1255" />
</svg>
