<svg xmlns="http://www.w3.org/2000/svg" xmlns:svg="http://www.w3.org/2000/svg" id="svg13986" width="16" height="16" version="1.1"><metadata id="metadata13991"/><path style="color:#000;fill:#241f31;stroke-width:.999993;stroke-linecap:round;stroke-linejoin:round;-inkscape-stroke:none" id="path1219" d="m 6.9987856,10.306916 c -3.9114055,0 -5.9186161,3.206058 -5.9186161,3.206058 a 0.42849622,0.49984722 0 0 0 0.097081,0.699006 0.42849622,0.49984722 0 0 0 0.5992264,-0.113247 c 0,0 1.7064373,-2.79212 5.2223083,-2.79212 3.5158718,0 5.2223088,2.79212 5.2223088,2.79212 a 0.42849622,0.49984722 0 0 0 0.599226,0.113247 0.42849622,0.49984722 0 0 0 0.09708,-0.699006 c 0,0 -2.007211,-3.206058 -5.9186168,-3.206058 z"/><path style="color:#000;fill:#241f31;stroke-width:.999993;stroke-linecap:round;stroke-linejoin:round;-inkscape-stroke:none" id="path1243" d="M 7.0708092,2 C 5.1429963,2 3.570809,3.5721872 3.570809,5.5 3.570809,7.4278126 5.1429963,9 7.0708092,9 8.9986216,9 10.570809,7.4278126 10.570809,5.5 10.570809,3.5721872 8.9986216,2 7.0708092,2 Z m 0,0.875 c 1.4549282,0 2.6250001,1.170072 2.6250001,2.625 0,1.454928 -1.1700719,2.6249999 -2.6250001,2.6249999 C 5.615881,8.1249999 4.445809,6.954928 4.445809,5.5 c 0,-1.454928 1.170072,-2.625 2.6250002,-2.625 z"/><path style="color:#000;fill:#241f31;stroke-linecap:round;stroke-linejoin:round;-inkscape-stroke:none" id="path863" d="m 12.146484,6.1464844 a 0.5,0.5 0 0 0 0,0.7070312 L 13.792969,8.5 12.146484,10.146484 a 0.5,0.5 0 0 0 0,0.707032 0.5,0.5 0 0 0 0.707032,0 l 2,-2.0000004 a 0.50005,0.50005 0 0 0 0,-0.7070312 l -2,-2 a 0.5,0.5 0 0 0 -0.707032,0 z"/></svg>