<svg xmlns="http://www.w3.org/2000/svg" xmlns:svg="http://www.w3.org/2000/svg" id="svg13986" width="16" height="16" version="1.1"><metadata id="metadata13991"/><path id="path1084" d="M 3 2 C 1.9013552 2 1 2.9013555 1 4 C 1 5.0986445 1.9013552 6 3 6 C 4.0986448 6 5 5.0986445 5 4 C 5 2.9013555 4.0986448 2 3 2 z" style="color:#000;fill:#241f31;stroke-linecap:round;stroke-linejoin:round;-inkscape-stroke:none"/><path id="path1199" d="M 2.9999994,7 C 1.9662628,7 1.2086713,7.59677 0.73934751,8.1415269 0.27002359,8.6862837 0.03790065,9.2339152 0.03790065,9.2339152 A 0.50019609,0.48382596 0 0 0 0.3075376,9.8651568 C 0.68975746,10.048187 4.6698514,10.0295 5.5381038,9.9010654 a 0.50019609,0.48382596 0 0 0 0.00195,0 c 0.0014,-2.091e-4 0.00252,-0.00168 0.00391,-0.00189 0.072438,-0.010946 0.1252747,-0.021549 0.1484956,-0.034019 A 0.50019609,0.48382596 0 0 0 5.9620981,9.2339152 c 0,0 -0.2321229,-0.5476315 -0.7014469,-1.0923883 C 4.7913274,7.59677 4.0337359,7 2.9999994,7 Z" style="color:#000;fill:#241f31;stroke-width:.98389;stroke-linecap:round;stroke-linejoin:round;-inkscape-stroke:none"/><path id="path1199-5" d="m 9.7499527,11.000019 c -2.1536024,0 -3.7319054,0.994614 -4.7096564,1.902539 -0.9777508,0.907922 -1.4613368,1.820639 -1.4613368,1.820639 a 1.0420673,0.80637348 0 0 0 0.561739,1.052066 c 0.7962852,0.305048 9.0880855,0.273904 10.8969305,0.05985 a 1.0420673,0.80637348 0 0 0 0.0042,0 c 0.003,-3.48e-4 0.0052,-0.0028 0.0082,-0.0032 0.150911,-0.01824 0.260987,-0.03592 0.309363,-0.05671 a 1.0420673,0.80637348 0 0 0 0.561655,-1.051984 c 0,0 -0.483586,-0.912716 -1.461338,-1.82064 C 13.481904,11.994614 11.9036,11 9.75,11 Z" style="color:#000;fill:#241f31;stroke-width:1.83336;stroke-linecap:round;stroke-linejoin:round;-inkscape-stroke:none"/><path id="path1084-3" d="M 10,4 C 8.3490716,4 7,5.3490721 7,7 c 0,1.6509279 1.3490716,3 3,3 1.650928,0 3,-1.3490721 3,-3 0,-1.6509279 -1.349072,-3 -3,-3 z" style="color:#000;fill:#241f31;stroke-linecap:round;stroke-linejoin:round;-inkscape-stroke:none"/></svg>