<svg xmlns="http://www.w3.org/2000/svg" xmlns:svg="http://www.w3.org/2000/svg" id="svg12" width="16" height="16" version="1.1" viewBox="0 0 16 16"><rect id="rect2" width="7" height="1" x="-11.502" y="6" fill="#363636" stroke-linecap="round" stroke-linejoin="round" stroke-width="1.038" ry=".5" transform="scale(-1,1)" style="paint-order:stroke fill markers;fill:#241f31"/><rect id="rect4" width="4" height="1" x="-2.441" y="7.633" fill="#363636" stroke-linecap="round" stroke-linejoin="round" stroke-width=".784" ry=".5" transform="matrix(-.70711 .70711 .70711 .70711 0 0)" style="paint-order:stroke fill markers;fill:#241f31"/><rect id="rect6" width="7" height="1" x="4.501" y="-10" fill="#363636" stroke-linecap="round" stroke-linejoin="round" stroke-width="1.038" ry=".5" transform="scale(1,-1)" style="paint-order:stroke fill markers;fill:#241f31"/><rect id="rect8" width="4" height="1" x="-2.439" y="-14.997" fill="#363636" stroke-linecap="round" stroke-linejoin="round" stroke-width=".784" ry=".5" transform="matrix(.70711 -.70711 -.70711 -.70711 0 0)" style="paint-order:stroke fill markers;fill:#241f31"/><path id="path10" fill="#363636" d="m8 1a7 7 0 0 0-7 7 7 7 0 0 0 7 7 7 7 0 0 0 7-7 7 7 0 0 0-7-7zm0 1a6 6 0 0 1 6 6 6 6 0 0 1-6 6 6 6 0 0 1-6-6 6 6 0 0 1 6-6z" style="fill:#241f31"/></svg>