<svg xmlns="http://www.w3.org/2000/svg" xmlns:svg="http://www.w3.org/2000/svg" id="svg13986" width="16" height="16" version="1.1"><metadata id="metadata13991"/><path style="color:#000;fill:#241f31;stroke-width:.999993;stroke-linecap:round;stroke-linejoin:round;-inkscape-stroke:none" id="path1219" d="m 8.9999792,10.306916 c 3.9114058,0 5.9186158,3.206058 5.9186158,3.206058 a -0.42849622,0.49984722 0 0 1 -0.09708,0.699006 -0.42849622,0.49984722 0 0 1 -0.599226,-0.113247 c 0,0 -1.706437,-2.79212 -5.2223084,-2.79212 -3.5158718,0 -5.2223088,2.79212 -5.2223088,2.79212 a -0.42849622,0.49984722 0 0 1 -0.599226,0.113247 -0.42849622,0.49984722 0 0 1 -0.09708,-0.699006 c 0,0 2.007211,-3.206058 5.9186168,-3.206058 z"/><path style="color:#000;fill:#241f31;stroke-width:.999993;stroke-linecap:round;stroke-linejoin:round;-inkscape-stroke:none" id="path1243" d="m 8.9279556,2 c 1.9278124,0 3.5000004,1.5721872 3.5000004,3.5 0,1.9278126 -1.572188,3.5 -3.5000004,3.5 C 7.0001432,9 5.4279558,7.4278126 5.4279558,5.5 5.4279558,3.5721872 7.0001432,2 8.9279556,2 Z m 0,0.875 c -1.4549282,0 -2.6250001,1.170072 -2.6250001,2.625 0,1.454928 1.1700719,2.6249999 2.6250001,2.6249999 1.4549284,0 2.6250004,-1.1700719 2.6250004,-2.6249999 0,-1.454928 -1.170072,-2.625 -2.6250004,-2.625 z"/><path style="color:#000;fill:#241f31;stroke-linecap:round;stroke-linejoin:round;-inkscape-stroke:none" id="path863" d="M 3.4980469,6 A 0.5,0.5 0 0 0 3.1445313,6.1464844 l -2.0000001,2 a 0.50005,0.50005 0 0 0 0,0.7070312 l 2.0000001,2.0000004 a 0.5,0.5 0 0 0 0.7070312,0 0.5,0.5 0 0 0 0,-0.707032 L 2.2050781,8.5 3.8515625,6.8535156 a 0.5,0.5 0 0 0 0,-0.7070312 A 0.5,0.5 0 0 0 3.4980469,6 Z"/></svg>