<svg xmlns="http://www.w3.org/2000/svg" xmlns:svg="http://www.w3.org/2000/svg" id="svg13986" width="16" height="16" version="1.1"><metadata id="metadata13991"/><path id="path1084" style="color:#000;fill:#241f31;stroke-linecap:round;stroke-linejoin:round;-inkscape-stroke:none" d="M 3 2 C 1.9013552 2 1 2.9013555 1 4 C 1 5.0986445 1.9013552 6 3 6 C 4.0986448 6 5 5.0986445 5 4 C 5 2.9013555 4.0986448 2 3 2 z"/><path id="path1199" style="color:#000;fill:#241f31;stroke-linecap:round;stroke-linejoin:round;-inkscape-stroke:none" d="M 3 7 C 1.9666687 7 1.2093742 7.6167197 0.74023438 8.1796875 C 0.27109444 8.7426553 0.0390625 9.3085938 0.0390625 9.3085938 A 0.5 0.5 0 0 0 0.30859375 9.9609375 C 0.69066377 10.150086 4.6691974 10.130775 5.5371094 9.9980469 A 0.5 0.5 0 0 0 5.5390625 9.9980469 C 5.5404662 9.9978308 5.5415816 9.9963105 5.5429688 9.9960938 C 5.6153785 9.9847816 5.6681944 9.9738252 5.6914062 9.9609375 A 0.5 0.5 0 0 0 5.9609375 9.3085938 C 5.9609375 9.3085938 5.7289056 8.7426553 5.2597656 8.1796875 C 4.7906258 7.6167197 4.0333313 7 3 7 z"/><path id="path1084-3" style="color:#000;fill:#241f31;stroke-linecap:round;stroke-linejoin:round;-inkscape-stroke:none" d="M 9.953125 4.140625 C 8.3021966 4.140625 6.953125 5.4896971 6.953125 7.140625 C 6.953125 8.7915529 8.3021966 10.140625 9.953125 10.140625 C 11.604053 10.140625 12.953125 8.7915529 12.953125 7.140625 C 12.953125 5.4896971 11.604053 4.140625 9.953125 4.140625 z"/><path id="path1569" style="color:#000;fill:#241f31;stroke-linecap:round;stroke-linejoin:round;-inkscape-stroke:none" d="m 9.5,11 c -4.2499916,0 -6.4160156,3.222656 -6.4160156,3.222656 -0.1473783,0.218297 -0.1028545,0.502904 0.2039918,0.794887 0.7127834,0.920296 9.4997898,1.280888 12.4893648,-0.101527 0.229754,-0.153177 0.291838,-0.463599 0.138672,-0.69336 C 15.916016,14.222656 13.749991,11 9.5,11 Z"/></svg>