<svg xmlns="http://www.w3.org/2000/svg" xmlns:svg="http://www.w3.org/2000/svg" id="svg14" width="16.003" height="16" version="1.1"><g id="g12" fill="#363636" stroke-linecap="round" stroke-linejoin="round" style="fill:#241f31"><path d="m7.9449 0.50003a7.5 7.5 0 0 0-7.4434 7.5 7.5 7.5 0 0 0 7.5 7.5 7.5 7.5 0 0 0 7.5-7.5 7.5 7.5 0 0 0-7.5-7.5 7.5 7.5 0 0 0-0.056641 0zm0.00295 1a6.5 6.5 0 0 1 0.053691 0 6.5 6.5 0 0 1 6.5 6.5 6.5 6.5 0 0 1-6.5 6.5 6.5 6.5 0 0 1-6.5-6.5 6.5 6.5 0 0 1 6.4463-6.5z" style="paint-order:stroke fill markers;fill:#241f31" id="path2"/><rect id="rect4" width="7" height="1" x="4.502" y="6" stroke-width="1.038" ry=".5" style="paint-order:stroke fill markers;fill:#241f31"/><rect id="rect6" width="4" height="1" x="8.875" y="-3.683" stroke-width=".784" ry=".5" transform="rotate(45)" style="paint-order:stroke fill markers;fill:#241f31"/><rect id="rect8" width="7" height="1" x="-11.502" y="-10" stroke-width="1.038" ry=".5" transform="scale(-1)" style="paint-order:stroke fill markers;fill:#241f31"/><rect id="rect10" width="4" height="1" x="-13.755" y="-3.681" stroke-width=".784" ry=".5" transform="rotate(225)" style="paint-order:stroke fill markers;fill:#241f31"/></g></svg>