<svg xmlns="http://www.w3.org/2000/svg" xmlns:svg="http://www.w3.org/2000/svg" id="svg8" width="16" height="16" version="1.1"><g id="g6" fill="#363636" transform="translate(0.50038911,0.498)" style="fill:#241f31"><path id="path2" d="m 1,7.43 c -0.01,0.68 0.088,1.37 0.3,2.043 0.854,2.696 3.366,4.531 6.2,4.531 2.834,0 5.346,-1.835 6.2,-4.531 A 6.47,6.47 0 0 0 11.228,2.217 l -0.572,0.82 c 1.968,1.374 2.812,3.853 2.09,6.135 -0.722,2.282 -2.843,3.832 -5.246,3.832 -2.403,0 -4.524,-1.55 -5.246,-3.832 C 1.532,6.89 2.376,4.411 4.344,3.037 L 3.771,2.217 A 6.477,6.477 0 0 0 1,7.43 Z" style="fill:#241f31"/><path id="path4" d="M 7,1 V 8 H 8 V 1 Z" style="fill:#241f31"/></g></svg>