<?xml version="1.0" encoding="UTF-8" standalone="no"?>
<svg
   height="16px"
   viewBox="0 0 16 16"
   width="16px"
   version="1.1"
   id="svg10"
   xmlns="http://www.w3.org/2000/svg"
   xmlns:svg="http://www.w3.org/2000/svg">
  <defs
     id="defs14" />
  <path
     d="m 4,7 h 8 V 9 H 4 Z m 0,0"
     id="path4"
     style="fill:#241f31" />
  <path
     d="m 9,4 v 8 H 7 V 4 Z m 0,0"
     id="path6"
     style="fill:#241f31" />
  <path
     style="color:#000000;fill:#241f31;stroke-linecap:round;stroke-linejoin:round;-inkscape-stroke:none"
     d="M 8,0 C 3.593571,0 0,3.593571 0,8 c 0,4.406429 3.593571,8 8,8 4.406429,0 8,-3.593571 8,-8 C 16,3.593571 12.406429,0 8,0 Z m 0,2 c 3.32555,0 6,2.6744502 6,6 0,3.32555 -2.67445,6 -6,6 C 4.6744502,14 2,11.32555 2,8 2,4.6744502 4.6744502,2 8,2 Z"
     id="path938" />
</svg>
