<svg xmlns="http://www.w3.org/2000/svg" xmlns:svg="http://www.w3.org/2000/svg" id="svg10" width="16" height="16" version="1.1" viewBox="0 0 16 16"><path id="rect1088" d="M 6.5,4 C 6.223,4 6,4.223 6,4.5 V 9 H 1.5 C 1.223,9 1,9.223 1,9.5 1,9.777 1.223,10 1.5,10 H 6 v 4.5 C 6,14.777 6.223,15 6.5,15 6.777,15 7,14.777 7,14.5 V 10 h 4.5 C 11.777,10 12,9.777 12,9.5 12,9.223 11.777,9 11.5,9 H 7 V 4.5 C 7,4.223 6.777,4 6.5,4 Z" style="fill:#241f31;fill-opacity:1;stroke:none;stroke-width:1;stroke-linecap:round;stroke-linejoin:round;stroke-opacity:1;stop-color:#000"/><path id="rect1238" d="M 14.5,15 C 14.223,15 14,14.777 14,14.5 V 2 H 1.5 C 1.223,2 1,1.777 1,1.5 1,1.223 1.223,1 1.5,1 h 13 C 14.777,1 15,1.223 15,1.5 v 13 c 0,0.277 -0.223,0.5 -0.5,0.5 z" style="fill:#241f31;fill-opacity:1;stroke:none;stroke-width:1;stroke-linecap:round;stroke-linejoin:round;stop-color:#000"/></svg>