<svg xmlns="http://www.w3.org/2000/svg" xmlns:svg="http://www.w3.org/2000/svg" id="svg4" width="16" height="16" version="1.1" viewBox="0 0 16 16"><path id="path860" style="color:#000;fill:#241f31;stroke-linecap:round;stroke-linejoin:round;-inkscape-stroke:none" d="M 7.8808594,1 C 5.6262747,1 3.8728695,1.8806989 2.71875,3.203125 1.5646305,4.5255511 1,6.2659141 1,8 1,9.7340859 1.5646305,11.474449 2.71875,12.796875 3.8728695,14.119301 5.6262747,15 7.8808594,15 8.826313,15 10.555339,15.016057 12.107422,14.304688 13.659505,13.593317 15,12.052289 15,9.3007812 c 10e-7,-0.2761427 -0.223857,-0.5000008 -0.5,-0.5 -0.276143,-8e-7 -0.500001,0.2238573 -0.5,0.5 0,2.4484778 -1.024316,3.5051238 -2.308594,4.0937498 C 10.407129,13.983157 8.826313,14 7.8808594,14 5.8809028,14 4.4458073,13.255692 3.4726562,12.140625 2.4995052,11.025558 2,9.5159046 2,8 2,6.4840954 2.4995052,4.9744418 3.4726562,3.859375 4.4458072,2.7443082 5.8809028,2 7.8808594,2 10.5997,2 12.095366,2.9344386 12.955078,3.84375 13.356421,4.2682476 13.609225,4.6789694 13.769531,5 H 10.45 c -0.276142,0 -0.5,0.2238576 -0.5,0.5 0,0.2761424 0.223858,0.5 0.5,0.5 h 4.05 c 0.0144,-0.00133 0.02874,-0.00329 0.04297,-0.00586 0.01111,-9.316e-4 0.02218,-0.00223 0.0332,-0.00391 0.07028,-0.010442 0.137531,-0.035744 0.197266,-0.074219 0.0073,-0.00566 0.01449,-0.011521 0.02148,-0.017578 0.05969,-0.043355 0.109048,-0.099382 0.144531,-0.1640625 6.53e-4,-6.492e-4 0.0013,-0.0013 0.002,-0.00195 6.57e-4,-0.0013 0.0013,-0.0026 0.002,-0.00391 C 14.980159,5.6579379 14.999578,5.5795944 15,5.5 V 1.3671875 c 10e-7,-0.2761427 -0.223857,-0.50000082 -0.5,-0.5 -0.276143,-8.2e-7 -0.500001,0.2238573 -0.5,0.5 V 3.6230469 C 13.87583,3.4580004 13.839622,3.3233455 13.681641,3.15625 12.650446,2.0655629 10.834741,1 7.8808594,1 Z"/></svg>