<svg xmlns="http://www.w3.org/2000/svg" xmlns:svg="http://www.w3.org/2000/svg" id="svg12" width="16" height="16" enable-background="new" version="1.1"><g id="g10" fill="#363636" style="fill:#241f31"><path id="path2" d="m2 2c-0.554 0-1 0.446-1 1v4c0 0.554 0.446 1 1 1h4c0.554 0 1-0.446 1-1v-4c0-0.554-0.446-1-1-1zm0 1h4v4h-4z" style="fill:#241f31"/><path id="path4" d="m9 2c-0.554 0-1 0.446-1 1v4c0 0.554 0.446 1 1 1h4c0.554 0 1-0.446 1-1v-4c0-0.554-0.446-1-1-1zm0 1h4v4h-4z" style="fill:#241f31"/><path id="path6" d="m2 9c-0.554 0-1 0.446-1 1v4c0 0.554 0.446 1 1 1h4c0.554 0 1-0.446 1-1v-4c0-0.554-0.446-1-1-1zm0 1h4v4h-4z" style="fill:#241f31"/><path id="path8" d="m9 9c-0.554 0-1 0.446-1 1v4c0 0.554 0.446 1 1 1h4c0.554 0 1-0.446 1-1v-4c0-0.554-0.446-1-1-1zm0 1h4v4h-4z" style="fill:#241f31"/></g></svg>