<?xml version="1.0" encoding="UTF-8" standalone="no"?>
<svg
   width="16px"
   height="16px"
   version="1.1"
   viewBox="0 0 16 16"
   id="svg6"
   xmlns="http://www.w3.org/2000/svg"
   xmlns:svg="http://www.w3.org/2000/svg">
  <defs
     id="defs10" />
  <path
     d="m 3,2.0312 c -1.108,0 -2,0.892 -2,2 v 10 c 0,1.108 0.892,2 2,2 h 8 c 1.108,0 2,-0.892 2,-2 v -10 c 0,-1.108 -0.892,-2 -2,-2 z m 0,1 h 8 c 0.554,0 1,0.446 1,1 v 10 c 0,0.554 -0.446,1 -1,1 H 3 c -0.554,0 -1,-0.446 -1,-1 v -10 c 0,-0.554 0.446,-1 1,-1 z"
     fill="#363636"
     id="path2"
     style="fill:#241f31" />
  <path
     id="path4"
     style="fill:#241f31"
     d="m 13,0.03125 c 1.108,0 2,0.892 2,2 v 10 c 0,0.742776 -0.401923,1.387446 -1,1.732422 v -1.732422 -10 V 2 1 H 13 6 3.287109 C 3.63642,0.41962534 4.270519,0.03125 5,0.03125 Z" />
</svg>
