<svg xmlns="http://www.w3.org/2000/svg" xmlns:svg="http://www.w3.org/2000/svg" id="svg20" width="16" height="16" fill="none" version="1.1" viewBox="0 0 16 16"><path style="color:#000;fill:#2d2d2d;stroke-width:1.5;stroke-linecap:square;stroke-linejoin:round;-inkscape-stroke:none" id="rect10" d="M 6,5 C 6,5 5,5 5,6 v 4 c 0,1 1,1 1,1 h 4 c 0,0 1,0 1,-1 V 6 c 0,0 0,-1 -1,-1 z m 0,1 h 4 v 4 H 6 Z"/><path style="color:#000;fill:#2d2d2d;stroke-linecap:round;stroke-linejoin:round;-inkscape-stroke:none;fill-opacity:1" id="path350" d="M 8,1 C 4.1395379,1 1,4.1395379 1,8 c 0,3.860462 3.1395379,7 7,7 3.860462,0 7,-3.139538 7,-7 C 15,4.1395379 11.860462,1 8,1 Z m 0,0.9335937 c 3.356051,0 6.066406,2.7103549 6.066406,6.0664063 0,3.356051 -2.710355,6.066406 -6.066406,6.066406 C 4.6439486,14.066406 1.9335937,11.356051 1.9335937,8 1.9335937,4.6439486 4.6439486,1.9335937 8,1.9335937 Z"/></svg>