<?xml version="1.0" encoding="UTF-8" standalone="no"?>
<!-- Created with Inkscape (http://www.inkscape.org/) -->

<svg
   width="16"
   height="16"
   viewBox="0 0 4.2333332 4.2333335"
   version="1.1"
   id="svg5"
   xmlns="http://www.w3.org/2000/svg"
   xmlns:svg="http://www.w3.org/2000/svg">
  <defs
     id="defs2" />
  <g
     id="g838"
     transform="rotate(90,2.1162109,2.1171875)">
    <path
       style="color:#000000;fill:#241f31;stroke-linecap:round;stroke-linejoin:round;-inkscape-stroke:none"
       d="M 2.1171875,0 C 1.6819458,0 1.3222656,0.35772705 1.3222656,0.79296875 c 0,0.43524165 0.3596802,0.79492185 0.7949219,0.79492185 0.4352417,0 0.7929688,-0.3596802 0.7929688,-0.79492185 C 2.9101563,0.35772705 2.5524292,0 2.1171875,0 Z m 0,0.52929687 c 0.1492589,0 0.2636719,0.11441297 0.2636719,0.26367188 0,0.14925891 -0.114413,0.26562495 -0.2636719,0.26562495 -0.1492589,0 -0.265625,-0.11636604 -0.265625,-0.26562495 0,-0.14925891 0.1163661,-0.26367187 0.265625,-0.26367188 z"
       id="path931" />
    <path
       style="color:#000000;fill:#241f31;stroke-linecap:round;stroke-linejoin:round;-inkscape-stroke:none"
       d="m 2.1171875,2.6464844 c -0.4352417,0 -0.7949219,0.357727 -0.7949219,0.7929687 0,0.4352417 0.3596802,0.7949219 0.7949219,0.7949219 0.4352417,0 0.7929688,-0.3596802 0.7929688,-0.7949219 0,-0.4352417 -0.3577271,-0.7929687 -0.7929688,-0.7929687 z m 0,0.5292969 c 0.1492589,0 0.2636719,0.1144129 0.2636719,0.2636718 0,0.1492589 -0.114413,0.265625 -0.2636719,0.265625 -0.1492589,0 -0.265625,-0.1163661 -0.265625,-0.265625 0,-0.1492589 0.1163661,-0.2636718 0.265625,-0.2636718 z"
       id="path931-3" />
  </g>
</svg>
