<?xml version="1.0" encoding="UTF-8" standalone="no"?>
<svg
   width="16"
   height="16"
   viewBox="0 0 16 16"
   fill="none"
   version="1.1"
   id="svg1"
   sodipodi:docname="view-filter-symbolic.svg"
   inkscape:version="1.3 (0e150ed6c4, 2023-07-21)"
   xmlns:inkscape="http://www.inkscape.org/namespaces/inkscape"
   xmlns:sodipodi="http://sodipodi.sourceforge.net/DTD/sodipodi-0.dtd"
   xmlns="http://www.w3.org/2000/svg"
   xmlns:svg="http://www.w3.org/2000/svg">
  <sodipodi:namedview
     id="namedview1"
     pagecolor="#ffffff"
     bordercolor="#000000"
     borderopacity="0.25"
     inkscape:showpageshadow="2"
     inkscape:pageopacity="0.0"
     inkscape:pagecheckerboard="0"
     inkscape:deskcolor="#d1d1d1"
     showgrid="true"
     inkscape:zoom="31.5"
     inkscape:cx="7.984127"
     inkscape:cy="8.015873"
     inkscape:window-width="2560"
     inkscape:window-height="957"
     inkscape:window-x="0"
     inkscape:window-y="30"
     inkscape:window-maximized="1"
     inkscape:current-layer="g1">
    <inkscape:grid
       id="grid2"
       units="px"
       originx="0"
       originy="0"
       spacingx="1"
       spacingy="1"
       empcolor="#0099e5"
       empopacity="0.30196078"
       color="#0099e5"
       opacity="0.14901961"
       empspacing="5"
       dotted="false"
       gridanglex="30"
       gridanglez="30"
       visible="true" />
  </sodipodi:namedview>
  <g
     clip-path="url(#clip0_4_212)"
     id="g1">
    <path
       style="color:#000000;fill:#000000;stroke:none;stroke-width:1;stroke-linecap:round;stroke-linejoin:round;fill-opacity:1;stroke-dasharray:none"
       d="M 1.4662704,1 C 0.84923033,1.035219 0.9830713,1.7166397 1.2512086,2.0596073 L 6,11 c 0.00629,1.144993 0.020706,2.449847 0.042797,3.594045 0.1235322,0.506176 0.7070142,0.347311 1.0900452,0.372621 0.8202525,-0.0062 1.6417494,0.01242 2.4612091,-0.0095 C 10.100246,14.833663 9.9746941,14.383029 10,14 V 11 C 10.707792,9.4272859 10.02675,11.0053 12,7 12.783488,5.31707 14.224795,3.2537081 14.990356,1.5633348 15.087222,0.99965686 14.454934,0.96391618 14.059039,1 Z M 2.2210002,1.9333333 H 13.766179 L 11.5,6 c -2.9863414,0.036649 0.0034,0.034303 -3,0 -0.6386996,0.1401098 -0.6007373,1.1078549 0,1 H 11 L 9,11 C 8.979327,10.98829 8.99143,13.21946 9,14 H 7 C 6.99174,12.969951 7.029166,12.028826 7,11 6.1845341,9.3799918 5.2651409,7.7281332 4.4272459,6.1180491 Z"
       id="path2"
       sodipodi:nodetypes="cccccccccccccccccccccccc" />
  </g>
  <defs
     id="defs1">
    <clipPath
       id="clip0_4_212">
      <rect
         width="16"
         height="16"
         fill="white"
         id="rect1" />
    </clipPath>
  </defs>
</svg>
