<?xml version="1.0" encoding="UTF-8" standalone="no"?>
<svg
   height="16px"
   width="16px"
   version="1.1"
   id="svg3"
   sodipodi:docname="view-compact-symbolic.svg"
   inkscape:version="1.3 (0e150ed6c4, 2023-07-21)"
   xmlns:inkscape="http://www.inkscape.org/namespaces/inkscape"
   xmlns:sodipodi="http://sodipodi.sourceforge.net/DTD/sodipodi-0.dtd"
   xmlns="http://www.w3.org/2000/svg"
   xmlns:svg="http://www.w3.org/2000/svg">
  <sodipodi:namedview
     id="namedview1"
     pagecolor="#ffffff"
     bordercolor="#000000"
     borderopacity="0.25"
     inkscape:showpageshadow="2"
     inkscape:pageopacity="0.0"
     inkscape:pagecheckerboard="0"
     inkscape:deskcolor="#d1d1d1"
     showgrid="true"
     inkscape:zoom="50.4375"
     inkscape:cx="7.9900867"
     inkscape:cy="8"
     inkscape:window-width="2560"
     inkscape:window-height="1011"
     inkscape:window-x="0"
     inkscape:window-y="0"
     inkscape:window-maximized="1"
     inkscape:current-layer="svg3">
    <inkscape:grid
       id="grid1"
       units="px"
       originx="0"
       originy="0"
       spacingx="1"
       spacingy="1"
       empcolor="#0099e5"
       empopacity="0.30196078"
       color="#0099e5"
       opacity="0.14901961"
       empspacing="5"
       dotted="false"
       gridanglex="30"
       gridanglez="30"
       visible="true" />
  </sodipodi:namedview>
  <defs
     id="defs7" />
  <path
     id="path2"
     d="M 13,2 V 5 H 10 V 2 Z m -1,1 h -1 v 1 h 1 z m 1,3 V 9 H 10 V 6 Z m -1,1 h -1 v 1 h 1 z m 1,3 v 3 h -3 v -3 z m -1,1 h -1 v 1 h 1 z"
     style="fill:#241f31" />
  <path
     id="path2-6"
     d="M 6,2 V 5 H 3 V 2 Z M 5,3 H 4 V 4 H 5 Z M 6,6 V 9 H 3 V 6 Z M 5,7 H 4 v 1 h 1 z m 1,3 v 3 H 3 V 10 Z M 5,11 H 4 v 1 h 1 z"
     style="fill:#241f31" />
</svg>
