<?xml version="1.0" encoding="UTF-8" standalone="no"?>
<!-- Created with Inkscape (http://www.inkscape.org/) -->

<svg
   width="16"
   height="16"
   viewBox="0 0 4.2333332 4.2333335"
   version="1.1"
   id="svg5"
   xmlns="http://www.w3.org/2000/svg"
   xmlns:svg="http://www.w3.org/2000/svg">
  <defs
     id="defs2" />
  <path
     id="path967"
     style="fill:#241f31;stroke-width:0.264583;stroke-linecap:round;stroke-linejoin:round;stroke-opacity:0.5;stop-color:#000000"
     d="M 2.9104168,2.38125 A 0.26458335,0.26458335 0 0 1 2.6458335,2.1166667 0.26458335,0.26458335 0 0 1 2.9104168,1.8520833 0.26458335,0.26458335 0 0 1 3.1750002,2.1166667 0.26458335,0.26458335 0 0 1 2.9104168,2.38125 Z" />
  <path
     id="path969"
     style="fill:#241f31;stroke-width:0.264583;stroke-linecap:round;stroke-linejoin:round;stroke-opacity:0.5;stop-color:#000000"
     d="M 1.3229166,2.3812502 A 0.26458335,0.26458335 0 0 1 1.0583333,2.1166669 0.26458335,0.26458335 0 0 1 1.3229166,1.8520835 0.26458335,0.26458335 0 0 1 1.5875,2.1166669 0.26458335,0.26458335 0 0 1 1.3229166,2.3812502 Z" />
</svg>
