<svg xmlns="http://www.w3.org/2000/svg" xmlns:svg="http://www.w3.org/2000/svg" id="svg4" width="16" height="16" version="1.1" viewBox="0 0 16 16"><path id="path863" style="color:#000;fill:#241f31;stroke-width:1;stroke-linecap:round;stroke-linejoin:round;-inkscape-stroke:none" d="M 9.6306088,6.9933536 A 0.545462,0.5454314 0 0 0 9.9310394,6.8399511 L 13.909077,2.8621369 v 1.9558829 c 0,0.2677631 0.277683,0.5454314 0.545462,0.5454314 0.267778,0 0.545462,-0.2180117 0.545462,-0.4857748 V 1.4857749 C 14.999973,1.2180229 14.781965,1.0000268 14.514198,1 h -3.392092 c -0.267778,3e-7 -0.485802,0.2776686 -0.485802,0.5454314 0,0.2677629 0.218025,0.5454312 0.485802,0.5454314 h 2.015653 L 9.1597212,6.068677 a 0.545462,0.5454314 0 0 0 0,0.7712741 0.545462,0.5454314 0 0 0 0.4708876,0.1534025 z"/><path id="path865" style="color:#000;fill:#241f31;stroke-width:1;stroke-linecap:round;stroke-linejoin:round;-inkscape-stroke:none" d="m 4.8778939,15.000001 c 0.2677781,0 0.4858021,-0.277684 0.4858021,-0.545462 0,-0.267779 -0.218024,-0.545462 -0.4858021,-0.545462 H 2.8622413 L 6.8402787,9.9310394 a 0.545462,0.545462 0 0 0 0,-0.7713182 0.545462,0.545462 0 0 0 -0.7713174,0 L 2.090924,13.137759 v -2.015653 c -2e-7,-0.267778 -0.2776841,-0.485802 -0.545462,-0.485802 -0.2677779,0 -0.5454618,0.218025 -0.545462,0.485802 v 3.392092 c 2.67e-5,0.267767 0.2180351,0.485775 0.4858021,0.485803 z"/></svg>