<?xml version="1.0" encoding="UTF-8" standalone="no"?>
<svg
   height="16px"
   viewBox="0 0 16 16"
   width="16px"
   version="1.1"
   id="svg16"
   xmlns="http://www.w3.org/2000/svg"
   xmlns:svg="http://www.w3.org/2000/svg">
  <defs
     id="defs20" />
  <path
     style="color:#000000;fill:#241f31;stroke-linecap:round;stroke-linejoin:round;-inkscape-stroke:none"
     d="m 8,2 a 1.0001,1.0001 0 0 0 0,2 h 6 A 1.0001,1.0001 0 0 0 14.853516,2.5039063 1.0001,1.0001 0 0 0 14,2 Z"
     id="path872" />
  <path
     style="color:#000000;fill:#241f31;stroke-linecap:round;stroke-linejoin:round;-inkscape-stroke:none"
     d="m 8,7 a 1.0001,1.0001 0 0 0 0,2 h 6 A 1.0001,1.0001 0 0 0 14.853516,7.5039062 1.0001,1.0001 0 0 0 14,7 Z"
     id="path874" />
  <path
     style="color:#000000;fill:#241f31;stroke-linecap:round;stroke-linejoin:round;-inkscape-stroke:none"
     d="m 8,12 a 1.0001,1.0001 0 0 0 0,2 h 6 A 1.0001,1.0001 0 0 0 14.853516,12.503906 1.0001,1.0001 0 0 0 14,12 Z"
     id="path876" />
  <path
     id="path900"
     style="fill:#241f31;stroke-width:2;stroke-linecap:round;stroke-linejoin:round;stop-color:#000000"
     d="M 5,3 A 2,2 0 0 1 3,5 2,2 0 0 1 1,3 2,2 0 0 1 3,1 2,2 0 0 1 5,3 Z" />
  <path
     id="path924"
     style="fill:#241f31;stroke-width:2;stroke-linecap:round;stroke-linejoin:round;stop-color:#000000"
     d="M 5,8 A 2,2 0 0 1 3,10 2,2 0 0 1 1,8 2,2 0 0 1 3,6 2,2 0 0 1 5,8 Z" />
  <path
     id="path926"
     style="fill:#241f31;stroke-width:2;stroke-linecap:round;stroke-linejoin:round;stop-color:#000000"
     d="M 5,13 A 2,2 0 0 1 3,15 2,2 0 0 1 1,13 2,2 0 0 1 3,11 2,2 0 0 1 5,13 Z" />
</svg>
