<?xml version="1.0" encoding="UTF-8" standalone="no"?>
<svg
   width="16"
   height="16"
   viewBox="0 0 16 16"
   fill="none"
   version="1.1"
   id="svg20"
   sodipodi:docname="view-app-grid-symbolic.svg"
   inkscape:version="1.2.2 (b0a8486541, 2022-12-01)"
   xmlns:inkscape="http://www.inkscape.org/namespaces/inkscape"
   xmlns:sodipodi="http://sodipodi.sourceforge.net/DTD/sodipodi-0.dtd"
   xmlns="http://www.w3.org/2000/svg"
   xmlns:svg="http://www.w3.org/2000/svg">
  <sodipodi:namedview
     id="namedview13"
     pagecolor="#ffffff"
     bordercolor="#000000"
     borderopacity="0.25"
     inkscape:showpageshadow="2"
     inkscape:pageopacity="0.0"
     inkscape:pagecheckerboard="0"
     inkscape:deskcolor="#d1d1d1"
     showgrid="true"
     inkscape:zoom="45.25"
     inkscape:cx="8"
     inkscape:cy="8"
     inkscape:window-width="2560"
     inkscape:window-height="998"
     inkscape:window-x="0"
     inkscape:window-y="0"
     inkscape:window-maximized="1"
     inkscape:current-layer="svg20">
    <inkscape:grid
       type="xygrid"
       id="grid296" />
  </sodipodi:namedview>
  <defs
     id="defs24" />
  <path
     style="color:#000000;fill:#2d2d2d;stroke-width:1.5;stroke-linecap:square;stroke-linejoin:round;-inkscape-stroke:none"
     d="M 6,5 C 6,5 5,5 5,6 v 4 c 0,1 1,1 1,1 h 4 c 0,0 1,0 1,-1 V 6 c 0,0 0,-1 -1,-1 z m 0,1 h 4 v 4 H 6 Z"
     id="rect10"
     sodipodi:nodetypes="cssccscccccccc" />
  <path
     style="color:#000000;fill:#2d2d2d;stroke-linecap:round;stroke-linejoin:round;-inkscape-stroke:none;fill-opacity:1"
     d="M 8,1 C 4.1395379,1 1,4.1395379 1,8 c 0,3.860462 3.1395379,7 7,7 3.860462,0 7,-3.139538 7,-7 C 15,4.1395379 11.860462,1 8,1 Z m 0,0.9335937 c 3.356051,0 6.066406,2.7103549 6.066406,6.0664063 0,3.356051 -2.710355,6.066406 -6.066406,6.066406 C 4.6439486,14.066406 1.9335937,11.356051 1.9335937,8 1.9335937,4.6439486 4.6439486,1.9335937 8,1.9335937 Z"
     id="path350" />
</svg>
