<?xml version="1.0" encoding="UTF-8" standalone="no"?>
<svg
   height="16"
   width="16"
   version="1.1"
   id="svg4"
   xmlns="http://www.w3.org/2000/svg"
   xmlns:svg="http://www.w3.org/2000/svg">
  <defs
     id="defs8" />
  <path
     id="path2"
     style="line-height:normal;font-variant-ligatures:normal;font-variant-position:normal;font-variant-caps:normal;font-variant-numeric:normal;font-variant-alternates:normal;font-feature-settings:normal;text-indent:0;text-align:start;text-decoration-line:none;text-decoration-style:solid;text-decoration-color:#000;text-transform:none;text-orientation:mixed;shape-padding:0;isolation:auto;mix-blend-mode:normal;fill:#241f31"
     d="M 4 0 L 4 1 L 12 1 L 12 0 L 4 0 z M 4 3 L 4 4 L 12 4 L 12 3 L 4 3 z M 4 11 L 4 12 L 12 12 L 12 11 L 4 11 z M 4 14 L 4 15 L 12 15 L 12 14 L 4 14 z " />
  <path
     style="color:#000000;fill:#241f31;stroke-linecap:round;stroke-linejoin:round;-inkscape-stroke:none"
     d="M 2.5,5 A 0.50004949,0.50004949 0 0 0 2,5.5 v 4 A 0.50004949,0.50004949 0 0 0 2.5,10 h 11 A 0.50004949,0.50004949 0 0 0 14,9.5 v -4 A 0.50004949,0.50004949 0 0 0 13.5,5 Z M 3,6 H 13 V 9 H 3 Z"
     id="rect972" />
</svg>
