<svg xmlns="http://www.w3.org/2000/svg" xmlns:svg="http://www.w3.org/2000/svg" id="svg4" width="16" height="16" version="1.1" viewBox="0 0 16 16"><path id="path937" style="color:#000;fill:#241f31;stroke-linecap:round;stroke-linejoin:round;-inkscape-stroke:none" d="M 10.65625 1.0175781 A 0.50005 0.50005 0 0 0 10.431641 1.1464844 L 6.1425781 5.4355469 L 4.6386719 3.9316406 A 0.50005 0.50005 0 0 0 3.9316406 3.9316406 L 2.0742188 5.7890625 A 0.50005 0.50005 0 0 0 2.0742188 6.4960938 L 5.4355469 9.8574219 L 1.1464844 14.146484 A 0.5 0.5 0 0 0 1.1464844 14.853516 A 0.5 0.5 0 0 0 1.8535156 14.853516 L 6.1425781 10.564453 L 9.5039062 13.925781 A 0.50005 0.50005 0 0 0 10.210938 13.925781 L 12.068359 12.068359 A 0.50005 0.50005 0 0 0 12.068359 11.361328 L 10.564453 9.8574219 L 14.853516 5.5683594 A 0.50005 0.50005 0 0 0 14.853516 4.8613281 L 11.138672 1.1464844 A 0.50005 0.50005 0 0 0 10.65625 1.0175781 z M 10.785156 2.2070312 L 13.792969 5.2148438 L 9.5039062 9.5039062 A 0.50005 0.50005 0 0 0 9.5039062 10.210938 L 11.007812 11.714844 L 9.8574219 12.865234 L 6.4960938 9.5039062 L 3.1347656 6.1425781 L 4.2851562 4.9921875 L 5.7890625 6.4960938 A 0.50005 0.50005 0 0 0 6.4960938 6.4960938 L 10.785156 2.2070312 z"/></svg>