<?xml version="1.0" encoding="UTF-8" standalone="no"?>
<svg
   height="16px"
   viewBox="0 0 16 16"
   width="16px"
   version="1.1"
   id="svg4"
   xmlns="http://www.w3.org/2000/svg"
   xmlns:svg="http://www.w3.org/2000/svg">
  <defs
     id="defs8" />
  <path
     style="color:#000000;fill:#241f31;stroke-width:1;stroke-linecap:round;stroke-linejoin:round;-inkscape-stroke:none"
     d="M 11.555556,7 C 11.801016,6.9999998 12,6.7454597 12,6.5 12,6.2545403 11.801016,6.0000002 11.555556,6 H 9 V 3.5 C 9,3.2545401 8.7454599,3 8.5,3 8.2545401,3 8,3.1989845 8,3.4444444 V 6.5555556 C 8.0000246,6.8010053 8.1989948,6.9999755 8.4444445,7 Z"
     id="path863" />
  <path
     style="color:#000000;fill:#241f31;stroke-width:1;stroke-linecap:round;stroke-linejoin:round;-inkscape-stroke:none"
     d="M 6.5,12 C 6.7454597,12 6.9999998,11.801016 7,11.555556 V 8.4444445 C 6.9999755,8.1989948 6.8010053,8.0000246 6.5555556,8 H 3.4444444 C 3.1989845,8 3,8.2545401 3,8.5 3,8.7454599 3.1989845,9 3.4444444,9 H 6 v 2.555556 C 6.0000002,11.801016 6.2545403,12 6.5,12 Z"
     id="path865" />
  <path
     style="color:#000000;fill:#241f31;stroke-linecap:round;stroke-linejoin:round;-inkscape-stroke:none"
     d="m 12.646484,1.6464844 -3.9999996,4 a 0.5,0.5 0 0 0 0,0.7070312 0.5,0.5 0 0 0 0.7070312,0 l 4.0000004,-4 a 0.5,0.5 0 0 0 0,-0.7070312 0.5,0.5 0 0 0 -0.707032,0 z"
     id="path856" />
  <path
     style="color:#000000;fill:#241f31;stroke-linecap:round;stroke-linejoin:round;-inkscape-stroke:none"
     d="M 6,8.5 A 0.5,0.5 0 0 0 5.6464844,8.6464844 l -4,3.9999996 a 0.5,0.5 0 0 0 0,0.707032 0.5,0.5 0 0 0 0.7070312,0 l 4,-4.0000004 a 0.5,0.5 0 0 0 0,-0.7070312 A 0.5,0.5 0 0 0 6,8.5 Z"
     id="path858" />
</svg>
