<svg xmlns="http://www.w3.org/2000/svg" xmlns:svg="http://www.w3.org/2000/svg" id="svg16" width="16" height="16" version="1.1"><g id="g4" aria-label="1" style="fill:#241f31" transform="translate(8.9893)"><path id="path2" fill="#363636" stroke-width=".161" d="M 3.1889,6.9956 H 4.01262 V 2.5166 H 3.5171 L 1.8246,3.37893 2.13349,3.96454 3.18889,3.48833 Z" style="fill:#241f31"/></g><g id="g8" aria-label="2" style="fill:#241f31" transform="translate(8.9893)"><path id="path6" fill="#363636" stroke-width=".161" d="M 2.0119,12.983 H 5.0107 V 12.26225 H 3.2153 c 1.1648,-1.0232 1.6474,-1.7504 1.6474,-2.484 0,-0.81085 -0.59848,-1.3257 -1.5123,-1.3257 -0.55987,0 -1.0747,0.18662 -1.4608,0.52126 L 2.1084,9.57229 C 2.46234,9.30844 2.84846,9.17974 3.1831,9.17974 c 0.50839,0 0.82372,0.28959 0.82372,0.72719 0,0.59848 -0.61779,1.2742 -1.9949,2.5033 z" style="fill:#241f31"/></g><rect id="rect10" width="8" height="1" x="-9.825" y="4" rx="0" ry="0" style="fill:#241f31" transform="scale(-1,1)"/><rect id="rect12" width="8" height="1" x="-9.825" y="10" rx="0" ry="0" style="fill:#241f31" transform="scale(-1,1)"/></svg>