<svg xmlns="http://www.w3.org/2000/svg" xmlns:svg="http://www.w3.org/2000/svg" id="svg4" width="16" height="16" version="1.1" viewBox="0 0 16 16"><g id="g2"><path id="path1" d="M 9.5507813,0.05664063 C 9.5292773,0.05590418 9.5077481,0.05655658 9.4863283,0.05859375 9.3540272,0.07180664 9.2324371,0.13717012 9.1484376,0.24023438 8.9738833,0.45387126 9.0053483,0.76851847 9.2187505,0.94335937 L 11.150391,3.000293 H 8.5566406 8.5 c -0.017312,0 -0.033932,2.522e-4 -0.050781,0.00195 -0.00197,1.53e-5 -0.00389,-1.7e-5 -0.00586,0 C 4.8856635,3.0330836 2,5.9354551 2,9.500293 c 0,3.583929 2.9160729,6.5 6.5,6.5 3.583928,0 6.5,-2.916071 6.5,-6.5 0,-0.00512 1.3e-5,-0.010504 0,-0.015625 H 14.9961 C 14.999293,9.457111 15,9.4293333 15,9.4006836 15,9.0682837 14.776998,8.8010742 14.5,8.8010742 c -0.276998,2e-7 -0.5,0.2672095 -0.5,0.5996094 0,0.02865 7.07e-4,0.056427 0.0039,0.083984 H 14 c 1.4e-5,0.00512 0,0.010501 0,0.015625 0,3.0434884 -2.456513,5.5000004 -5.5,5.5000004 -3.0434871,0 -5.5,-2.456512 -5.5,-5.5000004 0,-3.0362006 2.4451314,-5.4882744 5.4785156,-5.5 0.00701,2.888e-4 0.014401,0 0.021484,0 h 0.074219 c 0.1025727,0.0016 0.2057243,0.00682 0.3066406,0.013672 V 4.000293 h 0.625 1.5839848 L 9.2070315,6.1191405 c -0.2097647,0.1782799 -0.2359568,0.4925843 -0.058594,0.703125 0.1782799,0.2097647 0.4925843,0.2359568 0.703125,0.058594 L 12.822266,3.8420899 c 0.2378,-0.2017288 0.234973,-0.5695287 -0.0059,-0.7675781 L 9.8515625,0.16992188 C 9.7665015,0.10008802 9.6607766,0.06026948 9.5507813,0.05664063 Z" style="baseline-shift:baseline;display:inline;overflow:visible;opacity:1;vector-effect:none;fill:#241f31;stroke-width:1;stroke-linecap:round;stroke-linejoin:round;enable-background:accumulate;stop-color:#000;stop-opacity:1"/></g></svg>