<?xml version="1.0" encoding="UTF-8" standalone="no"?>
<svg
   width="16"
   height="16"
   version="1.1"
   id="svg16"
   xmlns="http://www.w3.org/2000/svg"
   xmlns:svg="http://www.w3.org/2000/svg">
  <defs
     id="defs20" />
  <g
     aria-label="1"
     id="g4"
     style="fill:#241f31"
     transform="translate(8.9893)">
    <path
       d="M 3.1889,6.9956 H 4.01262 V 2.5166 H 3.5171 L 1.8246,3.37893 2.13349,3.96454 3.18889,3.48833 Z"
       fill="#363636"
       stroke-width="0.16088"
       id="path2"
       style="fill:#241f31" />
  </g>
  <g
     aria-label="2"
     id="g8"
     style="fill:#241f31"
     transform="translate(8.9893)">
    <path
       d="M 2.0119,12.983 H 5.0107 V 12.26225 H 3.2153 c 1.1648,-1.0232 1.6474,-1.7504 1.6474,-2.484 0,-0.81085 -0.59848,-1.3257 -1.5123,-1.3257 -0.55987,0 -1.0747,0.18662 -1.4608,0.52126 L 2.1084,9.57229 C 2.46234,9.30844 2.84846,9.17974 3.1831,9.17974 c 0.50839,0 0.82372,0.28959 0.82372,0.72719 0,0.59848 -0.61779,1.2742 -1.9949,2.5033 z"
       fill="#363636"
       stroke-width="0.16088"
       id="path6"
       style="fill:#241f31" />
  </g>
  <rect
     x="-9.8246002"
     y="4"
     width="8"
     height="1"
     rx="0"
     ry="0"
     id="rect10"
     style="fill:#241f31"
     transform="scale(-1,1)" />
  <rect
     x="-9.8246002"
     y="10"
     width="8"
     height="1"
     rx="0"
     ry="0"
     id="rect12"
     style="fill:#241f31"
     transform="scale(-1,1)" />
</svg>
