<?xml version="1.0" encoding="UTF-8" standalone="no"?>
<svg
   height="16px"
   viewBox="0 0 16 16"
   width="16px"
   version="1.1"
   id="svg4"
   xmlns="http://www.w3.org/2000/svg"
   xmlns:svg="http://www.w3.org/2000/svg">
  <defs
     id="defs8" />
  <path
     id="path2"
     style="fill:#dc8add"
     d="M 12 11 C 11.445312 11 11 11.445312 11 12 C 11 12.554688 11.445312 13 12 13 C 12.554688 13 13 12.554688 13 12 C 13 11.445312 12.554688 11 12 11 z " />
  <path
     id="path955"
     style="fill:#99c1f1"
     d="M 8 11 C 7.445312 11 7 11.445312 7 12 C 7 12.554688 7.445312 13 8 13 C 8.554688 13 9 12.554688 9 12 C 9 11.445312 8.554688 11 8 11 z " />
  <path
     id="path1197"
     style="fill:#deddda"
     d="M 4 11 C 3.445312 11 3 11.445312 3 12 C 3 12.554688 3.445312 13 4 13 C 4.554688 13 5 12.554688 5 12 C 5 11.445312 4.554688 11 4 11 z " />
  <path
     id="path953"
     style="fill:#99c1f1"
     d="M 12 7 C 11.445312 7 11 7.445312 11 8 C 11 8.554688 11.445312 9 12 9 C 12.554688 9 13 8.554688 13 8 C 13 7.445312 12.554688 7 12 7 z " />
  <path
     id="path951"
     style="fill:#dc8add"
     d="M 8 7 C 7.445312 7 7 7.445312 7 8 C 7 8.554688 7.445312 9 8 9 C 8.554688 9 9 8.554688 9 8 C 9 7.445312 8.554688 7 8 7 z " />
  <path
     id="path1085"
     style="fill:#99c1f1"
     d="M 4 7 C 3.445312 7 3 7.445312 3 8 C 3 8.554688 3.445312 9 4 9 C 4.554688 9 5 8.554688 5 8 C 5 7.445312 4.554688 7 4 7 z " />
  <path
     id="path949"
     style="fill:#deddda"
     d="M 12 3 C 11.445312 3 11 3.445312 11 4 C 11 4.554688 11.445312 5 12 5 C 12.554688 5 13 4.554688 13 4 C 13 3.445312 12.554688 3 12 3 z " />
  <path
     id="path1194"
     style="fill:#99c1f1"
     d="M 8 3 C 7.445312 3 7 3.445312 7 4 C 7 4.554688 7.445312 5 8 5 C 8.554688 5 9 4.554688 9 4 C 9 3.445312 8.554688 3 8 3 z " />
  <path
     id="path947"
     style="fill:#dc8add"
     d="M 4 3 C 3.445312 3 3 3.445312 3 4 C 3 4.554688 3.445312 5 4 5 C 4.554688 5 5 4.554688 5 4 C 5 3.445312 4.554688 3 4 3 z " />
</svg>
