<?xml version="1.0" encoding="UTF-8" standalone="no"?>
<svg
   height="16px"
   width="16px"
   version="1.1"
   id="svg3"
   xmlns="http://www.w3.org/2000/svg"
   xmlns:svg="http://www.w3.org/2000/svg">
  <defs
     id="defs7" />
  <path
     id="path2"
     d="M 11 2 L 11 5 L 14 5 L 14 2 L 11 2 z M 12 3 L 13 3 L 13 4 L 12 4 L 12 3 z M 11 6 L 11 9 L 14 9 L 14 6 L 11 6 z M 12 7 L 13 7 L 13 8 L 12 8 L 12 7 z M 11 10 L 11 13 L 14 13 L 14 10 L 11 10 z M 12 11 L 13 11 L 13 12 L 12 12 L 12 11 z "
     style="fill:#241f31" />
  <path
     style="color:#000000;fill:#241f31;stroke-linecap:round;stroke-linejoin:round;-inkscape-stroke:none"
     d="m 5.6914062,2.0371094 a 0.50005,0.50005 0 0 0 -0.5449218,0.109375 l -3,3 a 0.5,0.5 0 0 0 0,0.7070312 0.5,0.5 0 0 0 0.7070312,0 L 5,3.7070313 V 12.5 A 0.5,0.5 0 0 0 5.5,13 0.5,0.5 0 0 0 6,12.5 V 2.5 A 0.50005,0.50005 0 0 0 5.6914062,2.0371094 Z"
     id="path988" />
</svg>
