<?xml version="1.0" encoding="UTF-8" standalone="no"?>
<svg
   width="16"
   height="16"
   viewBox="0 0 16 16"
   fill="none"
   version="1.1"
   id="svg20"
   xmlns="http://www.w3.org/2000/svg"
   xmlns:svg="http://www.w3.org/2000/svg">
  <defs
     id="defs24" />
  <path
     style="color:#000000;fill:#2d2d2d;stroke-linecap:square;stroke-linejoin:round;-inkscape-stroke:none"
     d="M 2,1 C 1.4546492,1 1,1.4546492 1,2 V 4 C 1,4.5453508 1.4546492,5 2,5 H 4 C 4.5453508,5 5,4.5453508 5,4 V 2 C 5,1.4546492 4.5453508,1 4,1 Z M 2,2 H 4 V 4 H 2 Z"
     id="rect2" />
  <path
     style="color:#000000;fill:#2d2d2d;stroke-linecap:square;stroke-linejoin:round;-inkscape-stroke:none"
     d="M 7,1 C 6.4546492,1 6,1.4546492 6,2 V 4 C 6,4.5453508 6.4546492,5 7,5 H 9 C 9.5453508,5 10,4.5453508 10,4 V 2 C 10,1.4546492 9.5453508,1 9,1 Z M 7,2 H 9 V 4 H 7 Z"
     id="rect4" />
  <path
     style="color:#000000;fill:#2d2d2d;stroke-linecap:square;stroke-linejoin:round;-inkscape-stroke:none"
     d="m 12,1 c -0.545351,0 -1,0.4546492 -1,1 v 2 c 0,0.5453508 0.454649,1 1,1 h 2 c 0.545351,0 1,-0.4546492 1,-1 V 2 C 15,1.4546492 14.545351,1 14,1 Z m 0,1 h 2 v 2 h -2 z"
     id="rect6" />
  <path
     style="color:#000000;fill:#2d2d2d;stroke-linecap:square;stroke-linejoin:round;-inkscape-stroke:none"
     d="M 2,6 C 1.4546492,6 1,6.4546492 1,7 v 2 c 0,0.5453508 0.4546492,1 1,1 H 4 C 4.5453508,10 5,9.5453508 5,9 V 7 C 5,6.4546492 4.5453508,6 4,6 Z M 2,7 H 4 V 9 H 2 Z"
     id="rect8" />
  <path
     style="color:#000000;fill:#2d2d2d;stroke-linecap:square;stroke-linejoin:round;-inkscape-stroke:none"
     d="M 7,6 C 6.4546492,6 6,6.4546492 6,7 v 2 c 0,0.5453508 0.4546492,1 1,1 h 2 c 0.5453508,0 1,-0.4546492 1,-1 V 7 C 10,6.4546492 9.5453508,6 9,6 Z M 7,7 H 9 V 9 H 7 Z"
     id="rect10" />
  <path
     style="color:#000000;fill:#2d2d2d;stroke-linecap:square;stroke-linejoin:round;-inkscape-stroke:none"
     d="m 12,6 c -0.545351,0 -1,0.4546492 -1,1 v 2 c 0,0.5453508 0.454649,1 1,1 h 2 c 0.545351,0 1,-0.4546492 1,-1 V 7 C 15,6.4546492 14.545351,6 14,6 Z m 0,1 h 2 v 2 h -2 z"
     id="rect12" />
  <path
     style="color:#000000;fill:#2d2d2d;stroke-linecap:square;stroke-linejoin:round;-inkscape-stroke:none"
     d="m 2,11 c -0.5453508,0 -1,0.454649 -1,1 v 2 c 0,0.545351 0.4546492,1 1,1 h 2 c 0.5453508,0 1,-0.454649 1,-1 V 12 C 5,11.454649 4.5453508,11 4,11 Z m 0,1 h 2 v 2 H 2 Z"
     id="rect14" />
  <path
     style="color:#000000;fill:#2d2d2d;stroke-linecap:square;stroke-linejoin:round;-inkscape-stroke:none"
     d="m 7,11 c -0.5453508,0 -1,0.454649 -1,1 v 2 c 0,0.545351 0.4546492,1 1,1 h 2 c 0.5453508,0 1,-0.454649 1,-1 V 12 C 10,11.454649 9.5453508,11 9,11 Z m 0,1 h 2 v 2 H 7 Z"
     id="rect16" />
  <path
     style="color:#000000;fill:#2d2d2d;stroke-linecap:square;stroke-linejoin:round;-inkscape-stroke:none"
     d="m 12,11 c -0.545351,0 -1,0.454649 -1,1 v 2 c 0,0.545351 0.454649,1 1,1 h 2 c 0.545351,0 1,-0.454649 1,-1 v -2 c 0,-0.545351 -0.454649,-1 -1,-1 z m 0,1 h 2 v 2 h -2 z"
     id="rect18" />
</svg>
