<svg xmlns="http://www.w3.org/2000/svg" xmlns:svg="http://www.w3.org/2000/svg" id="svg6" width="16" height="16" version="1.1" viewBox="0 0 16 16"><path id="path2" fill="#363636" d="m13 2.0312c1.108 0 2 0.892 2 2v10c0 1.108-0.892 2-2 2h-8c-1.108 0-2-0.892-2-2v-10c0-1.108 0.892-2 2-2zm0 1h-8c-0.554 0-1 0.446-1 1v10c0 0.554 0.446 1 1 1h8c0.554 0 1-0.446 1-1v-10c0-0.554-0.446-1-1-1z" style="fill:#241f31"/><path id="path4" style="fill:#241f31" d="m 3,0.03125 c -1.108,0 -2,0.892 -2,2 v 10 c 0,0.742776 0.4019229,1.387446 1,1.732422 v -1.732422 -10 V 2 1 h 1 7 2.712891 C 12.36358,0.41962534 11.729481,0.03125 11,0.03125 Z"/></svg>