<?xml version="1.0" encoding="UTF-8" standalone="no"?>
<!-- Created with Inkscape (http://www.inkscape.org/) -->

<svg
   width="16"
   height="16"
   viewBox="0 0 16 16"
   version="1.1"
   id="svg5"
   xmlns="http://www.w3.org/2000/svg"
   xmlns:svg="http://www.w3.org/2000/svg">
  <defs
     id="defs2" />
  <path
     id="path1018"
     style="fill:#241f31;stroke:none;stroke-width:1px;stroke-linecap:butt;stroke-linejoin:miter;stroke-opacity:1"
     d="M 8,4 C 3,4 0,8 0,8 c 0,0 3,4 8,4 5,0 8,-4 8,-4 0,0 -3,-4 -8,-4 z m 0,1.5 c 1.3747882,0 2.5,1.1252118 2.5,2.5 0,1.3747882 -1.1252118,2.5 -2.5,2.5 C 6.6252118,10.5 5.5,9.3747882 5.5,8 5.5,6.6252118 6.6252118,5.5 8,5.5 Z m 0,1 C 7.1656514,6.5 6.5,7.1656514 6.5,8 6.5,8.8343486 7.1656514,9.5 8,9.5 8.8343486,9.5 9.5,8.8343486 9.5,8 9.5,7.1656514 8.8343486,6.5 8,6.5 Z" />
</svg>
