<svg xmlns="http://www.w3.org/2000/svg" xmlns:svg="http://www.w3.org/2000/svg" id="svg3" width="16" height="16" version="1.1"><path id="path2" d="m 5.0000756,2 v 3 h -3 V 2 Z m -1,1 h -1 v 1 h 1 z m 1,3 v 3 h -3 V 6 Z m -1,1 h -1 v 1 h 1 z m 1,3 v 3 h -3 v -3 z m -1,1 h -1 v 1 h 1 z" style="fill:#241f31"/><path style="color:#000;fill:#241f31;stroke-linecap:round;stroke-linejoin:round;-inkscape-stroke:none" id="path988" d="m 10.308669,12.96223 a 0.50005,-0.50005 0 0 0 0.544922,-0.109375 l 3,-3.0000004 a 0.5,-0.5 0 0 0 0,-0.7070312 0.5,-0.5 0 0 0 -0.707031,0 L 11.000076,11.292308 V 2.499339 a 0.5,-0.5 0 0 0 -0.5,-0.5 0.5,-0.5 0 0 0 -0.5,0.5 v 10 a 0.50005,-0.50005 0 0 0 0.308593,0.462891 z"/></svg>