<?xml version="1.0" encoding="UTF-8" standalone="no"?>
<svg
   height="16px"
   viewBox="0 0 16 16"
   width="16px"
   version="1.1"
   id="svg4"
   xmlns="http://www.w3.org/2000/svg"
   xmlns:svg="http://www.w3.org/2000/svg">
  <defs
     id="defs8" />
  <path
     style="color:#000000;fill:#241f31;fill-opacity:0.5;stroke-linecap:round;stroke-linejoin:round;-inkscape-stroke:none"
     d="M 8,2 C 4.6922171,2 2,4.6922171 2,8 c 0,3.307783 2.6922171,6 6,6 3.307783,0 6,-2.692217 6,-6 C 14,4.6922171 11.307783,2 8,2 Z m 0,1 c 2.767343,0 5,2.2326567 5,5 0,2.767343 -2.232657,5 -5,5 C 5.2326567,13 3,10.767343 3,8 3,5.2326567 5.2326567,3 8,3 Z"
     id="path926" />
  <path
     id="path952"
     style="fill:#241f31;stroke-width:2;stroke-linecap:round;stroke-linejoin:round;stop-color:#000000"
     d="M 5,11.5 A 1.5,1.5 0 0 1 3.5,13 1.5,1.5 0 0 1 2,11.5 1.5,1.5 0 0 1 3.5,10 1.5,1.5 0 0 1 5,11.5 Z" />
  <path
     id="path1046"
     style="fill:#241f31;stroke-width:0.999999;stroke-linecap:round;stroke-linejoin:round;stop-color:#000000"
     d="M 10,8 A 2,2 0 0 1 8,10 2,2 0 0 1 6,8 2,2 0 0 1 8,6 2,2 0 0 1 10,8 Z" />
</svg>
