<?xml version="1.0" encoding="UTF-8" standalone="no"?>
<svg
   width="16"
   height="16"
   version="1.1"
   id="svg12"
   xmlns="http://www.w3.org/2000/svg"
   xmlns:svg="http://www.w3.org/2000/svg"
   xmlns:rdf="http://www.w3.org/1999/02/22-rdf-syntax-ns#"
   xmlns:cc="http://creativecommons.org/ns#"
   xmlns:dc="http://purl.org/dc/elements/1.1/">
  <defs
     id="defs16" />
  <title
     id="title2">Gnome Symbolic Icon Theme</title>
  <g
     transform="translate(80 72.989)"
     id="g10"
     style="fill:#241f31">
    <g
       transform="matrix(1 0 0 -1 -5e-5 -130)"
       fill="#363636"
       id="g8"
       style="fill:#241f31">
      <rect
         x="-78"
         y="-63"
         width="12"
         height="1"
         color="#000000"
         color-rendering="auto"
         image-rendering="auto"
         shape-rendering="auto"
         solid-color="#000000"
         style="isolation:auto;mix-blend-mode:normal;paint-order:normal;fill:#241f31"
         id="rect4" />
      <path
         transform="translate(-80,-72.989)"
         d="m3 0.98828c-1.108 0-2 0.892-2 2v10c0 1.108 0.892 2 2 2h10c1.108 0 2-0.892 2-2v-10c0-1.108-0.892-2-2-2zm0 1h10c0.554 0 1 0.446 1 1v10c0 0.554-0.446 1-1 1h-10c-0.554 0-1-0.446-1-1v-10c0-0.554 0.446-1 1-1z"
         id="path6"
         style="fill:#241f31" />
    </g>
  </g>
  <metadata
     id="metadata833">
    <rdf:RDF>
      <cc:Work
         rdf:about="">
        <dc:title>Gnome Symbolic Icon Theme</dc:title>
      </cc:Work>
    </rdf:RDF>
  </metadata>
  <path
     style="color:#000000;fill:#241f31;stroke-linecap:round;stroke-linejoin:round;-inkscape-stroke:none"
     d="M 4,7 C 3.4546497,7 3,7.4546497 3,8 v 1 c 0,0.5453503 0.4546497,1 1,1 h 8 c 0.54535,0 1,-0.4546497 1,-1 V 8 C 13,7.4546497 12.54535,7 12,7 Z m 0,1 h 8 V 9 H 4 Z"
     id="rect877" />
</svg>
