<?xml version="1.0" encoding="UTF-8" standalone="no"?>
<svg
   height="16px"
   viewBox="0 0 16 16"
   width="16px"
   version="1.1"
   id="svg4"
   xmlns="http://www.w3.org/2000/svg"
   xmlns:svg="http://www.w3.org/2000/svg">
  <defs
     id="defs8" />
  <path
     style="color:#000000;fill:#241f31;stroke-linecap:round;stroke-linejoin:round;-inkscape-stroke:none"
     d="M 8,4 A 0.5,0.5 0 0 0 7.5,4.5 0.5,0.5 0 0 0 8,5 h 3 V 8 A 0.5,0.5 0 0 0 11.5,8.5 0.5,0.5 0 0 0 12,8 V 4.5 A 0.50005,0.50005 0 0 0 11.5,4 Z"
     id="path863" />
  <path
     style="color:#000000;fill:#241f31;stroke-linecap:round;stroke-linejoin:round;-inkscape-stroke:none"
     d="M 4.5,7.5 A 0.5,0.5 0 0 0 4,8 v 3.5 A 0.50005,0.50005 0 0 0 4.5,12 H 8 A 0.5,0.5 0 0 0 8.5,11.5 0.5,0.5 0 0 0 8,11 H 5 V 8 A 0.5,0.5 0 0 0 4.5,7.5 Z"
     id="path865" />
</svg>
