<svg xmlns="http://www.w3.org/2000/svg" xmlns:svg="http://www.w3.org/2000/svg" id="svg4" width="16" height="16" version="1.1" viewBox="0 0 16 16"><path style="color:#000;fill:#241f31;stroke-linecap:round;stroke-linejoin:round;-inkscape-stroke:none" id="rect1" d="M 4.5,3 C 3.67765,3 3,3.67765 3,4.5 v 7 C 3,12.32235 3.67765,13 4.5,13 h 7 c 0.82235,0 1.5,-0.67765 1.5,-1.5 v -7 C 13,3.67765 12.32235,3 11.5,3 Z m 0,1 h 7 C 11.785649,4 12,4.2143512 12,4.5 v 7 c 0,0.285649 -0.214351,0.5 -0.5,0.5 h -7 C 4.2143511,12 4,11.785649 4,11.5 v -7 C 4,4.2143512 4.2143511,4 4.5,4 Z"/></svg>