<?xml version="1.0" encoding="UTF-8" standalone="no"?>
<svg
   height="16px"
   viewBox="0 0 16 16"
   width="16px"
   version="1.1"
   id="svg4"
   sodipodi:docname="window-restore-symbolic.svg"
   inkscape:version="1.3 (0e150ed6c4, 2023-07-21)"
   xmlns:inkscape="http://www.inkscape.org/namespaces/inkscape"
   xmlns:sodipodi="http://sodipodi.sourceforge.net/DTD/sodipodi-0.dtd"
   xmlns="http://www.w3.org/2000/svg"
   xmlns:svg="http://www.w3.org/2000/svg">
  <sodipodi:namedview
     id="namedview1"
     pagecolor="#ffffff"
     bordercolor="#000000"
     borderopacity="0.25"
     inkscape:showpageshadow="2"
     inkscape:pageopacity="0.0"
     inkscape:pagecheckerboard="0"
     inkscape:deskcolor="#d1d1d1"
     showgrid="true"
     inkscape:zoom="32"
     inkscape:cx="9.953125"
     inkscape:cy="7.828125"
     inkscape:window-width="2560"
     inkscape:window-height="893"
     inkscape:window-x="0"
     inkscape:window-y="0"
     inkscape:window-maximized="1"
     inkscape:current-layer="svg4">
    <inkscape:grid
       id="grid1"
       units="px"
       originx="0"
       originy="0"
       spacingx="1"
       spacingy="1"
       empcolor="#0099e5"
       empopacity="0.30196078"
       color="#0099e5"
       opacity="0.14901961"
       empspacing="5"
       dotted="false"
       gridanglex="30"
       gridanglez="30"
       visible="true" />
  </sodipodi:namedview>
  <defs
     id="defs8" />
  <path
     style="color:#000000;fill:#241f31;stroke-linecap:round;stroke-linejoin:round;-inkscape-stroke:none"
     d="M 7.3769531,6 C 6.6229038,6 6,6.6229038 6,7.3769531 V 10.623047 C 6,11.377096 6.6229038,12 7.3769531,12 H 10.623047 C 11.377096,12 12,11.377096 12,10.623047 V 7.3769531 C 12,6.6229038 11.377096,6 10.623047,6 Z m 0,1 H 10.623047 C 10.840394,7 11,7.1596061 11,7.3769531 V 10.623047 C 11,10.840394 10.840394,11 10.623047,11 H 7.3769531 C 7.1596061,11 7,10.840394 7,10.623047 V 7.3769531 C 7,7.1596061 7.1596061,7 7.3769531,7 Z"
     id="rect1" />
  <path
     id="rect1-5"
     style="color:#000000;fill:#241f31;stroke-linecap:round;stroke-linejoin:round;-inkscape-stroke:none"
     d="M 5.3769531 4 C 4.6229062 4 4 4.6229062 4 5.3769531 L 4 8.6230469 C 4 9.2462558 4.4266412 9.7788911 5 9.9453125 L 5 8.6230469 L 5 8.5 L 5 5.3769531 C 5 5.1596067 5.1596067 5 5.3769531 5 L 8 5 L 8.6230469 5 L 9.9453125 5 C 9.7788915 4.4266415 9.2462558 4 8.6230469 4 L 5.3769531 4 z M 9 6 L 9 6.5 L 10 6.5 L 10 6 L 9 6 z M 6 9 L 6 10 L 6.5 10 L 6.5 9 L 6 9 z " />
</svg>
