<?xml version="1.0" encoding="UTF-8" standalone="no"?>
<svg
   height="16px"
   viewBox="0 0 16 16"
   width="16px"
   version="1.1"
   id="svg4"
   sodipodi:docname="window-maximize-symbolic.svg"
   inkscape:version="1.3 (0e150ed6c4, 2023-07-21)"
   xmlns:inkscape="http://www.inkscape.org/namespaces/inkscape"
   xmlns:sodipodi="http://sodipodi.sourceforge.net/DTD/sodipodi-0.dtd"
   xmlns="http://www.w3.org/2000/svg"
   xmlns:svg="http://www.w3.org/2000/svg">
  <sodipodi:namedview
     id="namedview1"
     pagecolor="#ffffff"
     bordercolor="#000000"
     borderopacity="0.25"
     inkscape:showpageshadow="2"
     inkscape:pageopacity="0.0"
     inkscape:pagecheckerboard="0"
     inkscape:deskcolor="#d1d1d1"
     showgrid="true"
     inkscape:zoom="32"
     inkscape:cx="9.953125"
     inkscape:cy="7.828125"
     inkscape:window-width="2560"
     inkscape:window-height="893"
     inkscape:window-x="0"
     inkscape:window-y="0"
     inkscape:window-maximized="1"
     inkscape:current-layer="svg4">
    <inkscape:grid
       id="grid1"
       units="px"
       originx="0"
       originy="0"
       spacingx="1"
       spacingy="1"
       empcolor="#0099e5"
       empopacity="0.30196078"
       color="#0099e5"
       opacity="0.14901961"
       empspacing="5"
       dotted="false"
       gridanglex="30"
       gridanglez="30"
       visible="true" />
  </sodipodi:namedview>
  <defs
     id="defs8" />
  <path
     style="color:#000000;fill:#241f31;stroke-linecap:round;stroke-linejoin:round;-inkscape-stroke:none"
     d="M 5.3769531,4 C 4.6229039,4 4,4.6229039 4,5.3769531 V 10.623047 C 4,11.377096 4.6229039,12 5.3769531,12 H 10.623047 C 11.377096,12 12,11.377096 12,10.623047 V 5.3769531 C 12,4.6229039 11.377096,4 10.623047,4 Z m 0,1 H 10.623047 C 10.840394,5 11,5.1596061 11,5.3769531 V 10.623047 C 11,10.840394 10.840394,11 10.623047,11 H 5.3769531 C 5.159606,11 5,10.840394 5,10.623047 V 5.3769531 C 5,5.1596061 5.159606,5 5.3769531,5 Z"
     id="rect1" />
</svg>
