<?xml version="1.0" encoding="UTF-8" standalone="no"?>
<svg
   height="16px"
   viewBox="0 0 16 16"
   width="16px"
   version="1.1"
   id="svg6"
   xmlns="http://www.w3.org/2000/svg"
   xmlns:svg="http://www.w3.org/2000/svg">
  <defs
     id="defs10" />
  <path
     id="path862"
     style="color:#000000;fill:#241f31;stroke-linecap:round;stroke-linejoin:round;-inkscape-stroke:none"
     d="M 11.5 7 A 0.5 0.5 0 0 0 11 7.5 L 11 11 L 7.5 11 A 0.5 0.5 0 0 0 7 11.5 A 0.5 0.5 0 0 0 7.5 12 L 11 12 L 11 15.5 A 0.5 0.5 0 0 0 11.5 16 A 0.5 0.5 0 0 0 12 15.5 L 12 12 L 15.5 12 A 0.5 0.5 0 0 0 16 11.5 A 0.5 0.5 0 0 0 15.5 11 L 12 11 L 12 7.5 A 0.5 0.5 0 0 0 11.5 7 z " />
  <path
     id="path979"
     style="color:#000000;fill:#241f31;stroke-linecap:round;stroke-linejoin:round;-inkscape-stroke:none"
     d="M 0.5 1 A 0.50005 0.50005 0 0 0 0 1.5 L 0 12.5 A 0.50005 0.50005 0 0 0 0.5 13 L 5.5 13 A 0.5 0.5 0 0 0 6 12.5 A 0.5 0.5 0 0 0 5.5 12 L 1 12 L 1 4 L 14 4 L 14 7.5 A 0.5 0.5 0 0 0 14.5 8 A 0.5 0.5 0 0 0 15 7.5 L 15 1.5 A 0.50005 0.50005 0 0 0 14.5 1 L 0.5 1 z " />
</svg>
