<?xml version="1.0" encoding="UTF-8" standalone="no"?>
<svg
   height="16px"
   viewBox="0 0 16 16"
   width="16px"
   version="1.1"
   id="svg4"
   xmlns="http://www.w3.org/2000/svg"
   xmlns:svg="http://www.w3.org/2000/svg">
  <defs
     id="defs8" />
  <path
     id="path940"
     style="color:#000000;fill:#241f31;stroke-linecap:round;stroke-linejoin:round;-inkscape-stroke:none"
     d="M 12.910156 2.0136719 A 1.0001 1.0001 0 0 0 12.292969 2.2929688 L 8 6.5859375 L 3.7070312 2.2929688 A 1.0001 1.0001 0 0 0 2.3027344 2.3027344 A 1.0001 1.0001 0 0 0 2.2929688 3.7070312 L 6.5859375 8 L 2.2929688 12.292969 A 1.0001 1.0001 0 0 0 3.7070312 13.707031 L 8 9.4140625 L 12.292969 13.707031 A 1.0001 1.0001 0 0 0 13.253906 13.955078 A 1.0001 1.0001 0 0 0 13.955078 13.253906 A 1.0001 1.0001 0 0 0 13.707031 12.292969 L 9.4140625 8 L 13.707031 3.7070312 A 1.0001 1.0001 0 0 0 13.253906 2.0449219 A 1.0001 1.0001 0 0 0 12.910156 2.0136719 z " />
</svg>
