<?xml version="1.0" encoding="UTF-8" standalone="no"?>
<svg
   height="16px"
   viewBox="0 0 16 16"
   width="16px"
   version="1.1"
   id="svg4"
   xmlns="http://www.w3.org/2000/svg"
   xmlns:svg="http://www.w3.org/2000/svg">
  <defs
     id="defs8" />
  <path
     id="path937"
     style="color:#000000;fill:#241f31;stroke-width:1;stroke-linecap:round;stroke-linejoin:round;-inkscape-stroke:none"
     d="M 11.115994,4.0000267 A 0.89090674,0.89089184 0 0 0 10.487898,4.2523049 L 7.9998716,6.7402892 5.5118457,4.2523049 a 0.89090674,0.89089184 0 0 0 -1.2509724,0.0087 0.89090674,0.89089184 0 0 0 -0.0087,1.2509514 L 6.7401998,7.9999399 4.2521739,10.487924 a 0.89090674,0.89089184 0 0 0 1.2596718,1.25965 L 7.9998716,9.2595907 10.487898,11.747574 a 0.89090674,0.89089184 0 0 0 0.85602,0.220961 0.89090674,0.89089184 0 0 0 0.624616,-0.624606 0.89090674,0.89089184 0 0 0 -0.220965,-0.856005 L 9.2595435,7.9999399 11.747569,5.5119556 A 0.89090674,0.89089184 0 0 0 11.968534,4.6559499 0.89090674,0.89089184 0 0 0 11.343918,4.0313441 0.89090674,0.89089184 0 0 0 11.115994,4.0000267 Z" />
</svg>
