<?xml version="1.0" encoding="UTF-8" standalone="no"?>
<svg
   height="16px"
   viewBox="0 0 16 16"
   width="16px"
   version="1.1"
   id="svg6"
   xmlns="http://www.w3.org/2000/svg"
   xmlns:svg="http://www.w3.org/2000/svg">
  <defs
     id="defs10" />
  <path
     id="path862"
     style="color:#000000;fill:#241f31;stroke-width:0.999997;stroke-linecap:round;stroke-linejoin:round;-inkscape-stroke:none"
     d="M 12.5,9 A 0.38888889,0.38888889 0 0 0 12.111111,9.3888888 V 12.111111 H 9.3888888 A 0.38888889,0.38888889 0 0 0 9,12.5 0.38888889,0.38888889 0 0 0 9.3888888,12.888889 h 2.7222222 v 2.722222 A 0.38888889,0.38888889 0 0 0 12.5,16 0.38888889,0.38888889 0 0 0 12.888889,15.611111 v -2.722222 h 2.722222 A 0.38888889,0.38888889 0 0 0 16,12.5 0.38888889,0.38888889 0 0 0 15.611111,12.111111 H 12.888889 V 9.3888888 A 0.38888889,0.38888889 0 0 0 12.5,9 Z" />
  <path
     id="path979"
     style="color:#000000;fill:#241f31;stroke-linecap:round;stroke-linejoin:round;-inkscape-stroke:none"
     d="M 0.5,1 C 0.22386906,1.0000276 2.7608953e-5,1.2238691 0,1.5 v 11 c 2.7608953e-5,0.276131 0.22386906,0.499972 0.5,0.5 h 5 C 5.7761424,13 6,12.776142 6,12.5 6,12.223858 5.7761424,12 5.5,12 H 1 V 3 H 14 V 7.5 C 14,7.7761424 14.223858,8 14.5,8 14.776142,8 15,7.7761424 15,7.5 v -6 C 14.999972,1.2238691 14.776131,1.0000276 14.5,1 Z" />
</svg>
