<?xml version="1.0" encoding="UTF-8" standalone="no"?>
<svg
   height="16px"
   viewBox="0 0 16 16"
   width="16px"
   version="1.1"
   id="svg4"
   xmlns="http://www.w3.org/2000/svg"
   xmlns:svg="http://www.w3.org/2000/svg">
  <defs
     id="defs8" />
  <path
     id="path857"
     style="color:#000000;fill:#241f31;stroke-width:1;stroke-linecap:round;stroke-linejoin:round;-inkscape-stroke:none"
     d="m 4.5713549,3.9999998 a 0.5714408,0.57143465 0 0 0 -0.4040265,0.1674126 0.5714408,0.57143465 0 0 0 0,0.8080442 L 7.1919467,8.0000424 4.1673284,11.024628 a 0.5714408,0.57143465 0 0 0 0,0.808045 0.5714408,0.57143465 0 0 0 0.808053,0 L 7.9999997,8.8080866 11.024618,11.832673 a 0.5714408,0.57143465 0 0 0 0.808054,0 0.5714408,0.57143465 0 0 0 0,-0.808045 L 8.8080526,8.0000424 11.832672,4.9754566 a 0.5714408,0.57143465 0 0 0 0,-0.8080442 0.5714408,0.57143465 0 0 0 -0.808054,0 L 7.9999997,7.1919981 4.9753814,4.1674124 A 0.5714408,0.57143465 0 0 0 4.5713549,3.9999998 Z" />
</svg>
