<?xml version="1.0" encoding="UTF-8" standalone="no"?>
<svg
   height="16px"
   viewBox="0 0 16 16"
   width="16px"
   version="1.1"
   id="svg4"
   sodipodi:docname="window-restore-symbolic.svg"
   inkscape:version="1.3.2 (091e20ef0f, 2023-11-25)"
   xmlns:inkscape="http://www.inkscape.org/namespaces/inkscape"
   xmlns:sodipodi="http://sodipodi.sourceforge.net/DTD/sodipodi-0.dtd"
   xmlns="http://www.w3.org/2000/svg"
   xmlns:svg="http://www.w3.org/2000/svg">
  <sodipodi:namedview
     id="namedview1"
     pagecolor="#ffffff"
     bordercolor="#000000"
     borderopacity="0.25"
     inkscape:showpageshadow="2"
     inkscape:pageopacity="0.0"
     inkscape:pagecheckerboard="0"
     inkscape:deskcolor="#d1d1d1"
     showgrid="true"
     inkscape:zoom="32"
     inkscape:cx="9.9375"
     inkscape:cy="7.8125"
     inkscape:window-width="2560"
     inkscape:window-height="1016"
     inkscape:window-x="0"
     inkscape:window-y="32"
     inkscape:window-maximized="1"
     inkscape:current-layer="svg4">
    <inkscape:grid
       id="grid1"
       units="px"
       originx="0"
       originy="0"
       spacingx="1"
       spacingy="1"
       empcolor="#0099e5"
       empopacity="0.30196078"
       color="#0099e5"
       opacity="0.14901961"
       empspacing="5"
       dotted="false"
       gridanglex="30"
       gridanglez="30"
       visible="true" />
  </sodipodi:namedview>
  <defs
     id="defs8" />
  <path
     style="color:#000000;fill:#241f31;stroke-width:1;stroke-linecap:round;stroke-linejoin:round;-inkscape-stroke:none"
     d="M 6.8359375,5 C 5.8305385,5 5,5.8305384 5,6.8359373 v 4.3281247 c 0,1.005398 0.8305385,1.835937 1.8359375,1.835937 H 11.164063 C 12.169461,12.999999 13,12.16946 13,11.164062 V 6.8359373 C 13,5.8305384 12.169461,5 11.164063,5 Z M 7,6 h 4 c 0.608187,0 1.111111,0.48705 1.111111,1 v 4 c 0,0.659104 -0.552858,1.111111 -1.111111,1.111111 H 7 C 6.3555573,12.111111 6,11.452464 6,11 V 7 C 6,6.4198255 6.418786,6 7,6 Z"
     id="rect1"
     sodipodi:nodetypes="ssssssssssssssssss" />
  <path
     id="rect1-5"
     style="color:#000000;fill:#241f31;stroke-width:1;stroke-linecap:round;stroke-linejoin:round;-inkscape-stroke:none"
     d="M 4,3 C 3.4275422,3 3,3.4287083 3,4 v 8 c 0,0.566554 0.4266412,0.848707 1,0.999999 V 8 12 5 C 4,4.5548598 4.4987983,4.011391 5,4 h 4 3 1 C 12.833579,3.4787651 12.623209,3 12,3 Z"
     sodipodi:nodetypes="ssscccsscccss" />
</svg>
