<svg xmlns="http://www.w3.org/2000/svg" xmlns:svg="http://www.w3.org/2000/svg" id="svg4" width="16" height="16" version="1.1" viewBox="0 0 16 16"><path style="color:#000;fill:#241f31;stroke-width:1;stroke-linecap:round;stroke-linejoin:round;-inkscape-stroke:none" id="rect1" d="M 6.8359375,5 C 5.8305385,5 5,5.8305384 5,6.8359373 v 4.3281247 c 0,1.005398 0.8305385,1.835937 1.8359375,1.835937 H 11.164063 C 12.169461,12.999999 13,12.16946 13,11.164062 V 6.8359373 C 13,5.8305384 12.169461,5 11.164063,5 Z M 7,6 h 4 c 0.608187,0 1.111111,0.48705 1.111111,1 v 4 c 0,0.659104 -0.552858,1.111111 -1.111111,1.111111 H 7 C 6.3555573,12.111111 6,11.452464 6,11 V 7 C 6,6.4198255 6.418786,6 7,6 Z"/><path id="rect1-5" style="color:#000;fill:#241f31;stroke-width:1;stroke-linecap:round;stroke-linejoin:round;-inkscape-stroke:none" d="M 4,3 C 3.4275422,3 3,3.4287083 3,4 v 8 c 0,0.566554 0.4266412,0.848707 1,0.999999 V 8 12 5 C 4,4.5548598 4.4987983,4.011391 5,4 h 4 3 1 C 12.833579,3.4787651 12.623209,3 12,3 Z"/></svg>