<svg xmlns="http://www.w3.org/2000/svg" xmlns:svg="http://www.w3.org/2000/svg" id="svg4" width="16" height="16" version="1.1" viewBox="0 0 16 16"><path style="color:#000;fill:#241f31;stroke-linecap:round;stroke-linejoin:round;-inkscape-stroke:none;font-variation-settings:normal;opacity:1;vector-effect:none;fill-opacity:1;stroke-width:1;stroke-miterlimit:4;stroke-dasharray:none;stroke-dashoffset:0;stroke-opacity:1;stop-color:#000;stop-opacity:1" id="path1" d="m 3.8476563,3.140625 a 0.50005,0.50005 0 0 0 -0.7011719,0.00586 0.50005,0.50005 0 0 0 -0.00586,0.7011719 l 9.011719,9.0117187 a 0.50005,0.50005 0 0 0 0.478515,0.123047 0.50005,0.50005 0 0 0 0.351563,-0.351563 0.50005,0.50005 0 0 0 -0.123047,-0.478515 z"/><path style="color:#000;font-variation-settings:normal;vector-effect:none;fill:#241f31;fill-opacity:1;stroke-width:1;stroke-linecap:round;stroke-linejoin:round;stroke-miterlimit:4;stroke-dasharray:none;stroke-dashoffset:0;stroke-opacity:1;-inkscape-stroke:none;stop-color:#000" id="path1-5" d="m 12.15227,3.1406248 a 0.50005,0.50005 0 0 1 0.701172,0.00586 0.50005,0.50005 0 0 1 0.0059,0.7011719 L 3.847584,12.859376 A 0.50005,0.50005 0 0 1 3.369069,12.982423 0.50005,0.50005 0 0 1 3.017506,12.63086 0.50005,0.50005 0 0 1 3.140553,12.152345 Z"/></svg>