<svg xmlns="http://www.w3.org/2000/svg" xmlns:svg="http://www.w3.org/2000/svg" id="svg12" width="16" height="16" version="1.1"><title id="title2">Gnome Symbolic Icon Theme</title><g id="g10" transform="translate(80 72.989)" style="fill:#241f31"><g id="g8" fill="#363636" transform="matrix(1 0 0 -1 -5e-5 -130)" style="fill:#241f31"><rect id="rect4" width="12" height="1" x="-78" y="-63" color="#000" color-rendering="auto" image-rendering="auto" shape-rendering="auto" solid-color="#000000" style="isolation:auto;mix-blend-mode:normal;paint-order:normal;fill:#241f31"/><path id="path6" d="m3 0.98828c-1.108 0-2 0.892-2 2v10c0 1.108 0.892 2 2 2h10c1.108 0 2-0.892 2-2v-10c0-1.108-0.892-2-2-2zm0 1h10c0.554 0 1 0.446 1 1v10c0 0.554-0.446 1-1 1h-10c-0.554 0-1-0.446-1-1v-10c0-0.554 0.446-1 1-1z" transform="translate(-80,-72.989)" style="fill:#241f31"/></g></g><metadata id="metadata833"/><path id="rect877" style="fill:#241f31;stroke-linecap:round;stroke-linejoin:round;stop-color:#000" d="m 3.5,7 h 1 C 4.777,7 5,7.223 5,7.5 v 1 C 5,8.777 4.777,9 4.5,9 h -1 C 3.223,9 3,8.777 3,8.5 v -1 C 3,7.223 3.223,7 3.5,7 Z"/><path id="rect882" style="fill:#241f31;stroke-linecap:round;stroke-linejoin:round;stop-color:#000" d="m 7.5,7 h 1 C 8.777,7 9,7.223 9,7.5 v 1 C 9,8.777 8.777,9 8.5,9 h -1 C 7.223,9 7,8.777 7,8.5 v -1 C 7,7.223 7.223,7 7.5,7 Z"/><path id="rect884" style="fill:#241f31;stroke-linecap:round;stroke-linejoin:round;stop-color:#000" d="m 11.5,7 h 1 C 12.777,7 13,7.223 13,7.5 v 1 C 13,8.777 12.777,9 12.5,9 h -1 C 11.223,9 11,8.777 11,8.5 v -1 C 11,7.223 11.223,7 11.5,7 Z"/><path id="rect886" style="fill:#241f31;stroke-linecap:round;stroke-linejoin:round;stop-color:#000" d="m 3.5,10 h 1 C 4.777,10 5,10.223 5,10.5 v 1 C 5,11.777 4.777,12 4.5,12 h -1 C 3.223,12 3,11.777 3,11.5 v -1 C 3,10.223 3.223,10 3.5,10 Z"/><path id="rect888" style="fill:#241f31;stroke-linecap:round;stroke-linejoin:round;stop-color:#000" d="m 7.5,10 h 1 C 8.777,10 9,10.223 9,10.5 v 1 C 9,11.777 8.777,12 8.5,12 h -1 C 7.223,12 7,11.777 7,11.5 v -1 C 7,10.223 7.223,10 7.5,10 Z"/><path id="rect890" style="fill:#241f31;stroke-linecap:round;stroke-linejoin:round;stop-color:#000" d="m 11.5,10 h 1 c 0.277,0 0.5,0.223 0.5,0.5 v 1 c 0,0.277 -0.223,0.5 -0.5,0.5 h -1 C 11.223,12 11,11.777 11,11.5 v -1 C 11,10.223 11.223,10 11.5,10 Z"/></svg>