<?xml version="1.0" encoding="UTF-8" standalone="no"?>
<svg
   height="16px"
   viewBox="0 0 16 16"
   width="16px"
   version="1.1"
   id="svg4"
   xmlns="http://www.w3.org/2000/svg"
   xmlns:svg="http://www.w3.org/2000/svg">
  <defs
     id="defs8" />
  <path
     id="path929"
     style="fill:#241f31;stroke-linecap:round;stroke-linejoin:round;stroke-opacity:0.5;stop-color:#000000"
     d="M 8 0 A 8 8 0 0 0 2.7167969 2 L 4 2 L 7 2 L 7 4 L 4 4 L 4 7 L 2 7 L 2 4 L 2 2.7167969 A 8 8 0 0 0 0 8 A 8 8 0 0 0 2 13.283203 L 2 12 L 2 9 L 4 9 L 4 12 L 7 12 L 7 14 L 4 14 L 2.7167969 14 A 8 8 0 0 0 8 16 A 8 8 0 0 0 13.283203 14 L 12 14 L 9 14 L 9 12 L 12 12 L 12 9 L 14 9 L 14 12 L 14 13.283203 A 8 8 0 0 0 16 8 A 8 8 0 0 0 14 2.7109375 L 14 4 L 14 7 L 12 7 L 12 4 L 9 4 L 9 2 L 12 2 L 13.289062 2 A 8 8 0 0 0 8 0 z " />
</svg>
