<svg xmlns="http://www.w3.org/2000/svg" xmlns:svg="http://www.w3.org/2000/svg" id="svg4" width="16" height="16" version="1.1" viewBox="0 0 16 16"><path style="color:#000;fill:#241f31;stroke-linecap:round;stroke-linejoin:round;-inkscape-stroke:none" id="path937" d="M 6.5,0 A 0.5,0.5 0 0 0 6,0.5 V 6 H 0.5 A 0.5,0.5 0 0 0 0,6.5 0.5,0.5 0 0 0 0.5,7 h 6 A 0.50005,0.50005 0 0 0 7,6.5 v -6 A 0.5,0.5 0 0 0 6.5,0 Z"/><path style="color:#000;fill:#241f31;stroke-linecap:round;stroke-linejoin:round;-inkscape-stroke:none" id="path937-3" d="M 9.5,0 A 0.5,0.5 0 0 0 9,0.5 v 6 A 0.50005,0.50005 0 0 0 9.5,7 h 6 A 0.5,0.5 0 0 0 16,6.5 0.5,0.5 0 0 0 15.5,6 H 10 V 0.5 A 0.5,0.5 0 0 0 9.5,0 Z"/><path style="color:#000;fill:#241f31;stroke-linecap:round;stroke-linejoin:round;-inkscape-stroke:none" id="path937-6" d="M 0.5,9 A 0.5,0.5 0 0 0 0,9.5 0.5,0.5 0 0 0 0.5,10 H 6 v 5.5 A 0.5,0.5 0 0 0 6.5,16 0.5,0.5 0 0 0 7,15.5 v -6 A 0.50005,0.50005 0 0 0 6.5,9 Z"/><path style="color:#000;fill:#241f31;stroke-linecap:round;stroke-linejoin:round;-inkscape-stroke:none" id="path937-3-7" d="M 9.5,9 A 0.50005,0.50005 0 0 0 9,9.5 v 6 A 0.5,0.5 0 0 0 9.5,16 0.5,0.5 0 0 0 10,15.5 V 10 h 5.5 A 0.5,0.5 0 0 0 16,9.5 0.5,0.5 0 0 0 15.5,9 Z"/></svg>