<?xml version="1.0" encoding="UTF-8" standalone="no"?>
<svg
   height="16px"
   viewBox="0 0 16 16"
   width="16px"
   version="1.1"
   id="svg4"
   xmlns="http://www.w3.org/2000/svg"
   xmlns:svg="http://www.w3.org/2000/svg">
  <defs
     id="defs8" />
  <path
     id="path929"
     style="fill:#241f31;stroke-linecap:round;stroke-linejoin:round;stroke-opacity:0.5;stop-color:#000000;fill-opacity:1"
     d="M 8 0 A 8 8 0 0 0 6.8535156 0.083984375 A 8 8 0 0 0 6.8496094 0.083984375 A 8 8 0 0 0 6.7226562 0.11132812 A 8 8 0 0 0 5.7226562 0.33398438 A 8 8 0 0 0 3.6347656 1.3007812 A 8 8 0 0 0 2.7167969 2 A 8 8 0 0 0 2 2.7167969 A 8 8 0 0 0 1.3007812 3.6347656 A 8 8 0 0 0 0.33398438 5.7226562 A 8 8 0 0 0 0.11132812 6.7226562 A 8 8 0 0 0 0.083984375 6.8535156 A 8 8 0 0 0 0 8 A 8 8 0 0 0 0.083984375 9.1464844 A 8 8 0 0 0 0.11132812 9.2773438 A 8 8 0 0 0 0.33398438 10.277344 A 8 8 0 0 0 1.3007812 12.365234 A 8 8 0 0 0 2 13.283203 A 8 8 0 0 0 2.7167969 14 A 8 8 0 0 0 3.6347656 14.699219 A 8 8 0 0 0 5.7226562 15.666016 A 8 8 0 0 0 6.7226562 15.888672 A 8 8 0 0 0 6.8496094 15.916016 A 8 8 0 0 0 6.8535156 15.916016 A 8 8 0 0 0 8 16 A 8 8 0 0 0 9.1464844 15.916016 A 8 8 0 0 0 9.1503906 15.916016 A 8 8 0 0 0 9.2773438 15.888672 A 8 8 0 0 0 10.277344 15.666016 A 8 8 0 0 0 12.365234 14.699219 A 8 8 0 0 0 13.283203 14 A 8 8 0 0 0 14 13.283203 A 8 8 0 0 0 14.699219 12.365234 A 8 8 0 0 0 15.666016 10.277344 A 8 8 0 0 0 15.888672 9.2773438 A 8 8 0 0 0 15.916016 9.1503906 A 8 8 0 0 0 15.916016 9.1484375 A 8 8 0 0 0 15.916016 9.1464844 A 8 8 0 0 0 16 8 A 8 8 0 0 0 15.916016 6.8476562 A 8 8 0 0 0 15.667969 5.7207031 A 8 8 0 0 0 15.263672 4.6523438 A 8 8 0 0 0 15.259766 4.640625 A 8 8 0 0 0 15.255859 4.6347656 A 8 8 0 0 0 14.699219 3.6308594 A 8 8 0 0 0 14.001953 2.7148438 A 8 8 0 0 0 14 2.7109375 A 8 8 0 0 0 13.289062 2 A 8 8 0 0 0 13.285156 1.9980469 A 8 8 0 0 0 12.369141 1.3007812 A 8 8 0 0 0 11.365234 0.74414062 A 8 8 0 0 0 11.359375 0.74023438 A 8 8 0 0 0 11.347656 0.73632812 A 8 8 0 0 0 10.279297 0.33203125 A 8 8 0 0 0 9.1523438 0.083984375 A 8 8 0 0 0 8 0 z M 5 3 L 7 3 L 7 5 L 7 6 L 7 7 L 3 7 L 3 5 L 5 5 L 5 3 z M 9 3 L 11 3 L 11 5 L 13 5 L 13 7 L 11 7 L 9 7 L 9 5 L 9 3 z M 3 9 L 7 9 L 7 10 L 7 11 L 7 13 L 5 13 L 5 11 L 3 11 L 3 9 z M 9 9 L 11 9 L 13 9 L 13 11 L 11 11 L 11 13 L 9 13 L 9 11 L 9 9 z " />
</svg>
