<?xml version="1.0" encoding="UTF-8" standalone="no"?>
<svg
   height="16px"
   viewBox="0 0 16 16"
   width="16px"
   version="1.1"
   id="svg4"
   xmlns="http://www.w3.org/2000/svg"
   xmlns:svg="http://www.w3.org/2000/svg">
  <defs
     id="defs8" />
  <path
     style="color:#000000;fill:#241f31;stroke-linecap:round;stroke-linejoin:round;-inkscape-stroke:none"
     d="M 6.5,0 A 0.5,0.5 0 0 0 6,0.5 V 6 H 0.5 A 0.5,0.5 0 0 0 0,6.5 0.5,0.5 0 0 0 0.5,7 h 6 A 0.50005,0.50005 0 0 0 7,6.5 v -6 A 0.5,0.5 0 0 0 6.5,0 Z"
     id="path937" />
  <path
     style="color:#000000;fill:#241f31;stroke-linecap:round;stroke-linejoin:round;-inkscape-stroke:none"
     d="M 9.5,0 A 0.5,0.5 0 0 0 9,0.5 v 6 A 0.50005,0.50005 0 0 0 9.5,7 h 6 A 0.5,0.5 0 0 0 16,6.5 0.5,0.5 0 0 0 15.5,6 H 10 V 0.5 A 0.5,0.5 0 0 0 9.5,0 Z"
     id="path937-3" />
  <path
     style="color:#000000;fill:#241f31;stroke-linecap:round;stroke-linejoin:round;-inkscape-stroke:none"
     d="M 0.5,9 A 0.5,0.5 0 0 0 0,9.5 0.5,0.5 0 0 0 0.5,10 H 6 v 5.5 A 0.5,0.5 0 0 0 6.5,16 0.5,0.5 0 0 0 7,15.5 v -6 A 0.50005,0.50005 0 0 0 6.5,9 Z"
     id="path937-6" />
  <path
     style="color:#000000;fill:#241f31;stroke-linecap:round;stroke-linejoin:round;-inkscape-stroke:none"
     d="M 9.5,9 A 0.50005,0.50005 0 0 0 9,9.5 v 6 A 0.5,0.5 0 0 0 9.5,16 0.5,0.5 0 0 0 10,15.5 V 10 h 5.5 A 0.5,0.5 0 0 0 16,9.5 0.5,0.5 0 0 0 15.5,9 Z"
     id="path937-3-7" />
</svg>
