<svg xmlns="http://www.w3.org/2000/svg" xmlns:svg="http://www.w3.org/2000/svg" id="svg49" width="128" height="128" version="1.1" viewBox="0 0 128 128"><linearGradient id="a" x1="88.596" x2="536.596" y1="-449.394" y2="-449.394" gradientTransform="matrix(0.196428 0 0 0.342105 2.59702 273.739929)" gradientUnits="userSpaceOnUse"><stop id="stop2" offset="0" stop-color="#deddda" style="stop-color:#d0d0d0;stop-opacity:1"/><stop id="stop4" offset=".045" stop-color="#eeeeec" style="stop-color:#e5e5e5;stop-opacity:1"/><stop id="stop6" offset=".091" stop-color="#deddda" style="stop-color:#d0d0d0;stop-opacity:1"/><stop id="stop8" offset=".909" stop-color="#deddda" style="stop-color:#d0d0d0;stop-opacity:1"/><stop id="stop10" offset=".955" stop-color="#eeeeec" style="stop-color:#e5e5e5;stop-opacity:1"/><stop id="stop12" offset="1" stop-color="#c0bfbc" style="stop-color:#d0d0d0;stop-opacity:1"/></linearGradient><linearGradient id="b" x1="58.999" x2="69" y1="64" y2="64" gradientUnits="userSpaceOnUse"><stop id="stop15" offset="0" stop-color="#9a9996" style="stop-color:#a5a5a5;stop-opacity:1"/><stop id="stop17" offset="1" stop-color="#77767b" style="stop-color:#5e5e5e;stop-opacity:1"/></linearGradient><linearGradient id="c" x1="48" x2="80" y1="275.5" y2="275.5" gradientTransform="matrix(1 0 0 0.850001 0 -135.925327)" gradientUnits="userSpaceOnUse"><stop id="stop20" offset="0" stop-color="#e8e7e4" style="stop-color:#e5e5e5;stop-opacity:1"/><stop id="stop22" offset=".511" stop-color="#fff" style="stop-color:#f0f0f2;stop-opacity:1"/><stop id="stop24" offset="1" stop-color="#c2bfba" style="stop-color:#c2c2c2;stop-opacity:1"/></linearGradient><path id="path27" fill="url(#a)" d="m 28 16 h 72 c 4.417969 0 8 3.582031 8 8 v 88 c 0 4.417969 -3.582031 8 -8 8 h -72 c -4.417969 0 -8 -3.582031 -8 -8 v -88 c 0 -4.417969 3.582031 -8 8 -8 z m 0 0"/><path id="path29" fill="#f6f5f4" d="m 28 8 h 72 c 4.417969 0 8 3.582031 8 8 v 92 c 0 4.417969 -3.582031 8 -8 8 h -72 c -4.417969 0 -8 -3.582031 -8 -8 v -92 c 0 -4.417969 3.582031 -8 8 -8 z m 0 0" style="fill:#f0f0f2"/><g id="g928" transform="matrix(3,0,0,3,40,36.25)" style="fill:#8c56bf;stroke-width:.333333"><path id="path974" style="color:#000;fill:#8c56bf;fill-opacity:1;stroke-width:.333333;-inkscape-stroke:none" d="M 8,2.5 C 3.0136255,2.5 0.11914062,7.7421875 0.11914062,7.7421875 L 0,7.9550781 0.0859375,8.1855469 c 0,0 1.5715362,4.0844951 5.9140625,5.0917971 V 12.265625 C 2.461124,11.398768 1.2345765,8.3828565 1.0996094,8.0371094 1.3379952,7.6352328 3.8396053,3.5 8,3.5 c 2.323971,0 4.128965,1.2908577 5.3125,2.5 h 1.318359 C 13.331923,4.4745227 11.060588,2.5 8,2.5 Z"/><path id="path927" style="color:#000;fill:#8c56bf;stroke-width:.333333;stroke-linecap:round;stroke-linejoin:round;-inkscape-stroke:none" d="M 8,5 C 6.3490697,5 5,6.3490697 5,8 5,8.9093015 5.4091998,9.7261601 6.0527344,10.277344 a 5,5 0 0 1 0.3125,-1.121094 C 6.1353362,8.8304792 6,8.4320297 6,8 6,6.8895093 6.8895093,6 8,6 8.4320297,6 8.8304792,6.1353362 9.15625,6.3652344 a 5,5 0 0 1 1.121094,-0.3125 C 9.7261601,5.4091998 8.9093015,5 8,5 Z"/><path style="color:#000;fill:#8c56bf;stroke-width:.333333;stroke-linecap:round;stroke-linejoin:round;-inkscape-stroke:none" id="path948" d="M 11.5,7 C 10.984321,7 10.554687,7.4296333 10.554688,7.9453125 L 10.611328,7.7167969 9.6289063,9.6289063 7.7167969,10.611328 c -0.093464,0.048 -0.2295762,0.100097 -0.3867188,0.22461 C 7.1729356,10.96045 7,11.223757 7,11.5 c 0,0.515679 0.4296333,0.945312 0.9453125,0.945313 l -0.2285156,-0.05664 1.9121094,0.982422 0.9824217,1.912109 c 0.048,0.09347 0.100097,0.229577 0.22461,0.386719 C 10.96045,15.827064 11.223758,16 11.5,16 c 0.515679,0 0.945312,-0.429632 0.945313,-0.945312 l -0.05664,0.228515 0.982422,-1.912109 1.912109,-0.982422 c 0.09347,-0.048 0.229577,-0.100097 0.386719,-0.224609 C 15.827064,12.03955 16,11.776243 16,11.5 16,10.984321 15.570365,10.554687 15.054688,10.554688 l 0.228515,0.05664 L 13.371094,9.6289063 12.388672,7.7167969 C 12.340676,7.6233316 12.288575,7.4872203 12.164063,7.3300781 12.03955,7.1729359 11.776244,7 11.5,7 Z m 0,1.171875 1.054688,2.056641 a 0.50004851,0.50004851 0 0 0 0.216796,0.216797 L 14.828125,11.5 12.771484,12.554688 a 0.50004851,0.50004851 0 0 0 -0.216796,0.216796 L 11.5,14.828125 10.445313,12.771484 A 0.50004851,0.50004851 0 0 0 10.228516,12.554688 L 8.171875,11.5 10.228516,10.445313 a 0.50004851,0.50004851 0 0 0 0.216797,-0.216797 z"/></g></svg>