<svg xmlns="http://www.w3.org/2000/svg" xmlns:svg="http://www.w3.org/2000/svg" id="svg49" width="128" height="128" version="1.1" viewBox="0 0 128 128"><linearGradient id="a" x1="88.596" x2="536.596" y1="-449.394" y2="-449.394" gradientTransform="matrix(0.196428 0 0 0.342105 2.59702 273.739929)" gradientUnits="userSpaceOnUse"><stop id="stop2" offset="0" stop-color="#deddda" style="stop-color:#d0d0d0;stop-opacity:1"/><stop id="stop4" offset=".045" stop-color="#eeeeec" style="stop-color:#e5e5e5;stop-opacity:1"/><stop id="stop6" offset=".091" stop-color="#deddda" style="stop-color:#d0d0d0;stop-opacity:1"/><stop id="stop8" offset=".909" stop-color="#deddda" style="stop-color:#d0d0d0;stop-opacity:1"/><stop id="stop10" offset=".955" stop-color="#eeeeec" style="stop-color:#e5e5e5;stop-opacity:1"/><stop id="stop12" offset="1" stop-color="#c0bfbc" style="stop-color:#d0d0d0;stop-opacity:1"/></linearGradient><linearGradient id="b" x1="58.999" x2="69" y1="64" y2="64" gradientUnits="userSpaceOnUse"><stop id="stop15" offset="0" stop-color="#9a9996" style="stop-color:#a5a5a5;stop-opacity:1"/><stop id="stop17" offset="1" stop-color="#77767b" style="stop-color:#5e5e5e;stop-opacity:1"/></linearGradient><linearGradient id="c" x1="48" x2="80" y1="275.5" y2="275.5" gradientTransform="matrix(1 0 0 0.850001 0 -135.925327)" gradientUnits="userSpaceOnUse"><stop id="stop20" offset="0" stop-color="#e8e7e4" style="stop-color:#e5e5e5;stop-opacity:1"/><stop id="stop22" offset=".511" stop-color="#fff" style="stop-color:#f0f0f2;stop-opacity:1"/><stop id="stop24" offset="1" stop-color="#c2bfba" style="stop-color:#c2c2c2;stop-opacity:1"/></linearGradient><path id="path27" fill="url(#a)" d="m 28 16 h 72 c 4.417969 0 8 3.582031 8 8 v 88 c 0 4.417969 -3.582031 8 -8 8 h -72 c -4.417969 0 -8 -3.582031 -8 -8 v -88 c 0 -4.417969 3.582031 -8 8 -8 z m 0 0"/><path id="path29" fill="#f6f5f4" d="m 28 8 h 72 c 4.417969 0 8 3.582031 8 8 v 92 c 0 4.417969 -3.582031 8 -8 8 h -72 c -4.417969 0 -8 -3.582031 -8 -8 v -92 c 0 -4.417969 3.582031 -8 8 -8 z m 0 0" style="fill:#f0f0f2"/><path id="path16" d="m 54.22222,47.272729 v 22.14025 c 0,3.397727 -1.29861,4.27123 -3.55555,4.27123 -2.36112,0 -3.99998,-1.458133 -5.08333,-3.34958 L 40,73.684209 c 1.61805,3.390849 5.58334,7.043062 11.08334,7.043062 6.08334,0 10.25,-3.205142 10.25,-10.241327 V 47.272729 Z m 22.13889,0 c -6.05556,0 -9.93749,3.837921 -9.93749,8.879487 0,5.467999 3.25693,8.054124 8.15276,10.117519 l 1.69446,0.72219 c 3.09027,1.341209 4.61805,2.159689 4.61805,4.463817 0,1.918958 -1.47222,3.308312 -4.28472,3.308312 -3.34721,0 -4.93057,-2.249103 -6.38196,-4.601375 l -5.33333,3.521529 c 1.99306,3.89982 5.56946,7.043062 11.86807,7.043062 C 83.2014,80.727271 88,77.41208 88,71.366328 88,65.753888 84.75,63.257177 78.97918,60.808613 l -1.69446,-0.715311 c -2.90972,-1.251793 -4.17361,-2.06339 -4.17361,-4.078654 0,-1.630083 1.26389,-2.881864 3.25,-2.881881 1.9514,0 3.20136,0.818493 4.36111,2.881881 l 5.28473,-3.35646 C 83.7778,48.758375 80.6736,47.272729 76.36111,47.272729 Z" style="fill:#febc16;fill-opacity:1;stroke-width:1"/></svg>