<?xml version="1.0" encoding="UTF-8" standalone="no"?>
<svg
   height="128px"
   viewBox="0 0 128 128"
   width="128px"
   version="1.1"
   id="svg49"
   xmlns="http://www.w3.org/2000/svg"
   xmlns:svg="http://www.w3.org/2000/svg">
  <defs
     id="defs53" />
  <linearGradient
     id="a"
     gradientTransform="matrix(0.196428 0 0 0.342105 2.59702 273.739929)"
     gradientUnits="userSpaceOnUse"
     x1="88.595886"
     x2="536.595886"
     y1="-449.394012"
     y2="-449.394012">
    <stop
       offset="0"
       stop-color="#deddda"
       id="stop2"
       style="stop-color:#d0d0d0;stop-opacity:1" />
    <stop
       offset="0.0454546"
       stop-color="#eeeeec"
       id="stop4"
       style="stop-color:#e5e5e5;stop-opacity:1" />
    <stop
       offset="0.0909091"
       stop-color="#deddda"
       id="stop6"
       style="stop-color:#d0d0d0;stop-opacity:1" />
    <stop
       offset="0.909091"
       stop-color="#deddda"
       id="stop8"
       style="stop-color:#d0d0d0;stop-opacity:1" />
    <stop
       offset="0.954545"
       stop-color="#eeeeec"
       id="stop10"
       style="stop-color:#e5e5e5;stop-opacity:1" />
    <stop
       offset="1"
       stop-color="#c0bfbc"
       id="stop12"
       style="stop-color:#d0d0d0;stop-opacity:1" />
  </linearGradient>
  <linearGradient
     id="b"
     gradientUnits="userSpaceOnUse"
     x1="58.999043"
     x2="69.00042"
     y1="63.999893"
     y2="63.999893">
    <stop
       offset="0"
       stop-color="#9a9996"
       id="stop15"
       style="stop-color:#a5a5a5;stop-opacity:1" />
    <stop
       offset="1"
       stop-color="#77767b"
       id="stop17"
       style="stop-color:#5e5e5e;stop-opacity:1" />
  </linearGradient>
  <linearGradient
     id="c"
     gradientTransform="matrix(1 0 0 0.850001 0 -135.925327)"
     gradientUnits="userSpaceOnUse"
     x1="48.00016"
     x2="80.00016"
     y1="275.499908"
     y2="275.499908">
    <stop
       offset="0"
       stop-color="#e8e7e4"
       id="stop20"
       style="stop-color:#e5e5e5;stop-opacity:1" />
    <stop
       offset="0.511049"
       stop-color="#ffffff"
       id="stop22"
       style="stop-color:#f0f0f2;stop-opacity:1" />
    <stop
       offset="1"
       stop-color="#c2bfba"
       id="stop24"
       style="stop-color:#c2c2c2;stop-opacity:1" />
  </linearGradient>
  <path
     d="m 28 16 h 72 c 4.417969 0 8 3.582031 8 8 v 88 c 0 4.417969 -3.582031 8 -8 8 h -72 c -4.417969 0 -8 -3.582031 -8 -8 v -88 c 0 -4.417969 3.582031 -8 8 -8 z m 0 0"
     fill="url(#a)"
     id="path27" />
  <path
     d="m 28 8 h 72 c 4.417969 0 8 3.582031 8 8 v 92 c 0 4.417969 -3.582031 8 -8 8 h -72 c -4.417969 0 -8 -3.582031 -8 -8 v -92 c 0 -4.417969 3.582031 -8 8 -8 z m 0 0"
     fill="#f6f5f4"
     id="path29"
     style="fill:#f0f0f2" />
  <path
     style="color:#000000;clip-rule:nonzero;display:inline;overflow:visible;visibility:visible;isolation:auto;mix-blend-mode:normal;color-interpolation:sRGB;color-interpolation-filters:linearRGB;solid-color:#000000;solid-opacity:1;fill:#f7812b;fill-opacity:1;fill-rule:nonzero;stroke:none;stroke-width:0.999997;stroke-linecap:butt;stroke-linejoin:round;stroke-miterlimit:4;stroke-dasharray:none;stroke-dashoffset:0;stroke-opacity:1;marker:none;color-rendering:auto;image-rendering:auto;shape-rendering:auto;text-rendering:auto;enable-background:accumulate"
     id="rect3029"
     d="m 79.200449,47.830332 c 0,-0.736896 0.114893,-1.345292 0.344555,-1.825192 0.229694,-0.496963 0.538924,-0.891137 0.927673,-1.182522 0.406385,-0.308444 0.874636,-0.522667 1.404735,-0.642672 0.547776,-0.119929 1.122034,-0.179903 1.722815,-0.179946 0.600766,3.9e-5 1.166196,0.06002 1.696303,0.179946 0.530081,0.120015 0.989503,0.334228 1.378253,0.642672 0.406394,0.291385 0.724443,0.685559 0.954163,1.182522 0.247357,0.4799 0.371053,1.088296 0.371053,1.825192 0,0.719829 -0.123713,1.328225 -0.371053,1.825191 -0.22972,0.497036 -0.547769,0.899778 -0.954163,1.208226 -0.38875,0.291381 -0.848172,0.505604 -1.378253,0.642675 -0.530107,0.119993 -1.095537,0.179991 -1.696303,0.179946 -0.600781,3.3e-5 -1.175039,-0.05995 -1.722815,-0.179946 -0.530099,-0.13706 -0.99835,-0.351294 -1.404735,-0.642675 -0.388749,-0.308448 -0.697979,-0.71119 -0.927673,-1.208226 -0.229703,-0.496966 -0.344555,-1.105362 -0.344555,-1.825191 M 87.628946,84 H 79.545004 V 55.12237 h 8.083942 V 84 M 66.981771,84 64.331314,75.053984 H 50.972939 L 48.295968,84 H 40.000001 L 52.589713,46.046543 H 62.635012 L 75.277738,84 H 66.981771 M 62.422972,68.370178 59.931536,60.143956 C 59.825459,59.835497 59.666456,59.329929 59.45444,58.627248 59.24229,57.924616 59.012679,57.15341 58.765322,56.313622 58.535602,55.456752 58.314718,54.599856 58.102694,53.742928 57.89055,52.88606 57.74046,52.1577 57.652115,51.55784 c -0.07073,0.377065 -0.167822,0.822652 -0.291534,1.336761 -0.106086,0.514166 -0.238566,1.062581 -0.397569,1.645244 -0.141366,0.565581 -0.291585,1.139701 -0.450588,1.722364 -0.159003,0.582718 -0.309246,1.131132 -0.450578,1.645244 -0.141358,0.514164 -0.273898,0.968322 -0.397568,1.362468 -0.106068,0.394196 -0.185459,0.685544 -0.238547,0.874035 l -2.46493,8.226222 h 9.462171" />
</svg>
