<?xml version="1.0" encoding="UTF-8" standalone="no"?>
<svg
   height="128px"
   viewBox="0 0 128 128"
   width="128px"
   version="1.1"
   id="svg49"
   xmlns="http://www.w3.org/2000/svg"
   xmlns:svg="http://www.w3.org/2000/svg">
  <defs
     id="defs53">
    <linearGradient
       id="paint6_linear"
       x1="49.1168"
       y1="1.32953"
       x2="49.1168"
       y2="116.908"
       gradientUnits="userSpaceOnUse"
       gradientTransform="translate(118.9627,15.595)">
      <stop
         stop-color="#64BAFF"
         id="stop1000" />
      <stop
         offset="1"
         stop-color="#3689E6"
         id="stop1002" />
    </linearGradient>
    <linearGradient
       id="paint7_linear"
       x1="68.8266"
       y1="0.536857"
       x2="68.8266"
       y2="118.684"
       gradientUnits="userSpaceOnUse"
       gradientTransform="translate(118.9627,15.595)">
      <stop
         stop-color="#64BAFF"
         id="stop1005" />
      <stop
         offset="1"
         stop-color="#3689E6"
         id="stop1007" />
    </linearGradient>
  </defs>
  <linearGradient
     id="a"
     gradientTransform="matrix(0.196428 0 0 0.342105 2.59702 273.739929)"
     gradientUnits="userSpaceOnUse"
     x1="88.595886"
     x2="536.595886"
     y1="-449.394012"
     y2="-449.394012">
    <stop
       offset="0"
       stop-color="#deddda"
       id="stop2"
       style="stop-color:#d0d0d0;stop-opacity:1" />
    <stop
       offset="0.0454546"
       stop-color="#eeeeec"
       id="stop4"
       style="stop-color:#e5e5e5;stop-opacity:1" />
    <stop
       offset="0.0909091"
       stop-color="#deddda"
       id="stop6"
       style="stop-color:#d0d0d0;stop-opacity:1" />
    <stop
       offset="0.909091"
       stop-color="#deddda"
       id="stop8"
       style="stop-color:#d0d0d0;stop-opacity:1" />
    <stop
       offset="0.954545"
       stop-color="#eeeeec"
       id="stop10"
       style="stop-color:#e5e5e5;stop-opacity:1" />
    <stop
       offset="1"
       stop-color="#c0bfbc"
       id="stop12"
       style="stop-color:#d0d0d0;stop-opacity:1" />
  </linearGradient>
  <linearGradient
     id="b"
     gradientUnits="userSpaceOnUse"
     x1="58.999043"
     x2="69.00042"
     y1="63.999893"
     y2="63.999893">
    <stop
       offset="0"
       stop-color="#9a9996"
       id="stop15"
       style="stop-color:#a5a5a5;stop-opacity:1" />
    <stop
       offset="1"
       stop-color="#77767b"
       id="stop17"
       style="stop-color:#5e5e5e;stop-opacity:1" />
  </linearGradient>
  <linearGradient
     id="c"
     gradientTransform="matrix(1 0 0 0.850001 0 -135.925327)"
     gradientUnits="userSpaceOnUse"
     x1="48.00016"
     x2="80.00016"
     y1="275.499908"
     y2="275.499908">
    <stop
       offset="0"
       stop-color="#e8e7e4"
       id="stop20"
       style="stop-color:#e5e5e5;stop-opacity:1" />
    <stop
       offset="0.511049"
       stop-color="#ffffff"
       id="stop22"
       style="stop-color:#f0f0f2;stop-opacity:1" />
    <stop
       offset="1"
       stop-color="#c2bfba"
       id="stop24"
       style="stop-color:#c2c2c2;stop-opacity:1" />
  </linearGradient>
  <path
     d="m 28 16 h 72 c 4.417969 0 8 3.582031 8 8 v 88 c 0 4.417969 -3.582031 8 -8 8 h -72 c -4.417969 0 -8 -3.582031 -8 -8 v -88 c 0 -4.417969 3.582031 -8 8 -8 z m 0 0"
     fill="url(#a)"
     id="path27" />
  <path
     d="m 28 8 h 72 c 4.417969 0 8 3.582031 8 8 v 92 c 0 4.417969 -3.582031 8 -8 8 h -72 c -4.417969 0 -8 -3.582031 -8 -8 v -92 c 0 -4.417969 3.582031 -8 8 -8 z m 0 0"
     fill="#f6f5f4"
     id="path29"
     style="fill:#f0f0f2" />
  <g
     id="g1065"
     transform="matrix(0.69789961,0,0,0.69789961,-63.96101,11.242279)"
     style="stroke-width:1.43287">
    <path
       d="M 171.2354,97.595 H 161.69 v -37 h -12.7273 v -8 h 35 v 8 h -12.7273 z"
       fill="url(#paint6_linear)"
       id="path960"
       style="fill:url(#paint6_linear);stroke-width:1.43287" />
    <path
       d="m 201.737,52.595 c -8.3264,0 -13.664,5.2771 -13.664,12.2093 0,7.5185 4.4782,11.0744 11.21,13.9116 l 2.3299,0.993 c 4.2491,1.8442 6.3498,2.9696 6.3498,6.1377 0,2.6386 -2.0243,4.549 -5.8915,4.549 -4.6024,0 -6.7795,-3.0925 -8.7752,-6.3269 l -7.3333,4.8421 c 2.7404,5.3622 7.658,9.6842 16.3186,9.6842 8.8611,0 15.4592,-4.5584 15.4592,-12.8713 0,-7.7171 -4.4688,-11.1501 -12.4036,-14.5169 l -2.3299,-0.9835 c -4.0009,-1.7212 -5.7387,-2.8372 -5.7387,-5.6082 0,-2.2413 1.7378,-3.9625 4.4687,-3.9625 2.6832,0 4.4019,1.1254 5.9965,3.9625 L 215,60 c -3.065,-5.3622 -7.3333,-7.405 -13.263,-7.405 z"
       fill="url(#paint7_linear)"
       id="path962"
       style="fill:url(#paint7_linear);stroke-width:1.43287" />
  </g>
</svg>
