<?xml version="1.0" encoding="UTF-8" standalone="no"?>
<svg
   height="128px"
   viewBox="0 0 128 128"
   width="128px"
   version="1.1"
   id="svg49"
   xmlns="http://www.w3.org/2000/svg"
   xmlns:svg="http://www.w3.org/2000/svg">
  <defs
     id="defs53" />
  <linearGradient
     id="a"
     gradientTransform="matrix(0.196428 0 0 0.342105 2.59702 273.739929)"
     gradientUnits="userSpaceOnUse"
     x1="88.595886"
     x2="536.595886"
     y1="-449.394012"
     y2="-449.394012">
    <stop
       offset="0"
       stop-color="#deddda"
       id="stop2"
       style="stop-color:#d0d0d0;stop-opacity:1" />
    <stop
       offset="0.0454546"
       stop-color="#eeeeec"
       id="stop4"
       style="stop-color:#e5e5e5;stop-opacity:1" />
    <stop
       offset="0.0909091"
       stop-color="#deddda"
       id="stop6"
       style="stop-color:#d0d0d0;stop-opacity:1" />
    <stop
       offset="0.909091"
       stop-color="#deddda"
       id="stop8"
       style="stop-color:#d0d0d0;stop-opacity:1" />
    <stop
       offset="0.954545"
       stop-color="#eeeeec"
       id="stop10"
       style="stop-color:#e5e5e5;stop-opacity:1" />
    <stop
       offset="1"
       stop-color="#c0bfbc"
       id="stop12"
       style="stop-color:#d0d0d0;stop-opacity:1" />
  </linearGradient>
  <linearGradient
     id="b"
     gradientUnits="userSpaceOnUse"
     x1="58.999043"
     x2="69.00042"
     y1="63.999893"
     y2="63.999893">
    <stop
       offset="0"
       stop-color="#9a9996"
       id="stop15"
       style="stop-color:#a5a5a5;stop-opacity:1" />
    <stop
       offset="1"
       stop-color="#77767b"
       id="stop17"
       style="stop-color:#5e5e5e;stop-opacity:1" />
  </linearGradient>
  <linearGradient
     id="c"
     gradientTransform="matrix(1 0 0 0.850001 0 -135.925327)"
     gradientUnits="userSpaceOnUse"
     x1="48.00016"
     x2="80.00016"
     y1="275.499908"
     y2="275.499908">
    <stop
       offset="0"
       stop-color="#e8e7e4"
       id="stop20"
       style="stop-color:#e5e5e5;stop-opacity:1" />
    <stop
       offset="0.511049"
       stop-color="#ffffff"
       id="stop22"
       style="stop-color:#f0f0f2;stop-opacity:1" />
    <stop
       offset="1"
       stop-color="#c2bfba"
       id="stop24"
       style="stop-color:#c2c2c2;stop-opacity:1" />
  </linearGradient>
  <path
     d="m 28 16 h 72 c 4.417969 0 8 3.582031 8 8 v 88 c 0 4.417969 -3.582031 8 -8 8 h -72 c -4.417969 0 -8 -3.582031 -8 -8 v -88 c 0 -4.417969 3.582031 -8 8 -8 z m 0 0"
     fill="url(#a)"
     id="path27" />
  <path
     d="m 28 8 h 72 c 4.417969 0 8 3.582031 8 8 v 92 c 0 4.417969 -3.582031 8 -8 8 h -72 c -4.417969 0 -8 -3.582031 -8 -8 v -92 c 0 -4.417969 3.582031 -8 8 -8 z m 0 0"
     fill="#f6f5f4"
     id="path29"
     style="fill:#f0f0f2" />
  <path
     d="m 67.200001,42.000001 -27.2,4.821427 v 35.357144 l 27.2,4.821429 z M 68.8,46.821428 v 4.82143 h 14.400001 v 1.607143 H 68.8 v 3.214286 h 14.400001 v 1.607141 H 68.8 v 3.214287 h 14.400001 v 1.607143 H 68.8 v 3.214286 h 14.400001 v 1.607143 H 68.8 v 3.214284 h 14.400001 v 1.607144 H 68.8 v 3.214286 h 14.400001 v 1.607143 H 68.8 v 4.821428 H 88.000001 V 46.821428 Z m -9.399999,9.492189 h 1.55 c 1.421624,0 1.511624,0.09548 1.349999,0.803571 -0.09622,0.42157 -0.910399,4.168196 -1.799999,8.337054 l -1.6,7.583705 h -1.65 c -0.899712,0 -1.63276,-0.05362 -1.65,-0.100447 -0.0172,-0.04685 -0.534049,-2.526724 -1.15,-5.524553 -0.615952,-2.99783 -1.20016,-5.253144 -1.3,-4.972098 -0.09984,0.281047 -0.625113,2.745765 -1.15,5.424107 l -0.95,4.871652 -1.5,-0.100446 -1.55,-0.100447 -1.25,-6.679688 C 46.052569,62.202421 45.394264,58.818301 45.3,58.322545 c -0.155967,-0.820217 -0.04912,-0.9258 1.050001,-1.054687 1.5314,-0.17958 1.596959,-0.02075 2.5,5.876116 0.385792,2.519213 0.697663,4.618195 0.75,4.670759 0.05232,0.05257 0.60216,-2.33631 1.2,-5.273438 0.59784,-2.937127 1.269536,-5.427741 1.499999,-5.574776 0.663289,-0.423174 2.526505,-0.318247 2.700001,0.150669 0.08666,0.234206 0.624367,2.767693 1.15,5.625 0.879416,4.78046 1.497336,6.521583 1.499999,4.21875 8.01e-4,-0.919727 0.703265,-5.311154 1.4,-8.839285 z"
     id="rect3139"
     style="color:#000000;clip-rule:nonzero;display:inline;overflow:visible;visibility:visible;isolation:auto;mix-blend-mode:normal;color-interpolation:sRGB;color-interpolation-filters:linearRGB;solid-color:#000000;solid-opacity:1;fill:#268ef9;fill-opacity:1;fill-rule:nonzero;stroke:none;stroke-width:1;stroke-linecap:butt;stroke-linejoin:miter;stroke-miterlimit:4;stroke-dasharray:none;stroke-dashoffset:0;stroke-opacity:1;marker:none;color-rendering:auto;image-rendering:auto;shape-rendering:auto;text-rendering:auto;enable-background:accumulate" />
</svg>
