<svg xmlns="http://www.w3.org/2000/svg" xmlns:svg="http://www.w3.org/2000/svg" id="svg51" width="128" height="128" version="1.1" viewBox="0 0 128 128" xml:space="preserve"><defs id="defs55"><filter style="color-interpolation-filters:sRGB" id="filter1307" width="1.272" height="1.278" x="-.136" y="-.139"><feGaussianBlur id="feGaussianBlur1309" stdDeviation="2.2"/></filter></defs><linearGradient id="a" x1="88.596" x2="536.596" y1="-449.394" y2="-449.394" gradientTransform="matrix(0.232143 0 0 0.336527 -8.56686 267.233826)" gradientUnits="userSpaceOnUse"><stop id="stop2" offset="0" stop-color="#77767b" style="stop-color:#a5a5a5;stop-opacity:1"/><stop id="stop4" offset=".038" stop-color="#c0bfbc" style="stop-color:#e5e5e5;stop-opacity:1"/><stop id="stop6" offset=".077" stop-color="#9a9996" style="stop-color:#a5a5a5;stop-opacity:1"/><stop id="stop8" offset=".923" stop-color="#9a9996" style="stop-color:#a5a5a5;stop-opacity:1"/><stop id="stop10" offset=".962" stop-color="#c0bfbc" style="stop-color:#e5e5e5;stop-opacity:1"/><stop id="stop12" offset="1" stop-color="#77767b" style="stop-color:#a5a5a5;stop-opacity:1"/></linearGradient><filter id="b" width="1" height="1" x="0" y="0"><feColorMatrix id="feColorMatrix15" in="SourceGraphic" type="matrix" values="0 0 0 0 1 0 0 0 0 1 0 0 0 0 1 0 0 0 1 0"/></filter><mask id="c"><g id="g20" filter="url(#b)"><rect id="rect18" width="128" height="128" fill-opacity=".8"/></g></mask><linearGradient id="d" x1="20.495" x2="121.292" y1="28.495" y2="77.01" gradientUnits="userSpaceOnUse"><stop id="stop23" offset="0" stop-color="#fff"/><stop id="stop25" offset=".511" stop-color="#f6f5f4" stop-opacity=".4"/><stop id="stop27" offset="1" stop-color="#fff"/></linearGradient><clipPath id="e"><rect id="rect30" width="192" height="152"/></clipPath><path id="path33" fill="#fff" fill-opacity=".502" d="m 20 12 h 88 c 4.417969 0 8 3.582031 8 8 v 8 c 0 4.417969 -3.582031 8 -8 8 h -88 c -4.417969 0 -8 -3.582031 -8 -8 v -8 c 0 -4.417969 3.582031 -8 8 -8 z m 0 0"/><path id="path35" fill="#77767b" d="m 19.429688 28 c -4.117188 0 -7.429688 -0.0625 -7.429688 10.640625 v 59.359375 h 104 v -58.535156 c 0 -10.707032 -3.3125 -11.464844 -7.429688 -11.464844 z m 0 0"/><ellipse style="opacity:1;fill:#db2860;stroke:#90183d;stroke-width:7.19408;stroke-linecap:round;stroke-linejoin:round;stroke-opacity:1;filter:url(#filter1307);stop-color:#000" id="path949" cx="-45.131" cy="61.646" rx="32.667" ry="31.898" transform="matrix(0.88448966,0,0,0.78642349,103.70942,17.26881)"/><path id="path39" fill="url(#a)" d="m 12 54 v 53.816406 c 0 4.535156 3.566406 8.183594 8 8.183594 h 88 c 4.433594 0 8 -3.648438 8 -8.183594 v -53.816406 c 0 4.535156 -3.566406 8.183594 -8 8.183594 h -88 c -4.433594 0 -8 -3.648438 -8 -8.183594 z m 0 0"/><g id="g43" clip-path="url(#e)" mask="url(#c)" transform="translate(-8,-16)" style="fill:#f0f0f2"><path id="path41" fill="url(#d)" d="m 28,28 h 88 c 4.41797,0 8,3.582031 8,8 v 35 c 0,4.417969 -3.58203,8 -8,8 H 28 c -4.417969,0 -8,-3.582031 -8,-8 V 36 c 0,-4.417969 3.582031,-8 8,-8 z m 0,0" style="fill:#f0f0f2"/></g><path id="path45" fill="#deddda" d="m 44,74 c -4.417969,0 -8,3.582031 -8,8 0,4.417969 3.582031,8 8,8 4.417969,0 8,-3.582031 8,-8 0,-4.417969 -3.582031,-8 -8,-8 z m 0,16 -8,16 h 16 z m 0,0" style="fill:#d0d0d0"/><path id="path47" fill="#5e5c64" d="m 44,72 c -4.417969,0 -8,3.582031 -8,8 0,4.417969 3.582031,8 8,8 4.417969,0 8,-3.582031 8,-8 0,-4.417969 -3.582031,-8 -8,-8 z m -1,16 -7,16 H 52 L 45,88 Z m 0,0" style="fill:#474747"/><path id="path49" fill="#fff" fill-opacity=".502" d="m 20 12 h 88 c 4.417969 0 8 3.582031 8 8 v 8 c 0 4.417969 -3.582031 8 -8 8 h -88 c -4.417969 0 -8 -3.582031 -8 -8 v -8 c 0 -4.417969 3.582031 -8 8 -8 z m 0 0" style="fill:#f0f0f2"/><path style="fill:#d0d0d0;fill-opacity:1;stroke-width:1" id="path328-6" d="m 83.63456,103.84881 c -4.972096,-1.00668 -9.399939,-6.466377 -11.392097,-11.15713 -2.876448,-6.404675 -1.619522,-14.713716 3.730846,-19.458858 1.749225,-1.511645 3.849672,-2.774242 6.161948,-3.126413 1.418567,0.126989 2.819777,0.452388 4.266773,0.428473 3.671115,0.454525 7.236074,2.567346 9.050421,5.849276 0.702102,0.772515 0.68585,1.895969 -0.571017,1.313913 0.366767,1.449789 0.659831,2.965043 0.456488,4.476389 -0.186934,1.867103 -0.764204,3.808769 -2.233722,5.070459 1.425994,0.504483 0.579263,1.739617 0,2 -1.81745,0.865636 -0.320279,2.065037 -2.32966,2.044678 -0.765296,-0.123951 -5.925799,0.852036 -5.89543,1.192782 -1.358112,-0.250633 -2.208997,-3.234385 -2.90932,-3.837616 -0.376817,-1.032553 -1.5394,-1.92786 -1.429063,-3.246236 -0.242856,-2.226471 0.03258,-3.992639 2.108249,-5.147663 1.241779,-0.73022 3.240842,-0.385252 4.533884,0.593793 -0.32623,0.847163 -1.765766,-0.621214 -2.641809,-0.06571 -2.713922,0.97348 -3.782246,3.566836 -2.341353,5.893956 1.053253,1.814597 3.175845,2.966847 5.28233,2.683385 3.080128,-0.295565 5.556035,-3.187622 5.790336,-6.212287 0.316173,-3.953942 -1.831716,-8.239193 -5.708278,-9.60925 -3.439031,-1.344178 -7.370886,-0.127727 -10.07359,2.212428 -1.525474,1.122815 -2.998185,2.426756 -3.683581,4.248576 -1.198842,2.833918 -1.806646,6.140082 -0.807492,9.122179 0.608758,1.307257 1.836044,2.266633 2.062891,3.764664 1.074351,2.632972 2.681243,5.175172 4.945419,6.8875 1.335774,0.65166 3.192305,2.95915 4.197177,4.08871 0.684418,0.33736 -0.08182,0.16478 -0.57035,-0.01 z m 1.39422,-11.464501 c 0,0 3.237371,-0.468164 1.43543,-0.147671 l -1.43543,0.147671 z"/><path style="fill:#474747;fill-opacity:1;stroke-width:1" id="path328" d="m 83.63456,103.84893 c -0.95261,-0.15968 -2.97265,-0.86614 -4.05094,-1.41671 -3.82649,-1.95381 -6.51078,-5.085308 -7.93362,-9.255354 -0.90621,-2.65595 -1.14477,-5.861914 -0.65043,-8.74102 0.87939,-5.121567 3.97562,-9.372939 8.32422,-11.429816 1.87745,-0.888029 3.00963,-1.096966 4.07079,-0.751237 0.43272,0.140982 0.62476,0.16294 1.81475,0.207507 1.47773,0.05534 2.17564,0.16257 3.26654,0.501876 2.28561,0.710901 4.49443,2.117086 5.76482,3.670017 0.72114,0.88152 1.61608,2.329472 1.72888,2.797223 0.0486,0.201452 -0.0483,0.407252 -0.19148,0.406614 -0.0571,-2.41e-4 -0.27549,-0.05269 -0.48542,-0.116529 -0.48683,-0.148045 -0.51084,-0.102437 -0.29688,0.564008 0.58852,1.83311 0.5223,4.235328 -0.17437,6.325794 -0.32084,0.962708 -0.63922,1.515706 -1.21853,2.116466 l -0.49869,0.51715 0.27185,0.07913 c 0.22064,0.06423 0.27184,0.105399 0.27184,0.218595 0,0.376222 -1.10131,1.045803 -2.87335,1.746953 -1.77257,0.701365 -2.58838,0.880609 -4.31033,0.947041 -1.02261,0.03945 -1.3164,0.06968 -1.43543,0.147671 l -0.14967,0.09807 0.1166,0.191743 c 0.23665,0.389137 -0.0372,0.390963 -0.79181,0.0053 -0.66225,-0.33849 -1.29853,-0.903683 -1.35906,-1.207227 -0.0627,-0.314367 -0.22729,-0.442753 -0.56763,-0.442753 -0.33355,0 -0.41495,-0.101855 -0.30742,-0.384679 0.0851,-0.223737 0.0363,-0.319478 -0.38948,-0.764659 -0.20684,-0.216258 -0.448,-0.525785 -0.53592,-0.68784 -0.42025,-0.774592 -0.60458,-1.880599 -0.52089,-3.125509 0.0944,-1.404039 0.44987,-2.479336 1.09493,-3.311942 1.37024,-1.768628 4.28366,-2.768745 5.56443,-1.910156 0.34052,0.228275 0.37804,0.410773 0.10174,0.494932 -0.11002,0.03351 -0.6204,0.07783 -1.13417,0.09849 -0.51378,0.02066 -1.12625,0.08122 -1.36106,0.134588 -1.86124,0.423031 -3.16437,2.077304 -3.28273,4.1673 -0.10622,1.875743 0.74794,3.58977 2.34163,4.698915 0.50844,0.353854 0.87823,0.536605 1.51229,0.747382 0.48192,0.160204 0.57868,0.171058 1.54253,0.173041 0.96009,0.002 1.06351,-0.009 1.55802,-0.16593 1.12232,-0.356072 2.02976,-0.934278 2.89776,-1.846403 0.57227,-0.601353 0.87904,-1.035478 1.2129,-1.716426 0.62789,-1.28067 0.8395,-2.57598 0.68041,-4.164994 -0.38663,-3.861828 -2.54216,-6.808959 -5.84193,-7.987327 -2.82328,-1.008207 -6.0449,-0.479313 -8.82474,1.448756 -0.91927,0.637598 -2.91554,2.263354 -3.29107,2.680245 -1.79679,1.994672 -3.0144,6.071037 -2.75878,9.235915 0.13829,1.712072 0.45826,2.606352 1.28548,3.59271 0.6144,0.732592 0.81976,1.096849 1.04154,1.847409 0.31647,1.070999 0.82965,2.096106 1.67191,3.339755 0.72328,1.067965 1.2029,1.643125 2.19676,2.634365 0.97928,0.9767 1.57715,1.42165 2.28158,1.69803 0.49825,0.19548 0.77895,0.41922 0.8706,0.69394 0.0868,0.26033 0.24109,0.33472 0.85328,0.41148 0.88682,0.1112 1.78323,0.59844 1.4681,0.79798 -0.0967,0.0613 -0.15174,0.0603 -0.57035,-0.01 z m 2.5219,-10.638239 c -0.55114,-0.139237 -0.3333,-0.366936 0.34987,-0.365702 0.25149,4.84e-4 0.5185,0.01724 0.59336,0.0373 0.16603,0.04449 0.17699,0.177697 0.0215,0.260926 -0.16443,0.088 -0.72756,0.127386 -0.96471,0.06748 z"/></svg>