<svg xmlns="http://www.w3.org/2000/svg" xmlns:svg="http://www.w3.org/2000/svg" id="svg49" width="128" height="128" version="1.1" viewBox="0 0 128 128" xml:space="preserve"><linearGradient id="a" x1="88.596" x2="536.596" y1="-449.394" y2="-449.394" gradientTransform="matrix(0.196428 0 0 0.342105 2.59702 273.739929)" gradientUnits="userSpaceOnUse"><stop id="stop2" offset="0" stop-color="#deddda" style="stop-color:#d0d0d0;stop-opacity:1"/><stop id="stop4" offset=".045" stop-color="#eeeeec" style="stop-color:#e5e5e5;stop-opacity:1"/><stop id="stop6" offset=".091" stop-color="#deddda" style="stop-color:#d0d0d0;stop-opacity:1"/><stop id="stop8" offset=".909" stop-color="#deddda" style="stop-color:#d0d0d0;stop-opacity:1"/><stop id="stop10" offset=".955" stop-color="#eeeeec" style="stop-color:#e5e5e5;stop-opacity:1"/><stop id="stop12" offset="1" stop-color="#c0bfbc" style="stop-color:#d0d0d0;stop-opacity:1"/></linearGradient><linearGradient id="b" x1="58.999" x2="69" y1="64" y2="64" gradientUnits="userSpaceOnUse"><stop id="stop15" offset="0" stop-color="#9a9996" style="stop-color:#a5a5a5;stop-opacity:1"/><stop id="stop17" offset="1" stop-color="#77767b" style="stop-color:#5e5e5e;stop-opacity:1"/></linearGradient><linearGradient id="c" x1="48" x2="80" y1="275.5" y2="275.5" gradientTransform="matrix(1 0 0 0.850001 0 -135.925327)" gradientUnits="userSpaceOnUse"><stop id="stop20" offset="0" stop-color="#e8e7e4" style="stop-color:#e5e5e5;stop-opacity:1"/><stop id="stop22" offset=".511" stop-color="#fff" style="stop-color:#f0f0f2;stop-opacity:1"/><stop id="stop24" offset="1" stop-color="#c2bfba" style="stop-color:#c2c2c2;stop-opacity:1"/></linearGradient><path id="path27" fill="url(#a)" d="m 28 16 h 72 c 4.417969 0 8 3.582031 8 8 v 88 c 0 4.417969 -3.582031 8 -8 8 h -72 c -4.417969 0 -8 -3.582031 -8 -8 v -88 c 0 -4.417969 3.582031 -8 8 -8 z m 0 0"/><path id="path29" fill="#f6f5f4" d="m 28 8 h 72 c 4.417969 0 8 3.582031 8 8 v 92 c 0 4.417969 -3.582031 8 -8 8 h -72 c -4.417969 0 -8 -3.582031 -8 -8 v -92 c 0 -4.417969 3.582031 -8 8 -8 z m 0 0" style="fill:#f0f0f2"/><path id="path1186" d="m 46.058828,31.999999 c 0.564825,0.78103 1.737803,1.329419 1.44234,2.447594 0,19.796507 0,39.593015 0,59.389522 -0.523383,1.099079 -1.540807,3.172816 0.353762,1.224372 8.153025,-6.394132 16.304398,-12.790399 24.444943,-19.200412 0.303549,-1.029537 -1.460689,-1.117051 -1.142925,-2.154089 -0.03374,-12.935876 -0.06747,-25.871752 -0.101209,-38.807628 -1.441483,-0.936788 -2.81088,-2.104169 -4.297602,-2.899359 -6.89977,0 -13.799539,0 -20.699309,0 z" class="UnoptimicedTransforms" style="fill:none" transform="translate(4.8030119,0.06796027)"/><path id="path357" style="fill:#5e5e5e;fill-opacity:1;stroke-width:.999997" d="m 46.058828,31.999999 c 0.564825,0.78103 1.737803,1.329419 1.44234,2.447594 0,19.796507 0,39.593015 0,59.389522 -0.523383,1.099079 -1.540807,3.172816 0.353762,1.224372 8.153025,-6.394132 16.304398,-12.790399 24.444943,-19.200412 0.303549,-1.029537 -1.460689,-1.117051 -1.142925,-2.154089 -0.03374,-12.935876 -0.06747,-25.871752 -0.101209,-38.807628 -1.441483,-0.936788 -2.81088,-2.104169 -4.297602,-2.899359 -6.89977,0 -13.799539,0 -20.699309,0 z m 10.397325,9.255932 c 1.950016,0.02027 3.900051,0.03863 5.850103,0.05506 -0.0307,8.29736 0.154825,16.60429 -0.07708,24.894124 -1.868655,1.631255 -3.777734,3.218423 -5.717979,4.76375 -0.09451,-9.903584 -0.0409,-19.80876 -0.05505,-29.712934 z m 25.429958,39.020254 c 0.06253,0.157106 0.09387,-0.07556 0,0 z" class="UnoptimicedTransforms" transform="translate(4.8030119,0.06796027)"/></svg>