<svg xmlns="http://www.w3.org/2000/svg" xmlns:svg="http://www.w3.org/2000/svg" id="svg49" width="128" height="128" version="1.1" viewBox="0 0 128 128"><linearGradient id="a" x1="88.596" x2="536.596" y1="-449.394" y2="-449.394" gradientTransform="matrix(0.196428 0 0 0.342105 2.59702 273.739929)" gradientUnits="userSpaceOnUse"><stop id="stop2" offset="0" stop-color="#deddda" style="stop-color:#d0d0d0;stop-opacity:1"/><stop id="stop4" offset=".045" stop-color="#eeeeec" style="stop-color:#e5e5e5;stop-opacity:1"/><stop id="stop6" offset=".091" stop-color="#deddda" style="stop-color:#d0d0d0;stop-opacity:1"/><stop id="stop8" offset=".909" stop-color="#deddda" style="stop-color:#d0d0d0;stop-opacity:1"/><stop id="stop10" offset=".955" stop-color="#eeeeec" style="stop-color:#e5e5e5;stop-opacity:1"/><stop id="stop12" offset="1" stop-color="#c0bfbc" style="stop-color:#d0d0d0;stop-opacity:1"/></linearGradient><linearGradient id="b" x1="58.999" x2="69" y1="64" y2="64" gradientUnits="userSpaceOnUse"><stop id="stop15" offset="0" stop-color="#9a9996" style="stop-color:#a5a5a5;stop-opacity:1"/><stop id="stop17" offset="1" stop-color="#77767b" style="stop-color:#5e5e5e;stop-opacity:1"/></linearGradient><linearGradient id="c" x1="48" x2="80" y1="275.5" y2="275.5" gradientTransform="matrix(1 0 0 0.850001 0 -135.925327)" gradientUnits="userSpaceOnUse"><stop id="stop20" offset="0" stop-color="#e8e7e4" style="stop-color:#e5e5e5;stop-opacity:1"/><stop id="stop22" offset=".511" stop-color="#fff" style="stop-color:#f0f0f2;stop-opacity:1"/><stop id="stop24" offset="1" stop-color="#c2bfba" style="stop-color:#c2c2c2;stop-opacity:1"/></linearGradient><path id="path27" fill="url(#a)" d="m 28 16 h 72 c 4.417969 0 8 3.582031 8 8 v 88 c 0 4.417969 -3.582031 8 -8 8 h -72 c -4.417969 0 -8 -3.582031 -8 -8 v -88 c 0 -4.417969 3.582031 -8 8 -8 z m 0 0"/><path id="path29" fill="#f6f5f4" d="m 28 8 h 72 c 4.417969 0 8 3.582031 8 8 v 92 c 0 4.417969 -3.582031 8 -8 8 h -72 c -4.417969 0 -8 -3.582031 -8 -8 v -92 c 0 -4.417969 3.582031 -8 8 -8 z m 0 0" style="fill:#f0f0f2"/><g id="g1767"><path id="rect863" style="fill:#5e5e5e;stroke-width:9.99999;stroke-linecap:round;stroke-linejoin:round;stop-color:#000" d="m 40,40 h 5.333334 v 5.333334 H 40 Z"/><path id="rect863-3" style="fill:#5e5e5e;stroke-width:9.99999;stroke-linecap:round;stroke-linejoin:round;stop-color:#000" d="m 82.666664,40 h 5.333334 v 5.333334 h -5.333334 z"/><path id="rect863-3-6" style="fill:#5e5e5e;stroke-width:9.99999;stroke-linecap:round;stroke-linejoin:round;stop-color:#000" d="m 82.666664,82.666664 h 5.333334 v 5.333334 h -5.333334 z"/><path id="rect863-3-6-7-0" style="fill:#5e5e5e;stroke-width:9.99999;stroke-linecap:round;stroke-linejoin:round;stop-color:#000" d="m 45.333328,45.333328 h 5.333334 v 5.333334 h -5.333334 z"/><path id="rect863-3-6-7-93" style="fill:#5e5e5e;stroke-width:9.99999;stroke-linecap:round;stroke-linejoin:round;stop-color:#000" d="m 50.666664,50.666664 h 5.333334 v 5.333334 h -5.333334 z"/><path id="rect863-3-6-7-6" style="fill:#5e5e5e;stroke-width:9.99999;stroke-linecap:round;stroke-linejoin:round;stop-color:#000" d="m 56,56 h 5.333334 v 5.333334 H 56 Z"/><path id="rect863-3-6-7-06" style="fill:#5e5e5e;stroke-width:9.99999;stroke-linecap:round;stroke-linejoin:round;stop-color:#000" d="m 66.666672,66.666672 h 5.333334 v 5.333334 h -5.333334 z"/><path id="rect863-3-6-7-26" style="fill:#5e5e5e;stroke-width:9.99999;stroke-linecap:round;stroke-linejoin:round;stop-color:#000" d="m 72,72 h 5.333334 v 5.333334 H 72 Z"/><path id="rect863-3-6-7-18" style="fill:#5e5e5e;stroke-width:9.99999;stroke-linecap:round;stroke-linejoin:round;stop-color:#000" d="m 77.333328,77.333328 h 5.333334 v 5.333334 h -5.333334 z"/><path id="rect863-3-6-7-7" style="fill:#5e5e5e;stroke-width:9.99999;stroke-linecap:round;stroke-linejoin:round;stop-color:#000" d="m 82.666664,50.666664 h 5.333334 v 5.333334 h -5.333334 z"/><path id="rect863-3-6-7-92" style="fill:#5e5e5e;stroke-width:9.99999;stroke-linecap:round;stroke-linejoin:round;stop-color:#000" d="m 77.333328,56 h 5.333334 v 5.333334 h -5.333334 z"/><path id="rect863-3-6-7-02" style="fill:#5e5e5e;stroke-width:9.99999;stroke-linecap:round;stroke-linejoin:round;stop-color:#000" d="m 72,61.333332 h 5.333334 v 5.333334 H 72 Z"/><path id="rect863-3-6-7-37" style="fill:#5e5e5e;stroke-width:9.99999;stroke-linecap:round;stroke-linejoin:round;stop-color:#000" d="m 61.333332,72 h 5.333334 v 5.333334 h -5.333334 z"/><path id="rect863-3-6-7-59" style="fill:#5e5e5e;stroke-width:9.99999;stroke-linecap:round;stroke-linejoin:round;stop-color:#000" d="m 56,77.333328 h 5.333334 v 5.333334 H 56 Z"/><path id="rect863-3-6-7-22" style="fill:#5e5e5e;stroke-width:9.99999;stroke-linecap:round;stroke-linejoin:round;stop-color:#000" d="m 50.666664,82.666664 h 5.333334 v 5.333334 h -5.333334 z"/><path id="rect863-3-6-7-8" style="fill:#5e5e5e;stroke-width:9.99999;stroke-linecap:round;stroke-linejoin:round;stop-color:#000" d="m 61.333332,82.666664 h 5.333334 v 5.333334 h -5.333334 z"/><path id="rect863-3-6-7-97" style="fill:#5e5e5e;stroke-width:9.99999;stroke-linecap:round;stroke-linejoin:round;stop-color:#000" d="m 72,82.666664 h 5.333334 v 5.333334 H 72 Z"/><path id="rect863-3-6-7-36" style="fill:#5e5e5e;stroke-width:9.99999;stroke-linecap:round;stroke-linejoin:round;stop-color:#000" d="m 66.666672,77.333328 h 5.333334 v 5.333334 h -5.333334 z"/><path id="rect863-3-6-7-12" style="fill:#5e5e5e;stroke-width:9.99999;stroke-linecap:round;stroke-linejoin:round;stop-color:#000" d="m 77.333328,66.666672 h 5.333334 v 5.333334 h -5.333334 z"/><path id="rect863-3-6-7-931" style="fill:#5e5e5e;stroke-width:9.99999;stroke-linecap:round;stroke-linejoin:round;stop-color:#000" d="m 82.666664,72 h 5.333334 v 5.333334 h -5.333334 z"/><path id="rect863-3-6-7-94" style="fill:#5e5e5e;stroke-width:9.99999;stroke-linecap:round;stroke-linejoin:round;stop-color:#000" d="m 82.666664,61.333332 h 5.333334 v 5.333334 h -5.333334 z"/><path id="rect863-3-6-7-78" style="fill:#5e5e5e;stroke-width:9.99999;stroke-linecap:round;stroke-linejoin:round;stop-color:#000" d="m 50.666664,61.333332 h 5.333334 v 5.333334 h -5.333334 z"/><path id="rect863-3-6-7-4" style="fill:#5e5e5e;stroke-width:9.99999;stroke-linecap:round;stroke-linejoin:round;stop-color:#000" d="m 45.333328,56 h 5.333334 v 5.333334 h -5.333334 z"/><path id="rect863-3-6-7-50" style="fill:#5e5e5e;stroke-width:9.99999;stroke-linecap:round;stroke-linejoin:round;stop-color:#000" d="m 40,61.333332 h 5.333334 v 5.333334 H 40 Z"/><path id="rect863-3-6-7-361" style="fill:#5e5e5e;stroke-width:9.99999;stroke-linecap:round;stroke-linejoin:round;stop-color:#000" d="m 40,72 h 5.333334 v 5.333334 H 40 Z"/><path id="rect863-3-6-7-063" style="fill:#5e5e5e;stroke-width:9.99999;stroke-linecap:round;stroke-linejoin:round;stop-color:#000" d="m 45.333328,66.666672 h 5.333334 v 5.333334 h -5.333334 z"/><path id="rect863-3-6-7-20" style="fill:#5e5e5e;stroke-width:9.99999;stroke-linecap:round;stroke-linejoin:round;stop-color:#000" d="m 40,50.666664 h 5.333334 v 5.333334 H 40 Z"/><path id="rect863-3-6-7-61" style="fill:#5e5e5e;stroke-width:9.99999;stroke-linecap:round;stroke-linejoin:round;stop-color:#000" d="m 50.666664,40 h 5.333334 v 5.333334 h -5.333334 z"/><path id="rect863-3-6-7-55" style="fill:#5e5e5e;stroke-width:9.99999;stroke-linecap:round;stroke-linejoin:round;stop-color:#000" d="m 56,45.333328 h 5.333334 v 5.333334 H 56 Z"/><path id="rect863-3-6-7-47" style="fill:#5e5e5e;stroke-width:9.99999;stroke-linecap:round;stroke-linejoin:round;stop-color:#000" d="m 61.333332,50.666664 h 5.333334 v 5.333334 h -5.333334 z"/><path id="rect863-3-6-7-65" style="fill:#5e5e5e;stroke-width:9.99999;stroke-linecap:round;stroke-linejoin:round;stop-color:#000" d="m 66.666672,45.333328 h 5.333334 v 5.333334 h -5.333334 z"/><path id="rect863-3-6-7-69" style="fill:#5e5e5e;stroke-width:9.99999;stroke-linecap:round;stroke-linejoin:round;stop-color:#000" d="m 72,40 h 5.333334 v 5.333334 H 72 Z"/><path id="rect863-3-6-7-374" style="fill:#5e5e5e;stroke-width:9.99999;stroke-linecap:round;stroke-linejoin:round;stop-color:#000" d="m 61.333332,40 h 5.333334 v 5.333334 h -5.333334 z"/><path id="rect863-3-6-7" style="fill:#5e5e5e;stroke-width:9.99999;stroke-linecap:round;stroke-linejoin:round;stop-color:#000" d="m 40,82.666664 h 5.333334 v 5.333334 H 40 Z"/><path id="rect863-3-6-7-5" style="fill:#5e5e5e;stroke-width:9.99999;stroke-linecap:round;stroke-linejoin:round;stop-color:#000" d="m 45.333328,77.333328 h 5.333334 v 5.333334 h -5.333334 z"/><path id="rect863-3-6-7-3" style="fill:#5e5e5e;stroke-width:9.99999;stroke-linecap:round;stroke-linejoin:round;stop-color:#000" d="m 50.666664,72 h 5.333334 v 5.333334 h -5.333334 z"/><path id="rect863-3-6-7-56" style="fill:#5e5e5e;stroke-width:9.99999;stroke-linecap:round;stroke-linejoin:round;stop-color:#000" d="m 56,66.666672 h 5.333334 v 5.333334 H 56 Z"/><path id="rect863-3-6-7-2" style="fill:#5e5e5e;stroke-width:9.99999;stroke-linecap:round;stroke-linejoin:round;stop-color:#000" d="m 61.333332,61.333332 h 5.333334 v 5.333334 h -5.333334 z"/><path id="rect863-3-6-7-9" style="fill:#5e5e5e;stroke-width:9.99999;stroke-linecap:round;stroke-linejoin:round;stop-color:#000" d="m 66.666672,56 h 5.333334 v 5.333334 h -5.333334 z"/><path id="rect863-3-6-7-1" style="fill:#5e5e5e;stroke-width:9.99999;stroke-linecap:round;stroke-linejoin:round;stop-color:#000" d="m 72,50.666664 h 5.333334 v 5.333334 H 72 Z"/><path id="rect863-3-6-7-27" style="fill:#5e5e5e;stroke-width:9.99999;stroke-linecap:round;stroke-linejoin:round;stop-color:#000" d="m 77.333328,45.333328 h 5.333334 v 5.333334 h -5.333334 z"/></g></svg>