<?xml version="1.0" encoding="UTF-8" standalone="no"?>
<svg
   height="128px"
   viewBox="0 0 128 128"
   width="128px"
   version="1.1"
   id="svg51"
   xml:space="preserve"
   xmlns="http://www.w3.org/2000/svg"
   xmlns:svg="http://www.w3.org/2000/svg"><defs
     id="defs55"><filter
       style="color-interpolation-filters:sRGB"
       id="filter1307"
       x="-0.13585928"
       y="-0.13913317"
       width="1.2717186"
       height="1.2782663"><feGaussianBlur
         stdDeviation="2.1996534"
         id="feGaussianBlur1309" /></filter></defs><linearGradient
     id="a"
     gradientTransform="matrix(0.232143 0 0 0.336527 -8.56686 267.233826)"
     gradientUnits="userSpaceOnUse"
     x1="88.595886"
     x2="536.595886"
     y1="-449.394012"
     y2="-449.394012"><stop
       offset="0"
       stop-color="#77767b"
       id="stop2"
       style="stop-color:#a5a5a5;stop-opacity:1" /><stop
       offset="0.0384615"
       stop-color="#c0bfbc"
       id="stop4"
       style="stop-color:#e5e5e5;stop-opacity:1" /><stop
       offset="0.0768555"
       stop-color="#9a9996"
       id="stop6"
       style="stop-color:#a5a5a5;stop-opacity:1" /><stop
       offset="0.923077"
       stop-color="#9a9996"
       id="stop8"
       style="stop-color:#a5a5a5;stop-opacity:1" /><stop
       offset="0.961538"
       stop-color="#c0bfbc"
       id="stop10"
       style="stop-color:#e5e5e5;stop-opacity:1" /><stop
       offset="1"
       stop-color="#77767b"
       id="stop12"
       style="stop-color:#a5a5a5;stop-opacity:1" /></linearGradient><filter
     id="b"
     height="1"
     width="1"
     x="0"
     y="0"><feColorMatrix
       in="SourceGraphic"
       type="matrix"
       values="0 0 0 0 1 0 0 0 0 1 0 0 0 0 1 0 0 0 1 0"
       id="feColorMatrix15" /></filter><mask
     id="c"><g
       filter="url(#b)"
       id="g20"><rect
         fill-opacity="0.8"
         height="128"
         width="128"
         id="rect18" /></g></mask><linearGradient
     id="d"
     gradientUnits="userSpaceOnUse"
     x1="20.495266"
     x2="121.292053"
     y1="28.495239"
     y2="77.00975"><stop
       offset="0"
       stop-color="#ffffff"
       id="stop23" /><stop
       offset="0.511049"
       stop-color="#f6f5f4"
       stop-opacity="0.4"
       id="stop25" /><stop
       offset="1"
       stop-color="#ffffff"
       id="stop27" /></linearGradient><clipPath
     id="e"><rect
       height="152"
       width="192"
       id="rect30" /></clipPath><path
     d="m 20 12 h 88 c 4.417969 0 8 3.582031 8 8 v 8 c 0 4.417969 -3.582031 8 -8 8 h -88 c -4.417969 0 -8 -3.582031 -8 -8 v -8 c 0 -4.417969 3.582031 -8 8 -8 z m 0 0"
     fill="#ffffff"
     fill-opacity="0.501961"
     id="path33" /><path
     d="m 19.429688 28 c -4.117188 0 -7.429688 -0.0625 -7.429688 10.640625 v 59.359375 h 104 v -58.535156 c 0 -10.707032 -3.3125 -11.464844 -7.429688 -11.464844 z m 0 0"
     fill="#77767b"
     id="path35" /><ellipse
     style="opacity:1;fill:#e66609;stroke:#a24806;stroke-width:7.19408;stroke-linecap:round;stroke-linejoin:round;stroke-opacity:1;filter:url(#filter1307);stop-color:#000000"
     id="path949"
     cx="-45.131096"
     cy="61.645962"
     rx="32.66692"
     ry="31.898247"
     transform="matrix(0.88448966,0,0,0.78642349,103.70942,17.26881)" /><path
     d="m 12 54 v 53.816406 c 0 4.535156 3.566406 8.183594 8 8.183594 h 88 c 4.433594 0 8 -3.648438 8 -8.183594 v -53.816406 c 0 4.535156 -3.566406 8.183594 -8 8.183594 h -88 c -4.433594 0 -8 -3.648438 -8 -8.183594 z m 0 0"
     fill="url(#a)"
     id="path39" /><g
     clip-path="url(#e)"
     mask="url(#c)"
     transform="translate(-8,-16)"
     id="g43"
     style="fill:#f0f0f2;fill-opacity:0.75132066"><path
       d="m 28,28 h 88 c 4.41797,0 8,3.582031 8,8 v 35 c 0,4.417969 -3.58203,8 -8,8 H 28 c -4.417969,0 -8,-3.582031 -8,-8 V 36 c 0,-4.417969 3.582031,-8 8,-8 z m 0,0"
       fill="url(#d)"
       id="path41"
       style="fill:#f0f0f2;fill-opacity:0.75132066" /></g><path
     d="m 42,74 c -4.417969,0 -8,3.582031 -8,8 0,4.417969 3.582031,8 8,8 4.417969,0 8,-3.582031 8,-8 0,-4.417969 -3.582031,-8 -8,-8 z m 0,16 -8,16 h 16 z m 0,0"
     fill="#deddda"
     id="path45"
     style="fill:#d0d0d0" /><path
     d="m 42,72 c -4.417969,0 -8,3.582031 -8,8 0,4.417969 3.582031,8 8,8 4.417969,0 8,-3.582031 8,-8 0,-4.417969 -3.582031,-8 -8,-8 z m -1,16 -7,16 H 50 L 43,88 Z m 0,0"
     fill="#5e5c64"
     id="path47"
     style="fill:#474747" /><path
     d="m 20 12 h 88 c 4.417969 0 8 3.582031 8 8 v 8 c 0 4.417969 -3.582031 8 -8 8 h -88 c -4.417969 0 -8 -3.582031 -8 -8 v -8 c 0 -4.417969 3.582031 -8 8 -8 z m 0 0"
     fill="#ffffff"
     fill-opacity="0.501961"
     id="path49"
     style="fill:#f0f0f2;fill-opacity:0.24693081" /><path
     style="fill:#d0d0d0;stroke-width:1;fill-opacity:1"
     d="m 84.225525,100.22609 c -2.545861,-0.0683 -5.142782,-0.54544 -7.256234,-1.33311 -0.361904,-0.13488 -0.644431,-0.24658 -0.627839,-0.24822 0.01659,-0.002 0.272196,0.0516 0.568008,0.11843 0.295813,0.0668 0.94094,0.18782 1.433617,0.26898 6.443024,1.06147 12.472473,0.16317 15.530503,-2.313803 l 0.361684,-0.292961 -0.03552,0.238354 c -0.245804,1.64921 -2.962747,3.0085 -6.886925,3.44554 -0.495824,0.0552 -2.294144,0.15523 -2.499234,0.13899 -0.06738,-0.005 -0.332007,-0.0153 -0.588056,-0.0222 z m -3.52833,-2.17402 C 77.254006,97.917536 74.470379,97.28537 73.35804,96.385334 72.967016,96.068941 72.765812,95.7733 72.700038,95.41849 c -0.04673,-0.252072 -0.04086,-0.304219 0.05786,-0.513852 0.226117,-0.480187 0.827192,-0.878938 1.662891,-1.103155 0.41559,-0.111502 0.567781,-0.126373 1.328391,-0.129801 l 0.859026,-0.0039 0.332165,0.20827 c 0.182691,0.114548 0.341384,0.20827 0.352652,0.20827 0.01127,0 0.08989,0.0422 0.174711,0.09379 l 0.154222,0.09379 -0.388605,-0.02664 c -0.496994,-0.03407 -1.107683,0.08237 -1.526051,0.29097 -0.461883,0.230292 -0.583904,0.444492 -0.451538,0.792643 0.105023,0.276231 0.818619,0.645757 1.663703,0.861526 1.413728,0.360957 2.934518,0.527937 5.223367,0.573518 4.143355,0.08251 7.444407,-0.492818 8.700781,-1.516428 0.413646,-0.337011 0.609143,-0.819062 0.496954,-1.225376 l -0.04982,-0.180444 0.179489,0.0918 c 0.261888,0.133934 0.62059,0.46591 0.712345,0.65927 0.04384,0.09238 0.07922,0.274887 0.07863,0.405577 -0.0034,0.747171 -0.736627,1.411458 -2.155749,1.953015 -2.089126,0.79724 -5.866017,1.239117 -9.408258,1.100717 z m 0.0245,-3.264095 c -0.748443,-0.08532 -1.085577,-0.137132 -1.421133,-0.218423 -1.289937,-0.312497 -1.81989,-0.82775 -1.498771,-1.457198 0.114554,-0.224543 0.463432,-0.553474 0.732786,-0.690888 0.206431,-0.105313 0.732904,-0.246304 0.924457,-0.247571 0.10647,-7.06e-4 0.107384,0.0036 0.0334,0.158786 -0.155329,0.325729 0.07032,0.538684 0.75042,0.708195 0.479086,0.119409 2.204925,0.117653 3.076083,-0.0031 0.783425,-0.108619 1.545126,-0.275362 2.041574,-0.446918 l 0.375418,-0.129732 0.865606,0.575406 0.865606,0.575406 -0.187426,0.11402 c -0.244336,0.148641 -1.068893,0.471166 -1.535051,0.600435 -0.61529,0.170624 -1.559576,0.338473 -2.35027,0.417768 -0.660227,0.06621 -2.247999,0.09226 -2.672701,0.04384 z m 8.085758,-2.703476 c 0.02695,-0.02788 0.181317,-0.152403 0.343032,-0.276728 0.381118,-0.292997 1.252275,-1.151823 1.518269,-1.496775 0.69304,-0.898767 1.045016,-1.860332 0.906905,-2.477579 -0.168147,-0.751488 -0.88337,-1.244984 -1.809095,-1.248254 l -0.420061,-0.0015 0.294028,-0.169943 c 0.655573,-0.378912 1.293103,-0.510436 1.905893,-0.39319 1.050086,0.200915 1.598972,0.940066 1.597211,2.150864 -0.0012,0.828252 -0.216328,1.476663 -0.685548,2.066339 -0.643519,0.808722 -1.816221,1.463631 -3.160588,1.765067 -0.188668,0.0423 -0.387137,0.08939 -0.441042,0.10464 -0.06683,0.0189 -0.08242,0.0116 -0.049,-0.02296 z m -7.546707,-0.08788 c -2.275052,-0.133495 -3.871198,-0.543332 -4.382055,-1.125167 -0.207736,-0.236597 -0.214713,-0.411707 -0.02918,-0.732442 0.127412,-0.220263 0.395707,-0.428802 0.837822,-0.651217 0.302753,-0.152306 0.802675,-0.303904 1.002181,-0.303904 0.10962,0 0.109584,2.94e-4 -0.01622,0.126086 -0.350582,0.350581 -0.168459,0.676221 0.505095,0.903125 0.654298,0.220417 1.106556,0.266657 2.621407,0.268024 1.765436,0.0016 2.491042,-0.07733 3.895865,-0.423729 l 0.612558,-0.151045 0.793445,0.507488 c 0.501565,0.320801 0.771971,0.521411 0.735069,0.545336 -0.08086,0.05242 -1.154562,0.401692 -1.608047,0.523087 -1.296181,0.34698 -3.656218,0.591327 -4.96794,0.514358 z m -2.683199,-3.060883 c -1.923379,-0.115648 -3.329806,-0.479118 -3.779358,-0.976719 -0.152762,-0.169089 -0.177565,-0.229809 -0.177565,-0.434687 0,-0.443323 0.386009,-0.783105 1.173993,-1.033403 0.856525,-0.272067 1.834706,-0.417095 3.285424,-0.487103 0.80522,-0.03886 0.990861,-0.03596 0.827841,0.01293 -1.230955,0.369191 -1.840141,0.619339 -2.100445,0.862499 -0.334557,0.312523 -0.09791,0.47297 0.881415,0.597602 0.795188,0.101199 4.647068,0.08595 6.149229,-0.02434 1.688968,-0.124009 3.326827,-0.31704 3.890531,-0.458521 0.0773,-0.0194 0.1068,-0.01155 0.08558,0.02278 -0.05953,0.09633 -1.611814,1.245474 -1.741256,1.289046 -0.200368,0.06745 -1.468768,0.2733 -2.357369,0.382586 -2.16777,0.266607 -4.352945,0.354656 -6.138022,0.247325 z m 5.768615,-2.181773 c 0.518735,-0.611455 0.749601,-1.260777 0.656859,-1.847452 -0.05292,-0.334751 -0.240995,-0.703973 -0.766719,-1.505163 -0.484049,-0.737679 -0.660964,-1.082584 -0.769977,-1.501113 -0.103076,-0.395736 -0.09346,-1.002319 0.02327,-1.468077 0.102923,-0.410667 0.332952,-0.951178 0.4048,-0.951178 0.02359,0 0.03196,-0.01768 0.0186,-0.0393 -0.01336,-0.02161 0.08566,-0.181491 0.220048,-0.355283 0.729919,-0.943963 1.896275,-1.643067 3.498302,-2.096852 0.571002,-0.16174 1.971486,-0.429373 2.015666,-0.385193 0.01073,0.01073 -0.107623,0.09801 -0.263009,0.193953 -0.234138,0.144569 -1.387242,0.960276 -1.556639,1.101169 -0.02695,0.02242 -0.269525,0.215458 -0.539051,0.42898 -0.628807,0.498151 -1.347897,1.220831 -1.594659,1.602619 -0.305905,0.473294 -0.353989,0.760399 -0.216301,1.291523 0.07976,0.307658 0.328003,0.893664 0.466261,1.100648 0.36538,0.547003 0.661404,1.28465 0.711409,1.772722 0.11839,1.155556 -0.783515,2.325331 -2.188061,2.837927 l -0.396074,0.144549 z m -1.541772,-0.54451 c -1.958919,-1.572207 -3.106284,-2.91635 -3.568265,-4.180234 -0.155497,-0.42541 -0.170566,-0.514127 -0.17479,-1.029096 -0.0054,-0.661663 0.04582,-0.838108 0.427008,-1.470138 0.313186,-0.519283 1.314855,-1.539051 2.311453,-2.353222 2.025181,-1.654469 2.855363,-2.521468 3.300327,-3.446689 0.165507,-0.344142 0.232966,-0.578975 0.276554,-0.962723 0.02831,-0.24925 -0.02169,-0.773691 -0.09577,-1.004594 -0.0173,-0.05391 0.05678,0.06738 0.164614,0.269526 0.668807,1.253741 0.69434,2.534241 0.0755,3.786411 -0.273506,0.553417 -0.369698,0.692953 -0.424714,0.616089 -0.03483,-0.04866 -0.03956,-0.04276 -0.01832,0.02288 0.03451,0.106657 -0.12988,0.34452 -0.712037,1.030261 -0.447848,0.527534 -0.521412,0.607573 -1.392248,1.51481 -1.43386,1.493795 -1.859179,2.181497 -1.857075,3.002721 9.6e-4,0.375714 0.0287,0.460015 0.523827,1.59191 0.366541,0.837942 0.720081,1.539395 1.133753,2.249459 0.179052,0.30734 0.319735,0.563333 0.312629,0.568873 -0.0071,0.0055 -0.134206,-0.08727 -0.282445,-0.206245 z"
     id="path882-3" /><path
     style="fill:#474747;stroke-width:1;fill-opacity:1"
     d="m 84.225525,102.22609 c -2.545861,-0.0683 -5.142782,-0.54544 -7.256234,-1.33311 -0.361904,-0.13488 -0.644431,-0.24658 -0.627839,-0.24822 0.01659,-0.002 0.272196,0.0516 0.568008,0.11843 0.295813,0.0668 0.94094,0.18782 1.433617,0.26898 6.443024,1.06147 12.472473,0.16317 15.530503,-2.313803 l 0.361684,-0.292961 -0.03552,0.238354 c -0.245804,1.64921 -2.962747,3.0085 -6.886925,3.44554 -0.495824,0.0552 -2.294144,0.15523 -2.499234,0.13899 -0.06738,-0.005 -0.332007,-0.0153 -0.588056,-0.0222 z m -3.52833,-2.17402 C 77.254006,99.917536 74.470379,99.28537 73.35804,98.385334 72.967016,98.068941 72.765812,97.7733 72.700038,97.41849 c -0.04673,-0.252072 -0.04086,-0.304219 0.05786,-0.513852 0.226117,-0.480187 0.827192,-0.878938 1.662891,-1.103155 0.41559,-0.111502 0.567781,-0.126373 1.328391,-0.129801 l 0.859026,-0.0039 0.332165,0.20827 c 0.182691,0.114548 0.341384,0.20827 0.352652,0.20827 0.01127,0 0.08989,0.0422 0.174711,0.09379 l 0.154222,0.09379 -0.388605,-0.02664 c -0.496994,-0.03407 -1.107683,0.08237 -1.526051,0.29097 -0.461883,0.230292 -0.583904,0.444492 -0.451538,0.792643 0.105023,0.276231 0.818619,0.645757 1.663703,0.861526 1.413728,0.360957 2.934518,0.527937 5.223367,0.573518 4.143355,0.08251 7.444407,-0.492818 8.700781,-1.516428 0.413646,-0.337011 0.609143,-0.819062 0.496954,-1.225376 l -0.04982,-0.180444 0.179489,0.0918 c 0.261888,0.133934 0.62059,0.46591 0.712345,0.65927 0.04384,0.09238 0.07922,0.274887 0.07863,0.405577 -0.0034,0.747171 -0.736627,1.411458 -2.155749,1.953015 -2.089126,0.79724 -5.866017,1.239117 -9.408258,1.100717 z m 0.0245,-3.264095 c -0.748443,-0.08532 -1.085577,-0.137132 -1.421133,-0.218423 -1.289937,-0.312497 -1.81989,-0.82775 -1.498771,-1.457198 0.114554,-0.224543 0.463432,-0.553474 0.732786,-0.690888 0.206431,-0.105313 0.732904,-0.246304 0.924457,-0.247571 0.10647,-7.06e-4 0.107384,0.0036 0.0334,0.158786 -0.155329,0.325729 0.07032,0.538684 0.75042,0.708195 0.479086,0.119409 2.204925,0.117653 3.076083,-0.0031 0.783425,-0.108619 1.545126,-0.275362 2.041574,-0.446918 l 0.375418,-0.129732 0.865606,0.575406 0.865606,0.575406 -0.187426,0.11402 c -0.244336,0.148641 -1.068893,0.471166 -1.535051,0.600435 -0.61529,0.170624 -1.559576,0.338473 -2.35027,0.417768 -0.660227,0.06621 -2.247999,0.09226 -2.672701,0.04384 z m 8.085758,-2.703476 c 0.02695,-0.02788 0.181317,-0.152403 0.343032,-0.276728 0.381118,-0.292997 1.252275,-1.151823 1.518269,-1.496775 0.69304,-0.898767 1.045016,-1.860332 0.906905,-2.477579 -0.168147,-0.751488 -0.88337,-1.244984 -1.809095,-1.248254 l -0.420061,-0.0015 0.294028,-0.169943 c 0.655573,-0.378912 1.293103,-0.510436 1.905893,-0.39319 1.050086,0.200915 1.598972,0.940066 1.597211,2.150864 -0.0012,0.828252 -0.216328,1.476663 -0.685548,2.066339 -0.643519,0.808722 -1.816221,1.463631 -3.160588,1.765067 -0.188668,0.0423 -0.387137,0.08939 -0.441042,0.10464 -0.06683,0.0189 -0.08242,0.0116 -0.049,-0.02296 z m -7.546707,-0.08788 c -2.275052,-0.133495 -3.871198,-0.543332 -4.382055,-1.125167 -0.207736,-0.236597 -0.214713,-0.411707 -0.02918,-0.732442 0.127412,-0.220263 0.395707,-0.428802 0.837822,-0.651217 0.302753,-0.152306 0.802675,-0.303904 1.002181,-0.303904 0.10962,0 0.109584,2.94e-4 -0.01622,0.126086 -0.350582,0.350581 -0.168459,0.676221 0.505095,0.903125 0.654298,0.220417 1.106556,0.266657 2.621407,0.268024 1.765436,0.0016 2.491042,-0.07733 3.895865,-0.423729 l 0.612558,-0.151045 0.793445,0.507488 c 0.501565,0.320801 0.771971,0.521411 0.735069,0.545336 -0.08086,0.05242 -1.154562,0.401692 -1.608047,0.523087 -1.296181,0.34698 -3.656218,0.591327 -4.96794,0.514358 z m -2.683199,-3.060883 c -1.923379,-0.115648 -3.329806,-0.479118 -3.779358,-0.976719 -0.152762,-0.169089 -0.177565,-0.229809 -0.177565,-0.434687 0,-0.443323 0.386009,-0.783105 1.173993,-1.033403 0.856525,-0.272067 1.834706,-0.417095 3.285424,-0.487103 0.80522,-0.03886 0.990861,-0.03596 0.827841,0.01293 -1.230955,0.369191 -1.840141,0.619339 -2.100445,0.862499 -0.334557,0.312523 -0.09791,0.47297 0.881415,0.597602 0.795188,0.101199 4.647068,0.08595 6.149229,-0.02434 1.688968,-0.124009 3.326827,-0.31704 3.890531,-0.458521 0.0773,-0.0194 0.1068,-0.01155 0.08558,0.02278 -0.05953,0.09633 -1.611814,1.245474 -1.741256,1.289046 -0.200368,0.06745 -1.468768,0.2733 -2.357369,0.382586 -2.16777,0.266607 -4.352945,0.354656 -6.138022,0.247325 z m 5.768615,-2.181773 c 0.518735,-0.611455 0.749601,-1.260777 0.656859,-1.847452 -0.05292,-0.334751 -0.240995,-0.703973 -0.766719,-1.505163 -0.484049,-0.737679 -0.660964,-1.082584 -0.769977,-1.501113 -0.103076,-0.395736 -0.09346,-1.002319 0.02327,-1.468077 0.102923,-0.410667 0.332952,-0.951178 0.4048,-0.951178 0.02359,0 0.03196,-0.01768 0.0186,-0.0393 -0.01336,-0.02161 0.08566,-0.181491 0.220048,-0.355283 0.729919,-0.943963 1.896275,-1.643067 3.498302,-2.096852 0.571002,-0.16174 1.971486,-0.429373 2.015666,-0.385193 0.01073,0.01073 -0.107623,0.09801 -0.263009,0.193953 -0.234138,0.144569 -1.387242,0.960276 -1.556639,1.101169 -0.02695,0.02242 -0.269525,0.215458 -0.539051,0.42898 -0.628807,0.498151 -1.347897,1.220831 -1.594659,1.602619 -0.305905,0.473294 -0.353989,0.760399 -0.216301,1.291523 0.07976,0.307658 0.328003,0.893664 0.466261,1.100648 0.36538,0.547003 0.661404,1.28465 0.711409,1.772722 0.11839,1.155556 -0.783515,2.325331 -2.188061,2.837927 l -0.396074,0.144549 z m -1.541772,-0.54451 c -1.958919,-1.572207 -3.106284,-2.91635 -3.568265,-4.180234 -0.155497,-0.42541 -0.170566,-0.514127 -0.17479,-1.029096 -0.0054,-0.661663 0.04582,-0.838108 0.427008,-1.470138 0.313186,-0.519283 1.314855,-1.539051 2.311453,-2.353222 2.025181,-1.654469 2.855363,-2.521468 3.300327,-3.446689 0.165507,-0.344142 0.232966,-0.578975 0.276554,-0.962723 0.02831,-0.24925 -0.02169,-0.773691 -0.09577,-1.004594 -0.0173,-0.05391 0.05678,0.06738 0.164614,0.269526 0.668807,1.253741 0.69434,2.534241 0.0755,3.786411 -0.273506,0.553417 -0.369698,0.692953 -0.424714,0.616089 -0.03483,-0.04866 -0.03956,-0.04276 -0.01832,0.02288 0.03451,0.106657 -0.12988,0.34452 -0.712037,1.030261 -0.447848,0.527534 -0.521412,0.607573 -1.392248,1.51481 -1.43386,1.493795 -1.859179,2.181497 -1.857075,3.002721 9.6e-4,0.375714 0.0287,0.460015 0.523827,1.59191 0.366541,0.837942 0.720081,1.539395 1.133753,2.249459 0.179052,0.30734 0.319735,0.563333 0.312629,0.568873 -0.0071,0.0055 -0.134206,-0.08727 -0.282445,-0.206245 z"
     id="path882" /></svg>
