<svg xmlns="http://www.w3.org/2000/svg" xmlns:svg="http://www.w3.org/2000/svg" id="svg49" width="128" height="128" version="1.1" viewBox="0 0 128 128"><defs id="defs53"><linearGradient id="paint6_linear" x1="49.117" x2="49.117" y1="1.33" y2="116.908" gradientTransform="translate(118.9627,15.595)" gradientUnits="userSpaceOnUse"><stop id="stop1000" stop-color="#64BAFF"/><stop id="stop1002" offset="1" stop-color="#3689E6"/></linearGradient><linearGradient id="paint7_linear" x1="68.827" x2="68.827" y1=".537" y2="118.684" gradientTransform="translate(118.9627,15.595)" gradientUnits="userSpaceOnUse"><stop id="stop1005" stop-color="#64BAFF"/><stop id="stop1007" offset="1" stop-color="#3689E6"/></linearGradient></defs><linearGradient id="a" x1="88.596" x2="536.596" y1="-449.394" y2="-449.394" gradientTransform="matrix(0.196428 0 0 0.342105 2.59702 273.739929)" gradientUnits="userSpaceOnUse"><stop id="stop2" offset="0" stop-color="#deddda" style="stop-color:#d0d0d0;stop-opacity:1"/><stop id="stop4" offset=".045" stop-color="#eeeeec" style="stop-color:#e5e5e5;stop-opacity:1"/><stop id="stop6" offset=".091" stop-color="#deddda" style="stop-color:#d0d0d0;stop-opacity:1"/><stop id="stop8" offset=".909" stop-color="#deddda" style="stop-color:#d0d0d0;stop-opacity:1"/><stop id="stop10" offset=".955" stop-color="#eeeeec" style="stop-color:#e5e5e5;stop-opacity:1"/><stop id="stop12" offset="1" stop-color="#c0bfbc" style="stop-color:#d0d0d0;stop-opacity:1"/></linearGradient><linearGradient id="b" x1="58.999" x2="69" y1="64" y2="64" gradientUnits="userSpaceOnUse"><stop id="stop15" offset="0" stop-color="#9a9996" style="stop-color:#a5a5a5;stop-opacity:1"/><stop id="stop17" offset="1" stop-color="#77767b" style="stop-color:#5e5e5e;stop-opacity:1"/></linearGradient><linearGradient id="c" x1="48" x2="80" y1="275.5" y2="275.5" gradientTransform="matrix(1 0 0 0.850001 0 -135.925327)" gradientUnits="userSpaceOnUse"><stop id="stop20" offset="0" stop-color="#e8e7e4" style="stop-color:#e5e5e5;stop-opacity:1"/><stop id="stop22" offset=".511" stop-color="#fff" style="stop-color:#f0f0f2;stop-opacity:1"/><stop id="stop24" offset="1" stop-color="#c2bfba" style="stop-color:#c2c2c2;stop-opacity:1"/></linearGradient><path id="path27" fill="url(#a)" d="m 28 16 h 72 c 4.417969 0 8 3.582031 8 8 v 88 c 0 4.417969 -3.582031 8 -8 8 h -72 c -4.417969 0 -8 -3.582031 -8 -8 v -88 c 0 -4.417969 3.582031 -8 8 -8 z m 0 0"/><path id="path29" fill="#f6f5f4" d="m 28 8 h 72 c 4.417969 0 8 3.582031 8 8 v 92 c 0 4.417969 -3.582031 8 -8 8 h -72 c -4.417969 0 -8 -3.582031 -8 -8 v -92 c 0 -4.417969 3.582031 -8 8 -8 z m 0 0" style="fill:#f0f0f2"/><g id="g1065" transform="matrix(0.69789961,0,0,0.69789961,-63.96101,11.242279)" style="stroke-width:1.43287"><path id="path960" fill="url(#paint6_linear)" d="M 171.2354,97.595 H 161.69 v -37 h -12.7273 v -8 h 35 v 8 h -12.7273 z" style="fill:url(#paint6_linear);stroke-width:1.43287"/><path id="path962" fill="url(#paint7_linear)" d="m 201.737,52.595 c -8.3264,0 -13.664,5.2771 -13.664,12.2093 0,7.5185 4.4782,11.0744 11.21,13.9116 l 2.3299,0.993 c 4.2491,1.8442 6.3498,2.9696 6.3498,6.1377 0,2.6386 -2.0243,4.549 -5.8915,4.549 -4.6024,0 -6.7795,-3.0925 -8.7752,-6.3269 l -7.3333,4.8421 c 2.7404,5.3622 7.658,9.6842 16.3186,9.6842 8.8611,0 15.4592,-4.5584 15.4592,-12.8713 0,-7.7171 -4.4688,-11.1501 -12.4036,-14.5169 l -2.3299,-0.9835 c -4.0009,-1.7212 -5.7387,-2.8372 -5.7387,-5.6082 0,-2.2413 1.7378,-3.9625 4.4687,-3.9625 2.6832,0 4.4019,1.1254 5.9965,3.9625 L 215,60 c -3.065,-5.3622 -7.3333,-7.405 -13.263,-7.405 z" style="fill:url(#paint7_linear);stroke-width:1.43287"/></g></svg>