<svg xmlns="http://www.w3.org/2000/svg" xmlns:svg="http://www.w3.org/2000/svg" id="svg49" width="128" height="128" version="1.1" viewBox="0 0 128 128"><linearGradient id="a" x1="88.596" x2="536.596" y1="-449.394" y2="-449.394" gradientTransform="matrix(0.196428 0 0 0.342105 2.59702 273.739929)" gradientUnits="userSpaceOnUse"><stop id="stop2" offset="0" stop-color="#deddda" style="stop-color:#d0d0d0;stop-opacity:1"/><stop id="stop4" offset=".045" stop-color="#eeeeec" style="stop-color:#e5e5e5;stop-opacity:1"/><stop id="stop6" offset=".091" stop-color="#deddda" style="stop-color:#d0d0d0;stop-opacity:1"/><stop id="stop8" offset=".909" stop-color="#deddda" style="stop-color:#d0d0d0;stop-opacity:1"/><stop id="stop10" offset=".955" stop-color="#eeeeec" style="stop-color:#e5e5e5;stop-opacity:1"/><stop id="stop12" offset="1" stop-color="#c0bfbc" style="stop-color:#d0d0d0;stop-opacity:1"/></linearGradient><linearGradient id="b" x1="58.999" x2="69" y1="64" y2="64" gradientUnits="userSpaceOnUse"><stop id="stop15" offset="0" stop-color="#9a9996" style="stop-color:#a5a5a5;stop-opacity:1"/><stop id="stop17" offset="1" stop-color="#77767b" style="stop-color:#5e5e5e;stop-opacity:1"/></linearGradient><linearGradient id="c" x1="48" x2="80" y1="275.5" y2="275.5" gradientTransform="matrix(1 0 0 0.850001 0 -135.925327)" gradientUnits="userSpaceOnUse"><stop id="stop20" offset="0" stop-color="#e8e7e4" style="stop-color:#e5e5e5;stop-opacity:1"/><stop id="stop22" offset=".511" stop-color="#fff" style="stop-color:#f0f0f2;stop-opacity:1"/><stop id="stop24" offset="1" stop-color="#c2bfba" style="stop-color:#c2c2c2;stop-opacity:1"/></linearGradient><path id="path27" fill="url(#a)" d="m 28 16 h 72 c 4.417969 0 8 3.582031 8 8 v 88 c 0 4.417969 -3.582031 8 -8 8 h -72 c -4.417969 0 -8 -3.582031 -8 -8 v -88 c 0 -4.417969 3.582031 -8 8 -8 z m 0 0"/><path id="path29" fill="#f6f5f4" d="m 28 8 h 72 c 4.417969 0 8 3.582031 8 8 v 92 c 0 4.417969 -3.582031 8 -8 8 h -72 c -4.417969 0 -8 -3.582031 -8 -8 v -92 c 0 -4.417969 3.582031 -8 8 -8 z m 0 0" style="fill:#f0f0f2"/><path style="color:#000;display:inline;overflow:visible;visibility:visible;fill:#268ef9;fill-opacity:1;fill-rule:nonzero;stroke:none;stroke-width:1;marker:none;enable-background:accumulate" id="rect3164" d="m 64,40 c -8.864,0 -16,7.136 -16,16 v 8 h -2 v 11.375 l 0.8125,-1.0625 c 1.16265,-1.5614 4.26161,-3.7916 6.6875,-4.75 1.27806,-0.505 4.34679,-1.0591 7.8125,-1.4375 C 66.53419,67.5382 76.39975,68 80,64 V 56 C 80,47.136 72.864,40 64,40 Z m 1.3125,1.9375 c 0.75833,0.04424 1.50159,0.13252 2.25,0.3125 2.68874,0.6462 2.9923,1.2686 0.375,0.75 -4.11799,-0.8162 -9.58753,1.017 -12.9375,4.375 -1.0017,1.0042 -2.26545,2.6669 -2.8125,3.6875 -1.12713,2.103 -0.94981,0.7485 0.25,-1.8125 2.1936,-4.6823 7.56666,-7.622248 12.875,-7.3125 z M 64,48 c 4.432,0 8,3.568 8,8 v 8 H 56 v -8 c 0,-4.432 3.568,-8 8,-8 z m 18,18.3125 -2.125,1.75 c -1.15501,0.9828 -2.9625,2.3278 -4.0625,3 -2.25127,1.3758 -7.5887,3.3125 -9.1875,3.3125 -0.60138,0 -0.95392,0.1456 -0.8125,0.375 0.26652,0.432 3.46207,0.2377 6.8125,-0.4375 1.1,-0.2214 3.65249,-1.2196 5.6875,-2.25 L 82,70.1875 V 68.25 Z m 0,4.3125 -1.125,1.5625 c -3.73144,5.1434 -9.80754,7.9934 -18.25,8.5 -5.63898,0.3382 -3.5744,0.98 3.1875,1 4.58055,0.0064 5.61302,-0.1329 8.375,-1.0625 1.72794,-0.5814 3.1628,-1.0255 3.25,-0.9375 C 77.75214,80.0027 74.37158,82.8 72.5,83.75 68.91399,85.5702 66.47212,86.081 60,86.375 55.40239,86.5838 53.51485,86.8215 52.625,87.3125 51.49191,87.9365 52.24063,87.98 66.6875,88 H 82 Z"/></svg>