<?xml version="1.0" encoding="UTF-8" standalone="no"?>
<svg
   height="128px"
   viewBox="0 0 128 128"
   width="128px"
   version="1.1"
   id="svg49"
   xml:space="preserve"
   xmlns="http://www.w3.org/2000/svg"
   xmlns:svg="http://www.w3.org/2000/svg"><defs
     id="defs53" /><linearGradient
     id="a"
     gradientTransform="matrix(0.196428 0 0 0.342105 2.59702 273.739929)"
     gradientUnits="userSpaceOnUse"
     x1="88.595886"
     x2="536.595886"
     y1="-449.394012"
     y2="-449.394012"><stop
       offset="0"
       stop-color="#deddda"
       id="stop2"
       style="stop-color:#d0d0d0;stop-opacity:1" /><stop
       offset="0.0454546"
       stop-color="#eeeeec"
       id="stop4"
       style="stop-color:#e5e5e5;stop-opacity:1" /><stop
       offset="0.0909091"
       stop-color="#deddda"
       id="stop6"
       style="stop-color:#d0d0d0;stop-opacity:1" /><stop
       offset="0.909091"
       stop-color="#deddda"
       id="stop8"
       style="stop-color:#d0d0d0;stop-opacity:1" /><stop
       offset="0.954545"
       stop-color="#eeeeec"
       id="stop10"
       style="stop-color:#e5e5e5;stop-opacity:1" /><stop
       offset="1"
       stop-color="#c0bfbc"
       id="stop12"
       style="stop-color:#d0d0d0;stop-opacity:1" /></linearGradient><linearGradient
     id="b"
     gradientUnits="userSpaceOnUse"
     x1="58.999043"
     x2="69.00042"
     y1="63.999893"
     y2="63.999893"><stop
       offset="0"
       stop-color="#9a9996"
       id="stop15"
       style="stop-color:#a5a5a5;stop-opacity:1" /><stop
       offset="1"
       stop-color="#77767b"
       id="stop17"
       style="stop-color:#5e5e5e;stop-opacity:1" /></linearGradient><linearGradient
     id="c"
     gradientTransform="matrix(1 0 0 0.850001 0 -135.925327)"
     gradientUnits="userSpaceOnUse"
     x1="48.00016"
     x2="80.00016"
     y1="275.499908"
     y2="275.499908"><stop
       offset="0"
       stop-color="#e8e7e4"
       id="stop20"
       style="stop-color:#e5e5e5;stop-opacity:1" /><stop
       offset="0.511049"
       stop-color="#ffffff"
       id="stop22"
       style="stop-color:#f0f0f2;stop-opacity:1" /><stop
       offset="1"
       stop-color="#c2bfba"
       id="stop24"
       style="stop-color:#c2c2c2;stop-opacity:1" /></linearGradient><path
     d="m 28 16 h 72 c 4.417969 0 8 3.582031 8 8 v 88 c 0 4.417969 -3.582031 8 -8 8 h -72 c -4.417969 0 -8 -3.582031 -8 -8 v -88 c 0 -4.417969 3.582031 -8 8 -8 z m 0 0"
     fill="url(#a)"
     id="path27" /><path
     d="m 28 8 h 72 c 4.417969 0 8 3.582031 8 8 v 92 c 0 4.417969 -3.582031 8 -8 8 h -72 c -4.417969 0 -8 -3.582031 -8 -8 v -92 c 0 -4.417969 3.582031 -8 8 -8 z m 0 0"
     fill="#f6f5f4"
     id="path29"
     style="fill:#f0f0f2" /><g
     clip-path="url(#d)"
     mask="url(#b-6)"
     transform="translate(-210,21)"
     id="g22"><path
       d="M 37.671875,36.503906 V 122.50391 H 105.67188 V 36.503906 Z m 0,0"
       fill="url(#c)"
       id="path20"
       style="fill:url(#c-7)" /></g><path
     style="fill:#fecb49;fill-opacity:1;stroke-width:1"
     d="M 59.0625,99.87659 C 52.02924,99.45944 45.85842,98.2036 41.93477,96.39086 39.8524,95.4288 38.13262,93.99202 37.48209,92.67087 L 37.1875,92.0726 37.1519,85.656283 c -0.0196,-3.52897 0.009,-6.390347 0.0625,-6.358616 0.054,0.03173 0.47806,0.288955 0.94248,0.571609 3.1742,1.931869 8.31896,3.406685 14.4056,4.129562 3.76491,0.447138 6.10713,0.562284 11.4375,0.562284 5.33038,0 7.6726,-0.115146 11.4375,-0.562284 6.08665,-0.722877 11.23141,-2.197693 14.4056,-4.129562 0.46442,-0.282654 0.88854,-0.539878 0.94249,-0.571609 0.054,-0.03173 0.0821,2.829646 0.0625,6.358616 l -0.0356,6.416317 -0.29459,0.59827 c -1.89035,3.83905 -10.01727,6.51762 -21.89291,7.21574 -2.34688,0.13797 -7.15226,0.13293 -9.5625,-0.01 z M 61.375,82.057525 C 50.01772,81.791052 41.6827,79.775292 37.65625,76.321327 L 37.125,75.865611 V 69.8767 63.887787 l 0.84375,0.517661 c 3.26376,2.0024 8.23079,3.451135 14.46875,4.220104 3.57941,0.441244 6.20019,0.570571 11.5625,0.570571 5.3623,0 7.98308,-0.129327 11.5625,-0.570571 6.23795,-0.768969 11.20498,-2.217704 14.46875,-4.220104 L 90.875,63.887787 v 5.988913 5.988911 l -0.53125,0.455716 c -4.19074,3.594891 -12.56019,5.533474 -24.71875,5.725505 -1.54688,0.02443 -3.45938,0.02924 -4.25,0.01069 z M 60.8125,66.685893 C 55.29423,66.513692 50.10905,65.886295 46.32458,64.932881 42.6657,64.011108 39.33752,62.475108 37.59375,60.903476 L 37.125,60.481002 v -5.922955 c 0,-3.257625 0.0324,-5.922955 0.0719,-5.922955 0.0396,0 0.47089,0.233 0.95849,0.517778 5.37653,3.14006 14.07197,4.732222 25.84456,4.732222 11.7726,0 20.46804,-1.592162 25.84456,-4.732222 0.48761,-0.284778 0.91894,-0.517778 0.9585,-0.517778 0.0396,0 0.0719,2.66533 0.0719,5.922955 v 5.922955 l -0.46875,0.422474 c -2.65423,2.392202 -7.92989,4.250795 -14.49124,5.105195 -3.90588,0.508612 -10.71752,0.814059 -15.10251,0.677222 z M 60.375,51.312275 c -9.38063,-0.427528 -15.24708,-1.551227 -19.6875,-3.771079 -1.25876,-0.629275 -2.70573,-1.588002 -3.24284,-2.148621 -0.32158,-0.335661 -0.34754,-0.427056 -0.27389,-0.964384 0.3639,-2.65489 3.78529,-4.95535 9.64173,-6.482864 12.06467,-3.146785 30.50928,-2.355486 39.25272,1.683996 2.74261,1.267089 4.52617,3.063699 4.764,4.798868 0.0736,0.537328 0.0477,0.628723 -0.27389,0.964384 -0.53711,0.560619 -1.98408,1.519346 -3.24283,2.148621 -3.75192,1.875655 -8.67425,2.993227 -15.5625,3.533331 -2.22944,0.174809 -9.44633,0.325647 -11.375,0.237748 z"
     id="path318" /></svg>
