<svg xmlns="http://www.w3.org/2000/svg" xmlns:svg="http://www.w3.org/2000/svg" id="svg49" width="128" height="128" version="1.1" viewBox="0 0 128 128"><linearGradient id="a" x1="88.596" x2="536.596" y1="-449.394" y2="-449.394" gradientTransform="matrix(0.196428 0 0 0.342105 2.59702 273.739929)" gradientUnits="userSpaceOnUse"><stop id="stop2" offset="0" stop-color="#deddda" style="stop-color:#d0d0d0;stop-opacity:1"/><stop id="stop4" offset=".045" stop-color="#eeeeec" style="stop-color:#e5e5e5;stop-opacity:1"/><stop id="stop6" offset=".091" stop-color="#deddda" style="stop-color:#d0d0d0;stop-opacity:1"/><stop id="stop8" offset=".909" stop-color="#deddda" style="stop-color:#d0d0d0;stop-opacity:1"/><stop id="stop10" offset=".955" stop-color="#eeeeec" style="stop-color:#e5e5e5;stop-opacity:1"/><stop id="stop12" offset="1" stop-color="#c0bfbc" style="stop-color:#d0d0d0;stop-opacity:1"/></linearGradient><linearGradient id="b" x1="58.999" x2="69" y1="64" y2="64" gradientUnits="userSpaceOnUse"><stop id="stop15" offset="0" stop-color="#9a9996" style="stop-color:#a5a5a5;stop-opacity:1"/><stop id="stop17" offset="1" stop-color="#77767b" style="stop-color:#5e5e5e;stop-opacity:1"/></linearGradient><linearGradient id="c" x1="48" x2="80" y1="275.5" y2="275.5" gradientTransform="matrix(1 0 0 0.850001 0 -135.925327)" gradientUnits="userSpaceOnUse"><stop id="stop20" offset="0" stop-color="#e8e7e4" style="stop-color:#e5e5e5;stop-opacity:1"/><stop id="stop22" offset=".511" stop-color="#fff" style="stop-color:#f0f0f2;stop-opacity:1"/><stop id="stop24" offset="1" stop-color="#c2bfba" style="stop-color:#c2c2c2;stop-opacity:1"/></linearGradient><path id="path27" fill="url(#a)" d="m 28 16 h 72 c 4.417969 0 8 3.582031 8 8 v 88 c 0 4.417969 -3.582031 8 -8 8 h -72 c -4.417969 0 -8 -3.582031 -8 -8 v -88 c 0 -4.417969 3.582031 -8 8 -8 z m 0 0"/><path id="path29" fill="#f6f5f4" d="m 28 8 h 72 c 4.417969 0 8 3.582031 8 8 v 92 c 0 4.417969 -3.582031 8 -8 8 h -72 c -4.417969 0 -8 -3.582031 -8 -8 v -92 c 0 -4.417969 3.582031 -8 8 -8 z m 0 0" style="fill:#f0f0f2"/><g id="g22" clip-path="url(#d)" mask="url(#b-6)" transform="translate(-210,21)"><path id="path20" fill="url(#c)" d="M 37.671875,36.503906 V 122.50391 H 105.67188 V 36.503906 Z m 0,0" style="fill:url(#c-7)"/></g><g id="text2419" aria-label=".ui" transform="matrix(1.074117,0,0,1.0720909,-14.13604,11.336896)" style="font-size:48px;line-height:1.25;fill:#bf56a8;stroke-width:.931876"><path style="font-family:Cantarell;-inkscape-font-specification:Cantarell;stroke-width:.931876" id="path3676" d="m 53.472506,66.377865 c 1.824,0 3.072,-1.296 3.072,-3.072 0,-1.776 -1.248,-3.072 -3.072,-3.072 -1.824,0 -3.072,1.296 -3.072,3.072 0,1.776 1.248,3.072 3.072,3.072 z"/><path style="font-family:Cantarell;-inkscape-font-specification:Cantarell;stroke-width:.931876" id="path3678" d="m 71.56844,66.377865 c 2.544,0 5.136,-0.912 7.296,-2.496 l 0.864,2.016 h 2.688 v -23.136 h -3.84 v 18.144 c -1.68,1.344 -3.792,2.112 -5.856,2.112 -3.6,0 -5.664,-2.112 -5.664,-5.856 v -14.4 h -3.84 v 15.168 c 0,5.136 3.408,8.448 8.352,8.448 z"/><path style="font-family:Cantarell;-inkscape-font-specification:Cantarell;stroke-width:.931876" id="path3680" d="m 90.384375,65.897865 h 3.84 v -23.136 h -3.84 z m 1.968,-28.56 c 1.728,0 2.736,-1.008 2.736,-2.736 0,-1.728 -1.008,-2.736 -2.736,-2.736 -1.728,0 -2.736,1.008 -2.736,2.736 0,1.728 1.008,2.736 2.736,2.736 z"/></g></svg>