<?xml version="1.0" encoding="UTF-8" standalone="no"?>
<svg
   height="128px"
   viewBox="0 0 128 128"
   width="128px"
   version="1.1"
   id="svg49"
   xml:space="preserve"
   xmlns="http://www.w3.org/2000/svg"
   xmlns:svg="http://www.w3.org/2000/svg"><defs
     id="defs53" /><linearGradient
     id="a"
     gradientTransform="matrix(0.196428 0 0 0.342105 2.59702 273.739929)"
     gradientUnits="userSpaceOnUse"
     x1="88.595886"
     x2="536.595886"
     y1="-449.394012"
     y2="-449.394012"><stop
       offset="0"
       stop-color="#deddda"
       id="stop2"
       style="stop-color:#d0d0d0;stop-opacity:1" /><stop
       offset="0.0454546"
       stop-color="#eeeeec"
       id="stop4"
       style="stop-color:#e5e5e5;stop-opacity:1" /><stop
       offset="0.0909091"
       stop-color="#deddda"
       id="stop6"
       style="stop-color:#d0d0d0;stop-opacity:1" /><stop
       offset="0.909091"
       stop-color="#deddda"
       id="stop8"
       style="stop-color:#d0d0d0;stop-opacity:1" /><stop
       offset="0.954545"
       stop-color="#eeeeec"
       id="stop10"
       style="stop-color:#e5e5e5;stop-opacity:1" /><stop
       offset="1"
       stop-color="#c0bfbc"
       id="stop12"
       style="stop-color:#d0d0d0;stop-opacity:1" /></linearGradient><linearGradient
     id="b"
     gradientUnits="userSpaceOnUse"
     x1="58.999043"
     x2="69.00042"
     y1="63.999893"
     y2="63.999893"><stop
       offset="0"
       stop-color="#9a9996"
       id="stop15"
       style="stop-color:#a5a5a5;stop-opacity:1" /><stop
       offset="1"
       stop-color="#77767b"
       id="stop17"
       style="stop-color:#5e5e5e;stop-opacity:1" /></linearGradient><linearGradient
     id="c"
     gradientTransform="matrix(1 0 0 0.850001 0 -135.925327)"
     gradientUnits="userSpaceOnUse"
     x1="48.00016"
     x2="80.00016"
     y1="275.499908"
     y2="275.499908"><stop
       offset="0"
       stop-color="#e8e7e4"
       id="stop20"
       style="stop-color:#e5e5e5;stop-opacity:1" /><stop
       offset="0.511049"
       stop-color="#ffffff"
       id="stop22"
       style="stop-color:#f0f0f2;stop-opacity:1" /><stop
       offset="1"
       stop-color="#c2bfba"
       id="stop24"
       style="stop-color:#c2c2c2;stop-opacity:1" /></linearGradient><path
     d="m 28 16 h 72 c 4.417969 0 8 3.582031 8 8 v 88 c 0 4.417969 -3.582031 8 -8 8 h -72 c -4.417969 0 -8 -3.582031 -8 -8 v -88 c 0 -4.417969 3.582031 -8 8 -8 z m 0 0"
     fill="url(#a)"
     id="path27" /><path
     d="m 28 8 h 72 c 4.417969 0 8 3.582031 8 8 v 92 c 0 4.417969 -3.582031 8 -8 8 h -72 c -4.417969 0 -8 -3.582031 -8 -8 v -92 c 0 -4.417969 3.582031 -8 8 -8 z m 0 0"
     fill="#f6f5f4"
     id="path29"
     style="fill:#f0f0f2" /><g
     clip-path="url(#d)"
     mask="url(#b-6)"
     transform="translate(-210,21)"
     id="g22"><path
       d="M 37.671875,36.503906 V 122.50391 H 105.67188 V 36.503906 Z m 0,0"
       fill="url(#c)"
       id="path20"
       style="fill:url(#c-7)" /></g><path
     style="fill:#fecb49;stroke-width:1;fill-opacity:1"
     d="m 36.33043,86.061461 c -1.83424,-0.64458 -3.30932,-2.05658 -3.95778,-3.78851 C 32.0112,81.307551 32,80.757841 32,63.974131 c 0,-16.99359 0.007,-17.32203 0.38659,-18.33678 0.51106,-1.36591 1.80771,-2.78196 3.15175,-3.44198 l 1.07343,-0.52712 H 64 91.38824 l 1.07343,0.52712 c 1.34404,0.66002 2.64069,2.07607 3.15174,3.44198 0.37967,1.01475 0.38659,1.34319 0.38659,18.33678 0,17.25448 -0.001,17.30659 -0.40542,18.3871 -0.48697,1.30155 -1.87612,2.77166 -3.26517,3.45546 l -0.94117,0.46332 -27.10588,0.0394 c -24.28334,0.0353 -27.19398,0.008 -27.95193,-0.25793 z m 54.6017,-4.75521 0.55023,-0.55022 v -16.76445 -16.76445 l -0.54927,-0.61474 -0.54926,-0.61473 H 64 37.61618 l -0.54926,0.61473 -0.54927,0.61474 v 16.76445 16.76445 l 0.55023,0.55022 0.55022,0.55023 H 64 90.3819 Z M 40.84706,63.959391 v -14.69709 l 6.6353,0.0794 c 5.58672,0.0669 6.81377,0.13128 7.7647,0.4075 5.6543,1.64244 8.26404,6.68909 7.94006,15.35431 -0.12231,3.27155 -0.45421,5.08895 -1.30272,7.13352 -1.49229,3.59581 -4.228,5.63959 -8.33145,6.22423 -0.72471,0.10326 -3.88,0.18941 -7.01177,0.19146 l -5.69412,0.004 z m 10.97547,9.79195 c 2.15757,-0.54474 3.61986,-2.63947 4.19719,-6.01251 0.23377,-1.36579 0.28123,-2.47748 0.2009,-4.70588 -0.15553,-4.31485 -0.80284,-6.41354 -2.39974,-7.78044 -1.05111,-0.8997 -2.18434,-1.26929 -4.26793,-1.39191 l -1.74118,-0.10247 v 10.09623 10.09624 h 1.61076 c 0.88592,0 1.96592,-0.0897 2.4,-0.19926 z m 14.62453,-9.77721 v -14.68235 l 6.72941,0.003 c 7.308,0.004 8.39824,0.11304 10.19581,1.02394 4.10663,2.08099 4.90505,7.79817 1.54772,11.08267 -0.48012,0.46971 -1.33224,1.08304 -1.89361,1.36297 l -1.02067,0.50896 1.12924,0.40889 c 1.49881,0.5427 2.30495,1.06011 3.25135,2.08684 1.30656,1.41745 1.59481,2.27847 1.6046,4.79305 0.008,1.996 -0.0337,2.25599 -0.53226,3.33598 -0.55936,1.21172 -1.98384,2.75407 -3.05537,3.30818 -0.9606,0.49674 -2.92533,1.04851 -4.46396,1.25365 -0.80984,0.10797 -4.1769,0.19631 -7.48235,0.19631 l -6.00991,-1e-5 z m 12.1802,9.69304 c 1.15168,-0.34201 2.23016,-1.43163 2.42033,-2.44533 0.20632,-1.09973 -0.008,-2.46853 -0.50176,-3.2 -0.27393,-0.40608 -0.85481,-0.86845 -1.47595,-1.17484 -0.90367,-0.44575 -1.29701,-0.51431 -3.34118,-0.58236 l -2.31693,-0.0771 v 3.88155 3.88155 h 2.13054 c 1.34935,0 2.48049,-0.10392 3.08495,-0.28343 z m -0.98444,-12.91476 c 2.3827,-0.66149 3.38173,-4.20503 1.65249,-5.86135 -0.88614,-0.84878 -1.72597,-1.08164 -3.90103,-1.08164 h -1.98251 v 3.57647 3.57647 l 1.74117,-0.001 c 0.95765,-5.6e-4 2.07809,-0.0946 2.48988,-0.2089 z"
     id="path900" /></svg>
