<svg xmlns="http://www.w3.org/2000/svg" xmlns:svg="http://www.w3.org/2000/svg" id="svg49" width="128" height="128" version="1.1" viewBox="0 0 128 128"><linearGradient id="a" x1="88.596" x2="536.596" y1="-449.394" y2="-449.394" gradientTransform="matrix(0.196428 0 0 0.342105 2.59702 273.739929)" gradientUnits="userSpaceOnUse"><stop id="stop2" offset="0" stop-color="#deddda" style="stop-color:#d0d0d0;stop-opacity:1"/><stop id="stop4" offset=".045" stop-color="#eeeeec" style="stop-color:#e5e5e5;stop-opacity:1"/><stop id="stop6" offset=".091" stop-color="#deddda" style="stop-color:#d0d0d0;stop-opacity:1"/><stop id="stop8" offset=".909" stop-color="#deddda" style="stop-color:#d0d0d0;stop-opacity:1"/><stop id="stop10" offset=".955" stop-color="#eeeeec" style="stop-color:#e5e5e5;stop-opacity:1"/><stop id="stop12" offset="1" stop-color="#c0bfbc" style="stop-color:#d0d0d0;stop-opacity:1"/></linearGradient><linearGradient id="b" x1="58.999" x2="69" y1="64" y2="64" gradientUnits="userSpaceOnUse"><stop id="stop15" offset="0" stop-color="#9a9996" style="stop-color:#a5a5a5;stop-opacity:1"/><stop id="stop17" offset="1" stop-color="#77767b" style="stop-color:#5e5e5e;stop-opacity:1"/></linearGradient><linearGradient id="c" x1="48" x2="80" y1="275.5" y2="275.5" gradientTransform="matrix(1 0 0 0.850001 0 -135.925327)" gradientUnits="userSpaceOnUse"><stop id="stop20" offset="0" stop-color="#e8e7e4" style="stop-color:#e5e5e5;stop-opacity:1"/><stop id="stop22" offset=".511" stop-color="#fff" style="stop-color:#f0f0f2;stop-opacity:1"/><stop id="stop24" offset="1" stop-color="#c2bfba" style="stop-color:#c2c2c2;stop-opacity:1"/></linearGradient><path id="path27" fill="url(#a)" d="m 28 16 h 72 c 4.417969 0 8 3.582031 8 8 v 88 c 0 4.417969 -3.582031 8 -8 8 h -72 c -4.417969 0 -8 -3.582031 -8 -8 v -88 c 0 -4.417969 3.582031 -8 8 -8 z m 0 0"/><path id="path29" fill="#f6f5f4" d="m 28 8 h 72 c 4.417969 0 8 3.582031 8 8 v 92 c 0 4.417969 -3.582031 8 -8 8 h -72 c -4.417969 0 -8 -3.582031 -8 -8 v -92 c 0 -4.417969 3.582031 -8 8 -8 z m 0 0" style="fill:#f0f0f2"/><path id="path1461" style="fill:#5e5e5e;stroke-width:1" d="m 64.16154,87.97267 c 0.53075,-1.33e-4 1.08684,-0.01195 1.41992,-0.03711 2.53771,-0.191662 4.84313,-0.72653 7.18164,-1.664063 0.39074,-0.156654 0.84203,-0.351828 0.83203,-0.361328 -0.004,-0.0039 -0.12873,0.04616 -0.27734,0.111328 -0.12891,0.05653 -0.26993,0.108704 -0.4043,0.164063 0.26311,-0.107952 0.52667,-0.216026 0.78711,-0.333985 0.2592,-0.117395 0.51551,-0.242193 0.77149,-0.36914 -0.352,0.175281 -0.632,0.320232 -0.6211,0.320312 0.0393,2.7e-4 1.2695,-0.623764 1.66016,-0.841796 1.70497,-0.95155 3.21713,-2.039594 4.66992,-3.359376 0.44388,-0.403242 1.32346,-1.287592 1.7207,-1.730468 1.00433,-1.119696 1.92144,-2.356258 2.69727,-3.634766 0.025,-0.04125 0.0421,-0.07422 0.0371,-0.07422 -0.005,0 -0.0889,0.128407 -0.18555,0.285157 -0.0767,0.124246 -0.16084,0.245944 -0.24023,0.36914 1.22688,-1.903466 2.17601,-3.968159 2.80664,-6.115234 0.10249,-0.348965 0.19573,-0.699766 0.28125,-1.052734 -0.0137,0.05629 -0.023,0.118094 -0.0371,0.173828 -0.0338,0.13415 -0.0577,0.249006 -0.0527,0.253906 0.0105,0.01053 0.16422,-0.613288 0.26172,-1.064453 0.23699,-1.096756 0.41777,-2.428643 0.48047,-3.529297 0.006,-0.1155 0.0174,-0.264078 0.0234,-0.330078 0.006,-0.0697 -0.001,-0.07456 -0.01,-0.07227 4.7e-4,-0.0019 0.002,-0.01617 0.002,-0.01758 0.0297,-0.09349 0.0315,-2.13703 0.002,-2.15625 -4.9e-4,-3.23e-4 -0.001,-0.01286 -0.002,-0.01367 0.009,-0.0078 0.0114,-0.0549 0.006,-0.125 -0.006,-0.07425 -0.02,-0.279078 -0.0312,-0.455078 C 87.58967,56.78599 85.39356,51.759063 81.61076,47.82032 80.92247,47.103661 79.8088,46.087917 79.7299,46.105477 c -0.015,0.0033 -0.20426,0.210334 -0.42188,0.458984 -1.14249,1.305406 -1.51716,1.729927 -1.53906,1.748047 -0.0133,0.011 -0.13257,0.144055 -0.26562,0.296875 -0.15411,0.177014 -0.24219,0.293796 -0.24219,0.322266 0,0.02457 0.0586,0.173927 0.13086,0.332031 0.83763,1.830764 1.35365,3.431416 1.73633,5.388672 0.24599,1.258126 0.39131,2.456258 0.49414,4.080078 0.0341,0.539084 0.0483,2.490246 0.0215,3.009766 -0.0957,1.85346 -0.39029,3.503264 -0.90625,5.080078 -0.59034,1.804089 -1.4588,3.439442 -2.54297,4.789062 -0.56011,0.697239 -1.28408,1.427999 -1.95312,1.972656 -0.86219,0.701899 -1.91511,1.334686 -2.91016,1.746094 -0.3744,0.154799 -1.08623,0.388781 -1.48047,0.488281 -1.90445,0.480665 -3.82836,0.421919 -5.66015,-0.173828 -0.40679,-0.1323 -0.95093,-0.411049 -1.55664,-0.796875 -1.21348,-0.772951 -2.29143,-1.768325 -3.15821,-2.916015 -0.35802,-0.474056 -0.6697,-0.953607 -1.02344,-1.576172 -0.0456,-0.08026 -0.0592,-0.09275 -0.0801,-0.07031 -0.0139,0.01494 -0.21743,0.248078 -0.45118,0.517578 -0.23375,0.2695 -0.44018,0.502842 -0.45898,0.519532 -0.0188,0.01669 -0.28674,0.318111 -0.5957,0.669922 -0.30895,0.351812 -0.77437,0.882687 -1.03516,1.179687 -0.26079,0.297 -0.54295,0.614781 -0.62695,0.707031 -0.16666,0.183151 -0.79176,0.89358 -1.66602,1.892578 -0.30806,0.352 -0.57515,0.653422 -0.59375,0.669922 -0.0312,0.02769 -0.26837,0.29726 -1.65625,1.876953 -0.27698,0.315254 -0.51264,0.576479 -0.52344,0.580079 -0.0108,0.0036 -0.0262,-0.01256 -0.0332,-0.03516 -0.007,-0.0226 -0.0203,-0.04102 -0.0293,-0.04102 -0.0273,0 -0.45828,-0.872809 -0.63085,-1.279297 -1.09906,-2.588789 -1.70999,-5.53798 -1.85157,-8.925781 -0.0305,-0.730503 -0.0143,-2.350493 0.0293,-2.865235 0.20771,-2.450408 0.79805,-4.591199 1.81445,-6.582031 1.91624,-3.753386 5.24303,-6.492436 8.84766,-7.285156 1.66583,-0.366346 3.41273,-0.270054 4.80078,0.267578 0.132,0.05113 0.27436,0.102831 0.31836,0.113281 0.1139,0.02706 0.71097,0.323608 1.04102,0.517578 1.49779,0.880248 2.74014,2.024376 3.81445,3.513672 0.12129,0.168134 0.22928,0.303881 0.23828,0.300781 0.0194,-0.0067 0.30677,-0.421174 0.84961,-1.222656 0.21489,-0.317296 0.40267,-0.591175 0.41797,-0.609375 0.0153,-0.01821 0.21796,-0.313297 0.44922,-0.654297 0.46668,-0.688104 1.0555,-1.551459 1.71875,-2.519531 0.24116,-0.352 0.63394,-0.927297 0.87304,-1.279297 0.2391,-0.352 0.44222,-0.644891 0.44922,-0.650391 0.007,-0.0055 0.20678,-0.29839 0.44531,-0.65039 0.37342,-0.551056 1.07019,-1.571227 1.39454,-2.042969 0.0545,-0.07925 0.0996,-0.161681 0.0996,-0.181641 -1e-5,-0.04845 -0.30836,-0.482327 -0.61329,-0.863281 -1.03586,-1.294076 -2.34548,-2.460926 -3.80664,-3.392578 -1.98291,-1.264326 -4.38302,-2.151845 -6.59961,-2.439453 -0.4112,-0.05336 -0.38848,-0.05229 -0.49023,-0.03125 l -0.0137,0.0039 c 0.0417,-0.0076 0.006,-0.01509 -0.12696,-0.02344 -0.11,-0.0069 -0.24578,-0.0098 -0.30078,-0.0059 -0.0159,0.0011 -0.10445,7.74e-4 -0.14453,0.002 -0.0986,0.0029 -0.19905,0.0064 -0.35547,0.0078 -0.2346,0.0021 -0.34573,0.0088 -0.26953,0.01563 -0.13432,-0.01283 -0.16645,-0.01317 -0.66992,0.02148 -3.93152,0.27058 -7.74338,1.53703 -11.17969,3.710938 -2.60023,1.644976 -4.90663,3.803177 -6.72265,6.292969 -0.42636,0.584546 -1.07182,1.576723 -1.35743,2.085937 -0.12139,0.216428 -0.0178,0.05849 0.20313,-0.310547 0.0298,-0.04984 0.0616,-0.09882 0.0918,-0.148437 -0.15964,0.260732 -0.31554,0.522855 -0.46485,0.789062 -1.67288,2.982548 -2.69371,6.421629 -2.91015,9.800781 -0.0101,0.158098 -0.0201,0.242454 -0.0312,0.363282 5e-5,-0.07521 -0.003,-0.146439 -0.006,-0.142578 -0.004,0.0046 -0.0116,0.107515 -0.0176,0.228515 -0.004,0.08761 2.6e-4,0.104682 0.004,0.123047 -10e-4,0.0077 -0.003,0.04146 -0.004,0.04687 -0.031,0.177068 -0.031,2.142024 0,2.240234 0.0122,0.0385 0.0328,0.254969 0.0449,0.480469 0.006,0.115799 0.0191,0.233196 0.0273,0.34961 -0.008,-0.116498 -0.0229,-0.233457 -0.0293,-0.34961 -0.0221,-0.40003 -0.0332,-0.513637 -0.0488,-0.498047 -0.0103,0.01026 0.0433,0.802125 0.082,1.226563 0.49563,5.437753 2.78208,10.341091 6.61719,14.18164 0.84125,0.842454 1.64632,1.543163 2.56054,2.230469 0.55461,0.416952 1.26051,0.898438 1.31641,0.898438 0.0147,0 0.14116,-0.16875 0.28125,-0.375 0.21096,-0.310591 0.93454,-1.364272 1.20508,-1.75586 l 0.0703,-0.103515 0.0762,0.07227 c 0.0421,0.03957 0.17762,0.197563 0.30274,0.351563 0.83747,1.030795 1.64973,1.859371 2.55859,2.611328 1.59723,1.321493 3.40212,2.333196 5.26953,2.951172 0.88959,0.294389 1.25465,0.366488 2.52149,0.501953 0.23392,0.02501 0.73878,0.03724 1.26953,0.03711 z M 63.72599,40.037123 c 0.0692,-0.0039 0.0168,-0.0078 -0.11523,-0.0078 -0.13178,-10e-5 -0.1878,0.0038 -0.125,0.0078 0.0628,0.0039 0.17103,0.0039 0.24023,0 z m 23.29102,30.664063 c -0.13245,0.45019 -0.15307,0.530636 -0.10547,0.410156 0.0428,-0.108355 0.29011,-0.96309 0.28711,-0.99414 -0.001,-0.01362 -0.0151,0.01922 -0.0312,0.07422 -0.0162,0.055 -0.084,0.284266 -0.15039,0.509766 z M 73.7006,85.851576 c -0.0495,0.0265 -0.0794,0.04883 -0.0684,0.04883 0.011,0 0.0599,-0.02232 0.10938,-0.04883 0.0495,-0.0265 0.0813,-0.04687 0.0703,-0.04687 -0.011,0 -0.0618,0.02036 -0.11133,0.04687 z m -9.54687,2.107422 c -0.0553,-2.38e-4 -0.1073,-0.0031 -0.16211,-0.0039 0.17422,0.0024 0.35396,0.0013 0.53515,-0.002 -0.12405,0.002 -0.25126,0.0064 -0.37304,0.0059 z m 0.71484,-0.01367 c 0.31075,-0.01138 0.62983,-0.02777 0.97266,-0.05469 0.20216,-0.01588 0.40508,-0.03908 0.60742,-0.06055 -0.53703,0.05792 -1.06609,0.09785 -1.58008,0.115234 z m -1.2832,-0.002 c -0.17621,-0.0068 -0.34811,-0.01671 -0.51758,-0.0293 0.17103,0.01319 0.34369,0.02219 0.51758,0.0293 z m -0.83594,-0.05664 c -0.0602,-0.0059 -0.12445,-0.0089 -0.18359,-0.01563 -0.15573,-0.01771 -0.26822,-0.0379 -0.40235,-0.05664 0.19606,0.02738 0.39167,0.05292 0.58594,0.07227 z m 4.00781,-0.08789 c 0.10696,-0.01284 0.21337,-0.03054 0.32031,-0.04492 -0.10692,0.01448 -0.21374,0.03198 -0.32031,0.04492 z m -4.91797,-0.03125 c -0.0642,-0.01079 -0.13659,-0.02166 -0.19726,-0.0332 0.0594,0.01067 0.12273,0.02135 0.19726,0.0332 z m 5.79688,-0.09375 c 0.53138,-0.08488 1.06168,-0.188094 1.58984,-0.310547 -0.52571,0.121691 -1.0573,0.225466 -1.58984,0.310547 z m 1.75195,-0.347656 c 0.51356,-0.122885 1.02389,-0.26805 1.53125,-0.425781 -0.46462,0.144168 -0.93237,0.281348 -1.39258,0.394531 -0.0459,0.01129 -0.0926,0.02024 -0.13867,0.03125 z m -9.92969,-0.400391 c 0.0325,-0.04069 0.098,-0.115675 0.14649,-0.166015 0.0822,-0.08528 0.53442,-0.59682 1.67187,-1.894532 0.25664,-0.292797 0.5367,-0.608871 0.6211,-0.701172 -0.0844,0.0923 -0.3625,0.408375 -0.61914,0.701172 -1.13745,1.297712 -1.58968,1.809252 -1.67188,1.894532 -0.0485,0.05034 -0.11594,0.125335 -0.14844,0.166015 z m 11.71094,-0.103515 c 0.5128,-0.165572 1.02234,-0.346325 1.52539,-0.546875 -0.48794,0.194525 -0.99956,0.37775 -1.52539,0.546875 z m 3.91406,-1.658204 c 0.12278,-0.0652 0.24734,-0.127987 0.36914,-0.195312 -0.12032,0.06617 -0.24619,0.130237 -0.36914,0.195312 z m 0.66211,-0.363281 c 0.22176,-0.126509 0.44217,-0.253393 0.66016,-0.386719 -0.21619,0.131932 -0.43784,0.260504 -0.66016,0.386719 z m 0.72071,-0.423828 c 0.25893,-0.159373 0.51467,-0.323589 0.76757,-0.492187 -0.25389,0.169508 -0.50932,0.333521 -0.76757,0.492187 z m 0.96484,-0.626909 c 0.20833,-0.141768 0.41551,-0.285825 0.61914,-0.433594 -0.0533,0.0387 -0.10465,0.08093 -0.1582,0.119141 -0.15348,0.109507 -0.30759,0.209947 -0.46094,0.314453 z m 1.19922,-0.871094 c 0.0842,-0.06496 0.17067,-0.127391 0.25391,-0.193359 -0.0834,0.06633 -0.16974,0.128219 -0.25391,0.193359 z m 1.92578,-1.654297 c 0.12046,-0.115533 0.23951,-0.234216 0.35937,-0.353515 -0.11929,0.118512 -0.2377,0.23743 -0.35937,0.353515 z m 0.78516,-0.785156 c 0.10188,-0.105917 0.2018,-0.212098 0.30078,-0.318359 -0.0992,0.107138 -0.19965,0.212898 -0.30078,0.318359 z M 66.4213,79.042983 c 0.13301,-0.144963 0.48754,-0.549441 1.66797,-1.894531 0.3074,-0.350273 0.59212,-0.669528 0.63282,-0.710938 0.0407,-0.04141 0.13488,-0.145912 0.20898,-0.232422 l 0.13477,-0.158203 h 0.002 l -0.13477,0.158203 c -0.0741,0.08651 -0.16828,0.191012 -0.20898,0.232422 -0.0407,0.04141 -0.32541,0.360666 -0.63281,0.710938 -1.18043,1.345091 -1.53693,1.749568 -1.66993,1.894531 z m 16.31836,-0.197266 c 0.15592,-0.193906 0.31333,-0.387581 0.46289,-0.585937 -0.14985,0.197979 -0.30639,0.391923 -0.46289,0.585937 z M 83.4799,77.87892 c 0.17373,-0.240084 0.34535,-0.480643 0.50976,-0.726562 -0.1642,0.245212 -0.33525,0.486251 -0.50976,0.726562 z m 1.16797,-1.736328 c 0.008,0 0.18138,-0.289558 0.26757,-0.445312 0.005,-0.0082 0.005,-0.01563 0,-0.01563 -0.005,0 -0.0504,0.071 -0.0996,0.15625 -0.0492,0.08525 -0.11037,0.187265 -0.13477,0.228515 -0.0241,0.04125 -0.0392,0.07617 -0.0332,0.07617 z M 70.30412,75.734389 c 0.0279,-0.0086 0.0561,-0.01661 0.084,-0.02539 -0.0279,0.0088 -0.056,0.01679 -0.084,0.02539 z m 14.62304,-0.07227 c 0.0101,0 0.21087,-0.352831 0.29297,-0.515625 0.0813,-0.161398 0.0254,-0.08482 -0.0742,0.101563 -0.0549,0.102814 -0.12896,0.238591 -0.16406,0.300781 -0.0351,0.06218 -0.0607,0.113281 -0.0547,0.113281 z M 71.31193,75.373057 c 0.0352,-0.01454 0.0704,-0.03002 0.10547,-0.04492 -0.0352,0.01495 -0.0701,0.03032 -0.10547,0.04492 z m 13.96094,-0.330078 c 0.0278,0 0.78426,-1.582991 0.82226,-1.720703 0.0144,-0.05224 -0.0685,0.118757 -0.23633,0.490234 -0.0895,0.198 -0.2592,0.555672 -0.3789,0.794922 -0.11973,0.23925 -0.21303,0.435547 -0.20703,0.435547 z m -42.67383,-0.25 c -0.0146,0 -0.10894,-0.163328 -0.20899,-0.361328 -0.0231,-0.04578 -0.0436,-0.0945 -0.0664,-0.140625 0.13318,0.269654 0.25342,0.501953 0.27539,0.501953 z m 30.5957,-0.410157 c 0.0282,-0.01828 0.0579,-0.03419 0.0859,-0.05273 -0.0281,0.01852 -0.0577,0.03447 -0.0859,0.05273 z M 42.15568,73.931651 c -0.10703,-0.227938 -0.2128,-0.456275 -0.3125,-0.691407 0.0999,0.234124 0.20647,0.464172 0.3125,0.691407 z m 31.82031,-0.103516 c 0.26429,-0.202444 0.51975,-0.415828 0.76758,-0.638672 -0.24905,0.224365 -0.50453,0.437453 -0.76758,0.638672 z m 12.14453,-0.570313 c 0.0249,-0.03861 0.32032,-0.764639 0.32032,-0.787109 0,-0.03173 -0.0222,0.01615 -0.16993,0.380859 -0.17132,0.422831 -0.18299,0.45693 -0.15039,0.40625 z M 74.90177,73.052744 c 0.2974,-0.276339 0.58123,-0.567712 0.85352,-0.873046 -0.27307,0.306925 -0.55842,0.598199 -0.85352,0.873046 z M 41.57755,72.582041 c -0.0317,-0.08231 -0.0649,-0.163108 -0.0957,-0.246093 0.0308,0.0831 0.064,0.163728 0.0957,0.246093 z m 44.88086,-0.160156 c 0.0102,-0.0165 0.0242,-0.05258 0.0312,-0.08008 0.01,-0.03475 0.009,-0.04038 -0.004,-0.01953 -0.0102,0.0165 -0.0262,0.05258 -0.0332,0.08008 -0.01,0.03475 -0.007,0.04038 0.006,0.01953 z m 0.0508,-0.146484 c 0.007,0.0071 0.15234,-0.382134 0.15234,-0.408203 0,-0.03132 -0.0241,0.02168 -0.0898,0.203124 -0.0394,0.108757 -0.0665,0.200879 -0.0625,0.205079 z M 76.00529,71.875014 c 0.17516,-0.208475 0.34989,-0.418019 0.51367,-0.638672 -0.0208,0.0281 -0.0395,0.05799 -0.0605,0.08594 -0.145,0.192578 -0.30019,0.370369 -0.45312,0.552734 z m 10.68359,-0.09766 c 0.009,0.009 0.19341,-0.535283 0.19141,-0.564453 -8e-4,-0.01099 -0.0456,0.108838 -0.0996,0.267578 -0.054,0.158741 -0.0958,0.292675 -0.0918,0.296875 z m -9.96094,-0.835938 c 0.18118,-0.257798 0.35553,-0.521908 0.52149,-0.794922 -0.16578,0.271325 -0.33928,0.536122 -0.52149,0.794922 z M 40.83537,70.296885 c -0.0323,-0.120627 -0.0614,-0.241965 -0.0918,-0.363281 0.0304,0.12131 0.0596,0.242629 0.0918,0.363281 z M 77.3588,69.972666 c 0.21379,-0.363044 0.41476,-0.738788 0.60157,-1.126953 -0.18666,0.386393 -0.38626,0.763256 -0.60157,1.126953 z M 40.57755,69.232432 c -0.0307,-0.140576 -0.0598,-0.280753 -0.0879,-0.421875 0.0281,0.14069 0.0573,0.281605 0.0879,0.421875 z m 37.40821,-0.439453 c 0.37571,-0.788155 0.69418,-1.62771 0.95508,-2.511719 -0.26028,0.886234 -0.57793,1.723417 -0.95508,2.511719 z m 9.60351,-0.511719 c 0.016,-0.088 0.03,-0.175756 0.0449,-0.263672 -0.0149,0.08862 -0.0291,0.175632 -0.0449,0.263672 z M 40.37638,68.19337 c -0.0262,-0.152406 -0.0512,-0.304394 -0.0742,-0.457031 0.0231,0.152296 0.048,0.304728 0.0742,0.457031 z m -0.16015,-1.085937 c -0.0178,-0.145263 -0.0378,-0.290445 -0.0527,-0.435547 0.0149,0.14494 0.0349,0.290135 0.0527,0.435547 z m 38.78906,-1.050781 c 0.12043,-0.427882 0.23127,-0.862351 0.32422,-1.310547 -0.0934,0.450243 -0.20465,0.883576 -0.32422,1.310547 z M 40.00724,64.63673 c 0.004,0.0415 0.008,0.01255 0.008,-0.06445 0,-0.07705 -0.004,-0.111672 -0.008,-0.07617 -0.004,0.0355 -0.004,0.09913 0,0.140625 z m 47.97852,-0.07031 c 0.004,0.04704 0.01,0.01378 0.01,-0.07422 0,-0.08803 -0.004,-0.126898 -0.008,-0.08594 -0.004,0.04096 -0.006,0.113116 -0.002,0.160156 z m -8.26563,-0.59375 c 0.12369,-0.143 0.23932,-0.274515 0.25781,-0.291015 0.017,-0.01514 0.60033,-0.678244 0.9043,-1.023438 -0.30331,0.344442 -0.88534,1.008319 -0.90234,1.023438 -0.0185,0.0165 -0.13608,0.148015 -0.25977,0.291015 z M 40.00724,63.556655 c 0.004,0.0415 0.008,0.01255 0.008,-0.06445 0,-0.07705 -0.004,-0.111672 -0.008,-0.07617 -0.004,0.0355 -0.004,0.09913 0,0.140625 z m 47.98047,-0.01953 c 0.004,0.04125 0.008,0.0083 0.008,-0.07422 0,-0.0825 -0.004,-0.117422 -0.008,-0.07617 -0.004,0.04125 -0.004,0.10914 0,0.15039 z m -39.27539,-0.84375 c 0.0401,-0.158734 0.0868,-0.312355 0.13086,-0.46875 -0.0444,0.155921 -0.0907,0.311181 -0.13086,0.46875 z m -8.64844,-0.18164 0.0254,-0.298828 c 0.0144,-0.165 0.0331,-0.385735 0.0391,-0.490235 0.011,-0.18293 0.0102,-0.182242 -0.0156,0.04883 -0.0147,0.132 -0.0331,0.352735 -0.0391,0.490235 z m 47.80274,-0.853516 c -0.008,-0.0883 -0.0216,-0.181547 -0.0312,-0.271484 0.01,0.09079 0.0227,0.182437 0.0312,0.271484 z m -38.84375,-0.04687 c 0.0136,-0.04235 0.0251,-0.08682 0.0391,-0.128906 0.19117,-0.57678 0.41553,-1.13524 0.66406,-1.677734 -0.2668,0.584265 -0.50197,1.187179 -0.70312,1.80664 z m -8.875,-0.125 c 0.005,0.02475 0.008,0.0046 0.008,-0.04492 0,-0.0495 -0.003,-0.06967 -0.008,-0.04492 -0.005,0.02475 -0.005,0.06509 0,0.08984 z m 0.0195,-0.179687 c 0.005,0.02475 0.008,0.0046 0.008,-0.04492 0,-0.0495 -0.003,-0.06967 -0.008,-0.04492 -0.005,0.02475 -0.005,0.06509 0,0.08984 z m 0.0195,-0.179688 c 0.005,0.02488 0.01,0.0088 0.01,-0.03516 0,-0.04403 -0.005,-0.06404 -0.01,-0.04492 -0.005,0.01912 -0.005,0.0552 0,0.08008 z m 0.0195,-0.160156 c 0.005,0.02488 0.01,0.0088 0.01,-0.03516 0,-0.04403 -0.003,-0.06404 -0.008,-0.04492 -0.005,0.01912 -0.007,0.0552 -0.002,0.08008 z m 0.0195,-0.173828 c 6e-4,0.033 0.011,-0.01356 0.0254,-0.101563 0.0144,-0.088 0.0259,-0.181484 0.0254,-0.208984 -5e-4,-0.0275 -0.0129,0.01711 -0.0273,0.09961 -0.0144,0.0825 -0.0241,0.177938 -0.0234,0.210938 z m 0.0586,-0.410157 c 7e-4,0.03207 0.007,0.02007 0.0176,-0.03125 0.009,-0.044 0.0163,-0.101406 0.0156,-0.128906 -7e-4,-0.03207 -0.007,-0.02202 -0.0176,0.0293 -0.009,0.044 -0.0163,0.103359 -0.0156,0.130859 z m 0.043,-0.246093 c 0.005,0.01946 0.009,0.0076 0.01,-0.02539 10e-4,-0.03298 -0.004,-0.0487 -0.01,-0.03516 -0.006,0.01354 -0.005,0.04109 0,0.06055 z m 0.0195,-0.119141 c 0.005,0.01946 0.009,0.0076 0.01,-0.02539 0.001,-0.03298 -0.003,-0.0487 -0.008,-0.03516 -0.006,0.01354 -0.007,0.04109 -0.002,0.06055 z m 0.0215,-0.103516 c 0.002,-0.0014 0.007,-0.01621 0.0137,-0.04297 0.008,-0.033 0.0137,-0.08187 0.0137,-0.109375 0,-0.0446 -7e-5,-0.04375 -0.0137,0.0098 -0.008,0.033 -0.0156,0.08383 -0.0156,0.111328 0,0.0223 -1.8e-4,0.03264 0.002,0.03125 z m 0.0352,-0.242187 c 7e-4,0.022 0.0144,-0.01408 0.0293,-0.08008 0.0149,-0.066 0.026,-0.138156 0.0254,-0.160156 -7e-4,-0.022 -0.0124,0.01408 -0.0273,0.08008 -0.0149,0.066 -0.028,0.138156 -0.0273,0.160156 z m 9.39062,-0.01563 c 0.13255,-0.281814 0.27073,-0.558818 0.41797,-0.830078 -0.14662,0.27121 -0.28619,0.548917 -0.41797,0.830078 z m 37.77344,-0.130859 c -0.0126,-0.06927 -0.026,-0.134902 -0.0391,-0.203125 0.0131,0.06868 0.0264,0.133385 0.0391,0.203125 z M 40.46812,59.367204 c 0.005,0.01375 0.01,0.0021 0.01,-0.02539 0,-0.0275 -0.005,-0.03914 -0.01,-0.02539 -0.006,0.01375 -0.006,0.03703 0,0.05078 z m 0.0195,-0.09961 c 0.005,0.01375 0.01,0.0021 0.01,-0.02539 0,-0.0275 -0.004,-0.03914 -0.01,-0.02539 -0.005,0.01375 -0.005,0.03703 0,0.05078 z m 0.0176,-0.115234 c 3e-4,0.022 0.0132,-0.0055 0.0273,-0.06055 0.0141,-0.055 0.0256,-0.118625 0.0254,-0.140625 -3e-4,-0.022 -0.0132,0.0055 -0.0273,0.06055 -0.0141,0.055 -0.0257,0.118625 -0.0254,0.140625 z m 0.0625,-0.257813 c 0.002,-0.0015 0.007,-0.01341 0.0137,-0.0332 0.009,-0.0275 0.0156,-0.06784 0.0156,-0.08984 0,-0.03167 -0.003,-0.02982 -0.0156,0.0098 -0.009,0.0275 -0.0156,0.06784 -0.0156,0.08984 0,0.01584 -4.6e-4,0.02495 0.002,0.02344 z m 9.67773,-0.134765 c 0.14712,-0.268074 0.30392,-0.530178 0.46485,-0.78711 -0.16099,0.257491 -0.31815,0.518758 -0.46485,0.78711 z m -9.64258,-0.05859 c 7.1e-4,0.0165 0.014,-0.01336 0.0293,-0.06836 0.0153,-0.055 0.0281,-0.114359 0.0274,-0.130859 -7e-4,-0.0165 -0.014,0.01531 -0.0293,0.07031 -0.0153,0.055 -0.0281,0.112406 -0.0273,0.128906 z m 46.78321,-0.06445 c -0.0485,-0.212987 -0.1089,-0.439478 -0.16797,-0.667969 0.0429,0.163744 0.0938,0.334818 0.12891,0.482422 0.0137,0.05765 0.0256,0.126151 0.0391,0.185547 z M 40.66733,58.445335 c 0.006,0.01596 0.0108,0.01158 0.0117,-0.01172 h 0.002 c 9e-4,-0.02105 -0.005,-0.03199 -0.0117,-0.02539 -0.007,0.0066 -0.008,0.02267 -0.002,0.03711 z m 0.0195,-0.08008 c 0.006,0.01596 0.0127,0.01158 0.0137,-0.01172 9e-4,-0.02105 -0.005,-0.03199 -0.0117,-0.02539 -0.007,0.0066 -0.008,0.02267 -0.002,0.03711 z m 0.0215,-0.08008 c 0.006,0.01596 0.0108,0.01158 0.0117,-0.01172 9e-4,-0.02105 -0.003,-0.03199 -0.01,-0.02539 -0.007,0.0066 -0.008,0.02267 -0.002,0.03711 z m 0.0195,-0.07031 c 0.002,-0.0015 0.007,-0.01311 0.0137,-0.0332 0.009,-0.0275 0.0153,-0.06358 0.0156,-0.08008 4e-4,-0.01838 -0.005,-0.01474 -0.0156,0.0098 -0.01,0.022 -0.0179,0.05808 -0.0176,0.08008 2.5e-4,0.01608 10e-4,0.02493 0.004,0.02344 z m 0.0391,-0.169922 c 0.006,0.01596 0.0127,0.01158 0.0137,-0.01172 9e-4,-0.02105 -0.005,-0.03199 -0.0117,-0.02539 -0.007,0.0066 -0.008,0.02267 -0.002,0.03711 z m 0.0195,-0.07031 c 0.008,0.0076 0.11523,-0.370116 0.11523,-0.404297 0,-0.04021 -0.0217,0.02063 -0.0703,0.199219 -0.0295,0.108202 -0.0499,0.200478 -0.0449,0.205078 z m 10.0664,-0.222656 c 0.20504,-0.315451 0.41747,-0.623263 0.64258,-0.919922 -0.22588,0.297186 -0.43821,0.605227 -0.64258,0.919922 z m -9.94921,-0.230469 c 0,0.01891 0.007,0.01544 0.0176,-0.0098 0.009,-0.022 0.0176,-0.05381 0.0176,-0.07031 0,-0.01891 -0.007,-0.01544 -0.0176,0.0098 -0.009,0.022 -0.0176,0.05381 -0.0176,0.07031 z m 0.041,-0.138672 c 0,0.01891 0.007,0.01349 0.0176,-0.01172 0.009,-0.022 0.0156,-0.05186 0.0156,-0.06836 10e-6,-0.01891 -0.005,-0.01544 -0.0156,0.0098 -0.009,0.022 -0.0176,0.05381 -0.0176,0.07031 z m 0.0391,-0.140624 c 0,0.0165 0.0168,-0.01531 0.0371,-0.07031 0.0203,-0.055 0.0371,-0.112406 0.0371,-0.128906 0,-0.0165 -0.0168,0.01336 -0.0371,0.06836 -0.0203,0.055 -0.0371,0.11436 -0.0371,0.13086 z m 46.03321,-0.01172 c -0.059,-0.202795 -0.10958,-0.358961 -0.16407,-0.525391 0.0586,0.180906 0.0954,0.288228 0.16407,0.525391 z M 41.0638,56.990257 c 8e-4,0.01161 0.0221,-0.0408 0.0488,-0.117187 0.0267,-0.07639 0.0477,-0.148546 0.0469,-0.160156 -8e-4,-0.01161 -0.0221,0.0408 -0.0488,0.117187 -0.0267,0.07639 -0.0477,0.148546 -0.0469,0.160156 z m 10.56641,-0.328125 c 0.24251,-0.310273 0.49432,-0.613085 0.75781,-0.90039 0.2863,-0.312169 0.58512,-0.607569 0.89453,-0.890625 -0.30864,0.282674 -0.60858,0.579242 -0.89453,0.890625 -0.26449,0.288019 -0.51492,0.59018 -0.75781,0.90039 z M 41.29036,56.316429 c 0.004,0.0043 0.028,-0.05396 0.0527,-0.128906 0.0247,-0.07496 0.0487,-0.149516 0.0547,-0.166016 0.006,-0.01655 0.003,-0.02408 -0.004,-0.01758 -0.0185,0.01635 -0.11351,0.3028 -0.10352,0.3125 z M 86.67708,56.18557 c -0.004,-0.0072 -0.0107,-0.02682 -0.0137,-0.03125 2.8e-4,4.33e-4 0.002,-0.0024 0.002,-0.002 0.002,0.0035 0.01,0.02896 0.0117,0.0332 z M 41.40951,55.970726 c 0.002,-0.0015 0.009,-0.01497 0.0195,-0.03906 0.015,-0.033 0.0321,-0.08187 0.0391,-0.109375 0.01,-0.04016 0.008,-0.03843 -0.0137,0.0098 -0.015,0.033 -0.034,0.08187 -0.041,0.109375 -0.005,0.02008 -0.006,0.03079 -0.004,0.0293 z m 0.0879,-0.228515 c 0.0102,-0.0165 0.0262,-0.05258 0.0332,-0.08008 0.01,-0.03475 0.007,-0.04038 -0.006,-0.01953 -0.0102,0.0165 -0.0242,0.05258 -0.0312,0.08008 -0.01,0.03475 -0.009,0.04038 0.004,0.01953 z m 0.0508,-0.148438 c 0.006,0.0065 0.0791,-0.169005 0.125,-0.300781 h 0.002 c 0.007,-0.022 0.008,-0.03675 0.002,-0.03125 -0.0179,0.01561 -0.1369,0.323531 -0.1289,0.332031 z m 0.13476,-0.361328 c 0,0.011 0.007,0.0067 0.0176,-0.0098 0.0104,-0.0165 0.0195,-0.03978 0.0195,-0.05078 0,-0.011 -0.009,-0.0067 -0.0195,0.0098 -0.0104,0.0165 -0.0176,0.03978 -0.0176,0.05078 z m 0.0449,-0.09766 c 0.008,0.0078 0.0683,-0.12843 0.0859,-0.19336 0.005,-0.0165 -0.0149,0.01896 -0.043,0.07813 -0.0281,0.05917 -0.048,0.110735 -0.043,0.115235 z m 0.0996,-0.240235 c 0.008,0.0078 0.0683,-0.128429 0.0859,-0.193359 0.005,-0.0165 -0.0149,0.01896 -0.043,0.07813 -0.0281,0.05917 -0.048,0.110734 -0.043,0.115234 z m 11.50391,-0.07031 c 0.28482,-0.258071 0.58198,-0.5006 0.88477,-0.732422 -0.30214,0.231914 -0.59959,0.473703 -0.88477,0.732422 z m -11.4043,-0.169922 c 0.008,0.0076 0.12979,-0.25284 0.14649,-0.3125 0.005,-0.0165 -0.0277,0.04656 -0.0723,0.138672 -0.0446,0.09211 -0.0782,0.169528 -0.0742,0.173828 z m 0.15625,-0.361328 c 0,0.011 0.0223,-0.02081 0.0488,-0.07031 0.0265,-0.0495 0.0469,-0.100328 0.0469,-0.111328 0,-0.011 -0.0204,0.02081 -0.0469,0.07031 -0.0265,0.0495 -0.0488,0.100328 -0.0488,0.111328 z m 0.0996,-0.220703 c 0,0.011 0.0352,-0.04836 0.0781,-0.13086 0.0429,-0.0825 0.0781,-0.158922 0.0781,-0.169922 0,-0.011 -0.0352,0.04836 -0.0781,0.13086 -0.0429,0.0825 -0.0781,0.158922 -0.0781,0.169922 z m 12.21485,-0.121094 c 0.22852,-0.168916 0.45953,-0.331035 0.69726,-0.484375 -0.23637,0.152729 -0.46746,0.314056 -0.69726,0.484375 z M 42.36653,53.69338 c 0.004,0.0039 0.0626,-0.105163 0.13086,-0.242187 0.0683,-0.137024 0.11828,-0.25 0.11328,-0.25 -0.0132,0 -0.25314,0.483387 -0.24414,0.492187 z m 12.9707,-0.373047 c 0.18264,-0.112298 0.36713,-0.221354 0.55469,-0.324218 -0.18736,0.10256 -0.37211,0.21188 -0.55469,0.324218 z M 42.65168,53.142599 c 0.006,0 0.0456,-0.07216 0.0899,-0.160156 0.0442,-0.088 0.0763,-0.160156 0.0703,-0.160156 -0.006,0 -0.0455,0.07216 -0.0898,0.160156 -0.0442,0.088 -0.0763,0.160156 -0.0703,0.160156 z m 13.49414,-0.283203 c 0.0421,-0.02187 0.0827,-0.04697 0.125,-0.06836 0.20427,-0.103214 0.39008,-0.183569 0.57813,-0.267578 -0.2385,0.105532 -0.47301,0.216729 -0.70313,0.335938 z m -13.31445,-0.05664 c 0.006,0 0.0327,-0.04656 0.0606,-0.101562 0.0279,-0.055 0.047,-0.09961 0.041,-0.09961 -0.005,0 -0.0326,0.04461 -0.0605,0.09961 -0.0279,0.055 -0.046,0.101562 -0.041,0.101562 z m 0.125,-0.230468 c 0.0112,-0.011 0.054,-0.08316 0.0957,-0.160157 0.0417,-0.077 0.0659,-0.13014 0.0547,-0.11914 -0.0112,0.011 -0.054,0.0812 -0.0957,0.158203 -0.0417,0.077 -0.066,0.132094 -0.0547,0.121094 z m 14.03516,-0.115235 c 0.29666,-0.127703 0.59701,-0.245145 0.94922,-0.365234 -0.325,0.110812 -0.64041,0.233077 -0.94922,0.365234 z M 43.64387,51.42971 c 0.14942,-0.237623 0.30297,-0.472769 0.46094,-0.705079 -0.15809,0.232154 -0.31112,0.467808 -0.46094,0.705079 z m 0.51172,-0.779297 c 0.18027,-0.262959 0.36576,-0.521576 0.55664,-0.777344 -0.19063,0.255728 -0.37622,0.514492 -0.55664,0.777344 z m 0.62305,-0.869141 c 0.18953,-0.25147 0.38454,-0.498082 0.58398,-0.742188 -0.19868,0.243883 -0.39479,0.490819 -0.58398,0.742188 z m 0.65625,-0.832031 c 0.17497,-0.212086 0.35489,-0.420731 0.53711,-0.626953 -0.18192,0.20659 -0.36214,0.41422 -0.53711,0.626953 z m 2.58398,-2.685547 c 0.0464,-0.04149 0.092,-0.08386 0.13867,-0.125 -0.0467,0.041 -0.0923,0.08362 -0.13867,0.125 z m 0.58008,-0.501953 c 0.31056,-0.260864 0.62406,-0.518095 0.94726,-0.763672 -0.32209,0.244392 -0.63532,0.502512 -0.94726,0.763672 z m 0.96875,-0.779297 c 0.34633,-0.262563 0.70261,-0.511647 1.0625,-0.75586 -0.35901,0.243475 -0.71474,0.49257 -1.0625,0.75586 z m 1.32422,-0.933594 c 0.35545,-0.234629 0.71664,-0.461686 1.08398,-0.677734 -0.36634,0.215406 -0.72783,0.442752 -1.08398,0.677734 z m 1.27148,-0.783203 c 0.35547,-0.204892 0.71455,-0.401055 1.08008,-0.587891 -0.36475,0.186443 -0.72425,0.382838 -1.08008,0.587891 z m 1.19922,-0.650391 c 0.32601,-0.164363 0.65497,-0.323158 0.98828,-0.472656 0.0574,-0.02574 0.1162,-0.04892 0.17383,-0.07422 -0.39165,0.172188 -0.77959,0.354006 -1.16211,0.546876 z m 1.54883,-0.708984 c 0.28747,-0.120221 0.57702,-0.234653 0.86914,-0.34375 -0.29214,0.10939 -0.58149,0.223177 -0.86914,0.34375 z m 1.28906,-0.5 c 0.29046,-0.102437 0.5835,-0.195906 0.87695,-0.287109 -0.29384,0.09142 -0.58713,0.184669 -0.87695,0.287109 z m 1.31836,-0.425781 c 0.39387,-0.114289 0.78942,-0.217089 1.18555,-0.310547 -0.39826,0.09409 -0.79373,0.196806 -1.18555,0.310547 z m 1.8457,-0.453125 c 0.1271,-0.02617 0.25385,-0.05417 0.38086,-0.07813 -0.12937,0.02394 -0.25356,0.05225 -0.38086,0.07813 z m 0.87696,-0.16211 c 0.2032,-0.03372 0.40691,-0.06781 0.60937,-0.0957 -0.20378,0.02788 -0.40618,0.06258 -0.60937,0.0957 z m 0.71289,-0.107422 c 0.6422,-0.08536 1.27919,-0.14708 1.90625,-0.171874 -0.59881,0.02368 -1.2498,0.085 -1.90625,0.171874 z m 3.1914,-0.220703 c 0.036,-0.0045 0.0113,-0.0096 -0.0547,-0.0098 -0.066,-10e-5 -0.0945,0.0052 -0.0645,0.0098 0.03,0.0046 0.0831,0.0045 0.11914,0 z"/></svg>