<svg xmlns="http://www.w3.org/2000/svg" xmlns:svg="http://www.w3.org/2000/svg" id="svg49" width="128" height="128" version="1.1" viewBox="0 0 128 128"><linearGradient id="a" x1="88.596" x2="536.596" y1="-449.394" y2="-449.394" gradientTransform="matrix(0.196428 0 0 0.342105 2.59702 273.739929)" gradientUnits="userSpaceOnUse"><stop id="stop2" offset="0" stop-color="#deddda" style="stop-color:#d0d0d0;stop-opacity:1"/><stop id="stop4" offset=".045" stop-color="#eeeeec" style="stop-color:#e5e5e5;stop-opacity:1"/><stop id="stop6" offset=".091" stop-color="#deddda" style="stop-color:#d0d0d0;stop-opacity:1"/><stop id="stop8" offset=".909" stop-color="#deddda" style="stop-color:#d0d0d0;stop-opacity:1"/><stop id="stop10" offset=".955" stop-color="#eeeeec" style="stop-color:#e5e5e5;stop-opacity:1"/><stop id="stop12" offset="1" stop-color="#c0bfbc" style="stop-color:#d0d0d0;stop-opacity:1"/></linearGradient><linearGradient id="b" x1="58.999" x2="69" y1="64" y2="64" gradientUnits="userSpaceOnUse"><stop id="stop15" offset="0" stop-color="#9a9996" style="stop-color:#a5a5a5;stop-opacity:1"/><stop id="stop17" offset="1" stop-color="#77767b" style="stop-color:#5e5e5e;stop-opacity:1"/></linearGradient><linearGradient id="c" x1="48" x2="80" y1="275.5" y2="275.5" gradientTransform="matrix(1 0 0 0.850001 0 -135.925327)" gradientUnits="userSpaceOnUse"><stop id="stop20" offset="0" stop-color="#e8e7e4" style="stop-color:#e5e5e5;stop-opacity:1"/><stop id="stop22" offset=".511" stop-color="#fff" style="stop-color:#f0f0f2;stop-opacity:1"/><stop id="stop24" offset="1" stop-color="#c2bfba" style="stop-color:#c2c2c2;stop-opacity:1"/></linearGradient><path id="path27" fill="url(#a)" d="m 28 16 h 72 c 4.417969 0 8 3.582031 8 8 v 88 c 0 4.417969 -3.582031 8 -8 8 h -72 c -4.417969 0 -8 -3.582031 -8 -8 v -88 c 0 -4.417969 3.582031 -8 8 -8 z m 0 0"/><path id="path29" fill="#f6f5f4" d="m 28 8 h 72 c 4.417969 0 8 3.582031 8 8 v 92 c 0 4.417969 -3.582031 8 -8 8 h -72 c -4.417969 0 -8 -3.582031 -8 -8 v -92 c 0 -4.417969 3.582031 -8 8 -8 z m 0 0" style="fill:#f0f0f2"/><path id="path61" d="m 62.132612,47.823918 c -1.72586,0.04771 -3.452162,0.443853 -5.072761,1.056693 -2.970119,1.127702 -5.687175,3.009307 -7.597021,5.547902 -1.91153,2.540279 -2.976862,5.751233 -2.730756,8.92026 0.161822,2.053126 0.864105,4.053571 1.947982,5.804964 1.073871,1.7369 2.517868,3.233248 4.162509,4.442747 A 78.927343,78.927343 0 0 1 40,80.181063 70.708098,70.708098 0 0 0 54.151052,74.47513 c 3.071204,1.878226 6.648837,2.880045 10.23296,3.339698 C 72.480498,78.850357 80.888757,77.169657 88,73.172964 v -7.719233 c -5.702114,4.940965 -12.954571,8.092676 -20.47225,8.790675 -3.602004,0.333899 -7.345063,0.10115 -10.661747,-1.312701 A 70.708098,70.708098 0 0 0 64.14802,68.05701 c 2.429028,-1.877818 4.78367,-3.973922 6.265356,-6.66254 0.741692,-1.345151 1.249702,-2.828523 1.389614,-4.35741 0.138218,-1.528888 -0.104721,-3.102652 -0.789096,-4.47646 a 8.0709075,8.0709075 0 0 0 -2.570622,-2.958319 9.7009341,9.7009341 0 0 0 -3.614669,-1.54764 c -0.646028,-0.134852 -1.299851,-0.208863 -1.956408,-0.22967 -0.246213,-0.0078 -0.493031,-0.0079 -0.739583,-0.0011 z m -0.02001,2.86034 c 0.388623,-0.0036 0.777299,0.0177 1.164158,0.06743 1.54574,0.198907 3.062827,0.888549 4.070847,2.078619 0.815855,0.964194 1.263608,2.212629 1.341148,3.473497 0.07923,1.260868 -0.197224,2.530796 -0.699549,3.690525 -1.00296,2.317772 -2.853596,4.153445 -4.739843,5.832356 a 78.927343,78.927343 0 0 1 -8.06163,6.257983 c -1.350415,-0.790249 -2.574122,-1.799127 -3.552513,-3.018371 -1.213669,-1.508659 -2.046381,-3.337589 -2.284056,-5.259234 -0.347244,-2.803241 0.603674,-5.697081 2.356752,-7.91203 1.753079,-2.214948 4.25943,-3.774174 6.956473,-4.618686 1.116328,-0.347666 2.282346,-0.581261 3.448213,-0.592086 z" style="fill:#db2860;fill-opacity:1;stroke-width:3.12501;marker:none"/></svg>