<svg xmlns="http://www.w3.org/2000/svg" xmlns:svg="http://www.w3.org/2000/svg" id="svg49" width="128" height="128" version="1.1" viewBox="0 0 128 128"><linearGradient id="a" x1="88.596" x2="536.596" y1="-449.394" y2="-449.394" gradientTransform="matrix(0.196428 0 0 0.342105 2.59702 273.739929)" gradientUnits="userSpaceOnUse"><stop id="stop2" offset="0" stop-color="#deddda" style="stop-color:#d0d0d0;stop-opacity:1"/><stop id="stop4" offset=".045" stop-color="#eeeeec" style="stop-color:#e5e5e5;stop-opacity:1"/><stop id="stop6" offset=".091" stop-color="#deddda" style="stop-color:#d0d0d0;stop-opacity:1"/><stop id="stop8" offset=".909" stop-color="#deddda" style="stop-color:#d0d0d0;stop-opacity:1"/><stop id="stop10" offset=".955" stop-color="#eeeeec" style="stop-color:#e5e5e5;stop-opacity:1"/><stop id="stop12" offset="1" stop-color="#c0bfbc" style="stop-color:#d0d0d0;stop-opacity:1"/></linearGradient><linearGradient id="b" x1="58.999" x2="69" y1="64" y2="64" gradientUnits="userSpaceOnUse"><stop id="stop15" offset="0" stop-color="#9a9996" style="stop-color:#a5a5a5;stop-opacity:1"/><stop id="stop17" offset="1" stop-color="#77767b" style="stop-color:#5e5e5e;stop-opacity:1"/></linearGradient><linearGradient id="c" x1="48" x2="80" y1="275.5" y2="275.5" gradientTransform="matrix(1 0 0 0.850001 0 -135.925327)" gradientUnits="userSpaceOnUse"><stop id="stop20" offset="0" stop-color="#e8e7e4" style="stop-color:#e5e5e5;stop-opacity:1"/><stop id="stop22" offset=".511" stop-color="#fff" style="stop-color:#f0f0f2;stop-opacity:1"/><stop id="stop24" offset="1" stop-color="#c2bfba" style="stop-color:#c2c2c2;stop-opacity:1"/></linearGradient><path id="path27" fill="url(#a)" d="m 28 16 h 72 c 4.417969 0 8 3.582031 8 8 v 88 c 0 4.417969 -3.582031 8 -8 8 h -72 c -4.417969 0 -8 -3.582031 -8 -8 v -88 c 0 -4.417969 3.582031 -8 8 -8 z m 0 0"/><path id="path29" fill="#f6f5f4" d="m 28 8 h 72 c 4.417969 0 8 3.582031 8 8 v 92 c 0 4.417969 -3.582031 8 -8 8 h -72 c -4.417969 0 -8 -3.582031 -8 -8 v -92 c 0 -4.417969 3.582031 -8 8 -8 z m 0 0" style="fill:#f0f0f2"/><path style="fill:#fecb49;stroke-width:1" id="path988" d="m 41.12013,71.696427 c 0.162706,-0.166553 2.496398,-2.54456 5.185981,-5.28446 2.689583,-2.7399 4.889412,-4.982839 4.888509,-4.98431 -9.03e-4,-0.0014 -2.355078,-2.404249 -5.2315,-5.33951 -2.876422,-2.935259 -5.394843,-5.505881 -5.596489,-5.712491 L 40,50 l 3.23144,1.66e-4 3.231439,1.66e-4 3.972299,4.068883 3.972299,4.068882 L 58.37472,54.069049 62.341964,50 h 3.240714 c 1.81376,0 3.239971,0.0019 3.239028,0.0045 -9.27e-4,0.0025 -4.853404,4.952248 -10.78328,10.99953 l -10.781593,10.995056 -3.216268,9.9e-5 -3.216267,9.8e-5 0.295832,-0.302824 z m 19.623809,0.297066 c -0.111255,-0.0024 -0.215935,-0.0057 -0.232624,-0.0074 l -0.03034,-0.003 0.0013,-0.727243 c 0.0022,-1.298206 0.0038,-6.887137 0.002,-6.887136 -10e-4,0 -0.376488,0.385506 -0.834409,0.856683 -0.457922,0.471175 -1.651825,1.69353 -2.653118,2.716344 -1.001291,1.022813 -2.284766,2.335507 -2.852165,2.917098 -0.5674,0.58159 -1.0396,1.063446 -1.049334,1.070789 -0.02466,0.01861 -0.07959,0.04667 -0.105212,0.05374 -0.02315,0.0064 -3.026418,0.0072 -3.536985,8.85e-4 l -0.26157,-0.0032 1.24769,-1.276057 c 0.686232,-0.701832 2.638124,-2.69883 4.33754,-4.437773 1.699416,-1.738945 3.674218,-3.759267 4.388451,-4.489605 l 1.298605,-1.327888 0.172992,-0.0032 c 0.243487,-0.0044 1.952373,-0.0053 2.289792,-0.0012 l 0.280233,0.0034 v 5.774472 5.774473 l -1.130247,5.1e-5 c -0.621636,0 -1.221273,-0.0019 -1.332528,-0.0043 z m 3.609457,0.0019 -0.03667,-0.0017 v -5.770155 -5.770156 l 0.04425,-0.0043 c 0.02434,-0.0024 0.571846,-0.0039 1.216687,-0.0035 l 1.172437,7.6e-4 0.25074,0.261117 c 0.447447,0.465965 1.128552,1.164385 2.008813,2.059877 0.474224,0.48243 1.00883,1.027091 1.188014,1.210359 l 0.325789,0.333215 1.734952,-1.774859 c 0.954222,-0.976162 1.804359,-1.845279 1.88919,-1.931362 l 0.154239,-0.156513 0.654887,-0.0012 c 0.360186,-6.51e-4 0.90407,-8.56e-4 1.20863,-4.56e-4 l 0.553745,7.3e-4 v 5.77639 5.776392 l -1.217061,-0.0016 c -0.669382,-9.09e-4 -1.217956,-0.0028 -1.21905,-0.0042 -0.0011,-0.0014 -1.12e-4,-0.736724 0.0022,-1.633993 0.0041,-1.60535 0.002,-4.231198 -0.0042,-5.171537 l -0.0032,-0.479641 -0.359676,0.370792 c -0.197822,0.203936 -0.687136,0.710393 -1.087365,1.125458 -0.966966,1.002812 -2.302165,2.371691 -2.311278,2.369581 -0.004,-9.19e-4 -0.209847,-0.20674 -0.457498,-0.457378 -0.459305,-0.464847 -1.044876,-1.068373 -2.116958,-2.181871 -0.330919,-0.343704 -0.734256,-0.761538 -0.896303,-0.928524 l -0.294633,-0.303609 0.0013,3.647955 0.0013,3.647955 -1.183345,-0.001 c -0.65084,-5.67e-4 -1.199844,-0.0018 -1.220009,-0.0028 z m 13.614796,-5.772184 v -5.776036 l 0.500647,-0.0013 c 0.659885,-0.0017 1.3817,4.09e-4 1.5032,0.0044 l 0.09734,0.0032 0.0013,4.704441 0.0013,4.704442 2.900208,0.0011 c 2.640831,0.001 2.902481,0.0019 2.925618,0.0094 0.01398,0.0045 0.03185,0.01174 0.03972,0.01598 0.0151,0.0081 1.922606,1.955894 2.01099,2.053446 l 0.05149,0.05683 h -5.015876 -5.015875 z"/></svg>