<?xml version="1.0" encoding="UTF-8" standalone="no"?>
<svg
   height="128px"
   viewBox="0 0 128 128"
   width="128px"
   version="1.1"
   id="svg51"
   xml:space="preserve"
   xmlns="http://www.w3.org/2000/svg"
   xmlns:svg="http://www.w3.org/2000/svg"><defs
     id="defs55"><filter
       style="color-interpolation-filters:sRGB"
       id="filter1307"
       x="-0.13585928"
       y="-0.13913317"
       width="1.2717186"
       height="1.2782663"><feGaussianBlur
         stdDeviation="2.1996534"
         id="feGaussianBlur1309" /></filter></defs><linearGradient
     id="a"
     gradientTransform="matrix(0.232143 0 0 0.336527 -8.56686 267.233826)"
     gradientUnits="userSpaceOnUse"
     x1="88.595886"
     x2="536.595886"
     y1="-449.394012"
     y2="-449.394012"><stop
       offset="0"
       stop-color="#77767b"
       id="stop2"
       style="stop-color:#a5a5a5;stop-opacity:1" /><stop
       offset="0.0384615"
       stop-color="#c0bfbc"
       id="stop4"
       style="stop-color:#e5e5e5;stop-opacity:1" /><stop
       offset="0.0768555"
       stop-color="#9a9996"
       id="stop6"
       style="stop-color:#a5a5a5;stop-opacity:1" /><stop
       offset="0.923077"
       stop-color="#9a9996"
       id="stop8"
       style="stop-color:#a5a5a5;stop-opacity:1" /><stop
       offset="0.961538"
       stop-color="#c0bfbc"
       id="stop10"
       style="stop-color:#e5e5e5;stop-opacity:1" /><stop
       offset="1"
       stop-color="#77767b"
       id="stop12"
       style="stop-color:#a5a5a5;stop-opacity:1" /></linearGradient><filter
     id="b"
     height="1"
     width="1"
     x="0"
     y="0"><feColorMatrix
       in="SourceGraphic"
       type="matrix"
       values="0 0 0 0 1 0 0 0 0 1 0 0 0 0 1 0 0 0 1 0"
       id="feColorMatrix15" /></filter><mask
     id="c"><g
       filter="url(#b)"
       id="g20"><rect
         fill-opacity="0.8"
         height="128"
         width="128"
         id="rect18" /></g></mask><linearGradient
     id="d"
     gradientUnits="userSpaceOnUse"
     x1="20.495266"
     x2="121.292053"
     y1="28.495239"
     y2="77.00975"><stop
       offset="0"
       stop-color="#ffffff"
       id="stop23" /><stop
       offset="0.511049"
       stop-color="#f6f5f4"
       stop-opacity="0.4"
       id="stop25" /><stop
       offset="1"
       stop-color="#ffffff"
       id="stop27" /></linearGradient><clipPath
     id="e"><rect
       height="152"
       width="192"
       id="rect30" /></clipPath><path
     d="m 20 12 h 88 c 4.417969 0 8 3.582031 8 8 v 8 c 0 4.417969 -3.582031 8 -8 8 h -88 c -4.417969 0 -8 -3.582031 -8 -8 v -8 c 0 -4.417969 3.582031 -8 8 -8 z m 0 0"
     fill="#ffffff"
     fill-opacity="0.501961"
     id="path33" /><path
     d="m 19.429688 28 c -4.117188 0 -7.429688 -0.0625 -7.429688 10.640625 v 59.359375 h 104 v -58.535156 c 0 -10.707032 -3.3125 -11.464844 -7.429688 -11.464844 z m 0 0"
     fill="#77767b"
     id="path35" /><ellipse
     style="opacity:1;fill:#33d17a;stroke:#26a269;stroke-width:7.19408;stroke-linecap:round;stroke-linejoin:round;stroke-opacity:1;filter:url(#filter1307);stop-color:#000000"
     id="path949"
     cx="-45.131096"
     cy="61.645962"
     rx="32.66692"
     ry="31.898247"
     transform="matrix(0.88448966,0,0,0.78642349,103.70942,17.26881)" /><path
     d="m 12 54 v 53.816406 c 0 4.535156 3.566406 8.183594 8 8.183594 h 88 c 4.433594 0 8 -3.648438 8 -8.183594 v -53.816406 c 0 4.535156 -3.566406 8.183594 -8 8.183594 h -88 c -4.433594 0 -8 -3.648438 -8 -8.183594 z m 0 0"
     fill="url(#a)"
     id="path39" /><path
     id="path329-6"
     style="fill:#d0d0d0;fill-opacity:1;stroke-width:1"
     d="M 76 74.412109 L 75.808594 74.490234 L 75.617188 74.570312 L 75.519531 74.714844 L 75.419922 74.859375 L 75.441406 75.013672 L 75.460938 75.167969 L 75.814453 75.742188 L 76.166016 76.318359 L 76.839844 77.400391 L 77.511719 78.482422 L 77.511719 78.591797 L 77.511719 78.703125 L 77.355469 78.806641 L 77.199219 78.910156 L 76.724609 79.296875 L 76.25 79.683594 L 75.804688 80.125 L 75.359375 80.568359 L 75.017578 80.978516 L 74.675781 81.388672 L 74.390625 81.791016 L 74.107422 82.193359 L 73.84375 82.630859 L 73.580078 83.068359 L 73.320312 83.609375 L 73.0625 84.152344 L 72.912109 84.533203 L 72.763672 84.916016 L 72.621094 85.388672 L 72.478516 85.859375 L 72.371094 86.339844 L 72.265625 86.818359 L 72.189453 87.296875 L 72.115234 87.777344 L 72.115234 93.945312 L 72.115234 97.029297 L 97.335938 97.029297 L 97.34375 94.568359 L 97.365234 89.027344 L 97.335938 88.365234 L 97.306641 87.705078 L 97.240234 87.240234 L 97.173828 86.777344 L 97.089844 86.380859 L 97.007812 85.984375 L 96.861328 85.484375 L 96.712891 84.984375 L 96.544922 84.546875 L 96.375 84.109375 L 96.113281 83.568359 L 95.851562 83.027344 L 95.619141 82.636719 L 95.386719 82.248047 L 95.105469 81.845703 L 94.826172 81.443359 L 94.423828 80.962891 L 94.019531 80.482422 L 93.476562 79.957031 L 92.931641 79.433594 L 92.429688 79.050781 L 91.927734 78.667969 L 91.927734 78.582031 L 91.927734 78.496094 L 92.109375 78.199219 L 92.291016 77.902344 L 92.679688 77.277344 L 93.066406 76.652344 L 93.539062 75.884766 L 94.011719 75.117188 L 94.011719 74.951172 L 94.011719 74.787109 L 93.853516 74.628906 L 93.695312 74.470703 L 93.541016 74.441406 L 93.386719 74.414062 L 93.238281 74.441406 L 93.089844 74.46875 L 92.96875 74.580078 L 92.845703 74.693359 L 91.84375 76.316406 L 90.839844 77.941406 L 90.824219 77.957031 L 90.808594 77.972656 L 90.294922 77.722656 L 89.78125 77.472656 L 89.302734 77.285156 L 88.824219 77.097656 L 88.464844 76.990234 L 88.107422 76.882812 L 87.664062 76.777344 L 87.220703 76.671875 L 86.716797 76.589844 L 86.214844 76.507812 L 85.484375 76.457031 L 84.753906 76.408203 L 83.984375 76.458984 L 83.214844 76.509766 L 82.832031 76.572266 L 82.449219 76.632812 L 82.052734 76.716797 L 81.65625 76.802734 L 81.28125 76.908203 L 80.90625 77.013672 L 80.386719 77.201172 L 79.865234 77.390625 L 79.25 77.683594 L 78.632812 77.978516 L 78.595703 77.939453 L 78.558594 77.902344 L 77.556641 76.277344 L 76.554688 74.652344 L 76.423828 74.558594 L 76.292969 74.466797 L 76.146484 74.439453 L 76 74.412109 z M 79.386719 81.871094 L 79.638672 81.916016 L 79.892578 81.960938 L 80.119141 82.064453 L 80.345703 82.167969 L 80.576172 82.398438 L 80.806641 82.628906 L 80.910156 82.857422 L 81.015625 83.085938 L 81.0625 83.337891 L 81.109375 83.589844 L 81.0625 83.841797 L 81.015625 84.09375 L 80.910156 84.320312 L 80.806641 84.548828 L 80.582031 84.773438 L 80.359375 84.996094 L 80.185547 85.083984 L 80.013672 85.173828 L 79.773438 85.234375 L 79.535156 85.296875 L 79.367188 85.294922 L 79.199219 85.292969 L 78.980469 85.232422 L 78.761719 85.173828 L 78.587891 85.085938 L 78.414062 84.996094 L 78.189453 84.773438 L 77.964844 84.548828 L 77.861328 84.322266 L 77.757812 84.095703 L 77.712891 83.841797 L 77.667969 83.589844 L 77.712891 83.335938 L 77.757812 83.082031 L 77.861328 82.857422 L 77.962891 82.632812 L 78.160156 82.423828 L 78.355469 82.212891 L 78.611328 82.087891 L 78.865234 81.962891 L 79.125 81.917969 L 79.386719 81.871094 z M 89.712891 81.914062 L 90.123047 81.929688 L 90.53125 81.945312 L 90.78125 82.066406 L 91.03125 82.1875 L 91.242188 82.398438 L 91.453125 82.609375 L 91.574219 82.859375 L 91.697266 83.109375 L 91.710938 83.519531 L 91.726562 83.927734 L 91.638672 84.166016 L 91.548828 84.404297 L 91.394531 84.611328 L 91.238281 84.818359 L 90.980469 84.992188 L 90.722656 85.166016 L 90.431641 85.230469 L 90.140625 85.296875 L 90.023438 85.294922 L 89.90625 85.292969 L 89.634766 85.220703 L 89.361328 85.150391 L 89.142578 85.009766 L 88.925781 84.871094 L 88.779297 84.699219 L 88.632812 84.529297 L 88.53125 84.320312 L 88.431641 84.109375 L 88.382812 83.835938 L 88.332031 83.5625 L 88.404297 83.242188 L 88.474609 82.921875 L 88.648438 82.662109 L 88.824219 82.402344 L 89.029297 82.248047 L 89.236328 82.09375 L 89.474609 82.003906 L 89.712891 81.914062 z M 72.115234 99.029297 L 72.115234 100.11328 L 72.279297 100.44531 L 72.441406 100.77734 L 72.664062 100.99219 L 72.884766 101.20898 L 73.205078 101.36719 L 73.527344 101.52734 L 79.134766 101.54688 L 84.740234 101.56836 L 90.074219 101.57812 L 95.40625 101.58789 L 95.677734 101.54492 L 95.949219 101.50195 L 96.251953 101.35938 L 96.554688 101.2168 L 96.785156 100.98828 L 97.013672 100.75781 L 97.167969 100.43359 L 97.324219 100.10938 L 97.328125 99.029297 L 72.115234 99.029297 z " /><g
     clip-path="url(#e)"
     mask="url(#c)"
     transform="translate(-8,-16)"
     id="g43"
     style="fill:#f0f0f2;fill-opacity:0.75371492"><path
       d="m 28,28 h 88 c 4.41797,0 8,3.582031 8,8 v 35 c 0,4.417969 -3.58203,8 -8,8 H 28 c -4.417969,0 -8,-3.582031 -8,-8 V 36 c 0,-4.417969 3.582031,-8 8,-8 z m 0,0"
       fill="url(#d)"
       id="path41"
       style="fill:#f0f0f2;fill-opacity:0.75371492" /></g><path
     d="m 42,74 c -4.417969,0 -8,3.582031 -8,8 0,4.417969 3.582031,8 8,8 4.417969,0 8,-3.582031 8,-8 0,-4.417969 -3.582031,-8 -8,-8 z m 0,16 -8,16 h 16 z m 0,0"
     fill="#deddda"
     id="path45"
     style="fill:#d0d0d0" /><path
     d="m 42,72 c -4.417969,0 -8,3.582031 -8,8 0,4.417969 3.582031,8 8,8 4.417969,0 8,-3.582031 8,-8 0,-4.417969 -3.582031,-8 -8,-8 z m -1,16 -7,16 H 50 L 43,88 Z m 0,0"
     fill="#5e5c64"
     id="path47"
     style="fill:#474747" /><path
     d="m 20 12 h 88 c 4.417969 0 8 3.582031 8 8 v 8 c 0 4.417969 -3.582031 8 -8 8 h -88 c -4.417969 0 -8 -3.582031 -8 -8 v -8 c 0 -4.417969 3.582031 -8 8 -8 z m 0 0"
     fill="#ffffff"
     fill-opacity="0.501961"
     id="path49"
     style="fill:#f0f0f2;fill-opacity:0.40015945" /><path
     id="path329"
     style="fill:#474747;fill-opacity:1;stroke-width:1"
     d="M 76 76.412109 L 75.808594 76.490234 L 75.617188 76.570312 L 75.519531 76.714844 L 75.419922 76.859375 L 75.441406 77.013672 L 75.460938 77.167969 L 75.814453 77.742188 L 76.166016 78.318359 L 76.839844 79.400391 L 77.511719 80.482422 L 77.511719 80.591797 L 77.511719 80.703125 L 77.355469 80.806641 L 77.199219 80.910156 L 76.724609 81.296875 L 76.25 81.683594 L 75.804688 82.125 L 75.359375 82.568359 L 75.017578 82.978516 L 74.675781 83.388672 L 74.390625 83.791016 L 74.107422 84.193359 L 73.84375 84.630859 L 73.580078 85.068359 L 73.320312 85.609375 L 73.0625 86.152344 L 72.912109 86.533203 L 72.763672 86.916016 L 72.621094 87.388672 L 72.478516 87.859375 L 72.371094 88.339844 L 72.265625 88.818359 L 72.189453 89.296875 L 72.115234 89.777344 L 72.115234 95.945312 L 72.115234 97.029297 L 97.341797 97.029297 L 97.34375 96.568359 L 97.365234 91.027344 L 97.335938 90.365234 L 97.306641 89.705078 L 97.240234 89.240234 L 97.173828 88.777344 L 97.089844 88.380859 L 97.007812 87.984375 L 96.861328 87.484375 L 96.712891 86.984375 L 96.544922 86.546875 L 96.375 86.109375 L 96.113281 85.568359 L 95.851562 85.027344 L 95.619141 84.636719 L 95.386719 84.248047 L 95.105469 83.845703 L 94.826172 83.443359 L 94.423828 82.962891 L 94.019531 82.482422 L 93.476562 81.957031 L 92.931641 81.433594 L 92.429688 81.050781 L 91.927734 80.667969 L 91.927734 80.582031 L 91.927734 80.496094 L 92.109375 80.199219 L 92.291016 79.902344 L 92.679688 79.277344 L 93.066406 78.652344 L 93.539062 77.884766 L 94.011719 77.117188 L 94.011719 76.951172 L 94.011719 76.787109 L 93.853516 76.628906 L 93.695312 76.470703 L 93.541016 76.441406 L 93.386719 76.414062 L 93.238281 76.441406 L 93.089844 76.46875 L 92.96875 76.580078 L 92.845703 76.693359 L 91.84375 78.316406 L 90.839844 79.941406 L 90.824219 79.957031 L 90.808594 79.972656 L 90.294922 79.722656 L 89.78125 79.472656 L 89.302734 79.285156 L 88.824219 79.097656 L 88.464844 78.990234 L 88.107422 78.882812 L 87.664062 78.777344 L 87.220703 78.671875 L 86.716797 78.589844 L 86.214844 78.507812 L 85.484375 78.457031 L 84.753906 78.408203 L 83.984375 78.458984 L 83.214844 78.509766 L 82.832031 78.572266 L 82.449219 78.632812 L 82.052734 78.716797 L 81.65625 78.802734 L 81.28125 78.908203 L 80.90625 79.013672 L 80.386719 79.201172 L 79.865234 79.390625 L 79.25 79.683594 L 78.632812 79.978516 L 78.595703 79.939453 L 78.558594 79.902344 L 77.556641 78.277344 L 76.554688 76.652344 L 76.423828 76.558594 L 76.292969 76.466797 L 76.146484 76.439453 L 76 76.412109 z M 79.386719 83.871094 L 79.638672 83.916016 L 79.892578 83.960938 L 80.119141 84.064453 L 80.345703 84.167969 L 80.576172 84.398438 L 80.806641 84.628906 L 80.910156 84.857422 L 81.015625 85.085938 L 81.0625 85.337891 L 81.109375 85.589844 L 81.0625 85.841797 L 81.015625 86.09375 L 80.910156 86.320312 L 80.806641 86.548828 L 80.582031 86.773438 L 80.359375 86.996094 L 80.185547 87.083984 L 80.013672 87.173828 L 79.773438 87.234375 L 79.535156 87.296875 L 79.367188 87.294922 L 79.199219 87.292969 L 78.980469 87.232422 L 78.761719 87.173828 L 78.587891 87.085938 L 78.414062 86.996094 L 78.189453 86.773438 L 77.964844 86.548828 L 77.861328 86.322266 L 77.757812 86.095703 L 77.712891 85.841797 L 77.667969 85.589844 L 77.712891 85.335938 L 77.757812 85.082031 L 77.861328 84.857422 L 77.962891 84.632812 L 78.160156 84.423828 L 78.355469 84.212891 L 78.611328 84.087891 L 78.865234 83.962891 L 79.125 83.917969 L 79.386719 83.871094 z M 89.712891 83.914062 L 90.123047 83.929688 L 90.53125 83.945312 L 90.78125 84.066406 L 91.03125 84.1875 L 91.242188 84.398438 L 91.453125 84.609375 L 91.574219 84.859375 L 91.697266 85.109375 L 91.710938 85.519531 L 91.726562 85.927734 L 91.638672 86.166016 L 91.548828 86.404297 L 91.394531 86.611328 L 91.238281 86.818359 L 90.980469 86.992188 L 90.722656 87.166016 L 90.431641 87.230469 L 90.140625 87.296875 L 90.023438 87.294922 L 89.90625 87.292969 L 89.634766 87.220703 L 89.361328 87.150391 L 89.142578 87.009766 L 88.925781 86.871094 L 88.779297 86.699219 L 88.632812 86.529297 L 88.53125 86.320312 L 88.431641 86.109375 L 88.382812 85.835938 L 88.332031 85.5625 L 88.404297 85.242188 L 88.474609 84.921875 L 88.648438 84.662109 L 88.824219 84.402344 L 89.029297 84.248047 L 89.236328 84.09375 L 89.474609 84.003906 L 89.712891 83.914062 z M 72.115234 99.029297 L 72.115234 102.11328 L 72.279297 102.44531 L 72.441406 102.77734 L 72.664062 102.99219 L 72.884766 103.20898 L 73.205078 103.36719 L 73.527344 103.52734 L 79.134766 103.54688 L 84.740234 103.56836 L 90.074219 103.57812 L 95.40625 103.58789 L 95.677734 103.54492 L 95.949219 103.50195 L 96.251953 103.35938 L 96.554688 103.2168 L 96.785156 102.98828 L 97.013672 102.75781 L 97.167969 102.43359 L 97.324219 102.10938 L 97.335938 99.029297 L 72.115234 99.029297 z " /><rect
     style="fill:#d0d0d0;fill-opacity:1;stroke:none;stroke-linecap:round;stroke-linejoin:round;stop-color:#000000"
     id="rect1641"
     width="25.212891"
     height="2"
     x="72.115234"
     y="97.029297"
     rx="0.5"
     ry="0.65625" /></svg>
