<svg xmlns="http://www.w3.org/2000/svg" xmlns:svg="http://www.w3.org/2000/svg" id="svg51" width="128" height="128" version="1.1" viewBox="0 0 128 128" xml:space="preserve"><defs id="defs55"><filter style="color-interpolation-filters:sRGB" id="filter1307" width="1.272" height="1.278" x="-.136" y="-.139"><feGaussianBlur id="feGaussianBlur1309" stdDeviation="2.2"/></filter></defs><linearGradient id="a" x1="88.596" x2="536.596" y1="-449.394" y2="-449.394" gradientTransform="matrix(0.232143 0 0 0.336527 -8.56686 267.233826)" gradientUnits="userSpaceOnUse"><stop id="stop2" offset="0" stop-color="#77767b" style="stop-color:#a5a5a5;stop-opacity:1"/><stop id="stop4" offset=".038" stop-color="#c0bfbc" style="stop-color:#e5e5e5;stop-opacity:1"/><stop id="stop6" offset=".077" stop-color="#9a9996" style="stop-color:#a5a5a5;stop-opacity:1"/><stop id="stop8" offset=".923" stop-color="#9a9996" style="stop-color:#a5a5a5;stop-opacity:1"/><stop id="stop10" offset=".962" stop-color="#c0bfbc" style="stop-color:#e5e5e5;stop-opacity:1"/><stop id="stop12" offset="1" stop-color="#77767b" style="stop-color:#a5a5a5;stop-opacity:1"/></linearGradient><filter id="b" width="1" height="1" x="0" y="0"><feColorMatrix id="feColorMatrix15" in="SourceGraphic" type="matrix" values="0 0 0 0 1 0 0 0 0 1 0 0 0 0 1 0 0 0 1 0"/></filter><mask id="c"><g id="g20" filter="url(#b)"><rect id="rect18" width="128" height="128" fill-opacity=".8"/></g></mask><linearGradient id="d" x1="20.495" x2="121.292" y1="28.495" y2="77.01" gradientUnits="userSpaceOnUse"><stop id="stop23" offset="0" stop-color="#fff"/><stop id="stop25" offset=".511" stop-color="#f6f5f4" stop-opacity=".4"/><stop id="stop27" offset="1" stop-color="#fff"/></linearGradient><clipPath id="e"><rect id="rect30" width="192" height="152"/></clipPath><path id="path33" fill="#fff" fill-opacity=".502" d="m 20 12 h 88 c 4.417969 0 8 3.582031 8 8 v 8 c 0 4.417969 -3.582031 8 -8 8 h -88 c -4.417969 0 -8 -3.582031 -8 -8 v -8 c 0 -4.417969 3.582031 -8 8 -8 z m 0 0"/><path id="path35" fill="#77767b" d="m 19.429688 28 c -4.117188 0 -7.429688 -0.0625 -7.429688 10.640625 v 59.359375 h 104 v -58.535156 c 0 -10.707032 -3.3125 -11.464844 -7.429688 -11.464844 z m 0 0"/><ellipse style="opacity:1;fill:#268ef9;stroke:#0453a4;stroke-width:7.19408;stroke-linecap:round;stroke-linejoin:round;stroke-opacity:1;filter:url(#filter1307);stop-color:#000" id="path949" cx="-45.131" cy="61.646" rx="32.667" ry="31.898" transform="matrix(0.88448966,0,0,0.78642349,103.70942,17.26881)"/><path id="path39" fill="url(#a)" d="m 12 54 v 53.816406 c 0 4.535156 3.566406 8.183594 8 8.183594 h 88 c 4.433594 0 8 -3.648438 8 -8.183594 v -53.816406 c 0 4.535156 -3.566406 8.183594 -8 8.183594 h -88 c -4.433594 0 -8 -3.648438 -8 -8.183594 z m 0 0"/><g id="g43" clip-path="url(#e)" mask="url(#c)" transform="translate(-8,-16)" style="fill:#f0f0f2"><path id="path41" fill="url(#d)" d="m 28,28 h 88 c 4.41797,0 8,3.582031 8,8 v 35 c 0,4.417969 -3.58203,8 -8,8 H 28 c -4.417969,0 -8,-3.582031 -8,-8 V 36 c 0,-4.417969 3.582031,-8 8,-8 z m 0,0" style="fill:#f0f0f2"/></g><path id="path45" fill="#deddda" d="m 44,74 c -4.417969,0 -8,3.582031 -8,8 0,4.417969 3.582031,8 8,8 4.417969,0 8,-3.582031 8,-8 0,-4.417969 -3.582031,-8 -8,-8 z m 0,16 -8,16 h 16 z m 0,0" style="fill:#d0d0d0"/><path id="path47" fill="#5e5c64" d="m 44,72 c -4.417969,0 -8,3.582031 -8,8 0,4.417969 3.582031,8 8,8 4.417969,0 8,-3.582031 8,-8 0,-4.417969 -3.582031,-8 -8,-8 z m -1,16 -7,16 H 52 L 45,88 Z m 0,0" style="fill:#474747"/><path id="path49" fill="#fff" fill-opacity=".502" d="m 20 12 h 88 c 4.417969 0 8 3.582031 8 8 v 8 c 0 4.417969 -3.582031 8 -8 8 h -88 c -4.417969 0 -8 -3.582031 -8 -8 v -8 c 0 -4.417969 3.582031 -8 8 -8 z m 0 0" style="fill:#f0f0f2"/><path id="path328-3" style="fill:#d0d0d0;stroke-width:1;fill-opacity:1" d="m 83.143198,69.038661 c -0.2929,8.7e-5 -0.581438,0.02137 -0.796875,0.06445 -0.86481,0.172962 -11.874835,6.414414 -13.03711,7.390625 -1.344137,1.128956 -1.412109,1.58771 -1.412109,9.511719 0,7.902084 0.05829,8.300644 1.40625,9.53125 0.590869,0.539432 7.730977,4.775605 11.71875,6.953125 0.780379,0.42612 1.301979,0.52499 2.375,0.44727 1.227779,-0.0889 1.990653,-0.45504 7.125,-3.41797 3.162497,-1.825011 6.07369,-3.615579 6.46875,-3.978519 1.348469,-1.238836 1.40625,-1.633864 1.40625,-9.535156 0,-7.773872 -0.07454,-8.316039 -1.28125,-9.419922 -0.986704,-0.902636 -12.259178,-7.314496 -13.154297,-7.482422 -0.228963,-0.04296 -0.525459,-0.06454 -0.818359,-0.06445 z m 0.128906,3.222656 0.625,0.326172 c 1.069059,0.55525 9.074881,5.187259 10.072265,5.828125 0.52053,0.334464 0.88884,0.702376 0.81836,0.816406 -0.07048,0.11403 -2.719091,1.697317 -5.884766,3.519532 l -5.755859,3.314453 v 6.84375 c 0,3.764804 -0.08438,6.841895 -0.1875,6.837895 -0.340412,-0.0133 -11.429507,-6.528087 -11.619141,-6.826176 -0.243873,-0.38336 -0.249578,-13.666857 -0.0059,-13.660157 0.103125,0.0028 2.775003,1.504375 5.9375,3.337891 l 5.75,3.333984 0.125,-6.835937 z"/><path id="path328" style="fill:#474747;stroke-width:1;fill-opacity:1" d="m 83.143198,71.038661 c -0.2929,8.7e-5 -0.581438,0.02137 -0.796875,0.06445 -0.86481,0.172962 -11.874835,6.414414 -13.03711,7.390625 -1.344137,1.128956 -1.412109,1.58771 -1.412109,9.511719 0,7.902084 0.05829,8.300644 1.40625,9.53125 0.590869,0.539432 7.730977,4.775605 11.71875,6.953125 0.780379,0.42612 1.301979,0.52499 2.375,0.44727 1.227779,-0.0889 1.990653,-0.45504 7.125,-3.41797 3.162497,-1.825011 6.07369,-3.615579 6.46875,-3.978519 1.348469,-1.238836 1.40625,-1.633864 1.40625,-9.535156 0,-7.773872 -0.07454,-8.316039 -1.28125,-9.419922 -0.986704,-0.902636 -12.259178,-7.314496 -13.154297,-7.482422 -0.228963,-0.04296 -0.525459,-0.06454 -0.818359,-0.06445 z m 0.128906,3.222656 0.625,0.326172 c 1.069059,0.55525 9.074881,5.187259 10.072265,5.828125 0.52053,0.334464 0.88884,0.702376 0.81836,0.816406 -0.07048,0.11403 -2.719091,1.697317 -5.884766,3.519532 l -5.755859,3.314453 v 6.84375 c 0,3.764804 -0.08438,6.841895 -0.1875,6.837895 -0.340412,-0.0133 -11.429507,-6.528087 -11.619141,-6.826176 -0.243873,-0.38336 -0.249578,-13.666857 -0.0059,-13.660157 0.103125,0.0028 2.775003,1.504375 5.9375,3.337891 l 5.75,3.333984 0.125,-6.835937 z"/></svg>