<svg xmlns="http://www.w3.org/2000/svg" xmlns:svg="http://www.w3.org/2000/svg" id="svg49" width="128" height="128" version="1.1" viewBox="0 0 128 128" xml:space="preserve"><linearGradient id="a" x1="88.596" x2="536.596" y1="-449.394" y2="-449.394" gradientTransform="matrix(0.196428 0 0 0.342105 2.59702 273.739929)" gradientUnits="userSpaceOnUse"><stop id="stop2" offset="0" stop-color="#deddda" style="stop-color:#d0d0d0;stop-opacity:1"/><stop id="stop4" offset=".045" stop-color="#eeeeec" style="stop-color:#e5e5e5;stop-opacity:1"/><stop id="stop6" offset=".091" stop-color="#deddda" style="stop-color:#d0d0d0;stop-opacity:1"/><stop id="stop8" offset=".909" stop-color="#deddda" style="stop-color:#d0d0d0;stop-opacity:1"/><stop id="stop10" offset=".955" stop-color="#eeeeec" style="stop-color:#e5e5e5;stop-opacity:1"/><stop id="stop12" offset="1" stop-color="#c0bfbc" style="stop-color:#d0d0d0;stop-opacity:1"/></linearGradient><linearGradient id="b" x1="58.999" x2="69" y1="64" y2="64" gradientUnits="userSpaceOnUse"><stop id="stop15" offset="0" stop-color="#9a9996" style="stop-color:#a5a5a5;stop-opacity:1"/><stop id="stop17" offset="1" stop-color="#77767b" style="stop-color:#5e5e5e;stop-opacity:1"/></linearGradient><linearGradient id="c" x1="48" x2="80" y1="275.5" y2="275.5" gradientTransform="matrix(1 0 0 0.850001 0 -135.925327)" gradientUnits="userSpaceOnUse"><stop id="stop20" offset="0" stop-color="#e8e7e4" style="stop-color:#e5e5e5;stop-opacity:1"/><stop id="stop22" offset=".511" stop-color="#fff" style="stop-color:#f0f0f2;stop-opacity:1"/><stop id="stop24" offset="1" stop-color="#c2bfba" style="stop-color:#c2c2c2;stop-opacity:1"/></linearGradient><path id="path27" fill="url(#a)" d="m 28 16 h 72 c 4.417969 0 8 3.582031 8 8 v 88 c 0 4.417969 -3.582031 8 -8 8 h -72 c -4.417969 0 -8 -3.582031 -8 -8 v -88 c 0 -4.417969 3.582031 -8 8 -8 z m 0 0"/><path id="path29" fill="#f6f5f4" d="m 28 8 h 72 c 4.417969 0 8 3.582031 8 8 v 92 c 0 4.417969 -3.582031 8 -8 8 h -72 c -4.417969 0 -8 -3.582031 -8 -8 v -92 c 0 -4.417969 3.582031 -8 8 -8 z m 0 0" style="fill:#f0f0f2"/><g id="g22" clip-path="url(#d)" mask="url(#b-6)" transform="translate(-210,21)"><path id="path20" fill="url(#c)" d="M 37.671875,36.503906 V 122.50391 H 105.67188 V 36.503906 Z m 0,0" style="fill:url(#c-7)"/></g><path style="fill:#f6d32d;stroke-width:1" id="path10261" d="m 63.493264,95.516141 c -0.114572,-0.09012 -0.556451,-0.747123 -0.981954,-1.46 C 62.085808,93.343263 61.697694,92.719298 61.648835,92.669553 61.599976,92.619807 61.38,92.557039 61.16,92.53007 l -0.4,-0.04904 -1.113398,1.240286 c -0.889776,0.991179 -1.174147,1.258487 -1.415857,1.330906 -0.334895,0.100337 -0.674976,0.0083 -0.903866,-0.244623 -0.06858,-0.07578 -0.342078,-0.747489 -0.607778,-1.492691 -0.265699,-0.745201 -0.521827,-1.452143 -0.569173,-1.570981 -0.0694,-0.174182 -0.167258,-0.234236 -0.504794,-0.309774 l -0.418709,-0.0937 -1.254916,0.932265 c -0.690205,0.512746 -1.341395,0.971667 -1.447091,1.019825 -0.292563,0.133301 -0.725631,0.01665 -0.956412,-0.257618 -0.222613,-0.264561 -0.208372,-0.203521 -0.492377,-2.110496 -0.111036,-0.745565 -0.23627,-1.397004 -0.278296,-1.447643 -0.04203,-0.05064 -0.220565,-0.157075 -0.396752,-0.236524 L 50.080242,89.09581 48.618753,89.787905 C 46.901898,90.600929 46.7,90.636 46.261395,90.197395 L 45.97879,89.91479 46.031235,88.657395 C 46.06008,87.965828 46.102476,87.184 46.125448,86.92 l 0.04177,-0.48 -0.335935,-0.274866 -0.335935,-0.274868 -1.527672,0.376709 c -1.831048,0.451518 -2.026379,0.462012 -2.361519,0.126871 -0.335141,-0.33514 -0.324647,-0.530471 0.126871,-2.361519 L 42.109734,82.504655 41.834866,82.16872 41.56,81.832785 l -0.48,0.04177 c -0.264,0.02297 -1.045828,0.06537 -1.737395,0.09421 L 38.08521,82.02121 37.802605,81.738605 C 37.364529,81.30053 37.399439,81.100164 38.212788,79.38433 l 0.692788,-1.4615 -0.145145,-0.321875 c -0.07983,-0.177032 -0.186578,-0.356261 -0.237217,-0.398288 -0.05064,-0.04203 -0.702078,-0.16726 -1.447643,-0.278296 -1.906975,-0.284005 -1.845935,-0.269764 -2.110496,-0.492377 -0.271375,-0.228347 -0.391136,-0.663373 -0.261158,-0.948644 0.04621,-0.101422 0.505109,-0.7524 1.019772,-1.446618 l 0.935752,-1.262214 -0.101322,-0.422359 c -0.0798,-0.332654 -0.145584,-0.439936 -0.309721,-0.505117 -0.114619,-0.04552 -0.820299,-0.302197 -1.568178,-0.570401 -0.747879,-0.268204 -1.419589,-0.541771 -1.49269,-0.607926 -0.248269,-0.224681 -0.339443,-0.566729 -0.239755,-0.89946 0.07242,-0.24171 0.339727,-0.526081 1.330906,-1.415857 L 35.518967,67.24 l -0.04904,-0.4 c -0.02697,-0.22 -0.08974,-0.439976 -0.139484,-0.488835 -0.04975,-0.04886 -0.67371,-0.436973 -1.386588,-0.862475 -0.712877,-0.425503 -1.369877,-0.867382 -1.46,-0.981954 -0.214844,-0.27313 -0.214844,-0.740342 0,-1.013472 0.09012,-0.114572 0.747123,-0.556451 1.46,-0.981954 0.712878,-0.425502 1.336842,-0.813616 1.386588,-0.862475 C 35.380193,61.599976 35.442961,61.38 35.469931,61.16 l 0.04904,-0.4 -1.240286,-1.113398 c -0.991179,-0.889776 -1.258487,-1.174147 -1.330906,-1.415857 -0.09969,-0.332731 -0.0085,-0.674779 0.239755,-0.89946 0.0731,-0.06616 0.744811,-0.339722 1.49269,-0.607926 0.747879,-0.268204 1.453559,-0.524885 1.568178,-0.570401 0.164137,-0.06518 0.229918,-0.172463 0.309721,-0.505117 l 0.101322,-0.422359 -0.935752,-1.262214 C 35.20903,53.26905 34.750132,52.618072 34.703921,52.51665 c -0.129978,-0.285271 -0.01022,-0.720297 0.261158,-0.948644 0.264561,-0.222613 0.203521,-0.208372 2.110496,-0.492377 0.745565,-0.111036 1.397004,-0.23627 1.447643,-0.278296 0.05064,-0.04203 0.157387,-0.221256 0.237217,-0.398288 L 38.90558,50.07717 38.212792,48.61567 C 37.403831,46.909102 37.36594,46.69806 37.792,46.272 c 0.315698,-0.315698 0.341769,-0.317715 2.484459,-0.19223 l 1.276459,0.07476 0.220672,-0.257264 c 0.121368,-0.141494 0.241237,-0.316636 0.266374,-0.389204 0.02514,-0.07257 -0.117572,-0.782117 -0.31713,-1.576774 -0.440404,-1.753719 -0.45224,-1.98957 -0.11668,-2.32513 0.33514,-0.335141 0.530471,-0.324647 2.361519,0.126871 l 1.527672,0.376709 0.335935,-0.274868 0.335935,-0.274866 -0.04177,-0.48 c -0.02297,-0.264 -0.06537,-1.045828 -0.09421,-1.737395 L 45.97879,38.08521 46.261395,37.802605 C 46.7,37.364 46.901898,37.399071 48.618753,38.212095 l 1.461489,0.692096 0.320339,-0.144453 c 0.176187,-0.07945 0.354725,-0.185885 0.396752,-0.236524 0.04203,-0.05064 0.16726,-0.702078 0.278296,-1.447643 0.284005,-1.906975 0.269764,-1.845935 0.492377,-2.110496 0.230781,-0.274268 0.663849,-0.390919 0.956412,-0.257618 0.105696,0.04816 0.75681,0.507023 1.446921,1.019699 l 1.254748,0.93214 0.422057,-0.10125 c 0.332271,-0.07971 0.439693,-0.145582 0.504962,-0.309648 0.0456,-0.114619 0.300296,-0.818108 0.565995,-1.563309 0.2657,-0.745201 0.5392,-1.416912 0.607778,-1.49269 0.22889,-0.25292 0.568971,-0.34496 0.903866,-0.244624 0.24171,0.07242 0.526081,0.339727 1.415857,1.330906 l 1.113398,1.240286 0.4,-0.04904 c 0.22,-0.02697 0.439976,-0.08974 0.488835,-0.139484 0.04886,-0.04975 0.436973,-0.67371 0.862475,-1.386588 0.425503,-0.712877 0.867382,-1.369877 0.981954,-1.46 0.27313,-0.214844 0.740342,-0.214844 1.013472,0 0.114572,0.09012 0.556451,0.747123 0.981954,1.46 0.425502,0.712878 0.813616,1.336842 0.862475,1.386588 0.04886,0.04975 0.268835,0.112514 0.488835,0.139484 l 0.4,0.04904 1.113398,-1.240286 c 0.889776,-0.991179 1.174147,-1.258487 1.415857,-1.330906 0.334895,-0.100336 0.674976,-0.0083 0.903866,0.244624 0.06858,0.07578 0.342078,0.747489 0.607778,1.49269 0.265699,0.745201 0.520397,1.44869 0.565995,1.563309 0.06528,0.164095 0.172696,0.229939 0.505265,0.309721 l 0.422359,0.101322 1.262214,-0.935752 c 0.694218,-0.514663 1.345196,-0.973561 1.446618,-1.019772 0.285271,-0.129978 0.720297,-0.01022 0.948644,0.261158 0.222613,0.264561 0.208372,0.203521 0.492377,2.110496 0.111036,0.745565 0.23627,1.397004 0.278296,1.447643 0.04203,0.05064 0.221256,0.157387 0.398288,0.237217 l 0.321875,0.145145 1.4615,-0.692788 C 81.090898,37.403831 81.30194,37.36594 81.728,37.792 c 0.315698,0.315698 0.317715,0.341769 0.19223,2.484459 l -0.07476,1.276459 0.257264,0.220672 c 0.141494,0.121368 0.316636,0.241237 0.389204,0.266374 0.07257,0.02514 0.782117,-0.117572 1.576774,-0.31713 1.753719,-0.440404 1.98957,-0.45224 2.32513,-0.11668 0.335141,0.33514 0.324647,0.530471 -0.126871,2.361519 l -0.376709,1.527672 0.274868,0.335935 0.274866,0.335935 0.48,-0.04177 c 0.264,-0.02297 1.045828,-0.06537 1.737395,-0.09421 l 1.257395,-0.05245 0.282605,0.282605 c 0.438075,0.438075 0.403166,0.638441 -0.410183,2.354275 l -0.692788,1.4615 0.145146,0.321875 c 0.07983,0.177032 0.186577,0.356261 0.237216,0.398288 0.05064,0.04203 0.702078,0.16726 1.447643,0.278296 1.906975,0.284005 1.845935,0.269764 2.110496,0.492377 0.271375,0.228347 0.391136,0.663373 0.261158,0.948644 -0.04621,0.101422 -0.505109,0.7524 -1.019773,1.446618 l -0.935752,1.262214 0.101323,0.422359 c 0.07978,0.332569 0.145626,0.439984 0.309721,0.505265 0.114619,0.0456 0.818108,0.300296 1.563309,0.565995 0.745202,0.2657 1.416912,0.5392 1.492691,0.607778 0.252919,0.22889 0.34496,0.568971 0.244623,0.903866 -0.07242,0.24171 -0.339727,0.526081 -1.330906,1.415857 L 92.481033,60.76 l 0.04904,0.4 c 0.02697,0.22 0.08974,0.439976 0.139483,0.488835 0.04975,0.04886 0.67371,0.436973 1.386588,0.862475 0.712877,0.425503 1.369877,0.867382 1.46,0.981954 0.214844,0.27313 0.214844,0.740342 0,1.013472 -0.09012,0.114572 -0.747123,0.556451 -1.46,0.981954 -0.712878,0.425502 -1.336843,0.813616 -1.386588,0.862475 C 92.619807,66.400024 92.557039,66.62 92.53007,66.84 l -0.04904,0.4 1.240286,1.113398 c 0.991179,0.889776 1.258487,1.174147 1.330906,1.415857 0.100337,0.334895 0.0083,0.674976 -0.244623,0.903866 -0.07578,0.06858 -0.747489,0.342078 -1.492691,0.607778 -0.745201,0.265699 -1.44869,0.520397 -1.563309,0.565995 -0.164095,0.06528 -0.229939,0.172696 -0.309721,0.505265 l -0.101323,0.422359 0.935752,1.262214 c 0.514664,0.694218 0.973562,1.345196 1.019773,1.446618 0.129978,0.285271 0.01022,0.720297 -0.261158,0.948644 -0.264561,0.222613 -0.203521,0.208372 -2.110496,0.492377 -0.745565,0.111036 -1.397004,0.23627 -1.447643,0.278296 -0.05064,0.04203 -0.157387,0.221256 -0.237216,0.398288 l -0.145146,0.321875 0.692788,1.4615 c 0.813349,1.715834 0.848258,1.9162 0.410183,2.354275 L 89.91479,82.02121 88.657395,81.968765 C 87.965828,81.93992 87.184,81.897524 86.92,81.874552 l -0.48,-0.04177 -0.274866,0.335935 -0.274868,0.335935 0.376709,1.527672 c 0.451518,1.831048 0.462012,2.026379 0.126871,2.361519 -0.33556,0.33556 -0.571411,0.323724 -2.32513,-0.11668 -0.794657,-0.199558 -1.504205,-0.342267 -1.576774,-0.31713 -0.07257,0.02514 -0.24771,0.145006 -0.389204,0.266374 l -0.257264,0.220672 0.07476,1.276459 c 0.125485,2.14269 0.123468,2.168761 -0.19223,2.484459 -0.42606,0.42606 -0.637102,0.388169 -2.34367,-0.420788 l -1.4615,-0.692788 -0.321875,0.145146 c -0.177032,0.07983 -0.356261,0.186577 -0.398288,0.237216 -0.04203,0.05064 -0.16726,0.702078 -0.278296,1.447643 -0.284005,1.906975 -0.269764,1.845935 -0.492377,2.110496 -0.228347,0.271375 -0.663373,0.391136 -0.948644,0.261158 -0.101422,-0.04621 -0.7524,-0.505109 -1.446618,-1.019773 l -1.262214,-0.935752 -0.422359,0.101323 c -0.332569,0.07978 -0.439984,0.145626 -0.505265,0.309721 -0.0456,0.114619 -0.300296,0.818108 -0.565995,1.563309 -0.2657,0.745202 -0.5392,1.416912 -0.607778,1.492691 -0.22889,0.252919 -0.568971,0.34496 -0.903866,0.244623 -0.24171,-0.07242 -0.526081,-0.339727 -1.415857,-1.330906 L 67.24,92.481033 l -0.4,0.04904 c -0.22,0.02697 -0.439976,0.08974 -0.488835,0.139483 -0.04886,0.04975 -0.436973,0.67371 -0.862475,1.386588 -0.425503,0.712877 -0.867382,1.369877 -0.981954,1.46 C 64.381346,95.614773 64.17963,95.68 64,95.68 c -0.17963,0 -0.381346,-0.06523 -0.506736,-0.163859 z m 3.253934,-8.440078 c 1.255011,-0.141686 2.336093,-0.356675 3.650488,-0.725952 1.056588,-0.296846 3.38488,-1.18416 3.512275,-1.33853 0.04157,-0.05037 0.226074,-1.045581 0.410015,-2.211581 0.183941,-1.166 0.397427,-2.264 0.474414,-2.44 0.185489,-0.424049 0.713916,-0.889118 1.141076,-1.004265 0.39632,-0.106833 0.478806,-0.0984 3.04952,0.311809 l 1.904987,0.303978 0.407571,-0.445761 C 81.800017,78.976206 82.56,78.04035 82.56,77.971153 c 0,-0.02814 -2.043,-0.05233 -4.54,-0.05377 -2.497,-0.0014 -4.78045,-0.03363 -5.074335,-0.07154 C 72.26443,77.757967 71.62491,77.46491 71.210885,77.050885 70.372237,76.212237 69.995718,75.217893 69.321349,72.060826 68.932378,70.23986 68.695404,69.449982 68.281201,68.593823 67.697098,67.386483 66.86033,66.696918 65.725307,66.487558 65.435263,66.434059 64.073812,66.4 62.225307,66.4 H 59.2 v 2.12 2.12 h 2.553457 c 1.404401,0 2.610401,0.02185 2.68,0.04856 0.112729,0.04326 0.126543,0.431576 0.126543,3.557186 0,3.386999 -0.0054,3.511497 -0.154741,3.591441 -0.104149,0.05574 -3.229704,0.08281 -9.56,0.08281 -5.172893,0 -9.405259,0.02302 -9.405259,0.05115 0,0.06926 0.760165,1.005251 1.263553,1.555808 l 0.408668,0.446961 1.663889,-0.265328 c 2.85202,-0.454792 2.906447,-0.460652 3.291141,-0.354417 0.444775,0.122827 1.007419,0.639127 1.168371,1.072135 0.06822,0.183528 0.268315,1.251688 0.444657,2.373688 0.176343,1.122 0.337655,2.085951 0.358472,2.142114 0.04471,0.120622 0.434711,0.296964 1.841249,0.832536 2.150058,0.818684 4.387928,1.279052 7.08,1.45648 0.733483,0.04834 2.69794,-0.03209 3.787198,-0.155067 z M 50.331325,85.267155 c 0.414052,-0.124053 0.936338,-0.583216 1.117785,-0.98269 0.300784,-0.66221 0.146245,-1.492048 -0.375094,-2.014167 -0.407015,-0.407624 -0.781788,-0.537357 -1.432603,-0.495916 -0.625291,0.03982 -1.059919,0.303941 -1.369547,0.83228 -0.441219,0.752884 -0.333438,1.604207 0.278119,2.196755 0.533849,0.517256 1.105768,0.666145 1.78134,0.463738 z m 28.419393,-0.0049 c 0.455378,-0.135233 1.050328,-0.740452 1.171971,-1.1922 0.206249,-0.765953 -0.105283,-1.63093 -0.73827,-2.049821 -0.402118,-0.266109 -1.226159,-0.345367 -1.66765,-0.160396 -0.687575,0.288071 -1.118113,0.936508 -1.115012,1.679331 0.0023,0.542387 0.215809,1.005838 0.619702,1.344928 0.539968,0.45333 1.079111,0.571231 1.729259,0.378158 z M 48.88,63.08 v -7.56 h -1.966666 c -1.081668,0 -1.95343,0.027 -1.937251,0.06 0.01618,0.033 0.183552,0.366 0.37194,0.74 0.317389,0.630099 0.340521,0.71886 0.315226,1.209548 -0.02159,0.418735 -0.07765,0.611254 -0.267926,0.92 -0.233216,0.378426 -0.30507,0.423716 -2.332938,1.470452 -1.494633,0.771493 -2.103984,1.125705 -2.133173,1.24 -0.02247,0.088 -0.08036,0.763693 -0.128638,1.501539 -0.151116,2.309609 0.08259,4.751891 0.681491,7.121667 0.108865,0.430762 0.197935,0.799762 0.197935,0.82 0,0.02024 1.62,0.03679 3.6,0.03679 h 3.6 z m 34.083307,7.257654 C 83.650211,70.00492 84.168634,69.334693 84.401242,68.47866 84.454844,68.281397 84.521493,67.616 84.54935,67 L 84.6,65.88 l 1.288417,-0.02193 1.288417,-0.02193 0.05313,-0.978074 c 0.04811,-0.885681 -0.04754,-3.161082 -0.153778,-3.658074 -0.0361,-0.168902 -0.36865,-0.367946 -2.138733,-1.280131 L 82.84147,58.83973 82.580735,58.4034 C 82.3614,58.036359 82.32,57.888349 82.32,57.471245 c 0,-0.478069 0.03754,-0.569371 1.047904,-2.548519 l 1.047903,-2.052686 -0.37785,-0.65502 C 82.303503,49.208271 79.317275,46.139467 76.32,44.283644 74.061841,42.88546 71.518458,41.844477 69.000083,41.28767 l -0.719917,-0.159172 -1.640083,1.63216 C 65.595828,43.79987 64.891946,44.437718 64.70257,44.51641 64.299036,44.684089 63.632594,44.670494 63.24,44.48657 63.042324,44.39397 62.323964,43.737145 61.36077,42.768327 60.108114,41.508365 59.759373,41.2 59.587086,41.2 c -0.117949,0 -0.522609,0.07319 -0.899244,0.162638 -4.106333,0.975252 -7.817504,3.006604 -10.766344,5.893084 L 46.84,48.31435 l 12.729521,0.0028 c 11.091545,0.0025 12.820384,0.01867 13.435661,0.125966 1.840961,0.321037 3.418967,1.159558 4.796729,2.548887 2.582516,2.604197 3.129059,6.005047 1.425697,8.871375 -0.495995,0.834634 -1.820098,2.182776 -2.716816,2.76614 l -0.649208,0.422344 0.612122,0.614056 c 0.336668,0.337732 0.83402,0.946738 1.105228,1.353348 0.763922,1.145318 1.025858,1.750555 1.574999,3.639244 0.233311,0.802443 0.944866,1.50831 1.79512,1.780772 0.536429,0.171898 1.555725,0.120457 2.014254,-0.101652 z M 67.797141,59.673758 c 0.943514,-0.174418 1.735041,-0.670384 2.047572,-1.282996 0.183698,-0.360078 0.204443,-0.998255 0.04487,-1.380179 C 69.73785,56.647447 69.257423,56.199862 68.756095,55.954586 67.965692,55.567877 67.418706,55.525822 63.14,55.522791 L 59.2,55.52 v 2.12 2.12 h 4.065307 c 2.564524,0 4.237534,-0.03184 4.531834,-0.08624 z M 41.74257,58.195756 c 0.936222,-0.391082 1.35385,-1.532918 0.902032,-2.466248 -0.516005,-1.065926 -1.991965,-1.325183 -2.872387,-0.504542 -0.894695,0.833943 -0.621267,2.433341 0.50332,2.944144 0.399052,0.181255 1.067834,0.193402 1.467035,0.02665 z m 45.981895,-0.02665 c 0.682561,-0.310029 1.169181,-1.204854 1.037353,-1.907551 -0.263525,-1.404712 -1.808273,-1.986834 -2.953791,-1.113105 -0.805,0.614003 -0.842998,1.979132 -0.07535,2.707133 0.49245,0.467019 1.354952,0.602783 1.991791,0.313523 z M 64.54983,41.555609 c 0.867888,-0.257735 1.414809,-1.192433 1.216428,-2.078897 -0.111522,-0.49833 -0.514956,-1.006099 -0.994854,-1.252139 -0.987586,-0.506328 -2.287696,0.135176 -2.537662,1.252139 -0.190319,0.850437 0.319836,1.778462 1.136258,2.066972 0.455133,0.160837 0.671042,0.163018 1.17983,0.01192 z"/></svg>