<svg xmlns="http://www.w3.org/2000/svg" xmlns:svg="http://www.w3.org/2000/svg" id="svg49" width="128" height="128" version="1.1" viewBox="0 0 128 128"><linearGradient id="a" x1="88.596" x2="536.596" y1="-449.394" y2="-449.394" gradientTransform="matrix(0.196428 0 0 0.342105 2.59702 273.739929)" gradientUnits="userSpaceOnUse"><stop id="stop2" offset="0" stop-color="#deddda" style="stop-color:#d0d0d0;stop-opacity:1"/><stop id="stop4" offset=".045" stop-color="#eeeeec" style="stop-color:#e5e5e5;stop-opacity:1"/><stop id="stop6" offset=".091" stop-color="#deddda" style="stop-color:#d0d0d0;stop-opacity:1"/><stop id="stop8" offset=".909" stop-color="#deddda" style="stop-color:#d0d0d0;stop-opacity:1"/><stop id="stop10" offset=".955" stop-color="#eeeeec" style="stop-color:#e5e5e5;stop-opacity:1"/><stop id="stop12" offset="1" stop-color="#c0bfbc" style="stop-color:#d0d0d0;stop-opacity:1"/></linearGradient><linearGradient id="b" x1="58.999" x2="69" y1="64" y2="64" gradientUnits="userSpaceOnUse"><stop id="stop15" offset="0" stop-color="#9a9996" style="stop-color:#a5a5a5;stop-opacity:1"/><stop id="stop17" offset="1" stop-color="#77767b" style="stop-color:#5e5e5e;stop-opacity:1"/></linearGradient><linearGradient id="c" x1="48" x2="80" y1="275.5" y2="275.5" gradientTransform="matrix(1 0 0 0.850001 0 -135.925327)" gradientUnits="userSpaceOnUse"><stop id="stop20" offset="0" stop-color="#e8e7e4" style="stop-color:#e5e5e5;stop-opacity:1"/><stop id="stop22" offset=".511" stop-color="#fff" style="stop-color:#f0f0f2;stop-opacity:1"/><stop id="stop24" offset="1" stop-color="#c2bfba" style="stop-color:#c2c2c2;stop-opacity:1"/></linearGradient><path id="path27" fill="url(#a)" d="m 28 16 h 72 c 4.417969 0 8 3.582031 8 8 v 88 c 0 4.417969 -3.582031 8 -8 8 h -72 c -4.417969 0 -8 -3.582031 -8 -8 v -88 c 0 -4.417969 3.582031 -8 8 -8 z m 0 0"/><path id="path29" fill="#f6f5f4" d="m 28 8 h 72 c 4.417969 0 8 3.582031 8 8 v 92 c 0 4.417969 -3.582031 8 -8 8 h -72 c -4.417969 0 -8 -3.582031 -8 -8 v -92 c 0 -4.417969 3.582031 -8 8 -8 z m 0 0" style="fill:#f0f0f2"/><path style="fill:#f7812b;stroke-width:1" id="path868" d="m 46.145655,79.960612 c -0.84697,-0.02449 -0.87331,-0.02767 -1.29679,-0.156789 -1.21625,-0.370838 -2.04187,-0.844333 -2.86938,-1.645596 -0.84316,-0.816429 -1.40347,-1.741154 -1.8319,-3.023405 l -0.14759,-0.441705 V 63.970525 53.247934 l 0.12704,-0.374454 c 0.44015,-1.297375 0.90251,-2.091837 1.6937,-2.910281 0.83649,-0.8653 1.86578,-1.475128 3.1467,-1.864345 l 0.3253,-0.09884 18.76945,0.0095 18.76945,0.0095 0.48865,0.181857 c 1.24063,0.461717 2.05287,0.968842 2.82259,1.762287 0.7587,0.782075 1.2354,1.597654 1.6521,2.826567 l 0.20503,0.604682 v 10.586859 10.586859 l -0.2065,0.608992 c -0.41051,1.210667 -0.87424,2.011129 -1.61114,2.781067 -0.83556,0.873025 -1.79114,1.447425 -3.21682,1.93364 l -0.31716,0.108162 -17.8191,-0.0072 c -9.80051,-0.004 -18.20814,-0.01849 -18.68363,-0.03223 z m 36.69319,-2.952058 c 0.64513,-0.325575 0.92811,-0.529251 1.35713,-0.976825 0.36188,-0.377531 0.55162,-0.660177 0.8675,-1.292265 l 0.23018,-0.460595 V 63.979468 53.680067 l -0.28104,-0.552873 c -0.3268,-0.642873 -0.53242,-0.92935 -0.967,-1.347218 -0.37903,-0.364443 -0.66311,-0.562138 -1.22303,-0.851111 l -0.42252,-0.218062 h -18.39494 -18.39496 l -0.48401,0.240532 c -0.58305,0.289741 -0.91833,0.522284 -1.28744,0.892904 -0.37264,0.374181 -0.60062,0.705349 -0.91039,1.322518 l -0.25957,0.517141 v 10.292128 10.292127 l 0.24456,0.496613 c 0.30142,0.612039 0.47527,0.871463 0.84076,1.254619 0.51305,0.53784 1.14058,0.944505 1.73482,1.124235 l 0.28088,0.08495 7.85591,0.02229 c 4.32076,0.01227 12.53605,0.02596 18.25623,0.03044 l 10.40032,0.0081 z m -9.50759,-2.262566 c -0.0155,-0.01599 -0.0282,-0.636119 -0.0282,-1.378075 v -1.349011 l 1.00549,-0.0016 c 1.74378,-0.0028 4.41529,-0.06712 4.65152,-0.111962 0.27867,-0.05289 0.48378,-0.169091 0.68563,-0.388408 0.1885,-0.204818 0.25716,-0.416993 0.31103,-0.961166 0.0529,-0.534892 0.10622,-2.043817 0.0744,-2.107195 -0.0171,-0.03412 -0.0639,0.0097 -0.14474,0.136053 -0.16787,0.262012 -0.52715,0.594343 -0.70366,0.650887 -0.20433,0.06545 -2.4241,0.09121 -3.34309,0.03879 -1.01001,-0.05761 -1.29565,-0.146453 -2.01676,-0.627218 -0.65119,-0.434143 -1.12845,-0.990675 -1.48787,-1.735001 l -0.17839,-0.369421 -0.0112,-1.130076 c -0.0125,-1.258236 -0.006,-1.310809 0.22316,-1.770072 0.38063,-0.76316 1.16538,-1.555054 1.89667,-1.913955 0.70255,-0.344797 1.07342,-0.403323 2.71018,-0.427677 2.14554,-0.03192 2.39552,0.0244 2.84427,0.640735 l 0.19288,0.264914 0.0105,-0.483266 0.0105,-0.483266 0.85064,0.0248 c 0.46785,0.01363 1.06779,0.0248 1.3332,0.0248 h 0.48257 v 5.672774 5.672773 l -0.22625,0.417437 c -0.40571,0.748568 -0.6638,1.006924 -1.40546,1.406904 l -0.41684,0.224804 -2.59358,0.02282 c -1.42646,0.01256 -3.06718,0.03299 -3.64604,0.0454 -0.57886,0.01241 -1.06516,0.0095 -1.08065,-0.0065 z m 5.37807,-8.184661 0.53862,-0.03482 0.20268,-0.173428 c 0.14737,-0.126099 0.24054,-0.250157 0.34143,-0.454592 0.12258,-0.248409 0.13846,-0.312871 0.13635,-0.553293 -0.005,-0.532126 -0.24944,-0.953429 -0.6761,-1.16382 l -0.25303,-0.124768 h -1.67348 -1.67348 l -0.2007,0.111343 c -0.27045,0.150039 -0.54716,0.459601 -0.62756,0.702066 -0.15378,0.463668 -0.0369,0.987566 0.29599,1.326386 0.24204,0.246382 0.42218,0.333205 0.75779,0.365221 0.40645,0.03877 2.23014,0.03859 2.83149,-3e-4 z m -18.75004,6.818558 v -1.349587 l 2.35865,-0.02654 c 2.87093,-0.03232 3.32644,-0.05667 3.60403,-0.192693 0.25515,-0.12503 0.48601,-0.386854 0.56017,-0.635297 0.0316,-0.105679 0.0734,-0.437791 0.093,-0.738026 0.0388,-0.592986 0.0497,-1.781946 0.0168,-1.814953 -0.0112,-0.01126 -0.11786,0.07713 -0.23694,0.196404 -0.11909,0.119273 -0.30318,0.260835 -0.40907,0.314583 -0.3238,0.164338 -0.59394,0.183489 -2.31745,0.164295 -1.85657,-0.02068 -2.0213,-0.043 -2.66807,-0.361422 -0.78756,-0.387749 -1.61341,-1.214289 -1.94492,-1.946553 -0.69015,-1.524477 -0.36995,-3.303106 0.80542,-4.473906 0.46777,-0.465939 1.14948,-0.874821 1.69647,-1.017517 0.79115,-0.206392 2.67236,-0.311731 3.70963,-0.207723 0.49852,0.04999 0.66931,0.132284 1.09405,0.52719 l 0.32889,0.305795 v -0.43601 -0.436009 h 1.33437 1.33438 v 5.704565 5.704567 l -0.11756,0.234219 c -0.51981,1.03557 -1.2421,1.627204 -2.10014,1.720235 -0.55888,0.06059 -2.94581,0.113392 -5.14016,0.113697 l -2.00157,2.76e-4 z m 5.35424,-6.82057 c 0.53372,-0.04428 0.69617,-0.110027 0.93828,-0.379746 0.21286,-0.237119 0.30266,-0.492823 0.30266,-0.861801 0,-0.409097 -0.0921,-0.645854 -0.35218,-0.905383 -0.17093,-0.170562 -0.25217,-0.221314 -0.43564,-0.272154 -0.35229,-0.09762 -1.00639,-0.143768 -2.04855,-0.144527 -1.34813,-9.82e-4 -1.61983,0.06606 -2.00459,0.494689 -0.21957,0.244581 -0.32588,0.525062 -0.32588,0.859728 0,0.345798 0.0841,0.570121 0.30395,0.811076 0.21098,0.231215 0.45371,0.351718 0.79935,0.396846 0.33636,0.04391 2.29799,0.04479 2.8226,0.0013 z m -17.76636,8.056747 c -0.38596,-0.06654 -0.76904,-0.495374 -0.8563,-0.958593 -0.10965,-0.581979 0.10854,-1.218562 0.48329,-1.410041 0.33953,-0.173487 1.17772,-0.227674 3.50086,-0.226322 2.22291,0.0013 2.92565,0.0336 3.18062,0.146216 0.24954,0.110227 0.47587,0.342337 0.60349,0.618919 0.0918,0.198912 0.10626,0.27659 0.10626,0.569915 0,0.307963 -0.0115,0.363074 -0.12374,0.591357 -0.12925,0.26297 -0.32226,0.461207 -0.59043,0.606425 -0.15026,0.08138 -0.15203,0.08142 -3.13861,0.08705 -1.64354,0.0031 -3.06799,-0.0081 -3.16544,-0.02492 z m 1.30483,-5.343571 c -0.43415,-0.0234 -0.57556,-0.04645 -0.80814,-0.13173 -1.07691,-0.394844 -2.10759,-1.406661 -2.51759,-2.471486 -0.24352,-0.632457 -0.23678,-0.497263 -0.25323,-5.076323 -0.009,-2.592106 -7.6e-4,-4.321618 0.0227,-4.592911 0.0599,-0.693671 0.28136,-1.325051 0.67225,-1.917244 0.18549,-0.281004 0.64183,-0.757083 0.94026,-0.980925 0.54555,-0.409205 1.31859,-0.71954 1.97046,-0.791047 0.4673,-0.05126 2.69122,-0.05132 3.28104,-7.5e-5 1.10101,0.09563 1.7378,0.361602 2.44136,1.019682 0.54101,0.50604 0.91388,1.033506 1.14042,1.613285 l 0.11033,0.282351 0.0214,5.061525 0.0215,5.061523 -0.2586,0.510205 c -0.14223,0.280613 -0.3344,0.619191 -0.42703,0.752396 -0.22605,0.325036 -0.61759,0.714893 -0.94718,0.943094 -0.32546,0.225346 -1.10344,0.621078 -1.33442,0.678774 -0.20277,0.05066 -3.30781,0.0803 -4.07558,0.03891 z m 3.60362,-2.820114 c 0.15329,-0.07559 0.36253,-0.226588 0.51953,-0.374918 l 0.26285,-0.248358 -0.0179,-4.217993 c -0.0123,-2.897552 -0.0316,-4.312277 -0.0613,-4.519169 -0.0603,-0.418805 -0.16009,-0.602648 -0.44266,-0.815759 -0.34231,-0.25817 -0.43404,-0.270558 -2.00345,-0.270596 -1.98592,-3.9e-5 -2.1992,0.05281 -2.53544,0.628485 -0.16912,0.289537 -0.17908,0.515833 -0.19759,4.490974 -0.0182,3.906896 -0.005,4.363731 0.137,4.69521 0.13852,0.323674 0.53823,0.683819 0.82625,0.744467 0.0741,0.01561 0.83702,0.02518 1.69541,0.02129 l 1.56072,-0.007 z"/></svg>