<svg xmlns="http://www.w3.org/2000/svg" xmlns:svg="http://www.w3.org/2000/svg" id="svg49" width="128" height="128" version="1.1" viewBox="0 0 128 128" xml:space="preserve"><linearGradient id="a" x1="88.596" x2="536.596" y1="-449.394" y2="-449.394" gradientTransform="matrix(0.196428 0 0 0.342105 2.59702 273.739929)" gradientUnits="userSpaceOnUse"><stop id="stop2" offset="0" stop-color="#deddda" style="stop-color:#d0d0d0;stop-opacity:1"/><stop id="stop4" offset=".045" stop-color="#eeeeec" style="stop-color:#e5e5e5;stop-opacity:1"/><stop id="stop6" offset=".091" stop-color="#deddda" style="stop-color:#d0d0d0;stop-opacity:1"/><stop id="stop8" offset=".909" stop-color="#deddda" style="stop-color:#d0d0d0;stop-opacity:1"/><stop id="stop10" offset=".955" stop-color="#eeeeec" style="stop-color:#e5e5e5;stop-opacity:1"/><stop id="stop12" offset="1" stop-color="#c0bfbc" style="stop-color:#d0d0d0;stop-opacity:1"/></linearGradient><linearGradient id="b" x1="58.999" x2="69" y1="64" y2="64" gradientUnits="userSpaceOnUse"><stop id="stop15" offset="0" stop-color="#9a9996" style="stop-color:#a5a5a5;stop-opacity:1"/><stop id="stop17" offset="1" stop-color="#77767b" style="stop-color:#5e5e5e;stop-opacity:1"/></linearGradient><linearGradient id="c" x1="48" x2="80" y1="275.5" y2="275.5" gradientTransform="matrix(1 0 0 0.850001 0 -135.925327)" gradientUnits="userSpaceOnUse"><stop id="stop20" offset="0" stop-color="#e8e7e4" style="stop-color:#e5e5e5;stop-opacity:1"/><stop id="stop22" offset=".511" stop-color="#fff" style="stop-color:#f0f0f2;stop-opacity:1"/><stop id="stop24" offset="1" stop-color="#c2bfba" style="stop-color:#c2c2c2;stop-opacity:1"/></linearGradient><path id="path27" fill="url(#a)" d="m 28 16 h 72 c 4.417969 0 8 3.582031 8 8 v 88 c 0 4.417969 -3.582031 8 -8 8 h -72 c -4.417969 0 -8 -3.582031 -8 -8 v -88 c 0 -4.417969 3.582031 -8 8 -8 z m 0 0"/><path id="path29" fill="#f6f5f4" d="m 28,7.8657289 h 72 c 4.41797,0 8,3.5820311 8,8.0000001 v 92.000001 c 0,4.41797 -3.58203,8 -8,8 H 28 c -4.417969,0 -8,-3.58203 -8,-8 V 15.865729 c 0,-4.417969 3.582031,-8.0000001 8,-8.0000001 z m 0,0" style="fill:#f0f0f2"/><path id="path373" style="fill:#f7812b;stroke-width:1;fill-opacity:1" d="m 83.811826,39.812844 c -0.467678,0.008 -1.001265,0.03843 -1.363118,0.08541 -0.662326,0.08601 -1.892646,0.354125 -2.357298,0.515871 -0.783929,0.272879 -1.835937,0.725824 -2.435871,1.048824 -0.172154,0.09269 -0.395314,0.20981 -0.495367,0.259644 -0.301786,0.150359 -1.527663,0.944048 -2.278708,1.47587 -1.799397,1.274155 -4.657747,4.023803 -6.361272,6.115291 -0.220747,0.271024 -0.508207,0.618294 -0.63887,0.772099 -0.301611,0.355181 -0.784367,0.984351 -1.585193,2.0669 -0.34793,0.470335 -0.67723,0.912651 -0.731105,0.983913 -0.276492,0.365749 -1.07515,1.561094 -1.335795,1.998573 -0.03813,0.0639 -0.08606,0.07707 -0.167396,0.05125 -0.06315,-0.02003 -0.116163,-0.05963 -0.116163,-0.08882 0,-0.02919 -0.04747,-0.115533 -0.105896,-0.191316 -0.05849,-0.07578 -0.316496,-0.452191 -0.573957,-0.83701 -0.257445,-0.384818 -0.613402,-0.901947 -0.789177,-1.147899 -0.91092,-1.274677 -0.880764,-1.234923 -1.981487,-2.599853 -0.340146,-0.42179 -0.722114,-0.901098 -0.850678,-1.065905 -1.153829,-1.47916 -3.938416,-4.253852 -5.411522,-5.394439 -0.165664,-0.128267 -0.420712,-0.330717 -0.567118,-0.447545 -0.335318,-0.267661 -1.756945,-1.224094 -2.237725,-1.506617 -1.007544,-0.59206 -2.058835,-1.071536 -3.084973,-1.407541 -1.090403,-0.357053 -1.511273,-0.469691 -1.995149,-0.52612 -0.226676,-0.02643 -0.575969,-0.06965 -0.775515,-0.09907 -0.938435,-0.13836 -2.504387,-0.01574 -3.652093,0.286975 -0.49981,0.131801 -1.389442,0.481119 -1.711606,0.673023 -0.07126,0.04245 -0.211178,0.112595 -0.310882,0.157146 -0.203044,0.0907 -1.04321,0.647492 -1.400724,0.929252 -1.789637,1.410434 -3.403062,3.769402 -4.369518,6.378351 -0.04067,0.109796 -0.148541,0.396567 -0.239148,0.638862 -0.09077,0.242291 -0.188124,0.522003 -0.215237,0.621777 -0.02699,0.09977 -0.108116,0.379484 -0.181057,0.621778 -0.216986,0.720127 -0.264406,0.892893 -0.331399,1.192312 -0.03512,0.156779 -0.120204,0.485394 -0.187897,0.727685 -0.06769,0.242294 -0.123002,0.508843 -0.122985,0.594448 0,0.0856 -0.0445,0.311324 -0.09907,0.502205 -0.05457,0.190882 -0.113994,0.506511 -0.133235,0.700355 -0.01924,0.193846 -0.06962,0.498801 -0.109324,0.67644 -0.03953,0.177642 -0.108432,0.678517 -0.153735,1.113736 -0.0453,0.435218 -0.115708,1.013755 -0.157164,1.284553 -0.252861,1.65258 -0.266173,9.263476 -0.0205,11.451653 0.02729,0.242291 0.08303,0.860285 0.126413,1.373378 0.04336,0.513092 0.125608,1.284022 0.181057,1.711598 0.05547,0.427576 0.138833,1.081389 0.184486,1.451956 0.0976,0.792607 0.15029,1.17018 0.290399,2.046401 0.057,0.356313 0.13724,0.893008 0.177646,1.192312 0.04041,0.299304 0.108344,0.705799 0.150325,0.905336 0.04198,0.199536 0.09921,0.528151 0.129824,0.727687 0.03079,0.199535 0.0923,0.515072 0.133235,0.700355 0.09033,0.408472 0.262516,1.317039 0.365543,1.91658 0.04163,0.242291 0.09878,0.508929 0.126413,0.594446 0.02746,0.08552 0.09654,0.401052 0.153735,0.700356 0.10649,0.558017 0.191326,0.92461 0.365544,1.605691 0.05457,0.213789 0.125503,0.529319 0.157164,0.700354 0.03184,0.171035 0.08907,0.42801 0.129824,0.570533 0.07387,0.258293 0.201767,0.767587 0.389454,1.554446 0.05445,0.228041 0.157356,0.624879 0.228898,0.881422 0.07149,0.256547 0.169408,0.607897 0.215236,0.778932 0.04583,0.171034 0.100595,0.320635 0.122985,0.334803 0.06465,0.04107 5.56349,0.0042 5.602846,-0.03757 0.01959,-0.02066 -0.03369,-0.249076 -0.119574,-0.505623 -0.08592,-0.256545 -0.200333,-0.640301 -0.252808,-0.854091 -0.166172,-0.678011 -0.30322,-1.211985 -0.382633,-1.479285 -0.10203,-0.343383 -0.278854,-1.033597 -0.399722,-1.578361 -0.0537,-0.242293 -0.116723,-0.499272 -0.143486,-0.570533 -0.02676,-0.07126 -0.06451,-0.211116 -0.082,-0.310889 -0.01749,-0.09977 -0.09902,-0.473865 -0.181058,-0.830177 -0.245182,-1.064299 -0.262184,-1.144289 -0.36556,-1.656936 -0.05457,-0.270797 -0.121971,-0.576668 -0.150307,-0.676441 -0.09239,-0.325751 -0.438939,-2.158164 -0.64912,-3.433445 -0.06944,-0.421255 -0.138063,-0.78515 -0.150307,-0.806263 -0.01312,-0.02111 -0.0628,-0.317834 -0.109324,-0.659358 -0.04635,-0.341517 -0.118944,-0.807118 -0.160575,-1.035159 -0.04145,-0.228042 -0.109393,-0.715837 -0.150324,-1.086404 -0.04093,-0.370565 -0.09736,-0.790144 -0.126396,-0.932667 -0.02904,-0.142523 -0.08917,-0.659855 -0.133252,-1.147899 -0.04425,-0.488038 -0.09981,-1.011648 -0.126396,-1.164979 -0.02659,-0.153315 -0.07478,-0.699717 -0.105913,-1.21281 -0.03113,-0.513092 -0.09372,-1.339163 -0.140074,-1.838004 -0.102502,-1.102602 -0.123877,-6.839864 -0.02732,-7.41351 0.03113,-0.185284 0.0939,-0.826018 0.140074,-1.424626 0.04618,-0.598607 0.116915,-1.23934 0.157147,-1.424624 0.04041,-0.185283 0.09869,-0.562955 0.129824,-0.840424 0.03113,-0.27747 0.08099,-0.583349 0.109323,-0.676441 0.02834,-0.09309 0.07961,-0.365821 0.116163,-0.608112 0.127743,-0.848392 0.613122,-2.614065 0.997574,-3.628179 1.186748,-3.130362 2.808551,-4.8626 4.75899,-5.083551 0.538887,-0.06105 1.620964,0.02169 1.851663,0.140074 0.07696,0.0395 0.19178,0.07175 0.252827,0.07175 0.131415,0 0.981044,0.286062 1.240132,0.416796 0.09977,0.05034 0.334023,0.161554 0.519296,0.249394 1.334081,0.632487 2.910809,1.755245 4.376358,3.115725 1.522782,1.413623 3.368481,3.442178 4.407108,4.840988 0.142523,0.191953 0.388842,0.504918 0.546618,0.696939 0.157794,0.19202 0.342262,0.440454 0.409955,0.553451 0.06757,0.112997 0.176002,0.263541 0.239148,0.334803 0.06321,0.07126 0.250272,0.328238 0.416794,0.570533 0.166504,0.242293 0.415448,0.606727 0.553458,0.806263 0.232011,0.335554 0.90966,1.357389 1.305044,1.967826 0.0923,0.142523 0.280201,0.444982 0.416812,0.673022 0.136628,0.228041 0.301961,0.49657 0.368954,0.597864 0.14938,0.225632 0.156587,0.359925 0.0205,0.532954 -0.114606,0.145689 -0.122898,0.158773 -1.031736,1.875583 -0.928184,1.753335 -1.771253,3.470154 -2.657929,5.414938 -0.08445,0.185283 -0.199634,0.432606 -0.252809,0.546618 -0.111807,0.239718 -0.543557,1.226888 -0.929251,2.124979 -0.609169,1.418481 -1.02264,2.438511 -1.274312,3.132807 -0.06717,0.185283 -0.146248,0.383705 -0.174235,0.440711 -0.09983,0.203314 -0.416795,1.061281 -0.416795,1.1274 0,0.03701 -0.03362,0.114606 -0.07175,0.170824 -0.0381,0.05622 -0.157846,0.359469 -0.26647,0.673025 -0.108729,0.313556 -0.227375,0.638751 -0.263059,0.724268 -0.03568,0.08552 -0.100105,0.2612 -0.143485,0.389467 -0.04331,0.128267 -0.163286,0.466548 -0.266487,0.751599 -0.103307,0.285052 -0.219225,0.623334 -0.259631,0.751601 -0.184696,0.585972 -0.304077,0.932655 -0.420222,1.233308 -0.06909,0.178722 -0.122985,0.354487 -0.122985,0.392881 0,0.03839 -0.04537,0.185355 -0.09907,0.324555 -0.0537,0.139199 -0.174463,0.496709 -0.26647,0.796013 -0.09199,0.299303 -0.208397,0.673398 -0.259648,0.830177 -0.05127,0.156779 -0.16869,0.540533 -0.259648,0.854091 -0.09096,0.313556 -0.207347,0.697312 -0.259648,0.854091 -0.05248,0.156778 -0.130681,0.426829 -0.174235,0.597864 -0.155887,0.612476 -0.333254,1.246127 -0.413366,1.469037 -0.04478,0.124734 -0.082,0.269466 -0.082,0.321137 0,0.08588 -0.135666,0.568257 -0.341632,1.209394 -0.0537,0.167239 -0.06486,0.269877 -0.03075,0.304056 0.0526,0.05255 5.323275,0.05923 5.40811,0.0068 0.02344,-0.01452 0.04098,-0.08134 0.04098,-0.150324 0,-0.06899 0.04766,-0.285286 0.105913,-0.478292 0.273537,-0.907229 0.310059,-1.033219 0.338221,-1.178646 0.01662,-0.08552 0.07411,-0.283932 0.126413,-0.440711 0.05227,-0.156779 0.166837,-0.530874 0.25622,-0.830177 0.266172,-0.891277 0.428514,-1.409597 0.526118,-1.684267 0.05073,-0.142523 0.107172,-0.340938 0.126413,-0.440711 0.01924,-0.09977 0.07875,-0.285114 0.129824,-0.41338 0.104846,-0.26287 0.221499,-0.604838 0.362133,-1.062489 0.05254,-0.171035 0.181844,-0.545126 0.28697,-0.830178 0.105213,-0.285051 0.220816,-0.623332 0.259648,-0.751599 0.03888,-0.128267 0.146511,-0.430732 0.235719,-0.673025 0.08921,-0.242294 0.215516,-0.603309 0.283559,-0.802845 0.06804,-0.199535 0.146774,-0.411035 0.174236,-0.468041 0.0275,-0.05701 0.124804,-0.300908 0.215237,-0.543202 0.378155,-1.012512 0.682372,-1.80149 0.778926,-2.015656 0.05664,-0.125626 0.194212,-0.463896 0.30406,-0.751601 0.109796,-0.287698 0.274761,-0.688718 0.365543,-0.888254 0.09083,-0.199536 0.195419,-0.444361 0.232326,-0.546618 0.09006,-0.249328 0.557114,-1.327989 0.785766,-1.810673 0.101173,-0.213788 0.213173,-0.47076 0.249381,-0.570533 0.03616,-0.09977 0.189716,-0.438045 0.338221,-0.751601 0.148575,-0.313554 0.373992,-0.79169 0.502207,-1.06249 0.196555,-0.41541 1.121573,-2.326865 1.328973,-2.746756 0.03533,-0.07126 0.09606,-0.129824 0.136646,-0.129824 0.08714,0 0.04817,-0.07282 0.826767,1.530532 0.720661,1.484043 0.92598,1.91797 1.383617,2.944906 0.481689,1.080777 0.507577,1.146987 0.62862,1.434874 0.319872,0.760713 0.4897,1.155287 0.556869,1.294802 0.04128,0.08552 0.109043,0.248122 0.150324,0.362134 0.04135,0.114011 0.20803,0.523935 0.368954,0.908752 0.16096,0.38482 0.323144,0.798012 0.362133,0.919003 0.03901,0.120991 0.107469,0.296671 0.150324,0.389465 0.07675,0.16605 0.129264,0.302109 0.368972,0.970248 0.06649,0.185284 0.194176,0.523558 0.283559,0.7516 0.427692,1.090627 1.376674,3.854047 1.940486,5.650667 0.10733,0.342062 0.235212,0.748558 0.286988,0.905336 0.05185,0.156779 0.168673,0.540537 0.259631,0.854091 0.0909,0.313556 0.207522,0.70073 0.259648,0.857509 0.05213,0.156779 0.112769,0.377945 0.133235,0.491956 0.02047,0.114012 0.09376,0.364991 0.160574,0.556867 0.06682,0.191876 0.119574,0.378296 0.119574,0.416796 0,0.06869 0.208013,0.769303 0.239148,0.806263 0.02281,0.02704 5.585792,0.0068 5.613079,-0.0205 0.01259,-0.01242 -0.03127,-0.192794 -0.09564,-0.399715 -0.06432,-0.206915 -0.150219,-0.515654 -0.191325,-0.686689 -0.04111,-0.171035 -0.111843,-0.437667 -0.157146,-0.594446 -0.04548,-0.156779 -0.12351,-0.449574 -0.174236,-0.64911 -0.05076,-0.199536 -0.156237,-0.573631 -0.232326,-0.830176 -0.076,-0.256545 -0.173414,-0.594822 -0.215219,-0.751601 -0.04179,-0.156779 -0.130803,-0.459234 -0.198147,-0.673024 -0.06741,-0.213788 -0.182859,-0.597546 -0.259648,-0.854091 -0.231154,-0.772295 -0.446793,-1.44084 -0.522707,-1.633022 -0.03936,-0.09977 -0.104916,-0.311263 -0.146896,-0.468042 -0.08784,-0.328494 -0.727431,-2.211779 -1.123987,-3.313873 -0.148715,-0.413324 -0.3208,-0.904537 -0.386044,-1.089821 -0.06526,-0.185283 -0.183384,-0.500819 -0.259648,-0.700355 -0.07632,-0.199534 -0.201086,-0.539858 -0.280148,-0.755016 -0.07906,-0.21515 -0.214572,-0.56309 -0.300632,-0.775515 -0.08613,-0.212419 -0.314205,-0.782884 -0.505635,-1.267471 -0.444274,-1.124531 -1.536951,-3.684011 -1.967826,-4.612092 -0.06617,-0.142523 -0.178538,-0.38984 -0.24938,-0.546619 -0.515238,-1.139192 -0.800564,-1.730105 -1.602283,-3.334371 -0.764251,-1.529305 -1.353637,-2.647657 -1.875574,-3.556436 -0.07364,-0.128267 -0.132885,-0.260433 -0.133252,-0.293807 -7.53e-4,-0.07315 0.484522,-0.866968 0.655942,-1.072738 0.06699,-0.08058 0.119573,-0.169811 0.119573,-0.198149 0,-0.02834 0.107522,-0.196043 0.235737,-0.375801 0.128268,-0.179759 0.232309,-0.345627 0.232309,-0.36555 0,-0.01992 0.102956,-0.167659 0.228897,-0.331387 0.125976,-0.163723 0.301751,-0.425981 0.392883,-0.580782 0.09122,-0.154802 0.234023,-0.356062 0.31431,-0.447544 0.08031,-0.09148 0.180865,-0.244114 0.225469,-0.33822 0.04474,-0.09411 0.133952,-0.228731 0.198147,-0.30064 0.195453,-0.219195 0.433149,-0.536751 0.464634,-0.621779 0.01644,-0.04425 0.193687,-0.285111 0.396294,-0.532952 0.20252,-0.247843 0.368972,-0.461849 0.368972,-0.478292 0,-0.01644 0.117615,-0.17582 0.259648,-0.351885 0.141964,-0.176066 0.413419,-0.516139 0.604691,-0.758434 0.332467,-0.421153 0.938977,-1.13376 1.106898,-1.298217 0.04366,-0.04277 0.255555,-0.286657 0.471456,-0.543202 0.533377,-0.633779 1.932842,-2.033533 2.534945,-2.538359 0.27079,-0.227054 0.514695,-0.437274 0.543207,-0.468042 0.121008,-0.130629 0.716709,-0.605977 1.270883,-1.01466 0.831875,-0.613474 1.571602,-1.069511 2.357298,-1.448539 0.369794,-0.178391 0.731647,-0.351397 0.802838,-0.386049 0.250867,-0.122022 0.965075,-0.332847 1.400708,-0.41338 0.242296,-0.04478 0.567556,-0.106682 0.724282,-0.136663 0.349468,-0.0668 1.101318,-0.03425 1.554442,0.06832 0.461329,0.104426 1.024018,0.354139 1.465618,0.64911 0.36152,0.241486 1.10934,0.948775 1.27429,1.205976 0.0457,0.07126 0.16687,0.233867 0.2699,0.362134 0.42311,0.527058 1.07685,1.790554 1.42121,2.746758 0.077,0.21379 0.18036,0.506587 0.23231,0.64911 0.19074,0.524019 0.61569,2.139683 0.70035,2.668179 0.0161,0.09977 0.074,0.392563 0.12982,0.64911 0.0903,0.414762 0.14797,0.786029 0.31431,1.995157 0.0699,0.507739 0.20307,1.944934 0.26306,2.849248 0.0803,1.213368 0.0259,6.199776 -0.0786,7.177782 -0.0457,0.427578 -0.10763,1.149857 -0.13666,1.605692 -0.029,0.455825 -0.0861,1.051079 -0.12981,1.322132 -0.0435,0.271049 -0.10088,0.767363 -0.12641,1.103485 -0.0255,0.336122 -0.0975,0.931375 -0.15715,1.322134 -0.26988,1.76688 -0.36026,2.386056 -0.38947,2.627184 -0.0171,0.142523 -0.0738,0.458063 -0.12641,0.700354 -0.0527,0.242294 -0.11092,0.580566 -0.12981,0.751601 -0.0187,0.171035 -0.0664,0.441085 -0.10591,0.597864 -0.0395,0.156779 -0.098,0.459233 -0.12983,0.673023 -0.0318,0.213788 -0.0935,0.52932 -0.13664,0.700355 -0.0432,0.171035 -0.11001,0.483149 -0.14692,0.696939 -0.0949,0.54941 -0.27437,1.412182 -0.38947,1.868751 -0.20763,0.823688 -0.32491,1.335071 -0.38945,1.684268 -0.0369,0.199534 -0.0955,0.42875 -0.12642,0.509037 -0.031,0.08029 -0.0878,0.30144 -0.12982,0.491957 -0.0912,0.413429 -0.25243,1.038209 -0.39288,1.537363 -0.0562,0.199536 -0.13681,0.50199 -0.18106,0.673025 -0.0443,0.171035 -0.13695,0.509307 -0.20499,0.751599 -0.0681,0.242295 -0.16257,0.580567 -0.2084,0.751601 -0.0458,0.171035 -0.15142,0.52414 -0.23571,0.785765 -0.16933,0.525063 -0.18505,0.639127 -0.0888,0.642275 0.6524,0.02101 5.35989,-0.018 5.3842,-0.04441 0.0185,-0.02026 0.0727,-0.209842 0.11958,-0.42363 0.0469,-0.213789 0.12991,-0.529321 0.18448,-0.700354 0.0546,-0.171035 0.16103,-0.554789 0.23572,-0.854093 0.0747,-0.299303 0.19056,-0.745036 0.25965,-0.987329 0.0691,-0.242294 0.19698,-0.743168 0.28356,-1.113735 0.0866,-0.370565 0.19638,-0.812878 0.24256,-0.983913 0.0828,-0.306367 0.17827,-0.739733 0.34847,-1.554446 0.0476,-0.228039 0.14439,-0.670357 0.21524,-0.983913 0.31627,-1.399108 0.50528,-2.332566 0.62178,-3.084975 0.042,-0.2708 0.10094,-0.563593 0.1298,-0.64911 0.0289,-0.08552 0.087,-0.423791 0.12983,-0.751601 0.043,-0.327807 0.11044,-0.721227 0.15032,-0.878006 0.0399,-0.156779 0.0985,-0.530872 0.12983,-0.830176 0.0313,-0.299303 0.0793,-0.614838 0.10591,-0.700355 0.0268,-0.08552 0.0964,-0.584378 0.15373,-1.106901 0.0574,-0.52252 0.11583,-0.967675 0.12983,-0.990745 0.0142,-0.02307 0.0714,-0.516295 0.1298,-1.096655 0.0584,-0.580358 0.12822,-1.195511 0.15374,-1.366546 0.0254,-0.171034 0.071,-0.766282 0.1025,-1.322132 0.0315,-0.555849 0.0971,-1.45356 0.14349,-1.995157 0.12127,-1.418036 0.12087,-6.470451 0,-7.516002 -0.046,-0.399071 -0.10912,-1.085285 -0.14008,-1.527115 -0.0308,-0.441828 -0.0905,-1.037081 -0.13323,-1.322132 -0.0427,-0.285052 -0.11045,-0.750107 -0.15033,-1.035159 -0.12919,-0.924474 -0.29172,-1.862384 -0.36554,-2.101064 -0.0395,-0.128267 -0.0983,-0.379369 -0.12982,-0.560283 -0.0315,-0.180916 -0.0801,-0.392409 -0.10933,-0.468044 -0.0292,-0.07563 -0.098,-0.321992 -0.15032,-0.550034 -0.0521,-0.22804 -0.12007,-0.485016 -0.15033,-0.570533 -0.0303,-0.08552 -0.12839,-0.401048 -0.21864,-0.700354 -0.48456,-1.605282 -1.35068,-3.47168 -2.21721,-4.769245 -0.86151,-1.290065 -2.19713,-2.637156 -3.3173,-3.351453 -0.38515,-0.245591 -1.43861,-0.795549 -1.5271,-0.796013 -0.0319,-1.92e-4 -0.12682,-0.03427 -0.21183,-0.07857 -0.13969,-0.07283 -0.39213,-0.152248 -1.13081,-0.358718 -0.13628,-0.03808 -0.425638,-0.08557 -0.645685,-0.105912 -0.220047,-0.02033 -0.458355,-0.06089 -0.529546,-0.08882 -0.09967,-0.03909 -0.502574,-0.05242 -0.970252,-0.04441 z"/></svg>