<?xml version="1.0" encoding="UTF-8" standalone="no"?>
<svg
   height="128px"
   viewBox="0 0 128 128"
   width="128px"
   version="1.1"
   id="svg49"
   xmlns="http://www.w3.org/2000/svg"
   xmlns:svg="http://www.w3.org/2000/svg">
  <defs
     id="defs53" />
  <linearGradient
     id="a"
     gradientTransform="matrix(0.196428 0 0 0.342105 2.59702 273.739929)"
     gradientUnits="userSpaceOnUse"
     x1="88.595886"
     x2="536.595886"
     y1="-449.394012"
     y2="-449.394012">
    <stop
       offset="0"
       stop-color="#deddda"
       id="stop2"
       style="stop-color:#d0d0d0;stop-opacity:1" />
    <stop
       offset="0.0454546"
       stop-color="#eeeeec"
       id="stop4"
       style="stop-color:#e5e5e5;stop-opacity:1" />
    <stop
       offset="0.0909091"
       stop-color="#deddda"
       id="stop6"
       style="stop-color:#d0d0d0;stop-opacity:1" />
    <stop
       offset="0.909091"
       stop-color="#deddda"
       id="stop8"
       style="stop-color:#d0d0d0;stop-opacity:1" />
    <stop
       offset="0.954545"
       stop-color="#eeeeec"
       id="stop10"
       style="stop-color:#e5e5e5;stop-opacity:1" />
    <stop
       offset="1"
       stop-color="#c0bfbc"
       id="stop12"
       style="stop-color:#d0d0d0;stop-opacity:1" />
  </linearGradient>
  <linearGradient
     id="b"
     gradientUnits="userSpaceOnUse"
     x1="58.999043"
     x2="69.00042"
     y1="63.999893"
     y2="63.999893">
    <stop
       offset="0"
       stop-color="#9a9996"
       id="stop15"
       style="stop-color:#a5a5a5;stop-opacity:1" />
    <stop
       offset="1"
       stop-color="#77767b"
       id="stop17"
       style="stop-color:#5e5e5e;stop-opacity:1" />
  </linearGradient>
  <linearGradient
     id="c"
     gradientTransform="matrix(1 0 0 0.850001 0 -135.925327)"
     gradientUnits="userSpaceOnUse"
     x1="48.00016"
     x2="80.00016"
     y1="275.499908"
     y2="275.499908">
    <stop
       offset="0"
       stop-color="#e8e7e4"
       id="stop20"
       style="stop-color:#e5e5e5;stop-opacity:1" />
    <stop
       offset="0.511049"
       stop-color="#ffffff"
       id="stop22"
       style="stop-color:#f0f0f2;stop-opacity:1" />
    <stop
       offset="1"
       stop-color="#c2bfba"
       id="stop24"
       style="stop-color:#c2c2c2;stop-opacity:1" />
  </linearGradient>
  <path
     d="m 28 16 h 72 c 4.417969 0 8 3.582031 8 8 v 88 c 0 4.417969 -3.582031 8 -8 8 h -72 c -4.417969 0 -8 -3.582031 -8 -8 v -88 c 0 -4.417969 3.582031 -8 8 -8 z m 0 0"
     fill="url(#a)"
     id="path27" />
  <path
     d="m 28 8 h 72 c 4.417969 0 8 3.582031 8 8 v 92 c 0 4.417969 -3.582031 8 -8 8 h -72 c -4.417969 0 -8 -3.582031 -8 -8 v -92 c 0 -4.417969 3.582031 -8 8 -8 z m 0 0"
     fill="#f6f5f4"
     id="path29"
     style="fill:#f0f0f2" />
  <g
     clip-path="url(#d)"
     mask="url(#b-6)"
     transform="translate(-210,21)"
     id="g22">
    <path
       d="M 37.671875,36.503906 V 122.50391 H 105.67188 V 36.503906 Z m 0,0"
       fill="url(#c)"
       id="path20"
       style="fill:url(#c-7)" />
  </g>
  <path
     style="fill:#f7812b;stroke-width:1"
     d="M 41.836907,87.891064 C 41.205984,87.70909 40.734136,87.323677 40.360947,86.68548 L 39.999999,86.068225 V 63.947573 c 0,-12.166357 0.03642,-22.120648 0.08092,-22.120648 0.04451,0 0.134998,-0.148438 0.20109,-0.329862 0.170252,-0.467346 0.501711,-0.817908 1.117308,-1.181702 L 41.932959,40 h 22.122129 c 12.167169,0 22.122127,0.0365 22.122127,0.08111 0,0.0446 0.154867,0.137234 0.344148,0.205834 0.405706,0.147039 1.140227,0.909692 1.233019,1.280245 0.03577,0.142856 0.105672,0.259739 0.15533,0.259739 0.0526,0 0.09029,9.257585 0.09029,22.176834 0,12.197258 -0.03641,22.176839 -0.08092,22.176839 -0.04451,0 -0.13723,0.156071 -0.20605,0.346814 -0.193983,0.537678 -0.869966,1.150413 -1.464292,1.327316 -0.4506,0.134115 -3.175248,0.151672 -22.292433,0.143637 -13.693868,-0.006 -21.905431,-0.0456 -22.119403,-0.107299 z M 52.081942,80.77765 c 0.212156,-0.06245 0.587273,-0.29136 0.833592,-0.508671 0.76045,-0.670896 0.784992,-0.829534 0.832258,-5.379795 l 0.04085,-3.932962 h -0.975821 -0.97582 l 0.03086,0.482105 c 0.03049,0.476237 0.03518,0.48217 0.385296,0.487475 l 0.35443,0.0053 v 3.496234 c 0,3.416666 -0.005,3.504321 -0.220854,3.85147 -0.402578,0.647534 -1.130713,0.908992 -1.969679,0.70727 -0.594745,-0.142954 -1.146971,-0.631652 -1.251183,-1.107206 -0.06465,-0.295012 -0.09287,-0.310486 -0.566322,-0.310486 -0.453725,0 -0.498284,0.02106 -0.498284,0.235541 0,0.129546 0.125317,0.483231 0.278481,0.785964 0.604663,1.19513 2.074902,1.666814 3.702196,1.187738 z m 5.33578,-1.638005 v -1.864662 l 1.408019,-0.04504 c 1.339701,-0.04286 1.440444,-0.06104 2.076281,-0.374769 1.096833,-0.541195 1.680256,-1.5322 1.680256,-2.854079 0,-1.344655 -0.61554,-2.297875 -1.772152,-2.744334 -0.539486,-0.208246 -0.826106,-0.239443 -2.556962,-0.278304 l -1.949366,-0.04377 v 5.034807 5.034808 h 0.556961 0.556962 z m 0,-5.037053 V 71.97118 h 1.202458 c 2.152668,0 2.851352,0.503776 2.845951,2.05203 -0.0055,1.58127 -0.860113,2.210793 -3.001212,2.210793 h -1.047197 z m 20.000002,6.588974 c 0.334177,-0.10212 0.801266,-0.216387 1.037974,-0.253926 l 0.430379,-0.06825 v -2.372184 -2.372179 h -1.367088 c -0.751898,0 -1.373463,0.03426 -1.381254,0.07612 -0.0078,0.04186 -0.02398,0.245715 -0.03598,0.452994 l -0.02182,0.376871 0.853333,0.02911 0.853336,0.02911 -2.03e-4,1.254705 c -2.02e-4,1.16502 -0.01669,1.272256 -0.230386,1.500239 -0.335621,0.358062 -1.196093,0.578598 -2.025477,0.519122 -2.154538,-0.154507 -3.511031,-2.160652 -3.148171,-4.655892 0.216124,-1.486197 0.917563,-2.55791 2.033721,-3.107286 0.496302,-0.24428 0.690928,-0.281095 1.482686,-0.280463 0.750214,6.09e-4 0.987112,0.04115 1.339557,0.229297 l 0.428166,0.228568 0.346584,-0.379047 c 0.34012,-0.37198 0.342762,-0.381729 0.141671,-0.522899 -0.387731,-0.272194 -1.236523,-0.536349 -1.897523,-0.590532 -2.349802,-0.192616 -4.303292,1.232202 -4.914621,3.584583 -0.201471,0.775262 -0.19752,2.422042 0.0077,3.219913 0.459187,1.785014 1.780006,3.0657 3.420022,3.316104 0.708096,0.108114 1.911487,0.0108 2.647402,-0.214085 z m -7.240507,-0.39773 v -0.507478 h -2.481013 -2.481013 v -1.67258 -1.67258 l 2.050633,-0.02748 2.050633,-0.02748 0.01009,-0.45673 0.01009,-0.456731 -2.035401,-0.05075 -2.035403,-0.05075 v -1.725433 -1.725428 h 2.354344 2.354346 l 8.5e-5,-0.483663 8.6e-5,-0.48366 -2.898952,0.02693 -2.898952,0.02693 -0.0034,3.14637 c -0.0019,1.730503 0.0039,3.934231 0.01288,4.897172 l 0.01627,1.750803 h 2.987342 2.987342 z m -7.666447,-16.290077 0.02359,-3.958336 4.023962,-0.02654 4.023962,-0.02654 v -5.479614 -5.47961 h -9.518988 -9.518988 v 9.490732 9.490732 l 5.47144,-0.02624 5.47144,-0.02624 z m 15.868979,0.574163 V 61.143 l -3.417722,0.0094 -3.417722,0.0094 -0.02666,3.425483 -0.02666,3.425483 h 3.444385 3.444385 v -3.434921 z"
     id="path1079" />
</svg>
