<?xml version="1.0" encoding="UTF-8" standalone="no"?>
<svg
   height="128px"
   viewBox="0 0 128 128"
   width="128px"
   version="1.1"
   id="svg49"
   xmlns="http://www.w3.org/2000/svg"
   xmlns:svg="http://www.w3.org/2000/svg">
  <defs
     id="defs53" />
  <linearGradient
     id="a"
     gradientTransform="matrix(0.196428 0 0 0.342105 2.59702 273.739929)"
     gradientUnits="userSpaceOnUse"
     x1="88.595886"
     x2="536.595886"
     y1="-449.394012"
     y2="-449.394012">
    <stop
       offset="0"
       stop-color="#deddda"
       id="stop2"
       style="stop-color:#d0d0d0;stop-opacity:1" />
    <stop
       offset="0.0454546"
       stop-color="#eeeeec"
       id="stop4"
       style="stop-color:#e5e5e5;stop-opacity:1" />
    <stop
       offset="0.0909091"
       stop-color="#deddda"
       id="stop6"
       style="stop-color:#d0d0d0;stop-opacity:1" />
    <stop
       offset="0.909091"
       stop-color="#deddda"
       id="stop8"
       style="stop-color:#d0d0d0;stop-opacity:1" />
    <stop
       offset="0.954545"
       stop-color="#eeeeec"
       id="stop10"
       style="stop-color:#e5e5e5;stop-opacity:1" />
    <stop
       offset="1"
       stop-color="#c0bfbc"
       id="stop12"
       style="stop-color:#d0d0d0;stop-opacity:1" />
  </linearGradient>
  <linearGradient
     id="b"
     gradientUnits="userSpaceOnUse"
     x1="58.999043"
     x2="69.00042"
     y1="63.999893"
     y2="63.999893">
    <stop
       offset="0"
       stop-color="#9a9996"
       id="stop15"
       style="stop-color:#a5a5a5;stop-opacity:1" />
    <stop
       offset="1"
       stop-color="#77767b"
       id="stop17"
       style="stop-color:#5e5e5e;stop-opacity:1" />
  </linearGradient>
  <linearGradient
     id="c"
     gradientTransform="matrix(1 0 0 0.850001 0 -135.925327)"
     gradientUnits="userSpaceOnUse"
     x1="48.00016"
     x2="80.00016"
     y1="275.499908"
     y2="275.499908">
    <stop
       offset="0"
       stop-color="#e8e7e4"
       id="stop20"
       style="stop-color:#e5e5e5;stop-opacity:1" />
    <stop
       offset="0.511049"
       stop-color="#ffffff"
       id="stop22"
       style="stop-color:#f0f0f2;stop-opacity:1" />
    <stop
       offset="1"
       stop-color="#c2bfba"
       id="stop24"
       style="stop-color:#c2c2c2;stop-opacity:1" />
  </linearGradient>
  <path
     d="m 28 16 h 72 c 4.417969 0 8 3.582031 8 8 v 88 c 0 4.417969 -3.582031 8 -8 8 h -72 c -4.417969 0 -8 -3.582031 -8 -8 v -88 c 0 -4.417969 3.582031 -8 8 -8 z m 0 0"
     fill="url(#a)"
     id="path27" />
  <path
     d="m 28 8 h 72 c 4.417969 0 8 3.582031 8 8 v 92 c 0 4.417969 -3.582031 8 -8 8 h -72 c -4.417969 0 -8 -3.582031 -8 -8 v -92 c 0 -4.417969 3.582031 -8 8 -8 z m 0 0"
     fill="#f6f5f4"
     id="path29"
     style="fill:#f0f0f2" />
  <g
     clip-path="url(#d)"
     mask="url(#b-6)"
     transform="translate(-210,21)"
     id="g22">
    <path
       d="M 37.671875,36.503906 V 122.50391 H 105.67188 V 36.503906 Z m 0,0"
       fill="url(#c)"
       id="path20"
       style="fill:url(#c-7)" />
  </g>
  <path
     style="fill:#9c9dcb;fill-opacity:1;stroke-width:1"
     d="m 56.1616,76.709038 c -1.690446,-0.633373 -2.996351,-2.688748 -5.013463,-1.471059 -2.583629,0.462478 -5.473028,0.01868 -7.539047,-1.672213 -1.130362,-1.171562 -2.093755,-2.832857 -2.059794,-4.457282 1.356616,-0.995116 4.138691,-0.965905 4.539249,1.065155 0.688709,1.589465 3.762607,1.916202 4.510897,1.162736 -1.055365,-1.492313 -0.455591,-4.198596 -2.693019,-4.643699 -2.226736,-0.333005 -4.86773,-1.097876 -5.786346,-3.408206 -0.576746,-1.618821 -0.172461,-3.562694 0.859325,-4.912767 1.822418,-2.040682 4.798401,-2.9662 7.472064,-2.465895 2.086032,0.61908 3.112683,-1.500569 4.642277,-2.411041 3.164545,-2.182566 7.294174,-2.739515 10.987768,-1.839105 2.432005,0.624335 4.67624,1.968851 6.406686,3.781473 1.404113,2.152537 4.213781,-0.398625 6.293369,0.350919 2.896232,0.139964 5.998318,1.548532 7.126223,4.390345 0.580091,1.116027 0.813477,2.449809 -0.878539,2.10163 -1.866478,0.605649 -3.065337,-0.576355 -3.940463,-2.002622 -1.515089,-1.136095 -3.868983,-1.549968 -5.4631,-0.395862 -0.02966,1.782912 0.989572,3.575409 0.591109,5.490362 0.495063,2.034171 -1.599298,4.014707 -0.716798,5.805536 2.356576,1.056098 5.824777,0.455006 6.984753,-2.072281 0.618923,-2.090432 -2.523726,-0.650931 -3.628482,-1.053449 -0.708786,-0.02877 -0.195885,-1.279039 -0.35136,-1.861034 0.147798,-0.52335 -0.30804,-1.654601 0.248333,-1.766489 2.566112,0.01807 5.132223,0.03612 7.698334,0.05418 0,3.52 0,7.04 0,10.56 -1.370814,-0.07645 -3.69698,0.680733 -3.417217,-1.428652 -1.33792,0.454258 -2.896287,1.794693 -4.635829,1.670095 -1.819906,0.149933 -3.688127,-0.260604 -5.191997,-1.296684 -1.758584,0.338311 -2.634925,3.099894 -4.707248,2.741609 -4.112551,0.0038 -8.225288,0.03454 -12.337685,-0.0157 z m 8.503309,-1.712141 c 1.019728,-1.21228 0.995735,-2.978666 1.659002,-4.402287 0.804533,-2.225559 1.342978,-4.535246 2.192839,-6.742972 0.436441,1.321403 -0.08406,3.097444 0.507586,4.527391 0.572226,1.858317 1.628142,3.637746 3.143445,4.866362 1.476326,0.530271 3.164606,-2.316773 1.748542,-3.384324 -1.489868,-1.21821 -1.812463,-3.421639 -1.630711,-5.251888 0.166403,-1.702449 1.073115,-3.193785 2.329985,-4.315944 0.992024,-1.295913 -1.281182,-4.56376 -2.583292,-2.588962 -0.991886,0.521664 -1.704663,2.149807 -2.282148,2.528781 -0.232407,-1.392064 1.907169,-3.600916 0.6452,-4.400462 -1.389566,0.06198 -3.833963,-0.378308 -3.69329,1.773009 -1.118699,3.673753 -2.299851,7.328215 -3.374951,11.015604 -1.101382,0.733175 -0.952217,-2.638876 -1.623525,-3.457498 -0.820777,-2.779549 -1.758579,-5.532796 -2.53379,-8.317873 -0.641698,-1.56998 -2.818953,-1.030547 -3.957575,-0.748392 0.117981,0.694359 1.332657,3.50535 -0.04268,1.776923 -1.033237,-1.414795 -3.47194,-2.301377 -4.090057,-0.01616 -1.768072,1.898834 1.68081,1.659129 1.845079,3.510049 0.144809,0.829789 1.275188,0.307652 1.906336,0.472285 0.557337,-0.134853 1.661583,0.334658 1.829093,-0.230974 0.59218,-0.142343 0.757128,2.370613 1.297137,3.202257 0.926334,3.121078 2.018745,6.188077 2.887519,9.313218 0.550604,1.572284 2.605187,0.677892 3.820251,0.871852 z m 4.026667,-11.798525 c 0.102615,-1.071622 0.254453,1.081406 0,0 z m 0.746666,-2.352962 c 0.383281,-0.755014 0.06958,0.821123 0,0 z M 54.685389,73.994501 c 3.135761,-1.836062 3.785957,-7.073092 0.690056,-9.25952 -1.658297,-1.072074 -3.706662,-1.104696 -5.59711,-1.358606 -1.189762,0.518471 -0.908952,3.586039 0.54455,3.849363 1.650138,-0.182498 3.891742,1.401837 2.994065,3.214241 -0.239441,1.177104 -3.290253,0.900173 -1.597935,2.335205 0.673227,1.126636 1.62851,2.445514 2.966374,1.219317 z M 49.196938,62.610494 c 0.14948,-1.309441 1.823974,-3.992856 -0.877347,-3.328127 -1.567605,3.8e-4 -3.490198,2.135842 -1.595179,3.209879 0.60903,0.17006 2.49156,1.412423 2.472526,0.118248 z"
     id="path1150" />
</svg>
