<?xml version="1.0" encoding="UTF-8" standalone="no"?>
<svg
   height="128px"
   viewBox="0 0 128 128"
   width="128px"
   version="1.1"
   id="svg49"
   xmlns="http://www.w3.org/2000/svg"
   xmlns:svg="http://www.w3.org/2000/svg">
  <defs
     id="defs53" />
  <linearGradient
     id="a"
     gradientTransform="matrix(0.196428 0 0 0.342105 2.59702 273.739929)"
     gradientUnits="userSpaceOnUse"
     x1="88.595886"
     x2="536.595886"
     y1="-449.394012"
     y2="-449.394012">
    <stop
       offset="0"
       stop-color="#deddda"
       id="stop2"
       style="stop-color:#d0d0d0;stop-opacity:1" />
    <stop
       offset="0.0454546"
       stop-color="#eeeeec"
       id="stop4"
       style="stop-color:#e5e5e5;stop-opacity:1" />
    <stop
       offset="0.0909091"
       stop-color="#deddda"
       id="stop6"
       style="stop-color:#d0d0d0;stop-opacity:1" />
    <stop
       offset="0.909091"
       stop-color="#deddda"
       id="stop8"
       style="stop-color:#d0d0d0;stop-opacity:1" />
    <stop
       offset="0.954545"
       stop-color="#eeeeec"
       id="stop10"
       style="stop-color:#e5e5e5;stop-opacity:1" />
    <stop
       offset="1"
       stop-color="#c0bfbc"
       id="stop12"
       style="stop-color:#d0d0d0;stop-opacity:1" />
  </linearGradient>
  <linearGradient
     id="b"
     gradientUnits="userSpaceOnUse"
     x1="58.999043"
     x2="69.00042"
     y1="63.999893"
     y2="63.999893">
    <stop
       offset="0"
       stop-color="#9a9996"
       id="stop15"
       style="stop-color:#a5a5a5;stop-opacity:1" />
    <stop
       offset="1"
       stop-color="#77767b"
       id="stop17"
       style="stop-color:#5e5e5e;stop-opacity:1" />
  </linearGradient>
  <linearGradient
     id="c"
     gradientTransform="matrix(1 0 0 0.850001 0 -135.925327)"
     gradientUnits="userSpaceOnUse"
     x1="48.00016"
     x2="80.00016"
     y1="275.499908"
     y2="275.499908">
    <stop
       offset="0"
       stop-color="#e8e7e4"
       id="stop20"
       style="stop-color:#e5e5e5;stop-opacity:1" />
    <stop
       offset="0.511049"
       stop-color="#ffffff"
       id="stop22"
       style="stop-color:#f0f0f2;stop-opacity:1" />
    <stop
       offset="1"
       stop-color="#c2bfba"
       id="stop24"
       style="stop-color:#c2c2c2;stop-opacity:1" />
  </linearGradient>
  <path
     d="m 28 16 h 72 c 4.417969 0 8 3.582031 8 8 v 88 c 0 4.417969 -3.582031 8 -8 8 h -72 c -4.417969 0 -8 -3.582031 -8 -8 v -88 c 0 -4.417969 3.582031 -8 8 -8 z m 0 0"
     fill="url(#a)"
     id="path27" />
  <path
     d="m 28 8 h 72 c 4.417969 0 8 3.582031 8 8 v 92 c 0 4.417969 -3.582031 8 -8 8 h -72 c -4.417969 0 -8 -3.582031 -8 -8 v -92 c 0 -4.417969 3.582031 -8 8 -8 z m 0 0"
     fill="#f6f5f4"
     id="path29"
     style="fill:#f0f0f2" />
  <g
     clip-path="url(#d)"
     mask="url(#b-6)"
     transform="translate(-210,21)"
     id="g22">
    <path
       d="M 37.671875,36.503906 V 122.50391 H 105.67188 V 36.503906 Z m 0,0"
       fill="url(#c)"
       id="path20"
       style="fill:url(#c-7)" />
  </g>
  <g
     id="g850"
     transform="matrix(3.4285714,0,0,3.4285714,36.571429,36.571429)"
     style="stroke-width:0.291667;fill:#f7812b">
    <path
       style="color:#000000;fill:#f7812b;stroke-width:0.291667;stroke-linecap:round;stroke-linejoin:round;-inkscape-stroke:none"
       d="M 8.5,6 A 0.50005,0.50005 0 0 0 8.109375,6.1875 l -4,5 A 0.50005,0.50005 0 0 0 4.5,12 h 8 a 0.50005,0.50005 0 0 0 0.390625,-0.8125 l -4,-5 A 0.50005,0.50005 0 0 0 8.5,6 Z M 8.5,7.3007812 11.458984,11 H 5.5410156 Z"
       id="path2" />
    <path
       id="path875"
       style="fill:#f7812b;stroke-width:0.291667"
       d="M 5,4 C 4.8087776,4 4.6307052,4.054692 4.4785156,4.1484375 c -0.025892,0.015949 -0.051903,0.032612 -0.076172,0.050781 -0.077041,0.057678 -0.1454475,0.126084 -0.203125,0.203125 -0.018169,0.024269 -0.034832,0.05028 -0.050781,0.076172 C 4.0546916,4.6307052 4,4.8087776 4,5 c 0,0.1912224 0.054692,0.3692948 0.1484375,0.5214844 0.015949,0.025892 0.032612,0.051903 0.050781,0.076172 0.057678,0.077041 0.126084,0.1454475 0.203125,0.203125 0.024269,0.018169 0.05028,0.034832 0.076172,0.050781 C 4.6307052,5.9453084 4.8087776,6 5,6 5.1912224,6 5.3692948,5.9453084 5.5214844,5.8515625 c 0.025892,-0.015949 0.051903,-0.032612 0.076172,-0.050781 0.077041,-0.057678 0.1454475,-0.126084 0.203125,-0.203125 0.018169,-0.024269 0.034832,-0.05028 0.050781,-0.076172 C 5.9453084,5.3692948 6,5.1912224 6,5 6,4.8087776 5.9453084,4.6307052 5.8515625,4.4785156 5.8356136,4.4526238 5.8189507,4.426613 5.8007812,4.4023438 5.7431037,4.3253028 5.6746972,4.2568963 5.5976562,4.1992188 5.573387,4.1810493 5.5473762,4.1643864 5.5214844,4.1484375 5.3692948,4.0546916 5.1912224,4 5,4 Z" />
    <path
       style="color:#000000;fill:#f7812b;stroke-width:0.291667;stroke-linecap:round;stroke-linejoin:round;-inkscape-stroke:none"
       d="M 4.2851562,1 C 2.4833508,1 1,2.4833508 1,4.2851562 V 11.714844 C 1,13.516649 2.4833507,15 4.2851562,15 H 11.714844 C 13.516649,15 15,13.516649 15,11.714844 V 4.2851562 C 15,2.4833507 13.516649,1 11.714844,1 Z m 0,1 H 11.714844 C 12.967164,2 14,3.0328358 14,4.2851562 V 11.714844 C 14,12.967164 12.967164,14 11.714844,14 H 4.2851562 C 3.0328358,14 2,12.967164 2,11.714844 V 4.2851562 C 2,3.0328358 3.0328358,2 4.2851562,2 Z"
       id="path4" />
  </g>
</svg>
