<?xml version="1.0" encoding="UTF-8" standalone="no"?>
<svg
   height="128px"
   viewBox="0 0 128 128"
   width="128px"
   version="1.1"
   id="svg49"
   xmlns="http://www.w3.org/2000/svg"
   xmlns:svg="http://www.w3.org/2000/svg">
  <defs
     id="defs53" />
  <linearGradient
     id="a"
     gradientTransform="matrix(0.196428 0 0 0.342105 2.59702 273.739929)"
     gradientUnits="userSpaceOnUse"
     x1="88.595886"
     x2="536.595886"
     y1="-449.394012"
     y2="-449.394012">
    <stop
       offset="0"
       stop-color="#deddda"
       id="stop2"
       style="stop-color:#d0d0d0;stop-opacity:1" />
    <stop
       offset="0.0454546"
       stop-color="#eeeeec"
       id="stop4"
       style="stop-color:#e5e5e5;stop-opacity:1" />
    <stop
       offset="0.0909091"
       stop-color="#deddda"
       id="stop6"
       style="stop-color:#d0d0d0;stop-opacity:1" />
    <stop
       offset="0.909091"
       stop-color="#deddda"
       id="stop8"
       style="stop-color:#d0d0d0;stop-opacity:1" />
    <stop
       offset="0.954545"
       stop-color="#eeeeec"
       id="stop10"
       style="stop-color:#e5e5e5;stop-opacity:1" />
    <stop
       offset="1"
       stop-color="#c0bfbc"
       id="stop12"
       style="stop-color:#d0d0d0;stop-opacity:1" />
  </linearGradient>
  <linearGradient
     id="b"
     gradientUnits="userSpaceOnUse"
     x1="58.999043"
     x2="69.00042"
     y1="63.999893"
     y2="63.999893">
    <stop
       offset="0"
       stop-color="#9a9996"
       id="stop15"
       style="stop-color:#a5a5a5;stop-opacity:1" />
    <stop
       offset="1"
       stop-color="#77767b"
       id="stop17"
       style="stop-color:#5e5e5e;stop-opacity:1" />
  </linearGradient>
  <linearGradient
     id="c"
     gradientTransform="matrix(1 0 0 0.850001 0 -135.925327)"
     gradientUnits="userSpaceOnUse"
     x1="48.00016"
     x2="80.00016"
     y1="275.499908"
     y2="275.499908">
    <stop
       offset="0"
       stop-color="#e8e7e4"
       id="stop20"
       style="stop-color:#e5e5e5;stop-opacity:1" />
    <stop
       offset="0.511049"
       stop-color="#ffffff"
       id="stop22"
       style="stop-color:#f0f0f2;stop-opacity:1" />
    <stop
       offset="1"
       stop-color="#c2bfba"
       id="stop24"
       style="stop-color:#c2c2c2;stop-opacity:1" />
  </linearGradient>
  <path
     d="m 28 16 h 72 c 4.417969 0 8 3.582031 8 8 v 88 c 0 4.417969 -3.582031 8 -8 8 h -72 c -4.417969 0 -8 -3.582031 -8 -8 v -88 c 0 -4.417969 3.582031 -8 8 -8 z m 0 0"
     fill="url(#a)"
     id="path27" />
  <path
     d="m 28 8 h 72 c 4.417969 0 8 3.582031 8 8 v 92 c 0 4.417969 -3.582031 8 -8 8 h -72 c -4.417969 0 -8 -3.582031 -8 -8 v -92 c 0 -4.417969 3.582031 -8 8 -8 z m 0 0"
     fill="#f6f5f4"
     id="path29"
     style="fill:#f0f0f2" />
  <path
     style="fill:#fecb49;stroke-width:1"
     d="m 44.79435,85.401883 c -0.82613,-0.223695 -1.6675,-0.956272 -2.05994,-1.793584 L 42.52,83.150853 V 63.989171 44.827489 l 0.25869,-0.525475 c 0.31578,-0.641428 0.95942,-1.274776 1.6011,-1.57549 L 44.84,42.510853 H 64 83.16 l 0.46021,0.215671 c 0.64168,0.300714 1.28533,0.934062 1.6011,1.57549 L 85.48,44.827489 v 19.163364 19.163364 l -0.25869,0.525475 c -0.31577,0.641428 -0.95942,1.274776 -1.6011,1.57549 l -0.46021,0.215671 -19,0.01502 c -14.88695,0.01177 -19.07915,-0.0064 -19.36565,-0.08399 z M 82.944,82.934853 c 0.15204,-0.152041 0.13837,-37.769247 -0.0138,-37.895513 -0.12986,-0.107772 -37.70352,-0.09166 -37.87023,0.01623 -0.14341,0.09282 -0.14738,37.735897 -0.004,37.879279 0.13977,0.13977 37.74823,0.13977 37.888,0 z M 51.24,73.10361 c -3.25738,-0.470416 -5.21601,-4.471965 -3.99052,-8.152757 0.58527,-1.757875 2.0403,-3.180213 3.63877,-3.557005 1.31782,-0.310638 2.61172,-0.0272 3.46459,0.758945 l 0.3384,0.31193 0.28835,-0.344959 c 0.36018,-0.430883 0.7273,-0.608911 1.25569,-0.608911 0.70982,0 1.33744,0.453652 1.52682,1.103606 0.0586,0.201024 0.0786,1.727081 0.0621,4.742746 L 57.8,71.803556 57.56,72.189961 c -0.31643,0.509459 -0.72011,0.722238 -1.36,0.716851 -0.60077,-0.0051 -0.93066,-0.172905 -1.26103,-0.64161 l -0.25129,-0.356503 -0.36384,0.352807 c -0.39505,0.383068 -0.8236,0.626877 -1.32429,0.753403 -0.50342,0.127218 -1.23683,0.16419 -1.75955,0.0887 z m 1.81545,-3.206839 c 0.47259,-0.14159 0.96323,-0.620168 1.23154,-1.20126 C 54.505,68.223348 54.52,68.126462 54.52,67.190853 c 0,-1.142258 -0.10421,-1.47566 -0.65099,-2.08261 -0.40242,-0.446715 -0.88129,-0.656437 -1.51243,-0.662375 -1.18496,-0.01115 -2.01223,0.835854 -2.18791,2.240092 -0.12518,1.000657 0.13255,2.014486 0.67527,2.656325 0.47055,0.556474 1.41473,0.793208 2.21151,0.554486 z m 11.45144,3.21033 C 63.89536,73.026441 63.25494,72.7298 62.76915,72.302195 l -0.37101,-0.326577 -0.35363,0.393325 c -0.79286,0.881844 -2.07992,0.730182 -2.60929,-0.307468 -0.154,-0.301857 -0.15726,-0.47839 -0.1365,-7.383074 l 0.0213,-7.073823 0.24,-0.339738 c 0.31719,-0.449009 0.73753,-0.660767 1.31058,-0.660241 0.49779,4.8e-4 0.81762,0.134267 1.14518,0.479112 0.43661,0.459652 0.46424,0.63492 0.46424,2.944572 0,1.167414 0.0144,2.12257 0.032,2.12257 0.0176,0 0.21423,-0.12266 0.43701,-0.272577 0.66323,-0.446322 1.12316,-0.566306 2.17103,-0.566365 0.74949,-4.2e-5 1.01798,0.03373 1.44868,0.182203 0.91449,0.315249 1.7679,0.937565 2.35284,1.715713 1.62738,2.164888 1.72867,5.428451 0.23773,7.659413 -1.10762,1.657383 -2.81754,2.479879 -4.65236,2.237861 z m 1.18398,-3.339783 c 1.77491,-0.924547 1.65991,-4.424023 -0.17087,-5.199279 -0.154,-0.06521 -0.5187,-0.119052 -0.81044,-0.119642 -0.93714,-0.0019 -1.63008,0.501972 -2.0025,1.456108 -0.25703,0.65852 -0.25333,1.939431 0.007,2.599853 0.22181,0.561579 0.72047,1.13357 1.16542,1.336814 0.51046,0.233164 1.28186,0.201703 1.81087,-0.07385 z m 9.87903,3.334057 c -2.1237,-0.278025 -3.82363,-1.812699 -4.46453,-4.030522 -0.15771,-0.545774 -0.18497,-0.822562 -0.18516,-1.88 -1.6e-4,-1.076842 0.0245,-1.318948 0.18723,-1.84 0.33066,-1.058426 0.77407,-1.810403 1.48815,-2.52375 1.26861,-1.267314 2.77774,-1.740556 4.7232,-1.481138 1.3503,0.180058 2.27936,0.620218 2.65229,1.25658 0.18155,0.30979 0.20269,0.421972 0.17665,0.937536 -0.0248,0.491441 -0.0655,0.632711 -0.25278,0.87829 -0.45836,0.600937 -0.9257,0.666466 -2.02215,0.283543 -2.07179,-0.723553 -3.55521,0.139053 -3.7573,2.184871 -0.062,0.627343 0.12003,1.545868 0.40145,2.026086 0.27183,0.463828 0.77197,0.877288 1.20937,0.999751 0.534,0.149511 1.46159,0.05458 2.30869,-0.23627 0.39325,-0.135025 0.80181,-0.245499 0.90791,-0.245499 0.63158,0 1.21708,0.68483 1.21708,1.423572 0,0.237736 -0.0587,0.555877 -0.13037,0.706979 -0.48523,1.022551 -2.66435,1.775014 -4.45973,1.539971 z M 79.4,61.160087 c -0.132,-0.06227 -0.95927,-0.836432 -1.83838,-1.720356 l -1.59838,-1.607134 -1.60162,1.593938 c -0.88089,0.876667 -1.70296,1.632275 -1.82683,1.679128 -0.93589,0.354021 -1.87697,-0.434249 -1.69654,-1.421064 0.0458,-0.2505 0.37841,-0.61961 2.25924,-2.507148 1.91354,-1.920371 2.24976,-2.224538 2.53962,-2.297526 0.68247,-0.171847 0.76058,-0.116067 3.10182,2.215114 1.17642,1.171356 2.19342,2.244548 2.26,2.384868 0.26139,0.550831 0.0818,1.17874 -0.44979,1.572387 C 80.2775,61.253453 79.71063,61.306628 79.4,61.160087 Z M 48.74197,59.538526 c -0.45241,-0.160194 -1.05603,-0.716492 -1.3364,-1.23163 -0.42152,-0.774473 -0.2531,-1.632719 0.46042,-2.34624 0.96618,-0.966181 2.04234,-0.977196 3.00857,-0.03079 0.93913,0.91986 0.95168,2.044268 0.0334,2.98915 -0.64805,0.666794 -1.41384,0.88583 -2.16595,0.619513 z m 6.51727,0.01798 c -0.52533,-0.187457 -1.10739,-0.721357 -1.40163,-1.285653 -0.41165,-0.789462 -0.19626,-1.723154 0.55383,-2.400819 0.94175,-0.850812 1.91174,-0.863182 2.8169,-0.03592 1.0719,0.979662 1.1171,2.11541 0.12372,3.108795 -0.64204,0.642033 -1.39471,0.862712 -2.09282,0.6136 z"
     id="path952" />
</svg>
