<?xml version="1.0" encoding="UTF-8" standalone="no"?>
<svg
   height="128px"
   viewBox="0 0 128 128"
   width="128px"
   version="1.1"
   id="svg49"
   xmlns="http://www.w3.org/2000/svg"
   xmlns:svg="http://www.w3.org/2000/svg">
  <defs
     id="defs53" />
  <linearGradient
     id="a"
     gradientTransform="matrix(0.196428 0 0 0.342105 2.59702 273.739929)"
     gradientUnits="userSpaceOnUse"
     x1="88.595886"
     x2="536.595886"
     y1="-449.394012"
     y2="-449.394012">
    <stop
       offset="0"
       stop-color="#deddda"
       id="stop2"
       style="stop-color:#d0d0d0;stop-opacity:1" />
    <stop
       offset="0.0454546"
       stop-color="#eeeeec"
       id="stop4"
       style="stop-color:#e5e5e5;stop-opacity:1" />
    <stop
       offset="0.0909091"
       stop-color="#deddda"
       id="stop6"
       style="stop-color:#d0d0d0;stop-opacity:1" />
    <stop
       offset="0.909091"
       stop-color="#deddda"
       id="stop8"
       style="stop-color:#d0d0d0;stop-opacity:1" />
    <stop
       offset="0.954545"
       stop-color="#eeeeec"
       id="stop10"
       style="stop-color:#e5e5e5;stop-opacity:1" />
    <stop
       offset="1"
       stop-color="#c0bfbc"
       id="stop12"
       style="stop-color:#d0d0d0;stop-opacity:1" />
  </linearGradient>
  <linearGradient
     id="b"
     gradientUnits="userSpaceOnUse"
     x1="58.999043"
     x2="69.00042"
     y1="63.999893"
     y2="63.999893">
    <stop
       offset="0"
       stop-color="#9a9996"
       id="stop15"
       style="stop-color:#a5a5a5;stop-opacity:1" />
    <stop
       offset="1"
       stop-color="#77767b"
       id="stop17"
       style="stop-color:#5e5e5e;stop-opacity:1" />
  </linearGradient>
  <linearGradient
     id="c"
     gradientTransform="matrix(1 0 0 0.850001 0 -135.925327)"
     gradientUnits="userSpaceOnUse"
     x1="48.00016"
     x2="80.00016"
     y1="275.499908"
     y2="275.499908">
    <stop
       offset="0"
       stop-color="#e8e7e4"
       id="stop20"
       style="stop-color:#e5e5e5;stop-opacity:1" />
    <stop
       offset="0.511049"
       stop-color="#ffffff"
       id="stop22"
       style="stop-color:#f0f0f2;stop-opacity:1" />
    <stop
       offset="1"
       stop-color="#c2bfba"
       id="stop24"
       style="stop-color:#c2c2c2;stop-opacity:1" />
  </linearGradient>
  <path
     d="m 28 16 h 72 c 4.417969 0 8 3.582031 8 8 v 88 c 0 4.417969 -3.582031 8 -8 8 h -72 c -4.417969 0 -8 -3.582031 -8 -8 v -88 c 0 -4.417969 3.582031 -8 8 -8 z m 0 0"
     fill="url(#a)"
     id="path27" />
  <path
     d="m 28 8 h 72 c 4.417969 0 8 3.582031 8 8 v 92 c 0 4.417969 -3.582031 8 -8 8 h -72 c -4.417969 0 -8 -3.582031 -8 -8 v -92 c 0 -4.417969 3.582031 -8 8 -8 z m 0 0"
     fill="#f6f5f4"
     id="path29"
     style="fill:#f0f0f2" />
  <g
     clip-path="url(#d)"
     mask="url(#b-6)"
     transform="translate(-210,21)"
     id="g22">
    <path
       d="M 37.671875,36.503906 V 122.50391 H 105.67188 V 36.503906 Z m 0,0"
       fill="url(#c)"
       id="path20"
       style="fill:url(#c-7)" />
  </g>
  <path
     id="path2179"
     style="fill:#268ef9;stroke-width:1"
     d="m 60.84652,40.052026 c -5.841316,0 -9.14242,-0.117058 -5.841316,0 -3.301104,-0.117052 5.993497,0 5.993497,0 h -5.993497 l -2.575333,0.05874 c -2.522429,-0.0887 -5.059087,-0.02218 -7.585514,-0.04675 -1.812571,0.05334 -1.899471,1.978178 -1.802736,3.277694 0.02338,2.898245 -0.04016,5.801537 0.03536,8.697595 h 2.937976 5.993497 1.814435 1.182313 v 0 h 2.458269 14.480384 c 0.009,-0.567285 -0.08151,-1.168834 -0.02338,-1.673966 v -2.634142 c 3.574576,-0.254472 7.353715,2.347389 10.406677,4.307826 2.645529,0 2.645529,0 2.645529,0 C 85.288725,40.052026 79.142934,40.969169 74.36701,40.309561 70.731181,39.85933 67.045774,40.142702 63.386738,40.063708 c -0.844915,0.02906 -1.68998,-0.01168 -2.540218,-0.01168 z M 60.998701,58.032517 61.092381,88 H 66.9922 V 58.032517 Z" />
</svg>
