<svg xmlns="http://www.w3.org/2000/svg" xmlns:svg="http://www.w3.org/2000/svg" id="svg49" width="128" height="128" version="1.1" viewBox="0 0 128 128"><linearGradient id="a" x1="88.596" x2="536.596" y1="-449.394" y2="-449.394" gradientTransform="matrix(0.196428 0 0 0.342105 2.59702 273.739929)" gradientUnits="userSpaceOnUse"><stop id="stop2" offset="0" stop-color="#deddda" style="stop-color:#d0d0d0;stop-opacity:1"/><stop id="stop4" offset=".045" stop-color="#eeeeec" style="stop-color:#e5e5e5;stop-opacity:1"/><stop id="stop6" offset=".091" stop-color="#deddda" style="stop-color:#d0d0d0;stop-opacity:1"/><stop id="stop8" offset=".909" stop-color="#deddda" style="stop-color:#d0d0d0;stop-opacity:1"/><stop id="stop10" offset=".955" stop-color="#eeeeec" style="stop-color:#e5e5e5;stop-opacity:1"/><stop id="stop12" offset="1" stop-color="#c0bfbc" style="stop-color:#d0d0d0;stop-opacity:1"/></linearGradient><linearGradient id="b" x1="58.999" x2="69" y1="64" y2="64" gradientUnits="userSpaceOnUse"><stop id="stop15" offset="0" stop-color="#9a9996" style="stop-color:#a5a5a5;stop-opacity:1"/><stop id="stop17" offset="1" stop-color="#77767b" style="stop-color:#5e5e5e;stop-opacity:1"/></linearGradient><linearGradient id="c" x1="48" x2="80" y1="275.5" y2="275.5" gradientTransform="matrix(1 0 0 0.850001 0 -135.925327)" gradientUnits="userSpaceOnUse"><stop id="stop20" offset="0" stop-color="#e8e7e4" style="stop-color:#e5e5e5;stop-opacity:1"/><stop id="stop22" offset=".511" stop-color="#fff" style="stop-color:#f0f0f2;stop-opacity:1"/><stop id="stop24" offset="1" stop-color="#c2bfba" style="stop-color:#c2c2c2;stop-opacity:1"/></linearGradient><path id="path27" fill="url(#a)" d="m 28 16 h 72 c 4.417969 0 8 3.582031 8 8 v 88 c 0 4.417969 -3.582031 8 -8 8 h -72 c -4.417969 0 -8 -3.582031 -8 -8 v -88 c 0 -4.417969 3.582031 -8 8 -8 z m 0 0"/><path id="path29" fill="#f6f5f4" d="m 28 8 h 72 c 4.417969 0 8 3.582031 8 8 v 92 c 0 4.417969 -3.582031 8 -8 8 h -72 c -4.417969 0 -8 -3.582031 -8 -8 v -92 c 0 -4.417969 3.582031 -8 8 -8 z m 0 0" style="fill:#f0f0f2"/><g id="g22" clip-path="url(#d)" mask="url(#b-6)" transform="translate(-210,21)"><path id="path20" fill="url(#c)" d="M 37.671875,36.503906 V 122.50391 H 105.67188 V 36.503906 Z m 0,0" style="fill:url(#c-7)"/></g><path id="path1948" style="color:#000;clip-rule:nonzero;display:inline;overflow:visible;visibility:visible;isolation:auto;mix-blend-mode:normal;color-interpolation:sRGB;color-interpolation-filters:linearRGB;solid-color:#000;solid-opacity:1;fill:#268ef9;fill-opacity:1;fill-rule:nonzero;stroke:none;stroke-width:.999998;stroke-linecap:butt;stroke-linejoin:miter;stroke-miterlimit:4;stroke-dasharray:none;stroke-dashoffset:0;stroke-opacity:1;marker:none;color-rendering:auto;image-rendering:auto;shape-rendering:auto;text-rendering:auto;enable-background:accumulate" d="m 63.655007,40.000394 c -1.974306,0.0092 -3.859716,0.176599 -5.518692,0.468576 -4.887123,0.858754 -5.774429,2.656201 -5.774429,5.970998 v 4.377838 h 11.548866 v 1.459279 H 52.361886 48.027693 c -3.356418,0 -6.295399,2.006564 -7.21468,5.823732 -1.060372,4.375361 -1.107405,7.105657 0,11.674237 0.82094,3.400675 2.781445,5.823729 6.137863,5.823731 h 3.970767 v -5.248052 c 0,-3.791408 3.298138,-7.135743 7.214672,-7.135744 h 11.535403 c 3.211052,0 5.774437,-2.629665 5.774437,-5.837118 V 46.439968 c 0,-3.112989 -2.640348,-5.451453 -5.774437,-5.970998 -1.983921,-0.328475 -4.042411,-0.4777 -6.016711,-0.468576 z m -6.245545,3.521014 c 1.192918,0 2.167097,0.984769 2.167097,2.195614 0,1.206551 -0.974179,2.182224 -2.167097,2.182224 -1.197193,0 -2.167096,-0.975673 -2.167096,-2.182224 0,-1.210845 0.969903,-2.195614 2.167096,-2.195614 z"/><path id="path1950-4-1" style="color:#000;clip-rule:nonzero;display:inline;overflow:visible;visibility:visible;isolation:auto;mix-blend-mode:normal;color-interpolation:sRGB;color-interpolation-filters:linearRGB;solid-color:#000;solid-opacity:1;fill:#fecb49;fill-opacity:1;fill-rule:nonzero;stroke:none;stroke-width:.999998;stroke-linecap:butt;stroke-linejoin:miter;stroke-miterlimit:4;stroke-dasharray:none;stroke-dashoffset:0;stroke-opacity:1;marker:none;color-rendering:auto;image-rendering:auto;shape-rendering:auto;text-rendering:auto;enable-background:accumulate" d="m 77.028537,52.401216 v 5.061982 c 0,3.92447 -3.36398,7.227581 -7.200021,7.227581 H 58.316552 c -3.153327,0 -5.762703,2.669315 -5.762703,5.792694 v 10.854678 c 0,3.089305 2.716046,4.90639 5.762703,5.792695 3.648294,1.061017 7.146814,1.252768 11.511964,0 2.90157,-0.830913 5.762702,-2.503136 5.762702,-5.792695 V 76.993619 H 64.079253 v -1.448163 h 11.511965 5.762702 c 3.34961,0 4.597802,-2.310879 5.762696,-5.779418 1.2033,-3.570806 1.15211,-7.004721 0,-11.585404 -0.827794,-3.298092 -2.408833,-5.779418 -5.762696,-5.779418 z m -6.474638,27.488758 c 1.194757,0 2.162688,0.968252 2.162688,2.165628 0,1.201626 -0.967931,2.178904 -2.162688,2.178904 -1.190503,0 -2.162695,-0.977278 -2.162695,-2.178904 0,-1.197376 0.972192,-2.165628 2.162695,-2.165628 z"/></svg>