<svg xmlns="http://www.w3.org/2000/svg" xmlns:svg="http://www.w3.org/2000/svg" id="svg49" width="128" height="128" version="1.1" viewBox="0 0 128 128" xml:space="preserve"><linearGradient id="a" x1="88.596" x2="536.596" y1="-449.394" y2="-449.394" gradientTransform="matrix(0.196428 0 0 0.342105 2.59702 273.739929)" gradientUnits="userSpaceOnUse"><stop id="stop2" offset="0" stop-color="#deddda" style="stop-color:#d0d0d0;stop-opacity:1"/><stop id="stop4" offset=".045" stop-color="#eeeeec" style="stop-color:#e5e5e5;stop-opacity:1"/><stop id="stop6" offset=".091" stop-color="#deddda" style="stop-color:#d0d0d0;stop-opacity:1"/><stop id="stop8" offset=".909" stop-color="#deddda" style="stop-color:#d0d0d0;stop-opacity:1"/><stop id="stop10" offset=".955" stop-color="#eeeeec" style="stop-color:#e5e5e5;stop-opacity:1"/><stop id="stop12" offset="1" stop-color="#c0bfbc" style="stop-color:#d0d0d0;stop-opacity:1"/></linearGradient><linearGradient id="b" x1="58.999" x2="69" y1="64" y2="64" gradientUnits="userSpaceOnUse"><stop id="stop15" offset="0" stop-color="#9a9996" style="stop-color:#a5a5a5;stop-opacity:1"/><stop id="stop17" offset="1" stop-color="#77767b" style="stop-color:#5e5e5e;stop-opacity:1"/></linearGradient><linearGradient id="c" x1="48" x2="80" y1="275.5" y2="275.5" gradientTransform="matrix(1 0 0 0.850001 0 -135.925327)" gradientUnits="userSpaceOnUse"><stop id="stop20" offset="0" stop-color="#e8e7e4" style="stop-color:#e5e5e5;stop-opacity:1"/><stop id="stop22" offset=".511" stop-color="#fff" style="stop-color:#f0f0f2;stop-opacity:1"/><stop id="stop24" offset="1" stop-color="#c2bfba" style="stop-color:#c2c2c2;stop-opacity:1"/></linearGradient><path id="path27" fill="url(#a)" d="m 28 16 h 72 c 4.417969 0 8 3.582031 8 8 v 88 c 0 4.417969 -3.582031 8 -8 8 h -72 c -4.417969 0 -8 -3.582031 -8 -8 v -88 c 0 -4.417969 3.582031 -8 8 -8 z m 0 0"/><path id="path29" fill="#f6f5f4" d="m 28 8 h 72 c 4.417969 0 8 3.582031 8 8 v 92 c 0 4.417969 -3.582031 8 -8 8 h -72 c -4.417969 0 -8 -3.582031 -8 -8 v -92 c 0 -4.417969 3.582031 -8 8 -8 z m 0 0" style="fill:#f0f0f2"/><g id="g22" clip-path="url(#d)" mask="url(#b-6)" transform="translate(-210,21)"><path id="path20" fill="url(#c)" d="M 37.671875,36.503906 V 122.50391 H 105.67188 V 36.503906 Z m 0,0" style="fill:url(#c-7)"/></g><path id="rect10353" style="fill:#f6d32d;fill-opacity:1;stroke-width:1;stroke-linecap:round;stroke-linejoin:round;stop-color:#000" d="m 32.533332,31.999999 c -0.295466,0 -0.533333,0.312201 -0.533333,0.7 v 62.600002 c 0,0.3878 0.237867,0.7 0.533333,0.7 h 62.933336 c 0.295466,0 0.533333,-0.3122 0.533333,-0.7 V 32.699999 c 0,-0.387799 -0.237867,-0.7 -0.533333,-0.7 z m 17.600001,16.533334 h 27.733334 c 0.295467,0 0.533334,0.3122 0.533334,0.7 v 29.533334 c 0,0.3878 -0.237867,0.7 -0.533334,0.7 H 50.133333 c -0.295467,0 -0.533333,-0.3122 -0.533333,-0.7 V 49.233333 c 0,-0.3878 0.237866,-0.7 0.533333,-0.7 z"/></svg>