<svg xmlns="http://www.w3.org/2000/svg" xmlns:svg="http://www.w3.org/2000/svg" id="svg49" width="128" height="128" version="1.1" viewBox="0 0 128 128"><linearGradient id="a" x1="88.596" x2="536.596" y1="-449.394" y2="-449.394" gradientTransform="matrix(0.196428 0 0 0.342105 2.59702 273.739929)" gradientUnits="userSpaceOnUse"><stop id="stop2" offset="0" stop-color="#deddda" style="stop-color:#d0d0d0;stop-opacity:1"/><stop id="stop4" offset=".045" stop-color="#eeeeec" style="stop-color:#e5e5e5;stop-opacity:1"/><stop id="stop6" offset=".091" stop-color="#deddda" style="stop-color:#d0d0d0;stop-opacity:1"/><stop id="stop8" offset=".909" stop-color="#deddda" style="stop-color:#d0d0d0;stop-opacity:1"/><stop id="stop10" offset=".955" stop-color="#eeeeec" style="stop-color:#e5e5e5;stop-opacity:1"/><stop id="stop12" offset="1" stop-color="#c0bfbc" style="stop-color:#d0d0d0;stop-opacity:1"/></linearGradient><linearGradient id="b" x1="58.999" x2="69" y1="64" y2="64" gradientUnits="userSpaceOnUse"><stop id="stop15" offset="0" stop-color="#9a9996" style="stop-color:#a5a5a5;stop-opacity:1"/><stop id="stop17" offset="1" stop-color="#77767b" style="stop-color:#5e5e5e;stop-opacity:1"/></linearGradient><linearGradient id="c" x1="48" x2="80" y1="275.5" y2="275.5" gradientTransform="matrix(1 0 0 0.850001 0 -135.925327)" gradientUnits="userSpaceOnUse"><stop id="stop20" offset="0" stop-color="#e8e7e4" style="stop-color:#e5e5e5;stop-opacity:1"/><stop id="stop22" offset=".511" stop-color="#fff" style="stop-color:#f0f0f2;stop-opacity:1"/><stop id="stop24" offset="1" stop-color="#c2bfba" style="stop-color:#c2c2c2;stop-opacity:1"/></linearGradient><path id="path27" fill="url(#a)" d="m 28 16 h 72 c 4.417969 0 8 3.582031 8 8 v 88 c 0 4.417969 -3.582031 8 -8 8 h -72 c -4.417969 0 -8 -3.582031 -8 -8 v -88 c 0 -4.417969 3.582031 -8 8 -8 z m 0 0"/><path id="path29" fill="#f6f5f4" d="m 28 8 h 72 c 4.417969 0 8 3.582031 8 8 v 92 c 0 4.417969 -3.582031 8 -8 8 h -72 c -4.417969 0 -8 -3.582031 -8 -8 v -92 c 0 -4.417969 3.582031 -8 8 -8 z m 0 0" style="fill:#f0f0f2"/><g id="text2224" aria-label="i" transform="matrix(1.5337423,0,0,1.5337423,-29.889569,-27.54601)" style="font-size:48px;fill:#474747;stroke-width:.652"><path style="-inkscape-font-specification:'Caladea Italic';stroke-width:.652" id="path7898" d="m 62.488,49.608 c 1.68,0 2.88,-1.44 2.88,-3.264 0,-1.344 -0.768,-2.304 -2.208,-2.304 -1.68,0 -2.88,1.488 -2.88,3.312 0,1.344 0.864,2.256 2.208,2.256 z m -2.352,25.728 c 2.016,0 4.56,-1.776 5.616,-2.688 l -0.48,-1.536 c -0.24,0.144 -1.632,0.912 -2.448,0.912 -0.768,0 -0.912,-0.288 -0.912,-1.056 0,-0.96 2.592,-16.608 2.784,-17.76 L 64.12,52.296 c -0.384,-0.096 -0.864,-0.144 -1.296,-0.144 -2.304,0 -5.232,1.056 -6.144,1.488 l 0.24,1.536 c 0.576,-0.048 1.056,-0.096 1.488,-0.096 1.008,0 1.584,0.384 1.584,1.296 0,0.768 -2.448,15.072 -2.448,16.464 0,1.776 0.72,2.496 2.592,2.496 z"/></g></svg>