<?xml version="1.0" encoding="UTF-8" standalone="no"?>
<svg
   height="128px"
   viewBox="0 0 128 128"
   width="128px"
   version="1.1"
   id="svg49"
   xmlns="http://www.w3.org/2000/svg"
   xmlns:svg="http://www.w3.org/2000/svg">
  <defs
     id="defs53" />
  <linearGradient
     id="a"
     gradientTransform="matrix(0.196428 0 0 0.342105 2.59702 273.739929)"
     gradientUnits="userSpaceOnUse"
     x1="88.595886"
     x2="536.595886"
     y1="-449.394012"
     y2="-449.394012">
    <stop
       offset="0"
       stop-color="#deddda"
       id="stop2"
       style="stop-color:#d0d0d0;stop-opacity:1" />
    <stop
       offset="0.0454546"
       stop-color="#eeeeec"
       id="stop4"
       style="stop-color:#e5e5e5;stop-opacity:1" />
    <stop
       offset="0.0909091"
       stop-color="#deddda"
       id="stop6"
       style="stop-color:#d0d0d0;stop-opacity:1" />
    <stop
       offset="0.909091"
       stop-color="#deddda"
       id="stop8"
       style="stop-color:#d0d0d0;stop-opacity:1" />
    <stop
       offset="0.954545"
       stop-color="#eeeeec"
       id="stop10"
       style="stop-color:#e5e5e5;stop-opacity:1" />
    <stop
       offset="1"
       stop-color="#c0bfbc"
       id="stop12"
       style="stop-color:#d0d0d0;stop-opacity:1" />
  </linearGradient>
  <linearGradient
     id="b"
     gradientUnits="userSpaceOnUse"
     x1="58.999043"
     x2="69.00042"
     y1="63.999893"
     y2="63.999893">
    <stop
       offset="0"
       stop-color="#9a9996"
       id="stop15"
       style="stop-color:#a5a5a5;stop-opacity:1" />
    <stop
       offset="1"
       stop-color="#77767b"
       id="stop17"
       style="stop-color:#5e5e5e;stop-opacity:1" />
  </linearGradient>
  <linearGradient
     id="c"
     gradientTransform="matrix(1 0 0 0.850001 0 -135.925327)"
     gradientUnits="userSpaceOnUse"
     x1="48.00016"
     x2="80.00016"
     y1="275.499908"
     y2="275.499908">
    <stop
       offset="0"
       stop-color="#e8e7e4"
       id="stop20"
       style="stop-color:#e5e5e5;stop-opacity:1" />
    <stop
       offset="0.511049"
       stop-color="#ffffff"
       id="stop22"
       style="stop-color:#f0f0f2;stop-opacity:1" />
    <stop
       offset="1"
       stop-color="#c2bfba"
       id="stop24"
       style="stop-color:#c2c2c2;stop-opacity:1" />
  </linearGradient>
  <path
     d="m 28 16 h 72 c 4.417969 0 8 3.582031 8 8 v 88 c 0 4.417969 -3.582031 8 -8 8 h -72 c -4.417969 0 -8 -3.582031 -8 -8 v -88 c 0 -4.417969 3.582031 -8 8 -8 z m 0 0"
     fill="url(#a)"
     id="path27" />
  <path
     d="m 28 8 h 72 c 4.417969 0 8 3.582031 8 8 v 92 c 0 4.417969 -3.582031 8 -8 8 h -72 c -4.417969 0 -8 -3.582031 -8 -8 v -92 c 0 -4.417969 3.582031 -8 8 -8 z m 0 0"
     fill="#f6f5f4"
     id="path29"
     style="fill:#f0f0f2" />
  <path
     style="fill:#00acd7;stroke-width:1"
     d="m 62.965585,55.035662 c -0.53571,0.01245 -1.07898,0.06994 -1.62817,0.169338 -2.6876,0.490782 -4.88442,1.869805 -6.54373,4.043267 -1.54245,2.009854 -2.2903,4.299883 -1.98649,6.847254 0.25708,2.150078 1.23846,3.879765 2.96788,5.188516 1.86962,1.402221 3.99642,1.846161 6.28673,1.542344 2.78107,-0.373929 4.97789,-1.752778 6.66057,-3.972975 0.38208,-0.503648 0.7087,-1.033297 0.98229,-1.586169 0.39364,1.42388 1.18501,2.647929 2.33612,3.642958 1.63593,1.402227 3.57576,2.009588 5.70248,2.056323 0.60763,-0.07011 1.23862,-0.09354 1.86962,-0.210428 2.17344,-0.444041 4.06645,-1.425318 5.6089,-2.991132 2.17345,-2.196819 3.08489,-4.767674 2.6876,-7.922673 -0.30381,-2.243553 -1.44887,-3.94977 -3.29514,-5.211787 -2.03323,-1.37885 -4.27678,-1.612462 -6.66057,-1.191792 -2.78107,0.490775 -4.83766,1.659569 -6.54372,3.903123 -0.73094,0.956688 -1.27667,1.968159 -1.61447,3.038166 h -7.52327 c -0.35055,0 -0.51414,0.233612 -0.58425,0.373822 -0.3272,0.607635 -0.88844,1.822997 -1.19226,2.547477 -0.16365,0.397293 -0.0467,0.701104 0.44413,0.701104 h 4.51067 c -0.2337,0.327194 -0.42093,0.607455 -0.63127,0.864531 -1.05168,1.191885 -2.38379,1.752692 -3.97298,1.54235 -1.84627,-0.257063 -3.13164,-1.79934 -3.155,-3.668965 -0.0234,-1.893001 0.79486,-3.412081 2.38405,-4.440372 1.33211,-0.864711 2.75763,-1.075053 4.22997,-0.350572 0.49077,0.233719 0.74766,0.490516 1.09821,0.887802 0.30381,0.350571 0.32728,0.327194 0.67783,0.233719 1.44898,-0.373929 2.45409,-0.65401 3.92641,-1.027939 0.28046,-0.07012 0.37393,-0.187231 0.23372,-0.397572 -0.58427,-1.355473 -1.47224,-2.477173 -2.71088,-3.295122 -1.41975,-0.964044 -2.95791,-1.349648 -4.56498,-1.314596 z m 16.32734,4.50064 c 1.90015,-0.0623 3.57429,1.19307 3.94239,3.217535 0.0467,0.233699 0.0469,0.467138 0.0703,0.770949 -0.1168,2.009855 -1.12206,3.50593 -2.96832,4.464109 -1.23864,0.631005 -2.52373,0.70103 -3.8091,0.140051 -1.68268,-0.747858 -2.57104,-2.594199 -2.15037,-4.417102 0.51415,-2.19682 1.91638,-3.575756 4.08982,-4.066537 0.27753,-0.06423 0.55383,-0.100292 0.82527,-0.109165 z m -34.99264,0.0625 c -0.0935,0 -0.21025,0.04666 -0.25699,0.116793 l -0.49113,0.630812 c -0.0467,0.07012 -0.0232,0.1168 0.0703,0.1168 l 8.4599,0.02323 c 0.0701,0 0.18697,-0.06993 0.23371,-0.14005 l 0.39757,-0.607541 c 0.0467,-0.07011 0.0232,-0.140051 -0.0703,-0.140051 z m -3.52884,2.149885 c -0.0935,0 -0.2107,0.04666 -0.25745,0.1168 l -0.49069,0.631271 c -0.0467,0.07011 -0.0232,0.116799 0.0703,0.116799 l 11.05394,-0.02376 c 0.0935,0 0.18706,-0.04666 0.21041,-0.140223 l 0.18716,-0.560987 c 0.0234,-0.07011 -0.0234,-0.14005 -0.11679,-0.14005 z m 5.46831,2.150351 c -0.0935,0 -0.18696,0.06993 -0.23372,0.14005 l -0.32681,0.584271 c -0.0467,0.07011 -0.0236,0.140223 0.0698,0.140223 l 5.09493,0.02323 c 0.0701,0 0.16348,-0.06994 0.16348,-0.163481 l 0.0471,-0.560986 c 0,-0.09354 -0.0471,-0.163481 -0.14058,-0.163481 z"
     id="path47" />
</svg>
