<svg xmlns="http://www.w3.org/2000/svg" xmlns:svg="http://www.w3.org/2000/svg" id="svg49" width="128" height="128" version="1.1" viewBox="0 0 128 128"><linearGradient id="a" x1="88.596" x2="536.596" y1="-449.394" y2="-449.394" gradientTransform="matrix(0.196428 0 0 0.342105 2.59702 273.739929)" gradientUnits="userSpaceOnUse"><stop id="stop2" offset="0" stop-color="#deddda" style="stop-color:#d0d0d0;stop-opacity:1"/><stop id="stop4" offset=".045" stop-color="#eeeeec" style="stop-color:#e5e5e5;stop-opacity:1"/><stop id="stop6" offset=".091" stop-color="#deddda" style="stop-color:#d0d0d0;stop-opacity:1"/><stop id="stop8" offset=".909" stop-color="#deddda" style="stop-color:#d0d0d0;stop-opacity:1"/><stop id="stop10" offset=".955" stop-color="#eeeeec" style="stop-color:#e5e5e5;stop-opacity:1"/><stop id="stop12" offset="1" stop-color="#c0bfbc" style="stop-color:#d0d0d0;stop-opacity:1"/></linearGradient><linearGradient id="b" x1="58.999" x2="69" y1="64" y2="64" gradientUnits="userSpaceOnUse"><stop id="stop15" offset="0" stop-color="#9a9996" style="stop-color:#a5a5a5;stop-opacity:1"/><stop id="stop17" offset="1" stop-color="#77767b" style="stop-color:#5e5e5e;stop-opacity:1"/></linearGradient><linearGradient id="c" x1="48" x2="80" y1="275.5" y2="275.5" gradientTransform="matrix(1 0 0 0.850001 0 -135.925327)" gradientUnits="userSpaceOnUse"><stop id="stop20" offset="0" stop-color="#e8e7e4" style="stop-color:#e5e5e5;stop-opacity:1"/><stop id="stop22" offset=".511" stop-color="#fff" style="stop-color:#f0f0f2;stop-opacity:1"/><stop id="stop24" offset="1" stop-color="#c2bfba" style="stop-color:#c2c2c2;stop-opacity:1"/></linearGradient><path id="path27" fill="url(#a)" d="m 28 16 h 72 c 4.417969 0 8 3.582031 8 8 v 88 c 0 4.417969 -3.582031 8 -8 8 h -72 c -4.417969 0 -8 -3.582031 -8 -8 v -88 c 0 -4.417969 3.582031 -8 8 -8 z m 0 0"/><path id="path29" fill="#f6f5f4" d="m 28 8 h 72 c 4.417969 0 8 3.582031 8 8 v 92 c 0 4.417969 -3.582031 8 -8 8 h -72 c -4.417969 0 -8 -3.582031 -8 -8 v -92 c 0 -4.417969 3.582031 -8 8 -8 z m 0 0" style="fill:#f0f0f2"/><path style="fill:#bf56a8;stroke-width:1" id="path2309" d="m 61.366156,87.913384 c 0,-0.04764 -0.293234,-0.114001 -0.651628,-0.147466 -2.699315,-0.252051 -6.814393,-1.748908 -9.52595,-3.465054 -4.703355,-2.976762 -8.323709,-7.637939 -10.01517,-12.894457 -0.401859,-1.248851 -0.843386,-3.159905 -0.93702,-4.055695 -0.03578,-0.342285 -0.103982,-0.646395 -0.151566,-0.675802 -0.113165,-0.06994 -0.113055,-5.307217 1.11e-4,-5.307217 0.04764,0 0.114008,-0.293217 0.147478,-0.651591 0.03347,-0.358375 0.18012,-1.190002 0.325897,-1.848061 1.818196,-8.207618 7.711089,-14.824127 15.643108,-17.564 1.590649,-0.54944 4.013042,-1.099949 4.841591,-1.100291 0.197585,-8.3e-5 0.309418,-0.04169 0.272514,-0.101402 -0.0795,-0.128637 5.142324,-0.139899 5.393971,-0.01163 0.09671,0.0493 0.667324,0.166054 1.268021,0.259466 8.54766,1.329191 15.949492,7.630404 18.741044,15.954333 0.502056,1.497044 0.952271,3.393406 1.047355,4.411588 0.03347,0.358374 0.09983,0.651591 0.147475,0.651591 0.04764,0 0.08661,1.184784 0.08661,2.632852 0,1.448068 -0.03898,2.632851 -0.08661,2.632851 -0.04764,0 -0.114008,0.293217 -0.147475,0.651592 -0.264719,2.834662 -1.869979,7.118751 -3.701991,9.879818 -1.882786,2.837588 -4.445127,5.358205 -7.254179,7.136058 -2.711557,1.716146 -6.826633,3.213003 -9.525947,3.465054 -0.358396,0.03347 -0.651629,0.09982 -0.651629,0.147466 0,0.04764 -1.184853,0.08661 -2.633005,0.08661 -1.448152,0 -2.633005,-0.03898 -2.633005,-0.08661 z m -5.721723,-6.03757 c 1.371857,-0.36566 2.762398,-1.224327 3.7699,-2.327931 1.414425,-1.549347 2.072602,-3.314218 2.078305,-5.572879 0.0026,-1.013689 -0.0561,-1.400784 -0.385969,-2.546843 -0.07531,-0.261693 0.154208,-0.3295 1.47472,-0.435651 3.866768,-0.310838 6.92289,1.430971 6.934018,3.951979 0.0025,0.567335 -0.04242,0.739132 -0.304073,1.162702 -0.168854,0.273353 -0.533425,0.668121 -0.810155,0.877263 -0.27673,0.20914 -0.503146,0.437806 -0.503146,0.508147 0,0.432827 1.270433,-0.112153 1.880134,-0.806526 1.23993,-1.412119 1.003964,-3.616906 -0.565064,-5.279805 -0.744425,-0.788962 -1.609399,-1.330351 -2.732841,-1.710491 -0.780118,-0.26397 -0.887128,-0.273877 -2.886179,-0.267202 -1.740171,0.0058 -2.194296,0.03936 -2.80711,0.207361 l -0.731087,0.20043 -0.379507,-0.400472 c -0.469211,-0.495128 -1.462206,-1.343254 -2.510562,-2.144287 -2.375255,-1.814899 -3.632363,-3.042142 -4.192389,-4.0928 -1.517703,-2.847338 0.01875,-6.13589 4.291316,-9.184898 2.675683,-1.909434 6.336337,-3.72662 9.022661,-4.478938 2.135173,-0.597965 2.667871,-0.672645 4.800616,-0.673 2.137784,-3.54e-4 2.693775,0.08948 3.803835,0.614589 0.74601,0.352898 1.121875,0.686467 1.404366,1.246333 0.528247,1.046923 0.395863,2.344468 -0.389884,3.821434 -0.965514,1.814873 -2.499478,3.280313 -4.752502,4.540203 -2.552747,1.427496 -6.263336,2.126004 -8.396148,1.580555 -1.002197,-0.256304 -1.54009,-0.533301 -2.111255,-1.087222 -0.42431,-0.411502 -0.480967,-0.438045 -0.625828,-0.293194 -0.331001,0.330982 0.194147,1.288818 1.082234,1.973932 1.280808,0.98808 2.415894,1.262729 4.92171,1.190877 1.969881,-0.05649 3.004944,-0.234955 4.830293,-0.83286 2.050841,-0.671767 3.524873,-1.53542 4.95903,-2.905553 2.529338,-2.416424 3.784608,-5.404248 3.33767,-7.944398 -0.397579,-2.259616 -2.053852,-3.740806 -5.102182,-4.562832 -0.930457,-0.250911 -1.121978,-0.266279 -3.366418,-0.270123 -2.218948,-0.0038 -2.467159,0.01464 -3.671617,0.272788 -5.576188,1.195126 -12.244606,4.918462 -15.455599,8.629692 -1.653101,1.910636 -2.495001,3.511179 -2.763775,5.254229 -0.134079,0.869525 0.02514,1.637109 0.569513,2.745591 0.874905,1.781528 2.554517,3.390532 6.131066,5.873322 1.826748,1.268105 2.633004,1.870342 2.633004,1.966738 0,0.03782 -0.216463,0.172921 -0.481029,0.300215 -0.907909,0.436831 -2.909217,1.678402 -3.872087,2.402162 -2.371535,1.782614 -3.444629,3.448729 -3.444629,5.348226 0,0.902053 0.202824,1.611151 0.643972,2.251401 0.396345,0.575226 0.812207,0.842827 1.582044,1.018023 0.6994,0.159166 2.271797,0.09796 3.090628,-0.120287 z M 53.71786,79.555037 c -0.58325,-0.254107 -0.708552,-1.026546 -0.343081,-2.114951 0.58311,-1.736556 2.142351,-3.320398 4.754387,-4.829396 1.038218,-0.599788 1.056908,-0.606027 1.145218,-0.38219 0.179801,0.455734 0.195907,2.118616 0.02746,2.835089 -0.477717,2.031914 -2.12021,3.853856 -3.997206,4.433911 -0.744031,0.22993 -1.156735,0.244896 -1.58678,0.05754 z"/><path style="fill:#000;stroke-width:1" id="path2127"/></svg>