<svg xmlns="http://www.w3.org/2000/svg" xmlns:svg="http://www.w3.org/2000/svg" id="svg49" width="128" height="128" version="1.1" viewBox="0 0 128 128"><linearGradient id="a" x1="88.596" x2="536.596" y1="-449.394" y2="-449.394" gradientTransform="matrix(0.196428 0 0 0.342105 2.59702 273.739929)" gradientUnits="userSpaceOnUse"><stop id="stop2" offset="0" stop-color="#deddda" style="stop-color:#d0d0d0;stop-opacity:1"/><stop id="stop4" offset=".045" stop-color="#eeeeec" style="stop-color:#e5e5e5;stop-opacity:1"/><stop id="stop6" offset=".091" stop-color="#deddda" style="stop-color:#d0d0d0;stop-opacity:1"/><stop id="stop8" offset=".909" stop-color="#deddda" style="stop-color:#d0d0d0;stop-opacity:1"/><stop id="stop10" offset=".955" stop-color="#eeeeec" style="stop-color:#e5e5e5;stop-opacity:1"/><stop id="stop12" offset="1" stop-color="#c0bfbc" style="stop-color:#d0d0d0;stop-opacity:1"/></linearGradient><linearGradient id="b" x1="58.999" x2="69" y1="64" y2="64" gradientUnits="userSpaceOnUse"><stop id="stop15" offset="0" stop-color="#9a9996" style="stop-color:#a5a5a5;stop-opacity:1"/><stop id="stop17" offset="1" stop-color="#77767b" style="stop-color:#5e5e5e;stop-opacity:1"/></linearGradient><linearGradient id="c" x1="48" x2="80" y1="275.5" y2="275.5" gradientTransform="matrix(1 0 0 0.850001 0 -135.925327)" gradientUnits="userSpaceOnUse"><stop id="stop20" offset="0" stop-color="#e8e7e4" style="stop-color:#e5e5e5;stop-opacity:1"/><stop id="stop22" offset=".511" stop-color="#fff" style="stop-color:#f0f0f2;stop-opacity:1"/><stop id="stop24" offset="1" stop-color="#c2bfba" style="stop-color:#c2c2c2;stop-opacity:1"/></linearGradient><path id="path27" fill="url(#a)" d="m 28 16 h 72 c 4.417969 0 8 3.582031 8 8 v 88 c 0 4.417969 -3.582031 8 -8 8 h -72 c -4.417969 0 -8 -3.582031 -8 -8 v -88 c 0 -4.417969 3.582031 -8 8 -8 z m 0 0"/><path id="path29" fill="#f6f5f4" d="m 28 8 h 72 c 4.417969 0 8 3.582031 8 8 v 92 c 0 4.417969 -3.582031 8 -8 8 h -72 c -4.417969 0 -8 -3.582031 -8 -8 v -92 c 0 -4.417969 3.582031 -8 8 -8 z m 0 0" style="fill:#f0f0f2"/><path id="path955" style="color:#000;fill:#474747;stroke-width:1;stroke-linecap:round;stroke-linejoin:round;-inkscape-stroke:none" d="m 64,40 a 0.84210526,0.84210526 0 0 0 -0.841797,0.841797 v 7.580078 H 42.947265 a 0.84210526,0.84210526 0 0 0 -0.841797,0.841797 0.84210526,0.84210526 0 0 0 0.841797,0.841797 h 7.251953 l -8.050781,24.154297 a 0.84218947,0.84218947 0 0 0 0.203125,0.861328 c 0,0 2.220869,2.239638 5.591797,3.363281 3.370928,1.123642 8.032398,1.045727 12.441406,-3.363281 a 0.84218947,0.84218947 0 0 0 0.205078,-0.861328 L 52.537109,50.105469 H 63.158203 V 86.316406 H 55.578125 A 0.84210526,0.84210526 0 0 0 54.736328,87.158203 0.84210526,0.84210526 0 0 0 55.578125,88 H 64 72.421875 a 0.84210526,0.84210526 0 0 0 0.841796,-0.841797 0.84210526,0.84210526 0 0 0 -0.841796,-0.841797 H 64.841796 V 50.105469 H 75.46289 l -8.050781,24.154297 a 0.84218947,0.84218947 0 0 0 0.203125,0.861328 c 0,0 2.220868,2.239638 5.591797,3.363281 3.37093,1.123642 8.032398,1.045727 12.441406,-3.363281 a 0.84218947,0.84218947 0 0 0 0.203125,-0.861328 L 77.800781,50.105469 h 7.251953 a 0.84210526,0.84210526 0 0 0 0.841797,-0.841797 0.84210526,0.84210526 0 0 0 -0.841797,-0.841797 H 64.841796 V 40.841797 A 0.84210526,0.84210526 0 0 0 64,40 Z m -12.63086,11.927734 7.435547,22.306641 c -3.862958,3.622032 -7.480463,3.599611 -10.328125,2.650391 -2.527512,-0.842505 -4.080793,-2.211788 -4.546875,-2.640625 z m 25.261719,0 7.4375,22.306641 c -3.862956,3.622032 -7.480464,3.599611 -10.328125,2.650391 -2.527513,-0.842505 -4.080793,-2.211788 -4.546875,-2.640625 z"/></svg>