<svg xmlns="http://www.w3.org/2000/svg" xmlns:svg="http://www.w3.org/2000/svg" id="svg49" width="128" height="128" version="1.1" viewBox="0 0 128 128"><linearGradient id="a" x1="88.596" x2="536.596" y1="-449.394" y2="-449.394" gradientTransform="matrix(0.196428 0 0 0.342105 2.59702 273.739929)" gradientUnits="userSpaceOnUse"><stop id="stop2" offset="0" stop-color="#deddda" style="stop-color:#d0d0d0;stop-opacity:1"/><stop id="stop4" offset=".045" stop-color="#eeeeec" style="stop-color:#e5e5e5;stop-opacity:1"/><stop id="stop6" offset=".091" stop-color="#deddda" style="stop-color:#d0d0d0;stop-opacity:1"/><stop id="stop8" offset=".909" stop-color="#deddda" style="stop-color:#d0d0d0;stop-opacity:1"/><stop id="stop10" offset=".955" stop-color="#eeeeec" style="stop-color:#e5e5e5;stop-opacity:1"/><stop id="stop12" offset="1" stop-color="#c0bfbc" style="stop-color:#d0d0d0;stop-opacity:1"/></linearGradient><linearGradient id="b" x1="58.999" x2="69" y1="64" y2="64" gradientUnits="userSpaceOnUse"><stop id="stop15" offset="0" stop-color="#9a9996" style="stop-color:#a5a5a5;stop-opacity:1"/><stop id="stop17" offset="1" stop-color="#77767b" style="stop-color:#5e5e5e;stop-opacity:1"/></linearGradient><linearGradient id="c" x1="48" x2="80" y1="275.5" y2="275.5" gradientTransform="matrix(1 0 0 0.850001 0 -135.925327)" gradientUnits="userSpaceOnUse"><stop id="stop20" offset="0" stop-color="#e8e7e4" style="stop-color:#e5e5e5;stop-opacity:1"/><stop id="stop22" offset=".511" stop-color="#fff" style="stop-color:#f0f0f2;stop-opacity:1"/><stop id="stop24" offset="1" stop-color="#c2bfba" style="stop-color:#c2c2c2;stop-opacity:1"/></linearGradient><path id="path27" fill="url(#a)" d="m 28 16 h 72 c 4.417969 0 8 3.582031 8 8 v 88 c 0 4.417969 -3.582031 8 -8 8 h -72 c -4.417969 0 -8 -3.582031 -8 -8 v -88 c 0 -4.417969 3.582031 -8 8 -8 z m 0 0"/><path id="path29" fill="#f6f5f4" d="m 28 8 h 72 c 4.417969 0 8 3.582031 8 8 v 92 c 0 4.417969 -3.582031 8 -8 8 h -72 c -4.417969 0 -8 -3.582031 -8 -8 v -92 c 0 -4.417969 3.582031 -8 8 -8 z m 0 0" style="fill:#f0f0f2"/><g id="text2529" aria-label="C" style="font-size:48px;line-height:1.25;stroke-width:.75022;fill:#8ac2fb" transform="matrix(1.343832,0,0,1.3221433,-33.123358,-5.4486753)"><path d="m 87.15625,68.078125 q -2.484375,1.289062 -5.179688,1.945312 -2.695312,0.65625 -5.625,0.65625 -8.742187,0 -13.851562,-4.875 -5.109375,-4.898437 -5.109375,-13.265625 0,-8.390625 5.109375,-13.265625 Q 67.609375,34.375 76.351562,34.375 q 2.929688,0 5.625,0.65625 2.695313,0.65625 5.179688,1.945312 v 7.242188 q -2.507813,-1.710938 -4.945313,-2.507813 -2.4375,-0.796875 -5.132812,-0.796875 -4.828125,0 -7.59375,3.09375 -2.765625,3.09375 -2.765625,8.53125 0,5.414063 2.765625,8.507813 2.765625,3.09375 7.59375,3.09375 2.695312,0 5.132812,-0.796875 2.4375,-0.796875 4.945313,-2.507813 z" style="font-weight:700;-inkscape-font-specification:'sans-serif Bold';stroke-width:.75022;fill:#8ac2fb" id="path5107"/></g></svg>