<?xml version="1.0" encoding="UTF-8" standalone="no"?>
<svg
   height="128px"
   viewBox="0 0 128 128"
   width="128px"
   version="1.1"
   id="svg49"
   xmlns="http://www.w3.org/2000/svg"
   xmlns:svg="http://www.w3.org/2000/svg">
  <defs
     id="defs53" />
  <linearGradient
     id="a"
     gradientTransform="matrix(0.196428 0 0 0.342105 2.59702 273.739929)"
     gradientUnits="userSpaceOnUse"
     x1="88.595886"
     x2="536.595886"
     y1="-449.394012"
     y2="-449.394012">
    <stop
       offset="0"
       stop-color="#deddda"
       id="stop2"
       style="stop-color:#d0d0d0;stop-opacity:1" />
    <stop
       offset="0.0454546"
       stop-color="#eeeeec"
       id="stop4"
       style="stop-color:#e5e5e5;stop-opacity:1" />
    <stop
       offset="0.0909091"
       stop-color="#deddda"
       id="stop6"
       style="stop-color:#d0d0d0;stop-opacity:1" />
    <stop
       offset="0.909091"
       stop-color="#deddda"
       id="stop8"
       style="stop-color:#d0d0d0;stop-opacity:1" />
    <stop
       offset="0.954545"
       stop-color="#eeeeec"
       id="stop10"
       style="stop-color:#e5e5e5;stop-opacity:1" />
    <stop
       offset="1"
       stop-color="#c0bfbc"
       id="stop12"
       style="stop-color:#d0d0d0;stop-opacity:1" />
  </linearGradient>
  <linearGradient
     id="b"
     gradientUnits="userSpaceOnUse"
     x1="58.999043"
     x2="69.00042"
     y1="63.999893"
     y2="63.999893">
    <stop
       offset="0"
       stop-color="#9a9996"
       id="stop15"
       style="stop-color:#a5a5a5;stop-opacity:1" />
    <stop
       offset="1"
       stop-color="#77767b"
       id="stop17"
       style="stop-color:#5e5e5e;stop-opacity:1" />
  </linearGradient>
  <linearGradient
     id="c"
     gradientTransform="matrix(1 0 0 0.850001 0 -135.925327)"
     gradientUnits="userSpaceOnUse"
     x1="48.00016"
     x2="80.00016"
     y1="275.499908"
     y2="275.499908">
    <stop
       offset="0"
       stop-color="#e8e7e4"
       id="stop20"
       style="stop-color:#e5e5e5;stop-opacity:1" />
    <stop
       offset="0.511049"
       stop-color="#ffffff"
       id="stop22"
       style="stop-color:#f0f0f2;stop-opacity:1" />
    <stop
       offset="1"
       stop-color="#c2bfba"
       id="stop24"
       style="stop-color:#c2c2c2;stop-opacity:1" />
  </linearGradient>
  <path
     d="m 28 16 h 72 c 4.417969 0 8 3.582031 8 8 v 88 c 0 4.417969 -3.582031 8 -8 8 h -72 c -4.417969 0 -8 -3.582031 -8 -8 v -88 c 0 -4.417969 3.582031 -8 8 -8 z m 0 0"
     fill="url(#a)"
     id="path27" />
  <path
     d="m 28 8 h 72 c 4.417969 0 8 3.582031 8 8 v 92 c 0 4.417969 -3.582031 8 -8 8 h -72 c -4.417969 0 -8 -3.582031 -8 -8 v -92 c 0 -4.417969 3.582031 -8 8 -8 z m 0 0"
     fill="#f6f5f4"
     id="path29"
     style="fill:#f0f0f2" />
  <g
     aria-label="{;}"
     id="text2067"
     style="font-size:48px;line-height:1.25;fill:#bf56a8;stroke-width:1.35083"
     transform="matrix(0.73563218,0,0,0.74497354,6.1609198,22.520106)">
    <path
       d="m 64.539062,74.453125 v 3.375 h -1.453125 q -5.835937,0 -7.828125,-1.734375 -1.96875,-1.734375 -1.96875,-6.914063 v -5.601562 q 0,-3.539063 -1.265625,-4.898438 -1.265625,-1.359375 -4.59375,-1.359375 H 46 V 53.96875 h 1.429687 q 3.351563,0 4.59375,-1.335938 1.265625,-1.359375 1.265625,-4.851562 v -5.625 q 0,-5.179688 1.96875,-6.890625 Q 57.25,33.53125 63.085937,33.53125 h 1.453125 v 3.351562 h -1.59375 q -3.304687,0 -4.3125,1.03125 Q 57.625,38.945312 57.625,42.25 v 5.8125 q 0,3.679687 -1.078125,5.34375 -1.054688,1.664062 -3.632813,2.25 2.601563,0.632812 3.65625,2.296875 1.054688,1.664062 1.054688,5.320312 v 5.8125 q 0,3.304688 1.007812,4.335938 1.007813,1.03125 4.3125,1.03125 z"
       id="path2545"
       style="fill:#bf56a8;stroke-width:1.35083" />
    <path
       d="m 76.164062,45.179687 h 4.945313 v 5.953125 h -4.945313 z m 0,18.867188 h 4.945313 v 4.03125 l -3.84375,7.5 h -3.023438 l 1.921875,-7.5 z"
       id="path2547"
       style="fill:#bf56a8;stroke-width:1.35083" />
    <path
       d="m 92.710937,74.453125 h 1.640625 q 3.28125,0 4.265625,-1.007813 Q 99.625,72.4375 99.625,69.085937 v -5.8125 q 0,-3.65625 1.05469,-5.320312 1.05469,-1.664063 3.65625,-2.296875 -2.60156,-0.585938 -3.65625,-2.25 Q 99.625,51.742187 99.625,48.0625 V 42.25 q 0,-3.328125 -1.007813,-4.335938 -0.984375,-1.03125 -4.265625,-1.03125 H 92.710937 V 33.53125 H 94.1875 q 5.83594,0 7.78125,1.734375 1.96875,1.710937 1.96875,6.890625 v 5.625 q 0,3.492187 1.26563,4.851562 1.26562,1.335938 4.59375,1.335938 H 111.25 v 3.351562 h -1.45312 q -3.32813,0 -4.59375,1.359375 -1.26563,1.359375 -1.26563,4.898438 v 5.601562 q 0,5.179688 -1.96875,6.914063 -1.94531,1.734375 -7.78125,1.734375 h -1.476563 z"
       id="path2549"
       style="fill:#bf56a8;stroke-width:1.35083" />
  </g>
</svg>
