<?xml version="1.0" encoding="UTF-8" standalone="no"?>
<svg
   height="128px"
   viewBox="0 0 128 128"
   width="128px"
   version="1.1"
   id="svg49"
   xmlns="http://www.w3.org/2000/svg"
   xmlns:svg="http://www.w3.org/2000/svg">
  <defs
     id="defs53" />
  <linearGradient
     id="a"
     gradientTransform="matrix(0.196428 0 0 0.342105 2.59702 273.739929)"
     gradientUnits="userSpaceOnUse"
     x1="88.595886"
     x2="536.595886"
     y1="-449.394012"
     y2="-449.394012">
    <stop
       offset="0"
       stop-color="#deddda"
       id="stop2"
       style="stop-color:#d0d0d0;stop-opacity:1" />
    <stop
       offset="0.0454546"
       stop-color="#eeeeec"
       id="stop4"
       style="stop-color:#e5e5e5;stop-opacity:1" />
    <stop
       offset="0.0909091"
       stop-color="#deddda"
       id="stop6"
       style="stop-color:#d0d0d0;stop-opacity:1" />
    <stop
       offset="0.909091"
       stop-color="#deddda"
       id="stop8"
       style="stop-color:#d0d0d0;stop-opacity:1" />
    <stop
       offset="0.954545"
       stop-color="#eeeeec"
       id="stop10"
       style="stop-color:#e5e5e5;stop-opacity:1" />
    <stop
       offset="1"
       stop-color="#c0bfbc"
       id="stop12"
       style="stop-color:#d0d0d0;stop-opacity:1" />
  </linearGradient>
  <linearGradient
     id="b"
     gradientUnits="userSpaceOnUse"
     x1="58.999043"
     x2="69.00042"
     y1="63.999893"
     y2="63.999893">
    <stop
       offset="0"
       stop-color="#9a9996"
       id="stop15"
       style="stop-color:#a5a5a5;stop-opacity:1" />
    <stop
       offset="1"
       stop-color="#77767b"
       id="stop17"
       style="stop-color:#5e5e5e;stop-opacity:1" />
  </linearGradient>
  <linearGradient
     id="c"
     gradientTransform="matrix(1 0 0 0.850001 0 -135.925327)"
     gradientUnits="userSpaceOnUse"
     x1="48.00016"
     x2="80.00016"
     y1="275.499908"
     y2="275.499908">
    <stop
       offset="0"
       stop-color="#e8e7e4"
       id="stop20"
       style="stop-color:#e5e5e5;stop-opacity:1" />
    <stop
       offset="0.511049"
       stop-color="#ffffff"
       id="stop22"
       style="stop-color:#f0f0f2;stop-opacity:1" />
    <stop
       offset="1"
       stop-color="#c2bfba"
       id="stop24"
       style="stop-color:#c2c2c2;stop-opacity:1" />
  </linearGradient>
  <path
     d="m 28 16 h 72 c 4.417969 0 8 3.582031 8 8 v 88 c 0 4.417969 -3.582031 8 -8 8 h -72 c -4.417969 0 -8 -3.582031 -8 -8 v -88 c 0 -4.417969 3.582031 -8 8 -8 z m 0 0"
     fill="url(#a)"
     id="path27" />
  <path
     d="m 28 8 h 72 c 4.417969 0 8 3.582031 8 8 v 92 c 0 4.417969 -3.582031 8 -8 8 h -72 c -4.417969 0 -8 -3.582031 -8 -8 v -92 c 0 -4.417969 3.582031 -8 8 -8 z m 0 0"
     fill="#f6f5f4"
     id="path29"
     style="fill:#f0f0f2" />
  <g
     clip-path="url(#d)"
     mask="url(#b-6)"
     transform="translate(-210,21)"
     id="g22">
    <path
       d="M 37.671875,36.503906 V 122.50391 H 105.67188 V 36.503906 Z m 0,0"
       fill="url(#c)"
       id="path20"
       style="fill:url(#c-7)" />
  </g>
  <path
     style="fill:#d62225;fill-opacity:1;stroke-width:1"
     d="m 51.062484,71.823265 0.02613,-5.949367 3.088607,0.0051 c 3.444372,0.0057 4.165227,0.09825 5.854056,0.751879 3.386505,1.310685 4.450935,4.016128 2.379717,6.04849 -1.256622,1.233048 -3.558182,2.183275 -6.005925,2.47962 -0.529114,0.06406 -0.991995,0.161564 -1.028625,0.216677 -0.03663,0.05511 -0.07052,0.466313 -0.07531,0.913779 -0.0048,0.447465 -0.04317,0.843794 -0.0853,0.88073 -0.04213,0.03694 -0.748742,0.151588 -1.570261,0.254781 -0.821519,0.103194 -1.493671,0.223641 -1.493671,0.267663 0,0.04402 -0.250998,0.08004 -0.557771,0.08004 h -0.557773 l 0.02613,-5.949367 z m 5.632329,1.886119 c 0.852657,-0.416901 1.854662,-1.400911 2.204377,-2.164787 0.62482,-1.364788 -0.04724,-2.926363 -1.729894,-4.019528 -0.557864,-0.362425 -1.628807,-0.769718 -1.737668,-0.660856 -0.03354,0.03354 -0.06816,6.06576 -0.04132,7.199558 0.0035,0.14739 0.621801,-0.02058 1.304503,-0.354387 z M 40.000002,70.481493 v -4.658228 h 2.120606 c 1.192065,0 2.145991,0.04107 2.178581,0.0938 0.03525,0.05704 0.183694,0.05775 0.378731,0.0018 0.607785,-0.174311 2.641772,-0.234408 3.228948,-0.09541 0.736316,0.174309 1.671061,0.591845 1.554079,0.694181 -0.0826,0.07226 -1.704267,1.081772 -2.045997,1.273666 -0.07115,0.03995 -0.344564,-0.0331 -0.607595,-0.162338 -0.370715,-0.182143 -0.648999,-0.2351 -1.237733,-0.235538 -0.417721,-3.04e-4 -0.88481,0.03448 -1.037974,0.07732 l -0.278481,0.07788 v 3.795539 3.79554 h -2.126583 -2.126582 z m 26.227848,-0.0041 v -4.662357 l 8.936709,0.03526 c 8.146073,0.03214 8.99682,0.05107 9.616158,0.213993 0.373697,0.0983 0.829393,0.279769 1.012658,0.403257 l 0.333209,0.224523 0.02643,4.223842 0.02643,4.223843 h -2.127698 -2.127693 v -4.103806 -4.103772 l -0.259757,-0.09876 c -0.142866,-0.05432 -0.939829,-0.09876 -1.771029,-0.09876 h -1.511271 l -0.02644,4.177215 -0.02644,4.177216 -2.101266,0.02737 -2.101266,0.02737 -0.0015,-4.027371 c -9.11e-4,-2.356876 -0.04132,-4.090377 -0.09744,-4.17927 -0.07902,-0.125181 -0.394904,-0.151899 -1.795917,-0.151899 h -1.700032 l -0.02644,4.177215 -0.02644,4.177216 H 68.353356 66.227897 V 70.47736 Z M 86.481015,64.799111 C 85.369878,64.595355 84.025934,64.3595 71.503468,62.170635 64.198275,60.893723 63.855633,60.843064 63.58911,61.000503 c -0.446102,0.263519 -0.782234,0.209006 -1.129438,-0.183167 -0.270316,-0.305327 -0.386573,-0.35616 -0.953383,-0.416859 -0.540239,-0.05785 -0.645528,-0.100239 -0.645528,-0.259864 0,-0.217573 0.262947,-0.241021 1.012659,-0.0903 0.384093,0.07722 0.498809,0.06061 0.730077,-0.105676 0.150909,-0.108507 0.381556,-0.197286 0.512551,-0.197286 0.230892,0 0.623725,0.282605 0.69656,0.501106 0.03217,0.0965 1.890868,0.441875 11.492712,2.135502 1.567293,0.276448 2.940899,0.502632 3.052457,0.502632 0.285982,0 0.345177,-0.209496 0.401591,-1.421281 0.04131,-0.887415 0.0126,-1.20251 -0.170702,-1.873418 -0.622042,-2.276765 -2.489528,-4.348176 -5.278538,-5.854974 -0.876085,-0.473317 -1.231668,-0.614383 -3.102941,-1.230994 -2.21219,-0.728947 -4.435713,-1.062403 -7.084226,-1.062403 -7.903184,0 -14.506664,3.667719 -15.485728,8.601116 -0.172647,0.869951 -0.15133,2.007377 0.05083,2.712274 0.06405,0.22334 0.05618,0.349997 -0.02576,0.414466 -0.117195,0.09221 -7.057092,1.335435 -7.45461,1.335435 -0.186338,0 -0.207694,-0.06248 -0.207694,-0.607595 0,-0.334177 0.0404,-0.607595 0.08977,-0.607595 0.04937,0 0.12058,-0.20547 0.158239,-0.456601 0.102571,-0.683989 0.494094,-1.761467 0.978154,-2.69189 2.055407,-3.950752 6.944143,-7.223549 13.152161,-8.804801 1.424797,-0.362912 3.626103,-0.769024 4.687783,-0.864834 0.433193,-0.03909 0.811832,-0.110248 0.841419,-0.158122 0.0781,-0.126374 6.42159,-0.112325 6.42159,0.01422 0,0.0557 0.170886,0.101476 0.379747,0.101732 0.208861,2.56e-4 0.973587,0.08784 1.699392,0.194626 4.303187,0.633127 8.401625,2.129483 11.541114,4.213705 2.68667,1.783609 4.595016,3.955508 5.534808,6.299201 0.29544,0.73678 0.688494,2.373768 0.691453,2.879759 0.0017,0.286348 0.05345,0.305931 1.444625,0.546366 0.281611,0.04867 0.379747,0.115059 0.379747,0.256893 0,0.23597 -0.117491,0.234207 -1.518987,-0.02279 z"
     id="path950" />
</svg>
