<svg xmlns="http://www.w3.org/2000/svg" xmlns:svg="http://www.w3.org/2000/svg" id="svg49" width="128" height="128" version="1.1" viewBox="0 0 128 128"><linearGradient id="a" x1="88.596" x2="536.596" y1="-449.394" y2="-449.394" gradientTransform="matrix(0.196428 0 0 0.342105 2.59702 273.739929)" gradientUnits="userSpaceOnUse"><stop id="stop2" offset="0" stop-color="#deddda" style="stop-color:#d0d0d0;stop-opacity:1"/><stop id="stop4" offset=".045" stop-color="#eeeeec" style="stop-color:#e5e5e5;stop-opacity:1"/><stop id="stop6" offset=".091" stop-color="#deddda" style="stop-color:#d0d0d0;stop-opacity:1"/><stop id="stop8" offset=".909" stop-color="#deddda" style="stop-color:#d0d0d0;stop-opacity:1"/><stop id="stop10" offset=".955" stop-color="#eeeeec" style="stop-color:#e5e5e5;stop-opacity:1"/><stop id="stop12" offset="1" stop-color="#c0bfbc" style="stop-color:#d0d0d0;stop-opacity:1"/></linearGradient><linearGradient id="b" x1="58.999" x2="69" y1="64" y2="64" gradientUnits="userSpaceOnUse"><stop id="stop15" offset="0" stop-color="#9a9996" style="stop-color:#a5a5a5;stop-opacity:1"/><stop id="stop17" offset="1" stop-color="#77767b" style="stop-color:#5e5e5e;stop-opacity:1"/></linearGradient><linearGradient id="c" x1="48" x2="80" y1="275.5" y2="275.5" gradientTransform="matrix(1 0 0 0.850001 0 -135.925327)" gradientUnits="userSpaceOnUse"><stop id="stop20" offset="0" stop-color="#e8e7e4" style="stop-color:#e5e5e5;stop-opacity:1"/><stop id="stop22" offset=".511" stop-color="#fff" style="stop-color:#f0f0f2;stop-opacity:1"/><stop id="stop24" offset="1" stop-color="#c2bfba" style="stop-color:#c2c2c2;stop-opacity:1"/></linearGradient><path id="path27" fill="url(#a)" d="m 28 16 h 72 c 4.417969 0 8 3.582031 8 8 v 88 c 0 4.417969 -3.582031 8 -8 8 h -72 c -4.417969 0 -8 -3.582031 -8 -8 v -88 c 0 -4.417969 3.582031 -8 8 -8 z m 0 0"/><path id="path29" fill="#f6f5f4" d="m 28 8 h 72 c 4.417969 0 8 3.582031 8 8 v 92 c 0 4.417969 -3.582031 8 -8 8 h -72 c -4.417969 0 -8 -3.582031 -8 -8 v -92 c 0 -4.417969 3.582031 -8 8 -8 z m 0 0" style="fill:#f0f0f2"/><g id="g22" clip-path="url(#d)" mask="url(#b-6)" transform="translate(-210,21)"><path id="path20" fill="url(#c)" d="M 37.671875,36.503906 V 122.50391 H 105.67188 V 36.503906 Z m 0,0" style="fill:url(#c-7)"/></g><path style="fill:#389f00;fill-opacity:1;stroke-width:1" id="path968" d="M 50.74877,79.350654 C 47.15735,78.705216 45.8363,77.03521 45.4615,72.666743 c -0.2946,-3.433839 0.19308,-7.334195 1.65124,-13.206189 1.78293,-7.179857 3.03717,-9.700242 5.25329,-10.55649 0.51562,-0.199223 2.15766,-0.356108 3.64896,-0.348633 4.3006,0.02155 5.42788,1.248548 5.87665,6.396478 0.25459,2.920475 0.889034,4.143953 2.148866,4.143953 1.103678,0 1.77914,-1.500888 2.144288,-4.764647 0.564678,-5.047203 2.348023,-6.483807 7.330844,-5.905489 1.95439,0.226831 2.4767,0.460879 3.623796,1.623833 1.755607,1.779878 3.382237,6.68281 4.698874,14.163178 1.071123,6.085527 1.045331,9.324315 -0.09699,12.179269 -0.769707,1.923678 -2.58915,2.829086 -6.396168,3.18291 -5.161123,0.479677 -7.604116,-0.478819 -7.604116,-2.983434 0,-1.808495 0.989242,-2.523785 3.816046,-2.759262 3.038911,-0.253146 3.92119,-0.811138 4.23686,-2.679575 0.586071,-3.468923 -1.453732,-11.79986 -3.069401,-12.536008 -1.367104,-0.622894 -1.951427,0.292219 -2.603595,4.077506 -0.838289,4.865573 -1.240565,5.642536 -3.195294,6.17145 -0.892164,0.241402 -2.697375,0.3535 -4.01158,0.249104 -3.42237,-0.271859 -4.04835,-0.998675 -4.77659,-5.546053 -0.77777,-4.856661 -1.76396,-6.2076 -3.29587,-4.514862 -1.61237,1.781651 -3.17282,8.592864 -2.69604,11.767939 0.32783,2.183158 1.05632,2.722283 4.15796,3.077156 3.07074,0.351336 3.9375,0.96165 3.9375,2.772509 0,2.224326 -0.89672,2.790437 -4.60443,2.90683 -1.69569,0.05323 -3.89521,-0.04917 -4.88783,-0.227562 z"/></svg>