<svg xmlns="http://www.w3.org/2000/svg" xmlns:svg="http://www.w3.org/2000/svg" id="svg49" width="128" height="128" version="1.1" viewBox="0 0 128 128"><linearGradient id="a" x1="88.596" x2="536.596" y1="-449.394" y2="-449.394" gradientTransform="matrix(0.196428 0 0 0.342105 2.59702 273.739929)" gradientUnits="userSpaceOnUse"><stop id="stop2" offset="0" stop-color="#deddda" style="stop-color:#d0d0d0;stop-opacity:1"/><stop id="stop4" offset=".045" stop-color="#eeeeec" style="stop-color:#e5e5e5;stop-opacity:1"/><stop id="stop6" offset=".091" stop-color="#deddda" style="stop-color:#d0d0d0;stop-opacity:1"/><stop id="stop8" offset=".909" stop-color="#deddda" style="stop-color:#d0d0d0;stop-opacity:1"/><stop id="stop10" offset=".955" stop-color="#eeeeec" style="stop-color:#e5e5e5;stop-opacity:1"/><stop id="stop12" offset="1" stop-color="#c0bfbc" style="stop-color:#d0d0d0;stop-opacity:1"/></linearGradient><linearGradient id="b" x1="58.999" x2="69" y1="64" y2="64" gradientUnits="userSpaceOnUse"><stop id="stop15" offset="0" stop-color="#9a9996" style="stop-color:#a5a5a5;stop-opacity:1"/><stop id="stop17" offset="1" stop-color="#77767b" style="stop-color:#5e5e5e;stop-opacity:1"/></linearGradient><linearGradient id="c" x1="48" x2="80" y1="275.5" y2="275.5" gradientTransform="matrix(1 0 0 0.850001 0 -135.925327)" gradientUnits="userSpaceOnUse"><stop id="stop20" offset="0" stop-color="#e8e7e4" style="stop-color:#e5e5e5;stop-opacity:1"/><stop id="stop22" offset=".511" stop-color="#fff" style="stop-color:#f0f0f2;stop-opacity:1"/><stop id="stop24" offset="1" stop-color="#c2bfba" style="stop-color:#c2c2c2;stop-opacity:1"/></linearGradient><path id="path27" fill="url(#a)" d="m 28 16 h 72 c 4.417969 0 8 3.582031 8 8 v 88 c 0 4.417969 -3.582031 8 -8 8 h -72 c -4.417969 0 -8 -3.582031 -8 -8 v -88 c 0 -4.417969 3.582031 -8 8 -8 z m 0 0"/><path id="path29" fill="#f6f5f4" d="m 28 8 h 72 c 4.417969 0 8 3.582031 8 8 v 92 c 0 4.417969 -3.582031 8 -8 8 h -72 c -4.417969 0 -8 -3.582031 -8 -8 v -92 c 0 -4.417969 3.582031 -8 8 -8 z m 0 0" style="fill:#f0f0f2"/><g id="g931" transform="matrix(3.4285714,0,0,3.4285714,36.571429,36.571429)" style="fill:#268ef9;stroke-width:.291667"><path style="color:#000;fill:#268ef9;stroke-width:.291667;stroke-linecap:round;stroke-linejoin:round;-inkscape-stroke:none" id="path844" d="M 8,1 C 4.1399332,1 1,4.1399332 1,8 c 0,3.860067 3.1399332,7 7,7 3.860067,0 7,-3.139933 7,-7 C 15,4.1399332 11.860067,1 8,1 Z m 0,1 c 3.319627,0 6,2.6803728 6,6 0,3.319627 -2.680373,6 -6,6 C 4.6803728,14 2,11.319627 2,8 2,4.6803728 4.6803728,2 8,2 Z"/><path style="color:#000;fill:#268ef9;stroke-width:.291667;stroke-linecap:round;stroke-linejoin:round;-inkscape-stroke:none" id="path1063" d="m 6.6601562,1.2265625 a 0.499998,0.499998 0 0 0 -0.6347656,0.3125 c 0,0 -2.3133029,6.6857838 0.00586,12.8378905 a 0.499998,0.499998 0 0 0 0.6445312,0.291016 0.499998,0.499998 0 0 0 0.2910157,-0.644531 C 4.811101,8.3049628 6.9726562,1.8613281 6.9726562,1.8613281 a 0.499998,0.499998 0 0 0 -0.3125,-0.6347656 z"/><path style="color:#000;fill:#268ef9;stroke-width:.291667;stroke-linecap:round;stroke-linejoin:round;-inkscape-stroke:none" id="path1063-3" d="M 9.3378906,1.2265625 A 0.5,0.5 0 0 0 9.0273438,1.8613281 c 0,0 2.1621722,6.4438015 0.00391,12.1621099 A 0.5,0.5 0 0 0 9.3242188,14.667969 0.5,0.5 0 0 0 9.96875,14.376953 C 12.290808,8.2246797 9.97266,1.5390625 9.97266,1.5390625 a 0.5,0.5 0 0 0 -0.6347657,-0.3125 z"/><path style="color:#000;fill:#268ef9;stroke-width:.291667;stroke-linecap:round;stroke-linejoin:round;-inkscape-stroke:none" id="path1294" d="M 2,7.5 A 0.5,0.5 0 0 0 1.5,8 0.5,0.5 0 0 0 2,8.5 H 14 A 0.5,0.5 0 0 0 14.5,8 0.5,0.5 0 0 0 14,7.5 Z"/></g></svg>