<?xml version="1.0" encoding="UTF-8" standalone="no"?>
<svg
   height="128px"
   viewBox="0 0 128 128"
   width="128px"
   version="1.1"
   id="svg49"
   xmlns="http://www.w3.org/2000/svg"
   xmlns:svg="http://www.w3.org/2000/svg">
  <defs
     id="defs53" />
  <linearGradient
     id="a"
     gradientTransform="matrix(0.196428 0 0 0.342105 2.59702 273.739929)"
     gradientUnits="userSpaceOnUse"
     x1="88.595886"
     x2="536.595886"
     y1="-449.394012"
     y2="-449.394012">
    <stop
       offset="0"
       stop-color="#deddda"
       id="stop2"
       style="stop-color:#d0d0d0;stop-opacity:1" />
    <stop
       offset="0.0454546"
       stop-color="#eeeeec"
       id="stop4"
       style="stop-color:#e5e5e5;stop-opacity:1" />
    <stop
       offset="0.0909091"
       stop-color="#deddda"
       id="stop6"
       style="stop-color:#d0d0d0;stop-opacity:1" />
    <stop
       offset="0.909091"
       stop-color="#deddda"
       id="stop8"
       style="stop-color:#d0d0d0;stop-opacity:1" />
    <stop
       offset="0.954545"
       stop-color="#eeeeec"
       id="stop10"
       style="stop-color:#e5e5e5;stop-opacity:1" />
    <stop
       offset="1"
       stop-color="#c0bfbc"
       id="stop12"
       style="stop-color:#d0d0d0;stop-opacity:1" />
  </linearGradient>
  <linearGradient
     id="b"
     gradientUnits="userSpaceOnUse"
     x1="58.999043"
     x2="69.00042"
     y1="63.999893"
     y2="63.999893">
    <stop
       offset="0"
       stop-color="#9a9996"
       id="stop15"
       style="stop-color:#a5a5a5;stop-opacity:1" />
    <stop
       offset="1"
       stop-color="#77767b"
       id="stop17"
       style="stop-color:#5e5e5e;stop-opacity:1" />
  </linearGradient>
  <linearGradient
     id="c"
     gradientTransform="matrix(1 0 0 0.850001 0 -135.925327)"
     gradientUnits="userSpaceOnUse"
     x1="48.00016"
     x2="80.00016"
     y1="275.499908"
     y2="275.499908">
    <stop
       offset="0"
       stop-color="#e8e7e4"
       id="stop20"
       style="stop-color:#e5e5e5;stop-opacity:1" />
    <stop
       offset="0.511049"
       stop-color="#ffffff"
       id="stop22"
       style="stop-color:#f0f0f2;stop-opacity:1" />
    <stop
       offset="1"
       stop-color="#c2bfba"
       id="stop24"
       style="stop-color:#c2c2c2;stop-opacity:1" />
  </linearGradient>
  <path
     d="m 28 16 h 72 c 4.417969 0 8 3.582031 8 8 v 88 c 0 4.417969 -3.582031 8 -8 8 h -72 c -4.417969 0 -8 -3.582031 -8 -8 v -88 c 0 -4.417969 3.582031 -8 8 -8 z m 0 0"
     fill="url(#a)"
     id="path27" />
  <path
     d="m 28 8 h 72 c 4.417969 0 8 3.582031 8 8 v 92 c 0 4.417969 -3.582031 8 -8 8 h -72 c -4.417969 0 -8 -3.582031 -8 -8 v -92 c 0 -4.417969 3.582031 -8 8 -8 z m 0 0"
     fill="#f6f5f4"
     id="path29"
     style="fill:#f0f0f2" />
  <path
     style="fill:#1f62ae;fill-opacity:1;stroke-width:1"
     d="m 55.479221,85.664032 c -4.658734,-1.280231 -8.483789,-2.34122 -8.5001,-2.357757 -0.0163,-0.01653 -0.898362,-9.65117 -1.960095,-21.410296 C 43.957294,50.136854 43.068661,40.399707 43.0443,40.257875 L 43,40 H 63.999995 85 l -0.0498,0.351648 c -0.0274,0.193407 -0.917674,9.930554 -1.978386,21.638104 -1.060713,11.707551 -1.943775,21.301929 -1.962356,21.320841 -0.0293,0.02984 -17.059783,4.711105 -17.059783,4.68933 0,-0.0045 -3.811694,-1.055662 -8.470438,-2.335891 z m 13.557487,-8.122647 c 2.71964,-0.807484 4.978803,-1.497675 5.020365,-1.533757 0.0512,-0.04444 1.557042,-15.992896 1.564832,-16.573188 1.91e-4,-0.01289 -2.520528,-0.02533 -5.601569,-0.02762 l -5.601899,-0.0042 5.765969,-2.164814 c 3.171276,-1.190647 5.78542,-2.182291 5.809191,-2.203654 0.0401,-0.03602 0.553353,-5.350235 0.562213,-5.820991 l 0.004,-0.210963 H 63.97054 51.38127 l 0.299148,2.977291 c 0.164529,1.63751 0.302818,2.987525 0.307298,3.000034 0.004,0.01251 2.668627,0.03361 5.920318,0.04688 l 5.912178,0.02415 -5.723467,2.203664 -5.723466,2.203664 0.005,0.281319 c 0.003,0.154726 0.118687,1.505056 0.257005,3.000734 l 0.251495,2.719415 8.16016,0.02396 8.160169,0.02396 -0.211112,2.507914 c -0.116117,1.379353 -0.236134,2.723435 -0.266716,2.986847 l -0.0556,0.478933 -2.277504,0.716671 c -1.252624,0.394171 -2.336727,0.716766 -2.409122,0.716877 -0.102316,1.88e-4 -4.573599,-1.389702 -4.649973,-1.445406 -0.0192,-0.01398 -0.497569,-2.806572 -0.497569,-2.904551 0,-0.03167 -1.265705,-0.05757 -2.812666,-0.05757 h -2.812665 l 9.3e-4,0.257875 c 0.002,0.487552 0.642728,7.168809 0.692531,7.21862 0.058,0.05805 9.890121,3.005975 10.065802,3.017997 0.0649,0.0044 2.343167,-0.652593 5.062797,-1.460078 z"
     id="path1113" />
</svg>
