<svg xmlns="http://www.w3.org/2000/svg" xmlns:svg="http://www.w3.org/2000/svg" id="svg49" width="128" height="128" version="1.1" viewBox="0 0 128 128"><linearGradient id="a" x1="88.596" x2="536.596" y1="-449.394" y2="-449.394" gradientTransform="matrix(0.196428 0 0 0.342105 2.59702 273.739929)" gradientUnits="userSpaceOnUse"><stop id="stop2" offset="0" stop-color="#deddda" style="stop-color:#d0d0d0;stop-opacity:1"/><stop id="stop4" offset=".045" stop-color="#eeeeec" style="stop-color:#e5e5e5;stop-opacity:1"/><stop id="stop6" offset=".091" stop-color="#deddda" style="stop-color:#d0d0d0;stop-opacity:1"/><stop id="stop8" offset=".909" stop-color="#deddda" style="stop-color:#d0d0d0;stop-opacity:1"/><stop id="stop10" offset=".955" stop-color="#eeeeec" style="stop-color:#e5e5e5;stop-opacity:1"/><stop id="stop12" offset="1" stop-color="#c0bfbc" style="stop-color:#d0d0d0;stop-opacity:1"/></linearGradient><linearGradient id="b" x1="58.999" x2="69" y1="64" y2="64" gradientUnits="userSpaceOnUse"><stop id="stop15" offset="0" stop-color="#9a9996" style="stop-color:#a5a5a5;stop-opacity:1"/><stop id="stop17" offset="1" stop-color="#77767b" style="stop-color:#5e5e5e;stop-opacity:1"/></linearGradient><linearGradient id="c" x1="48" x2="80" y1="275.5" y2="275.5" gradientTransform="matrix(1 0 0 0.850001 0 -135.925327)" gradientUnits="userSpaceOnUse"><stop id="stop20" offset="0" stop-color="#e8e7e4" style="stop-color:#e5e5e5;stop-opacity:1"/><stop id="stop22" offset=".511" stop-color="#fff" style="stop-color:#f0f0f2;stop-opacity:1"/><stop id="stop24" offset="1" stop-color="#c2bfba" style="stop-color:#c2c2c2;stop-opacity:1"/></linearGradient><path id="path27" fill="url(#a)" d="m 28 16 h 72 c 4.417969 0 8 3.582031 8 8 v 88 c 0 4.417969 -3.582031 8 -8 8 h -72 c -4.417969 0 -8 -3.582031 -8 -8 v -88 c 0 -4.417969 3.582031 -8 8 -8 z m 0 0"/><path id="path29" fill="#f6f5f4" d="m 28 8 h 72 c 4.417969 0 8 3.582031 8 8 v 92 c 0 4.417969 -3.582031 8 -8 8 h -72 c -4.417969 0 -8 -3.582031 -8 -8 v -92 c 0 -4.417969 3.582031 -8 8 -8 z m 0 0" style="fill:#f0f0f2"/><g id="text2888" aria-label="?" style="font-size:48px;line-height:1.25;fill:#474747;stroke-width:.747188" transform="matrix(1.3383521,0,0,1.3383521,-28.243236,1.8273847)"><path id="path4344" d="m 65.675495,58.193977 h 4.757813 v 5.953125 h -4.757813 z m 4.617188,-3.445312 H 65.81612 V 51.13929 q 0,-2.367188 0.65625,-3.890625 0.65625,-1.523438 2.765625,-3.539063 l 2.109375,-2.085937 q 1.335938,-1.242188 1.921875,-2.34375 0.609375,-1.101563 0.609375,-2.25 0,-2.085938 -1.546875,-3.375 -1.523437,-1.289063 -4.054687,-1.289063 -1.851563,0 -3.960938,0.820313 -2.085937,0.820312 -4.359375,2.390625 v -4.40625 q 2.203125,-1.335938 4.453125,-1.992188 2.273438,-0.65625 4.6875,-0.65625 4.3125,0 6.914063,2.273438 2.625,2.273437 2.625,6 0,1.78125 -0.84375,3.398437 -0.84375,1.59375 -2.953125,3.609375 l -2.0625,2.015625 q -1.101563,1.101563 -1.570313,1.734375 -0.445312,0.609375 -0.632812,1.195313 -0.140625,0.492187 -0.210938,1.195312 -0.07031,0.703125 -0.07031,1.921875 z" style="fill:#474747;stroke-width:.747188"/></g></svg>