<svg xmlns="http://www.w3.org/2000/svg" xmlns:svg="http://www.w3.org/2000/svg" id="svg49" width="128" height="128" version="1.1" viewBox="0 0 128 128"><linearGradient id="a" x1="88.596" x2="536.596" y1="-449.394" y2="-449.394" gradientTransform="matrix(0.23720208,0,0,0.28417454,-10.148871,239.9009)" gradientUnits="userSpaceOnUse"><stop id="stop2" offset="0" stop-color="#deddda" style="stop-color:#d0d0d0;stop-opacity:1"/><stop id="stop4" offset=".045" stop-color="#eeeeec" style="stop-color:#e5e5e5;stop-opacity:1"/><stop id="stop6" offset=".091" stop-color="#deddda" style="stop-color:#d0d0d0;stop-opacity:1"/><stop id="stop8" offset=".909" stop-color="#deddda" style="stop-color:#d0d0d0;stop-opacity:1"/><stop id="stop10" offset=".955" stop-color="#eeeeec" style="stop-color:#e5e5e5;stop-opacity:1"/><stop id="stop12" offset="1" stop-color="#c0bfbc" style="stop-color:#d0d0d0;stop-opacity:1"/></linearGradient><linearGradient id="b" x1="58.999" x2="69" y1="64" y2="64" gradientUnits="userSpaceOnUse"><stop id="stop15" offset="0" stop-color="#9a9996" style="stop-color:#a5a5a5;stop-opacity:1"/><stop id="stop17" offset="1" stop-color="#77767b" style="stop-color:#5e5e5e;stop-opacity:1"/></linearGradient><linearGradient id="c" x1="48" x2="80" y1="275.5" y2="275.5" gradientTransform="matrix(1 0 0 0.850001 0 -135.925327)" gradientUnits="userSpaceOnUse"><stop id="stop20" offset="0" stop-color="#e8e7e4" style="stop-color:#e5e5e5;stop-opacity:1"/><stop id="stop22" offset=".511" stop-color="#fff" style="stop-color:#f0f0f2;stop-opacity:1"/><stop id="stop24" offset="1" stop-color="#c2bfba" style="stop-color:#c2c2c2;stop-opacity:1"/></linearGradient><path id="path27" fill="url(#a)" d="M 20.527203,25.80544 H 107.4728 c 5.33504,0 9.66062,2.975467 9.66062,6.645318 v 73.098492 c 0,3.66985 -4.32558,6.64531 -9.66062,6.64531 H 20.527203 c -5.335041,0 -9.660623,-2.97546 -9.660623,-6.64531 V 32.450758 c 0,-3.669851 4.325582,-6.645318 9.660623,-6.645318 z m 0,0" style="fill:url(#a);stroke-width:.999996"/><path id="path29" fill="#f6f5f4" d="m 118,28 v 72 c 0,4.41797 -3.58203,8 -8,8 H 18 c -4.417969,0 -8,-3.58203 -8,-8 V 28 c 0,-4.417969 3.582031,-8 8,-8 h 92 c 4.41797,0 8,3.582031 8,8 z m 0,0" style="fill:#f0f0f2"/><path style="color:#000;fill:#f7812b;stroke-linecap:round;stroke-linejoin:round;-inkscape-stroke:none" id="path954" d="m 51.066045,43.099235 a 1.0001,1.0001 0 0 0 -0.566406,0.900391 v 40 a 1.0001,1.0001 0 0 0 1.625,0.78125 l 25,-20 a 1.0001,1.0001 0 0 0 0,-1.5625 l -25,-20 a 1.0001,1.0001 0 0 0 -1.058594,-0.119141 z m 1.433594,2.982422 22.398437,17.917969 -22.398437,17.917969 z"/></svg>