<?xml version="1.0" encoding="UTF-8" standalone="no"?>
<svg
   height="128px"
   viewBox="0 0 128 128"
   width="128px"
   version="1.1"
   id="svg49"
   xmlns="http://www.w3.org/2000/svg"
   xmlns:svg="http://www.w3.org/2000/svg">
  <defs
     id="defs53" />
  <linearGradient
     id="a"
     gradientTransform="matrix(0.23720208,0,0,0.28417454,-10.148871,239.9009)"
     gradientUnits="userSpaceOnUse"
     x1="88.595886"
     x2="536.595886"
     y1="-449.394012"
     y2="-449.394012">
    <stop
       offset="0"
       stop-color="#deddda"
       id="stop2"
       style="stop-color:#d0d0d0;stop-opacity:1" />
    <stop
       offset="0.0454546"
       stop-color="#eeeeec"
       id="stop4"
       style="stop-color:#e5e5e5;stop-opacity:1" />
    <stop
       offset="0.0909091"
       stop-color="#deddda"
       id="stop6"
       style="stop-color:#d0d0d0;stop-opacity:1" />
    <stop
       offset="0.909091"
       stop-color="#deddda"
       id="stop8"
       style="stop-color:#d0d0d0;stop-opacity:1" />
    <stop
       offset="0.954545"
       stop-color="#eeeeec"
       id="stop10"
       style="stop-color:#e5e5e5;stop-opacity:1" />
    <stop
       offset="1"
       stop-color="#c0bfbc"
       id="stop12"
       style="stop-color:#d0d0d0;stop-opacity:1" />
  </linearGradient>
  <linearGradient
     id="b"
     gradientUnits="userSpaceOnUse"
     x1="58.999043"
     x2="69.00042"
     y1="63.999893"
     y2="63.999893">
    <stop
       offset="0"
       stop-color="#9a9996"
       id="stop15"
       style="stop-color:#a5a5a5;stop-opacity:1" />
    <stop
       offset="1"
       stop-color="#77767b"
       id="stop17"
       style="stop-color:#5e5e5e;stop-opacity:1" />
  </linearGradient>
  <linearGradient
     id="c"
     gradientTransform="matrix(1 0 0 0.850001 0 -135.925327)"
     gradientUnits="userSpaceOnUse"
     x1="48.00016"
     x2="80.00016"
     y1="275.499908"
     y2="275.499908">
    <stop
       offset="0"
       stop-color="#e8e7e4"
       id="stop20"
       style="stop-color:#e5e5e5;stop-opacity:1" />
    <stop
       offset="0.511049"
       stop-color="#ffffff"
       id="stop22"
       style="stop-color:#f0f0f2;stop-opacity:1" />
    <stop
       offset="1"
       stop-color="#c2bfba"
       id="stop24"
       style="stop-color:#c2c2c2;stop-opacity:1" />
  </linearGradient>
  <path
     d="M 20.527203,25.80544 H 107.4728 c 5.33504,0 9.66062,2.975467 9.66062,6.645318 v 73.098492 c 0,3.66985 -4.32558,6.64531 -9.66062,6.64531 H 20.527203 c -5.335041,0 -9.660623,-2.97546 -9.660623,-6.64531 V 32.450758 c 0,-3.669851 4.325582,-6.645318 9.660623,-6.645318 z m 0,0"
     fill="url(#a)"
     id="path27"
     style="fill:url(#a);stroke-width:0.999996" />
  <path
     d="m 118,28 v 72 c 0,4.41797 -3.58203,8 -8,8 H 18 c -4.417969,0 -8,-3.58203 -8,-8 V 28 c 0,-4.417969 3.582031,-8 8,-8 h 92 c 4.41797,0 8,3.582031 8,8 z m 0,0"
     fill="#f6f5f4"
     id="path29"
     style="fill:#f0f0f2" />
  <path
     style="color:#000000;fill:#f7812b;stroke-linecap:round;stroke-linejoin:round;-inkscape-stroke:none"
     d="m 51.066045,43.099235 a 1.0001,1.0001 0 0 0 -0.566406,0.900391 v 40 a 1.0001,1.0001 0 0 0 1.625,0.78125 l 25,-20 a 1.0001,1.0001 0 0 0 0,-1.5625 l -25,-20 a 1.0001,1.0001 0 0 0 -1.058594,-0.119141 z m 1.433594,2.982422 22.398437,17.917969 -22.398437,17.917969 z"
     id="path954" />
</svg>
