<?xml version="1.0" encoding="UTF-8" standalone="no"?>
<svg
   width="16"
   height="16"
   version="1.1"
   id="svg6"
   xmlns="http://www.w3.org/2000/svg"
   xmlns:svg="http://www.w3.org/2000/svg">
  <defs
     id="defs10" />
  <path
     d="M 2,3 C 0.892,3 0,3.892 0,5 v 6 c 0,1.108 0.892,2 2,2 h 11 c 1.108,0 2,-0.892 2,-2 v -1 h 1 V 6 H 15 V 5 C 15,3.892 14.108,3 13,3 Z m 0,1 h 11 c 0.554,0 1,0.446 1,1 v 6 c 0,0.554 -0.446,1 -1,1 H 2 C 1.446,12 1,11.554 1,11 V 5 C 1,4.446 1.446,4 2,4 Z"
     fill="#363636"
     stroke-linecap="round"
     stroke-linejoin="round"
     stroke-width="1.5"
     style="fill:#241f31;paint-order:stroke fill markers"
     id="path2" />
  <path
     style="color:#000000;fill:#241f31;stroke-linecap:round;stroke-linejoin:round;-inkscape-stroke:none"
     d="M 7.8125,5.109375 A 0.5,0.5 0 0 0 7.109375,5.1875 l -2,2.5 A 0.50005,0.50005 0 0 0 5.5,8.5 H 7.4589844 L 6.109375,10.1875 A 0.5,0.5 0 0 0 6.1875,10.890625 0.5,0.5 0 0 0 6.890625,10.8125 l 2,-2.5 A 0.50005,0.50005 0 0 0 8.5,7.5 H 6.5410156 L 7.890625,5.8125 A 0.5,0.5 0 0 0 7.8125,5.109375 Z"
     id="path857" />
</svg>
