<?xml version="1.0" encoding="UTF-8" standalone="no"?>
<svg
   height="16px"
   viewBox="0 0 16 16"
   width="16px"
   version="1.1"
   id="svg4"
   xmlns="http://www.w3.org/2000/svg"
   xmlns:svg="http://www.w3.org/2000/svg">
  <defs
     id="defs8" />
  <path
     style="fill:#3d3846;stroke-width:1"
     d="M 7.7333134,14.614162 C 7.6067506,14.556805 7.4385109,14.385052 7.3861606,14.259761 7.3573997,14.190926 7.34375,14.019479 7.34375,13.72706 V 13.295862 L 6.9816097,13.226202 C 5.8016638,12.999235 4.6911997,12.347052 3.92423,11.430584 3.6103909,11.055571 3.5,10.856286 3.5,10.664736 3.5,10.299072 3.7972853,10 4.1607637,10 c 0.2388041,0 0.4048891,0.09264 0.5796819,0.323346 0.8540716,1.127264 2.1016644,1.732876 3.4314294,1.665701 1.2507831,-0.06319 2.305367,-0.633458 3.079116,-1.665049 0.245078,-0.3267464 0.385789,-0.4182008 0.641688,-0.4170618 0.397159,0.00177 0.69996,0.3309088 0.662555,0.7201918 -0.0184,0.19148 -0.142221,0.397973 -0.485357,0.809412 -0.762444,0.91421 -1.853924,1.555473 -3.0449086,1.788934 l -0.3642468,0.0714 -0.010048,0.46875 c -0.00961,0.44836 -0.013659,0.473975 -0.093051,0.588872 -0.1359194,0.196705 -0.2904069,0.282839 -0.5263725,0.293476 -0.1245356,0.0056 -0.2398078,-0.0075 -0.2979367,-0.03381 z M 7.3624087,10.606043 C 5.8486063,10.332671 4.6526325,9.1324119 4.3943075,7.6273056 4.3224709,7.2087559 4.3203337,4.8007297 4.3914325,4.3869059 4.6570712,2.8407635 5.8586728,1.6478787 7.4121294,1.3881222 c 0.4119412,-0.068882 1.079174,-0.046356 1.4472462,0.048858 0.6555294,0.1695748 1.1800504,0.4558664 1.6446784,0.8976912 0.591999,0.5629444 0.968988,1.263406 1.104515,2.0522344 0.06959,0.4050219 0.06907,2.8260272 -6.91e-4,3.2260513 -0.26836,1.5388903 -1.456029,2.7265599 -2.9949193,2.9949199 -0.3392396,0.05916 -0.9174978,0.05831 -1.2505484,-0.0018 z"
     id="path935" />
</svg>
