<?xml version="1.0" encoding="UTF-8" standalone="no"?>
<svg
   width="16"
   height="16"
   version="1.1"
   id="svg6"
   xmlns="http://www.w3.org/2000/svg"
   xmlns:svg="http://www.w3.org/2000/svg">
  <defs
     id="defs10" />
  <path
     id="path2"
     style="fill:#241f31;stroke-linecap:round;stroke-linejoin:round;paint-order:stroke fill markers"
     d="M 5.2929688 1.9960938 L 2.2910156 4.9980469 L 0 4.9980469 L 0 11.001953 L 2.2910156 11.001953 L 5.2929688 14.003906 L 6.0039062 14.003906 L 6.0039062 1.9960938 L 5.2929688 1.9960938 z M 5.0019531 3.7089844 L 5.0019531 12.291016 L 2.7128906 10 L 1 10 L 1 6 L 2.7128906 6 L 5.0019531 3.7089844 z " />
  <path
     style="color:#000000;fill:#241f31;stroke-linecap:round;stroke-linejoin:round;-inkscape-stroke:none"
     d="m 12.146484,1.1464844 -3.9999996,4 a 0.5,0.5 0 0 0 0,0.7070312 0.5,0.5 0 0 0 0.7070312,0 l 4.0000004,-4 a 0.5,0.5 0 0 0 0,-0.7070312 0.5,0.5 0 0 0 -0.707032,0 z"
     id="path858" />
  <path
     style="color:#000000;fill:#241f31;stroke-linecap:round;stroke-linejoin:round;-inkscape-stroke:none"
     d="M 8.5,7 A 0.5,0.5 0 0 0 8,7.5 0.5,0.5 0 0 0 8.5,8 h 6 A 0.5,0.5 0 0 0 15,7.5 0.5,0.5 0 0 0 14.5,7 Z"
     id="path860" />
  <path
     style="color:#000000;fill:#241f31;stroke-linecap:round;stroke-linejoin:round;-inkscape-stroke:none"
     d="m 8.1464844,9.1464844 a 0.5,0.5 0 0 0 0,0.7070312 l 3.9999996,4.0000004 a 0.5,0.5 0 0 0 0.707032,0 0.5,0.5 0 0 0 0,-0.707032 L 8.8535156,9.1464844 a 0.5,0.5 0 0 0 -0.7070312,0 z"
     id="path862" />
</svg>
