<svg xmlns="http://www.w3.org/2000/svg" xmlns:svg="http://www.w3.org/2000/svg" id="svg4" width="16" height="16" version="1.1" viewBox="0 0 16 16"><path style="color:#000;fill:#241f31;stroke-width:1;-inkscape-stroke:none" id="path1251" d="M 7.953125,9.8e-6 C 7.7424813,0.0013257 7.539989,0.01725 7.3554687,0.0515678 5.6641247,0.3661313 4.3452298,1.822403 4.0566406,3.6907052 4.0261324,3.8882097 4.0201322,4.1106971 4.0117187,4.4275554 4.0033053,4.7444137 3.9995717,5.1238582 4,5.5038292 c 4.283e-4,0.3799712 0.00456,0.7588498 0.013672,1.076274 0.00911,0.3174241 0.016569,0.5426166 0.046875,0.7389984 0.2822615,1.8292004 1.5843765,3.2850584 3.2402343,3.6176544 0.4179082,0.08389 0.9521762,0.08376 1.3730469,0.0022 C 10.350101,10.61382 11.650199,9.163642 11.941406,7.3062626 11.972376,7.1087416 11.977616,6.8894702 11.986326,6.573709 11.995043,6.2578971 11.999772,5.8793866 12,5.4995328 12.000228,5.119679 11.996637,4.7396842 11.988281,4.423259 11.979926,4.1068338 11.973813,3.8879422 11.943359,3.6907052 11.796229,2.7384672 11.379056,1.8786976 10.740234,1.2030304 10.238002,0.6718293 9.6455222,0.3142112 8.9492188,0.1138671 8.6526111,0.0285257 8.3021372,-0.00217585 7.953125,9.8e-6 Z m 0.00586,1.0999046 c 0.2789266,-0.00175 0.5930628,0.036117 0.7363281,0.077337 0.5571445,0.1603046 0.9653733,0.4100194 1.3515629,0.8184837 0.49315,0.5215934 0.80002,1.1521177 0.912109,1.8775715 0.0028,0.018111 0.02135,0.2813584 0.0293,0.582176 0.0079,0.3008183 0.01194,0.6731397 0.01172,1.0440507 -2.23e-4,0.370911 -0.0054,0.7417489 -0.01367,1.0419018 -0.0083,0.3001529 -0.02692,0.5627094 -0.0293,0.5778795 C 10.735103,8.5348201 9.7662654,9.610577 8.5,9.856186 8.2722056,9.900359 7.6993917,9.897982 7.4804687,9.854038 6.2417614,9.605231 5.258561,8.5061859 5.046875,7.1343519 5.0428381,7.1081927 5.0223256,6.8473316 5.0136719,6.5457311 5.0050181,6.2441306 5.000418,5.872477 5,5.501681 4.999582,5.1308851 5.0037288,4.7606891 5.0117187,4.4597792 5.0197087,4.1588693 5.0394895,3.8958305 5.0429687,3.8733067 5.2623115,2.4532998 6.2424396,1.3743169 7.5214844,1.1364346 7.6323437,1.1158166 7.7928648,1.1009523 7.958985,1.0999144 Z"/><path id="path1521" style="color:#000;fill:#241f31;stroke-width:1;stroke-linecap:round;stroke-linejoin:round;-inkscape-stroke:none" d="m 3.5253906,10.000112 a 0.4999975,0.5999298 0 0 0 -0.359375,0.15467 0.4999975,0.5999298 0 0 0 -0.037109,0.845999 c -2e-7,0 1.4970495,2.020277 3.8710938,2.498158 v 2.500501 h 2 v -2.500501 c 2.3740436,-0.477881 3.8710936,-2.498158 3.8710936,-2.498158 a 0.4999975,0.5999298 0 0 0 -0.03711,-0.845999 0.4999975,0.5999298 0 0 0 -0.705078,0.04453 c 0,0 -1.675821,2.200534 -4.128906,2.200534 -2.4530851,0 -4.1289062,-2.200534 -4.1289062,-2.200534 a 0.4999975,0.5999298 0 0 0 -0.3457032,-0.1992 z"/></svg>