<svg xmlns="http://www.w3.org/2000/svg" xmlns:svg="http://www.w3.org/2000/svg" id="svg8" width="16.01" height="16.007" version="1.1"><path id="path2" fill="#363636" d="m 14,0.007 a 1,1 0 0 0 -1,1 v 1 H 1.51 c -0.822,0 -1.5,0.678 -1.5,1.5 v 8.994 c 0,0.823 0.678,1.5 1.5,1.5 H 13 v 2.006 h 1 v -4 h 2 l 0.01,-7.003 -2.005,0.003 v -3.5 c 0,0 0,-0.5 0.5,-0.5 h 1.5 v -1 z m -12.49,3 H 13 v 9.994 H 1.51 a 0.488,0.488 0 0 1 -0.5,-0.5 V 3.507 c 0,-0.286 0.214,-0.5 0.5,-0.5 z m 12.5,2.994 h 1 v 1 h -1 z m 0,2 h 1 v 1 h -1 z m 0,2 h 1 v 1 h -1 z" color="#000" font-family="sans-serif" font-weight="400" overflow="visible" style="line-height:normal;font-variant-ligatures:normal;font-variant-position:normal;font-variant-caps:normal;font-variant-numeric:normal;font-variant-alternates:normal;font-feature-settings:normal;text-indent:0;text-align:start;text-decoration-line:none;text-decoration-style:solid;text-decoration-color:#000;text-transform:none;text-orientation:mixed;shape-padding:0;isolation:auto;mix-blend-mode:normal;fill:#241f31" white-space="normal"/><path id="path935" style="color:#000;fill:#241f31;stroke-linecap:round;stroke-linejoin:round;-inkscape-stroke:none" d="M 6,4 V 8.2714844 C 5.7052236,8.099688 5.3634491,8 5,8 3.9013539,8 3,8.9013539 3,10 c 0,1.098646 0.9013539,2 2,2 1,0 2,-1 2,-2 V 5 h 3 V 8.2714844 C 9.7052236,8.099688 9.3634491,8 9,8 7.9013539,8 7,8.9013539 7,10 c 0,1.098646 0.9013539,2 2,2 1,0 2,-1 2,-2 V 4 Z M 5,9 C 5.5582065,9 6,9.4417935 6,10 6,10.558207 5.5582065,11 5,11 4.4417935,11 4,10.558207 4,10 4,9.4417935 4.4417935,9 5,9 Z m 4,0 c 0.5582065,0 1,0.4417935 1,1 0,0.558207 -0.4417935,1 -1,1 C 8.4417935,11 8,10.558207 8,10 8,9.4417935 8.4417935,9 9,9 Z"/></svg>