<svg xmlns="http://www.w3.org/2000/svg" xmlns:svg="http://www.w3.org/2000/svg" id="svg6" width="16" height="16" version="1.1"><path id="path2" style="fill:#241f31;stroke-linecap:round;stroke-linejoin:round;paint-order:stroke fill markers" d="m 10.707031,1.9960938 3.001953,3.0019531 H 16 v 6.0039061 h -2.291016 l -3.001953,3.001953 H 9.9960938 V 1.9960938 Z m 0.291016,1.7128906 V 12.291016 L 13.287109,10 H 15 V 6 h -1.712891 z"/><path style="color:#000;fill:#241f31;stroke-linecap:round;stroke-linejoin:round;-inkscape-stroke:none" id="path858" d="m 3.853516,1.1464844 3.9999996,4 a 0.5,0.5 0 0 1 0,0.7070312 0.5,0.5 0 0 1 -0.7070312,0 l -4.0000004,-4 a 0.5,0.5 0 0 1 0,-0.7070312 0.5,0.5 0 0 1 0.707032,0 z"/><path style="color:#000;fill:#241f31;stroke-linecap:round;stroke-linejoin:round;-inkscape-stroke:none" id="path860" d="M 7.5,7 A 0.5,0.5 0 0 1 8,7.5 0.5,0.5 0 0 1 7.5,8 h -6 A 0.5,0.5 0 0 1 1,7.5 0.5,0.5 0 0 1 1.5,7 Z"/><path style="color:#000;fill:#241f31;stroke-linecap:round;stroke-linejoin:round;-inkscape-stroke:none" id="path862" d="m 7.8535156,9.1464844 a 0.5,0.5 0 0 1 0,0.7070312 L 3.853516,13.853516 a 0.5,0.5 0 0 1 -0.707032,0 0.5,0.5 0 0 1 0,-0.707032 L 7.1464844,9.1464844 a 0.5,0.5 0 0 1 0.7070312,0 z"/></svg>