<?xml version="1.0" encoding="UTF-8" standalone="no"?>
<svg
   width="16"
   height="16"
   version="1.1"
   id="svg6"
   xmlns="http://www.w3.org/2000/svg"
   xmlns:svg="http://www.w3.org/2000/svg">
  <defs
     id="defs10" />
  <path
     id="path2"
     style="fill:#241f31;fill-opacity:0.5"
     d="M 4 0 C 2.892 0 2 0.892 2 2 L 2 14 C 2 15.108 2.892 16 4 16 L 8 16 L 8 15 L 4 15 C 3.446 15 3 14.554 3 14 L 3 2 C 3 1.446 3.446 1 4 1 L 12 1 C 12.554 1 13 1.446 13 2 L 13 8 L 14 8 L 14 2 C 14 0.892 13.108 0 12 0 L 4 0 z " />
  <path
     d="m5.508 2.977c0.28203-0.00454 0.51199 0.22496 0.508 0.507v3.532h1v-4.032h3v4.032h0.511c0.677-0.01 0.677 1.01 0 1h-1.511v-4.032h-1v4.032h-3v-4.532c-0.003896-0.27577 0.21624-0.50261 0.492-0.507z"
     fill="#363636"
     id="path4"
     style="fill:#241f31;fill-opacity:0.5" />
  <path
     id="rect1284"
     style="fill:#241f31;fill-opacity:1;stroke-linecap:round;stroke-linejoin:round;stop-color:#000000"
     d="M 11.5 10 C 11.223 10 11 10.223 11 10.5 L 11 12 L 10.5 12 C 10.223 12 10 12.223 10 12.5 L 10 15.5 C 10 15.777 10.223 16 10.5 16 L 14.5 16 C 14.777 16 15 15.777 15 15.5 L 15 12.5 C 15 12.223 14.777 12 14.5 12 L 14 12 L 14 10.5 C 14 10.223 13.777 10 13.5 10 L 11.5 10 z M 12 11 L 13 11 L 13 12 L 12 12 L 12 11 z M 11 13 L 14 13 L 14 15 L 11 15 L 11 13 z " />
</svg>
