<svg xmlns="http://www.w3.org/2000/svg" xmlns:svg="http://www.w3.org/2000/svg" id="svg8" width="16" height="16" version="1.1" viewBox="0 0 16 16" xml:space="preserve"><path style="color:#000;fill:#241f31;-inkscape-stroke:none" id="path4" d="M 5.25,2 C 3.4427957,2 2,3.6036233 2,5.5 v 5 C 2,12.396377 3.4427957,14 5.25,14 h 5.5 C 12.557205,14 14,12.396377 14,10.5 v -5 C 14,3.6036234 12.557205,2 10.75,2 Z m 0,1 h 5.5 C 11.957766,3 13,4.1073179 13,5.5 v 5 C 13,11.892682 11.957766,13 10.75,13 H 5.25 C 4.0422339,13 3,11.892682 3,10.5 v -5 C 3,4.1073179 4.0422339,3 5.25,3 Z"/><circle style="fill:#241f31;fill-opacity:1;stroke:none;stroke-width:1;stroke-linecap:round;stroke-linejoin:round;stroke-miterlimit:4;stroke-dasharray:none;stop-color:#000" id="path1119" cx="10.5" cy="4.5" r=".5"/><path style="color:#000;fill:#241f31;stroke-width:.857143;stroke-linecap:round;stroke-linejoin:round;-inkscape-stroke:none" id="path1" d="M 8,6 C 6.3483024,6 5,7.3483024 5,9 c 0,1.651697 1.3483024,3 3,3 1.6516971,0 3,-1.348303 3,-3 C 11,7.3483024 9.651698,6 8,6 Z m 0,0.8705357 c 1.1813529,0 2.129464,0.9481114 2.129464,2.1294643 0,1.181353 -0.9481111,2.129464 -2.129464,2.129464 C 6.8186471,11.129464 5.8705357,10.181353 5.8705357,9 5.8705357,7.8186471 6.8186471,6.8705357 8,6.8705357 Z"/></svg>