<?xml version="1.0" encoding="UTF-8" standalone="no"?>
<svg
   height="16px"
   viewBox="0 0 16 16"
   width="16px"
   version="1.1"
   id="svg8"
   xmlns="http://www.w3.org/2000/svg"
   xmlns:svg="http://www.w3.org/2000/svg">
  <defs
     id="defs12" />
  <path
     style="color:#000000;fill:#241f31;-inkscape-stroke:none"
     d="M 5.25,2 C 3.4427957,2 2,3.6036233 2,5.5 v 5 C 2,12.396377 3.4427957,14 5.25,14 h 5.5 C 12.557205,14 14,12.396377 14,10.5 v -5 C 14,3.6036234 12.557205,2 10.75,2 Z m 0,1 h 5.5 C 11.957766,3 13,4.1073179 13,5.5 v 5 C 13,11.892682 11.957766,13 10.75,13 H 5.25 C 4.0422339,13 3,11.892682 3,10.5 v -5 C 3,4.1073179 4.0422339,3 5.25,3 Z"
     id="path4" />
  <path
     style="color:#000000;fill:#241f31;stroke-linecap:round;stroke-linejoin:round;-inkscape-stroke:none"
     d="M 8,6 C 6.3490697,6 5,7.3490697 5,9 c 0,1.65093 1.3490697,3 3,3 1.6509303,0 3,-1.34907 3,-3 C 11,7.3490697 9.6509303,6 8,6 Z m 0,1 c 1.1104907,0 2,0.8895093 2,2 0,1.110491 -0.8895093,2 -2,2 C 6.8895093,11 6,10.110491 6,9 6,7.8895093 6.8895093,7 8,7 Z"
     id="path927" />
  <circle
     style="fill:#241f31;fill-opacity:1;stroke:none;stroke-width:1;stroke-linecap:round;stroke-linejoin:round;stroke-miterlimit:4;stroke-dasharray:none;stop-color:#000000"
     id="path1119"
     cx="10.5"
     cy="4.5"
     r="0.5" />
</svg>
