<?xml version="1.0" encoding="UTF-8" standalone="no"?>
<svg
   height="16px"
   viewBox="0 0 16 16"
   width="16px"
   version="1.1"
   id="svg8"
   sodipodi:docname="camera-symbolic.svg"
   xml:space="preserve"
   inkscape:version="1.3.2 (091e20ef0f, 2023-11-25)"
   xmlns:inkscape="http://www.inkscape.org/namespaces/inkscape"
   xmlns:sodipodi="http://sodipodi.sourceforge.net/DTD/sodipodi-0.dtd"
   xmlns="http://www.w3.org/2000/svg"
   xmlns:svg="http://www.w3.org/2000/svg"><sodipodi:namedview
     id="namedview1"
     pagecolor="#ffffff"
     bordercolor="#111111"
     borderopacity="1"
     inkscape:showpageshadow="0"
     inkscape:pageopacity="0"
     inkscape:pagecheckerboard="1"
     inkscape:deskcolor="#d1d1d1"
     showgrid="true"
     inkscape:zoom="47"
     inkscape:cx="8"
     inkscape:cy="8"
     inkscape:window-width="2560"
     inkscape:window-height="956"
     inkscape:window-x="0"
     inkscape:window-y="28"
     inkscape:window-maximized="1"
     inkscape:current-layer="svg8"><inkscape:grid
       id="grid1"
       units="px"
       originx="0"
       originy="0"
       spacingx="1"
       spacingy="1"
       empcolor="#0099e5"
       empopacity="0.30196078"
       color="#0099e5"
       opacity="0.14901961"
       empspacing="5"
       dotted="false"
       gridanglex="30"
       gridanglez="30"
       visible="true" /></sodipodi:namedview><defs
     id="defs12" /><path
     style="color:#000000;fill:#241f31;-inkscape-stroke:none"
     d="M 5.25,2 C 3.4427957,2 2,3.6036233 2,5.5 v 5 C 2,12.396377 3.4427957,14 5.25,14 h 5.5 C 12.557205,14 14,12.396377 14,10.5 v -5 C 14,3.6036234 12.557205,2 10.75,2 Z m 0,1 h 5.5 C 11.957766,3 13,4.1073179 13,5.5 v 5 C 13,11.892682 11.957766,13 10.75,13 H 5.25 C 4.0422339,13 3,11.892682 3,10.5 v -5 C 3,4.1073179 4.0422339,3 5.25,3 Z"
     id="path4" /><circle
     style="fill:#241f31;fill-opacity:1;stroke:none;stroke-width:1;stroke-linecap:round;stroke-linejoin:round;stroke-miterlimit:4;stroke-dasharray:none;stop-color:#000000"
     id="path1119"
     cx="10.5"
     cy="4.5000372"
     r="0.5" /><path
     style="color:#000000;fill:#241f31;stroke-width:0.857143;stroke-linecap:round;stroke-linejoin:round;-inkscape-stroke:none"
     d="M 8,6 C 6.3483024,6 5,7.3483024 5,9 c 0,1.651697 1.3483024,3 3,3 1.6516971,0 3,-1.348303 3,-3 C 11,7.3483024 9.651698,6 8,6 Z m 0,0.8705357 c 1.1813529,0 2.129464,0.9481114 2.129464,2.1294643 0,1.181353 -0.9481111,2.129464 -2.129464,2.129464 C 6.8186471,11.129464 5.8705357,10.181353 5.8705357,9 5.8705357,7.8186471 6.8186471,6.8705357 8,6.8705357 Z"
     id="path1" /></svg>
