<svg xmlns="http://www.w3.org/2000/svg" xmlns:svg="http://www.w3.org/2000/svg" id="svg6" width="16" height="16" version="1.1"><metadata id="metadata12"/><path style="color:#000;fill:#241f31;stroke-linecap:round;stroke-linejoin:round;-inkscape-stroke:none" id="path859" d="M 1.5,2 A 0.50005,0.50005 0 0 0 1,2.5 v 9 A 0.50005,0.50005 0 0 0 1.5,12 h 13 A 0.50005,0.50005 0 0 0 15,11.5 v -9 A 0.50005,0.50005 0 0 0 14.5,2 Z M 2,3 h 12 v 8 H 2 Z"/><path style="color:#000;fill:#241f31;stroke-width:.999996;stroke-linecap:round;stroke-linejoin:round;-inkscape-stroke:none" id="path1108" d="M 4.5,15 C 4.2238693,14.999984 4.0000279,14.657789 4,14.5 v -1 C 4,13.342204 4.2238578,13 4.5,13 4.7761422,13 5,13.342204 5,13.5 V 14 h 6 v -0.5 c 0,-0.157796 0.223858,-0.5 0.5,-0.5 0.276142,0 0.5,0.342204 0.5,0.5 v 1 c -2.8e-5,0.157789 -0.223869,0.499984 -0.5,0.5 z"/><g id="rect848"><path style="color:#000;fill:#241f31;fill-opacity:0;stroke-linecap:round;stroke-linejoin:round;-inkscape-stroke:none" id="path1168" d="m 8.5,4.5 h 3 v 5 h -3 z"/><path style="color:#000;fill:#241f31;stroke-linecap:round;stroke-linejoin:round;-inkscape-stroke:none" id="path1170" d="M 8.5,4 A 0.50005,0.50005 0 0 0 8,4.5 v 5 A 0.50005,0.50005 0 0 0 8.5,10 h 3 A 0.50005,0.50005 0 0 0 12,9.5 v -5 A 0.50005,0.50005 0 0 0 11.5,4 Z M 9,5 h 2 V 9 H 9 Z"/></g><path id="rect992" d="m 10,3 h 1 v 1 h -1 z" style="fill:#241f31;stroke-linecap:round;stroke-linejoin:round;stop-color:#000"/></svg>