<?xml version="1.0" encoding="UTF-8" standalone="no"?>
<svg
   height="16"
   width="16"
   version="1.1"
   id="svg6"
   xmlns="http://www.w3.org/2000/svg"
   xmlns:svg="http://www.w3.org/2000/svg"
   xmlns:rdf="http://www.w3.org/1999/02/22-rdf-syntax-ns#"
   xmlns:cc="http://creativecommons.org/ns#"
   xmlns:dc="http://purl.org/dc/elements/1.1/">
  <metadata
     id="metadata12">
    <rdf:RDF>
      <cc:Work
         rdf:about="">
        <dc:format>image/svg+xml</dc:format>
        <dc:type
           rdf:resource="http://purl.org/dc/dcmitype/StillImage" />
      </cc:Work>
    </rdf:RDF>
  </metadata>
  <defs
     id="defs10" />
  <path
     style="color:#000000;fill:#241f31;fill-opacity:1;stroke-linecap:round;stroke-linejoin:round;-inkscape-stroke:none"
     d="M 1,12 A 1.0001,-1.0001 0 0 1 0,11 V 1 A 1.0001,-1.0001 0 0 1 1,0 h 14 a 1.0001,-1.0001 0 0 1 1,1 v 10 a 1.0001,-1.0001 0 0 1 -1,1 z M 2,10 H 14 V 2 H 2 Z"
     id="rect951" />
  <path
     id="rect1077"
     style="fill:#241f31;fill-opacity:1;stroke:none;stroke-width:2;stroke-linecap:round;stroke-linejoin:round;stroke-opacity:0.5;stop-color:#000000"
     d="M 4,16 C 3.446,16 3,15.554 3,15 v -2 h 2 v 1 h 6 v -1 h 2 v 2 c 0,0.554 -0.446,1 -1,1 z" />
</svg>
