<svg xmlns="http://www.w3.org/2000/svg" xmlns:svg="http://www.w3.org/2000/svg" id="svg6" width="16" height="16" version="1.1"><metadata id="metadata12"/><path style="color:#000;fill:#241f31;stroke-width:.801784;stroke-linecap:round;stroke-linejoin:round;-inkscape-stroke:none" id="path859" d="M 3,2 C 2.3671312,1.9913132 2.0115325,2.4197207 2,3 v 7 c 0.018054,0.526092 0.3628153,0.950982 1,1 h 10 c 0.614453,-2.5e-5 1.005149,-0.456325 0.999802,-1 V 3 C 14.012822,2.4563258 13.581365,2.0034618 13,2 Z m 0,1 h 10 v 7 H 3 Z"/><path id="path459" style="fill:#241f31;stroke-width:1;stroke-linecap:round;stroke-linejoin:round;stop-color:#000" d="m 2,12 c 0,0 -1,0 -1,1 0.00738,0.63332 -0.0268936,0.367816 0,1 0,0 0,1 1.012869,1 H 14 c 0,0 1,0 1,-1.085907 C 15,13.385731 15,13.525438 15,13 15,12 14,12 14,12 9.9012568,12 5,12 2,12 Z m 0,1 h 12 v 1 H 2 Z"/></svg>