<?xml version="1.0" encoding="UTF-8" standalone="no"?>
<svg
   height="16px"
   viewBox="0 0 16 16"
   width="16px"
   version="1.1"
   id="svg10"
   xmlns="http://www.w3.org/2000/svg"
   xmlns:svg="http://www.w3.org/2000/svg">
  <defs
     id="defs14" />
  <path
     id="rect1009"
     style="color:#000000;fill:#241f31;stroke-linecap:round;stroke-linejoin:round;-inkscape-stroke:none"
     d="M 3 1 C 2.4546492 1 2 1.4546492 2 2 L 2 12.214844 L 2 14 C 2 14.204507 2.063197 14.396836 2.171875 14.556641 C 2.208101 14.609911 2.249464 14.65962 2.2949219 14.705078 C 2.3403799 14.750538 2.3900909 14.791898 2.4433594 14.828125 C 2.6031636 14.936803 2.7954934 15 3 15 L 13 15 C 13.204507 15 13.396836 14.9368 13.556641 14.828125 C 13.609911 14.791895 13.65962 14.750535 13.705078 14.705078 C 13.750538 14.659618 13.791898 14.609908 13.828125 14.556641 C 13.936803 14.396836 14 14.204507 14 14 L 14 12.214844 L 14 2 C 14 1.4546492 13.545351 1 13 1 L 3 1 z M 3 2 L 13 2 L 13 11 L 3 11 L 3 2 z M 3 12 L 9 12 L 9 13 L 10 13 L 10 12 L 11 12 L 11 13 L 12 13 L 12 12 L 13 12 L 13 14 L 3 14 L 3 12 z " />
  <path
     style="color:#000000;fill:#241f31;stroke-linecap:round;stroke-linejoin:round;-inkscape-stroke:none"
     d="M 5,3 C 4.4546492,3 4,3.4546492 4,4 v 5 c 0,0.5453508 0.4546492,1 1,1 h 5 c 0.545351,0 1,-0.4546492 1,-1 V 4 C 11,3.4546492 10.545351,3 10,3 Z m 0,1 h 5 V 9 H 5 Z"
     id="rect844" />
</svg>
