<?xml version="1.0" encoding="UTF-8" standalone="no"?>
<svg
   height="16px"
   viewBox="0 0 16 16"
   width="16px"
   version="1.1"
   id="svg4"
   xmlns="http://www.w3.org/2000/svg"
   xmlns:svg="http://www.w3.org/2000/svg">
  <defs
     id="defs8" />
  <path
     id="path2"
     style="fill:#241f31;stroke-width:1"
     d="M 14.623047 4.9921875 C 14.577607 4.9922752 14.533367 4.99549 14.488281 5 L 1.3339844 5 C 0.6131982 4.9826676 -0.06437007 5.589108 0 6.3339844 L 0 12 L 1 13 L 5 13 L 6 12 L 10 12 L 11 13 L 15 13 L 16 12 C 15.9975 10.181863 16.004994 8.0309258 15.996094 6.2128906 C 16.002994 5.480724 15.304665 4.9908723 14.623047 4.9921875 z M 3 6 L 4 6 L 4 8 L 6 8 L 6 9 L 4 9 L 4 11 L 3 11 L 3 9 L 1 9 L 1 8 L 3 8 L 3 6 z M 11 6 A 1 1 0 0 1 12 7 A 1 1 0 0 1 11 8 A 1 1 0 0 1 10 7 A 1 1 0 0 1 11 6 z M 14 9 A 1 1 0 0 1 15 10 A 1 1 0 0 1 14 11 A 1 1 0 0 1 13 10 A 1 1 0 0 1 14 9 z " />
</svg>
