<svg xmlns="http://www.w3.org/2000/svg" xmlns:svg="http://www.w3.org/2000/svg" id="svg6" width="16" height="16" version="1.1"><path id="path926" d="M 6,4 A 1,1 0 0 1 5,5 1,1 0 0 1 4,4 1,1 0 0 1 5,3 1,1 0 0 1 6,4 Z" style="fill:#241f31;stroke-linecap:round;stroke-linejoin:round;stop-color:#000"/><path id="path928" d="M 9,4 A 1,1 0 0 1 8,5 1,1 0 0 1 7,4 1,1 0 0 1 8,3 1,1 0 0 1 9,4 Z" style="fill:#241f31;stroke-linecap:round;stroke-linejoin:round;stop-color:#000"/><path id="path930" d="M 12,4 A 1,1 0 0 1 11,5 1,1 0 0 1 10,4 1,1 0 0 1 11,3 1,1 0 0 1 12,4 Z" style="fill:#241f31;stroke-linecap:round;stroke-linejoin:round;stop-color:#000"/><path id="path932" d="M 6,7 A 1,1 0 0 1 5,8 1,1 0 0 1 4,7 1,1 0 0 1 5,6 1,1 0 0 1 6,7 Z" style="fill:#241f31;stroke-linecap:round;stroke-linejoin:round;stop-color:#000"/><path id="path934" d="M 9,7 A 1,1 0 0 1 8,8 1,1 0 0 1 7,7 1,1 0 0 1 8,6 1,1 0 0 1 9,7 Z" style="fill:#241f31;stroke-linecap:round;stroke-linejoin:round;stop-color:#000"/><path id="path936" d="M 12,7 A 1,1 0 0 1 11,8 1,1 0 0 1 10,7 1,1 0 0 1 11,6 1,1 0 0 1 12,7 Z" style="fill:#241f31;stroke-linecap:round;stroke-linejoin:round;stop-color:#000"/><path id="path938" d="m 12,10 a 1,1 0 0 1 -1,1 1,1 0 0 1 -1,-1 1,1 0 0 1 1,-1 1,1 0 0 1 1,1 z" style="fill:#241f31;stroke-linecap:round;stroke-linejoin:round;stop-color:#000"/><path id="path940" d="M 9,10 A 1,1 0 0 1 8,11 1,1 0 0 1 7,10 1,1 0 0 1 8,9 1,1 0 0 1 9,10 Z" style="fill:#241f31;stroke-linecap:round;stroke-linejoin:round;stop-color:#000"/><path id="path942" d="M 6,10 A 1,1 0 0 1 5,11 1,1 0 0 1 4,10 1,1 0 0 1 5,9 1,1 0 0 1 6,10 Z" style="fill:#241f31;stroke-linecap:round;stroke-linejoin:round;stop-color:#000"/><path id="path944" d="M 9,13 A 1,1 0 0 1 8,14 1,1 0 0 1 7,13 1,1 0 0 1 8,12 1,1 0 0 1 9,13 Z" style="fill:#241f31;stroke-linecap:round;stroke-linejoin:round;stop-color:#000"/></svg>