<?xml version="1.0" encoding="UTF-8" standalone="no"?>
<svg
   height="16px"
   viewBox="0 0 16 16"
   width="16px"
   version="1.1"
   id="svg4"
   xmlns="http://www.w3.org/2000/svg"
   xmlns:svg="http://www.w3.org/2000/svg">
  <defs
     id="defs8" />
  <path
     id="path881"
     style="color:#000000;fill:#241f31;stroke-width:1;-inkscape-stroke:none"
     d="M 13.839949,2.0000083 C 14,2 14.029797,1.99659 14,2 H 2 C 2,2 0,2 0,4 l 0.00174288,7.844651 C 0.00101488,12.744943 0,13 0,14 c 1,0 4.7608858,0.0024 6,0 v -3 h 4 v 3 h 6 c 0,-1 -2.89e-4,-1.616608 -4.16e-4,-2.325865 v -0.0054 -0.01436 L 16,12 C 15.9978,9.7106631 16.0079,6.2964073 16,4 16,2 14,2 13.839935,2.0000684 Z M 14,12 c -1,0 -1.316123,0.0295 -2,0 V 10.089076 C 12,10.089076 12,9 11.01118,9 H 4.9958761 C 5,9 4,9 4,10 c 0,1 0,1 0,2 -0.4665655,0.01469 -1,0 -2,0 0,-3 4.1e-5,-5.6524173 0,-8 3,0 8.862236,-0.00313 12,0 0,2 -9.12e-4,5.9764915 0,8 z" />
  <path
     id="rect3065"
     style="fill:#241f31;fill-opacity:1;stroke:none;stroke-width:2;stroke-linecap:round;stroke-linejoin:round;stroke-opacity:1;stop-color:#000000"
     d="M 4,5 V 6 H 3 V 7 H 4 V 8 H 5 V 7 H 6 V 6 H 5 V 5 Z" />
  <circle
     style="fill:#241f31;fill-opacity:1;stroke:none;stroke-width:2;stroke-linecap:round;stroke-linejoin:round;stroke-opacity:1;stop-color:#000000"
     id="path3091"
     cx="9"
     cy="7"
     r="1" />
  <circle
     style="fill:#241f31;fill-opacity:1;stroke:none;stroke-width:2;stroke-linecap:round;stroke-linejoin:round;stroke-opacity:1;stop-color:#000000"
     id="path3093"
     cx="12"
     cy="7"
     r="1" />
</svg>
