<?xml version="1.0" encoding="UTF-8" standalone="no"?>
<svg
   width="16"
   height="16"
   version="1.1"
   id="svg6"
   xmlns="http://www.w3.org/2000/svg"
   xmlns:svg="http://www.w3.org/2000/svg">
  <defs
     id="defs10" />
  <path
     id="path2"
     style="fill:#241f31"
     d="M 2 1.0039062 C 1.446 1.0039062 1 1.4499062 1 2.0039062 L 1 13.003906 L 3 15.003906 L 14 15.003906 C 14.554 15.003906 15 14.557906 15 14.003906 L 15 2.0039062 C 15 1.4499063 14.554 1.0039064 14 1.0039062 L 2 1.0039062 z M 2 2 L 14 2 L 14 14 L 12 14.003906 L 12 14 L 11.5 14 L 10 14 L 10 14.003906 L 8 14.003906 L 8 14 L 4.5 14 L 4 14 L 4 14.003906 L 3.5 14.001953 L 2 12.501953 L 2 2 z " />
  <path
     id="rect1102"
     style="fill:#241f31;stroke-width:0.999999;stroke-linecap:round;stroke-linejoin:round;stop-color:#000000"
     d="m 9,10 h 2 v 4 H 9 Z" />
</svg>
