<svg xmlns="http://www.w3.org/2000/svg" xmlns:svg="http://www.w3.org/2000/svg" id="svg6" width="16" height="16" version="1.1"><metadata id="metadata12"/><path style="color:#000;fill:#241f31;stroke-linecap:round;stroke-linejoin:round;-inkscape-stroke:none" id="path1066" d="M 9,2.5 A 0.5,0.5 0 0 0 8.5,2 h -3 A 0.5,0.5 0 0 0 5,2.5 0.5,0.5 0 0 0 5.5,3 h 3 A 0.5,0.5 0 0 0 9,2.5 Z"/><path style="color:#000;fill:#241f31;stroke-linecap:round;stroke-linejoin:round;-inkscape-stroke:none" id="rect926" d="M 5.5,5 C 4.12365,5 3,6.12365 3,7.5 v 5 C 3,13.87635 4.12365,15 5.5,15 h 3 C 9.87635,15 11,13.87635 11,12.5 v -5 C 11,6.12365 9.87635,5 8.5,5 Z m 0,1 h 3 C 9.3396478,6 10,6.6603522 10,7.5 v 5 C 10,13.339648 9.3396478,14 8.5,14 h -3 C 4.6603522,14 4,13.339648 4,12.5 v -5 C 4,6.6603522 4.6603522,6 5.5,6 Z"/></svg>