<svg xmlns="http://www.w3.org/2000/svg" xmlns:svg="http://www.w3.org/2000/svg" id="svg10" width="16" height="16" version="1.1"><path style="paint-order:stroke fill markers;fill:#241f31" id="path2" fill="#363636" stroke-linecap="round" stroke-linejoin="round" stroke-width="2.39" d="m5 0c-1.108 0-2 0.892-2 2v12c0 1.108 0.892 2 2 2h6c1.108 0 2-0.892 2-2v-12c0-1.108-0.892-2-2-2h-6zm0 1h6c0.554 0 1 0.446 1 1v12c0 0.554-0.446 1-1 1h-6c-0.554 0-1-0.446-1-1v-12c0-0.554 0.446-1 1-1z"/><circle style="paint-order:stroke fill markers" id="circle4" cx="8" cy="13" r="1" fill="#363636" stroke-linecap="round" stroke-linejoin="round" stroke-width="2"/><rect id="rect6" width="8" height="1" x="4" y="7" fill="#363636" stroke-linecap="round" stroke-linejoin="round" stroke-width="2" rx="0" ry="0" style="paint-order:stroke fill markers"/><path style="paint-order:stroke fill markers" id="path8" fill="#363636" stroke-linecap="round" stroke-linejoin="round" stroke-width="2" d="m5 2v4h6v-4h-6zm1 1h4v2h-4v-2z"/></svg>