<svg xmlns="http://www.w3.org/2000/svg" xmlns:svg="http://www.w3.org/2000/svg" id="svg6" width="16" height="16" version="1.1"><metadata id="metadata12"/><circle style="fill:#241f31;stroke:none;stroke-linecap:round;stroke-linejoin:round;stop-color:#000" id="path1422" cx="5" cy="8" r="1"/><circle style="fill:#241f31;stroke:none;stroke-linecap:round;stroke-linejoin:round;stop-color:#000" id="path1424" cx="8" cy="8" r="1"/><circle style="fill:#241f31;stroke:none;stroke-linecap:round;stroke-linejoin:round;stop-color:#000" id="path1426" cx="11" cy="8" r="1"/><path style="color:#000;fill:#241f31;stroke-linecap:round;stroke-linejoin:round;-inkscape-stroke:none" id="path862" d="M 3.1855469,2.5351563 A 0.5,0.5 0 0 0 2.5351563,2.8144531 l -2.00000005,5 a 0.50005,0.50005 0 0 0 0,0.3710938 L 2.5351563,13.185547 a 0.5,0.5 0 0 0 0.6503906,0.279297 0.5,0.5 0 0 0 0.2792969,-0.650391 L 1.5390625,8 3.4648438,3.1855469 A 0.5,0.5 0 0 0 3.1855469,2.5351563 Z"/><path style="color:#000;fill:#241f31;stroke-linecap:round;stroke-linejoin:round;-inkscape-stroke:none" id="path864" d="M 12.814453,2.5351563 A 0.5,0.5 0 0 0 12.535156,3.1855469 L 14.460938,8 12.535156,12.814453 a 0.5,0.5 0 0 0 0.279297,0.650391 0.5,0.5 0 0 0 0.650391,-0.279297 l 2,-5.0000001 a 0.50005,0.50005 0 0 0 0,-0.3710938 l -2,-5 A 0.5,0.5 0 0 0 12.814453,2.5351563 Z"/></svg>