<svg xmlns="http://www.w3.org/2000/svg" xmlns:svg="http://www.w3.org/2000/svg" id="svg8" width="16" height="16" version="1.1"><path id="path2" fill="#363636" stroke-linecap="round" stroke-linejoin="round" stroke-width="2" d="m3 1c-0.554 0-1 0.446-1 1v13c0 0.554 0.446 1 1 1h10c0.554 0 1-0.446 1-1v-13c0-0.554-0.446-1-1-1h-10zm0 1h10v13h-10v-13z" style="paint-order:stroke fill markers;fill:#241f31"/><path id="path4" fill="#363636" stroke-linecap="round" stroke-linejoin="round" stroke-width="2" d="M 15.5,3 C 15,3 15,3 15,3 l -7,7 c 0,1 1,1 1,1 0,0 4.645502,-4.629873 7,-7 0,-1 -1,-1 -0.50001,-1 z" style="fill:#241f31;paint-order:stroke fill markers"/><circle cx="4.5" cy="3.5" r=".5" fill="#363636" stroke-linecap="round" stroke-linejoin="round" stroke-width="2" style="paint-order:stroke fill markers;fill:#241f31" id="circle6"/></svg>