<svg xmlns="http://www.w3.org/2000/svg" xmlns:svg="http://www.w3.org/2000/svg" id="svg6" width="16" height="16" version="1.1"><g id="g4" fill="#363636" stroke-linecap="round" stroke-linejoin="round" stroke-width="2" style="paint-order:stroke fill markers;fill:#241f31" aria-label=""><path id="path2" stroke-width="2" d="m12 0q0.21094 0 0.39062 0.078125 0.17969 0.078125 0.3125 0.21875 0.14062 0.13281 0.21875 0.3125t0.078125 0.39062v14q0 0.21094-0.07813 0.39062-0.07813 0.17969-0.21875 0.32031-0.13281 0.13281-0.3125 0.21094-0.17968 0.078125-0.39062 0.078125h-8q-0.21094 0-0.39062-0.078125t-0.32031-0.21094q-0.13281-0.14062-0.21094-0.32031-0.078125-0.17969-0.078125-0.39062v-14q0-0.21094 0.078125-0.39062t0.21094-0.3125q0.14062-0.14062 0.32031-0.21875t0.39062-0.078125zm0 1h-8v14h8zm-5 12h2v1h-2z" style="fill:#241f31"/></g></svg>