<?xml version="1.0" encoding="UTF-8" standalone="no"?>
<svg
   width="16"
   height="16"
   version="1.1"
   id="svg6"
   xmlns="http://www.w3.org/2000/svg"
   xmlns:svg="http://www.w3.org/2000/svg">
  <defs
     id="defs10" />
  <path
     d="m 12,15.99999 q 0.21094,0 0.39062,-0.07813 0.17969,-0.07813 0.3125,-0.21875 0.14062,-0.13281 0.21875,-0.3125 Q 13,15.210925 13,14.999995 v -14 Q 13,0.789055 12.92187,0.609375 12.84374,0.429685 12.70312,0.289065 12.57031,0.156255 12.39062,0.078125 12.21094,-5e-6 12,-5e-6 H 4 q -0.21094,0 -0.39062,0.07813 Q 3.4297,0.156255 3.28907,0.289065 3.15626,0.429685 3.07813,0.609375 3,0.789065 3,0.999995 v 14 q 0,0.21094 0.078125,0.39062 0.078125,0.17968 0.21094,0.3125 0.14062,0.14062 0.32031,0.21875 0.17969,0.07813 0.39062,0.07813 z m 0,-1 H 4 v -14 h 8 z m -5,-12 h 2 v -1 H 7 Z"
     stroke-width="2"
     id="path2"
     style="fill:#241f31;stroke-linecap:round;stroke-linejoin:round;paint-order:stroke fill markers" />
  <rect
     style="fill:#241f31;stroke-width:1;stroke-linecap:round;stroke-linejoin:round;stop-color:#000000"
     id="rect853"
     width="2"
     height="2"
     x="7"
     y="12"
     rx="0.5"
     ry="0.5" />
</svg>
