<svg xmlns="http://www.w3.org/2000/svg" xmlns:svg="http://www.w3.org/2000/svg" id="svg6" width="16" height="16" version="1.1"><path id="path2" style="fill:#241f31;stroke-linecap:round;stroke-linejoin:round;paint-order:stroke fill markers" d="M 4 0 C 3.85938 -3.3333333e-06 3.7291683 0.026038333 3.609375 0.078125 C 3.4895817 0.13021167 3.3828092 0.20312833 3.2890625 0.296875 C 3.2005192 0.38542167 3.1302083 0.48958833 3.078125 0.609375 C 3.0260417 0.72916167 3 0.85937333 3 1 L 3 15 C 3 15.14062 3.0260383 15.270832 3.078125 15.390625 C 3.1302117 15.510418 3.2005225 15.617191 3.2890625 15.710938 C 3.3828158 15.799478 3.4895883 15.869788 3.609375 15.921875 C 3.7291617 15.973962 3.8593733 16 4 16 L 12 16 C 12.140627 16 12.270838 15.973962 12.390625 15.921875 C 12.510418 15.869788 12.614585 15.799478 12.703125 15.710938 C 12.796872 15.617191 12.869788 15.510418 12.921875 15.390625 C 12.973962 15.270838 13 15.140627 13 15 L 13 1 C 13 0.85938 12.973962 0.72916833 12.921875 0.609375 C 12.869788 0.48958167 12.796872 0.385415 12.703125 0.296875 C 12.614585 0.203125 12.510418 0.13020833 12.390625 0.078125 C 12.270838 0.026041667 12.140627 0 12 0 L 4 0 z M 4 1 L 12 1 L 12 15 L 4 15 L 4 1 z"/><path style="color:#000;fill:#241f31;stroke-linecap:round;stroke-linejoin:round;-inkscape-stroke:none" id="path986" d="M 9.2910156,2.59375 A 0.5,0.5 0 0 0 8.59375,2.7089844 l -2.5,3.5 A 0.50005,0.50005 0 0 0 6.5,7 H 8.5292969 L 6.59375,9.7089844 A 0.5,0.5 0 0 0 6.7089844,10.40625 0.5,0.5 0 0 0 7.40625,10.291016 l 2.5,-3.5000004 A 0.50005,0.50005 0 0 0 9.5,6 H 7.4707031 L 9.40625,3.2910156 A 0.5,0.5 0 0 0 9.2910156,2.59375 Z"/><path id="path1370" style="fill:#241f31;stroke-linecap:round;stroke-linejoin:round;stop-color:#000" d="m 11,13 a 1,1 0 0 1 -1,1 1,1 0 0 1 -1,-1 1,1 0 0 1 1,-1 1,1 0 0 1 1,1 z"/></svg>