<?xml version="1.0" encoding="UTF-8" standalone="no"?>
<svg
   height="16"
   width="16"
   version="1.1"
   id="svg6"
   xmlns="http://www.w3.org/2000/svg"
   xmlns:svg="http://www.w3.org/2000/svg"
   xmlns:rdf="http://www.w3.org/1999/02/22-rdf-syntax-ns#"
   xmlns:cc="http://creativecommons.org/ns#"
   xmlns:dc="http://purl.org/dc/elements/1.1/">
  <metadata
     id="metadata12">
    <rdf:RDF>
      <cc:Work
         rdf:about="">
        <dc:format>image/svg+xml</dc:format>
        <dc:type
           rdf:resource="http://purl.org/dc/dcmitype/StillImage" />
      </cc:Work>
    </rdf:RDF>
  </metadata>
  <defs
     id="defs10" />
  <path
     id="path859"
     style="color:#000000;fill:#241f31;stroke-linecap:round;stroke-linejoin:round;-inkscape-stroke:none"
     d="M 1.5 2 A 0.50005 0.50005 0 0 0 1 2.5 L 1 11.5 A 0.50005 0.50005 0 0 0 1.5 12 L 14.5 12 A 0.50005 0.50005 0 0 0 15 11.5 L 15 7 L 15 2.5 A 0.50005 0.50005 0 0 0 14.5 2 L 1.5 2 z M 2 3 L 14 3 L 14 6 L 8 6 C 7 6 7 7 7 7 L 7 11 L 2 11 L 2 3 z M 8 7 L 14 7 L 14 11 L 8 11 L 8 7 z " />
  <path
     style="color:#000000;fill:#241f31;stroke-width:0.999996;stroke-linecap:round;stroke-linejoin:round;-inkscape-stroke:none"
     d="M 4.5,15 C 4.2238693,14.999984 4.0000279,14.657789 4,14.5 v -1 C 4,13.342204 4.2238578,13 4.5,13 4.7761422,13 5,13.342204 5,13.5 V 14 h 6 v -0.5 c 0,-0.157796 0.223858,-0.5 0.5,-0.5 0.276142,0 0.5,0.342204 0.5,0.5 v 1 c -2.8e-5,0.157789 -0.223869,0.499984 -0.5,0.5 z"
     id="path1108" />
</svg>
