<svg xmlns="http://www.w3.org/2000/svg" xmlns:svg="http://www.w3.org/2000/svg" id="svg19" width="128" height="128" fill="none" version="1.1" viewBox="0 0 128 128" xml:space="preserve"><rect style="mix-blend-mode:normal;fill:#e25480;filter:url(#filter0_i_314_102);fill-opacity:1" id="rect1" width="104" height="104" x="12" y="12" fill="#828292" rx="52"/><rect style="fill:url(#paint0_linear_314_102);stroke:none;stroke-opacity:1;filter:url(#filter0_i_314_102)" id="rect2" width="104" height="104" x="12" y="12" fill="url(#paint0_linear_314_102)" rx="52" ry="52"/><defs id="defs19"><filter id="filter0_i_314_102" width="104" height="104" x="12" y="12" color-interpolation-filters="sRGB" filterUnits="userSpaceOnUse"><feFlood id="feFlood6" flood-opacity="0" result="BackgroundImageFix"/><feBlend id="feBlend6" in="SourceGraphic" in2="BackgroundImageFix" mode="normal" result="shape"/><feColorMatrix id="feColorMatrix6" in="SourceAlpha" result="hardAlpha" type="matrix" values="0 0 0 0 0 0 0 0 0 0 0 0 0 0 0 0 0 0 127 0"/><feOffset id="feOffset6" dy="-4"/><feComposite id="feComposite6" in2="hardAlpha" k1="0" k2="-1" k3="1" k4="0" operator="arithmetic"/><feColorMatrix id="feColorMatrix7" type="matrix" values="0 0 0 0 0.176471 0 0 0 0 0.176471 0 0 0 0 0.176471 0 0 0 0.1 0"/><feBlend id="feBlend7" in2="shape" mode="normal" result="effect1_innerShadow_314_102"/></filter><filter id="filter1_d_314_102" width="88.84" height="88.841" x="20.421" y="23.42" color-interpolation-filters="sRGB" filterUnits="userSpaceOnUse"><feFlood id="feFlood7" flood-opacity="0" result="BackgroundImageFix"/><feColorMatrix id="feColorMatrix8" in="SourceAlpha" result="hardAlpha" type="matrix" values="0 0 0 0 0 0 0 0 0 0 0 0 0 0 0 0 0 0 127 0"/><feOffset id="feOffset8" dy="4"/><feGaussianBlur id="feGaussianBlur8" stdDeviation="4"/><feComposite id="feComposite8" in2="hardAlpha" operator="out"/><feColorMatrix id="feColorMatrix9" type="matrix" values="0 0 0 0 0.176471 0 0 0 0 0.176471 0 0 0 0 0.176471 0 0 0 0.25 0"/><feBlend id="feBlend9" in2="BackgroundImageFix" mode="normal" result="effect1_dropShadow_314_102"/><feBlend id="feBlend10" in="SourceGraphic" in2="effect1_dropShadow_314_102" mode="normal" result="shape"/></filter><filter id="filter2_i_314_102" width="57.977" height="59.093" x="35.715" y="34.457" color-interpolation-filters="sRGB" filterUnits="userSpaceOnUse"><feFlood id="feFlood10" flood-opacity="0" result="BackgroundImageFix"/><feBlend id="feBlend11" in="SourceGraphic" in2="BackgroundImageFix" mode="normal" result="shape"/><feColorMatrix id="feColorMatrix11" in="SourceAlpha" result="hardAlpha" type="matrix" values="0 0 0 0 0 0 0 0 0 0 0 0 0 0 0 0 0 0 127 0"/><feOffset id="feOffset11" dy="-4"/><feComposite id="feComposite11" in2="hardAlpha" k2="-1" k3="1" operator="arithmetic"/><feColorMatrix id="feColorMatrix12" type="matrix" values="0 0 0 0 0 0 0 0 0 0 0 0 0 0 0 0 0 0 0.1 0"/><feBlend id="feBlend12" in2="shape" mode="normal" result="effect1_innerShadow_314_102"/></filter><filter id="filter3_i_314_102" width="72.84" height="72.841" x="28.421" y="27.42" color-interpolation-filters="sRGB" filterUnits="userSpaceOnUse"><feFlood id="feFlood12" flood-opacity="0" result="BackgroundImageFix"/><feBlend id="feBlend13" in="SourceGraphic" in2="BackgroundImageFix" mode="normal" result="shape"/><feColorMatrix id="feColorMatrix13" in="SourceAlpha" result="hardAlpha" type="matrix" values="0 0 0 0 0 0 0 0 0 0 0 0 0 0 0 0 0 0 127 0"/><feOffset id="feOffset13" dy="-4"/><feComposite id="feComposite13" in2="hardAlpha" k2="-1" k3="1" operator="arithmetic"/><feColorMatrix id="feColorMatrix14" type="matrix" values="0 0 0 0 0 0 0 0 0 0 0 0 0 0 0 0 0 0 0.1 0"/><feBlend id="feBlend14" in2="shape" mode="normal" result="effect1_innerShadow_314_102"/></filter><linearGradient id="paint0_linear_314_102" x1="64" x2="64" y1="12" y2="116" gradientUnits="userSpaceOnUse"><stop style="stop-color:#000;stop-opacity:0" id="stop14" offset="0" stop-color="#2D2D2D" stop-opacity="0"/><stop style="stop-color:#000;stop-opacity:.1975728" id="stop15" offset="1" stop-color="#2D2D2D" stop-opacity=".2"/></linearGradient><linearGradient id="paint1_linear_314_102" x1="73.829" x2="73.829" y1="34.457" y2="93.55" gradientTransform="translate(0.76139224,0.23301139)" gradientUnits="userSpaceOnUse"><stop id="stop16" stop-color="#2D2D2D" stop-opacity="0"/><stop id="stop17" offset="1" stop-color="#2D2D2D" stop-opacity=".2"/></linearGradient><linearGradient id="paint2_linear_314_102" x1="76.306" x2="76.306" y1="27.42" y2="100.261" gradientTransform="translate(0.76139224,0.23301139)" gradientUnits="userSpaceOnUse"><stop id="stop18" stop-color="#2D2D2D" stop-opacity="0"/><stop id="stop19" offset="1" stop-color="#2D2D2D" stop-opacity=".2"/></linearGradient><filter id="filter0_i_314_102-6" width="104" height="104" x="12" y="12" color-interpolation-filters="sRGB" filterUnits="userSpaceOnUse"><feFlood id="feFlood22" flood-opacity="0" result="BackgroundImageFix"/><feBlend id="feBlend24" in="SourceGraphic" in2="BackgroundImageFix" mode="normal" result="shape"/><feColorMatrix id="feColorMatrix26" in="SourceAlpha" result="hardAlpha" type="matrix" values="0 0 0 0 0 0 0 0 0 0 0 0 0 0 0 0 0 0 127 0"/><feOffset id="feOffset28" dy="-4"/><feComposite id="feComposite30" in2="hardAlpha" k2="-1" k3="1" operator="arithmetic"/><feColorMatrix id="feColorMatrix32" type="matrix" values="0 0 0 0 0.176471 0 0 0 0 0.176471 0 0 0 0 0.176471 0 0 0 0.1 0"/><feBlend id="feBlend34" in2="shape" mode="normal" result="effect1_innerShadow_314_102"/></filter><filter id="filter1_d_314_102-7" width="88.84" height="88.841" x="20.421" y="23.42" color-interpolation-filters="sRGB" filterUnits="userSpaceOnUse"><feFlood id="feFlood37" flood-opacity="0" result="BackgroundImageFix"/><feColorMatrix id="feColorMatrix39" in="SourceAlpha" result="hardAlpha" type="matrix" values="0 0 0 0 0 0 0 0 0 0 0 0 0 0 0 0 0 0 127 0"/><feOffset id="feOffset41" dy="4"/><feGaussianBlur id="feGaussianBlur43" stdDeviation="4"/><feComposite id="feComposite45" in2="hardAlpha" operator="out"/><feColorMatrix id="feColorMatrix47" type="matrix" values="0 0 0 0 0.176471 0 0 0 0 0.176471 0 0 0 0 0.176471 0 0 0 0.25 0"/><feBlend id="feBlend49" in2="BackgroundImageFix" mode="normal" result="effect1_dropShadow_314_102"/><feBlend id="feBlend51" in="SourceGraphic" in2="effect1_dropShadow_314_102" mode="normal" result="shape"/></filter><filter id="filter2_i_314_102-5" width="57.977" height="59.093" x="35.715" y="34.457" color-interpolation-filters="sRGB" filterUnits="userSpaceOnUse"><feFlood id="feFlood54" flood-opacity="0" result="BackgroundImageFix"/><feBlend id="feBlend56" in="SourceGraphic" in2="BackgroundImageFix" mode="normal" result="shape"/><feColorMatrix id="feColorMatrix58" in="SourceAlpha" result="hardAlpha" type="matrix" values="0 0 0 0 0 0 0 0 0 0 0 0 0 0 0 0 0 0 127 0"/><feOffset id="feOffset60" dy="-4"/><feComposite id="feComposite62" in2="hardAlpha" k2="-1" k3="1" operator="arithmetic"/><feColorMatrix id="feColorMatrix64" type="matrix" values="0 0 0 0 0 0 0 0 0 0 0 0 0 0 0 0 0 0 0.1 0"/><feBlend id="feBlend66" in2="shape" mode="normal" result="effect1_innerShadow_314_102"/></filter><filter id="filter3_i_314_102-3" width="72.84" height="72.841" x="28.421" y="27.42" color-interpolation-filters="sRGB" filterUnits="userSpaceOnUse"><feFlood id="feFlood69" flood-opacity="0" result="BackgroundImageFix"/><feBlend id="feBlend71" in="SourceGraphic" in2="BackgroundImageFix" mode="normal" result="shape"/><feColorMatrix id="feColorMatrix73" in="SourceAlpha" result="hardAlpha" type="matrix" values="0 0 0 0 0 0 0 0 0 0 0 0 0 0 0 0 0 0 127 0"/><feOffset id="feOffset75" dy="-4"/><feComposite id="feComposite77" in2="hardAlpha" k2="-1" k3="1" operator="arithmetic"/><feColorMatrix id="feColorMatrix79" type="matrix" values="0 0 0 0 0 0 0 0 0 0 0 0 0 0 0 0 0 0 0.1 0"/><feBlend id="feBlend81" in2="shape" mode="normal" result="effect1_innerShadow_314_102"/></filter><linearGradient id="paint0_linear_314_102-5" x1="64" x2="64" y1="12" y2="116" gradientTransform="translate(80.5553,-7.0146327)" gradientUnits="userSpaceOnUse"><stop id="stop84" stop-color="#2D2D2D" stop-opacity="0"/><stop id="stop86" offset="1" stop-color="#2D2D2D" stop-opacity=".2"/></linearGradient><style id="current-color-scheme" type="text/css"/></defs><path style="fill:#fff;stroke-width:1" id="path2" fill="#363636" d="m 42.642857,45.92857 v 36.142862 c 0,0 0,4.928569 4.928571,4.928569 h 32.857143 c 4.928572,0 4.928572,-4.928569 4.928572,-4.928569 V 45.92857 c 0,0 0,-4.928571 -4.928572,-4.928571 H 47.571428 c -4.928571,0 -4.928571,4.928571 -4.928571,4.928571 z m 4.928571,-1.642857 h 32.857143 c 0,0 1.642857,0 1.642857,1.642857 v 6.571429 c 0,1.642857 -1.642857,1.642857 -1.642857,1.642857 H 47.571428 c -1.642857,0 -1.642857,-1.642857 -1.642857,-1.642857 V 45.92857 c 0,0 0,-1.642857 1.642857,-1.642857 z M 46.539714,57.42857 H 51.879 c 0.361428,0 0.614428,0.262857 0.614428,0.624286 v 5.339286 c 0,0.328571 -0.253,0.591428 -0.617714,0.591428 H 46.536428 A 0.59471429,0.59471429 0 0 1 45.922,63.359284 v -5.339286 c 0,-0.328571 0.253,-0.591429 0.617714,-0.591428 z m 9.857143,0 h 5.339285 c 0.361429,0 0.614429,0.262857 0.614429,0.624286 v 5.339286 c 0,0.328571 -0.253,0.591428 -0.617714,0.591428 h -5.339286 a 0.59471429,0.59471429 0 0 1 -0.614429,-0.624286 v -5.339286 c 0,-0.328571 0.253,-0.591429 0.617715,-0.591428 z m 9.857143,0 h 5.339285 c 0.361429,0 0.614429,0.262857 0.614429,0.624286 v 5.339286 c 0,0.328571 -0.253,0.591428 -0.617714,0.591428 h -5.339286 a 0.59471429,0.59471429 0 0 1 -0.614429,-0.624286 v -5.339286 c 0,-0.328571 0.253,-0.591429 0.617715,-0.591428 z m 9.857143,0 h 5.339285 c 0.361429,0 0.614429,0.262857 0.614429,0.624286 v 5.339286 c 0,0.328571 -0.253,0.591428 -0.617714,0.591428 h -5.339286 a 0.59471429,0.59471429 0 0 1 -0.614429,-0.624286 v -5.339286 c 0,-0.328571 0.253,-0.591429 0.617715,-0.591428 z M 46.539714,67.285713 H 51.879 c 0.361428,0 0.614428,0.262856 0.614428,0.624285 v 5.339286 c 0,0.328571 -0.253,0.591429 -0.617714,0.591429 H 46.536428 A 0.59471429,0.59471429 0 0 1 45.922,73.216427 v -5.339285 c 0,-0.328572 0.253,-0.591429 0.617714,-0.591429 z m 9.857143,0 h 5.339285 c 0.361429,0 0.614429,0.262856 0.614429,0.624285 v 5.339286 c 0,0.328571 -0.253,0.591429 -0.617714,0.591429 h -5.339286 a 0.59471429,0.59471429 0 0 1 -0.614429,-0.624286 v -5.339285 c 0,-0.328572 0.253,-0.591429 0.617715,-0.591429 z m 9.857143,0 h 5.339285 c 0.361429,0 0.614429,0.262856 0.614429,0.624285 v 5.339286 c 0,0.328571 -0.253,0.591429 -0.617714,0.591429 h -5.339286 a 0.59471429,0.59471429 0 0 1 -0.614429,-0.624286 v -5.339285 c 0,-0.328572 0.253,-0.591429 0.617715,-0.591429 z m 9.857143,0 h 5.339285 c 0.361429,0 0.614429,0.262856 0.614429,0.624285 v 5.339286 c 0,0.328571 -0.253,0.591429 -0.617714,0.591429 h -5.339286 a 0.59471429,0.59471429 0 0 1 -0.614429,-0.624286 v -5.339285 c 0,-0.328572 0.253,-0.591429 0.617715,-0.591429 z M 46.539714,77.142856 H 51.879 c 0.361428,0 0.614428,0.262857 0.614428,0.624286 v 5.33929 c 0,0.32857 -0.253,0.59142 -0.617714,0.59142 H 46.536428 A 0.59471429,0.59471429 0 0 1 45.922,83.073572 v -5.339288 c 0,-0.328571 0.253,-0.591428 0.617714,-0.591428 z m 9.857143,0 h 5.339285 c 0.361429,0 0.614429,0.262857 0.614429,0.624286 v 5.33929 c 0,0.32857 -0.253,0.59142 -0.617714,0.59142 h -5.339286 a 0.59471429,0.59471429 0 0 1 -0.614429,-0.62428 v -5.339288 c 0,-0.328571 0.253,-0.591428 0.617715,-0.591428 z m 9.857143,0 h 5.339285 c 0.361429,0 0.614429,0.262857 0.614429,0.624286 v 5.33929 c 0,0.32857 -0.253,0.59142 -0.617714,0.59142 h -5.339286 a 0.59471429,0.59471429 0 0 1 -0.614429,-0.62428 v -5.339288 c 0,-0.328571 0.253,-0.591428 0.617715,-0.591428 z m 9.857143,0 h 5.339285 c 0.361429,0 0.614429,0.262857 0.614429,0.624286 v 5.33929 c 0,0.32857 -0.253,0.59142 -0.617714,0.59142 h -5.339286 a 0.59471429,0.59471429 0 0 1 -0.614429,-0.62428 v -5.339288 c 0,-0.328571 0.253,-0.591428 0.617715,-0.591428 z"/></svg>