<svg xmlns="http://www.w3.org/2000/svg" xmlns:svg="http://www.w3.org/2000/svg" id="svg19" width="128" height="128" fill="none" version="1.1" viewBox="0 0 128 128" xml:space="preserve"><rect style="mix-blend-mode:normal;fill:#6ac9ff;filter:url(#filter0_i_314_102);fill-opacity:1" id="rect1" width="104" height="104" x="12" y="12" fill="#828292" rx="52"/><rect style="fill:url(#paint0_linear_314_102);stroke:none;stroke-opacity:1;filter:url(#filter0_i_314_102)" id="rect2" width="104" height="104" x="12" y="12" fill="url(#paint0_linear_314_102)" rx="52" ry="52"/><defs id="defs19"><filter id="filter0_i_314_102" width="104" height="104" x="12" y="12" color-interpolation-filters="sRGB" filterUnits="userSpaceOnUse"><feFlood id="feFlood6" flood-opacity="0" result="BackgroundImageFix"/><feBlend id="feBlend6" in="SourceGraphic" in2="BackgroundImageFix" mode="normal" result="shape"/><feColorMatrix id="feColorMatrix6" in="SourceAlpha" result="hardAlpha" type="matrix" values="0 0 0 0 0 0 0 0 0 0 0 0 0 0 0 0 0 0 127 0"/><feOffset id="feOffset6" dy="-4"/><feComposite id="feComposite6" in2="hardAlpha" k1="0" k2="-1" k3="1" k4="0" operator="arithmetic"/><feColorMatrix id="feColorMatrix7" type="matrix" values="0 0 0 0 0.176471 0 0 0 0 0.176471 0 0 0 0 0.176471 0 0 0 0.1 0"/><feBlend id="feBlend7" in2="shape" mode="normal" result="effect1_innerShadow_314_102"/></filter><filter id="filter1_d_314_102" width="88.84" height="88.841" x="20.421" y="23.42" color-interpolation-filters="sRGB" filterUnits="userSpaceOnUse"><feFlood id="feFlood7" flood-opacity="0" result="BackgroundImageFix"/><feColorMatrix id="feColorMatrix8" in="SourceAlpha" result="hardAlpha" type="matrix" values="0 0 0 0 0 0 0 0 0 0 0 0 0 0 0 0 0 0 127 0"/><feOffset id="feOffset8" dy="4"/><feGaussianBlur id="feGaussianBlur8" stdDeviation="4"/><feComposite id="feComposite8" in2="hardAlpha" operator="out"/><feColorMatrix id="feColorMatrix9" type="matrix" values="0 0 0 0 0.176471 0 0 0 0 0.176471 0 0 0 0 0.176471 0 0 0 0.25 0"/><feBlend id="feBlend9" in2="BackgroundImageFix" mode="normal" result="effect1_dropShadow_314_102"/><feBlend id="feBlend10" in="SourceGraphic" in2="effect1_dropShadow_314_102" mode="normal" result="shape"/></filter><filter id="filter2_i_314_102" width="57.977" height="59.093" x="35.715" y="34.457" color-interpolation-filters="sRGB" filterUnits="userSpaceOnUse"><feFlood id="feFlood10" flood-opacity="0" result="BackgroundImageFix"/><feBlend id="feBlend11" in="SourceGraphic" in2="BackgroundImageFix" mode="normal" result="shape"/><feColorMatrix id="feColorMatrix11" in="SourceAlpha" result="hardAlpha" type="matrix" values="0 0 0 0 0 0 0 0 0 0 0 0 0 0 0 0 0 0 127 0"/><feOffset id="feOffset11" dy="-4"/><feComposite id="feComposite11" in2="hardAlpha" k2="-1" k3="1" operator="arithmetic"/><feColorMatrix id="feColorMatrix12" type="matrix" values="0 0 0 0 0 0 0 0 0 0 0 0 0 0 0 0 0 0 0.1 0"/><feBlend id="feBlend12" in2="shape" mode="normal" result="effect1_innerShadow_314_102"/></filter><filter id="filter3_i_314_102" width="72.84" height="72.841" x="28.421" y="27.42" color-interpolation-filters="sRGB" filterUnits="userSpaceOnUse"><feFlood id="feFlood12" flood-opacity="0" result="BackgroundImageFix"/><feBlend id="feBlend13" in="SourceGraphic" in2="BackgroundImageFix" mode="normal" result="shape"/><feColorMatrix id="feColorMatrix13" in="SourceAlpha" result="hardAlpha" type="matrix" values="0 0 0 0 0 0 0 0 0 0 0 0 0 0 0 0 0 0 127 0"/><feOffset id="feOffset13" dy="-4"/><feComposite id="feComposite13" in2="hardAlpha" k2="-1" k3="1" operator="arithmetic"/><feColorMatrix id="feColorMatrix14" type="matrix" values="0 0 0 0 0 0 0 0 0 0 0 0 0 0 0 0 0 0 0.1 0"/><feBlend id="feBlend14" in2="shape" mode="normal" result="effect1_innerShadow_314_102"/></filter><linearGradient id="paint0_linear_314_102" x1="64" x2="64" y1="12" y2="116" gradientUnits="userSpaceOnUse"><stop style="stop-color:#000;stop-opacity:0" id="stop14" offset="0" stop-color="#2D2D2D" stop-opacity="0"/><stop style="stop-color:#000;stop-opacity:.1975728" id="stop15" offset="1" stop-color="#2D2D2D" stop-opacity=".2"/></linearGradient><linearGradient id="paint1_linear_314_102" x1="73.829" x2="73.829" y1="34.457" y2="93.55" gradientTransform="translate(0.76139224,0.23301139)" gradientUnits="userSpaceOnUse"><stop id="stop16" stop-color="#2D2D2D" stop-opacity="0"/><stop id="stop17" offset="1" stop-color="#2D2D2D" stop-opacity=".2"/></linearGradient><linearGradient id="paint2_linear_314_102" x1="76.306" x2="76.306" y1="27.42" y2="100.261" gradientTransform="translate(0.76139224,0.23301139)" gradientUnits="userSpaceOnUse"><stop id="stop18" stop-color="#2D2D2D" stop-opacity="0"/><stop id="stop19" offset="1" stop-color="#2D2D2D" stop-opacity=".2"/></linearGradient><filter id="filter0_i_314_102-6" width="104" height="104" x="12" y="12" color-interpolation-filters="sRGB" filterUnits="userSpaceOnUse"><feFlood id="feFlood22" flood-opacity="0" result="BackgroundImageFix"/><feBlend id="feBlend24" in="SourceGraphic" in2="BackgroundImageFix" mode="normal" result="shape"/><feColorMatrix id="feColorMatrix26" in="SourceAlpha" result="hardAlpha" type="matrix" values="0 0 0 0 0 0 0 0 0 0 0 0 0 0 0 0 0 0 127 0"/><feOffset id="feOffset28" dy="-4"/><feComposite id="feComposite30" in2="hardAlpha" k2="-1" k3="1" operator="arithmetic"/><feColorMatrix id="feColorMatrix32" type="matrix" values="0 0 0 0 0.176471 0 0 0 0 0.176471 0 0 0 0 0.176471 0 0 0 0.1 0"/><feBlend id="feBlend34" in2="shape" mode="normal" result="effect1_innerShadow_314_102"/></filter><filter id="filter1_d_314_102-7" width="88.84" height="88.841" x="20.421" y="23.42" color-interpolation-filters="sRGB" filterUnits="userSpaceOnUse"><feFlood id="feFlood37" flood-opacity="0" result="BackgroundImageFix"/><feColorMatrix id="feColorMatrix39" in="SourceAlpha" result="hardAlpha" type="matrix" values="0 0 0 0 0 0 0 0 0 0 0 0 0 0 0 0 0 0 127 0"/><feOffset id="feOffset41" dy="4"/><feGaussianBlur id="feGaussianBlur43" stdDeviation="4"/><feComposite id="feComposite45" in2="hardAlpha" operator="out"/><feColorMatrix id="feColorMatrix47" type="matrix" values="0 0 0 0 0.176471 0 0 0 0 0.176471 0 0 0 0 0.176471 0 0 0 0.25 0"/><feBlend id="feBlend49" in2="BackgroundImageFix" mode="normal" result="effect1_dropShadow_314_102"/><feBlend id="feBlend51" in="SourceGraphic" in2="effect1_dropShadow_314_102" mode="normal" result="shape"/></filter><filter id="filter2_i_314_102-5" width="57.977" height="59.093" x="35.715" y="34.457" color-interpolation-filters="sRGB" filterUnits="userSpaceOnUse"><feFlood id="feFlood54" flood-opacity="0" result="BackgroundImageFix"/><feBlend id="feBlend56" in="SourceGraphic" in2="BackgroundImageFix" mode="normal" result="shape"/><feColorMatrix id="feColorMatrix58" in="SourceAlpha" result="hardAlpha" type="matrix" values="0 0 0 0 0 0 0 0 0 0 0 0 0 0 0 0 0 0 127 0"/><feOffset id="feOffset60" dy="-4"/><feComposite id="feComposite62" in2="hardAlpha" k2="-1" k3="1" operator="arithmetic"/><feColorMatrix id="feColorMatrix64" type="matrix" values="0 0 0 0 0 0 0 0 0 0 0 0 0 0 0 0 0 0 0.1 0"/><feBlend id="feBlend66" in2="shape" mode="normal" result="effect1_innerShadow_314_102"/></filter><filter id="filter3_i_314_102-3" width="72.84" height="72.841" x="28.421" y="27.42" color-interpolation-filters="sRGB" filterUnits="userSpaceOnUse"><feFlood id="feFlood69" flood-opacity="0" result="BackgroundImageFix"/><feBlend id="feBlend71" in="SourceGraphic" in2="BackgroundImageFix" mode="normal" result="shape"/><feColorMatrix id="feColorMatrix73" in="SourceAlpha" result="hardAlpha" type="matrix" values="0 0 0 0 0 0 0 0 0 0 0 0 0 0 0 0 0 0 127 0"/><feOffset id="feOffset75" dy="-4"/><feComposite id="feComposite77" in2="hardAlpha" k2="-1" k3="1" operator="arithmetic"/><feColorMatrix id="feColorMatrix79" type="matrix" values="0 0 0 0 0 0 0 0 0 0 0 0 0 0 0 0 0 0 0.1 0"/><feBlend id="feBlend81" in2="shape" mode="normal" result="effect1_innerShadow_314_102"/></filter><linearGradient id="paint0_linear_314_102-5" x1="64" x2="64" y1="12" y2="116" gradientTransform="translate(80.5553,-7.0146327)" gradientUnits="userSpaceOnUse"><stop id="stop84" stop-color="#2D2D2D" stop-opacity="0"/><stop id="stop86" offset="1" stop-color="#2D2D2D" stop-opacity=".2"/></linearGradient><style id="current-color-scheme" type="text/css"/></defs><g style="fill:#fff;stroke-width:.333333" id="g29" transform="matrix(3,0,0,3,40,36.25)"><path style="color:#000;fill:#fff;fill-opacity:1;stroke-width:.333333;-inkscape-stroke:none" id="path974" d="M 8,2.5 C 3.0136255,2.5 0.11914062,7.7421875 0.11914062,7.7421875 L 0,7.9550781 0.0859375,8.1855469 c 0,0 1.5715362,4.0844951 5.9140625,5.0917971 V 12.265625 C 2.461124,11.398768 1.2345765,8.3828565 1.0996094,8.0371094 1.3379952,7.6352328 3.8396053,3.5 8,3.5 c 2.323971,0 4.128965,1.2908577 5.3125,2.5 h 1.318359 C 13.331923,4.4745227 11.060588,2.5 8,2.5 Z"/><path style="color:#000;fill:#fff;stroke-width:.333333;stroke-linecap:round;stroke-linejoin:round;-inkscape-stroke:none" id="path927" d="M 8,5 C 6.3490697,5 5,6.3490697 5,8 5,8.9093015 5.4091998,9.7261601 6.0527344,10.277344 a 5,5 0 0 1 0.3125,-1.121094 C 6.1353362,8.8304792 6,8.4320297 6,8 6,6.8895093 6.8895093,6 8,6 8.4320297,6 8.8304792,6.1353362 9.15625,6.3652344 a 5,5 0 0 1 1.121094,-0.3125 C 9.7261601,5.4091998 8.9093015,5 8,5 Z"/><path id="path948" d="M 11.5,7 C 10.984321,7 10.554687,7.4296333 10.554688,7.9453125 L 10.611328,7.7167969 9.6289063,9.6289063 7.7167969,10.611328 c -0.093464,0.048 -0.2295762,0.100097 -0.3867188,0.22461 C 7.1729356,10.96045 7,11.223757 7,11.5 c 0,0.515679 0.4296333,0.945312 0.9453125,0.945313 l -0.2285156,-0.05664 1.9121094,0.982422 0.9824217,1.912109 c 0.048,0.09347 0.100097,0.229577 0.22461,0.386719 C 10.96045,15.827064 11.223758,16 11.5,16 c 0.515679,0 0.945312,-0.429632 0.945313,-0.945312 l -0.05664,0.228515 0.982422,-1.912109 1.912109,-0.982422 c 0.09347,-0.048 0.229577,-0.100097 0.386719,-0.224609 C 15.827064,12.03955 16,11.776243 16,11.5 16,10.984321 15.570365,10.554687 15.054688,10.554688 l 0.228515,0.05664 L 13.371094,9.6289063 12.388672,7.7167969 C 12.340676,7.6233316 12.288575,7.4872203 12.164063,7.3300781 12.03955,7.1729359 11.776244,7 11.5,7 Z m 0,1.171875 1.054688,2.056641 a 0.50004851,0.50004851 0 0 0 0.216796,0.216797 L 14.828125,11.5 12.771484,12.554688 a 0.50004851,0.50004851 0 0 0 -0.216796,0.216796 L 11.5,14.828125 10.445313,12.771484 A 0.50004851,0.50004851 0 0 0 10.228516,12.554688 L 8.171875,11.5 10.228516,10.445313 a 0.50004851,0.50004851 0 0 0 0.216797,-0.216797 z" style="color:#000;fill:#fff;stroke-width:.333333;stroke-linecap:round;stroke-linejoin:round;-inkscape-stroke:none"/></g></svg>