<?xml version="1.0" encoding="UTF-8" standalone="no"?>
<svg
   width="128"
   height="128"
   viewBox="0 0 128 128"
   fill="none"
   version="1.1"
   id="svg19"
   sodipodi:docname="preferences-calendar-and-tasks.svg"
   xml:space="preserve"
   inkscape:version="1.3 (0e150ed6c4, 2023-07-21)"
   xmlns:inkscape="http://www.inkscape.org/namespaces/inkscape"
   xmlns:sodipodi="http://sodipodi.sourceforge.net/DTD/sodipodi-0.dtd"
   xmlns="http://www.w3.org/2000/svg"
   xmlns:svg="http://www.w3.org/2000/svg"><sodipodi:namedview
     id="namedview19"
     pagecolor="#ffffff"
     bordercolor="#000000"
     borderopacity="0.25"
     inkscape:showpageshadow="2"
     inkscape:pageopacity="0.0"
     inkscape:pagecheckerboard="0"
     inkscape:deskcolor="#d1d1d1"
     inkscape:zoom="4"
     inkscape:cx="55.5"
     inkscape:cy="66.375"
     inkscape:window-width="2560"
     inkscape:window-height="1011"
     inkscape:window-x="0"
     inkscape:window-y="0"
     inkscape:window-maximized="1"
     inkscape:current-layer="svg19" /><rect
     x="12"
     y="12"
     width="104"
     height="104"
     rx="52"
     fill="#828292"
     id="rect1"
     style="mix-blend-mode:normal;fill:#e25480;filter:url(#filter0_i_314_102);fill-opacity:1" /><rect
     x="12"
     y="12"
     width="104"
     height="104"
     rx="52"
     fill="url(#paint0_linear_314_102)"
     id="rect2"
     style="fill:url(#paint0_linear_314_102);stroke:none;stroke-opacity:1;filter:url(#filter0_i_314_102)"
     ry="52" /><defs
     id="defs19"><filter
       id="filter0_i_314_102"
       x="12"
       y="12"
       width="104"
       height="104"
       filterUnits="userSpaceOnUse"
       color-interpolation-filters="sRGB"><feFlood
         flood-opacity="0"
         result="BackgroundImageFix"
         id="feFlood6" /><feBlend
         mode="normal"
         in="SourceGraphic"
         in2="BackgroundImageFix"
         result="shape"
         id="feBlend6" /><feColorMatrix
         in="SourceAlpha"
         type="matrix"
         values="0 0 0 0 0 0 0 0 0 0 0 0 0 0 0 0 0 0 127 0"
         result="hardAlpha"
         id="feColorMatrix6" /><feOffset
         dy="-4"
         id="feOffset6" /><feComposite
         in2="hardAlpha"
         operator="arithmetic"
         k2="-1"
         k3="1"
         id="feComposite6"
         k1="0"
         k4="0" /><feColorMatrix
         type="matrix"
         values="0 0 0 0 0.176471 0 0 0 0 0.176471 0 0 0 0 0.176471 0 0 0 0.1 0"
         id="feColorMatrix7" /><feBlend
         mode="normal"
         in2="shape"
         result="effect1_innerShadow_314_102"
         id="feBlend7" /></filter><filter
       id="filter1_d_314_102"
       x="20.4208"
       y="23.4198"
       width="88.8398"
       height="88.8408"
       filterUnits="userSpaceOnUse"
       color-interpolation-filters="sRGB"><feFlood
         flood-opacity="0"
         result="BackgroundImageFix"
         id="feFlood7" /><feColorMatrix
         in="SourceAlpha"
         type="matrix"
         values="0 0 0 0 0 0 0 0 0 0 0 0 0 0 0 0 0 0 127 0"
         result="hardAlpha"
         id="feColorMatrix8" /><feOffset
         dy="4"
         id="feOffset8" /><feGaussianBlur
         stdDeviation="4"
         id="feGaussianBlur8" /><feComposite
         in2="hardAlpha"
         operator="out"
         id="feComposite8" /><feColorMatrix
         type="matrix"
         values="0 0 0 0 0.176471 0 0 0 0 0.176471 0 0 0 0 0.176471 0 0 0 0.25 0"
         id="feColorMatrix9" /><feBlend
         mode="normal"
         in2="BackgroundImageFix"
         result="effect1_dropShadow_314_102"
         id="feBlend9" /><feBlend
         mode="normal"
         in="SourceGraphic"
         in2="effect1_dropShadow_314_102"
         result="shape"
         id="feBlend10" /></filter><filter
       id="filter2_i_314_102"
       x="35.7147"
       y="34.4569"
       width="57.9774"
       height="59.0932"
       filterUnits="userSpaceOnUse"
       color-interpolation-filters="sRGB"><feFlood
         flood-opacity="0"
         result="BackgroundImageFix"
         id="feFlood10" /><feBlend
         mode="normal"
         in="SourceGraphic"
         in2="BackgroundImageFix"
         result="shape"
         id="feBlend11" /><feColorMatrix
         in="SourceAlpha"
         type="matrix"
         values="0 0 0 0 0 0 0 0 0 0 0 0 0 0 0 0 0 0 127 0"
         result="hardAlpha"
         id="feColorMatrix11" /><feOffset
         dy="-4"
         id="feOffset11" /><feComposite
         in2="hardAlpha"
         operator="arithmetic"
         k2="-1"
         k3="1"
         id="feComposite11" /><feColorMatrix
         type="matrix"
         values="0 0 0 0 0 0 0 0 0 0 0 0 0 0 0 0 0 0 0.1 0"
         id="feColorMatrix12" /><feBlend
         mode="normal"
         in2="shape"
         result="effect1_innerShadow_314_102"
         id="feBlend12" /></filter><filter
       id="filter3_i_314_102"
       x="28.4208"
       y="27.4198"
       width="72.8398"
       height="72.8408"
       filterUnits="userSpaceOnUse"
       color-interpolation-filters="sRGB"><feFlood
         flood-opacity="0"
         result="BackgroundImageFix"
         id="feFlood12" /><feBlend
         mode="normal"
         in="SourceGraphic"
         in2="BackgroundImageFix"
         result="shape"
         id="feBlend13" /><feColorMatrix
         in="SourceAlpha"
         type="matrix"
         values="0 0 0 0 0 0 0 0 0 0 0 0 0 0 0 0 0 0 127 0"
         result="hardAlpha"
         id="feColorMatrix13" /><feOffset
         dy="-4"
         id="feOffset13" /><feComposite
         in2="hardAlpha"
         operator="arithmetic"
         k2="-1"
         k3="1"
         id="feComposite13" /><feColorMatrix
         type="matrix"
         values="0 0 0 0 0 0 0 0 0 0 0 0 0 0 0 0 0 0 0.1 0"
         id="feColorMatrix14" /><feBlend
         mode="normal"
         in2="shape"
         result="effect1_innerShadow_314_102"
         id="feBlend14" /></filter><linearGradient
       id="paint0_linear_314_102"
       x1="64"
       y1="12"
       x2="64"
       y2="116"
       gradientUnits="userSpaceOnUse"><stop
         stop-color="#2D2D2D"
         stop-opacity="0"
         id="stop14"
         offset="0"
         style="stop-color:#000000;stop-opacity:0;" /><stop
         offset="1"
         stop-color="#2D2D2D"
         stop-opacity="0.2"
         id="stop15"
         style="stop-color:#000000;stop-opacity:0.1975728;" /></linearGradient><linearGradient
       id="paint1_linear_314_102"
       x1="73.8295"
       y1="34.4569"
       x2="73.8295"
       y2="93.5501"
       gradientUnits="userSpaceOnUse"
       gradientTransform="translate(0.76139224,0.23301139)"><stop
         stop-color="#2D2D2D"
         stop-opacity="0"
         id="stop16" /><stop
         offset="1"
         stop-color="#2D2D2D"
         stop-opacity="0.2"
         id="stop17" /></linearGradient><linearGradient
       id="paint2_linear_314_102"
       x1="76.3063"
       y1="27.4198"
       x2="76.3063"
       y2="100.261"
       gradientUnits="userSpaceOnUse"
       gradientTransform="translate(0.76139224,0.23301139)"><stop
         stop-color="#2D2D2D"
         stop-opacity="0"
         id="stop18" /><stop
         offset="1"
         stop-color="#2D2D2D"
         stop-opacity="0.2"
         id="stop19" /></linearGradient><filter
       id="filter0_i_314_102-6"
       x="12"
       y="12"
       width="104"
       height="104"
       filterUnits="userSpaceOnUse"
       color-interpolation-filters="sRGB"><feFlood
         flood-opacity="0"
         result="BackgroundImageFix"
         id="feFlood22" /><feBlend
         mode="normal"
         in="SourceGraphic"
         in2="BackgroundImageFix"
         result="shape"
         id="feBlend24" /><feColorMatrix
         in="SourceAlpha"
         type="matrix"
         values="0 0 0 0 0 0 0 0 0 0 0 0 0 0 0 0 0 0 127 0"
         result="hardAlpha"
         id="feColorMatrix26" /><feOffset
         dy="-4"
         id="feOffset28" /><feComposite
         in2="hardAlpha"
         operator="arithmetic"
         k2="-1"
         k3="1"
         id="feComposite30" /><feColorMatrix
         type="matrix"
         values="0 0 0 0 0.176471 0 0 0 0 0.176471 0 0 0 0 0.176471 0 0 0 0.1 0"
         id="feColorMatrix32" /><feBlend
         mode="normal"
         in2="shape"
         result="effect1_innerShadow_314_102"
         id="feBlend34" /></filter><filter
       id="filter1_d_314_102-7"
       x="20.4208"
       y="23.4198"
       width="88.8398"
       height="88.8408"
       filterUnits="userSpaceOnUse"
       color-interpolation-filters="sRGB"><feFlood
         flood-opacity="0"
         result="BackgroundImageFix"
         id="feFlood37" /><feColorMatrix
         in="SourceAlpha"
         type="matrix"
         values="0 0 0 0 0 0 0 0 0 0 0 0 0 0 0 0 0 0 127 0"
         result="hardAlpha"
         id="feColorMatrix39" /><feOffset
         dy="4"
         id="feOffset41" /><feGaussianBlur
         stdDeviation="4"
         id="feGaussianBlur43" /><feComposite
         in2="hardAlpha"
         operator="out"
         id="feComposite45" /><feColorMatrix
         type="matrix"
         values="0 0 0 0 0.176471 0 0 0 0 0.176471 0 0 0 0 0.176471 0 0 0 0.25 0"
         id="feColorMatrix47" /><feBlend
         mode="normal"
         in2="BackgroundImageFix"
         result="effect1_dropShadow_314_102"
         id="feBlend49" /><feBlend
         mode="normal"
         in="SourceGraphic"
         in2="effect1_dropShadow_314_102"
         result="shape"
         id="feBlend51" /></filter><filter
       id="filter2_i_314_102-5"
       x="35.7147"
       y="34.4569"
       width="57.9774"
       height="59.0932"
       filterUnits="userSpaceOnUse"
       color-interpolation-filters="sRGB"><feFlood
         flood-opacity="0"
         result="BackgroundImageFix"
         id="feFlood54" /><feBlend
         mode="normal"
         in="SourceGraphic"
         in2="BackgroundImageFix"
         result="shape"
         id="feBlend56" /><feColorMatrix
         in="SourceAlpha"
         type="matrix"
         values="0 0 0 0 0 0 0 0 0 0 0 0 0 0 0 0 0 0 127 0"
         result="hardAlpha"
         id="feColorMatrix58" /><feOffset
         dy="-4"
         id="feOffset60" /><feComposite
         in2="hardAlpha"
         operator="arithmetic"
         k2="-1"
         k3="1"
         id="feComposite62" /><feColorMatrix
         type="matrix"
         values="0 0 0 0 0 0 0 0 0 0 0 0 0 0 0 0 0 0 0.1 0"
         id="feColorMatrix64" /><feBlend
         mode="normal"
         in2="shape"
         result="effect1_innerShadow_314_102"
         id="feBlend66" /></filter><filter
       id="filter3_i_314_102-3"
       x="28.4208"
       y="27.4198"
       width="72.8398"
       height="72.8408"
       filterUnits="userSpaceOnUse"
       color-interpolation-filters="sRGB"><feFlood
         flood-opacity="0"
         result="BackgroundImageFix"
         id="feFlood69" /><feBlend
         mode="normal"
         in="SourceGraphic"
         in2="BackgroundImageFix"
         result="shape"
         id="feBlend71" /><feColorMatrix
         in="SourceAlpha"
         type="matrix"
         values="0 0 0 0 0 0 0 0 0 0 0 0 0 0 0 0 0 0 127 0"
         result="hardAlpha"
         id="feColorMatrix73" /><feOffset
         dy="-4"
         id="feOffset75" /><feComposite
         in2="hardAlpha"
         operator="arithmetic"
         k2="-1"
         k3="1"
         id="feComposite77" /><feColorMatrix
         type="matrix"
         values="0 0 0 0 0 0 0 0 0 0 0 0 0 0 0 0 0 0 0.1 0"
         id="feColorMatrix79" /><feBlend
         mode="normal"
         in2="shape"
         result="effect1_innerShadow_314_102"
         id="feBlend81" /></filter><linearGradient
       id="paint0_linear_314_102-5"
       x1="64"
       y1="12"
       x2="64"
       y2="116"
       gradientUnits="userSpaceOnUse"
       gradientTransform="translate(80.5553,-7.0146327)"><stop
         stop-color="#2D2D2D"
         stop-opacity="0"
         id="stop84" /><stop
         offset="1"
         stop-color="#2D2D2D"
         stop-opacity="0.2"
         id="stop86" /></linearGradient><style
       id="current-color-scheme"
       type="text/css">.ColorScheme-Text { color:#363636; }</style></defs><path
     d="m 42.642857,45.92857 v 36.142862 c 0,0 0,4.928569 4.928571,4.928569 h 32.857143 c 4.928572,0 4.928572,-4.928569 4.928572,-4.928569 V 45.92857 c 0,0 0,-4.928571 -4.928572,-4.928571 H 47.571428 c -4.928571,0 -4.928571,4.928571 -4.928571,4.928571 z m 4.928571,-1.642857 h 32.857143 c 0,0 1.642857,0 1.642857,1.642857 v 6.571429 c 0,1.642857 -1.642857,1.642857 -1.642857,1.642857 H 47.571428 c -1.642857,0 -1.642857,-1.642857 -1.642857,-1.642857 V 45.92857 c 0,0 0,-1.642857 1.642857,-1.642857 z M 46.539714,57.42857 H 51.879 c 0.361428,0 0.614428,0.262857 0.614428,0.624286 v 5.339286 c 0,0.328571 -0.253,0.591428 -0.617714,0.591428 H 46.536428 A 0.59471429,0.59471429 0 0 1 45.922,63.359284 v -5.339286 c 0,-0.328571 0.253,-0.591429 0.617714,-0.591428 z m 9.857143,0 h 5.339285 c 0.361429,0 0.614429,0.262857 0.614429,0.624286 v 5.339286 c 0,0.328571 -0.253,0.591428 -0.617714,0.591428 h -5.339286 a 0.59471429,0.59471429 0 0 1 -0.614429,-0.624286 v -5.339286 c 0,-0.328571 0.253,-0.591429 0.617715,-0.591428 z m 9.857143,0 h 5.339285 c 0.361429,0 0.614429,0.262857 0.614429,0.624286 v 5.339286 c 0,0.328571 -0.253,0.591428 -0.617714,0.591428 h -5.339286 a 0.59471429,0.59471429 0 0 1 -0.614429,-0.624286 v -5.339286 c 0,-0.328571 0.253,-0.591429 0.617715,-0.591428 z m 9.857143,0 h 5.339285 c 0.361429,0 0.614429,0.262857 0.614429,0.624286 v 5.339286 c 0,0.328571 -0.253,0.591428 -0.617714,0.591428 h -5.339286 a 0.59471429,0.59471429 0 0 1 -0.614429,-0.624286 v -5.339286 c 0,-0.328571 0.253,-0.591429 0.617715,-0.591428 z M 46.539714,67.285713 H 51.879 c 0.361428,0 0.614428,0.262856 0.614428,0.624285 v 5.339286 c 0,0.328571 -0.253,0.591429 -0.617714,0.591429 H 46.536428 A 0.59471429,0.59471429 0 0 1 45.922,73.216427 v -5.339285 c 0,-0.328572 0.253,-0.591429 0.617714,-0.591429 z m 9.857143,0 h 5.339285 c 0.361429,0 0.614429,0.262856 0.614429,0.624285 v 5.339286 c 0,0.328571 -0.253,0.591429 -0.617714,0.591429 h -5.339286 a 0.59471429,0.59471429 0 0 1 -0.614429,-0.624286 v -5.339285 c 0,-0.328572 0.253,-0.591429 0.617715,-0.591429 z m 9.857143,0 h 5.339285 c 0.361429,0 0.614429,0.262856 0.614429,0.624285 v 5.339286 c 0,0.328571 -0.253,0.591429 -0.617714,0.591429 h -5.339286 a 0.59471429,0.59471429 0 0 1 -0.614429,-0.624286 v -5.339285 c 0,-0.328572 0.253,-0.591429 0.617715,-0.591429 z m 9.857143,0 h 5.339285 c 0.361429,0 0.614429,0.262856 0.614429,0.624285 v 5.339286 c 0,0.328571 -0.253,0.591429 -0.617714,0.591429 h -5.339286 a 0.59471429,0.59471429 0 0 1 -0.614429,-0.624286 v -5.339285 c 0,-0.328572 0.253,-0.591429 0.617715,-0.591429 z M 46.539714,77.142856 H 51.879 c 0.361428,0 0.614428,0.262857 0.614428,0.624286 v 5.33929 c 0,0.32857 -0.253,0.59142 -0.617714,0.59142 H 46.536428 A 0.59471429,0.59471429 0 0 1 45.922,83.073572 v -5.339288 c 0,-0.328571 0.253,-0.591428 0.617714,-0.591428 z m 9.857143,0 h 5.339285 c 0.361429,0 0.614429,0.262857 0.614429,0.624286 v 5.33929 c 0,0.32857 -0.253,0.59142 -0.617714,0.59142 h -5.339286 a 0.59471429,0.59471429 0 0 1 -0.614429,-0.62428 v -5.339288 c 0,-0.328571 0.253,-0.591428 0.617715,-0.591428 z m 9.857143,0 h 5.339285 c 0.361429,0 0.614429,0.262857 0.614429,0.624286 v 5.33929 c 0,0.32857 -0.253,0.59142 -0.617714,0.59142 h -5.339286 a 0.59471429,0.59471429 0 0 1 -0.614429,-0.62428 v -5.339288 c 0,-0.328571 0.253,-0.591428 0.617715,-0.591428 z m 9.857143,0 h 5.339285 c 0.361429,0 0.614429,0.262857 0.614429,0.624286 v 5.33929 c 0,0.32857 -0.253,0.59142 -0.617714,0.59142 h -5.339286 a 0.59471429,0.59471429 0 0 1 -0.614429,-0.62428 v -5.339288 c 0,-0.328571 0.253,-0.591428 0.617715,-0.591428 z"
     fill="#363636"
     id="path2"
     style="fill:#ffffff;stroke-width:1" /></svg>
