<?xml version="1.0" encoding="UTF-8" standalone="no"?>
<!-- Created with Inkscape (http://www.inkscape.org/) -->

<svg
   width="16"
   height="16"
   viewBox="0 0 16 16"
   version="1.1"
   id="svg5"
   xmlns="http://www.w3.org/2000/svg"
   xmlns:svg="http://www.w3.org/2000/svg">
  <defs
     id="defs2" />
  <path
     id="path974"
     style="color:#000000;fill:#241f31;fill-opacity:1;stroke-width:1;-inkscape-stroke:none"
     d="M 8 2.5 C 3.0136255 2.5 0.11914062 7.7421875 0.11914062 7.7421875 L 0 7.9550781 L 0.0859375 8.1855469 C 0.0859375 8.1855469 1.6574737 12.270042 6 13.277344 L 6 12.265625 C 2.461124 11.398768 1.2345765 8.3828565 1.0996094 8.0371094 C 1.3379952 7.6352328 3.8396053 3.5 8 3.5 C 10.323971 3.5 12.128965 4.7908577 13.3125 6 L 14.630859 6 C 13.331923 4.4745227 11.060588 2.5 8 2.5 z " />
  <path
     id="path927"
     style="color:#000000;fill:#241f31;stroke-linecap:round;stroke-linejoin:round;-inkscape-stroke:none"
     d="M 8 5 C 6.3490697 5 5 6.3490697 5 8 C 5 8.9093015 5.4091998 9.7261601 6.0527344 10.277344 A 5 5 0 0 1 6.3652344 9.15625 C 6.1353362 8.8304792 6 8.4320297 6 8 C 6 6.8895093 6.8895093 6 8 6 C 8.4320297 6 8.8304792 6.1353362 9.15625 6.3652344 A 5 5 0 0 1 10.277344 6.0527344 C 9.7261601 5.4091998 8.9093015 5 8 5 z " />
  <path
     id="path948"
     style="color:#000000;fill:none;stroke:#241f31;stroke-width:0.999997;stroke-linecap:round;stroke-linejoin:round;stroke-opacity:1;-inkscape-stroke:none"
     d="m 11.500002,7.5000001 c -0.24546,0 -0.444445,0.1989847 -0.444445,0.4444447 L 10,10 7.9444448,11.055558 c -0.2183558,0.112129 -0.4444446,0.198984 -0.4444446,0.444444 0,0.24546 0.1989845,0.444445 0.4444446,0.444445 L 10,13 l 1.055557,2.055559 c 0.112129,0.218356 0.198985,0.444444 0.444445,0.444444 0.245459,0 0.444445,-0.198985 0.444445,-0.444444 L 13,13 15.055559,11.944447 c 0.218355,-0.112128 0.444444,-0.198985 0.444444,-0.444445 0,-0.24546 -0.198985,-0.444444 -0.444444,-0.444444 L 13,10 11.944447,7.9444448 C 11.83232,7.726091 11.745461,7.5000001 11.500002,7.5000001 Z" />
</svg>
