<?xml version="1.0" encoding="UTF-8" standalone="no"?>
<svg
   height="16px"
   viewBox="0 0 16 16"
   width="16px"
   version="1.1"
   id="svg4"
   xmlns="http://www.w3.org/2000/svg"
   xmlns:svg="http://www.w3.org/2000/svg">
  <defs
     id="defs8" />
  <path
     style="color:#000000;fill:#241f31;-inkscape-stroke:none"
     d="m 3.125,2 c 0,0 -0.5281813,-0.00627 -1.0585937,0.2929688 C 1.5359938,2.5922064 1,3.269692 1,4.3339844 l 0.00195,7.1894536 C 1.0013616,12.346314 1,12.582009 1,13.498047 v 0.5 h 0.5 c 0.8114388,0 3.8654764,0.0022 4.875,0 h 0.5 V 11.25 h 2.2480469 v 2.748047 h 5.8750001 v -0.5 c 0,-0.916544 1.03e-4,-1.480668 0,-2.130859 v -0.0059 -0.01172 c -9.28e-4,-2.0873229 0.0061,-4.9992201 0,-7.0156246 0,-1.0642991 -0.539874,-1.746592 -1.089844,-2.0449219 C 13.358233,1.9907326 12.808286,1.9999681 12.742188,2 Z m 0,1 h 9.617188 c 0.06393,-3.08e-5 0.392584,0.00799 0.6875,0.1679688 0.294915,0.1599765 0.568359,0.3971517 0.568359,1.1660156 0.0061,2.0112198 -9.3e-4,4.9250644 0,7.0156246 v 0.01172 0.0059 c 7.9e-5,0.497474 2.4e-5,1.037097 0,1.630859 h -3.875 V 10.25 H 5.875 v 2.748047 c -1.0960193,0.0011 -2.8982873,3.03e-4 -3.875,0 3.102e-4,-0.487275 0.00151,-0.858119 0.00195,-1.474609 L 2,4.3339844 C 2,3.5651137 2.2766647,3.3231156 2.5585938,3.1640625 2.8405228,3.0050094 3.125,3 3.125,3 Z"
     id="path881" />
  <path
     id="rect3065"
     style="fill:#241f31;fill-opacity:1;stroke:none;stroke-width:2;stroke-linecap:round;stroke-linejoin:round;stroke-opacity:1;stop-color:#000000"
     d="M 4,5 V 6 H 3 V 7 H 4 V 8 H 5 V 7 H 6 V 6 H 5 V 5 Z" />
  <circle
     style="fill:#241f31;fill-opacity:1;stroke:none;stroke-width:2;stroke-linecap:round;stroke-linejoin:round;stroke-opacity:1;stop-color:#000000"
     id="path3091"
     cx="9"
     cy="7"
     r="1" />
  <circle
     style="fill:#241f31;fill-opacity:1;stroke:none;stroke-width:2;stroke-linecap:round;stroke-linejoin:round;stroke-opacity:1;stop-color:#000000"
     id="path3093"
     cx="12"
     cy="7"
     r="1" />
</svg>
