<?xml version="1.0" encoding="UTF-8" standalone="no"?>
<svg
   height="16px"
   viewBox="0 0 16 16"
   width="16px"
   version="1.1"
   id="svg8"
   xmlns="http://www.w3.org/2000/svg"
   xmlns:svg="http://www.w3.org/2000/svg">
  <defs
     id="defs12" />
  <path
     d="M 8.0635291,0 C 7.4932161,-0.00390646 6.9229041,0.20704189 6.4854041,0.6406587 L 0.66509205,6.3675229 c -0.878907,0.8672326 -0.886719,2.2696504 -0.023438,3.1486026 L 6.3682161,15.332837 c 0.867188,0.878954 2.269532,0.890672 3.148438,0.02734 L 15.33306,9.6333187 C 16.211966,8.7660861 16.223685,7.3636683 15.3604,6.4847161 L 9.6338421,0.66800414 C 9.2002481,0.22657392 8.6338421,0.00390646 8.0635291,0 Z M 8,6 C 9,6 10,7 10,8.0004208 10,9 9,10 8,10 7,10 6,9 6,8.0004208 6,7 7,6 8,6 Z"
     fill-opacity="0.501961"
     id="path2"
     style="fill:#241f31;fill-opacity:1;stroke-width:1" />
  <path
     d="M 4.1176474,2 C 2.9436537,2 2,2.9436537 2,4.1176474 V 11.882353 C 2,13.056346 2.9436537,14 4.1176474,14 H 11.882353 C 13.052631,14 14,13.056346 14,11.882353 V 4.1176474 C 14,2.9436537 13.052631,2 11.882353,2 Z M 8,6 C 9,6 10,7 10,7.9999998 10,9 9,10 8,10 7,10 6,9 6,7.9999998 6,7 7,6 8,6 Z"
     id="path4"
     style="fill:#241f31;fill-opacity:1;stroke-width:0.999999" />
</svg>
