<?xml version="1.0" encoding="UTF-8" standalone="no"?>
<svg
   height="16px"
   viewBox="0 0 16 16"
   width="16px"
   version="1.1"
   id="svg8"
   xmlns="http://www.w3.org/2000/svg"
   xmlns:svg="http://www.w3.org/2000/svg">
  <defs
     id="defs12" />
  <path
     style="color:#000000;fill:#241f31;stroke-width:1;stroke-linecap:round;stroke-linejoin:round;-inkscape-stroke:none"
     d="M 2.1211881,4.007097 C 1.9702277,4.0244697 1.8227039,4.071565 1.6870695,4.143156 1.2700801,4.3626258 1.0004013,4.8085909 1,5.2978671 v 8.4034319 c 7.01e-5,0.717309 0.5736738,1.297862 1.2579184,1.297932 H 13.74326 c 0.582728,8.89e-4 1.043878,-0.406321 1.198099,-0.898706 0.154088,-0.491959 0.0069,-1.109991 -0.47001,-1.459053 L 2.9860071,4.2380392 C 2.7339167,4.0539278 2.426621,3.9722466 2.1211881,4.007097 Z M 14,13.5 C 14,14 14,14 14,14 14,14 5.3369556,14.02348 2,14 1.965504,10.905262 2,8 2,5 8,9 8,9 14,13.5 Z"
     id="path964" />
  <path
     id="path936"
     style="color:#000000;fill:#241f31;-inkscape-stroke:none"
     d="m 10,1 v 2 c 0,0.4166663 0.193745,0.7617121 0.421875,1.046875 0.22813,0.2851629 0.506011,0.5250158 0.777344,0.7285156 0.403284,0.3024635 0.622758,0.4048054 0.800781,0.5 V 10 h 1 V 5.296875 C 13.206348,5.1794865 13.500746,5.0004171 13.800781,4.7753906 14.072114,4.5718908 14.349995,4.3320379 14.578125,4.046875 14.806255,3.7617121 15,3.4166663 15,3 V 1 H 14 V 3 C 14,3.083333 13.94374,3.2382884 13.796875,3.421875 13.650006,3.6054616 13.427885,3.8031095 13.199219,3.9746094 12.934252,4.1733344 12.67806,4.3281316 12.5,4.4296875 12.32194,4.3281316 12.065748,4.1733344 11.800781,3.9746094 11.572115,3.8031095 11.349994,3.6054616 11.203125,3.421875 11.056256,3.2382884 11,3.0833333 11,3 V 1 Z" />
</svg>
