<?xml version="1.0" encoding="UTF-8" standalone="no"?>
<svg
   height="16px"
   viewBox="0 0 16 16"
   width="16px"
   version="1.1"
   id="svg8"
   xmlns="http://www.w3.org/2000/svg"
   xmlns:svg="http://www.w3.org/2000/svg">
  <defs
     id="defs12" />
  <path
     style="color:#000000;fill:#241f31;stroke-width:0.999999;-inkscape-stroke:none"
     d="M 8.062517,6.0484316e-5 C 7.4072164,-0.00442687 6.7447455,0.24076342 6.2416799,0.73922537 L 0.76261555,6.1303483 C -0.24468987,7.1239979 -0.25435062,8.7529207 0.7350271,9.7599789 l 5.3926205,5.4757041 c 0.9933839,1.006583 2.6228475,1.020917 3.6306389,0.03125 L 15.235512,9.8758182 v -0.00184 C 16.24232,8.8808227 16.256658,7.2537549 15.266772,6.2461906 L 9.8741579,0.77048359 C 9.3776721,0.26516525 8.7199821,0.00456266 8.062517,6.0484316e-5 Z M 8.056997,0.94148442 c 0.4166447,0.002853 0.8257083,0.16143368 1.14584,0.48726038 v 0.00184 l 5.39262,5.4757039 c 0.636005,0.6473673 0.628265,1.6586926 -0.02023,2.2983983 L 9.0980031,14.595808 C 8.4504902,15.231671 7.4388176,15.223935 6.7989664,14.575583 L 1.4063458,9.0998789 C 0.77027846,8.4524448 0.7762084,7.4407683 1.4228989,6.8014807 L 6.9038025,1.4085189 h 0.00184 C 7.2265501,1.0905472 7.6381901,0.93861651 8.0569987,0.94148442 Z M 7.999981,5.6486041 c -0.6277875,0 -1.2005933,0.29923 -1.6277158,0.7262939 -0.4271226,0.4270639 -0.7264957,0.9995185 -0.7264957,1.6272659 0,0.6274834 0.2993834,1.2003323 0.7264957,1.627266 0.4271122,0.4269331 0.9999283,0.7262941 1.627718,0.7262941 0.6277896,0 1.2006058,-0.299361 1.627718,-0.7262941 0.4271118,-0.4269337 0.7264958,-0.9997826 0.7264958,-1.627266 0,-0.6277474 -0.299373,-1.200202 -0.7264958,-1.6272659 C 9.2005786,5.9478341 8.6277728,5.6486041 7.9999832,5.6486041 Z m 0,0.9414239 c 0.3138948,0 0.6827762,0.1713837 0.961917,0.4504861 0.279143,0.2791024 0.4506133,0.6475781 0.4506133,0.9616498 0,0.3135435 -0.17146,0.6826154 -0.4506111,0.9616499 -0.2791512,0.2790345 -0.6480222,0.450486 -0.961917,0.450486 -0.3138949,0 -0.6827659,-0.1714515 -0.961917,-0.450486 C 6.758915,8.6847793 6.587455,8.3157074 6.587455,8.0021639 6.587455,7.6880922 6.7589254,7.3196165 7.0380662,7.0405141 7.317207,6.7614117 7.6860883,6.590028 7.9999832,6.590028 Z"
     id="path2" />
</svg>
