<?xml version="1.0" encoding="UTF-8" standalone="no"?>
<svg
   height="16px"
   viewBox="0 0 16 16"
   width="16px"
   version="1.1"
   id="svg8"
   xmlns="http://www.w3.org/2000/svg"
   xmlns:svg="http://www.w3.org/2000/svg">
  <defs
     id="defs12" />
  <path
     d="m 14.988281,0.601562 c -0.28125,-0.242187 -0.625,-0.421874 -0.964843,-0.5624995 L 14,2.269531 C 13.996094,2.730469 13.546875,3 12.996094,3 h -1 c -0.554688,-0.00781 -1.003906,-0.308594 -1,-0.769531 L 11.019531,0 C 10.671875,0.132812 10.328125,0.304688 10.042969,0.535156 8.664062,1.652344 8.644531,3.484375 10,4.632812 10.285156,4.875 10.625,5.054688 10.96875,5.195312 10.996094,5.207031 11,9 11,9 c 3,2 0,0 3,2 l -0.0039,-5.75 C 14.339844,5.117188 14.660156,4.929688 14.949219,4.699219 16.328125,3.582031 16.34375,1.75 14.988281,0.601562 Z"
     id="path4"
     style="fill:#241f31" />
  <path
     style="color:#000000;fill:#241f31;stroke-linecap:round;stroke-linejoin:round;-inkscape-stroke:none"
     d="M 0.54296875,4.1113281 A 1.0001,1.0001 0 0 0 0,5 v 10 a 1.0001,1.0001 0 0 0 1,1 h 14 a 1.0001,1.0001 0 0 0 0.582031,-1.814453 L 1.5820312,4.1855469 A 1.0001,1.0001 0 0 0 0.54296875,4.1113281 Z M 2,6.9453125 11.876953,14 H 2 Z"
     id="path964" />
</svg>
