<?xml version="1.0" encoding="UTF-8" standalone="no"?>
<svg
   height="16px"
   viewBox="0 0 16 16"
   width="16px"
   version="1.1"
   id="svg4"
   xmlns="http://www.w3.org/2000/svg"
   xmlns:svg="http://www.w3.org/2000/svg">
  <defs
     id="defs8" />
  <path
     id="path925"
     style="fill:#241f31"
     d="M 3 9 L 0.30664062 11.269531 C 0.11523363 11.445312 0.005859125 11.753906 0.001953125 11.976562 C -0.052736875 12.863281 1.0019529 13.296874 1.6386719 12.769531 L 3.0019531 11.4375 L 3.0058594 14.976562 C 3.0058594 15.546874 3.4628911 15.976563 4.0019531 15.976562 L 11.994141 15.976562 C 12.517578 15.976562 12.990234 15.53125 12.990234 15.039062 L 12.986328 11.4375 L 14.322266 12.746094 C 14.958985 13.273438 16.009765 12.839844 15.958984 11.953125 C 15.955075 11.730469 15.845703 11.421874 15.658203 11.25 L 13 9 L 11 9 L 11 14 L 5 14 L 5 9 L 3 9 z " />
  <path
     id="path1038"
     d="m 12.501953,0 c -0.292969,-0.00391 -0.59375,0.019531 -0.882812,0.09375 -1.8671888,0.488281 -2.9843761,2.382813 -2.4960941,4.234375 0.101562,0.386719 0.289062,0.7421875 0.5,1.0546875 C 9.5136719,5.3984375 6,11 6,11 c 0,0 0,2 2,2 l 2,-3 V 8 h 1.408203 l 0.800781,-1.1171875 c 0.378907,0.03125 0.78125,0.023438 1.171875,-0.078125 1.863282,-0.484375 2.980469,-2.382813 2.496094,-4.234375 C 15.771484,2.1835935 15.583984,1.832032 15.373047,1.515625 l -1.359375,2.3046875 c -0.28125,0.476562 -0.882813,0.6328117 -1.355469,0.3554687 l -0.875,-0.5078124 C 11.306641,3.3906248 11.146484,2.7929685 11.427734,2.3203125 L 12.791016,0.01171875 C 12.693356,0.00780875 12.595703,-3.0003e-7 12.501953,0 Z"
     style="fill:#241f31" />
</svg>
