<?xml version="1.0" encoding="UTF-8" standalone="no"?>
<svg
   height="16px"
   viewBox="0 0 16 16"
   width="16px"
   version="1.1"
   id="svg4"
   xmlns="http://www.w3.org/2000/svg"
   xmlns:svg="http://www.w3.org/2000/svg">
  <defs
     id="defs8" />
  <path
     style="fill:#241f31;stroke-width:1"
     d="M 2.0255549,15.978095 C 1.7482092,15.940268 1.3961095,15.815737 1.1501515,15.668466 -3.5773236e-4,14.979583 -0.34728448,13.4841 0.38198765,12.357172 0.46019375,12.236324 1.3488983,11.321462 2.9228104,9.7415696 L 5.3433598,7.3118214 4.3255104,6.2934856 3.3076621,5.2751497 1.6853218,2.6734136 C 0.79303398,1.2424587 0.05111384,0.05107916 0.0366096,0.02590345 0.00211357,-0.03397086 -0.17535427,-0.14257452 2.7455579,1.6836741 L 5.2655684,3.2592656 6.2988366,4.2907647 7.3321037,5.3222634 8.0203164,4.6325993 c 0.3785157,-0.379315 0.7033049,-0.6896639 0.721752,-0.6896639 0.018452,0 0.07444,0.04275 0.1244366,0.095001 l 0.090898,0.095001 2.0734,-2.0759886 c 1.958108,-1.96055277 2.07504,-2.07172343 2.102892,-1.99928362 0.01622,0.04218776 0.384859,0.97069492 0.819197,2.06334922 l 0.789704,1.9866442 -1.450624,1.4528103 -1.450624,1.4528108 0.107663,0.1112289 0.107665,0.1112292 -0.703177,0.7046358 -0.703176,0.7046357 0.508147,0.5088237 0.508145,0.5088238 0.220422,-0.2189418 0.22042,-0.2189414 1.747072,1.7553884 c 1.866328,1.875213 1.893458,1.906613 2.05858,2.382614 0.07625,0.219822 0.08689,0.296492 0.08689,0.626623 0,0.330131 -0.01063,0.406801 -0.08689,0.626624 -0.223915,0.645483 -0.697358,1.10908 -1.334455,1.306705 -0.352365,0.109303 -0.860247,0.101919 -1.204922,-0.01751 -0.474891,-0.164557 -0.506338,-0.191797 -2.379441,-2.061 L 9.2412401,12.094813 9.4598906,11.874098 9.6785401,11.653383 9.1705862,11.144751 8.6626322,10.63612 6.1814903,13.114819 C 3.7641595,15.529767 3.693735,15.596897 3.443235,15.724996 3.0126707,15.945172 2.4806529,16.040154 2.0255579,15.978095 Z m 0.5988882,-0.952399 c 0.4415494,-0.09372 0.2380844,0.0942 4.3236263,-3.993239 L 10.727969,7.2508 10.407633,6.9289417 C 10.231448,6.7519199 10.077579,6.6106733 10.0657,6.6150605 10.053819,6.6194439 8.48498,8.1801718 6.5793868,10.083336 L 3.1146703,13.543636 2.7815355,13.210057 2.4484008,12.876478 5.9227741,9.3973669 9.3971474,5.9182554 9.0690605,5.5886097 8.7409745,5.2589641 4.9811314,9.0237237 C 2.4610187,11.54713 1.1882287,12.843104 1.1210248,12.954136 c -0.15020042,0.24816 -0.2158106,0.603753 -0.16606202,0.900018 0.0986717,0.587611 0.53372282,1.051761 1.10037292,1.173973 0.232155,0.05007 0.3235902,0.04968 0.5691074,-0.0024 z m 11.8057909,-0.04524 c 0.204943,-0.08853 0.443707,-0.321404 0.546056,-0.532576 0.07356,-0.15177 0.08554,-0.215709 0.08593,-0.458482 6.6e-4,-0.415555 -0.05441,-0.506678 -0.696333,-1.152029 l -0.522308,-0.525104 -0.759376,0.759913 -0.759376,0.759913 0.520345,0.521716 c 0.647301,0.649006 0.781087,0.726269 1.216958,0.702804 0.12742,-0.0068 0.281482,-0.03873 0.368107,-0.07615 z m -1.800045,-3.882513 -0.539674,-0.541057 -0.759375,0.759913 -0.759375,0.759913 0.539673,0.541056 0.539674,0.541057 0.759375,-0.759914 0.759375,-0.759913 z M 10.517351,9.8286338 C 10.246328,9.556852 10.010583,9.3344851 9.9934722,9.3344851 c -0.040951,0 -0.6426694,0.6007693 -0.6426694,0.6416529 0,0.017368 0.2216738,0.253872 0.4926073,0.525564 l 0.4926059,0.493988 0.337051,-0.336454 0.337052,-0.336454 z M 6.3457582,6.3093894 6.6735216,5.9800685 5.7057614,5.0106397 4.7380013,4.0412112 3.9217808,3.5318937 C 3.4728586,3.2517692 3.0708871,3.0004378 3.0285093,2.9733797 c -0.066005,-0.042142 -0.073037,-0.042454 -0.049065,-0.00218 0.015397,0.02586 0.2597641,0.420823 0.5430491,0.8776941 L 4.0375577,4.679572 5.0113784,5.6591413 c 0.5356021,0.5387632 0.9812006,0.9795693 0.9902193,0.9795693 0.00902,0 0.1638912,-0.1481942 0.3441605,-0.3293212 z M 12.281379,5.1206539 C 12.259645,5.0677033 12.060391,4.5689336 11.838593,4.0122767 l -0.40327,-1.0121034 -0.901376,0.902175 -0.9013759,0.9021749 0.7744999,0.7759983 0.7745,0.7759984 0.569661,-0.5697962 0.569663,-0.5697958 z M 13.354901,4.1809231 13.648181,3.8860248 13.218694,2.809526 C 12.982476,2.2174516 12.779295,1.7226614 12.767181,1.7099924 12.75507,1.6973235 12.612552,1.8202942 12.450479,1.9832609 l -0.294678,0.296303 0.436639,1.0977946 c 0.240151,0.603787 0.443961,1.0979452 0.452909,1.0981288 0.0089,1.881e-4 0.148247,-0.1323704 0.309552,-0.2945642 z"
     id="path1150" />
</svg>
