<?xml version="1.0" encoding="UTF-8" standalone="no"?>
<svg
   height="16px"
   viewBox="0 0 16 16"
   width="16px"
   version="1.1"
   id="svg4"
   xmlns="http://www.w3.org/2000/svg"
   xmlns:svg="http://www.w3.org/2000/svg">
  <defs
     id="defs8" />
  <path
     style="color:#000000;fill:#241f31;stroke-width:0.999995;stroke-linecap:round;stroke-linejoin:round;-inkscape-stroke:none"
     d="M 8,1 C 4.1391924,1 1,4.1391924 1,8 c 0,3.860808 3.1391924,7 7,7 3.860808,0 7,-3.139192 7,-7 C 15,4.1391924 11.860808,1 8,1 Z m 0,0.875 c 3.387925,0 6.125,2.7370752 6.125,6.125 0,3.387925 -2.737075,6.125 -6.125,6.125 C 4.6120752,14.125 1.875,11.387925 1.875,8 1.875,4.6120752 4.6120752,1.875 8,1.875 Z"
     id="path925" />
  <path
     style="color:#000000;fill:#241f31;stroke-width:1;stroke-linecap:round;stroke-linejoin:round;-inkscape-stroke:none"
     d="m 11.733334,1 a 0.46666667,0.46666667 0 0 0 -0.466667,0.4666667 0.46666667,0.46666667 0 0 0 0.466667,0.4666666 h 2.333333 V 4.0734375 L 4.0734376,14.066667 H 1.9333334 V 11.733333 A 0.46666667,0.46666667 0 0 0 1.4666667,11.266667 0.46666667,0.46666667 0 0 0 1,11.733333 v 2.8 A 0.46671335,0.46671333 0 0 0 1.4666667,15 h 2.8 A 0.46671335,0.46671333 0 0 0 4.5966146,14.863282 L 14.863282,4.5966145 A 0.46671335,0.46671333 0 0 0 15,4.2666667 v -2.8 A 0.46671335,0.46671333 0 0 0 14.533334,1 Z"
     id="path1006" />
</svg>
