<?xml version="1.0" encoding="UTF-8" standalone="no"?>
<!-- Created with Inkscape (http://www.inkscape.org/) -->

<svg
   width="16"
   height="16"
   viewBox="0 0 16 16"
   version="1.1"
   id="svg5"
   xmlns="http://www.w3.org/2000/svg"
   xmlns:svg="http://www.w3.org/2000/svg">
  <defs
     id="defs2" />
  <path
     id="path1018"
     style="fill:#241f31;stroke:none;stroke-width:1px;stroke-linecap:butt;stroke-linejoin:miter;stroke-opacity:1"
     d="M 8 4 C 3 4 0 8 0 8 C 0 8 2.4112076 11.210748 6.5117188 11.876953 A 1.5001515 1.5001515 0 0 1 7.2890625 10.65625 L 7.6347656 10.470703 C 6.4320289 10.291971 5.5 9.2503517 5.5 8 C 5.5 6.6252118 6.6252118 5.5 8 5.5 C 9.2712622 5.5 10.326404 6.463399 10.478516 7.6953125 L 10.712891 7.2714844 A 1.5001515 1.5001515 0 0 1 12.03125 6.5 A 1.5001515 1.5001515 0 0 1 13.34375 7.2890625 L 14.527344 9.4863281 C 15.480978 8.6849601 16 8 16 8 C 16 8 13 4 8 4 z M 8 6.5 C 7.1656514 6.5 6.5 7.1656514 6.5 8 C 6.5 8.8343486 7.1656514 9.5 8 9.5 C 8.8343486 9.5 9.5 8.8343486 9.5 8 C 9.5 7.1656514 8.8343486 6.5 8 6.5 z " />
  <path
     id="path1032"
     style="color:#000000;fill:#241f31;stroke-width:1;stroke-linecap:round;stroke-linejoin:round;-inkscape-stroke:none"
     d="M 12.023438 8.0019531 A 0.50006282 0.50003761 0 0 0 11.583984 8.2578125 L 10.402344 10.382812 L 8.2617188 11.539062 A 0.50006282 0.50003761 0 0 0 8.2578125 12.416016 L 10.384766 13.597656 L 11.539062 15.736328 A 0.50006282 0.50003761 0 0 0 12.416016 15.742188 L 13.597656 13.615234 L 15.738281 12.460938 A 0.50006282 0.50003761 0 0 0 15.742188 11.583984 L 13.617188 10.402344 L 12.460938 8.2617188 A 0.50006282 0.50003761 0 0 0 12.023438 8.0019531 z " />
</svg>
