<?xml version="1.0" encoding="UTF-8" standalone="no"?>
<svg
   height="15.996094px"
   viewBox="0 0 15.972656 15.996094"
   width="15.972656px"
   version="1.1"
   id="svg4"
   xmlns="http://www.w3.org/2000/svg"
   xmlns:svg="http://www.w3.org/2000/svg">
  <defs
     id="defs8" />
  <path
     id="path2"
     style="fill:#241f31"
     d="M 9 7.9960938 L 9 12.277344 C 8.707031 12.105469 8.363281 11.996094 8 11.996094 C 6.894531 11.996094 6 12.890625 6 13.996094 C 6 15.101562 6.894531 15.996094 8 15.996094 C 9.105469 15.996094 10 15.101562 10 13.996094 L 10 10 L 14 10 L 14 12.277344 C 13.707031 12.105469 13.363281 11.996094 13 11.996094 C 11.894531 11.996094 11 12.890625 11 13.996094 C 11 15.101562 11.894531 15.996094 13 15.996094 C 14.105469 15.996094 15 15.101562 15 13.996094 L 15 7.9960938 L 9 7.9960938 z M 8 13 A 1 1 0 0 1 9 14 A 1 1 0 0 1 8 15 A 1 1 0 0 1 7 14 A 1 1 0 0 1 8 13 z M 13 13 A 1 1 0 0 1 14 14 A 1 1 0 0 1 13 15 A 1 1 0 0 1 12 14 A 1 1 0 0 1 13 13 z " />
  <path
     id="path947"
     d="M 1,0 V 1.9960938 13.996094 16 h 1 v -1 h 1 v 1 h 1 v -2.003906 -2 h 1 v -1 H 4 V 5.9960938 h 8 v 1 h 3 v -5 V 0 h -3 v 1.9960938 3 H 4 v -3 V 0 Z M 2,1 H 3 V 1.9960938 H 2 C 2,1.6484378 2,1 2,1 Z m 11,0 h 1 V 1.9960938 H 13 C 13,1.6484378 13,1 13,1 Z M 2,2.9960938 h 1 v 1 H 2 Z m 11,0 h 1 v 1 h -1 z m -11,2 h 1 v 1 H 2 Z m 11,0 h 1 v 1 h -1 z m -11,2 h 1 v 1 H 2 Z M 5.765625,7.6601562 H 15.939453 Z M 2,8.9960938 h 1 v 1 H 2 Z m 0,2.0000002 h 1 v 1 H 2 Z m 0,2 h 1 v 1 H 2 Z"
     style="fill:#241f31" />
</svg>
