<svg xmlns="http://www.w3.org/2000/svg" xmlns:svg="http://www.w3.org/2000/svg" id="svg6" width="16" height="16" version="1.1" viewBox="0 0 16 16"><path id="path846" style="fill:#241f31;stroke-width:2;stroke-linecap:round;stroke-linejoin:round;stop-color:#000" d="M 8,7 A 1,1 0 0 1 7,8 1,1 0 0 1 6,7 1,1 0 0 1 7,6 1,1 0 0 1 8,7 Z"/><path id="path848" style="fill:#241f31;stroke-width:2;stroke-linecap:round;stroke-linejoin:round;stop-color:#000" d="m 10,12 a 1,1 0 0 1 -1,1 1,1 0 0 1 -1,-1 1,1 0 0 1 1,-1 1,1 0 0 1 1,1 z"/><path style="color:#000;fill:#241f31;-inkscape-stroke:none" id="path1020" d="m 4,2 v 11.572266 c 0,0 -0.00606,0.590291 0.3066406,1.193359 C 4.619343,15.368693 5.3392872,16 6.5,16 h 3 c 0,0 0.599337,0.0067 1.216797,-0.291016 C 11.334257,15.41128 12,14.709389 12,13.572266 V 2 h -1 v 11.572266 c 0,0.791444 -0.334258,1.05189 -0.716797,1.236328 C 9.9006646,14.993032 9.5,15 9.5,15 h -3 C 5.6607148,15 5.3806565,14.665903 5.1933594,14.304688 5.0060622,13.943472 5,13.572266 5,13.572266 V 2 Z"/><rect style="fill:#241f31;fill-opacity:1;stroke:none;stroke-linecap:round;stroke-linejoin:round;stop-color:#000" id="rect1248" width="10" height="1" x="3" y="1" ry=".5"/></svg>